<?xml version="1.0" encoding="utf-8"?>
<!-- Generator: Adobe Illustrator 19.2.1, SVG Export Plug-In . SVG Version: 6.00 Build 0)  -->
<svg version="1.1" id="Layer_1" xmlns="http://www.w3.org/2000/svg" xmlns:xlink="http://www.w3.org/1999/xlink" x="0px" y="0px"
	 viewBox="0 0 1600 888" style="enable-background:new 0 0 1600 888;" xml:space="preserve">
<style type="text/css">
	.st0{fill:none;stroke:#262626;stroke-linecap:square;stroke-miterlimit:10;stroke-opacity:0.149;}
	.st1{fill:none;stroke:#262626;stroke-linecap:square;stroke-miterlimit:10;}
	.st2{fill:#262626;}
	.st3{font-family:'MyriadPro-Regular';}
	.st4{font-size:13px;}
	.st5{fill:none;stroke:#66C2A5;stroke-linecap:square;stroke-miterlimit:10;}
	.st6{fill:#66C2A5;}
	.st7{fill:none;stroke:#000000;stroke-width:1.3333;stroke-linejoin:bevel;stroke-miterlimit:1;stroke-dasharray:1,3;}
	.st8{fill:none;stroke:#7570B3;stroke-linecap:square;stroke-miterlimit:10;}
	.st9{fill:#7570B3;}
	.st10{font-size:15px;}
	.st11{font-size:36px;}
</style>
<line class="st0" x1="781" y1="264.3" x2="274" y2="264.3"/>
<line class="st0" x1="781" y1="250.9" x2="274" y2="250.9"/>
<line class="st0" x1="781" y1="237.5" x2="274" y2="237.5"/>
<line class="st0" x1="781" y1="224.1" x2="274" y2="224.1"/>
<line class="st0" x1="781" y1="210.7" x2="274" y2="210.7"/>
<line class="st0" x1="781" y1="197.3" x2="274" y2="197.3"/>
<line class="st0" x1="781" y1="183.9" x2="274" y2="183.9"/>
<line class="st0" x1="781" y1="170.5" x2="274" y2="170.5"/>
<line class="st0" x1="781" y1="157.1" x2="274" y2="157.1"/>
<line class="st0" x1="781" y1="143.7" x2="274" y2="143.7"/>
<line class="st0" x1="781" y1="130.3" x2="274" y2="130.3"/>
<line class="st0" x1="781" y1="116.9" x2="274" y2="116.9"/>
<line class="st0" x1="781" y1="103.5" x2="274" y2="103.5"/>
<line class="st0" x1="781" y1="90.1" x2="274" y2="90.1"/>
<line class="st0" x1="781" y1="76.7" x2="274" y2="76.7"/>
<line class="st1" x1="274" y1="271" x2="781" y2="271"/>
<line class="st1" x1="274" y1="271" x2="274" y2="265.9"/>
<line class="st1" x1="358.5" y1="271" x2="358.5" y2="265.9"/>
<line class="st1" x1="443" y1="271" x2="443" y2="265.9"/>
<line class="st1" x1="527.5" y1="271" x2="527.5" y2="265.9"/>
<line class="st1" x1="612" y1="271" x2="612" y2="265.9"/>
<line class="st1" x1="696.5" y1="271" x2="696.5" y2="265.9"/>
<line class="st1" x1="781" y1="271" x2="781" y2="265.9"/>
<g transform="translate(274,276.3333)">
	<text transform="matrix(1 0 0 1 -11.5 9)" class="st2 st3 st4">-0.4</text>
</g>
<g transform="translate(358.5,276.3333)">
	<text transform="matrix(1 0 0 1 -11.5 9)" class="st2 st3 st4">-0.2</text>
</g>
<g transform="translate(443,276.3333)">
	<text transform="matrix(1 0 0 1 -4 9)" class="st2 st3 st4">0</text>
</g>
<g transform="translate(527.5,276.3333)">
	<text transform="matrix(1 0 0 1 -9.5 9)" class="st2 st3 st4">0.2</text>
</g>
<g transform="translate(612,276.3333)">
	<text transform="matrix(1 0 0 1 -9.5 9)" class="st2 st3 st4">0.4</text>
</g>
<g transform="translate(696.5,276.3333)">
	<text transform="matrix(1 0 0 1 -9.5 9)" class="st2 st3 st4">0.6</text>
</g>
<g transform="translate(781,276.3333)">
	<text transform="matrix(1 0 0 1 -9.5 9)" class="st2 st3 st4">0.8</text>
</g>
<g transform="translate(268.6667,170.5)">
	<text transform="matrix(1 0 0 1 -146.4297 5.5)" class="st2 st3 st4">Repetition4 - Repetition5+</text>
</g>
<g transform="translate(268.6667,157.1)">
	<text transform="matrix(1 0 0 1 -146.4297 5.5)" class="st2 st3 st4">Repetition3 - Repetition5+</text>
</g>
<g transform="translate(268.6667,143.7)">
	<text transform="matrix(1 0 0 1 -146.4297 5.5)" class="st2 st3 st4">Repetition2 - Repetition5+</text>
</g>
<g transform="translate(268.6667,130.3)">
	<text transform="matrix(1 0 0 1 -146.4297 5.5)" class="st2 st3 st4">Repetition1 - Repetition5+</text>
</g>
<g transform="translate(268.6667,116.9)">
	<text transform="matrix(1 0 0 1 -103.5049 5.5)" class="st2 st3 st4">Orientation - Color</text>
</g>
<g transform="translate(268.6667,103.5)">
	<text transform="matrix(1 0 0 1 -61.9307 5.5)" class="st2 st3 st4">Left - Right</text>
</g>
<g transform="translate(268.6667,90.1)">
	<text transform="matrix(1 0 0 1 -180.8667 5.5)" class="st2 st3 st4">Previous Error - No Previous Error</text>
</g>
<g transform="translate(268.6667,76.7)">
	<text transform="matrix(1 0 0 1 -137.7856 5.5)" class="st2 st3 st4">Incongruent - Congruent</text>
</g>
<g>
	<line class="st5" x1="457.8" y1="264.3" x2="502.7" y2="264.3"/>
	<line class="st5" x1="389" y1="250.9" x2="579.3" y2="250.9"/>
	<line class="st5" x1="310.5" y1="237.5" x2="500.8" y2="237.5"/>
	<line class="st5" x1="334.4" y1="224.1" x2="578.1" y2="224.1"/>
	<line class="st5" x1="274" y1="210.7" x2="500.2" y2="210.7"/>
	<line class="st5" x1="329.2" y1="197.3" x2="547.8" y2="197.3"/>
	<line class="st5" x1="445.8" y1="183.9" x2="494.5" y2="183.9"/>
	<line class="st5" x1="353.8" y1="170.5" x2="485.1" y2="170.5"/>
	<line class="st5" x1="384.8" y1="157.1" x2="520.1" y2="157.1"/>
	<line class="st5" x1="404.4" y1="143.7" x2="556.4" y2="143.7"/>
	<line class="st5" x1="385.4" y1="130.3" x2="527.1" y2="130.3"/>
	<line class="st5" x1="445.1" y1="116.9" x2="492.2" y2="116.9"/>
	<line class="st5" x1="399" y1="103.5" x2="438.3" y2="103.5"/>
	<line class="st5" x1="539.6" y1="90.1" x2="746" y2="90.1"/>
	<line class="st5" x1="426.2" y1="76.7" x2="466.8" y2="76.7"/>
</g>
<g>
	<path class="st6" d="M486.4,264.5l-1.1-3.4l-2.9-2.1h-3.6l-2.9,2.1l-1.1,3.4l1.1,3.4l2.9,2.1h3.6l2.9-2.1L486.4,264.5z"/>
	<path class="st6" d="M484.4,250.5l-1.1-3.4l-2.9-2.1h-3.6l-2.9,2.1l-1.1,3.4l1.1,3.4l2.9,2.1h3.6l2.9-2.1L484.4,250.5z"/>
	<path class="st6" d="M416.4,237.5l-1.1-3.4l-2.9-2.1h-3.6l-2.9,2.1l-1.1,3.4l1.1,3.4l2.9,2.1h3.6l2.9-2.1L416.4,237.5z"/>
	<path class="st6" d="M457.4,224.5l-1.1-3.4l-2.9-2.1h-3.6l-2.9,2.1l-1.1,3.4l1.1,3.4l2.9,2.1h3.6l2.9-2.1L457.4,224.5z"/>
	<path class="st6" d="M398.4,210.5l-1.1-3.4l-2.9-2.1h-3.6l-2.9,2.1l-1.1,3.4l1.1,3.4l2.9,2.1h3.6l2.9-2.1L398.4,210.5z"/>
	<path class="st6" d="M444.4,197.5l-1.1-3.4l-2.9-2.1h-3.6l-2.9,2.1l-1.1,3.4l1.1,3.4l2.9,2.1h3.6l2.9-2.1L444.4,197.5z"/>
	<path class="st6" d="M476.4,183.5l-1.1-3.4l-2.9-2.1h-3.6l-2.9,2.1l-1.1,3.4l1.1,3.4l2.9,2.1h3.6l2.9-2.1L476.4,183.5z"/>
	<path class="st6" d="M426.4,170.5l-1.1-3.4l-2.9-2.1h-3.6l-2.9,2.1l-1.1,3.4l1.1,3.4l2.9,2.1h3.6l2.9-2.1L426.4,170.5z"/>
	<path class="st6" d="M450.4,157.5l-1.1-3.4l-2.9-2.1h-3.6l-2.9,2.1l-1.1,3.4l1.1,3.4l2.9,2.1h3.6l2.9-2.1L450.4,157.5z"/>
	<path class="st6" d="M486.4,143.5l-1.1-3.4l-2.9-2.1h-3.6l-2.9,2.1l-1.1,3.4l1.1,3.4l2.9,2.1h3.6l2.9-2.1L486.4,143.5z"/>
	<path class="st6" d="M461.4,130.5l-1.1-3.4l-2.9-2.1h-3.6l-2.9,2.1l-1.1,3.4l1.1,3.4l2.9,2.1h3.6l2.9-2.1L461.4,130.5z"/>
	<path class="st6" d="M475.4,116.5l-1.1-3.4l-2.9-2.1h-3.6l-2.9,2.1l-1.1,3.4l1.1,3.4l2.9,2.1h3.6l2.9-2.1L475.4,116.5z"/>
	<path class="st6" d="M426.4,103.5l-1.1-3.4l-2.9-2.1h-3.6l-2.9,2.1l-1.1,3.4l1.1,3.4l2.9,2.1h3.6l2.9-2.1L426.4,103.5z"/>
	<path class="st6" d="M644.4,90.5l-1.1-3.4l-2.9-2.1h-3.6l-2.9,2.1l-1.1,3.4l1.1,3.4l2.9,2.1h3.6l2.9-2.1L644.4,90.5z"/>
	<path class="st6" d="M452.4,76.5l-1.1-3.4l-2.9-2.1h-3.6l-2.9,2.1l-1.1,3.4l1.1,3.4l2.9,2.1h3.6l2.9-2.1L452.4,76.5z"/>
</g>
<g>
	<path class="st5" d="M420.3,170.5l24.3-13.4l35.9-13.4l-24.7-13.4"/>
	<line class="st5" x1="438.4" y1="197.3" x2="470.2" y2="183.9"/>
	<path class="st5" d="M480.7,264.3l-2.1-13.4l-67.9-13.4l40.7-13.4l-59-13.4"/>
</g>
<g>
	<line class="st7" x1="443" y1="271" x2="443" y2="70"/>
</g>
<g>
	<line class="st8" x1="454" y1="264.3" x2="483.7" y2="264.3"/>
	<line class="st8" x1="425.7" y1="250.9" x2="522.1" y2="250.9"/>
	<line class="st8" x1="416.9" y1="237.5" x2="511.1" y2="237.5"/>
	<line class="st8" x1="422.2" y1="224.1" x2="519.6" y2="224.1"/>
	<line class="st8" x1="420.6" y1="210.7" x2="518.4" y2="210.7"/>
	<line class="st8" x1="408.2" y1="197.3" x2="493" y2="197.3"/>
	<line class="st8" x1="455.6" y1="183.9" x2="486.5" y2="183.9"/>
	<line class="st8" x1="405.2" y1="170.5" x2="474.6" y2="170.5"/>
	<line class="st8" x1="419.7" y1="157.1" x2="489.2" y2="157.1"/>
	<line class="st8" x1="438.6" y1="143.7" x2="520.2" y2="143.7"/>
	<line class="st8" x1="458.5" y1="130.3" x2="539.6" y2="130.3"/>
	<line class="st8" x1="455.8" y1="116.9" x2="484.6" y2="116.9"/>
	<line class="st8" x1="430.2" y1="103.5" x2="447.9" y2="103.5"/>
	<line class="st8" x1="454.9" y1="90.1" x2="532.9" y2="90.1"/>
	<line class="st8" x1="437.1" y1="76.7" x2="455.9" y2="76.7"/>
</g>
<g>
	<path class="st9" d="M474.4,264.5l-1.1-3.4l-2.9-2.1h-3.6l-2.9,2.1l-1.1,3.4l1.1,3.4l2.9,2.1h3.6l2.9-2.1L474.4,264.5z"/>
	<path class="st9" d="M472.4,250.5l-1.1-3.4l-2.9-2.1h-3.6l-2.9,2.1l-1.1,3.4l1.1,3.4l2.9,2.1h3.6l2.9-2.1L472.4,250.5z"/>
	<path class="st9" d="M465.4,237.5l-1.1-3.4l-2.9-2.1h-3.6l-2.9,2.1l-1.1,3.4l1.1,3.4l2.9,2.1h3.6l2.9-2.1L465.4,237.5z"/>
	<path class="st9" d="M472.4,224.5l-1.1-3.4l-2.9-2.1h-3.6l-2.9,2.1l-1.1,3.4l1.1,3.4l2.9,2.1h3.6l2.9-2.1L472.4,224.5z"/>
	<path class="st9" d="M470.4,210.5l-1.1-3.4l-2.9-2.1h-3.6l-2.9,2.1l-1.1,3.4l1.1,3.4l2.9,2.1h3.6l2.9-2.1L470.4,210.5z"/>
	<path class="st9" d="M456.4,197.5l-1.1-3.4l-2.9-2.1h-3.6l-2.9,2.1l-1.1,3.4l1.1,3.4l2.9,2.1h3.6l2.9-2.1L456.4,197.5z"/>
	<path class="st9" d="M476.4,183.5l-1.1-3.4l-2.9-2.1h-3.6l-2.9,2.1l-1.1,3.4l1.1,3.4l2.9,2.1h3.6l2.9-2.1L476.4,183.5z"/>
	<path class="st9" d="M443.4,170.5l-1.1-3.4l-2.9-2.1h-3.6l-2.9,2.1l-1.1,3.4l1.1,3.4l2.9,2.1h3.6l2.9-2.1L443.4,170.5z"/>
	<path class="st9" d="M456.4,157.5l-1.1-3.4l-2.9-2.1h-3.6l-2.9,2.1l-1.1,3.4l1.1,3.4l2.9,2.1h3.6l2.9-2.1L456.4,157.5z"/>
	<path class="st9" d="M482.4,143.5l-1.1-3.4l-2.9-2.1h-3.6l-2.9,2.1l-1.1,3.4l1.1,3.4l2.9,2.1h3.6l2.9-2.1L482.4,143.5z"/>
	<path class="st9" d="M503.4,130.5l-1.1-3.4l-2.9-2.1h-3.6l-2.9,2.1l-1.1,3.4l1.1,3.4l2.9,2.1h3.6l2.9-2.1L503.4,130.5z"/>
	<path class="st9" d="M475.4,116.5l-1.1-3.4l-2.9-2.1h-3.6l-2.9,2.1l-1.1,3.4l1.1,3.4l2.9,2.1h3.6l2.9-2.1L475.4,116.5z"/>
	<path class="st9" d="M445.4,103.5l-1.1-3.4l-2.9-2.1h-3.6l-2.9,2.1l-1.1,3.4l1.1,3.4l2.9,2.1h3.6l2.9-2.1L445.4,103.5z"/>
	<path class="st9" d="M496.4,90.5l-1.1-3.4l-2.9-2.1h-3.6l-2.9,2.1l-1.1,3.4l1.1,3.4l2.9,2.1h3.6l2.9-2.1L496.4,90.5z"/>
	<path class="st9" d="M452.4,76.5l-1.1-3.4l-2.9-2.1h-3.6l-2.9,2.1l-1.1,3.4l1.1,3.4l2.9,2.1h3.6l2.9-2.1L452.4,76.5z"/>
</g>
<g>
	<path class="st8" d="M437.5,170.5l12.6-13.4l26.8-13.4l20.5-13.4"/>
	<line class="st8" x1="450.5" y1="197.3" x2="470.8" y2="183.9"/>
	<path class="st8" d="M468.7,264.3l-2.1-13.4l-7.4-13.4l7.3-13.4l-1.6-13.4"/>
</g>
<g>
	<line class="st7" x1="443" y1="271" x2="443" y2="70"/>
</g>
<line class="st0" x1="1520" y1="264.3" x2="1014" y2="264.3"/>
<line class="st0" x1="1520" y1="250.9" x2="1014" y2="250.9"/>
<line class="st0" x1="1520" y1="237.5" x2="1014" y2="237.5"/>
<line class="st0" x1="1520" y1="224.1" x2="1014" y2="224.1"/>
<line class="st0" x1="1520" y1="210.7" x2="1014" y2="210.7"/>
<line class="st0" x1="1520" y1="197.3" x2="1014" y2="197.3"/>
<line class="st0" x1="1520" y1="183.9" x2="1014" y2="183.9"/>
<line class="st0" x1="1520" y1="170.5" x2="1014" y2="170.5"/>
<line class="st0" x1="1520" y1="157.1" x2="1014" y2="157.1"/>
<line class="st0" x1="1520" y1="143.7" x2="1014" y2="143.7"/>
<line class="st0" x1="1520" y1="130.3" x2="1014" y2="130.3"/>
<line class="st0" x1="1520" y1="116.9" x2="1014" y2="116.9"/>
<line class="st0" x1="1520" y1="103.5" x2="1014" y2="103.5"/>
<line class="st0" x1="1520" y1="90.1" x2="1014" y2="90.1"/>
<line class="st0" x1="1520" y1="76.7" x2="1014" y2="76.7"/>
<line class="st1" x1="1014" y1="271" x2="1520" y2="271"/>
<line class="st1" x1="1014" y1="271" x2="1014" y2="265.9"/>
<line class="st1" x1="1077.3" y1="271" x2="1077.3" y2="265.9"/>
<line class="st1" x1="1140.5" y1="271" x2="1140.5" y2="265.9"/>
<line class="st1" x1="1203.8" y1="271" x2="1203.8" y2="265.9"/>
<line class="st1" x1="1267" y1="271" x2="1267" y2="265.9"/>
<line class="st1" x1="1330.3" y1="271" x2="1330.3" y2="265.9"/>
<line class="st1" x1="1393.5" y1="271" x2="1393.5" y2="265.9"/>
<line class="st1" x1="1456.8" y1="271" x2="1456.8" y2="265.9"/>
<line class="st1" x1="1520" y1="271" x2="1520" y2="265.9"/>
<g transform="translate(1014,276.3333)">
	<text transform="matrix(1 0 0 1 -4 9)" class="st2 st3 st4">0</text>
</g>
<g transform="translate(1077.25,276.3333)">
	<text transform="matrix(1 0 0 1 -9.5 9)" class="st2 st3 st4">0.2</text>
</g>
<g transform="translate(1140.5,276.3333)">
	<text transform="matrix(1 0 0 1 -9.5 9)" class="st2 st3 st4">0.4</text>
</g>
<g transform="translate(1203.75,276.3333)">
	<text transform="matrix(1 0 0 1 -9.5 9)" class="st2 st3 st4">0.6</text>
</g>
<g transform="translate(1267,276.3333)">
	<text transform="matrix(1 0 0 1 -9.5 9)" class="st2 st3 st4">0.8</text>
</g>
<g transform="translate(1330.25,276.3333)">
	<text transform="matrix(1 0 0 1 -4 9)" class="st2 st3 st4">1</text>
</g>
<g transform="translate(1393.5,276.3333)">
	<text transform="matrix(1 0 0 1 -9.5 9)" class="st2 st3 st4">1.2</text>
</g>
<g transform="translate(1456.75,276.3333)">
	<text transform="matrix(1 0 0 1 -9.5 9)" class="st2 st3 st4">1.4</text>
</g>
<g transform="translate(1520,276.3333)">
	<text transform="matrix(1 0 0 1 -9.5 9)" class="st2 st3 st4">1.6</text>
</g>
<g transform="translate(1008.6667,170.5)">
	<text transform="matrix(1 0 0 1 -146.4297 5.5)" class="st2 st3 st4">Repetition4 - Repetition5+</text>
</g>
<g transform="translate(1008.6667,157.1)">
	<text transform="matrix(1 0 0 1 -146.4297 5.5)" class="st2 st3 st4">Repetition3 - Repetition5+</text>
</g>
<g transform="translate(1008.6667,143.7)">
	<text transform="matrix(1 0 0 1 -146.4297 5.5)" class="st2 st3 st4">Repetition2 - Repetition5+</text>
</g>
<g transform="translate(1008.6667,130.3)">
	<text transform="matrix(1 0 0 1 -146.4297 5.5)" class="st2 st3 st4">Repetition1 - Repetition5+</text>
</g>
<g transform="translate(1008.6667,116.9)">
	<text transform="matrix(1 0 0 1 -103.5049 5.5)" class="st2 st3 st4">Orientation - Color</text>
</g>
<g transform="translate(1008.6667,103.5)">
	<text transform="matrix(1 0 0 1 -61.9307 5.5)" class="st2 st3 st4">Left - Right</text>
</g>
<g transform="translate(1008.6667,90.1)">
	<text transform="matrix(1 0 0 1 -180.8662 5.5)" class="st2 st3 st4">Previous Error - No Previous Error</text>
</g>
<g transform="translate(1008.6667,76.7)">
	<text transform="matrix(1 0 0 1 -137.7852 5.5)" class="st2 st3 st4">Incongruent - Congruent</text>
</g>
<g>
	<line class="st5" x1="1106.7" y1="264.3" x2="1146.5" y2="264.3"/>
	<line class="st5" x1="1304.8" y1="250.9" x2="1457.7" y2="250.9"/>
	<line class="st5" x1="1277.2" y1="237.5" x2="1445.2" y2="237.5"/>
	<line class="st5" x1="1343.5" y1="224.1" x2="1517.4" y2="224.1"/>
	<line class="st5" x1="1304.8" y1="210.7" x2="1472.7" y2="210.7"/>
	<line class="st5" x1="1318.3" y1="197.3" x2="1450.7" y2="197.3"/>
	<line class="st5" x1="1141.8" y1="183.9" x2="1183.3" y2="183.9"/>
	<line class="st5" x1="1256.2" y1="170.5" x2="1348.3" y2="170.5"/>
	<line class="st5" x1="1254.9" y1="157.1" x2="1345.5" y2="157.1"/>
	<line class="st5" x1="1274.9" y1="143.7" x2="1362.8" y2="143.7"/>
	<line class="st5" x1="1279.1" y1="130.3" x2="1380.2" y2="130.3"/>
	<line class="st5" x1="1157.8" y1="116.9" x2="1200.9" y2="116.9"/>
	<line class="st5" x1="1066" y1="103.5" x2="1098.7" y2="103.5"/>
	<line class="st5" x1="1360.7" y1="90.1" x2="1470.5" y2="90.1"/>
	<line class="st5" x1="1068.4" y1="76.7" x2="1103.2" y2="76.7"/>
</g>
<g>
	<path class="st6" d="M1131.4,264.5l-1.1-3.4l-2.9-2.1h-3.6l-2.9,2.1l-1.1,3.4l1.1,3.4l2.9,2.1h3.6l2.9-2.1L1131.4,264.5z"/>
	<path class="st6" d="M1385.4,250.5l-1.1-3.4l-2.9-2.1h-3.6l-2.9,2.1l-1.1,3.4l1.1,3.4l2.9,2.1h3.6l2.9-2.1L1385.4,250.5z"/>
	<path class="st6" d="M1359.4,237.5l-1.1-3.4l-2.9-2.1h-3.6l-2.9,2.1l-1.1,3.4l1.1,3.4l2.9,2.1h3.6l2.9-2.1L1359.4,237.5z"/>
	<path class="st6" d="M1432.4,224.5l-1.1-3.4l-2.9-2.1h-3.6l-2.9,2.1l-1.1,3.4l1.1,3.4l2.9,2.1h3.6l2.9-2.1L1432.4,224.5z"/>
	<path class="st6" d="M1388.4,210.5l-1.1-3.4l-2.9-2.1h-3.6l-2.9,2.1l-1.1,3.4l1.1,3.4l2.9,2.1h3.6l2.9-2.1L1388.4,210.5z"/>
	<path class="st6" d="M1384.4,197.5l-1.1-3.4l-2.9-2.1h-3.6l-2.9,2.1l-1.1,3.4l1.1,3.4l2.9,2.1h3.6l2.9-2.1L1384.4,197.5z"/>
	<path class="st6" d="M1165.4,183.5l-1.1-3.4l-2.9-2.1h-3.6l-2.9,2.1l-1.1,3.4l1.1,3.4l2.9,2.1h3.6l2.9-2.1L1165.4,183.5z"/>
	<path class="st6" d="M1305.4,170.5l-1.1-3.4l-2.9-2.1h-3.6l-2.9,2.1l-1.1,3.4l1.1,3.4l2.9,2.1h3.6l2.9-2.1L1305.4,170.5z"/>
	<path class="st6" d="M1302.4,157.5l-1.1-3.4l-2.9-2.1h-3.6l-2.9,2.1l-1.1,3.4l1.1,3.4l2.9,2.1h3.6l2.9-2.1L1302.4,157.5z"/>
	<path class="st6" d="M1323.4,143.5l-1.1-3.4l-2.9-2.1h-3.6l-2.9,2.1l-1.1,3.4l1.1,3.4l2.9,2.1h3.6l2.9-2.1L1323.4,143.5z"/>
	<path class="st6" d="M1330.4,130.5l-1.1-3.4l-2.9-2.1h-3.6l-2.9,2.1l-1.1,3.4l1.1,3.4l2.9,2.1h3.6l2.9-2.1L1330.4,130.5z"/>
	<path class="st6" d="M1183.4,116.5l-1.1-3.4l-2.9-2.1h-3.6l-2.9,2.1l-1.1,3.4l1.1,3.4l2.9,2.1h3.6l2.9-2.1L1183.4,116.5z"/>
	<path class="st6" d="M1087.4,103.5l-1.1-3.4l-2.9-2.1h-3.6l-2.9,2.1l-1.1,3.4l1.1,3.4l2.9,2.1h3.6l2.9-2.1L1087.4,103.5z"/>
	<path class="st6" d="M1418.4,90.5l-1.1-3.4l-2.9-2.1h-3.6l-2.9,2.1l-1.1,3.4l1.1,3.4l2.9,2.1h3.6l2.9-2.1L1418.4,90.5z"/>
	<path class="st6" d="M1089.4,76.5l-1.1-3.4l-2.9-2.1h-3.6l-2.9,2.1l-1.1,3.4l1.1,3.4l2.9,2.1h3.6l2.9-2.1L1089.4,76.5z"/>
</g>
<g>
	<path class="st5" d="M1299.4,170.5l-3-13.4l20.9-13.4l6.8-13.4"/>
	<line class="st5" x1="1378.8" y1="197.3" x2="1159.9" y2="183.9"/>
	<path class="st5" d="M1125.2,264.3l254-13.4l-25.5-13.4l72.8-13.4l-43.9-13.4"/>
</g>
<g>
	<line class="st8" x1="1090.8" y1="264.3" x2="1115.2" y2="264.3"/>
	<line class="st8" x1="1158.9" y1="250.9" x2="1238.6" y2="250.9"/>
	<line class="st8" x1="1146.8" y1="237.5" x2="1228.1" y2="237.5"/>
	<line class="st8" x1="1174.8" y1="224.1" x2="1261.3" y2="224.1"/>
	<line class="st8" x1="1170.2" y1="210.7" x2="1265.5" y2="210.7"/>
	<line class="st8" x1="1156.6" y1="197.3" x2="1222.8" y2="197.3"/>
	<line class="st8" x1="1101.1" y1="183.9" x2="1127.5" y2="183.9"/>
	<line class="st8" x1="1133.5" y1="170.5" x2="1185.2" y2="170.5"/>
	<line class="st8" x1="1130.5" y1="157.1" x2="1178.3" y2="157.1"/>
	<line class="st8" x1="1144.5" y1="143.7" x2="1197.2" y2="143.7"/>
	<line class="st8" x1="1164.7" y1="130.3" x2="1221.8" y2="130.3"/>
	<line class="st8" x1="1106.8" y1="116.9" x2="1132.2" y2="116.9"/>
	<line class="st8" x1="1042.3" y1="103.5" x2="1056.7" y2="103.5"/>
	<line class="st8" x1="1144.4" y1="90.1" x2="1197.1" y2="90.1"/>
	<line class="st8" x1="1039" y1="76.7" x2="1055.3" y2="76.7"/>
</g>
<g>
	<path class="st9" d="M1107.4,264.5l-1.1-3.4l-2.9-2.1h-3.6l-2.9,2.1l-1.1,3.4l1.1,3.4l2.9,2.1h3.6l2.9-2.1L1107.4,264.5z"/>
	<path class="st9" d="M1202.4,250.5l-1.1-3.4l-2.9-2.1h-3.6l-2.9,2.1l-1.1,3.4l1.1,3.4l2.9,2.1h3.6l2.9-2.1L1202.4,250.5z"/>
	<path class="st9" d="M1189.4,237.5l-1.1-3.4l-2.9-2.1h-3.6l-2.9,2.1l-1.1,3.4l1.1,3.4l2.9,2.1h3.6l2.9-2.1L1189.4,237.5z"/>
	<path class="st9" d="M1218.4,224.5l-1.1-3.4l-2.9-2.1h-3.6l-2.9,2.1l-1.1,3.4l1.1,3.4l2.9,2.1h3.6l2.9-2.1L1218.4,224.5z"/>
	<path class="st9" d="M1218.4,210.5l-1.1-3.4l-2.9-2.1h-3.6l-2.9,2.1l-1.1,3.4l1.1,3.4l2.9,2.1h3.6l2.9-2.1L1218.4,210.5z"/>
	<path class="st9" d="M1194.4,197.5l-1.1-3.4l-2.9-2.1h-3.6l-2.9,2.1l-1.1,3.4l1.1,3.4l2.9,2.1h3.6l2.9-2.1L1194.4,197.5z"/>
	<path class="st9" d="M1119.4,183.5l-1.1-3.4l-2.9-2.1h-3.6l-2.9,2.1l-1.1,3.4l1.1,3.4l2.9,2.1h3.6l2.9-2.1L1119.4,183.5z"/>
	<path class="st9" d="M1164.4,170.5l-1.1-3.4l-2.9-2.1h-3.6l-2.9,2.1l-1.1,3.4l1.1,3.4l2.9,2.1h3.6l2.9-2.1L1164.4,170.5z"/>
	<path class="st9" d="M1158.4,157.5l-1.1-3.4l-2.9-2.1h-3.6l-2.9,2.1l-1.1,3.4l1.1,3.4l2.9,2.1h3.6l2.9-2.1L1158.4,157.5z"/>
	<path class="st9" d="M1174.4,143.5l-1.1-3.4l-2.9-2.1h-3.6l-2.9,2.1l-1.1,3.4l1.1,3.4l2.9,2.1h3.6l2.9-2.1L1174.4,143.5z"/>
	<path class="st9" d="M1198.4,130.5l-1.1-3.4l-2.9-2.1h-3.6l-2.9,2.1l-1.1,3.4l1.1,3.4l2.9,2.1h3.6l2.9-2.1L1198.4,130.5z"/>
	<path class="st9" d="M1124.4,116.5l-1.1-3.4l-2.9-2.1h-3.6l-2.9,2.1l-1.1,3.4l1.1,3.4l2.9,2.1h3.6l2.9-2.1L1124.4,116.5z"/>
	<path class="st9" d="M1054.4,103.5l-1.1-3.4l-2.9-2.1h-3.6l-2.9,2.1l-1.1,3.4l1.1,3.4l2.9,2.1h3.6l2.9-2.1L1054.4,103.5z"/>
	<path class="st9" d="M1175.4,90.5l-1.1-3.4l-2.9-2.1h-3.6l-2.9,2.1l-1.1,3.4l1.1,3.4l2.9,2.1h3.6l2.9-2.1L1175.4,90.5z"/>
	<path class="st9" d="M1051.4,76.5l-1.1-3.4l-2.9-2.1h-3.6l-2.9,2.1l-1.1,3.4l1.1,3.4l2.9,2.1h3.6l2.9-2.1L1051.4,76.5z"/>
</g>
<g>
	<path class="st8" d="M1158.8,170.5l-6.4-13.4l15.8-13.4l24.4-13.4"/>
	<line class="st8" x1="1188.4" y1="197.3" x2="1113.4" y2="183.9"/>
	<path class="st8" d="M1102,264.3l94.5-13.4l-13-13.4l28.6-13.4l0.6-13.4"/>
</g>
<line class="st0" x1="781" y1="544.3" x2="274" y2="544.3"/>
<line class="st0" x1="781" y1="530.9" x2="274" y2="530.9"/>
<line class="st0" x1="781" y1="517.5" x2="274" y2="517.5"/>
<line class="st0" x1="781" y1="504.1" x2="274" y2="504.1"/>
<line class="st0" x1="781" y1="490.7" x2="274" y2="490.7"/>
<line class="st0" x1="781" y1="477.3" x2="274" y2="477.3"/>
<line class="st0" x1="781" y1="463.9" x2="274" y2="463.9"/>
<line class="st0" x1="781" y1="450.5" x2="274" y2="450.5"/>
<line class="st0" x1="781" y1="437.1" x2="274" y2="437.1"/>
<line class="st0" x1="781" y1="423.7" x2="274" y2="423.7"/>
<line class="st0" x1="781" y1="410.3" x2="274" y2="410.3"/>
<line class="st0" x1="781" y1="396.9" x2="274" y2="396.9"/>
<line class="st0" x1="781" y1="383.5" x2="274" y2="383.5"/>
<line class="st0" x1="781" y1="370.1" x2="274" y2="370.1"/>
<line class="st0" x1="781" y1="356.7" x2="274" y2="356.7"/>
<line class="st1" x1="274" y1="551" x2="781" y2="551"/>
<line class="st1" x1="274" y1="551" x2="274" y2="545.9"/>
<line class="st1" x1="324.7" y1="551" x2="324.7" y2="545.9"/>
<line class="st1" x1="375.4" y1="551" x2="375.4" y2="545.9"/>
<line class="st1" x1="426.1" y1="551" x2="426.1" y2="545.9"/>
<line class="st1" x1="476.8" y1="551" x2="476.8" y2="545.9"/>
<line class="st1" x1="527.5" y1="551" x2="527.5" y2="545.9"/>
<line class="st1" x1="578.2" y1="551" x2="578.2" y2="545.9"/>
<line class="st1" x1="628.9" y1="551" x2="628.9" y2="545.9"/>
<line class="st1" x1="679.6" y1="551" x2="679.6" y2="545.9"/>
<line class="st1" x1="730.3" y1="551" x2="730.3" y2="545.9"/>
<line class="st1" x1="781" y1="551" x2="781" y2="545.9"/>
<g transform="translate(274,556.3333)">
	<text transform="matrix(1 0 0 1 -15 8)" class="st2 st3 st4">-0.04</text>
</g>
<g transform="translate(324.7,556.3333)">
	<text transform="matrix(1 0 0 1 -15 8)" class="st2 st3 st4">-0.03</text>
</g>
<g transform="translate(375.4,556.3333)">
	<text transform="matrix(1 0 0 1 -15 8)" class="st2 st3 st4">-0.02</text>
</g>
<g transform="translate(426.1,556.3333)">
	<text transform="matrix(1 0 0 1 -15 8)" class="st2 st3 st4">-0.01</text>
</g>
<g transform="translate(476.8,556.3333)">
	<text transform="matrix(1 0 0 1 -4 8)" class="st2 st3 st4">0</text>
</g>
<g transform="translate(527.5,556.3333)">
	<text transform="matrix(1 0 0 1 -13 8)" class="st2 st3 st4">0.01</text>
</g>
<g transform="translate(578.2,556.3333)">
	<text transform="matrix(1 0 0 1 -13 8)" class="st2 st3 st4">0.02</text>
</g>
<g transform="translate(628.9,556.3333)">
	<text transform="matrix(1 0 0 1 -13 8)" class="st2 st3 st4">0.03</text>
</g>
<g transform="translate(679.6,556.3333)">
	<text transform="matrix(1 0 0 1 -13 8)" class="st2 st3 st4">0.04</text>
</g>
<g transform="translate(730.3,556.3333)">
	<text transform="matrix(1 0 0 1 -13 8)" class="st2 st3 st4">0.05</text>
</g>
<g transform="translate(781,556.3333)">
	<text transform="matrix(1 0 0 1 -13 8)" class="st2 st3 st4">0.06</text>
</g>
<g transform="translate(268.6667,450.5)">
	<text transform="matrix(1 0 0 1 -146.4297 5.5)" class="st2 st3 st4">Repetition4 - Repetition5+</text>
</g>
<g transform="translate(268.6667,437.1)">
	<text transform="matrix(1 0 0 1 -146.4297 5.5)" class="st2 st3 st4">Repetition3 - Repetition5+</text>
</g>
<g transform="translate(268.6667,423.7)">
	<text transform="matrix(1 0 0 1 -146.4297 5.5)" class="st2 st3 st4">Repetition2 - Repetition5+</text>
</g>
<g transform="translate(268.6667,410.3)">
	<text transform="matrix(1 0 0 1 -146.4297 5.5)" class="st2 st3 st4">Repetition1 - Repetition5+</text>
</g>
<g transform="translate(268.6667,396.9)">
	<text transform="matrix(1 0 0 1 -103.5049 5.5)" class="st2 st3 st4">Orientation - Color</text>
</g>
<g transform="translate(268.6667,383.5)">
	<text transform="matrix(1 0 0 1 -61.9307 5.5)" class="st2 st3 st4">Left - Right</text>
</g>
<g transform="translate(268.6667,370.1)">
	<text transform="matrix(1 0 0 1 -180.8667 5.5)" class="st2 st3 st4">Previous Error - No Previous Error</text>
</g>
<g transform="translate(268.6667,356.7)">
	<text transform="matrix(1 0 0 1 -137.7856 5.5)" class="st2 st3 st4">Incongruent - Congruent</text>
</g>
<g>
	<line class="st5" x1="488.7" y1="544.3" x2="535.2" y2="544.3"/>
	<line class="st5" x1="429.2" y1="530.9" x2="634.9" y2="530.9"/>
	<line class="st5" x1="339.5" y1="517.5" x2="547.4" y2="517.5"/>
	<line class="st5" x1="373.1" y1="504.1" x2="607.5" y2="504.1"/>
	<line class="st5" x1="285.3" y1="490.7" x2="532.6" y2="490.7"/>
	<line class="st5" x1="367.3" y1="477.3" x2="582.8" y2="477.3"/>
	<line class="st5" x1="480.9" y1="463.9" x2="533.6" y2="463.9"/>
	<line class="st5" x1="351.4" y1="450.5" x2="497.8" y2="450.5"/>
	<line class="st5" x1="392.7" y1="437.1" x2="537.9" y2="437.1"/>
	<line class="st5" x1="415.3" y1="423.7" x2="563.7" y2="423.7"/>
	<line class="st5" x1="400.9" y1="410.3" x2="534.9" y2="410.3"/>
	<line class="st5" x1="479.9" y1="396.9" x2="527.7" y2="396.9"/>
	<line class="st5" x1="431.4" y1="383.5" x2="471.5" y2="383.5"/>
	<line class="st5" x1="558.6" y1="370.1" x2="759.2" y2="370.1"/>
	<line class="st5" x1="459.5" y1="356.7" x2="498.8" y2="356.7"/>
</g>
<g>
	<path class="st6" d="M519.4,544.5l-1.1-3.4l-2.9-2.1h-3.6l-2.9,2.1l-1.1,3.4l1.1,3.4l2.9,2.1h3.6l2.9-2.1L519.4,544.5z"/>
	<path class="st6" d="M534.4,530.5l-1.1-3.4l-2.9-2.1h-3.6l-2.9,2.1l-1.1,3.4l1.1,3.4l2.9,2.1h3.6l2.9-2.1L534.4,530.5z"/>
	<path class="st6" d="M448.4,517.5l-1.1-3.4l-2.9-2.1h-3.6l-2.9,2.1l-1.1,3.4l1.1,3.4l2.9,2.1h3.6l2.9-2.1L448.4,517.5z"/>
	<path class="st6" d="M488.4,504.5l-1.1-3.4l-2.9-2.1h-3.6l-2.9,2.1l-1.1,3.4l1.1,3.4l2.9,2.1h3.6l2.9-2.1L488.4,504.5z"/>
	<path class="st6" d="M417.4,490.5l-1.1-3.4l-2.9-2.1h-3.6l-2.9,2.1l-1.1,3.4l1.1,3.4l2.9,2.1h3.6l2.9-2.1L417.4,490.5z"/>
	<path class="st6" d="M480.4,477.5l-1.1-3.4l-2.9-2.1h-3.6l-2.9,2.1l-1.1,3.4l1.1,3.4l2.9,2.1h3.6l2.9-2.1L480.4,477.5z"/>
	<path class="st6" d="M513.4,463.5l-1.1-3.4l-2.9-2.1h-3.6l-2.9,2.1l-1.1,3.4l1.1,3.4l2.9,2.1h3.6l2.9-2.1L513.4,463.5z"/>
	<path class="st6" d="M429.4,450.5l-1.1-3.4l-2.9-2.1h-3.6l-2.9,2.1l-1.1,3.4l1.1,3.4l2.9,2.1h3.6l2.9-2.1L429.4,450.5z"/>
	<path class="st6" d="M471.4,437.5l-1.1-3.4l-2.9-2.1h-3.6l-2.9,2.1l-1.1,3.4l1.1,3.4l2.9,2.1h3.6l2.9-2.1L471.4,437.5z"/>
	<path class="st6" d="M496.4,423.5l-1.1-3.4l-2.9-2.1h-3.6l-2.9,2.1l-1.1,3.4l1.1,3.4l2.9,2.1h3.6l2.9-2.1L496.4,423.5z"/>
	<path class="st6" d="M475.4,410.5l-1.1-3.4l-2.9-2.1h-3.6l-2.9,2.1l-1.1,3.4l1.1,3.4l2.9,2.1h3.6l2.9-2.1L475.4,410.5z"/>
	<path class="st6" d="M509.4,396.5l-1.1-3.4l-2.9-2.1h-3.6l-2.9,2.1l-1.1,3.4l1.1,3.4l2.9,2.1h3.6l2.9-2.1L509.4,396.5z"/>
	<path class="st6" d="M458.4,383.5l-1.1-3.4l-2.9-2.1h-3.6l-2.9,2.1l-1.1,3.4l1.1,3.4l2.9,2.1h3.6l2.9-2.1L458.4,383.5z"/>
	<path class="st6" d="M669.4,370.5l-1.1-3.4l-2.9-2.1h-3.6l-2.9,2.1l-1.1,3.4l1.1,3.4l2.9,2.1h3.6l2.9-2.1L669.4,370.5z"/>
	<path class="st6" d="M485.4,356.5l-1.1-3.4l-2.9-2.1h-3.6l-2.9,2.1l-1.1,3.4l1.1,3.4l2.9,2.1h3.6l2.9-2.1L485.4,356.5z"/>
</g>
<g>
	<path class="st5" d="M423.3,450.5l42.2-13.4l24.7-13.4L470,410.3"/>
	<line class="st5" x1="474.7" y1="477.3" x2="507" y2="463.9"/>
	<path class="st5" d="M513.5,544.3l14.6-13.4l-85.4-13.4l40-13.4l-71.2-13.4"/>
</g>
<g>
	<line class="st7" x1="476.8" y1="551" x2="476.8" y2="350"/>
</g>
<g>
	<line class="st8" x1="497.4" y1="544.3" x2="552.2" y2="544.3"/>
	<line class="st8" x1="426" y1="530.9" x2="657" y2="530.9"/>
	<line class="st8" x1="408.1" y1="517.5" x2="632" y2="517.5"/>
	<line class="st8" x1="418.5" y1="504.1" x2="652.1" y2="504.1"/>
	<line class="st8" x1="413.9" y1="490.7" x2="674" y2="490.7"/>
	<line class="st8" x1="374.7" y1="477.3" x2="578" y2="477.3"/>
	<line class="st8" x1="503.8" y1="463.9" x2="564.8" y2="463.9"/>
	<line class="st8" x1="368.6" y1="450.5" x2="526.1" y2="450.5"/>
	<line class="st8" x1="398.4" y1="437.1" x2="556.2" y2="437.1"/>
	<line class="st8" x1="440.6" y1="423.7" x2="603.7" y2="423.7"/>
	<line class="st8" x1="484.6" y1="410.3" x2="650.6" y2="410.3"/>
	<line class="st8" x1="504.8" y1="396.9" x2="561.6" y2="396.9"/>
	<line class="st8" x1="448.5" y1="383.5" x2="485" y2="383.5"/>
	<line class="st8" x1="491.4" y1="370.1" x2="656.7" y2="370.1"/>
	<line class="st8" x1="463.6" y1="356.7" x2="506.6" y2="356.7"/>
</g>
<g>
	<path class="st9" d="M533.4,544.5l-1.1-3.4l-2.9-2.1h-3.6l-2.9,2.1l-1.1,3.4l1.1,3.4l2.9,2.1h3.6l2.9-2.1L533.4,544.5z"/>
	<path class="st9" d="M546.4,530.5l-1.1-3.4l-2.9-2.1h-3.6l-2.9,2.1l-1.1,3.4l1.1,3.4l2.9,2.1h3.6l2.9-2.1L546.4,530.5z"/>
	<path class="st9" d="M529.4,517.5l-1.1-3.4l-2.9-2.1h-3.6l-2.9,2.1l-1.1,3.4l1.1,3.4l2.9,2.1h3.6l2.9-2.1L529.4,517.5z"/>
	<path class="st9" d="M544.4,504.5l-1.1-3.4l-2.9-2.1h-3.6l-2.9,2.1l-1.1,3.4l1.1,3.4l2.9,2.1h3.6l2.9-2.1L544.4,504.5z"/>
	<path class="st9" d="M552.4,490.5l-1.1-3.4l-2.9-2.1h-3.6l-2.9,2.1l-1.1,3.4l1.1,3.4l2.9,2.1h3.6l2.9-2.1L552.4,490.5z"/>
	<path class="st9" d="M485.4,477.5l-1.1-3.4l-2.9-2.1h-3.6l-2.9,2.1l-1.1,3.4l1.1,3.4l2.9,2.1h3.6l2.9-2.1L485.4,477.5z"/>
	<path class="st9" d="M541.4,463.5l-1.1-3.4l-2.9-2.1h-3.6l-2.9,2.1l-1.1,3.4l1.1,3.4l2.9,2.1h3.6l2.9-2.1L541.4,463.5z"/>
	<path class="st9" d="M450.4,450.5l-1.1-3.4l-2.9-2.1h-3.6l-2.9,2.1l-1.1,3.4l1.1,3.4l2.9,2.1h3.6l2.9-2.1L450.4,450.5z"/>
	<path class="st9" d="M479.4,437.5l-1.1-3.4l-2.9-2.1h-3.6l-2.9,2.1l-1.1,3.4l1.1,3.4l2.9,2.1h3.6l2.9-2.1L479.4,437.5z"/>
	<path class="st9" d="M527.4,423.5l-1.1-3.4l-2.9-2.1h-3.6l-2.9,2.1l-1.1,3.4l1.1,3.4l2.9,2.1h3.6l2.9-2.1L527.4,423.5z"/>
	<path class="st9" d="M572.4,410.5l-1.1-3.4l-2.9-2.1h-3.6l-2.9,2.1l-1.1,3.4l1.1,3.4l2.9,2.1h3.6l2.9-2.1L572.4,410.5z"/>
	<path class="st9" d="M540.4,396.5l-1.1-3.4l-2.9-2.1h-3.6l-2.9,2.1l-1.1,3.4l1.1,3.4l2.9,2.1h3.6l2.9-2.1L540.4,396.5z"/>
	<path class="st9" d="M472.4,383.5l-1.1-3.4l-2.9-2.1h-3.6l-2.9,2.1l-1.1,3.4l1.1,3.4l2.9,2.1h3.6l2.9-2.1L472.4,383.5z"/>
	<path class="st9" d="M576.4,370.5l-1.1-3.4l-2.9-2.1h-3.6l-2.9,2.1l-1.1,3.4l1.1,3.4l2.9,2.1h3.6l2.9-2.1L576.4,370.5z"/>
	<path class="st9" d="M490.4,356.5l-1.1-3.4l-2.9-2.1h-3.6l-2.9,2.1l-1.1,3.4l1.1,3.4l2.9,2.1h3.6l2.9-2.1L490.4,356.5z"/>
</g>
<g>
	<path class="st8" d="M444.8,450.5l28.4-13.4l48.8-13.4l44.8-13.4"/>
	<line class="st8" x1="479.2" y1="477.3" x2="535.2" y2="463.9"/>
	<path class="st8" d="M527.3,544.3l13.6-13.4l-17.5-13.4l15.4-13.4l7.6-13.4"/>
</g>
<g>
	<line class="st7" x1="476.8" y1="551" x2="476.8" y2="350"/>
</g>
<line class="st0" x1="1520" y1="544.3" x2="1014" y2="544.3"/>
<line class="st0" x1="1520" y1="530.9" x2="1014" y2="530.9"/>
<line class="st0" x1="1520" y1="517.5" x2="1014" y2="517.5"/>
<line class="st0" x1="1520" y1="504.1" x2="1014" y2="504.1"/>
<line class="st0" x1="1520" y1="490.7" x2="1014" y2="490.7"/>
<line class="st0" x1="1520" y1="477.3" x2="1014" y2="477.3"/>
<line class="st0" x1="1520" y1="463.9" x2="1014" y2="463.9"/>
<line class="st0" x1="1520" y1="450.5" x2="1014" y2="450.5"/>
<line class="st0" x1="1520" y1="437.1" x2="1014" y2="437.1"/>
<line class="st0" x1="1520" y1="423.7" x2="1014" y2="423.7"/>
<line class="st0" x1="1520" y1="410.3" x2="1014" y2="410.3"/>
<line class="st0" x1="1520" y1="396.9" x2="1014" y2="396.9"/>
<line class="st0" x1="1520" y1="383.5" x2="1014" y2="383.5"/>
<line class="st0" x1="1520" y1="370.1" x2="1014" y2="370.1"/>
<line class="st0" x1="1520" y1="356.7" x2="1014" y2="356.7"/>
<line class="st1" x1="1014" y1="551" x2="1520" y2="551"/>
<line class="st1" x1="1014" y1="551" x2="1014" y2="545.9"/>
<line class="st1" x1="1086.3" y1="551" x2="1086.3" y2="545.9"/>
<line class="st1" x1="1158.6" y1="551" x2="1158.6" y2="545.9"/>
<line class="st1" x1="1230.9" y1="551" x2="1230.9" y2="545.9"/>
<line class="st1" x1="1303.1" y1="551" x2="1303.1" y2="545.9"/>
<line class="st1" x1="1375.4" y1="551" x2="1375.4" y2="545.9"/>
<line class="st1" x1="1447.7" y1="551" x2="1447.7" y2="545.9"/>
<line class="st1" x1="1520" y1="551" x2="1520" y2="545.9"/>
<g transform="translate(1014,556.3333)">
	<text transform="matrix(1 0 0 1 -4 8)" class="st2 st3 st4">0</text>
</g>
<g transform="translate(1086.2858,556.3333)">
	<text transform="matrix(1 0 0 1 -13 8)" class="st2 st3 st4">0.02</text>
</g>
<g transform="translate(1158.5714,556.3333)">
	<text transform="matrix(1 0 0 1 -13 8)" class="st2 st3 st4">0.04</text>
</g>
<g transform="translate(1230.8572,556.3333)">
	<text transform="matrix(1 0 0 1 -13 8)" class="st2 st3 st4">0.06</text>
</g>
<g transform="translate(1303.1428,556.3333)">
	<text transform="matrix(1 0 0 1 -13 8)" class="st2 st3 st4">0.08</text>
</g>
<g transform="translate(1375.4286,556.3333)">
	<text transform="matrix(1 0 0 1 -9.5 8)" class="st2 st3 st4">0.1</text>
</g>
<g transform="translate(1447.7142,556.3333)">
	<text transform="matrix(1 0 0 1 -13 8)" class="st2 st3 st4">0.12</text>
</g>
<g transform="translate(1520,556.3333)">
	<text transform="matrix(1 0 0 1 -13 8)" class="st2 st3 st4">0.14</text>
</g>
<g transform="translate(1008.6667,450.5)">
	<text transform="matrix(1 0 0 1 -146.4297 5.5)" class="st2 st3 st4">Repetition4 - Repetition5+</text>
</g>
<g transform="translate(1008.6667,437.1)">
	<text transform="matrix(1 0 0 1 -146.4297 5.5)" class="st2 st3 st4">Repetition3 - Repetition5+</text>
</g>
<g transform="translate(1008.6667,423.7)">
	<text transform="matrix(1 0 0 1 -146.4297 5.5)" class="st2 st3 st4">Repetition2 - Repetition5+</text>
</g>
<g transform="translate(1008.6667,410.3)">
	<text transform="matrix(1 0 0 1 -146.4297 5.5)" class="st2 st3 st4">Repetition1 - Repetition5+</text>
</g>
<g transform="translate(1008.6667,396.9)">
	<text transform="matrix(1 0 0 1 -103.5049 5.5)" class="st2 st3 st4">Orientation - Color</text>
</g>
<g transform="translate(1008.6667,383.5)">
	<text transform="matrix(1 0 0 1 -61.9307 5.5)" class="st2 st3 st4">Left - Right</text>
</g>
<g transform="translate(1008.6667,370.1)">
	<text transform="matrix(1 0 0 1 -180.8662 5.5)" class="st2 st3 st4">Previous Error - No Previous Error</text>
</g>
<g transform="translate(1008.6667,356.7)">
	<text transform="matrix(1 0 0 1 -137.7852 5.5)" class="st2 st3 st4">Incongruent - Congruent</text>
</g>
<g>
	<line class="st5" x1="1083.9" y1="544.3" x2="1111.9" y2="544.3"/>
	<line class="st5" x1="1269.5" y1="530.9" x2="1406.4" y2="530.9"/>
	<line class="st5" x1="1233.8" y1="517.5" x2="1371.9" y2="517.5"/>
	<line class="st5" x1="1306.6" y1="504.1" x2="1441.6" y2="504.1"/>
	<line class="st5" x1="1267.8" y1="490.7" x2="1401.7" y2="490.7"/>
	<line class="st5" x1="1231.1" y1="477.3" x2="1331.8" y2="477.3"/>
	<line class="st5" x1="1081.5" y1="463.9" x2="1111.7" y2="463.9"/>
	<line class="st5" x1="1145.2" y1="450.5" x2="1219.4" y2="450.5"/>
	<line class="st5" x1="1144.4" y1="437.1" x2="1212.2" y2="437.1"/>
	<line class="st5" x1="1150" y1="423.7" x2="1218.5" y2="423.7"/>
	<line class="st5" x1="1156.9" y1="410.3" x2="1236.5" y2="410.3"/>
	<line class="st5" x1="1080.2" y1="396.9" x2="1110.2" y2="396.9"/>
	<line class="st5" x1="1061.1" y1="383.5" x2="1089.3" y2="383.5"/>
	<line class="st5" x1="1247.4" y1="370.1" x2="1340.2" y2="370.1"/>
	<line class="st5" x1="1062.7" y1="356.7" x2="1089.9" y2="356.7"/>
</g>
<g>
	<path class="st6" d="M1102.4,544.5l-1.1-3.4l-2.9-2.1h-3.6l-2.9,2.1l-1.1,3.4l1.1,3.4l2.9,2.1h3.6l2.9-2.1L1102.4,544.5z"/>
	<path class="st6" d="M1335.4,530.5l-1.1-3.4l-2.9-2.1h-3.6l-2.9,2.1l-1.1,3.4l1.1,3.4l2.9,2.1h3.6l2.9-2.1L1335.4,530.5z"/>
	<path class="st6" d="M1304.4,517.5l-1.1-3.4l-2.9-2.1h-3.6l-2.9,2.1l-1.1,3.4l1.1,3.4l2.9,2.1h3.6l2.9-2.1L1304.4,517.5z"/>
	<path class="st6" d="M1376.4,504.5l-1.1-3.4l-2.9-2.1h-3.6l-2.9,2.1l-1.1,3.4l1.1,3.4l2.9,2.1h3.6l2.9-2.1L1376.4,504.5z"/>
	<path class="st6" d="M1335.4,490.5l-1.1-3.4l-2.9-2.1h-3.6l-2.9,2.1l-1.1,3.4l1.1,3.4l2.9,2.1h3.6l2.9-2.1L1335.4,490.5z"/>
	<path class="st6" d="M1283.4,477.5l-1.1-3.4l-2.9-2.1h-3.6l-2.9,2.1l-1.1,3.4l1.1,3.4l2.9,2.1h3.6l2.9-2.1L1283.4,477.5z"/>
	<path class="st6" d="M1101.4,463.5l-1.1-3.4l-2.9-2.1h-3.6l-2.9,2.1l-1.1,3.4l1.1,3.4l2.9,2.1h3.6l2.9-2.1L1101.4,463.5z"/>
	<path class="st6" d="M1186.4,450.5l-1.1-3.4l-2.9-2.1h-3.6l-2.9,2.1l-1.1,3.4l1.1,3.4l2.9,2.1h3.6l2.9-2.1L1186.4,450.5z"/>
	<path class="st6" d="M1182.4,437.5l-1.1-3.4l-2.9-2.1h-3.6l-2.9,2.1l-1.1,3.4l1.1,3.4l2.9,2.1h3.6l2.9-2.1L1182.4,437.5z"/>
	<path class="st6" d="M1189.4,423.5l-1.1-3.4l-2.9-2.1h-3.6l-2.9,2.1l-1.1,3.4l1.1,3.4l2.9,2.1h3.6l2.9-2.1L1189.4,423.5z"/>
	<path class="st6" d="M1200.4,410.5l-1.1-3.4l-2.9-2.1h-3.6l-2.9,2.1l-1.1,3.4l1.1,3.4l2.9,2.1h3.6l2.9-2.1L1200.4,410.5z"/>
	<path class="st6" d="M1099.4,396.5l-1.1-3.4l-2.9-2.1h-3.6l-2.9,2.1l-1.1,3.4l1.1,3.4l2.9,2.1h3.6l2.9-2.1L1099.4,396.5z"/>
	<path class="st6" d="M1079.4,383.5l-1.1-3.4l-2.9-2.1h-3.6l-2.9,2.1l-1.1,3.4l1.1,3.4l2.9,2.1h3.6l2.9-2.1L1079.4,383.5z"/>
	<path class="st6" d="M1297.4,370.5l-1.1-3.4l-2.9-2.1h-3.6l-2.9,2.1l-1.1,3.4l1.1,3.4l2.9,2.1h3.6l2.9-2.1L1297.4,370.5z"/>
	<path class="st6" d="M1080.4,356.5l-1.1-3.4l-2.9-2.1h-3.6l-2.9,2.1l-1.1,3.4l1.1,3.4l2.9,2.1h3.6l2.9-2.1L1080.4,356.5z"/>
</g>
<g>
	<path class="st5" d="M1180.7,450.5l-4.3-13.4l7.1-13.4l11.1-13.4"/>
	<line class="st5" x1="1277.7" y1="477.3" x2="1095" y2="463.9"/>
	<path class="st5" d="M1096.1,544.3l233.7-13.4l-31-13.4l71.4-13.4l-41-13.4"/>
</g>
<g>
	<line class="st8" x1="1150.3" y1="544.3" x2="1192.2" y2="544.3"/>
	<line class="st8" x1="1311.8" y1="530.9" x2="1469.8" y2="530.9"/>
	<line class="st8" x1="1290" y1="517.5" x2="1439.2" y2="517.5"/>
	<line class="st8" x1="1321.5" y1="504.1" x2="1474.4" y2="504.1"/>
	<line class="st8" x1="1313.1" y1="490.7" x2="1479.1" y2="490.7"/>
	<line class="st8" x1="1254.9" y1="477.3" x2="1368.6" y2="477.3"/>
	<line class="st8" x1="1147.6" y1="463.9" x2="1195.1" y2="463.9"/>
	<line class="st8" x1="1167.2" y1="450.5" x2="1254.5" y2="450.5"/>
	<line class="st8" x1="1166.8" y1="437.1" x2="1254" y2="437.1"/>
	<line class="st8" x1="1179.4" y1="423.7" x2="1267.3" y2="423.7"/>
	<line class="st8" x1="1202" y1="410.3" x2="1293" y2="410.3"/>
	<line class="st8" x1="1145.7" y1="396.9" x2="1191.6" y2="396.9"/>
	<line class="st8" x1="1072" y1="383.5" x2="1103.6" y2="383.5"/>
	<line class="st8" x1="1249.5" y1="370.1" x2="1329.9" y2="370.1"/>
	<line class="st8" x1="1063.5" y1="356.7" x2="1093.1" y2="356.7"/>
</g>
<g>
	<path class="st9" d="M1176.4,544.5l-1.1-3.4l-2.9-2.1h-3.6l-2.9,2.1l-1.1,3.4l1.1,3.4l2.9,2.1h3.6l2.9-2.1L1176.4,544.5z"/>
	<path class="st9" d="M1389.4,530.5l-1.1-3.4l-2.9-2.1h-3.6l-2.9,2.1l-1.1,3.4l1.1,3.4l2.9,2.1h3.6l2.9-2.1L1389.4,530.5z"/>
	<path class="st9" d="M1365.4,517.5l-1.1-3.4l-2.9-2.1h-3.6l-2.9,2.1l-1.1,3.4l1.1,3.4l2.9,2.1h3.6l2.9-2.1L1365.4,517.5z"/>
	<path class="st9" d="M1398.4,504.5l-1.1-3.4l-2.9-2.1h-3.6l-2.9,2.1l-1.1,3.4l1.1,3.4l2.9,2.1h3.6l2.9-2.1L1398.4,504.5z"/>
	<path class="st9" d="M1396.4,490.5l-1.1-3.4l-2.9-2.1h-3.6l-2.9,2.1l-1.1,3.4l1.1,3.4l2.9,2.1h3.6l2.9-2.1L1396.4,490.5z"/>
	<path class="st9" d="M1313.4,477.5l-1.1-3.4l-2.9-2.1h-3.6l-2.9,2.1l-1.1,3.4l1.1,3.4l2.9,2.1h3.6l2.9-2.1L1313.4,477.5z"/>
	<path class="st9" d="M1176.4,463.5l-1.1-3.4l-2.9-2.1h-3.6l-2.9,2.1l-1.1,3.4l1.1,3.4l2.9,2.1h3.6l2.9-2.1L1176.4,463.5z"/>
	<path class="st9" d="M1213.4,450.5l-1.1-3.4l-2.9-2.1h-3.6l-2.9,2.1l-1.1,3.4l1.1,3.4l2.9,2.1h3.6l2.9-2.1L1213.4,450.5z"/>
	<path class="st9" d="M1212.4,437.5l-1.1-3.4l-2.9-2.1h-3.6l-2.9,2.1l-1.1,3.4l1.1,3.4l2.9,2.1h3.6l2.9-2.1L1212.4,437.5z"/>
	<path class="st9" d="M1225.4,423.5l-1.1-3.4l-2.9-2.1h-3.6l-2.9,2.1l-1.1,3.4l1.1,3.4l2.9,2.1h3.6l2.9-2.1L1225.4,423.5z"/>
	<path class="st9" d="M1251.4,410.5l-1.1-3.4l-2.9-2.1h-3.6l-2.9,2.1l-1.1,3.4l1.1,3.4l2.9,2.1h3.6l2.9-2.1L1251.4,410.5z"/>
	<path class="st9" d="M1173.4,396.5l-1.1-3.4l-2.9-2.1h-3.6l-2.9,2.1l-1.1,3.4l1.1,3.4l2.9,2.1h3.6l2.9-2.1L1173.4,396.5z"/>
	<path class="st9" d="M1092.4,383.5l-1.1-3.4l-2.9-2.1h-3.6l-2.9,2.1l-1.1,3.4l1.1,3.4l2.9,2.1h3.6l2.9-2.1L1092.4,383.5z"/>
	<path class="st9" d="M1291.4,370.5l-1.1-3.4l-2.9-2.1h-3.6l-2.9,2.1l-1.1,3.4l1.1,3.4l2.9,2.1h3.6l2.9-2.1L1291.4,370.5z"/>
	<path class="st9" d="M1082.4,356.5l-1.1-3.4l-2.9-2.1h-3.6l-2.9,2.1l-1.1,3.4l1.1,3.4l2.9,2.1h3.6l2.9-2.1L1082.4,356.5z"/>
</g>
<g>
	<path class="st8" d="M1207.5,450.5l-0.9-13.4l12.9-13.4l25.7-13.4"/>
	<line class="st8" x1="1307.5" y1="477.3" x2="1170" y2="463.9"/>
	<path class="st8" d="M1170.2,544.3l213.4-13.4l-23.8-13.4l33.1-13.4l-2.6-13.4"/>
</g>
<line class="st0" x1="781" y1="823.3" x2="274" y2="823.3"/>
<line class="st0" x1="781" y1="809.9" x2="274" y2="809.9"/>
<line class="st0" x1="781" y1="796.5" x2="274" y2="796.5"/>
<line class="st0" x1="781" y1="783.1" x2="274" y2="783.1"/>
<line class="st0" x1="781" y1="769.7" x2="274" y2="769.7"/>
<line class="st0" x1="781" y1="756.3" x2="274" y2="756.3"/>
<line class="st0" x1="781" y1="742.9" x2="274" y2="742.9"/>
<line class="st0" x1="781" y1="729.5" x2="274" y2="729.5"/>
<line class="st0" x1="781" y1="716.1" x2="274" y2="716.1"/>
<line class="st0" x1="781" y1="702.7" x2="274" y2="702.7"/>
<line class="st0" x1="781" y1="689.3" x2="274" y2="689.3"/>
<line class="st0" x1="781" y1="675.9" x2="274" y2="675.9"/>
<line class="st0" x1="781" y1="662.5" x2="274" y2="662.5"/>
<line class="st0" x1="781" y1="649.1" x2="274" y2="649.1"/>
<line class="st0" x1="781" y1="635.7" x2="274" y2="635.7"/>
<line class="st1" x1="274" y1="830" x2="781" y2="830"/>
<line class="st1" x1="274" y1="830" x2="274" y2="824.9"/>
<line class="st1" x1="375.4" y1="830" x2="375.4" y2="824.9"/>
<line class="st1" x1="476.8" y1="830" x2="476.8" y2="824.9"/>
<line class="st1" x1="578.2" y1="830" x2="578.2" y2="824.9"/>
<line class="st1" x1="679.6" y1="830" x2="679.6" y2="824.9"/>
<line class="st1" x1="781" y1="830" x2="781" y2="824.9"/>
<g transform="translate(274,835.3333)">
	<text transform="matrix(1 0 0 1 -11.5 9)" class="st2 st3 st4">-0.1</text>
</g>
<g transform="translate(375.4,835.3333)">
	<text transform="matrix(1 0 0 1 -15 9)" class="st2 st3 st4">-0.05</text>
</g>
<g transform="translate(476.8,835.3333)">
	<text transform="matrix(1 0 0 1 -4 9)" class="st2 st3 st4">0</text>
</g>
<g transform="translate(578.2,835.3333)">
	<text transform="matrix(1 0 0 1 -13 9)" class="st2 st3 st4">0.05</text>
</g>
<g transform="translate(679.6,835.3333)">
	<text transform="matrix(1 0 0 1 -9.5 9)" class="st2 st3 st4">0.1</text>
</g>
<g transform="translate(781,835.3333)">
	<text transform="matrix(1 0 0 1 -13 9)" class="st2 st3 st4">0.15</text>
</g>
<g transform="translate(268.6667,823.3)">
	<text transform="matrix(1 0 0 1 -107.0669 5.5)" class="st2 st3 st4">Rule@Repetition5+</text>
</g>
<g transform="translate(268.6667,809.9)">
	<text transform="matrix(1 0 0 1 -99.3188 5.5)" class="st2 st3 st4">Rule@Repetition4</text>
</g>
<g transform="translate(268.6667,796.5)">
	<text transform="matrix(1 0 0 1 -99.3188 5.5)" class="st2 st3 st4">Rule@Repetition3</text>
</g>
<g transform="translate(268.6667,783.1)">
	<text transform="matrix(1 0 0 1 -99.3188 5.5)" class="st2 st3 st4">Rule@Repetition2</text>
</g>
<g transform="translate(268.6667,769.7)">
	<text transform="matrix(1 0 0 1 -99.3188 5.5)" class="st2 st3 st4">Rule@Repetition1</text>
</g>
<g transform="translate(268.6667,756.3)">
	<text transform="matrix(1 0 0 1 -111.188 5.5)" class="st2 st3 st4">Rule@Previous Error</text>
</g>
<g transform="translate(268.6667,742.9)">
	<text transform="matrix(1 0 0 1 -129.6348 5.5)" class="st2 st3 st4">Rule@No Previous Error</text>
</g>
<g transform="translate(268.6667,729.5)">
	<text transform="matrix(1 0 0 1 -146.4297 5.5)" class="st2 st3 st4">Repetition4 - Repetition5+</text>
</g>
<g transform="translate(268.6667,716.1)">
	<text transform="matrix(1 0 0 1 -146.4297 5.5)" class="st2 st3 st4">Repetition3 - Repetition5+</text>
</g>
<g transform="translate(268.6667,702.7)">
	<text transform="matrix(1 0 0 1 -146.4297 5.5)" class="st2 st3 st4">Repetition2 - Repetition5+</text>
</g>
<g transform="translate(268.6667,689.3)">
	<text transform="matrix(1 0 0 1 -146.4297 5.5)" class="st2 st3 st4">Repetition1 - Repetition5+</text>
</g>
<g transform="translate(268.6667,675.9)">
	<text transform="matrix(1 0 0 1 -103.5049 5.5)" class="st2 st3 st4">Orientation - Color</text>
</g>
<g transform="translate(268.6667,662.5)">
	<text transform="matrix(1 0 0 1 -61.9307 5.5)" class="st2 st3 st4">Left - Right</text>
</g>
<g transform="translate(268.6667,649.1)">
	<text transform="matrix(1 0 0 1 -180.8667 5.5)" class="st2 st3 st4">Previous Error - No Previous Error</text>
</g>
<g transform="translate(268.6667,635.7)">
	<text transform="matrix(1 0 0 1 -137.7856 5.5)" class="st2 st3 st4">Incongruent - Congruent</text>
</g>
<g>
	<line class="st5" x1="487.7" y1="823.3" x2="522.9" y2="823.3"/>
	<line class="st5" x1="439.9" y1="809.9" x2="595.3" y2="809.9"/>
	<line class="st5" x1="370.9" y1="796.5" x2="533.1" y2="796.5"/>
	<line class="st5" x1="399.7" y1="783.1" x2="581.4" y2="783.1"/>
	<line class="st5" x1="327.7" y1="769.7" x2="523.5" y2="769.7"/>
	<line class="st5" x1="384" y1="756.3" x2="565.3" y2="756.3"/>
	<line class="st5" x1="478.9" y1="742.9" x2="518.6" y2="742.9"/>
	<line class="st5" x1="400.8" y1="729.5" x2="509.3" y2="729.5"/>
	<line class="st5" x1="422.5" y1="716.1" x2="534.7" y2="716.1"/>
	<line class="st5" x1="448" y1="702.7" x2="566.4" y2="702.7"/>
	<line class="st5" x1="435.6" y1="689.3" x2="540.3" y2="689.3"/>
	<line class="st5" x1="478.9" y1="675.9" x2="515.2" y2="675.9"/>
	<line class="st5" x1="441.6" y1="662.5" x2="472.7" y2="662.5"/>
	<line class="st5" x1="562.8" y1="649.1" x2="723" y2="649.1"/>
	<line class="st5" x1="463" y1="635.7" x2="494.1" y2="635.7"/>
</g>
<g>
	<path class="st6" d="M511.4,823.5l-1.1-3.4l-2.9-2.1h-3.6l-2.9,2.1l-1.1,3.4l1.1,3.4l2.9,2.1h3.6l2.9-2.1L511.4,823.5z"/>
	<path class="st6" d="M522.4,809.5l-1.1-3.4l-2.9-2.1h-3.6l-2.9,2.1l-1.1,3.4l1.1,3.4l2.9,2.1h3.6l2.9-2.1L522.4,809.5z"/>
	<path class="st6" d="M457.4,796.5l-1.1-3.4l-2.9-2.1h-3.6l-2.9,2.1l-1.1,3.4l1.1,3.4l2.9,2.1h3.6l2.9-2.1L457.4,796.5z"/>
	<path class="st6" d="M488.4,783.5l-1.1-3.4l-2.9-2.1h-3.6l-2.9,2.1l-1.1,3.4l1.1,3.4l2.9,2.1h3.6l2.9-2.1L488.4,783.5z"/>
	<path class="st6" d="M432.4,769.5l-1.1-3.4l-2.9-2.1h-3.6l-2.9,2.1l-1.1,3.4l1.1,3.4l2.9,2.1h3.6l2.9-2.1L432.4,769.5z"/>
	<path class="st6" d="M479.4,756.5l-1.1-3.4l-2.9-2.1h-3.6l-2.9,2.1l-1.1,3.4l1.1,3.4l2.9,2.1h3.6l2.9-2.1L479.4,756.5z"/>
	<path class="st6" d="M505.4,742.5l-1.1-3.4l-2.9-2.1h-3.6l-2.9,2.1l-1.1,3.4l1.1,3.4l2.9,2.1h3.6l2.9-2.1L505.4,742.5z"/>
	<path class="st6" d="M460.4,729.5l-1.1-3.4l-2.9-2.1h-3.6l-2.9,2.1l-1.1,3.4l1.1,3.4l2.9,2.1h3.6l2.9-2.1L460.4,729.5z"/>
	<path class="st6" d="M484.4,716.5l-1.1-3.4l-2.9-2.1h-3.6l-2.9,2.1l-1.1,3.4l1.1,3.4l2.9,2.1h3.6l2.9-2.1L484.4,716.5z"/>
	<path class="st6" d="M512.4,702.5l-1.1-3.4l-2.9-2.1h-3.6l-2.9,2.1l-1.1,3.4l1.1,3.4l2.9,2.1h3.6l2.9-2.1L512.4,702.5z"/>
	<path class="st6" d="M493.4,689.5l-1.1-3.4l-2.9-2.1h-3.6l-2.9,2.1l-1.1,3.4l1.1,3.4l2.9,2.1h3.6l2.9-2.1L493.4,689.5z"/>
	<path class="st6" d="M503.4,675.5l-1.1-3.4l-2.9-2.1h-3.6l-2.9,2.1l-1.1,3.4l1.1,3.4l2.9,2.1h3.6l2.9-2.1L503.4,675.5z"/>
	<path class="st6" d="M463.4,662.5l-1.1-3.4l-2.9-2.1h-3.6l-2.9,2.1l-1.1,3.4l1.1,3.4l2.9,2.1h3.6l2.9-2.1L463.4,662.5z"/>
	<path class="st6" d="M651.4,649.5l-1.1-3.4l-2.9-2.1h-3.6l-2.9,2.1l-1.1,3.4l1.1,3.4l2.9,2.1h3.6l2.9-2.1L651.4,649.5z"/>
	<path class="st6" d="M485.4,635.5l-1.1-3.4l-2.9-2.1h-3.6l-2.9,2.1l-1.1,3.4l1.1,3.4l2.9,2.1h3.6l2.9-2.1L485.4,635.5z"/>
</g>
<g>
	<path class="st5" d="M454.4,729.5l24.5-13.4l27.6-13.4l-18.7-13.4"/>
	<line class="st5" x1="473.3" y1="756.3" x2="499.6" y2="742.9"/>
	<path class="st5" d="M506,823.3l10.7-13.4l-64.9-13.4l31.1-13.4l-56.3-13.4"/>
</g>
<g>
	<line class="st7" x1="476.8" y1="830" x2="476.8" y2="629"/>
</g>
<g>
	<line class="st8" x1="492.8" y1="823.3" x2="534.2" y2="823.3"/>
	<line class="st8" x1="438.6" y1="809.9" x2="611.5" y2="809.9"/>
	<line class="st8" x1="423.5" y1="796.5" x2="598.2" y2="796.5"/>
	<line class="st8" x1="431.7" y1="783.1" x2="622.3" y2="783.1"/>
	<line class="st8" x1="423.8" y1="769.7" x2="640" y2="769.7"/>
	<line class="st8" x1="392.9" y1="756.3" x2="560.2" y2="756.3"/>
	<line class="st8" x1="497.3" y1="742.9" x2="544.4" y2="742.9"/>
	<line class="st8" x1="408.6" y1="729.5" x2="529.6" y2="729.5"/>
	<line class="st8" x1="428.4" y1="716.1" x2="558.5" y2="716.1"/>
	<line class="st8" x1="467.7" y1="702.7" x2="604.4" y2="702.7"/>
	<line class="st8" x1="499.6" y1="689.3" x2="634.9" y2="689.3"/>
	<line class="st8" x1="496.5" y1="675.9" x2="542.1" y2="675.9"/>
	<line class="st8" x1="454.5" y1="662.5" x2="483.3" y2="662.5"/>
	<line class="st8" x1="499.7" y1="649.1" x2="637" y2="649.1"/>
	<line class="st8" x1="466.7" y1="635.7" x2="499.9" y2="635.7"/>
</g>
<g>
	<path class="st9" d="M521.4,823.5l-1.1-3.4l-2.9-2.1h-3.6l-2.9,2.1l-1.1,3.4l1.1,3.4l2.9,2.1h3.6l2.9-2.1L521.4,823.5z"/>
	<path class="st9" d="M529.4,809.5l-1.1-3.4l-2.9-2.1h-3.6l-2.9,2.1l-1.1,3.4l1.1,3.4l2.9,2.1h3.6l2.9-2.1L529.4,809.5z"/>
	<path class="st9" d="M517.4,796.5l-1.1-3.4l-2.9-2.1h-3.6l-2.9,2.1l-1.1,3.4l1.1,3.4l2.9,2.1h3.6l2.9-2.1L517.4,796.5z"/>
	<path class="st9" d="M531.4,783.5l-1.1-3.4l-2.9-2.1h-3.6l-2.9,2.1l-1.1,3.4l1.1,3.4l2.9,2.1h3.6l2.9-2.1L531.4,783.5z"/>
	<path class="st9" d="M537.4,769.5l-1.1-3.4l-2.9-2.1h-3.6l-2.9,2.1l-1.1,3.4l1.1,3.4l2.9,2.1h3.6l2.9-2.1L537.4,769.5z"/>
	<path class="st9" d="M484.4,756.5l-1.1-3.4l-2.9-2.1h-3.6l-2.9,2.1l-1.1,3.4l1.1,3.4l2.9,2.1h3.6l2.9-2.1L484.4,756.5z"/>
	<path class="st9" d="M527.4,742.5l-1.1-3.4l-2.9-2.1h-3.6l-2.9,2.1l-1.1,3.4l1.1,3.4l2.9,2.1h3.6l2.9-2.1L527.4,742.5z"/>
	<path class="st9" d="M471.4,729.5l-1.1-3.4l-2.9-2.1h-3.6l-2.9,2.1l-1.1,3.4l1.1,3.4l2.9,2.1h3.6l2.9-2.1L471.4,729.5z"/>
	<path class="st9" d="M494.4,716.5l-1.1-3.4l-2.9-2.1h-3.6l-2.9,2.1l-1.1,3.4l1.1,3.4l2.9,2.1h3.6l2.9-2.1L494.4,716.5z"/>
	<path class="st9" d="M538.4,702.5l-1.1-3.4l-2.9-2.1h-3.6l-2.9,2.1l-1.1,3.4l1.1,3.4l2.9,2.1h3.6l2.9-2.1L538.4,702.5z"/>
	<path class="st9" d="M572.4,689.5l-1.1-3.4l-2.9-2.1h-3.6l-2.9,2.1l-1.1,3.4l1.1,3.4l2.9,2.1h3.6l2.9-2.1L572.4,689.5z"/>
	<path class="st9" d="M526.4,675.5l-1.1-3.4l-2.9-2.1h-3.6l-2.9,2.1l-1.1,3.4l1.1,3.4l2.9,2.1h3.6l2.9-2.1L526.4,675.5z"/>
	<path class="st9" d="M474.4,662.5l-1.1-3.4l-2.9-2.1h-3.6l-2.9,2.1l-1.1,3.4l1.1,3.4l2.9,2.1h3.6l2.9-2.1L474.4,662.5z"/>
	<path class="st9" d="M570.4,649.5l-1.1-3.4l-2.9-2.1h-3.6l-2.9,2.1l-1.1,3.4l1.1,3.4l2.9,2.1h3.6l2.9-2.1L570.4,649.5z"/>
	<path class="st9" d="M489.4,635.5l-1.1-3.4l-2.9-2.1h-3.6l-2.9,2.1l-1.1,3.4l1.1,3.4l2.9,2.1h3.6l2.9-2.1L489.4,635.5z"/>
</g>
<g>
	<path class="st8" d="M465.5,729.5l22.7-13.4l44.8-13.4l34-13.4"/>
	<line class="st8" x1="478.7" y1="756.3" x2="521.6" y2="742.9"/>
	<path class="st8" d="M515.1,823.3l8.3-13.4l-12.3-13.4l14-13.4l6.7-13.4"/>
</g>
<g>
	<line class="st7" x1="476.8" y1="830" x2="476.8" y2="629"/>
</g>
<line class="st0" x1="1520" y1="823.3" x2="1014" y2="823.3"/>
<line class="st0" x1="1520" y1="809.9" x2="1014" y2="809.9"/>
<line class="st0" x1="1520" y1="796.5" x2="1014" y2="796.5"/>
<line class="st0" x1="1520" y1="783.1" x2="1014" y2="783.1"/>
<line class="st0" x1="1520" y1="769.7" x2="1014" y2="769.7"/>
<line class="st0" x1="1520" y1="756.3" x2="1014" y2="756.3"/>
<line class="st0" x1="1520" y1="742.9" x2="1014" y2="742.9"/>
<line class="st0" x1="1520" y1="729.5" x2="1014" y2="729.5"/>
<line class="st0" x1="1520" y1="716.1" x2="1014" y2="716.1"/>
<line class="st0" x1="1520" y1="702.7" x2="1014" y2="702.7"/>
<line class="st0" x1="1520" y1="689.3" x2="1014" y2="689.3"/>
<line class="st0" x1="1520" y1="675.9" x2="1014" y2="675.9"/>
<line class="st0" x1="1520" y1="662.5" x2="1014" y2="662.5"/>
<line class="st0" x1="1520" y1="649.1" x2="1014" y2="649.1"/>
<line class="st0" x1="1520" y1="635.7" x2="1014" y2="635.7"/>
<line class="st1" x1="1014" y1="830" x2="1520" y2="830"/>
<line class="st1" x1="1014" y1="830" x2="1014" y2="824.9"/>
<line class="st1" x1="1098.3" y1="830" x2="1098.3" y2="824.9"/>
<line class="st1" x1="1182.7" y1="830" x2="1182.7" y2="824.9"/>
<line class="st1" x1="1267" y1="830" x2="1267" y2="824.9"/>
<line class="st1" x1="1351.3" y1="830" x2="1351.3" y2="824.9"/>
<line class="st1" x1="1435.7" y1="830" x2="1435.7" y2="824.9"/>
<line class="st1" x1="1520" y1="830" x2="1520" y2="824.9"/>
<g transform="translate(1014,835.3333)">
	<text transform="matrix(1 0 0 1 -4 9)" class="st2 st3 st4">0</text>
</g>
<g transform="translate(1098.3334,835.3333)">
	<text transform="matrix(1 0 0 1 -13 9)" class="st2 st3 st4">0.05</text>
</g>
<g transform="translate(1182.6666,835.3333)">
	<text transform="matrix(1 0 0 1 -9.5 9)" class="st2 st3 st4">0.1</text>
</g>
<g transform="translate(1267,835.3333)">
	<text transform="matrix(1 0 0 1 -13 9)" class="st2 st3 st4">0.15</text>
</g>
<g transform="translate(1351.3334,835.3333)">
	<text transform="matrix(1 0 0 1 -9.5 9)" class="st2 st3 st4">0.2</text>
</g>
<g transform="translate(1435.6666,835.3333)">
	<text transform="matrix(1 0 0 1 -13 9)" class="st2 st3 st4">0.25</text>
</g>
<g transform="translate(1520,835.3333)">
	<text transform="matrix(1 0 0 1 -9.5 9)" class="st2 st3 st4">0.3</text>
</g>
<g transform="translate(1008.6667,729.5)">
	<text transform="matrix(1 0 0 1 -146.4297 5.5)" class="st2 st3 st4">Repetition4 - Repetition5+</text>
</g>
<g transform="translate(1008.6667,716.1)">
	<text transform="matrix(1 0 0 1 -146.4297 5.5)" class="st2 st3 st4">Repetition3 - Repetition5+</text>
</g>
<g transform="translate(1008.6667,702.7)">
	<text transform="matrix(1 0 0 1 -146.4297 5.5)" class="st2 st3 st4">Repetition2 - Repetition5+</text>
</g>
<g transform="translate(1008.6667,689.3)">
	<text transform="matrix(1 0 0 1 -146.4297 5.5)" class="st2 st3 st4">Repetition1 - Repetition5+</text>
</g>
<g transform="translate(1008.6667,675.9)">
	<text transform="matrix(1 0 0 1 -103.5049 5.5)" class="st2 st3 st4">Orientation - Color</text>
</g>
<g transform="translate(1008.6667,662.5)">
	<text transform="matrix(1 0 0 1 -61.9307 5.5)" class="st2 st3 st4">Left - Right</text>
</g>
<g transform="translate(1008.6667,649.1)">
	<text transform="matrix(1 0 0 1 -180.8662 5.5)" class="st2 st3 st4">Previous Error - No Previous Error</text>
</g>
<g transform="translate(1008.6667,635.7)">
	<text transform="matrix(1 0 0 1 -137.7852 5.5)" class="st2 st3 st4">Incongruent - Congruent</text>
</g>
<g>
	<line class="st5" x1="1088.5" y1="823.3" x2="1113.9" y2="823.3"/>
	<line class="st5" x1="1247" y1="809.9" x2="1365.2" y2="809.9"/>
	<line class="st5" x1="1221.6" y1="796.5" x2="1344.8" y2="796.5"/>
	<line class="st5" x1="1280.1" y1="783.1" x2="1399.7" y2="783.1"/>
	<line class="st5" x1="1248.1" y1="769.7" x2="1367.1" y2="769.7"/>
	<line class="st5" x1="1261.5" y1="756.3" x2="1358.8" y2="756.3"/>
	<line class="st5" x1="1113.1" y1="742.9" x2="1141.4" y2="742.9"/>
	<line class="st5" x1="1199.7" y1="729.5" x2="1265.8" y2="729.5"/>
	<line class="st5" x1="1193.1" y1="716.1" x2="1258.8" y2="716.1"/>
	<line class="st5" x1="1216.7" y1="702.7" x2="1278.4" y2="702.7"/>
	<line class="st5" x1="1212.4" y1="689.3" x2="1285.6" y2="689.3"/>
	<line class="st5" x1="1122.6" y1="675.9" x2="1151.1" y2="675.9"/>
	<line class="st5" x1="1057.1" y1="662.5" x2="1082.3" y2="662.5"/>
	<line class="st5" x1="1276.9" y1="649.1" x2="1356.1" y2="649.1"/>
	<line class="st5" x1="1057.2" y1="635.7" x2="1082.5" y2="635.7"/>
</g>
<g>
	<path class="st6" d="M1106.4,823.5l-1.1-3.4l-2.9-2.1h-3.6l-2.9,2.1l-1.1,3.4l1.1,3.4l2.9,2.1h3.6l2.9-2.1L1106.4,823.5z"/>
	<path class="st6" d="M1305.4,809.5l-1.1-3.4l-2.9-2.1h-3.6l-2.9,2.1l-1.1,3.4l1.1,3.4l2.9,2.1h3.6l2.9-2.1L1305.4,809.5z"/>
	<path class="st6" d="M1283.4,796.5l-1.1-3.4l-2.9-2.1h-3.6l-2.9,2.1l-1.1,3.4l1.1,3.4l2.9,2.1h3.6l2.9-2.1L1283.4,796.5z"/>
	<path class="st6" d="M1343.4,783.5l-1.1-3.4l-2.9-2.1h-3.6l-2.9,2.1l-1.1,3.4l1.1,3.4l2.9,2.1h3.6l2.9-2.1L1343.4,783.5z"/>
	<path class="st6" d="M1307.4,769.5l-1.1-3.4l-2.9-2.1h-3.6l-2.9,2.1l-1.1,3.4l1.1,3.4l2.9,2.1h3.6l2.9-2.1L1307.4,769.5z"/>
	<path class="st6" d="M1311.4,756.5l-1.1-3.4l-2.9-2.1h-3.6l-2.9,2.1l-1.1,3.4l1.1,3.4l2.9,2.1h3.6l2.9-2.1L1311.4,756.5z"/>
	<path class="st6" d="M1132.4,742.5l-1.1-3.4l-2.9-2.1h-3.6l-2.9,2.1l-1.1,3.4l1.1,3.4l2.9,2.1h3.6l2.9-2.1L1132.4,742.5z"/>
	<path class="st6" d="M1236.4,729.5l-1.1-3.4l-2.9-2.1h-3.6l-2.9,2.1l-1.1,3.4l1.1,3.4l2.9,2.1h3.6l2.9-2.1L1236.4,729.5z"/>
	<path class="st6" d="M1230.4,716.5l-1.1-3.4l-2.9-2.1h-3.6l-2.9,2.1l-1.1,3.4l1.1,3.4l2.9,2.1h3.6l2.9-2.1L1230.4,716.5z"/>
	<path class="st6" d="M1251.4,702.5l-1.1-3.4l-2.9-2.1h-3.6l-2.9,2.1l-1.1,3.4l1.1,3.4l2.9,2.1h3.6l2.9-2.1L1251.4,702.5z"/>
	<path class="st6" d="M1252.4,689.5l-1.1-3.4l-2.9-2.1h-3.6l-2.9,2.1l-1.1,3.4l1.1,3.4l2.9,2.1h3.6l2.9-2.1L1252.4,689.5z"/>
	<path class="st6" d="M1141.4,675.5l-1.1-3.4l-2.9-2.1h-3.6l-2.9,2.1l-1.1,3.4l1.1,3.4l2.9,2.1h3.6l2.9-2.1L1141.4,675.5z"/>
	<path class="st6" d="M1074.4,662.5l-1.1-3.4l-2.9-2.1h-3.6l-2.9,2.1l-1.1,3.4l1.1,3.4l2.9,2.1h3.6l2.9-2.1L1074.4,662.5z"/>
	<path class="st6" d="M1322.4,649.5l-1.1-3.4l-2.9-2.1h-3.6l-2.9,2.1l-1.1,3.4l1.1,3.4l2.9,2.1h3.6l2.9-2.1L1322.4,649.5z"/>
	<path class="st6" d="M1074.4,635.5l-1.1-3.4l-2.9-2.1h-3.6l-2.9,2.1l-1.1,3.4l1.1,3.4l2.9,2.1h3.6l2.9-2.1L1074.4,635.5z"/>
</g>
<g>
	<path class="st5" d="M1230.4,729.5l-6.1-13.4l21-13.4l1-13.4"/>
	<line class="st5" x1="1305.1" y1="756.3" x2="1126.3" y2="742.9"/>
	<path class="st5" d="M1100.1,823.3l199.1-13.4l-21.7-13.4l59.7-13.4l-35.9-13.4"/>
</g>
<g>
	<line class="st8" x1="1147.6" y1="823.3" x2="1182.6" y2="823.3"/>
	<line class="st8" x1="1284.2" y1="809.9" x2="1426.2" y2="809.9"/>
	<line class="st8" x1="1269.5" y1="796.5" x2="1405.8" y2="796.5"/>
	<line class="st8" x1="1301.3" y1="783.1" x2="1451.2" y2="783.1"/>
	<line class="st8" x1="1304.1" y1="769.7" x2="1464.6" y2="769.7"/>
	<line class="st8" x1="1272.3" y1="756.3" x2="1377.7" y2="756.3"/>
	<line class="st8" x1="1166" y1="742.9" x2="1205.5" y2="742.9"/>
	<line class="st8" x1="1224.6" y1="729.5" x2="1310.2" y2="729.5"/>
	<line class="st8" x1="1224.5" y1="716.1" x2="1303" y2="716.1"/>
	<line class="st8" x1="1241.7" y1="702.7" x2="1333.8" y2="702.7"/>
	<line class="st8" x1="1278.8" y1="689.3" x2="1371.9" y2="689.3"/>
	<line class="st8" x1="1172.8" y1="675.9" x2="1211.3" y2="675.9"/>
	<line class="st8" x1="1067" y1="662.5" x2="1094.8" y2="662.5"/>
	<line class="st8" x1="1273.3" y1="649.1" x2="1358.4" y2="649.1"/>
	<line class="st8" x1="1059" y1="635.7" x2="1086" y2="635.7"/>
</g>
<g>
	<path class="st9" d="M1170.4,823.5l-1.1-3.4l-2.9-2.1h-3.6l-2.9,2.1l-1.1,3.4l1.1,3.4l2.9,2.1h3.6l2.9-2.1L1170.4,823.5z"/>
	<path class="st9" d="M1355.4,809.5l-1.1-3.4l-2.9-2.1h-3.6l-2.9,2.1l-1.1,3.4l1.1,3.4l2.9,2.1h3.6l2.9-2.1L1355.4,809.5z"/>
	<path class="st9" d="M1336.4,796.5l-1.1-3.4l-2.9-2.1h-3.6l-2.9,2.1l-1.1,3.4l1.1,3.4l2.9,2.1h3.6l2.9-2.1L1336.4,796.5z"/>
	<path class="st9" d="M1374.4,783.5l-1.1-3.4l-2.9-2.1h-3.6l-2.9,2.1l-1.1,3.4l1.1,3.4l2.9,2.1h3.6l2.9-2.1L1374.4,783.5z"/>
	<path class="st9" d="M1381.4,769.5l-1.1-3.4l-2.9-2.1h-3.6l-2.9,2.1l-1.1,3.4l1.1,3.4l2.9,2.1h3.6l2.9-2.1L1381.4,769.5z"/>
	<path class="st9" d="M1327.4,756.5l-1.1-3.4l-2.9-2.1h-3.6l-2.9,2.1l-1.1,3.4l1.1,3.4l2.9,2.1h3.6l2.9-2.1L1327.4,756.5z"/>
	<path class="st9" d="M1190.4,742.5l-1.1-3.4l-2.9-2.1h-3.6l-2.9,2.1l-1.1,3.4l1.1,3.4l2.9,2.1h3.6l2.9-2.1L1190.4,742.5z"/>
	<path class="st9" d="M1271.4,729.5l-1.1-3.4l-2.9-2.1h-3.6l-2.9,2.1l-1.1,3.4l1.1,3.4l2.9,2.1h3.6l2.9-2.1L1271.4,729.5z"/>
	<path class="st9" d="M1264.4,716.5l-1.1-3.4l-2.9-2.1h-3.6l-2.9,2.1l-1.1,3.4l1.1,3.4l2.9,2.1h3.6l2.9-2.1L1264.4,716.5z"/>
	<path class="st9" d="M1289.4,702.5l-1.1-3.4l-2.9-2.1h-3.6l-2.9,2.1l-1.1,3.4l1.1,3.4l2.9,2.1h3.6l2.9-2.1L1289.4,702.5z"/>
	<path class="st9" d="M1327.4,689.5l-1.1-3.4l-2.9-2.1h-3.6l-2.9,2.1l-1.1,3.4l1.1,3.4l2.9,2.1h3.6l2.9-2.1L1327.4,689.5z"/>
	<path class="st9" d="M1197.4,675.5l-1.1-3.4l-2.9-2.1h-3.6l-2.9,2.1l-1.1,3.4l1.1,3.4l2.9,2.1h3.6l2.9-2.1L1197.4,675.5z"/>
	<path class="st9" d="M1085.4,662.5l-1.1-3.4l-2.9-2.1h-3.6l-2.9,2.1l-1.1,3.4l1.1,3.4l2.9,2.1h3.6l2.9-2.1L1085.4,662.5z"/>
	<path class="st9" d="M1318.4,649.5l-1.1-3.4l-2.9-2.1h-3.6l-2.9,2.1l-1.1,3.4l1.1,3.4l2.9,2.1h3.6l2.9-2.1L1318.4,649.5z"/>
	<path class="st9" d="M1077.4,635.5l-1.1-3.4l-2.9-2.1h-3.6l-2.9,2.1l-1.1,3.4l1.1,3.4l2.9,2.1h3.6l2.9-2.1L1077.4,635.5z"/>
</g>
<g>
	<path class="st8" d="M1265.6,729.5l-6.7-13.4l24.8-13.4l38.1-13.4"/>
	<line class="st8" x1="1321.4" y1="756.3" x2="1184.8" y2="742.9"/>
	<path class="st8" d="M1164.3,823.3l185.2-13.4l-18.9-13.4l38.3-13.4l7-13.4"/>
</g>
<g>
	<g transform="translate(268.6667,823.3)">
		<text transform="matrix(1 0 0 1 632.9335 5.5001)" class="st2 st3 st4">Rule@Repetition5+</text>
	</g>
	<g transform="translate(268.6667,809.9)">
		<text transform="matrix(1 0 0 1 640.6816 5.5001)" class="st2 st3 st4">Rule@Repetition4</text>
	</g>
	<g transform="translate(268.6667,796.5)">
		<text transform="matrix(1 0 0 1 640.6816 5.5001)" class="st2 st3 st4">Rule@Repetition3</text>
	</g>
	<g transform="translate(268.6667,783.1)">
		<text transform="matrix(1 0 0 1 640.6816 5.5001)" class="st2 st3 st4">Rule@Repetition2</text>
	</g>
	<g transform="translate(268.6667,769.7)">
		<text transform="matrix(1 0 0 1 640.6816 5.5001)" class="st2 st3 st4">Rule@Repetition1</text>
	</g>
	<g transform="translate(268.6667,756.3)">
		<text transform="matrix(1 0 0 1 628.8124 5.5001)" class="st2 st3 st4">Rule@Previous Error</text>
	</g>
	<g transform="translate(268.6667,742.9)">
		<text transform="matrix(1 0 0 1 610.3657 5.5001)" class="st2 st3 st4">Rule@No Previous Error</text>
	</g>
</g>
<g>
	<g transform="translate(268.6667,823.3)">
		<text transform="matrix(1 0 0 1 632.9335 -273.4999)" class="st2 st3 st4">Rule@Repetition5+</text>
	</g>
	<g transform="translate(268.6667,809.9)">
		<text transform="matrix(1 0 0 1 640.6816 -273.4999)" class="st2 st3 st4">Rule@Repetition4</text>
	</g>
	<g transform="translate(268.6667,796.5)">
		<text transform="matrix(1 0 0 1 640.6816 -273.4999)" class="st2 st3 st4">Rule@Repetition3</text>
	</g>
	<g transform="translate(268.6667,783.1)">
		<text transform="matrix(1 0 0 1 640.6816 -273.4999)" class="st2 st3 st4">Rule@Repetition2</text>
	</g>
	<g transform="translate(268.6667,769.7)">
		<text transform="matrix(1 0 0 1 640.6816 -273.4999)" class="st2 st3 st4">Rule@Repetition1</text>
	</g>
	<g transform="translate(268.6667,756.3)">
		<text transform="matrix(1 0 0 1 628.8124 -273.4999)" class="st2 st3 st4">Rule@Previous Error</text>
	</g>
	<g transform="translate(268.6667,742.9)">
		<text transform="matrix(1 0 0 1 610.3657 -273.4999)" class="st2 st3 st4">Rule@No Previous Error</text>
	</g>
</g>
<g>
	<g transform="translate(268.6667,823.3)">
		<text transform="matrix(1 0 0 1 632.9335 -553.4999)" class="st2 st3 st4">Rule@Repetition5+</text>
	</g>
	<g transform="translate(268.6667,809.9)">
		<text transform="matrix(1 0 0 1 640.6816 -553.4999)" class="st2 st3 st4">Rule@Repetition4</text>
	</g>
	<g transform="translate(268.6667,796.5)">
		<text transform="matrix(1 0 0 1 640.6816 -553.4999)" class="st2 st3 st4">Rule@Repetition3</text>
	</g>
	<g transform="translate(268.6667,783.1)">
		<text transform="matrix(1 0 0 1 640.6816 -553.4999)" class="st2 st3 st4">Rule@Repetition2</text>
	</g>
	<g transform="translate(268.6667,769.7)">
		<text transform="matrix(1 0 0 1 640.6816 -553.4999)" class="st2 st3 st4">Rule@Repetition1</text>
	</g>
	<g transform="translate(268.6667,756.3)">
		<text transform="matrix(1 0 0 1 628.8124 -553.4999)" class="st2 st3 st4">Rule@Previous Error</text>
	</g>
	<g transform="translate(268.6667,742.9)">
		<text transform="matrix(1 0 0 1 610.3657 -553.4999)" class="st2 st3 st4">Rule@No Previous Error</text>
	</g>
</g>
<g>
	<g transform="translate(268.6667,823.3)">
		<text transform="matrix(1 0 0 1 -107.067 -273.4995)" class="st2 st3 st4">Rule@Repetition5+</text>
	</g>
	<g transform="translate(268.6667,809.9)">
		<text transform="matrix(1 0 0 1 -99.3189 -273.4995)" class="st2 st3 st4">Rule@Repetition4</text>
	</g>
	<g transform="translate(268.6667,796.5)">
		<text transform="matrix(1 0 0 1 -99.3189 -273.4995)" class="st2 st3 st4">Rule@Repetition3</text>
	</g>
	<g transform="translate(268.6667,783.1)">
		<text transform="matrix(1 0 0 1 -99.3189 -273.4995)" class="st2 st3 st4">Rule@Repetition2</text>
	</g>
	<g transform="translate(268.6667,769.7)">
		<text transform="matrix(1 0 0 1 -99.3189 -273.4995)" class="st2 st3 st4">Rule@Repetition1</text>
	</g>
	<g transform="translate(268.6667,756.3)">
		<text transform="matrix(1 0 0 1 -111.188 -273.4995)" class="st2 st3 st4">Rule@Previous Error</text>
	</g>
	<g transform="translate(268.6667,742.9)">
		<text transform="matrix(1 0 0 1 -129.6348 -273.4995)" class="st2 st3 st4">Rule@No Previous Error</text>
	</g>
</g>
<g>
	<g transform="translate(268.6667,823.3)">
		<text transform="matrix(1 0 0 1 -107.067 -553.4999)" class="st2 st3 st4">Rule@Repetition5+</text>
	</g>
	<g transform="translate(268.6667,809.9)">
		<text transform="matrix(1 0 0 1 -99.3189 -553.4999)" class="st2 st3 st4">Rule@Repetition4</text>
	</g>
	<g transform="translate(268.6667,796.5)">
		<text transform="matrix(1 0 0 1 -99.3189 -553.4999)" class="st2 st3 st4">Rule@Repetition3</text>
	</g>
	<g transform="translate(268.6667,783.1)">
		<text transform="matrix(1 0 0 1 -99.3189 -553.4999)" class="st2 st3 st4">Rule@Repetition2</text>
	</g>
	<g transform="translate(268.6667,769.7)">
		<text transform="matrix(1 0 0 1 -99.3189 -553.4999)" class="st2 st3 st4">Rule@Repetition1</text>
	</g>
	<g transform="translate(268.6667,756.3)">
		<text transform="matrix(1 0 0 1 -111.188 -553.4999)" class="st2 st3 st4">Rule@Previous Error</text>
	</g>
	<g transform="translate(268.6667,742.9)">
		<text transform="matrix(1 0 0 1 -129.6348 -553.4999)" class="st2 st3 st4">Rule@No Previous Error</text>
	</g>
</g>
<g transform="translate(500.5005,67.25)">
	<text transform="matrix(1 0 0 1 -74.1736 -8.2901)" class="st3 st10">Change in Firing Rate (Spikes / s)</text>
</g>
<g transform="translate(500.5005,347.25)">
	<text transform="matrix(1 0 0 1 -134.3608 -15.0201)" class="st3 st10">Normalized Change in Firing Rate (Difference Index)</text>
</g>
<g transform="translate(500.5005,626.25)">
	<text transform="matrix(1 0 0 1 -143.6606 -15.0201)" class="st3 st10">Normalized Change in Firing Rate (Average Firing Rate)</text>
</g>
<g transform="translate(500.5005,626.25)">
	<text transform="matrix(1 0 0 1 566.2295 -8.2701)" class="st3 st10">Absolute Normalized Change in Firing Rate (Average Firing Rate)</text>
</g>
<g transform="translate(500.5005,347.25)">
	<text transform="matrix(1 0 0 1 575.5303 -15.0201)" class="st3 st10">Absolute Normalized Change in Firing Rate (Difference Index)</text>
</g>
<g transform="translate(500.5005,67.25)">
	<text transform="matrix(1 0 0 1 635.7167 -8.29)" class="st3 st10">Absolute Change in Firing Rate (Spikes / s)</text>
</g>
<text transform="matrix(1 0 0 1 87.7998 32.8491)" class="st3 st11">a</text>
<text transform="matrix(1 0 0 1 827.8005 32.8492)" class="st3 st11">b</text>
</svg>
