<?xml version="1.0" encoding="utf-8"?>
<!-- Generator: Adobe Illustrator 19.2.1, SVG Export Plug-In . SVG Version: 6.00 Build 0)  -->
<svg version="1.1" id="Layer_1" xmlns="http://www.w3.org/2000/svg" xmlns:xlink="http://www.w3.org/1999/xlink" x="0px" y="0px"
	 viewBox="0 0 1600 888" style="enable-background:new 0 0 1600 888;" xml:space="preserve">
<style type="text/css">
	.st0{fill:none;stroke:#262626;stroke-linecap:square;stroke-miterlimit:10;stroke-opacity:0.149;}
	.st1{fill:none;stroke:#262626;stroke-linecap:square;stroke-miterlimit:10;}
	.st2{fill:#262626;}
	.st3{font-family:'MyriadPro-Regular';}
	.st4{font-size:13px;}
	.st5{fill:none;stroke:#66C2A5;stroke-linecap:square;stroke-miterlimit:10;}
	.st6{fill:#66C2A5;}
	.st7{fill:none;stroke:#000000;stroke-width:1.3333;stroke-linejoin:bevel;stroke-miterlimit:1;stroke-dasharray:1,3;}
	.st8{fill:none;stroke:#7570B3;stroke-linecap:square;stroke-miterlimit:10;}
	.st9{fill:#7570B3;}
	.st10{font-size:15px;}
	.st11{font-size:36px;}
</style>
<g>
	<line class="st0" x1="781" y1="264.3" x2="274" y2="264.3"/>
	<line class="st0" x1="781" y1="250.9" x2="274" y2="250.9"/>
	<line class="st0" x1="781" y1="237.5" x2="274" y2="237.5"/>
	<line class="st0" x1="781" y1="224.1" x2="274" y2="224.1"/>
	<line class="st0" x1="781" y1="210.7" x2="274" y2="210.7"/>
	<line class="st0" x1="781" y1="197.3" x2="274" y2="197.3"/>
	<line class="st0" x1="781" y1="183.9" x2="274" y2="183.9"/>
	<line class="st0" x1="781" y1="170.5" x2="274" y2="170.5"/>
	<line class="st0" x1="781" y1="157.1" x2="274" y2="157.1"/>
	<line class="st0" x1="781" y1="143.7" x2="274" y2="143.7"/>
	<line class="st0" x1="781" y1="130.3" x2="274" y2="130.3"/>
	<line class="st0" x1="781" y1="116.9" x2="274" y2="116.9"/>
	<line class="st0" x1="781" y1="103.5" x2="274" y2="103.5"/>
	<line class="st0" x1="781" y1="90.1" x2="274" y2="90.1"/>
	<line class="st0" x1="781" y1="76.7" x2="274" y2="76.7"/>
	<line class="st1" x1="274" y1="271" x2="781" y2="271"/>
	<line class="st1" x1="274" y1="271" x2="274" y2="265.9"/>
	<line class="st1" x1="358.5" y1="271" x2="358.5" y2="265.9"/>
	<line class="st1" x1="443" y1="271" x2="443" y2="265.9"/>
	<line class="st1" x1="527.5" y1="271" x2="527.5" y2="265.9"/>
	<line class="st1" x1="612" y1="271" x2="612" y2="265.9"/>
	<line class="st1" x1="696.5" y1="271" x2="696.5" y2="265.9"/>
	<line class="st1" x1="781" y1="271" x2="781" y2="265.9"/>
</g>
<g transform="translate(274,276.3333)">
	<text transform="matrix(1 0 0 1 -11.5 8)" class="st2 st3 st4">-0.6</text>
</g>
<g transform="translate(358.5,276.3333)">
	<text transform="matrix(1 0 0 1 -11.5 8)" class="st2 st3 st4">-0.4</text>
</g>
<g transform="translate(443,276.3333)">
	<text transform="matrix(1 0 0 1 -11.5 8)" class="st2 st3 st4">-0.2</text>
</g>
<g transform="translate(527.5,276.3333)">
	<text transform="matrix(1 0 0 1 -4 8)" class="st2 st3 st4">0</text>
</g>
<g transform="translate(612,276.3333)">
	<text transform="matrix(1 0 0 1 -9.5 8)" class="st2 st3 st4">0.2</text>
</g>
<g transform="translate(696.5,276.3333)">
	<text transform="matrix(1 0 0 1 -9.5 8)" class="st2 st3 st4">0.4</text>
</g>
<g transform="translate(781,276.3333)">
	<text transform="matrix(1 0 0 1 -9.5 8)" class="st2 st3 st4">0.6</text>
</g>
<g>
	<line class="st5" x1="525.5" y1="264.3" x2="570.8" y2="264.3"/>
	<line class="st5" x1="370.2" y1="250.9" x2="622.9" y2="250.9"/>
	<line class="st5" x1="426.7" y1="237.5" x2="636.7" y2="237.5"/>
	<line class="st5" x1="349.4" y1="224.1" x2="575.2" y2="224.1"/>
	<line class="st5" x1="392.8" y1="210.7" x2="632.7" y2="210.7"/>
	<line class="st5" x1="312.5" y1="197.3" x2="556.2" y2="197.3"/>
	<line class="st5" x1="523.9" y1="183.9" x2="569.6" y2="183.9"/>
	<line class="st5" x1="516.8" y1="170.5" x2="656.9" y2="170.5"/>
	<line class="st5" x1="469.5" y1="157.1" x2="606.2" y2="157.1"/>
	<line class="st5" x1="505" y1="143.7" x2="639.6" y2="143.7"/>
	<line class="st5" x1="558" y1="130.3" x2="712.5" y2="130.3"/>
	<line class="st5" x1="520.8" y1="116.9" x2="562.1" y2="116.9"/>
	<line class="st5" x1="469.2" y1="103.5" x2="516" y2="103.5"/>
	<line class="st5" x1="519" y1="90.1" x2="678.1" y2="90.1"/>
	<line class="st5" x1="509.5" y1="76.7" x2="557.2" y2="76.7"/>
</g>
<g>
	<path class="st6" d="M550.4,264.5l-1.1-3.4l-2.9-2.1h-3.6l-2.9,2.1l-1.1,3.4l1.1,3.4l2.9,2.1h3.6l2.9-2.1L550.4,264.5z"/>
	<path class="st6" d="M510.4,250.5l-1.1-3.4l-2.9-2.1h-3.6l-2.9,2.1l-1.1,3.4l1.1,3.4l2.9,2.1h3.6l2.9-2.1L510.4,250.5z"/>
	<path class="st6" d="M544.4,237.5l-1.1-3.4l-2.9-2.1h-3.6l-2.9,2.1l-1.1,3.4l1.1,3.4l2.9,2.1h3.6l2.9-2.1L544.4,237.5z"/>
	<path class="st6" d="M475.4,224.5l-1.1-3.4l-2.9-2.1h-3.6l-2.9,2.1l-1.1,3.4l1.1,3.4l2.9,2.1h3.6l2.9-2.1L475.4,224.5z"/>
	<path class="st6" d="M524.4,210.5l-1.1-3.4l-2.9-2.1h-3.6l-2.9,2.1l-1.1,3.4l1.1,3.4l2.9,2.1h3.6l2.9-2.1L524.4,210.5z"/>
	<path class="st6" d="M448.4,197.5l-1.1-3.4l-2.9-2.1h-3.6l-2.9,2.1l-1.1,3.4l1.1,3.4l2.9,2.1h3.6l2.9-2.1L448.4,197.5z"/>
	<path class="st6" d="M550.4,183.5l-1.1-3.4l-2.9-2.1h-3.6l-2.9,2.1l-1.1,3.4l1.1,3.4l2.9,2.1h3.6l2.9-2.1L550.4,183.5z"/>
	<path class="st6" d="M587.4,170.5l-1.1-3.4l-2.9-2.1h-3.6l-2.9,2.1l-1.1,3.4l1.1,3.4l2.9,2.1h3.6l2.9-2.1L587.4,170.5z"/>
	<path class="st6" d="M537.4,157.5l-1.1-3.4l-2.9-2.1h-3.6l-2.9,2.1l-1.1,3.4l1.1,3.4l2.9,2.1h3.6l2.9-2.1L537.4,157.5z"/>
	<path class="st6" d="M568.4,143.5l-1.1-3.4l-2.9-2.1h-3.6l-2.9,2.1l-1.1,3.4l1.1,3.4l2.9,2.1h3.6l2.9-2.1L568.4,143.5z"/>
	<path class="st6" d="M638.4,130.5l-1.1-3.4l-2.9-2.1h-3.6l-2.9,2.1l-1.1,3.4l1.1,3.4l2.9,2.1h3.6l2.9-2.1L638.4,130.5z"/>
	<path class="st6" d="M546.4,116.5l-1.1-3.4l-2.9-2.1h-3.6l-2.9,2.1l-1.1,3.4l1.1,3.4l2.9,2.1h3.6l2.9-2.1L546.4,116.5z"/>
	<path class="st6" d="M498.4,103.5l-1.1-3.4l-2.9-2.1h-3.6l-2.9,2.1l-1.1,3.4l1.1,3.4l2.9,2.1h3.6l2.9-2.1L498.4,103.5z"/>
	<path class="st6" d="M602.4,90.5l-1.1-3.4l-2.9-2.1h-3.6l-2.9,2.1l-1.1,3.4l1.1,3.4l2.9,2.1h3.6l2.9-2.1L602.4,90.5z"/>
	<path class="st6" d="M537.4,76.5l-1.1-3.4l-2.9-2.1h-3.6l-2.9,2.1l-1.1,3.4l1.1,3.4l2.9,2.1h3.6l2.9-2.1L537.4,76.5z"/>
</g>
<g>
	<path class="st5" d="M581.9,170.5l-50.2-13.4l31.2-13.4l70.1-13.4"/>
	<line class="st5" x1="442.3" y1="197.3" x2="544" y2="183.9"/>
	<path class="st5" d="M545,264.3l-40.3-13.4l34.3-13.4l-69.3-13.4l49.2-13.4"/>
</g>
<g>
	<line class="st7" x1="527.5" y1="271" x2="527.5" y2="70"/>
</g>
<g>
	<line class="st8" x1="527.9" y1="264.3" x2="545.9" y2="264.3"/>
	<line class="st8" x1="476.3" y1="250.9" x2="541.4" y2="250.9"/>
	<line class="st8" x1="489.6" y1="237.5" x2="564.6" y2="237.5"/>
	<line class="st8" x1="493.1" y1="224.1" x2="562.2" y2="224.1"/>
	<line class="st8" x1="453.1" y1="210.7" x2="529.4" y2="210.7"/>
	<line class="st8" x1="499.6" y1="197.3" x2="564.2" y2="197.3"/>
	<line class="st8" x1="525.9" y1="183.9" x2="544.8" y2="183.9"/>
	<line class="st8" x1="513.1" y1="170.5" x2="565.5" y2="170.5"/>
	<line class="st8" x1="514.6" y1="157.1" x2="566.8" y2="157.1"/>
	<line class="st8" x1="531.9" y1="143.7" x2="590.8" y2="143.7"/>
	<line class="st8" x1="557.5" y1="130.3" x2="621.6" y2="130.3"/>
	<line class="st8" x1="525" y1="116.9" x2="543.9" y2="116.9"/>
	<line class="st8" x1="523.2" y1="103.5" x2="536.4" y2="103.5"/>
	<line class="st8" x1="542.2" y1="90.1" x2="605.5" y2="90.1"/>
	<line class="st8" x1="516.5" y1="76.7" x2="530.9" y2="76.7"/>
</g>
<g>
	<path class="st9" d="M542.4,264.5l-1.1-3.4l-2.9-2.1h-3.6l-2.9,2.1l-1.1,3.4l1.1,3.4l2.9,2.1h3.6l2.9-2.1L542.4,264.5z"/>
	<path class="st9" d="M516.4,250.5l-1.1-3.4l-2.9-2.1h-3.6l-2.9,2.1l-1.1,3.4l1.1,3.4l2.9,2.1h3.6l2.9-2.1L516.4,250.5z"/>
	<path class="st9" d="M531.4,237.5l-1.1-3.4l-2.9-2.1h-3.6l-2.9,2.1l-1.1,3.4l1.1,3.4l2.9,2.1h3.6l2.9-2.1L531.4,237.5z"/>
	<path class="st9" d="M533.4,224.5l-1.1-3.4l-2.9-2.1h-3.6l-2.9,2.1l-1.1,3.4l1.1,3.4l2.9,2.1h3.6l2.9-2.1L533.4,224.5z"/>
	<path class="st9" d="M498.4,210.5l-1.1-3.4l-2.9-2.1h-3.6l-2.9,2.1l-1.1,3.4l1.1,3.4l2.9,2.1h3.6l2.9-2.1L498.4,210.5z"/>
	<path class="st9" d="M539.4,197.5l-1.1-3.4l-2.9-2.1h-3.6l-2.9,2.1l-1.1,3.4l1.1,3.4l2.9,2.1h3.6l2.9-2.1L539.4,197.5z"/>
	<path class="st9" d="M540.4,183.5l-1.1-3.4l-2.9-2.1h-3.6l-2.9,2.1l-1.1,3.4l1.1,3.4l2.9,2.1h3.6l2.9-2.1L540.4,183.5z"/>
	<path class="st9" d="M542.4,170.5l-1.1-3.4l-2.9-2.1h-3.6l-2.9,2.1l-1.1,3.4l1.1,3.4l2.9,2.1h3.6l2.9-2.1L542.4,170.5z"/>
	<path class="st9" d="M546.4,157.5l-1.1-3.4l-2.9-2.1h-3.6l-2.9,2.1l-1.1,3.4l1.1,3.4l2.9,2.1h3.6l2.9-2.1L546.4,157.5z"/>
	<path class="st9" d="M565.4,143.5l-1.1-3.4l-2.9-2.1h-3.6l-2.9,2.1l-1.1,3.4l1.1,3.4l2.9,2.1h3.6l2.9-2.1L565.4,143.5z"/>
	<path class="st9" d="M593.4,130.5l-1.1-3.4l-2.9-2.1h-3.6l-2.9,2.1l-1.1,3.4l1.1,3.4l2.9,2.1h3.6l2.9-2.1L593.4,130.5z"/>
	<path class="st9" d="M539.4,116.5l-1.1-3.4l-2.9-2.1h-3.6l-2.9,2.1l-1.1,3.4l1.1,3.4l2.9,2.1h3.6l2.9-2.1L539.4,116.5z"/>
	<path class="st9" d="M535.4,103.5l-1.1-3.4l-2.9-2.1h-3.6l-2.9,2.1l-1.1,3.4l1.1,3.4l2.9,2.1h3.6l2.9-2.1L535.4,103.5z"/>
	<path class="st9" d="M577.4,90.5l-1.1-3.4l-2.9-2.1h-3.6l-2.9,2.1l-1.1,3.4l1.1,3.4l2.9,2.1h3.6l2.9-2.1L577.4,90.5z"/>
	<path class="st9" d="M530.4,76.5l-1.1-3.4l-2.9-2.1h-3.6l-2.9,2.1l-1.1,3.4l1.1,3.4l2.9,2.1h3.6l2.9-2.1L530.4,76.5z"/>
</g>
<g>
	<path class="st8" d="M536.7,170.5l3.4-13.4l19.4-13.4l28.1-13.4"/>
	<line class="st8" x1="533.6" y1="197.3" x2="534.6" y2="183.9"/>
	<path class="st8" d="M536.1,264.3l-25.5-13.4l14.7-13.4l2.4-13.4l-34.9-13.4"/>
</g>
<g>
	<line class="st7" x1="527.5" y1="271" x2="527.5" y2="70"/>
</g>
<g>
	<line class="st0" x1="1520" y1="264.3" x2="1014" y2="264.3"/>
	<line class="st0" x1="1520" y1="250.9" x2="1014" y2="250.9"/>
	<line class="st0" x1="1520" y1="237.5" x2="1014" y2="237.5"/>
	<line class="st0" x1="1520" y1="224.1" x2="1014" y2="224.1"/>
	<line class="st0" x1="1520" y1="210.7" x2="1014" y2="210.7"/>
	<line class="st0" x1="1520" y1="197.3" x2="1014" y2="197.3"/>
	<line class="st0" x1="1520" y1="183.9" x2="1014" y2="183.9"/>
	<line class="st0" x1="1520" y1="170.5" x2="1014" y2="170.5"/>
	<line class="st0" x1="1520" y1="157.1" x2="1014" y2="157.1"/>
	<line class="st0" x1="1520" y1="143.7" x2="1014" y2="143.7"/>
	<line class="st0" x1="1520" y1="130.3" x2="1014" y2="130.3"/>
	<line class="st0" x1="1520" y1="116.9" x2="1014" y2="116.9"/>
	<line class="st0" x1="1520" y1="103.5" x2="1014" y2="103.5"/>
	<line class="st0" x1="1520" y1="90.1" x2="1014" y2="90.1"/>
	<line class="st0" x1="1520" y1="76.7" x2="1014" y2="76.7"/>
	<line class="st1" x1="1014" y1="271" x2="1520" y2="271"/>
	<line class="st1" x1="1014" y1="271" x2="1014" y2="265.9"/>
	<line class="st1" x1="1070.2" y1="271" x2="1070.2" y2="265.9"/>
	<line class="st1" x1="1126.4" y1="271" x2="1126.4" y2="265.9"/>
	<line class="st1" x1="1182.7" y1="271" x2="1182.7" y2="265.9"/>
	<line class="st1" x1="1238.9" y1="271" x2="1238.9" y2="265.9"/>
	<line class="st1" x1="1295.1" y1="271" x2="1295.1" y2="265.9"/>
	<line class="st1" x1="1351.3" y1="271" x2="1351.3" y2="265.9"/>
	<line class="st1" x1="1407.6" y1="271" x2="1407.6" y2="265.9"/>
	<line class="st1" x1="1463.8" y1="271" x2="1463.8" y2="265.9"/>
	<line class="st1" x1="1520" y1="271" x2="1520" y2="265.9"/>
</g>
<g transform="translate(1014,276.3333)">
	<text transform="matrix(1 0 0 1 -4 8)" class="st2 st3 st4">0</text>
</g>
<g transform="translate(1070.2222,276.3333)">
	<text transform="matrix(1 0 0 1 -9.5 8)" class="st2 st3 st4">0.2</text>
</g>
<g transform="translate(1126.4445,276.3333)">
	<text transform="matrix(1 0 0 1 -9.5 8)" class="st2 st3 st4">0.4</text>
</g>
<g transform="translate(1182.6666,276.3333)">
	<text transform="matrix(1 0 0 1 -9.5 8)" class="st2 st3 st4">0.6</text>
</g>
<g transform="translate(1238.8889,276.3333)">
	<text transform="matrix(1 0 0 1 -9.5 8)" class="st2 st3 st4">0.8</text>
</g>
<g transform="translate(1295.1111,276.3333)">
	<text transform="matrix(1 0 0 1 -4 8)" class="st2 st3 st4">1</text>
</g>
<g transform="translate(1351.3334,276.3333)">
	<text transform="matrix(1 0 0 1 -9.5 8)" class="st2 st3 st4">1.2</text>
</g>
<g transform="translate(1407.5555,276.3333)">
	<text transform="matrix(1 0 0 1 -9.5 8)" class="st2 st3 st4">1.4</text>
</g>
<g transform="translate(1463.7778,276.3333)">
	<text transform="matrix(1 0 0 1 -9.5 8)" class="st2 st3 st4">1.6</text>
</g>
<g transform="translate(1520,276.3333)">
	<text transform="matrix(1 0 0 1 -9.5 8)" class="st2 st3 st4">1.8</text>
</g>
<g>
	<line class="st5" x1="1125.9" y1="264.3" x2="1173.4" y2="264.3"/>
	<line class="st5" x1="1289" y1="250.9" x2="1437.8" y2="250.9"/>
	<line class="st5" x1="1296.2" y1="237.5" x2="1460.9" y2="237.5"/>
	<line class="st5" x1="1302.8" y1="224.1" x2="1477.8" y2="224.1"/>
	<line class="st5" x1="1328.8" y1="210.7" x2="1505.2" y2="210.7"/>
	<line class="st5" x1="1299.5" y1="197.3" x2="1431.5" y2="197.3"/>
	<line class="st5" x1="1158.6" y1="183.9" x2="1206.1" y2="183.9"/>
	<line class="st5" x1="1227.1" y1="170.5" x2="1315.9" y2="170.5"/>
	<line class="st5" x1="1236.3" y1="157.1" x2="1325.3" y2="157.1"/>
	<line class="st5" x1="1253.8" y1="143.7" x2="1348.5" y2="143.7"/>
	<line class="st5" x1="1283.1" y1="130.3" x2="1390.7" y2="130.3"/>
	<line class="st5" x1="1170.7" y1="116.9" x2="1217.9" y2="116.9"/>
	<line class="st5" x1="1071.1" y1="103.5" x2="1101.1" y2="103.5"/>
	<line class="st5" x1="1269.7" y1="90.1" x2="1355.1" y2="90.1"/>
	<line class="st5" x1="1075.1" y1="76.7" x2="1115.1" y2="76.7"/>
</g>
<g>
	<path class="st6" d="M1154.4,264.5l-1.1-3.4l-2.9-2.1h-3.6l-2.9,2.1l-1.1,3.4l1.1,3.4l2.9,2.1h3.6l2.9-2.1L1154.4,264.5z"/>
	<path class="st6" d="M1362.4,250.5l-1.1-3.4l-2.9-2.1h-3.6l-2.9,2.1l-1.1,3.4l1.1,3.4l2.9,2.1h3.6l2.9-2.1L1362.4,250.5z"/>
	<path class="st6" d="M1377.4,237.5l-1.1-3.4l-2.9-2.1h-3.6l-2.9,2.1l-1.1,3.4l1.1,3.4l2.9,2.1h3.6l2.9-2.1L1377.4,237.5z"/>
	<path class="st6" d="M1386.4,224.5l-1.1-3.4l-2.9-2.1h-3.6l-2.9,2.1l-1.1,3.4l1.1,3.4l2.9,2.1h3.6l2.9-2.1L1386.4,224.5z"/>
	<path class="st6" d="M1412.4,210.5l-1.1-3.4l-2.9-2.1h-3.6l-2.9,2.1l-1.1,3.4l1.1,3.4l2.9,2.1h3.6l2.9-2.1L1412.4,210.5z"/>
	<path class="st6" d="M1366.4,197.5l-1.1-3.4l-2.9-2.1h-3.6l-2.9,2.1l-1.1,3.4l1.1,3.4l2.9,2.1h3.6l2.9-2.1L1366.4,197.5z"/>
	<path class="st6" d="M1187.4,183.5l-1.1-3.4l-2.9-2.1h-3.6l-2.9,2.1l-1.1,3.4l1.1,3.4l2.9,2.1h3.6l2.9-2.1L1187.4,183.5z"/>
	<path class="st6" d="M1276.4,170.5l-1.1-3.4l-2.9-2.1h-3.6l-2.9,2.1l-1.1,3.4l1.1,3.4l2.9,2.1h3.6l2.9-2.1L1276.4,170.5z"/>
	<path class="st6" d="M1284.4,157.5l-1.1-3.4l-2.9-2.1h-3.6l-2.9,2.1l-1.1,3.4l1.1,3.4l2.9,2.1h3.6l2.9-2.1L1284.4,157.5z"/>
	<path class="st6" d="M1303.4,143.5l-1.1-3.4l-2.9-2.1h-3.6l-2.9,2.1l-1.1,3.4l1.1,3.4l2.9,2.1h3.6l2.9-2.1L1303.4,143.5z"/>
	<path class="st6" d="M1341.4,130.5l-1.1-3.4l-2.9-2.1h-3.6l-2.9,2.1l-1.1,3.4l1.1,3.4l2.9,2.1h3.6l2.9-2.1L1341.4,130.5z"/>
	<path class="st6" d="M1199.4,116.5l-1.1-3.4l-2.9-2.1h-3.6l-2.9,2.1l-1.1,3.4l1.1,3.4l2.9,2.1h3.6l2.9-2.1L1199.4,116.5z"/>
	<path class="st6" d="M1091.4,103.5l-1.1-3.4l-2.9-2.1h-3.6l-2.9,2.1l-1.1,3.4l1.1,3.4l2.9,2.1h3.6l2.9-2.1L1091.4,103.5z"/>
	<path class="st6" d="M1316.4,90.5l-1.1-3.4l-2.9-2.1h-3.6l-2.9,2.1l-1.1,3.4l1.1,3.4l2.9,2.1h3.6l2.9-2.1L1316.4,90.5z"/>
	<path class="st6" d="M1100.4,76.5l-1.1-3.4l-2.9-2.1h-3.6l-2.9,2.1l-1.1,3.4l1.1,3.4l2.9,2.1h3.6l2.9-2.1L1100.4,76.5z"/>
</g>
<g>
	<path class="st5" d="M1270.1,170.5l8.7-13.4l18.3-13.4l38.5-13.4"/>
	<line class="st5" x1="1360.4" y1="197.3" x2="1181.6" y2="183.9"/>
	<path class="st5" d="M1148.7,264.3l207.7-13.4l15.4-13.4l8.6-13.4l26.3-13.4"/>
</g>
<g>
	<line class="st8" x1="1079.9" y1="264.3" x2="1098.7" y2="264.3"/>
	<line class="st8" x1="1165.9" y1="250.9" x2="1244.3" y2="250.9"/>
	<line class="st8" x1="1150.3" y1="237.5" x2="1216.9" y2="237.5"/>
	<line class="st8" x1="1166.4" y1="224.1" x2="1237.7" y2="224.1"/>
	<line class="st8" x1="1189.9" y1="210.7" x2="1267.9" y2="210.7"/>
	<line class="st8" x1="1158.4" y1="197.3" x2="1216.2" y2="197.3"/>
	<line class="st8" x1="1092.8" y1="183.9" x2="1113.6" y2="183.9"/>
	<line class="st8" x1="1128.5" y1="170.5" x2="1168.5" y2="170.5"/>
	<line class="st8" x1="1134.3" y1="157.1" x2="1174.1" y2="157.1"/>
	<line class="st8" x1="1142.5" y1="143.7" x2="1183.6" y2="143.7"/>
	<line class="st8" x1="1163.8" y1="130.3" x2="1215.3" y2="130.3"/>
	<line class="st8" x1="1099.2" y1="116.9" x2="1120" y2="116.9"/>
	<line class="st8" x1="1050.5" y1="103.5" x2="1066.2" y2="103.5"/>
	<line class="st8" x1="1149" y1="90.1" x2="1189.7" y2="90.1"/>
	<line class="st8" x1="1040.4" y1="76.7" x2="1053.9" y2="76.7"/>
</g>
<g>
	<path class="st9" d="M1094.4,264.5l-1.1-3.4l-2.9-2.1h-3.6l-2.9,2.1l-1.1,3.4l1.1,3.4l2.9,2.1h3.6l2.9-2.1L1094.4,264.5z"/>
	<path class="st9" d="M1209.4,250.5l-1.1-3.4l-2.9-2.1h-3.6l-2.9,2.1l-1.1,3.4l1.1,3.4l2.9,2.1h3.6l2.9-2.1L1209.4,250.5z"/>
	<path class="st9" d="M1185.4,237.5l-1.1-3.4l-2.9-2.1h-3.6l-2.9,2.1l-1.1,3.4l1.1,3.4l2.9,2.1h3.6l2.9-2.1L1185.4,237.5z"/>
	<path class="st9" d="M1206.4,224.5l-1.1-3.4l-2.9-2.1h-3.6l-2.9,2.1l-1.1,3.4l1.1,3.4l2.9,2.1h3.6l2.9-2.1L1206.4,224.5z"/>
	<path class="st9" d="M1232.4,210.5l-1.1-3.4l-2.9-2.1h-3.6l-2.9,2.1l-1.1,3.4l1.1,3.4l2.9,2.1h3.6l2.9-2.1L1232.4,210.5z"/>
	<path class="st9" d="M1192.4,197.5l-1.1-3.4l-2.9-2.1h-3.6l-2.9,2.1l-1.1,3.4l1.1,3.4l2.9,2.1h3.6l2.9-2.1L1192.4,197.5z"/>
	<path class="st9" d="M1108.4,183.5l-1.1-3.4l-2.9-2.1h-3.6l-2.9,2.1l-1.1,3.4l1.1,3.4l2.9,2.1h3.6l2.9-2.1L1108.4,183.5z"/>
	<path class="st9" d="M1153.4,170.5l-1.1-3.4l-2.9-2.1h-3.6l-2.9,2.1l-1.1,3.4l1.1,3.4l2.9,2.1h3.6l2.9-2.1L1153.4,170.5z"/>
	<path class="st9" d="M1159.4,157.5l-1.1-3.4l-2.9-2.1h-3.6l-2.9,2.1l-1.1,3.4l1.1,3.4l2.9,2.1h3.6l2.9-2.1L1159.4,157.5z"/>
	<path class="st9" d="M1167.4,143.5l-1.1-3.4l-2.9-2.1h-3.6l-2.9,2.1l-1.1,3.4l1.1,3.4l2.9,2.1h3.6l2.9-2.1L1167.4,143.5z"/>
	<path class="st9" d="M1193.4,130.5l-1.1-3.4l-2.9-2.1h-3.6l-2.9,2.1l-1.1,3.4l1.1,3.4l2.9,2.1h3.6l2.9-2.1L1193.4,130.5z"/>
	<path class="st9" d="M1114.4,116.5l-1.1-3.4l-2.9-2.1h-3.6l-2.9,2.1l-1.1,3.4l1.1,3.4l2.9,2.1h3.6l2.9-2.1L1114.4,116.5z"/>
	<path class="st9" d="M1063.4,103.5l-1.1-3.4l-2.9-2.1h-3.6l-2.9,2.1l-1.1,3.4l1.1,3.4l2.9,2.1h3.6l2.9-2.1L1063.4,103.5z"/>
	<path class="st9" d="M1174.4,90.5l-1.1-3.4l-2.9-2.1h-3.6l-2.9,2.1l-1.1,3.4l1.1,3.4l2.9,2.1h3.6l2.9-2.1L1174.4,90.5z"/>
	<path class="st9" d="M1052.4,76.5l-1.1-3.4l-2.9-2.1h-3.6l-2.9,2.1l-1.1,3.4l1.1,3.4l2.9,2.1h3.6l2.9-2.1L1052.4,76.5z"/>
</g>
<g>
	<path class="st8" d="M1147.3,170.5l6.4-13.4l7.5-13.4l26.4-13.4"/>
	<line class="st8" x1="1186.1" y1="197.3" x2="1102.7" y2="183.9"/>
	<path class="st8" d="M1088.7,264.3l114.8-13.4l-23.7-13.4l20.5-13.4l25.9-13.4"/>
</g>
<g>
	<line class="st0" x1="781" y1="524.3" x2="274" y2="524.3"/>
	<line class="st0" x1="781" y1="510.9" x2="274" y2="510.9"/>
	<line class="st0" x1="781" y1="497.5" x2="274" y2="497.5"/>
	<line class="st0" x1="781" y1="484.1" x2="274" y2="484.1"/>
	<line class="st0" x1="781" y1="470.7" x2="274" y2="470.7"/>
	<line class="st0" x1="781" y1="457.3" x2="274" y2="457.3"/>
	<line class="st0" x1="781" y1="443.9" x2="274" y2="443.9"/>
	<line class="st0" x1="781" y1="430.5" x2="274" y2="430.5"/>
	<line class="st0" x1="781" y1="417.1" x2="274" y2="417.1"/>
	<line class="st0" x1="781" y1="403.7" x2="274" y2="403.7"/>
	<line class="st0" x1="781" y1="390.3" x2="274" y2="390.3"/>
	<line class="st0" x1="781" y1="376.9" x2="274" y2="376.9"/>
	<line class="st0" x1="781" y1="363.5" x2="274" y2="363.5"/>
	<line class="st0" x1="781" y1="350.1" x2="274" y2="350.1"/>
	<line class="st0" x1="781" y1="336.7" x2="274" y2="336.7"/>
	<line class="st1" x1="274" y1="531" x2="781" y2="531"/>
	<line class="st1" x1="274" y1="531" x2="274" y2="525.9"/>
	<line class="st1" x1="330.3" y1="531" x2="330.3" y2="525.9"/>
	<line class="st1" x1="386.7" y1="531" x2="386.7" y2="525.9"/>
	<line class="st1" x1="443" y1="531" x2="443" y2="525.9"/>
	<line class="st1" x1="499.3" y1="531" x2="499.3" y2="525.9"/>
	<line class="st1" x1="555.7" y1="531" x2="555.7" y2="525.9"/>
	<line class="st1" x1="612" y1="531" x2="612" y2="525.9"/>
	<line class="st1" x1="668.3" y1="531" x2="668.3" y2="525.9"/>
	<line class="st1" x1="724.7" y1="531" x2="724.7" y2="525.9"/>
	<line class="st1" x1="781" y1="531" x2="781" y2="525.9"/>
</g>
<g transform="translate(274,556.3333)">
	<text transform="matrix(1 0 0 1 -15 -13)" class="st2 st3 st4">-0.05</text>
</g>
<g transform="translate(330.3333,556.3333)">
	<text transform="matrix(1 0 0 1 -15 -13)" class="st2 st3 st4">-0.04</text>
</g>
<g transform="translate(386.6667,556.3333)">
	<text transform="matrix(1 0 0 1 -15 -13)" class="st2 st3 st4">-0.03</text>
</g>
<g transform="translate(443,556.3333)">
	<text transform="matrix(1 0 0 1 -15 -13)" class="st2 st3 st4">-0.02</text>
</g>
<g transform="translate(499.3333,556.3333)">
	<text transform="matrix(1 0 0 1 -15 -13)" class="st2 st3 st4">-0.01</text>
</g>
<g transform="translate(555.6667,556.3333)">
	<text transform="matrix(1 0 0 1 -4 -13)" class="st2 st3 st4">0</text>
</g>
<g transform="translate(612,556.3333)">
	<text transform="matrix(1 0 0 1 -13 -13)" class="st2 st3 st4">0.01</text>
</g>
<g transform="translate(668.3333,556.3333)">
	<text transform="matrix(1 0 0 1 -13 -13)" class="st2 st3 st4">0.02</text>
</g>
<g transform="translate(724.6667,556.3333)">
	<text transform="matrix(1 0 0 1 -13 -13)" class="st2 st3 st4">0.03</text>
</g>
<g transform="translate(781,556.3333)">
	<text transform="matrix(1 0 0 1 -13 -13)" class="st2 st3 st4">0.04</text>
</g>
<g>
	<line class="st5" x1="549.9" y1="524.3" x2="627.3" y2="524.3"/>
	<line class="st5" x1="401.4" y1="510.9" x2="658.3" y2="510.9"/>
	<line class="st5" x1="432.1" y1="497.5" x2="716.2" y2="497.5"/>
	<line class="st5" x1="343" y1="484.1" x2="624.2" y2="484.1"/>
	<line class="st5" x1="393" y1="470.7" x2="680.9" y2="470.7"/>
	<line class="st5" x1="327.8" y1="457.3" x2="598.6" y2="457.3"/>
	<line class="st5" x1="549.8" y1="443.9" x2="619.3" y2="443.9"/>
	<line class="st5" x1="517.1" y1="430.5" x2="666.5" y2="430.5"/>
	<line class="st5" x1="459.6" y1="417.1" x2="627.3" y2="417.1"/>
	<line class="st5" x1="503.6" y1="403.7" x2="651.6" y2="403.7"/>
	<line class="st5" x1="559.8" y1="390.3" x2="732.5" y2="390.3"/>
	<line class="st5" x1="542.8" y1="376.9" x2="611.6" y2="376.9"/>
	<line class="st5" x1="487.4" y1="363.5" x2="539.8" y2="363.5"/>
	<line class="st5" x1="529.7" y1="350.1" x2="727.3" y2="350.1"/>
	<line class="st5" x1="531.9" y1="336.7" x2="587" y2="336.7"/>
</g>
<g>
	<path class="st6" d="M590.4,524.5l-1.1-3.4l-2.9-2.1h-3.6l-2.9,2.1l-1.1,3.4l1.1,3.4l2.9,2.1h3.6l2.9-2.1L590.4,524.5z"/>
	<path class="st6" d="M533.4,510.5l-1.1-3.4l-2.9-2.1h-3.6l-2.9,2.1l-1.1,3.4l1.1,3.4l2.9,2.1h3.6l2.9-2.1L533.4,510.5z"/>
	<path class="st6" d="M585.4,497.5l-1.1-3.4l-2.9-2.1h-3.6l-2.9,2.1l-1.1,3.4l1.1,3.4l2.9,2.1h3.6l2.9-2.1L585.4,497.5z"/>
	<path class="st6" d="M491.4,484.5l-1.1-3.4l-2.9-2.1h-3.6l-2.9,2.1l-1.1,3.4l1.1,3.4l2.9,2.1h3.6l2.9-2.1L491.4,484.5z"/>
	<path class="st6" d="M545.4,470.5l-1.1-3.4l-2.9-2.1h-3.6l-2.9,2.1l-1.1,3.4l1.1,3.4l2.9,2.1h3.6l2.9-2.1L545.4,470.5z"/>
	<path class="st6" d="M473.4,457.5l-1.1-3.4l-2.9-2.1h-3.6l-2.9,2.1l-1.1,3.4l1.1,3.4l2.9,2.1h3.6l2.9-2.1L473.4,457.5z"/>
	<path class="st6" d="M589.4,443.5l-1.1-3.4l-2.9-2.1h-3.6l-2.9,2.1l-1.1,3.4l1.1,3.4l2.9,2.1h3.6l2.9-2.1L589.4,443.5z"/>
	<path class="st6" d="M598.4,430.5l-1.1-3.4l-2.9-2.1h-3.6l-2.9,2.1l-1.1,3.4l1.1,3.4l2.9,2.1h3.6l2.9-2.1L598.4,430.5z"/>
	<path class="st6" d="M547.4,417.5l-1.1-3.4l-2.9-2.1h-3.6l-2.9,2.1l-1.1,3.4l1.1,3.4l2.9,2.1h3.6l2.9-2.1L547.4,417.5z"/>
	<path class="st6" d="M580.4,403.5l-1.1-3.4l-2.9-2.1h-3.6l-2.9,2.1l-1.1,3.4l1.1,3.4l2.9,2.1h3.6l2.9-2.1L580.4,403.5z"/>
	<path class="st6" d="M652.4,390.5l-1.1-3.4l-2.9-2.1h-3.6l-2.9,2.1l-1.1,3.4l1.1,3.4l2.9,2.1h3.6l2.9-2.1L652.4,390.5z"/>
	<path class="st6" d="M581.4,376.5l-1.1-3.4l-2.9-2.1h-3.6l-2.9,2.1l-1.1,3.4l1.1,3.4l2.9,2.1h3.6l2.9-2.1L581.4,376.5z"/>
	<path class="st6" d="M521.4,363.5l-1.1-3.4l-2.9-2.1h-3.6l-2.9,2.1l-1.1,3.4l1.1,3.4l2.9,2.1h3.6l2.9-2.1L521.4,363.5z"/>
	<path class="st6" d="M639.4,350.5l-1.1-3.4l-2.9-2.1h-3.6l-2.9,2.1l-1.1,3.4l1.1,3.4l2.9,2.1h3.6l2.9-2.1L639.4,350.5z"/>
	<path class="st6" d="M565.4,336.5l-1.1-3.4l-2.9-2.1h-3.6l-2.9,2.1l-1.1,3.4l1.1,3.4l2.9,2.1h3.6l2.9-2.1L565.4,336.5z"/>
</g>
<g>
	<path class="st5" d="M592.6,430.5l-51.1-13.4l33.3-13.4l71.2-13.4"/>
	<line class="st5" x1="467.9" y1="457.3" x2="583.5" y2="443.9"/>
	<path class="st5" d="M584.2,524.3l-56.2-13.4l51.6-13.4l-93.7-13.4l53.9-13.4"/>
</g>
<g>
	<line class="st7" x1="555.7" y1="531" x2="555.7" y2="330"/>
</g>
<g>
	<line class="st8" x1="555.5" y1="524.3" x2="610.1" y2="524.3"/>
	<line class="st8" x1="387.2" y1="510.9" x2="609.4" y2="510.9"/>
	<line class="st8" x1="446.8" y1="497.5" x2="655.7" y2="497.5"/>
	<line class="st8" x1="447.2" y1="484.1" x2="665.2" y2="484.1"/>
	<line class="st8" x1="320.2" y1="470.7" x2="551.3" y2="470.7"/>
	<line class="st8" x1="479.8" y1="457.3" x2="645" y2="457.3"/>
	<line class="st8" x1="547.4" y1="443.9" x2="603.8" y2="443.9"/>
	<line class="st8" x1="485" y1="430.5" x2="610" y2="430.5"/>
	<line class="st8" x1="491.1" y1="417.1" x2="630.5" y2="417.1"/>
	<line class="st8" x1="541.4" y1="403.7" x2="681.3" y2="403.7"/>
	<line class="st8" x1="594.7" y1="390.3" x2="748.1" y2="390.3"/>
	<line class="st8" x1="544.9" y1="376.9" x2="605" y2="376.9"/>
	<line class="st8" x1="545.9" y1="363.5" x2="589.5" y2="363.5"/>
	<line class="st8" x1="576.7" y1="350.1" x2="730.9" y2="350.1"/>
	<line class="st8" x1="524.6" y1="336.7" x2="565.5" y2="336.7"/>
</g>
<g>
	<path class="st9" d="M587.4,524.5l-1.1-3.4l-2.9-2.1h-3.6l-2.9,2.1l-1.1,3.4l1.1,3.4l2.9,2.1h3.6l2.9-2.1L587.4,524.5z"/>
	<path class="st9" d="M502.4,510.5l-1.1-3.4l-2.9-2.1h-3.6l-2.9,2.1l-1.1,3.4l1.1,3.4l2.9,2.1h3.6l2.9-2.1L502.4,510.5z"/>
	<path class="st9" d="M555.4,497.5l-1.1-3.4l-2.9-2.1h-3.6l-2.9,2.1l-1.1,3.4l1.1,3.4l2.9,2.1h3.6l2.9-2.1L555.4,497.5z"/>
	<path class="st9" d="M566.4,484.5l-1.1-3.4l-2.9-2.1h-3.6l-2.9,2.1l-1.1,3.4l1.1,3.4l2.9,2.1h3.6l2.9-2.1L566.4,484.5z"/>
	<path class="st9" d="M442.4,470.5l-1.1-3.4l-2.9-2.1h-3.6l-2.9,2.1l-1.1,3.4l1.1,3.4l2.9,2.1h3.6l2.9-2.1L442.4,470.5z"/>
	<path class="st9" d="M570.4,457.5l-1.1-3.4l-2.9-2.1h-3.6l-2.9,2.1l-1.1,3.4l1.1,3.4l2.9,2.1h3.6l2.9-2.1L570.4,457.5z"/>
	<path class="st9" d="M580.4,443.5l-1.1-3.4l-2.9-2.1h-3.6l-2.9,2.1l-1.1,3.4l1.1,3.4l2.9,2.1h3.6l2.9-2.1L580.4,443.5z"/>
	<path class="st9" d="M554.4,430.5l-1.1-3.4l-2.9-2.1h-3.6l-2.9,2.1l-1.1,3.4l1.1,3.4l2.9,2.1h3.6l2.9-2.1L554.4,430.5z"/>
	<path class="st9" d="M569.4,417.5l-1.1-3.4l-2.9-2.1h-3.6l-2.9,2.1l-1.1,3.4l1.1,3.4l2.9,2.1h3.6l2.9-2.1L569.4,417.5z"/>
	<path class="st9" d="M618.4,403.5l-1.1-3.4l-2.9-2.1h-3.6l-2.9,2.1l-1.1,3.4l1.1,3.4l2.9,2.1h3.6l2.9-2.1L618.4,403.5z"/>
	<path class="st9" d="M674.4,390.5l-1.1-3.4l-2.9-2.1h-3.6l-2.9,2.1l-1.1,3.4l1.1,3.4l2.9,2.1h3.6l2.9-2.1L674.4,390.5z"/>
	<path class="st9" d="M580.4,376.5l-1.1-3.4l-2.9-2.1h-3.6l-2.9,2.1l-1.1,3.4l1.1,3.4l2.9,2.1h3.6l2.9-2.1L580.4,376.5z"/>
	<path class="st9" d="M572.4,363.5l-1.1-3.4l-2.9-2.1h-3.6l-2.9,2.1l-1.1,3.4l1.1,3.4l2.9,2.1h3.6l2.9-2.1L572.4,363.5z"/>
	<path class="st9" d="M657.4,350.5l-1.1-3.4l-2.9-2.1h-3.6l-2.9,2.1l-1.1,3.4l1.1,3.4l2.9,2.1h3.6l2.9-2.1L657.4,350.5z"/>
	<path class="st9" d="M551.4,336.5l-1.1-3.4l-2.9-2.1h-3.6l-2.9,2.1l-1.1,3.4l1.1,3.4l2.9,2.1h3.6l2.9-2.1L551.4,336.5z"/>
</g>
<g>
	<path class="st8" d="M548.9,430.5l14.9-13.4l48.6-13.4l56.3-13.4"/>
	<line class="st8" x1="564.8" y1="457.3" x2="574.9" y2="443.9"/>
	<path class="st8" d="M581.3,524.3l-84.7-13.4l52.8-13.4l11.4-13.4l-124.2-13.4"/>
</g>
<g>
	<line class="st7" x1="555.7" y1="531" x2="555.7" y2="330"/>
</g>
<g>
	<line class="st0" x1="1520" y1="524.3" x2="1014" y2="524.3"/>
	<line class="st0" x1="1520" y1="510.9" x2="1014" y2="510.9"/>
	<line class="st0" x1="1520" y1="497.5" x2="1014" y2="497.5"/>
	<line class="st0" x1="1520" y1="484.1" x2="1014" y2="484.1"/>
	<line class="st0" x1="1520" y1="470.7" x2="1014" y2="470.7"/>
	<line class="st0" x1="1520" y1="457.3" x2="1014" y2="457.3"/>
	<line class="st0" x1="1520" y1="443.9" x2="1014" y2="443.9"/>
	<line class="st0" x1="1520" y1="430.5" x2="1014" y2="430.5"/>
	<line class="st0" x1="1520" y1="417.1" x2="1014" y2="417.1"/>
	<line class="st0" x1="1520" y1="403.7" x2="1014" y2="403.7"/>
	<line class="st0" x1="1520" y1="390.3" x2="1014" y2="390.3"/>
	<line class="st0" x1="1520" y1="376.9" x2="1014" y2="376.9"/>
	<line class="st0" x1="1520" y1="363.5" x2="1014" y2="363.5"/>
	<line class="st0" x1="1520" y1="350.1" x2="1014" y2="350.1"/>
	<line class="st0" x1="1520" y1="336.7" x2="1014" y2="336.7"/>
	<line class="st1" x1="1014" y1="531" x2="1520" y2="531"/>
	<line class="st1" x1="1014" y1="531" x2="1014" y2="525.9"/>
	<line class="st1" x1="1086.3" y1="531" x2="1086.3" y2="525.9"/>
	<line class="st1" x1="1158.6" y1="531" x2="1158.6" y2="525.9"/>
	<line class="st1" x1="1230.9" y1="531" x2="1230.9" y2="525.9"/>
	<line class="st1" x1="1303.1" y1="531" x2="1303.1" y2="525.9"/>
	<line class="st1" x1="1375.4" y1="531" x2="1375.4" y2="525.9"/>
	<line class="st1" x1="1447.7" y1="531" x2="1447.7" y2="525.9"/>
	<line class="st1" x1="1520" y1="531" x2="1520" y2="525.9"/>
</g>
<g transform="translate(1014,556.3333)">
	<text transform="matrix(1 0 0 1 -4 -13)" class="st2 st3 st4">0</text>
</g>
<g transform="translate(1086.2858,556.3333)">
	<text transform="matrix(1 0 0 1 -13 -13)" class="st2 st3 st4">0.02</text>
</g>
<g transform="translate(1158.5714,556.3333)">
	<text transform="matrix(1 0 0 1 -13 -13)" class="st2 st3 st4">0.04</text>
</g>
<g transform="translate(1230.8572,556.3333)">
	<text transform="matrix(1 0 0 1 -13 -13)" class="st2 st3 st4">0.06</text>
</g>
<g transform="translate(1303.1428,556.3333)">
	<text transform="matrix(1 0 0 1 -13 -13)" class="st2 st3 st4">0.08</text>
</g>
<g transform="translate(1375.4286,556.3333)">
	<text transform="matrix(1 0 0 1 -9.5 -13)" class="st2 st3 st4">0.1</text>
</g>
<g transform="translate(1447.7142,556.3333)">
	<text transform="matrix(1 0 0 1 -13 -13)" class="st2 st3 st4">0.12</text>
</g>
<g transform="translate(1520,556.3333)">
	<text transform="matrix(1 0 0 1 -13 -13)" class="st2 st3 st4">0.14</text>
</g>
<g>
	<line class="st5" x1="1118" y1="524.3" x2="1159.6" y2="524.3"/>
	<line class="st5" x1="1278.7" y1="510.9" x2="1427.3" y2="510.9"/>
	<line class="st5" x1="1301.8" y1="497.5" x2="1458.7" y2="497.5"/>
	<line class="st5" x1="1280.2" y1="484.1" x2="1423.7" y2="484.1"/>
	<line class="st5" x1="1308.5" y1="470.7" x2="1455.8" y2="470.7"/>
	<line class="st5" x1="1253.1" y1="457.3" x2="1385.4" y2="457.3"/>
	<line class="st5" x1="1110.5" y1="443.9" x2="1153.3" y2="443.9"/>
	<line class="st5" x1="1141.5" y1="430.5" x2="1221.4" y2="430.5"/>
	<line class="st5" x1="1153.6" y1="417.1" x2="1229.7" y2="417.1"/>
	<line class="st5" x1="1145.4" y1="403.7" x2="1224.6" y2="403.7"/>
	<line class="st5" x1="1164.4" y1="390.3" x2="1254.9" y2="390.3"/>
	<line class="st5" x1="1108.6" y1="376.9" x2="1152.7" y2="376.9"/>
	<line class="st5" x1="1073.3" y1="363.5" x2="1104.4" y2="363.5"/>
	<line class="st5" x1="1190.4" y1="350.1" x2="1269.8" y2="350.1"/>
	<line class="st5" x1="1074.1" y1="336.7" x2="1107" y2="336.7"/>
</g>
<g>
	<path class="st6" d="M1143.4,524.5l-1.1-3.4l-2.9-2.1h-3.6l-2.9,2.1l-1.1,3.4l1.1,3.4l2.9,2.1h3.6l2.9-2.1L1143.4,524.5z"/>
	<path class="st6" d="M1352.4,510.5l-1.1-3.4l-2.9-2.1h-3.6l-2.9,2.1l-1.1,3.4l1.1,3.4l2.9,2.1h3.6l2.9-2.1L1352.4,510.5z"/>
	<path class="st6" d="M1378.4,497.5l-1.1-3.4l-2.9-2.1h-3.6l-2.9,2.1l-1.1,3.4l1.1,3.4l2.9,2.1h3.6l2.9-2.1L1378.4,497.5z"/>
	<path class="st6" d="M1354.4,484.5l-1.1-3.4l-2.9-2.1h-3.6l-2.9,2.1l-1.1,3.4l1.1,3.4l2.9,2.1h3.6l2.9-2.1L1354.4,484.5z"/>
	<path class="st6" d="M1386.4,470.5l-1.1-3.4l-2.9-2.1h-3.6l-2.9,2.1l-1.1,3.4l1.1,3.4l2.9,2.1h3.6l2.9-2.1L1386.4,470.5z"/>
	<path class="st6" d="M1321.4,457.5l-1.1-3.4l-2.9-2.1h-3.6l-2.9,2.1l-1.1,3.4l1.1,3.4l2.9,2.1h3.6l2.9-2.1L1321.4,457.5z"/>
	<path class="st6" d="M1135.4,443.5l-1.1-3.4l-2.9-2.1h-3.6l-2.9,2.1l-1.1,3.4l1.1,3.4l2.9,2.1h3.6l2.9-2.1L1135.4,443.5z"/>
	<path class="st6" d="M1186.4,430.5l-1.1-3.4l-2.9-2.1h-3.6l-2.9,2.1l-1.1,3.4l1.1,3.4l2.9,2.1h3.6l2.9-2.1L1186.4,430.5z"/>
	<path class="st6" d="M1196.4,417.5l-1.1-3.4l-2.9-2.1h-3.6l-2.9,2.1l-1.1,3.4l1.1,3.4l2.9,2.1h3.6l2.9-2.1L1196.4,417.5z"/>
	<path class="st6" d="M1188.4,403.5l-1.1-3.4l-2.9-2.1h-3.6l-2.9,2.1l-1.1,3.4l1.1,3.4l2.9,2.1h3.6l2.9-2.1L1188.4,403.5z"/>
	<path class="st6" d="M1212.4,390.5l-1.1-3.4l-2.9-2.1h-3.6l-2.9,2.1l-1.1,3.4l1.1,3.4l2.9,2.1h3.6l2.9-2.1L1212.4,390.5z"/>
	<path class="st6" d="M1133.4,376.5l-1.1-3.4l-2.9-2.1h-3.6l-2.9,2.1l-1.1,3.4l1.1,3.4l2.9,2.1h3.6l2.9-2.1L1133.4,376.5z"/>
	<path class="st6" d="M1093.4,363.5l-1.1-3.4l-2.9-2.1h-3.6l-2.9,2.1l-1.1,3.4l1.1,3.4l2.9,2.1h3.6l2.9-2.1L1093.4,363.5z"/>
	<path class="st6" d="M1235.4,350.5l-1.1-3.4l-2.9-2.1h-3.6l-2.9,2.1l-1.1,3.4l1.1,3.4l2.9,2.1h3.6l2.9-2.1L1235.4,350.5z"/>
	<path class="st6" d="M1095.4,336.5l-1.1-3.4l-2.9-2.1h-3.6l-2.9,2.1l-1.1,3.4l1.1,3.4l2.9,2.1h3.6l2.9-2.1L1095.4,336.5z"/>
</g>
<g>
	<path class="st5" d="M1180,430.5l10.7-13.4l-8.6-13.4l24.5-13.4"/>
	<line class="st5" x1="1315.4" y1="457.3" x2="1129.1" y2="443.9"/>
	<path class="st5" d="M1138,524.3l208.2-13.4l26.7-13.4l-24.7-13.4l32-13.4"/>
</g>
<g>
	<line class="st8" x1="1142.6" y1="524.3" x2="1175.6" y2="524.3"/>
	<line class="st8" x1="1344.8" y1="510.9" x2="1471.2" y2="510.9"/>
	<line class="st8" x1="1306.8" y1="497.5" x2="1424.6" y2="497.5"/>
	<line class="st8" x1="1334.2" y1="484.1" x2="1460.2" y2="484.1"/>
	<line class="st8" x1="1370.9" y1="470.7" x2="1506.4" y2="470.7"/>
	<line class="st8" x1="1255.7" y1="457.3" x2="1349.3" y2="457.3"/>
	<line class="st8" x1="1145.2" y1="443.9" x2="1180.7" y2="443.9"/>
	<line class="st8" x1="1154" y1="430.5" x2="1214" y2="430.5"/>
	<line class="st8" x1="1187.4" y1="417.1" x2="1253" y2="417.1"/>
	<line class="st8" x1="1195.8" y1="403.7" x2="1264.1" y2="403.7"/>
	<line class="st8" x1="1225.4" y1="390.3" x2="1302.1" y2="390.3"/>
	<line class="st8" x1="1143.7" y1="376.9" x2="1178" y2="376.9"/>
	<line class="st8" x1="1095.8" y1="363.5" x2="1123.8" y2="363.5"/>
	<line class="st8" x1="1232.3" y1="350.1" x2="1298.5" y2="350.1"/>
	<line class="st8" x1="1069.3" y1="336.7" x2="1093.1" y2="336.7"/>
</g>
<g>
	<path class="st9" d="M1164.4,524.5l-1.1-3.4l-2.9-2.1h-3.6l-2.9,2.1l-1.1,3.4l1.1,3.4l2.9,2.1h3.6l2.9-2.1L1164.4,524.5z"/>
	<path class="st9" d="M1411.4,510.5l-1.1-3.4l-2.9-2.1h-3.6l-2.9,2.1l-1.1,3.4l1.1,3.4l2.9,2.1h3.6l2.9-2.1L1411.4,510.5z"/>
	<path class="st9" d="M1367.4,497.5l-1.1-3.4l-2.9-2.1h-3.6l-2.9,2.1l-1.1,3.4l1.1,3.4l2.9,2.1h3.6l2.9-2.1L1367.4,497.5z"/>
	<path class="st9" d="M1398.4,484.5l-1.1-3.4l-2.9-2.1h-3.6l-2.9,2.1l-1.1,3.4l1.1,3.4l2.9,2.1h3.6l2.9-2.1L1398.4,484.5z"/>
	<path class="st9" d="M1441.4,470.5l-1.1-3.4l-2.9-2.1h-3.6l-2.9,2.1l-1.1,3.4l1.1,3.4l2.9,2.1h3.6l2.9-2.1L1441.4,470.5z"/>
	<path class="st9" d="M1304.4,457.5l-1.1-3.4l-2.9-2.1h-3.6l-2.9,2.1l-1.1,3.4l1.1,3.4l2.9,2.1h3.6l2.9-2.1L1304.4,457.5z"/>
	<path class="st9" d="M1167.4,443.5l-1.1-3.4l-2.9-2.1h-3.6l-2.9,2.1l-1.1,3.4l1.1,3.4l2.9,2.1h3.6l2.9-2.1L1167.4,443.5z"/>
	<path class="st9" d="M1188.4,430.5l-1.1-3.4l-2.9-2.1h-3.6l-2.9,2.1l-1.1,3.4l1.1,3.4l2.9,2.1h3.6l2.9-2.1L1188.4,430.5z"/>
	<path class="st9" d="M1223.4,417.5l-1.1-3.4l-2.9-2.1h-3.6l-2.9,2.1l-1.1,3.4l1.1,3.4l2.9,2.1h3.6l2.9-2.1L1223.4,417.5z"/>
	<path class="st9" d="M1233.4,403.5l-1.1-3.4l-2.9-2.1h-3.6l-2.9,2.1l-1.1,3.4l1.1,3.4l2.9,2.1h3.6l2.9-2.1L1233.4,403.5z"/>
	<path class="st9" d="M1267.4,390.5l-1.1-3.4l-2.9-2.1h-3.6l-2.9,2.1l-1.1,3.4l1.1,3.4l2.9,2.1h3.6l2.9-2.1L1267.4,390.5z"/>
	<path class="st9" d="M1165.4,376.5l-1.1-3.4l-2.9-2.1h-3.6l-2.9,2.1l-1.1,3.4l1.1,3.4l2.9,2.1h3.6l2.9-2.1L1165.4,376.5z"/>
	<path class="st9" d="M1113.4,363.5l-1.1-3.4l-2.9-2.1h-3.6l-2.9,2.1l-1.1,3.4l1.1,3.4l2.9,2.1h3.6l2.9-2.1L1113.4,363.5z"/>
	<path class="st9" d="M1270.4,350.5l-1.1-3.4l-2.9-2.1h-3.6l-2.9,2.1l-1.1,3.4l1.1,3.4l2.9,2.1h3.6l2.9-2.1L1270.4,350.5z"/>
	<path class="st9" d="M1086.4,336.5l-1.1-3.4l-2.9-2.1h-3.6l-2.9,2.1l-1.1,3.4l1.1,3.4l2.9,2.1h3.6l2.9-2.1L1086.4,336.5z"/>
</g>
<g>
	<path class="st8" d="M1182.7,430.5l34.9-13.4l10.3-13.4l33.7-13.4"/>
	<line class="st8" x1="1298.3" y1="457.3" x2="1161.8" y2="443.9"/>
	<path class="st8" d="M1158.4,524.3l246.9-13.4l-43.5-13.4l31.1-13.4l42.5-13.4"/>
</g>
<line class="st0" x1="781" y1="783.3" x2="274" y2="783.3"/>
<line class="st0" x1="781" y1="769.9" x2="274" y2="769.9"/>
<line class="st0" x1="781" y1="756.5" x2="274" y2="756.5"/>
<line class="st0" x1="781" y1="743.1" x2="274" y2="743.1"/>
<line class="st0" x1="781" y1="729.7" x2="274" y2="729.7"/>
<line class="st0" x1="781" y1="716.3" x2="274" y2="716.3"/>
<line class="st0" x1="781" y1="702.9" x2="274" y2="702.9"/>
<line class="st0" x1="781" y1="689.5" x2="274" y2="689.5"/>
<line class="st0" x1="781" y1="676.1" x2="274" y2="676.1"/>
<line class="st0" x1="781" y1="662.7" x2="274" y2="662.7"/>
<line class="st0" x1="781" y1="649.3" x2="274" y2="649.3"/>
<line class="st0" x1="781" y1="635.9" x2="274" y2="635.9"/>
<line class="st0" x1="781" y1="622.5" x2="274" y2="622.5"/>
<line class="st0" x1="781" y1="609.1" x2="274" y2="609.1"/>
<line class="st0" x1="781" y1="595.7" x2="274" y2="595.7"/>
<line class="st1" x1="274" y1="790" x2="781" y2="790"/>
<line class="st1" x1="274" y1="790" x2="274" y2="784.9"/>
<line class="st1" x1="324.7" y1="790" x2="324.7" y2="784.9"/>
<line class="st1" x1="375.4" y1="790" x2="375.4" y2="784.9"/>
<line class="st1" x1="426.1" y1="790" x2="426.1" y2="784.9"/>
<line class="st1" x1="476.8" y1="790" x2="476.8" y2="784.9"/>
<line class="st1" x1="527.5" y1="790" x2="527.5" y2="784.9"/>
<line class="st1" x1="578.2" y1="790" x2="578.2" y2="784.9"/>
<line class="st1" x1="628.9" y1="790" x2="628.9" y2="784.9"/>
<line class="st1" x1="679.6" y1="790" x2="679.6" y2="784.9"/>
<line class="st1" x1="730.3" y1="790" x2="730.3" y2="784.9"/>
<line class="st1" x1="781" y1="790" x2="781" y2="784.9"/>
<g transform="translate(274,835.3333)">
	<text transform="matrix(1 0 0 1 -11.5 -32)" class="st2 st3 st4">-0.1</text>
</g>
<g transform="translate(324.7,835.3333)">
	<text transform="matrix(1 0 0 1 -15 -32)" class="st2 st3 st4">-0.08</text>
</g>
<g transform="translate(375.4,835.3333)">
	<text transform="matrix(1 0 0 1 -15 -32)" class="st2 st3 st4">-0.06</text>
</g>
<g transform="translate(426.1,835.3333)">
	<text transform="matrix(1 0 0 1 -15 -32)" class="st2 st3 st4">-0.04</text>
</g>
<g transform="translate(476.8,835.3333)">
	<text transform="matrix(1 0 0 1 -15 -32)" class="st2 st3 st4">-0.02</text>
</g>
<g transform="translate(527.5,835.3333)">
	<text transform="matrix(1 0 0 1 -4 -32)" class="st2 st3 st4">0</text>
</g>
<g transform="translate(578.2,835.3333)">
	<text transform="matrix(1 0 0 1 -13 -32)" class="st2 st3 st4">0.02</text>
</g>
<g transform="translate(628.9,835.3333)">
	<text transform="matrix(1 0 0 1 -13 -32)" class="st2 st3 st4">0.04</text>
</g>
<g transform="translate(679.6,835.3333)">
	<text transform="matrix(1 0 0 1 -13 -32)" class="st2 st3 st4">0.06</text>
</g>
<g transform="translate(730.3,835.3333)">
	<text transform="matrix(1 0 0 1 -13 -32)" class="st2 st3 st4">0.08</text>
</g>
<g transform="translate(781,835.3333)">
	<text transform="matrix(1 0 0 1 -9.5 -32)" class="st2 st3 st4">0.1</text>
</g>
<g>
	<line class="st5" x1="523.1" y1="783.3" x2="590.5" y2="783.3"/>
	<line class="st5" x1="391.2" y1="769.9" x2="619.9" y2="769.9"/>
	<line class="st5" x1="423.2" y1="756.5" x2="668.1" y2="756.5"/>
	<line class="st5" x1="340.7" y1="743.1" x2="590.4" y2="743.1"/>
	<line class="st5" x1="377" y1="729.7" x2="649.6" y2="729.7"/>
	<line class="st5" x1="316.4" y1="716.3" x2="569.7" y2="716.3"/>
	<line class="st5" x1="520.8" y1="702.9" x2="583.9" y2="702.9"/>
	<line class="st5" x1="512.7" y1="689.5" x2="645.9" y2="689.5"/>
	<line class="st5" x1="457.8" y1="676.1" x2="612.1" y2="676.1"/>
	<line class="st5" x1="500.8" y1="662.7" x2="632.5" y2="662.7"/>
	<line class="st5" x1="559.3" y1="649.3" x2="713.6" y2="649.3"/>
	<line class="st5" x1="516.2" y1="635.9" x2="576.7" y2="635.9"/>
	<line class="st5" x1="466.3" y1="622.5" x2="513.6" y2="622.5"/>
	<line class="st5" x1="519.2" y1="609.1" x2="693.3" y2="609.1"/>
	<line class="st5" x1="505.7" y1="595.7" x2="556" y2="595.7"/>
</g>
<g>
	<path class="st6" d="M559.4,783.5l-1.1-3.4l-2.9-2.1h-3.6l-2.9,2.1l-1.1,3.4l1.1,3.4l2.9,2.1h3.6l2.9-2.1L559.4,783.5z"/>
	<path class="st6" d="M510.4,769.5l-1.1-3.4l-2.9-2.1h-3.6l-2.9,2.1l-1.1,3.4l1.1,3.4l2.9,2.1h3.6l2.9-2.1L510.4,769.5z"/>
	<path class="st6" d="M553.4,756.5l-1.1-3.4l-2.9-2.1h-3.6l-2.9,2.1l-1.1,3.4l1.1,3.4l2.9,2.1h3.6l2.9-2.1L553.4,756.5z"/>
	<path class="st6" d="M472.4,743.5l-1.1-3.4l-2.9-2.1h-3.6l-2.9,2.1l-1.1,3.4l1.1,3.4l2.9,2.1h3.6l2.9-2.1L472.4,743.5z"/>
	<path class="st6" d="M519.4,729.5l-1.1-3.4l-2.9-2.1h-3.6l-2.9,2.1l-1.1,3.4l1.1,3.4l2.9,2.1h3.6l2.9-2.1L519.4,729.5z"/>
	<path class="st6" d="M454.4,716.5l-1.1-3.4l-2.9-2.1h-3.6l-2.9,2.1l-1.1,3.4l1.1,3.4l2.9,2.1h3.6l2.9-2.1L454.4,716.5z"/>
	<path class="st6" d="M556.4,702.5l-1.1-3.4l-2.9-2.1h-3.6l-2.9,2.1l-1.1,3.4l1.1,3.4l2.9,2.1h3.6l2.9-2.1L556.4,702.5z"/>
	<path class="st6" d="M585.4,689.5l-1.1-3.4l-2.9-2.1h-3.6l-2.9,2.1l-1.1,3.4l1.1,3.4l2.9,2.1h3.6l2.9-2.1L585.4,689.5z"/>
	<path class="st6" d="M538.4,676.5l-1.1-3.4l-2.9-2.1h-3.6l-2.9,2.1l-1.1,3.4l1.1,3.4l2.9,2.1h3.6l2.9-2.1L538.4,676.5z"/>
	<path class="st6" d="M569.4,662.5l-1.1-3.4l-2.9-2.1h-3.6l-2.9,2.1l-1.1,3.4l1.1,3.4l2.9,2.1h3.6l2.9-2.1L569.4,662.5z"/>
	<path class="st6" d="M638.4,649.5l-1.1-3.4l-2.9-2.1h-3.6l-2.9,2.1l-1.1,3.4l1.1,3.4l2.9,2.1h3.6l2.9-2.1L638.4,649.5z"/>
	<path class="st6" d="M551.4,635.5l-1.1-3.4l-2.9-2.1h-3.6l-2.9,2.1l-1.1,3.4l1.1,3.4l2.9,2.1h3.6l2.9-2.1L551.4,635.5z"/>
	<path class="st6" d="M497.4,622.5l-1.1-3.4l-2.9-2.1h-3.6l-2.9,2.1l-1.1,3.4l1.1,3.4l2.9,2.1h3.6l2.9-2.1L497.4,622.5z"/>
	<path class="st6" d="M618.4,609.5l-1.1-3.4l-2.9-2.1h-3.6l-2.9,2.1l-1.1,3.4l1.1,3.4l2.9,2.1h3.6l2.9-2.1L618.4,609.5z"/>
	<path class="st6" d="M536.4,595.5l-1.1-3.4l-2.9-2.1h-3.6l-2.9,2.1l-1.1,3.4l1.1,3.4l2.9,2.1h3.6l2.9-2.1L536.4,595.5z"/>
</g>
<g>
	<path class="st5" d="M579.5,689.5l-47-13.4l31.3-13.4l68.9-13.4"/>
	<line class="st5" x1="448.9" y1="716.3" x2="550.6" y2="702.9"/>
	<path class="st5" d="M553.2,783.3l-49.1-13.4l43.1-13.4l-80.4-13.4l46.1-13.4"/>
</g>
<g>
	<line class="st7" x1="527.5" y1="790" x2="527.5" y2="589"/>
</g>
<g>
	<line class="st8" x1="525" y1="783.3" x2="572.1" y2="783.3"/>
	<line class="st8" x1="379.7" y1="769.9" x2="570.4" y2="769.9"/>
	<line class="st8" x1="435.2" y1="756.5" x2="612.7" y2="756.5"/>
	<line class="st8" x1="429.8" y1="743.1" x2="624.3" y2="743.1"/>
	<line class="st8" x1="313.5" y1="729.7" x2="523.2" y2="729.7"/>
	<line class="st8" x1="457.4" y1="716.3" x2="612" y2="716.3"/>
	<line class="st8" x1="518.4" y1="702.9" x2="566.9" y2="702.9"/>
	<line class="st8" x1="490.7" y1="689.5" x2="596.2" y2="689.5"/>
	<line class="st8" x1="495.8" y1="676.1" x2="614.6" y2="676.1"/>
	<line class="st8" x1="539.2" y1="662.7" x2="664.3" y2="662.7"/>
	<line class="st8" x1="599.1" y1="649.3" x2="736.8" y2="649.3"/>
	<line class="st8" x1="515" y1="635.9" x2="566.6" y2="635.9"/>
	<line class="st8" x1="518.9" y1="622.5" x2="556.8" y2="622.5"/>
	<line class="st8" x1="558" y1="609.1" x2="696.7" y2="609.1"/>
	<line class="st8" x1="501" y1="595.7" x2="536.3" y2="595.7"/>
</g>
<g>
	<path class="st9" d="M553.4,783.5l-1.1-3.4l-2.9-2.1h-3.6l-2.9,2.1l-1.1,3.4l1.1,3.4l2.9,2.1h3.6l2.9-2.1L553.4,783.5z"/>
	<path class="st9" d="M481.4,769.5l-1.1-3.4l-2.9-2.1h-3.6l-2.9,2.1l-1.1,3.4l1.1,3.4l2.9,2.1h3.6l2.9-2.1L481.4,769.5z"/>
	<path class="st9" d="M528.4,756.5l-1.1-3.4l-2.9-2.1h-3.6l-2.9,2.1l-1.1,3.4l1.1,3.4l2.9,2.1h3.6l2.9-2.1L528.4,756.5z"/>
	<path class="st9" d="M535.4,743.5l-1.1-3.4l-2.9-2.1h-3.6l-2.9,2.1l-1.1,3.4l1.1,3.4l2.9,2.1h3.6l2.9-2.1L535.4,743.5z"/>
	<path class="st9" d="M423.4,729.5l-1.1-3.4l-2.9-2.1h-3.6l-2.9,2.1l-1.1,3.4l1.1,3.4l2.9,2.1h3.6l2.9-2.1L423.4,729.5z"/>
	<path class="st9" d="M541.4,716.5l-1.1-3.4l-2.9-2.1h-3.6l-2.9,2.1l-1.1,3.4l1.1,3.4l2.9,2.1h3.6l2.9-2.1L541.4,716.5z"/>
	<path class="st9" d="M548.4,702.5l-1.1-3.4l-2.9-2.1h-3.6l-2.9,2.1l-1.1,3.4l1.1,3.4l2.9,2.1h3.6l2.9-2.1L548.4,702.5z"/>
	<path class="st9" d="M550.4,689.5l-1.1-3.4l-2.9-2.1h-3.6l-2.9,2.1l-1.1,3.4l1.1,3.4l2.9,2.1h3.6l2.9-2.1L550.4,689.5z"/>
	<path class="st9" d="M560.4,676.5l-1.1-3.4l-2.9-2.1h-3.6l-2.9,2.1l-1.1,3.4l1.1,3.4l2.9,2.1h3.6l2.9-2.1L560.4,676.5z"/>
	<path class="st9" d="M609.4,662.5l-1.1-3.4l-2.9-2.1h-3.6l-2.9,2.1l-1.1,3.4l1.1,3.4l2.9,2.1h3.6l2.9-2.1L609.4,662.5z"/>
	<path class="st9" d="M672.4,649.5l-1.1-3.4l-2.9-2.1h-3.6l-2.9,2.1l-1.1,3.4l1.1,3.4l2.9,2.1h3.6l2.9-2.1L672.4,649.5z"/>
	<path class="st9" d="M545.4,635.5l-1.1-3.4l-2.9-2.1h-3.6l-2.9,2.1l-1.1,3.4l1.1,3.4l2.9,2.1h3.6l2.9-2.1L545.4,635.5z"/>
	<path class="st9" d="M542.4,622.5l-1.1-3.4l-2.9-2.1h-3.6l-2.9,2.1l-1.1,3.4l1.1,3.4l2.9,2.1h3.6l2.9-2.1L542.4,622.5z"/>
	<path class="st9" d="M631.4,609.5l-1.1-3.4l-2.9-2.1h-3.6l-2.9,2.1l-1.1,3.4l1.1,3.4l2.9,2.1h3.6l2.9-2.1L631.4,609.5z"/>
	<path class="st9" d="M525.4,595.5l-1.1-3.4l-2.9-2.1h-3.6l-2.9,2.1l-1.1,3.4l1.1,3.4l2.9,2.1h3.6l2.9-2.1L525.4,595.5z"/>
</g>
<g>
	<path class="st8" d="M544,689.5l11-13.4l48.1-13.4l63.4-13.4"/>
	<line class="st8" x1="535.7" y1="716.3" x2="542" y2="702.9"/>
	<path class="st8" d="M547.4,783.3l-71.7-13.4l46.7-13.4l7-13.4l-111.7-13.4"/>
</g>
<g>
	<line class="st7" x1="527.5" y1="790" x2="527.5" y2="589"/>
</g>
<g>
	<line class="st0" x1="1520" y1="783.3" x2="1014" y2="783.3"/>
	<line class="st0" x1="1520" y1="769.9" x2="1014" y2="769.9"/>
	<line class="st0" x1="1520" y1="756.5" x2="1014" y2="756.5"/>
	<line class="st0" x1="1520" y1="743.1" x2="1014" y2="743.1"/>
	<line class="st0" x1="1520" y1="729.7" x2="1014" y2="729.7"/>
	<line class="st0" x1="1520" y1="716.3" x2="1014" y2="716.3"/>
	<line class="st0" x1="1520" y1="702.9" x2="1014" y2="702.9"/>
	<line class="st0" x1="1520" y1="689.5" x2="1014" y2="689.5"/>
	<line class="st0" x1="1520" y1="676.1" x2="1014" y2="676.1"/>
	<line class="st0" x1="1520" y1="662.7" x2="1014" y2="662.7"/>
	<line class="st0" x1="1520" y1="649.3" x2="1014" y2="649.3"/>
	<line class="st0" x1="1520" y1="635.9" x2="1014" y2="635.9"/>
	<line class="st0" x1="1520" y1="622.5" x2="1014" y2="622.5"/>
	<line class="st0" x1="1520" y1="609.1" x2="1014" y2="609.1"/>
	<line class="st0" x1="1520" y1="595.7" x2="1014" y2="595.7"/>
	<line class="st1" x1="1014" y1="790" x2="1520" y2="790"/>
	<line class="st1" x1="1014" y1="790" x2="1014" y2="784.9"/>
	<line class="st1" x1="1098.3" y1="790" x2="1098.3" y2="784.9"/>
	<line class="st1" x1="1182.7" y1="790" x2="1182.7" y2="784.9"/>
	<line class="st1" x1="1267" y1="790" x2="1267" y2="784.9"/>
	<line class="st1" x1="1351.3" y1="790" x2="1351.3" y2="784.9"/>
	<line class="st1" x1="1435.7" y1="790" x2="1435.7" y2="784.9"/>
	<line class="st1" x1="1520" y1="790" x2="1520" y2="784.9"/>
</g>
<g transform="translate(1014,835.3333)">
	<text transform="matrix(1 0 0 1 -4 -32)" class="st2 st3 st4">0</text>
</g>
<g transform="translate(1098.3334,835.3333)">
	<text transform="matrix(1 0 0 1 -13 -32)" class="st2 st3 st4">0.05</text>
</g>
<g transform="translate(1182.6666,835.3333)">
	<text transform="matrix(1 0 0 1 -9.5 -32)" class="st2 st3 st4">0.1</text>
</g>
<g transform="translate(1267,835.3333)">
	<text transform="matrix(1 0 0 1 -13 -32)" class="st2 st3 st4">0.15</text>
</g>
<g transform="translate(1351.3334,835.3333)">
	<text transform="matrix(1 0 0 1 -9.5 -32)" class="st2 st3 st4">0.2</text>
</g>
<g transform="translate(1435.6666,835.3333)">
	<text transform="matrix(1 0 0 1 -13 -32)" class="st2 st3 st4">0.25</text>
</g>
<g transform="translate(1520,835.3333)">
	<text transform="matrix(1 0 0 1 -9.5 -32)" class="st2 st3 st4">0.3</text>
</g>
<g>
	<line class="st5" x1="1119.9" y1="783.3" x2="1161.2" y2="783.3"/>
	<line class="st5" x1="1263.3" y1="769.9" x2="1399.5" y2="769.9"/>
	<line class="st5" x1="1279.8" y1="756.5" x2="1419.1" y2="756.5"/>
	<line class="st5" x1="1268.2" y1="743.1" x2="1399.1" y2="743.1"/>
	<line class="st5" x1="1302.9" y1="729.7" x2="1453.1" y2="729.7"/>
	<line class="st5" x1="1267.5" y1="716.3" x2="1388.9" y2="716.3"/>
	<line class="st5" x1="1149.3" y1="702.9" x2="1192.9" y2="702.9"/>
	<line class="st5" x1="1203.2" y1="689.5" x2="1273.1" y2="689.5"/>
	<line class="st5" x1="1209.6" y1="676.1" x2="1282.6" y2="676.1"/>
	<line class="st5" x1="1208.4" y1="662.7" x2="1286.2" y2="662.7"/>
	<line class="st5" x1="1259.2" y1="649.3" x2="1339.6" y2="649.3"/>
	<line class="st5" x1="1158.7" y1="635.9" x2="1201.8" y2="635.9"/>
	<line class="st5" x1="1069.8" y1="622.5" x2="1098.6" y2="622.5"/>
	<line class="st5" x1="1236.7" y1="609.1" x2="1308.6" y2="609.1"/>
	<line class="st5" x1="1069.4" y1="595.7" x2="1101.3" y2="595.7"/>
</g>
<g>
	<path class="st6" d="M1145.4,783.5l-1.1-3.4l-2.9-2.1h-3.6l-2.9,2.1l-1.1,3.4l1.1,3.4l2.9,2.1h3.6l2.9-2.1L1145.4,783.5z"/>
	<path class="st6" d="M1332.4,769.5l-1.1-3.4l-2.9-2.1h-3.6l-2.9,2.1l-1.1,3.4l1.1,3.4l2.9,2.1h3.6l2.9-2.1L1332.4,769.5z"/>
	<path class="st6" d="M1349.4,756.5l-1.1-3.4l-2.9-2.1h-3.6l-2.9,2.1l-1.1,3.4l1.1,3.4l2.9,2.1h3.6l2.9-2.1L1349.4,756.5z"/>
	<path class="st6" d="M1337.4,743.5l-1.1-3.4l-2.9-2.1h-3.6l-2.9,2.1l-1.1,3.4l1.1,3.4l2.9,2.1h3.6l2.9-2.1L1337.4,743.5z"/>
	<path class="st6" d="M1377.4,729.5l-1.1-3.4l-2.9-2.1h-3.6l-2.9,2.1l-1.1,3.4l1.1,3.4l2.9,2.1h3.6l2.9-2.1L1377.4,729.5z"/>
	<path class="st6" d="M1331.4,716.5l-1.1-3.4l-2.9-2.1h-3.6l-2.9,2.1l-1.1,3.4l1.1,3.4l2.9,2.1h3.6l2.9-2.1L1331.4,716.5z"/>
	<path class="st6" d="M1174.4,702.5l-1.1-3.4l-2.9-2.1h-3.6l-2.9,2.1l-1.1,3.4l1.1,3.4l2.9,2.1h3.6l2.9-2.1L1174.4,702.5z"/>
	<path class="st6" d="M1241.4,689.5l-1.1-3.4l-2.9-2.1h-3.6l-2.9,2.1l-1.1,3.4l1.1,3.4l2.9,2.1h3.6l2.9-2.1L1241.4,689.5z"/>
	<path class="st6" d="M1250.4,676.5l-1.1-3.4l-2.9-2.1h-3.6l-2.9,2.1l-1.1,3.4l1.1,3.4l2.9,2.1h3.6l2.9-2.1L1250.4,676.5z"/>
	<path class="st6" d="M1250.4,662.5l-1.1-3.4l-2.9-2.1h-3.6l-2.9,2.1l-1.1,3.4l1.1,3.4l2.9,2.1h3.6l2.9-2.1L1250.4,662.5z"/>
	<path class="st6" d="M1305.4,649.5l-1.1-3.4l-2.9-2.1h-3.6l-2.9,2.1l-1.1,3.4l1.1,3.4l2.9,2.1h3.6l2.9-2.1L1305.4,649.5z"/>
	<path class="st6" d="M1184.4,635.5l-1.1-3.4l-2.9-2.1h-3.6l-2.9,2.1l-1.1,3.4l1.1,3.4l2.9,2.1h3.6l2.9-2.1L1184.4,635.5z"/>
	<path class="st6" d="M1089.4,622.5l-1.1-3.4l-2.9-2.1h-3.6l-2.9,2.1l-1.1,3.4l1.1,3.4l2.9,2.1h3.6l2.9-2.1L1089.4,622.5z"/>
	<path class="st6" d="M1276.4,609.5l-1.1-3.4l-2.9-2.1h-3.6l-2.9,2.1l-1.1,3.4l1.1,3.4l2.9,2.1h3.6l2.9-2.1L1276.4,609.5z"/>
	<path class="st6" d="M1090.4,595.5l-1.1-3.4l-2.9-2.1h-3.6l-2.9,2.1l-1.1,3.4l1.1,3.4l2.9,2.1h3.6l2.9-2.1L1090.4,595.5z"/>
</g>
<g>
	<path class="st5" d="M1235.4,689.5l8.8-13.4l0.3-13.4l54.6-13.4"/>
	<line class="st5" x1="1325.4" y1="716.3" x2="1168" y2="702.9"/>
	<path class="st5" d="M1139.5,783.3l187.4-13.4l16.1-13.4l-11.8-13.4l40.7-13.4"/>
</g>
<g>
	<line class="st8" x1="1142.5" y1="783.3" x2="1171.9" y2="783.3"/>
	<line class="st8" x1="1314.8" y1="769.9" x2="1428.5" y2="769.9"/>
	<line class="st8" x1="1286" y1="756.5" x2="1394" y2="756.5"/>
	<line class="st8" x1="1315.9" y1="743.1" x2="1434.3" y2="743.1"/>
	<line class="st8" x1="1357.5" y1="729.7" x2="1487.7" y2="729.7"/>
	<line class="st8" x1="1269.7" y1="716.3" x2="1362.3" y2="716.3"/>
	<line class="st8" x1="1167.5" y1="702.9" x2="1199.1" y2="702.9"/>
	<line class="st8" x1="1224.8" y1="689.5" x2="1284.2" y2="689.5"/>
	<line class="st8" x1="1236.3" y1="676.1" x2="1297.8" y2="676.1"/>
	<line class="st8" x1="1250.7" y1="662.7" x2="1314.5" y2="662.7"/>
	<line class="st8" x1="1306.3" y1="649.3" x2="1382.4" y2="649.3"/>
	<line class="st8" x1="1177.2" y1="635.9" x2="1208" y2="635.9"/>
	<line class="st8" x1="1088.9" y1="622.5" x2="1113.9" y2="622.5"/>
	<line class="st8" x1="1262.5" y1="609.1" x2="1325.7" y2="609.1"/>
	<line class="st8" x1="1064.9" y1="595.7" x2="1087.3" y2="595.7"/>
</g>
<g>
	<path class="st9" d="M1162.4,783.5l-1.1-3.4l-2.9-2.1h-3.6l-2.9,2.1l-1.1,3.4l1.1,3.4l2.9,2.1h3.6l2.9-2.1L1162.4,783.5z"/>
	<path class="st9" d="M1374.4,769.5l-1.1-3.4l-2.9-2.1h-3.6l-2.9,2.1l-1.1,3.4l1.1,3.4l2.9,2.1h3.6l2.9-2.1L1374.4,769.5z"/>
	<path class="st9" d="M1342.4,756.5l-1.1-3.4l-2.9-2.1h-3.6l-2.9,2.1l-1.1,3.4l1.1,3.4l2.9,2.1h3.6l2.9-2.1L1342.4,756.5z"/>
	<path class="st9" d="M1379.4,743.5l-1.1-3.4l-2.9-2.1h-3.6l-2.9,2.1l-1.1,3.4l1.1,3.4l2.9,2.1h3.6l2.9-2.1L1379.4,743.5z"/>
	<path class="st9" d="M1424.4,729.5l-1.1-3.4l-2.9-2.1h-3.6l-2.9,2.1l-1.1,3.4l1.1,3.4l2.9,2.1h3.6l2.9-2.1L1424.4,729.5z"/>
	<path class="st9" d="M1317.4,716.5l-1.1-3.4l-2.9-2.1h-3.6l-2.9,2.1l-1.1,3.4l1.1,3.4l2.9,2.1h3.6l2.9-2.1L1317.4,716.5z"/>
	<path class="st9" d="M1188.4,702.5l-1.1-3.4l-2.9-2.1h-3.6l-2.9,2.1l-1.1,3.4l1.1,3.4l2.9,2.1h3.6l2.9-2.1L1188.4,702.5z"/>
	<path class="st9" d="M1258.4,689.5l-1.1-3.4l-2.9-2.1h-3.6l-2.9,2.1l-1.1,3.4l1.1,3.4l2.9,2.1h3.6l2.9-2.1L1258.4,689.5z"/>
	<path class="st9" d="M1271.4,676.5l-1.1-3.4l-2.9-2.1h-3.6l-2.9,2.1l-1.1,3.4l1.1,3.4l2.9,2.1h3.6l2.9-2.1L1271.4,676.5z"/>
	<path class="st9" d="M1287.4,662.5l-1.1-3.4l-2.9-2.1h-3.6l-2.9,2.1l-1.1,3.4l1.1,3.4l2.9,2.1h3.6l2.9-2.1L1287.4,662.5z"/>
	<path class="st9" d="M1348.4,649.5l-1.1-3.4l-2.9-2.1h-3.6l-2.9,2.1l-1.1,3.4l1.1,3.4l2.9,2.1h3.6l2.9-2.1L1348.4,649.5z"/>
	<path class="st9" d="M1198.4,635.5l-1.1-3.4l-2.9-2.1h-3.6l-2.9,2.1l-1.1,3.4l1.1,3.4l2.9,2.1h3.6l2.9-2.1L1198.4,635.5z"/>
	<path class="st9" d="M1106.4,622.5l-1.1-3.4l-2.9-2.1h-3.6l-2.9,2.1l-1.1,3.4l1.1,3.4l2.9,2.1h3.6l2.9-2.1L1106.4,622.5z"/>
	<path class="st9" d="M1296.4,609.5l-1.1-3.4l-2.9-2.1h-3.6l-2.9,2.1l-1.1,3.4l1.1,3.4l2.9,2.1h3.6l2.9-2.1L1296.4,609.5z"/>
	<path class="st9" d="M1080.4,595.5l-1.1-3.4l-2.9-2.1h-3.6l-2.9,2.1l-1.1,3.4l1.1,3.4l2.9,2.1h3.6l2.9-2.1L1080.4,595.5z"/>
</g>
<g>
	<path class="st8" d="M1252.2,689.5l13.4-13.4l15.6-13.4l61.3-13.4"/>
	<line class="st8" x1="1311.9" y1="716.3" x2="1182.6" y2="702.9"/>
	<path class="st8" d="M1156.8,783.3l211.7-13.4l-31.7-13.4l36.8-13.4l45.5-13.4"/>
</g>
<g transform="translate(268.6667,823.3)">
	<text transform="matrix(1 0 0 1 -103.3193 -34.5)" class="st2 st3 st4">Rule@Repetition5+</text>
</g>
<g transform="translate(268.6667,809.9)">
	<text transform="matrix(1 0 0 1 -95.5713 -34.5)" class="st2 st3 st4">Rule@Repetition4</text>
</g>
<g transform="translate(268.6667,796.5)">
	<text transform="matrix(1 0 0 1 -95.5713 -34.5)" class="st2 st3 st4">Rule@Repetition3</text>
</g>
<g transform="translate(268.6667,783.1)">
	<text transform="matrix(1 0 0 1 -95.5713 -34.5)" class="st2 st3 st4">Rule@Repetition2</text>
</g>
<g transform="translate(268.6667,769.7)">
	<text transform="matrix(1 0 0 1 -95.5713 -34.5)" class="st2 st3 st4">Rule@Repetition1</text>
</g>
<g transform="translate(268.6667,756.3)">
	<text transform="matrix(1 0 0 1 -107.4404 -34.5)" class="st2 st3 st4">Rule@Previous Error</text>
</g>
<g transform="translate(268.6667,742.9)">
	<text transform="matrix(1 0 0 1 -125.8872 -34.5)" class="st2 st3 st4">Rule@No Previous Error</text>
</g>
<g transform="translate(268.6667,729.5)">
	<text transform="matrix(1 0 0 1 -142.6821 -34.5)" class="st2 st3 st4">Repetition4 - Repetition5+</text>
</g>
<g transform="translate(268.6667,716.1)">
	<text transform="matrix(1 0 0 1 -142.6821 -34.5)" class="st2 st3 st4">Repetition3 - Repetition5+</text>
</g>
<g transform="translate(268.6667,702.7)">
	<text transform="matrix(1 0 0 1 -142.6821 -34.5)" class="st2 st3 st4">Repetition2 - Repetition5+</text>
</g>
<g transform="translate(268.6667,689.3)">
	<text transform="matrix(1 0 0 1 -142.6821 -34.5)" class="st2 st3 st4">Repetition1 - Repetition5+</text>
</g>
<g transform="translate(268.6667,675.9)">
	<text transform="matrix(1 0 0 1 -99.7573 -34.5)" class="st2 st3 st4">Orientation - Color</text>
</g>
<g transform="translate(268.6667,662.5)">
	<text transform="matrix(1 0 0 1 -58.1831 -34.5)" class="st2 st3 st4">Left - Right</text>
</g>
<g transform="translate(268.6667,649.1)">
	<text transform="matrix(1 0 0 1 -177.1191 -34.5)" class="st2 st3 st4">Previous Error - No Previous Error</text>
</g>
<g transform="translate(268.6667,635.7)">
	<text transform="matrix(1 0 0 1 -134.0381 -34.5)" class="st2 st3 st4">Incongruent - Congruent</text>
</g>
<g transform="translate(268.6667,823.3)">
	<text transform="matrix(1 0 0 1 -103.3193 -293.5)" class="st2 st3 st4">Rule@Repetition5+</text>
</g>
<g transform="translate(268.6667,809.9)">
	<text transform="matrix(1 0 0 1 -95.5713 -293.5)" class="st2 st3 st4">Rule@Repetition4</text>
</g>
<g transform="translate(268.6667,796.5)">
	<text transform="matrix(1 0 0 1 -95.5713 -293.5)" class="st2 st3 st4">Rule@Repetition3</text>
</g>
<g transform="translate(268.6667,783.1)">
	<text transform="matrix(1 0 0 1 -95.5713 -293.5)" class="st2 st3 st4">Rule@Repetition2</text>
</g>
<g transform="translate(268.6667,769.7)">
	<text transform="matrix(1 0 0 1 -95.5713 -293.5)" class="st2 st3 st4">Rule@Repetition1</text>
</g>
<g transform="translate(268.6667,756.3)">
	<text transform="matrix(1 0 0 1 -107.4404 -293.5)" class="st2 st3 st4">Rule@Previous Error</text>
</g>
<g transform="translate(268.6667,742.9)">
	<text transform="matrix(1 0 0 1 -125.8872 -293.5)" class="st2 st3 st4">Rule@No Previous Error</text>
</g>
<g transform="translate(268.6667,729.5)">
	<text transform="matrix(1 0 0 1 -142.6821 -293.5)" class="st2 st3 st4">Repetition4 - Repetition5+</text>
</g>
<g transform="translate(268.6667,716.1)">
	<text transform="matrix(1 0 0 1 -142.6821 -293.5)" class="st2 st3 st4">Repetition3 - Repetition5+</text>
</g>
<g transform="translate(268.6667,702.7)">
	<text transform="matrix(1 0 0 1 -142.6821 -293.5)" class="st2 st3 st4">Repetition2 - Repetition5+</text>
</g>
<g transform="translate(268.6667,689.3)">
	<text transform="matrix(1 0 0 1 -142.6821 -293.5)" class="st2 st3 st4">Repetition1 - Repetition5+</text>
</g>
<g transform="translate(268.6667,675.9)">
	<text transform="matrix(1 0 0 1 -99.7573 -293.5)" class="st2 st3 st4">Orientation - Color</text>
</g>
<g transform="translate(268.6667,662.5)">
	<text transform="matrix(1 0 0 1 -58.1831 -293.5)" class="st2 st3 st4">Left - Right</text>
</g>
<g transform="translate(268.6667,649.1)">
	<text transform="matrix(1 0 0 1 -177.1191 -293.5)" class="st2 st3 st4">Previous Error - No Previous Error</text>
</g>
<g transform="translate(268.6667,635.7)">
	<text transform="matrix(1 0 0 1 -134.0381 -293.5)" class="st2 st3 st4">Incongruent - Congruent</text>
</g>
<g transform="translate(268.6667,823.3)">
	<text transform="matrix(1 0 0 1 634.7188 -553.5)" class="st2 st3 st4">Rule@Repetition5+</text>
</g>
<g transform="translate(268.6667,809.9)">
	<text transform="matrix(1 0 0 1 642.4668 -553.5)" class="st2 st3 st4">Rule@Repetition4</text>
</g>
<g transform="translate(268.6667,796.5)">
	<text transform="matrix(1 0 0 1 642.4668 -553.5)" class="st2 st3 st4">Rule@Repetition3</text>
</g>
<g transform="translate(268.6667,783.1)">
	<text transform="matrix(1 0 0 1 642.4668 -553.5)" class="st2 st3 st4">Rule@Repetition2</text>
</g>
<g transform="translate(268.6667,769.7)">
	<text transform="matrix(1 0 0 1 642.4668 -553.5)" class="st2 st3 st4">Rule@Repetition1</text>
</g>
<g transform="translate(268.6667,756.3)">
	<text transform="matrix(1 0 0 1 630.5977 -553.5)" class="st2 st3 st4">Rule@Previous Error</text>
</g>
<g transform="translate(268.6667,742.9)">
	<text transform="matrix(1 0 0 1 612.1509 -553.5)" class="st2 st3 st4">Rule@No Previous Error</text>
</g>
<g transform="translate(268.6667,729.5)">
	<text transform="matrix(1 0 0 1 595.356 -553.5)" class="st2 st3 st4">Repetition4 - Repetition5+</text>
</g>
<g transform="translate(268.6667,716.1)">
	<text transform="matrix(1 0 0 1 595.356 -553.5)" class="st2 st3 st4">Repetition3 - Repetition5+</text>
</g>
<g transform="translate(268.6667,702.7)">
	<text transform="matrix(1 0 0 1 595.356 -553.5)" class="st2 st3 st4">Repetition2 - Repetition5+</text>
</g>
<g transform="translate(268.6667,689.3)">
	<text transform="matrix(1 0 0 1 595.356 -553.5)" class="st2 st3 st4">Repetition1 - Repetition5+</text>
</g>
<g transform="translate(268.6667,675.9)">
	<text transform="matrix(1 0 0 1 638.2808 -553.5)" class="st2 st3 st4">Orientation - Color</text>
</g>
<g transform="translate(268.6667,662.5)">
	<text transform="matrix(1 0 0 1 679.855 -553.5)" class="st2 st3 st4">Left - Right</text>
</g>
<g transform="translate(268.6667,649.1)">
	<text transform="matrix(1 0 0 1 560.9189 -553.5)" class="st2 st3 st4">Previous Error - No Previous Error</text>
</g>
<g transform="translate(268.6667,635.7)">
	<text transform="matrix(1 0 0 1 604 -553.5)" class="st2 st3 st4">Incongruent - Congruent</text>
</g>
<g transform="translate(268.6667,823.3)">
	<text transform="matrix(1 0 0 1 634.7188 -34.5)" class="st2 st3 st4">Rule@Repetition5+</text>
</g>
<g transform="translate(268.6667,809.9)">
	<text transform="matrix(1 0 0 1 642.4668 -34.5)" class="st2 st3 st4">Rule@Repetition4</text>
</g>
<g transform="translate(268.6667,796.5)">
	<text transform="matrix(1 0 0 1 642.4668 -34.5)" class="st2 st3 st4">Rule@Repetition3</text>
</g>
<g transform="translate(268.6667,783.1)">
	<text transform="matrix(1 0 0 1 642.4668 -34.5)" class="st2 st3 st4">Rule@Repetition2</text>
</g>
<g transform="translate(268.6667,769.7)">
	<text transform="matrix(1 0 0 1 642.4668 -34.5)" class="st2 st3 st4">Rule@Repetition1</text>
</g>
<g transform="translate(268.6667,756.3)">
	<text transform="matrix(1 0 0 1 630.5977 -34.5)" class="st2 st3 st4">Rule@Previous Error</text>
</g>
<g transform="translate(268.6667,742.9)">
	<text transform="matrix(1 0 0 1 612.1509 -34.5)" class="st2 st3 st4">Rule@No Previous Error</text>
</g>
<g transform="translate(268.6667,729.5)">
	<text transform="matrix(1 0 0 1 595.356 -34.5)" class="st2 st3 st4">Repetition4 - Repetition5+</text>
</g>
<g transform="translate(268.6667,716.1)">
	<text transform="matrix(1 0 0 1 595.356 -34.5)" class="st2 st3 st4">Repetition3 - Repetition5+</text>
</g>
<g transform="translate(268.6667,702.7)">
	<text transform="matrix(1 0 0 1 595.356 -34.5)" class="st2 st3 st4">Repetition2 - Repetition5+</text>
</g>
<g transform="translate(268.6667,689.3)">
	<text transform="matrix(1 0 0 1 595.356 -34.5)" class="st2 st3 st4">Repetition1 - Repetition5+</text>
</g>
<g transform="translate(268.6667,675.9)">
	<text transform="matrix(1 0 0 1 638.2808 -34.5)" class="st2 st3 st4">Orientation - Color</text>
</g>
<g transform="translate(268.6667,662.5)">
	<text transform="matrix(1 0 0 1 679.855 -34.5)" class="st2 st3 st4">Left - Right</text>
</g>
<g transform="translate(268.6667,649.1)">
	<text transform="matrix(1 0 0 1 560.9189 -34.5)" class="st2 st3 st4">Previous Error - No Previous Error</text>
</g>
<g transform="translate(268.6667,635.7)">
	<text transform="matrix(1 0 0 1 604 -34.5)" class="st2 st3 st4">Incongruent - Congruent</text>
</g>
<g transform="translate(268.6667,823.3)">
	<text transform="matrix(1 0 0 1 -103.3196 -553.5)" class="st2 st3 st4">Rule@Repetition5+</text>
</g>
<g transform="translate(268.6667,809.9)">
	<text transform="matrix(1 0 0 1 -95.5715 -553.5)" class="st2 st3 st4">Rule@Repetition4</text>
</g>
<g transform="translate(268.6667,796.5)">
	<text transform="matrix(1 0 0 1 -95.5715 -553.5)" class="st2 st3 st4">Rule@Repetition3</text>
</g>
<g transform="translate(268.6667,783.1)">
	<text transform="matrix(1 0 0 1 -95.5715 -553.5)" class="st2 st3 st4">Rule@Repetition2</text>
</g>
<g transform="translate(268.6667,769.7)">
	<text transform="matrix(1 0 0 1 -95.5715 -553.5)" class="st2 st3 st4">Rule@Repetition1</text>
</g>
<g transform="translate(268.6667,756.3)">
	<text transform="matrix(1 0 0 1 -107.4407 -553.5)" class="st2 st3 st4">Rule@Previous Error</text>
</g>
<g transform="translate(268.6667,742.9)">
	<text transform="matrix(1 0 0 1 -125.8875 -553.5)" class="st2 st3 st4">Rule@No Previous Error</text>
</g>
<g transform="translate(268.6667,729.5)">
	<text transform="matrix(1 0 0 1 -142.6824 -553.5)" class="st2 st3 st4">Repetition4 - Repetition5+</text>
</g>
<g transform="translate(268.6667,716.1)">
	<text transform="matrix(1 0 0 1 -142.6824 -553.5)" class="st2 st3 st4">Repetition3 - Repetition5+</text>
</g>
<g transform="translate(268.6667,702.7)">
	<text transform="matrix(1 0 0 1 -142.6824 -553.5)" class="st2 st3 st4">Repetition2 - Repetition5+</text>
</g>
<g transform="translate(268.6667,689.3)">
	<text transform="matrix(1 0 0 1 -142.6824 -553.5)" class="st2 st3 st4">Repetition1 - Repetition5+</text>
</g>
<g transform="translate(268.6667,675.9)">
	<text transform="matrix(1 0 0 1 -99.7576 -553.5)" class="st2 st3 st4">Orientation - Color</text>
</g>
<g transform="translate(268.6667,662.5)">
	<text transform="matrix(1 0 0 1 -58.1833 -553.5)" class="st2 st3 st4">Left - Right</text>
</g>
<g transform="translate(268.6667,649.1)">
	<text transform="matrix(1 0 0 1 -177.1194 -553.5)" class="st2 st3 st4">Previous Error - No Previous Error</text>
</g>
<g transform="translate(268.6667,635.7)">
	<text transform="matrix(1 0 0 1 -134.0383 -553.5)" class="st2 st3 st4">Incongruent - Congruent</text>
</g>
<g transform="translate(268.6667,823.3)">
	<text transform="matrix(1 0 0 1 634.7185 -293.5)" class="st2 st3 st4">Rule@Repetition5+</text>
</g>
<g transform="translate(268.6667,809.9)">
	<text transform="matrix(1 0 0 1 642.4666 -293.5)" class="st2 st3 st4">Rule@Repetition4</text>
</g>
<g transform="translate(268.6667,796.5)">
	<text transform="matrix(1 0 0 1 642.4666 -293.5)" class="st2 st3 st4">Rule@Repetition3</text>
</g>
<g transform="translate(268.6667,783.1)">
	<text transform="matrix(1 0 0 1 642.4666 -293.5)" class="st2 st3 st4">Rule@Repetition2</text>
</g>
<g transform="translate(268.6667,769.7)">
	<text transform="matrix(1 0 0 1 642.4666 -293.5)" class="st2 st3 st4">Rule@Repetition1</text>
</g>
<g transform="translate(268.6667,756.3)">
	<text transform="matrix(1 0 0 1 630.5974 -293.5)" class="st2 st3 st4">Rule@Previous Error</text>
</g>
<g transform="translate(268.6667,742.9)">
	<text transform="matrix(1 0 0 1 612.1506 -293.5)" class="st2 st3 st4">Rule@No Previous Error</text>
</g>
<g transform="translate(268.6667,729.5)">
	<text transform="matrix(1 0 0 1 595.3557 -293.5)" class="st2 st3 st4">Repetition4 - Repetition5+</text>
</g>
<g transform="translate(268.6667,716.1)">
	<text transform="matrix(1 0 0 1 595.3557 -293.5)" class="st2 st3 st4">Repetition3 - Repetition5+</text>
</g>
<g transform="translate(268.6667,702.7)">
	<text transform="matrix(1 0 0 1 595.3557 -293.5)" class="st2 st3 st4">Repetition2 - Repetition5+</text>
</g>
<g transform="translate(268.6667,689.3)">
	<text transform="matrix(1 0 0 1 595.3557 -293.5)" class="st2 st3 st4">Repetition1 - Repetition5+</text>
</g>
<g transform="translate(268.6667,675.9)">
	<text transform="matrix(1 0 0 1 638.2805 -293.5)" class="st2 st3 st4">Orientation - Color</text>
</g>
<g transform="translate(268.6667,662.5)">
	<text transform="matrix(1 0 0 1 679.8547 -293.5)" class="st2 st3 st4">Left - Right</text>
</g>
<g transform="translate(268.6667,649.1)">
	<text transform="matrix(1 0 0 1 560.9187 -293.5)" class="st2 st3 st4">Previous Error - No Previous Error</text>
</g>
<g transform="translate(268.6667,635.7)">
	<text transform="matrix(1 0 0 1 603.9998 -293.5)" class="st2 st3 st4">Incongruent - Congruent</text>
</g>
<g transform="translate(500.5005,67.25)">
	<text transform="matrix(1 0 0 1 -74.1735 -5.7217)" class="st3 st10">Change in Firing Rate (Spikes / s)</text>
</g>
<g transform="translate(500.5005,347.25)">
	<text transform="matrix(1 0 0 1 -134.3607 -32.4517)" class="st3 st10">Normalized Change in Firing Rate (Difference Index)</text>
</g>
<g transform="translate(500.5005,626.25)">
	<text transform="matrix(1 0 0 1 -143.6605 -52.4517)" class="st3 st10">Normalized Change in Firing Rate (Average Firing Rate)</text>
</g>
<g transform="translate(500.5005,626.25)">
	<text transform="matrix(1 0 0 1 566.2299 -45.7017)" class="st3 st10">Absolute Normalized Change in Firing Rate (Average Firing Rate)</text>
</g>
<g transform="translate(500.5005,347.25)">
	<text transform="matrix(1 0 0 1 575.5302 -32.4517)" class="st3 st10">Absolute Normalized Change in Firing Rate (Difference Index)</text>
</g>
<g transform="translate(500.5005,67.25)">
	<text transform="matrix(1 0 0 1 635.7166 -5.7217)" class="st3 st10">Absolute Change in Firing Rate (Spikes / s)</text>
</g>
<text transform="matrix(1 0 0 1 81.6333 31.2466)" class="st3 st11">a</text>
<text transform="matrix(1 0 0 1 791.6333 31.2466)" class="st3 st11">b</text>
</svg>
