<?xml version="1.0" encoding="utf-8"?>
<!-- Generator: Adobe Illustrator 19.2.1, SVG Export Plug-In . SVG Version: 6.00 Build 0)  -->
<svg version="1.1" id="Layer_1" xmlns="http://www.w3.org/2000/svg" xmlns:xlink="http://www.w3.org/1999/xlink" x="0px" y="0px"
	 viewBox="0 0 1600 888" style="enable-background:new 0 0 1600 888;" xml:space="preserve">
<style type="text/css">
	.st0{fill:none;stroke:#262626;stroke-linecap:square;stroke-miterlimit:10;stroke-opacity:0.149;}
	.st1{fill:#262626;}
	.st2{font-family:'ArialMT';}
	.st3{font-size:15px;}
	.st4{fill:none;stroke:#262626;stroke-linecap:square;stroke-miterlimit:10;}
	.st5{font-size:13px;}
	.st6{fill:#66C2A5;}
	.st7{fill:none;stroke:#66C2A5;stroke-linecap:square;stroke-miterlimit:10;}
	.st8{fill:none;stroke:#66C2A5;stroke-linejoin:bevel;stroke-miterlimit:1;}
	.st9{fill:#7570B3;}
	.st10{fill:none;stroke:#7570B3;stroke-linecap:square;stroke-miterlimit:10;}
	.st11{fill:none;stroke:#7570B3;stroke-linejoin:bevel;stroke-miterlimit:1;}
	.st12{font-size:36px;}
</style>
<g>
	<line class="st0" x1="1520" y1="811.9" x2="218" y2="811.9"/>
	<line class="st0" x1="1520" y1="631" x2="218" y2="631"/>
	<line class="st0" x1="1520" y1="450" x2="218" y2="450"/>
	<line class="st0" x1="1520" y1="269" x2="218" y2="269"/>
	<line class="st0" x1="1520" y1="88.1" x2="218" y2="88.1"/>
</g>
<g transform="translate(869.0007,853.6667)">
	<text transform="matrix(1 0 0 1 -113.5 26)" class="st1 st2 st3">Percentage Change in Firing Rate</text>
</g>
<line class="st4" x1="218" y1="840" x2="1520" y2="840"/>
<line class="st4" x1="218" y1="840" x2="218" y2="827"/>
<line class="st4" x1="687.8" y1="840" x2="687.8" y2="827"/>
<line class="st4" x1="1119.9" y1="840" x2="1119.9" y2="827"/>
<line class="st4" x1="1520" y1="840" x2="1520" y2="827"/>
<g transform="translate(218,835.3333)">
	<text transform="matrix(1 0 0 1 -7.5 24)" class="st1 st2 st5">10</text>
</g>
<g transform="translate(687.7622,835.3333)">
	<text transform="matrix(1 0 0 1 -7.5 24)" class="st1 st2 st5">20</text>
</g>
<g transform="translate(1119.9015,835.3333)">
	<text transform="matrix(1 0 0 1 -7.5 24)" class="st1 st2 st5">30</text>
</g>
<g transform="translate(1520,835.3333)">
	<text transform="matrix(1 0 0 1 -7.5 24)" class="st1 st2 st5">40</text>
</g>
<g transform="translate(212.6667,811.9048)">
	<text transform="matrix(1 0 0 1 -114.8692 5.5)" class="st1 st2 st5">Rule@Previous Error</text>
</g>
<g transform="translate(212.6667,630.9524)">
	<text transform="matrix(1 0 0 1 -103 5.5)" class="st1 st2 st5">Rule@Repetition1</text>
</g>
<g transform="translate(212.6667,450)">
	<text transform="matrix(1 0 0 1 -103 5.5)" class="st1 st2 st5">Rule@Repetition2</text>
</g>
<g transform="translate(212.6667,269.0476)">
	<text transform="matrix(1 0 0 1 -103 5.5)" class="st1 st2 st5">Rule@Repetition3</text>
</g>
<g transform="translate(212.6667,88.0952)">
	<text transform="matrix(1 0 0 1 -103 5.5)" class="st1 st2 st5">Rule@Repetition4</text>
</g>
<g>
	<path class="st6" d="M573.4,811.5l-1.1-3.4l-2.9-2.1h-3.6l-2.9,2.1l-1.1,3.4l1.1,3.4l2.9,2.1h3.6l2.9-2.1L573.4,811.5z"/>
</g>
<g>
	<line class="st7" x1="443.1" y1="811.9" x2="694.6" y2="811.9"/>
</g>
<g>
	<path class="st8" d="M1053.2,631L845,450l-58.5-181l56.1-181"/>
</g>
<g>
	<path class="st6" d="M1059.4,630.5l-1.1-3.4l-2.9-2.1h-3.6l-2.9,2.1l-1.1,3.4l1.1,3.4l2.9,2.1h3.6l2.9-2.1L1059.4,630.5z"/>
	<path class="st6" d="M851.4,449.5l-1.1-3.4l-2.9-2.1h-3.6l-2.9,2.1l-1.1,3.4l1.1,3.4l2.9,2.1h3.6l2.9-2.1L851.4,449.5z"/>
	<path class="st6" d="M792.4,269.5l-1.1-3.4l-2.9-2.1h-3.6l-2.9,2.1l-1.1,3.4l1.1,3.4l2.9,2.1h3.6l2.9-2.1L792.4,269.5z"/>
	<path class="st6" d="M848.4,88.5l-1.1-3.4l-2.9-2.1h-3.6l-2.9,2.1l-1.1,3.4l1.1,3.4l2.9,2.1h3.6l2.9-2.1L848.4,88.5z"/>
</g>
<g>
	<line class="st7" x1="889.6" y1="631" x2="1224" y2="631"/>
	<line class="st7" x1="682.6" y1="450" x2="1017.9" y2="450"/>
	<line class="st7" x1="638.7" y1="269" x2="949.9" y2="269"/>
	<line class="st7" x1="690.6" y1="88.1" x2="1009.6" y2="88.1"/>
</g>
<g>
	<path class="st9" d="M464.4,811.5l-1.1-3.4l-2.9-2.1h-3.6l-2.9,2.1l-1.1,3.4l1.1,3.4l2.9,2.1h3.6l2.9-2.1L464.4,811.5z"/>
</g>
<g>
	<line class="st10" x1="353.3" y1="811.9" x2="573" y2="811.9"/>
</g>
<path class="st11" d="M1048,631L767.5,450l-48.7-181L821.1,88"/>
<g>
	<path class="st9" d="M1053.4,630.5l-1.1-3.4l-2.9-2.1h-3.6l-2.9,2.1l-1.1,3.4l1.1,3.4l2.9,2.1h3.6l2.9-2.1L1053.4,630.5z"/>
	<path class="st9" d="M773.4,449.5l-1.1-3.4l-2.9-2.1h-3.6l-2.9,2.1l-1.1,3.4l1.1,3.4l2.9,2.1h3.6l2.9-2.1L773.4,449.5z"/>
	<path class="st9" d="M724.4,269.5l-1.1-3.4l-2.9-2.1h-3.6l-2.9,2.1l-1.1,3.4l1.1,3.4l2.9,2.1h3.6l2.9-2.1L724.4,269.5z"/>
	<path class="st9" d="M827.4,88.5l-1.1-3.4l-2.9-2.1h-3.6l-2.9,2.1l-1.1,3.4l1.1,3.4l2.9,2.1h3.6l2.9-2.1L827.4,88.5z"/>
</g>
<g>
	<line class="st10" x1="873.8" y1="631" x2="1226.1" y2="631"/>
	<line class="st10" x1="614.2" y1="450" x2="932.3" y2="450"/>
	<line class="st10" x1="579.7" y1="269" x2="871.9" y2="269"/>
	<line class="st10" x1="665.9" y1="88.1" x2="985.3" y2="88.1"/>
</g>
<text transform="matrix(1 0 0 1 755.5007 51.519)" class="st2 st12">dLPFC</text>
</svg>
