<?xml version="1.0" encoding="utf-8"?>
<!-- Generator: Adobe Illustrator 19.2.1, SVG Export Plug-In . SVG Version: 6.00 Build 0)  -->
<svg version="1.1" id="Layer_1" xmlns="http://www.w3.org/2000/svg" xmlns:xlink="http://www.w3.org/1999/xlink" x="0px" y="0px"
	 viewBox="0 0 1600 888" style="enable-background:new 0 0 1600 888;" xml:space="preserve">
<style type="text/css">
	.st0{fill:none;stroke:#262626;stroke-linecap:square;stroke-miterlimit:10;stroke-opacity:0.149;}
	.st1{fill:none;stroke:#000000;stroke-linecap:square;stroke-miterlimit:10;}
	.st2{fill:#262626;}
	.st3{font-family:'MyriadPro-Regular';}
	.st4{font-size:13px;}
	.st5{fill:none;stroke:#66C2A5;stroke-linecap:square;stroke-miterlimit:10;}
	.st6{fill:#66C2A5;}
	.st7{fill:none;stroke:#000000;stroke-width:1.3333;stroke-linejoin:bevel;stroke-miterlimit:1;stroke-dasharray:1,3;}
	.st8{fill:none;stroke:#7570B3;stroke-linecap:square;stroke-miterlimit:10;}
	.st9{fill:#7570B3;}
	.st10{font-family:'ArialMT';}
	.st11{fill:none;}
	.st12{fill:none;stroke:#000000;stroke-width:2;stroke-miterlimit:10;}
	.st13{font-size:15px;}
</style>
<g>
</g>
<line class="st0" x1="781" y1="804.7" x2="274" y2="804.7"/>
<line class="st0" x1="781" y1="754" x2="274" y2="754"/>
<line class="st0" x1="781" y1="703.3" x2="274" y2="703.3"/>
<line class="st0" x1="781" y1="652.7" x2="274" y2="652.7"/>
<line class="st0" x1="781" y1="602" x2="274" y2="602"/>
<line class="st0" x1="781" y1="551.3" x2="274" y2="551.3"/>
<line class="st0" x1="781" y1="500.7" x2="274" y2="500.7"/>
<line class="st0" x1="781" y1="450" x2="274" y2="450"/>
<line class="st0" x1="781" y1="399.3" x2="274" y2="399.3"/>
<line class="st0" x1="781" y1="348.7" x2="274" y2="348.7"/>
<line class="st0" x1="781" y1="298" x2="274" y2="298"/>
<line class="st0" x1="781" y1="247.3" x2="274" y2="247.3"/>
<line class="st0" x1="781" y1="196.7" x2="274" y2="196.7"/>
<line class="st0" x1="781" y1="146" x2="274" y2="146"/>
<line class="st0" x1="781" y1="95.3" x2="274" y2="95.3"/>
<line class="st1" x1="274" y1="830" x2="781" y2="830"/>
<g transform="translate(274,835.3333)">
	<text transform="matrix(1 0 0 1 -15 14)" class="st2 st3 st4">-0.04</text>
</g>
<g transform="translate(324.7,835.3333)">
	<text transform="matrix(1 0 0 1 -15 14)" class="st2 st3 st4">-0.03</text>
</g>
<g transform="translate(375.4,835.3333)">
	<text transform="matrix(1 0 0 1 -15 14)" class="st2 st3 st4">-0.02</text>
</g>
<g transform="translate(426.1,835.3333)">
	<text transform="matrix(1 0 0 1 -15 14)" class="st2 st3 st4">-0.01</text>
</g>
<g transform="translate(476.8,835.3333)">
	<text transform="matrix(1 0 0 1 -4 14)" class="st2 st3 st4">0</text>
</g>
<g transform="translate(527.5,835.3333)">
	<text transform="matrix(1 0 0 1 -13 14)" class="st2 st3 st4">0.01</text>
</g>
<g transform="translate(578.2,835.3333)">
	<text transform="matrix(1 0 0 1 -13 14)" class="st2 st3 st4">0.02</text>
</g>
<g transform="translate(628.9,835.3333)">
	<text transform="matrix(1 0 0 1 -13 14)" class="st2 st3 st4">0.03</text>
</g>
<g transform="translate(679.6,835.3333)">
	<text transform="matrix(1 0 0 1 -13 14)" class="st2 st3 st4">0.04</text>
</g>
<g transform="translate(730.3,835.3333)">
	<text transform="matrix(1 0 0 1 -13 14)" class="st2 st3 st4">0.05</text>
</g>
<g transform="translate(781,835.3333)">
	<text transform="matrix(1 0 0 1 -13 14)" class="st2 st3 st4">0.06</text>
</g>
<g>
	<line class="st5" x1="488.7" y1="804.7" x2="535.2" y2="804.7"/>
	<line class="st5" x1="429.2" y1="754" x2="634.9" y2="754"/>
	<line class="st5" x1="339.5" y1="703.3" x2="547.4" y2="703.3"/>
	<line class="st5" x1="373.1" y1="652.7" x2="607.5" y2="652.7"/>
	<line class="st5" x1="285.3" y1="602" x2="532.6" y2="602"/>
	<line class="st5" x1="367.3" y1="551.3" x2="582.8" y2="551.3"/>
	<line class="st5" x1="480.9" y1="500.7" x2="533.6" y2="500.7"/>
	<line class="st5" x1="351.4" y1="450" x2="497.8" y2="450"/>
	<line class="st5" x1="392.7" y1="399.3" x2="537.9" y2="399.3"/>
	<line class="st5" x1="415.3" y1="348.7" x2="563.7" y2="348.7"/>
	<line class="st5" x1="400.9" y1="298" x2="534.9" y2="298"/>
	<line class="st5" x1="479.9" y1="247.3" x2="527.7" y2="247.3"/>
	<line class="st5" x1="431.4" y1="196.7" x2="471.5" y2="196.7"/>
	<line class="st5" x1="558.6" y1="146" x2="759.2" y2="146"/>
	<line class="st5" x1="459.5" y1="95.3" x2="498.8" y2="95.3"/>
</g>
<g>
	<path class="st6" d="M519.4,804.5l-1.1-3.4l-2.9-2.1h-3.6l-2.9,2.1l-1.1,3.4l1.1,3.4l2.9,2.1h3.6l2.9-2.1L519.4,804.5z"/>
	<path class="st6" d="M534.4,754.5l-1.1-3.4l-2.9-2.1h-3.6l-2.9,2.1l-1.1,3.4l1.1,3.4l2.9,2.1h3.6l2.9-2.1L534.4,754.5z"/>
	<path class="st6" d="M448.4,703.5l-1.1-3.4l-2.9-2.1h-3.6l-2.9,2.1l-1.1,3.4l1.1,3.4l2.9,2.1h3.6l2.9-2.1L448.4,703.5z"/>
	<path class="st6" d="M488.4,652.5l-1.1-3.4l-2.9-2.1h-3.6l-2.9,2.1l-1.1,3.4l1.1,3.4l2.9,2.1h3.6l2.9-2.1L488.4,652.5z"/>
	<path class="st6" d="M417.4,602.5l-1.1-3.4l-2.9-2.1h-3.6l-2.9,2.1l-1.1,3.4l1.1,3.4l2.9,2.1h3.6l2.9-2.1L417.4,602.5z"/>
	<path class="st6" d="M480.4,551.5l-1.1-3.4l-2.9-2.1h-3.6l-2.9,2.1l-1.1,3.4l1.1,3.4l2.9,2.1h3.6l2.9-2.1L480.4,551.5z"/>
	<path class="st6" d="M513.4,500.5l-1.1-3.4l-2.9-2.1h-3.6l-2.9,2.1l-1.1,3.4l1.1,3.4l2.9,2.1h3.6l2.9-2.1L513.4,500.5z"/>
	<path class="st6" d="M429.4,449.5l-1.1-3.4l-2.9-2.1h-3.6l-2.9,2.1l-1.1,3.4l1.1,3.4l2.9,2.1h3.6l2.9-2.1L429.4,449.5z"/>
	<path class="st6" d="M471.4,399.5l-1.1-3.4l-2.9-2.1h-3.6l-2.9,2.1l-1.1,3.4l1.1,3.4l2.9,2.1h3.6l2.9-2.1L471.4,399.5z"/>
	<path class="st6" d="M496.4,348.5l-1.1-3.4l-2.9-2.1h-3.6l-2.9,2.1l-1.1,3.4l1.1,3.4l2.9,2.1h3.6l2.9-2.1L496.4,348.5z"/>
	<path class="st6" d="M475.4,297.5l-1.1-3.4l-2.9-2.1h-3.6l-2.9,2.1l-1.1,3.4l1.1,3.4l2.9,2.1h3.6l2.9-2.1L475.4,297.5z"/>
	<path class="st6" d="M509.4,247.5l-1.1-3.4l-2.9-2.1h-3.6l-2.9,2.1l-1.1,3.4l1.1,3.4l2.9,2.1h3.6l2.9-2.1L509.4,247.5z"/>
	<path class="st6" d="M458.4,196.5l-1.1-3.4l-2.9-2.1h-3.6l-2.9,2.1l-1.1,3.4l1.1,3.4l2.9,2.1h3.6l2.9-2.1L458.4,196.5z"/>
	<path class="st6" d="M669.4,145.5l-1.1-3.4l-2.9-2.1h-3.6l-2.9,2.1l-1.1,3.4l1.1,3.4l2.9,2.1h3.6l2.9-2.1L669.4,145.5z"/>
	<path class="st6" d="M485.4,95.5l-1.1-3.4l-2.9-2.1h-3.6l-2.9,2.1l-1.1,3.4l1.1,3.4l2.9,2.1h3.6l2.9-2.1L485.4,95.5z"/>
</g>
<g>
	<path class="st5" d="M423.3,450l42.2-50.7l24.7-50.7L470,298"/>
	<line class="st5" x1="474.7" y1="551.3" x2="507" y2="500.7"/>
	<path class="st5" d="M513.5,804.7l14.6-50.7l-85.4-50.7l40-50.7L411.6,602"/>
</g>
<g>
	<line class="st7" x1="476.8" y1="830.1" x2="476.8" y2="95.3"/>
</g>
<g>
	<line class="st8" x1="497.4" y1="804.7" x2="552.2" y2="804.7"/>
	<line class="st8" x1="426" y1="754" x2="657" y2="754"/>
	<line class="st8" x1="408.1" y1="703.3" x2="632" y2="703.3"/>
	<line class="st8" x1="418.5" y1="652.7" x2="652.1" y2="652.7"/>
	<line class="st8" x1="413.9" y1="602" x2="674" y2="602"/>
	<line class="st8" x1="374.7" y1="551.3" x2="578" y2="551.3"/>
	<line class="st8" x1="503.8" y1="500.7" x2="564.8" y2="500.7"/>
	<line class="st8" x1="368.6" y1="450" x2="526.1" y2="450"/>
	<line class="st8" x1="398.4" y1="399.3" x2="556.2" y2="399.3"/>
	<line class="st8" x1="440.6" y1="348.7" x2="603.7" y2="348.7"/>
	<line class="st8" x1="484.6" y1="298" x2="650.6" y2="298"/>
	<line class="st8" x1="504.8" y1="247.3" x2="561.6" y2="247.3"/>
	<line class="st8" x1="448.5" y1="196.7" x2="485" y2="196.7"/>
	<line class="st8" x1="491.4" y1="146" x2="656.7" y2="146"/>
	<line class="st8" x1="463.6" y1="95.3" x2="506.6" y2="95.3"/>
</g>
<g>
	<path class="st9" d="M533.4,804.5l-1.1-3.4l-2.9-2.1h-3.6l-2.9,2.1l-1.1,3.4l1.1,3.4l2.9,2.1h3.6l2.9-2.1L533.4,804.5z"/>
	<path class="st9" d="M546.4,754.5l-1.1-3.4l-2.9-2.1h-3.6l-2.9,2.1l-1.1,3.4l1.1,3.4l2.9,2.1h3.6l2.9-2.1L546.4,754.5z"/>
	<path class="st9" d="M529.4,703.5l-1.1-3.4l-2.9-2.1h-3.6l-2.9,2.1l-1.1,3.4l1.1,3.4l2.9,2.1h3.6l2.9-2.1L529.4,703.5z"/>
	<path class="st9" d="M544.4,652.5l-1.1-3.4l-2.9-2.1h-3.6l-2.9,2.1l-1.1,3.4l1.1,3.4l2.9,2.1h3.6l2.9-2.1L544.4,652.5z"/>
	<path class="st9" d="M552.4,602.5l-1.1-3.4l-2.9-2.1h-3.6l-2.9,2.1l-1.1,3.4l1.1,3.4l2.9,2.1h3.6l2.9-2.1L552.4,602.5z"/>
	<path class="st9" d="M485.4,551.5l-1.1-3.4l-2.9-2.1h-3.6l-2.9,2.1l-1.1,3.4l1.1,3.4l2.9,2.1h3.6l2.9-2.1L485.4,551.5z"/>
	<path class="st9" d="M541.4,500.5l-1.1-3.4l-2.9-2.1h-3.6l-2.9,2.1l-1.1,3.4l1.1,3.4l2.9,2.1h3.6l2.9-2.1L541.4,500.5z"/>
	<path class="st9" d="M450.4,449.5l-1.1-3.4l-2.9-2.1h-3.6l-2.9,2.1l-1.1,3.4l1.1,3.4l2.9,2.1h3.6l2.9-2.1L450.4,449.5z"/>
	<path class="st9" d="M479.4,399.5l-1.1-3.4l-2.9-2.1h-3.6l-2.9,2.1l-1.1,3.4l1.1,3.4l2.9,2.1h3.6l2.9-2.1L479.4,399.5z"/>
	<path class="st9" d="M527.4,348.5l-1.1-3.4l-2.9-2.1h-3.6l-2.9,2.1l-1.1,3.4l1.1,3.4l2.9,2.1h3.6l2.9-2.1L527.4,348.5z"/>
	<path class="st9" d="M572.4,297.5l-1.1-3.4l-2.9-2.1h-3.6l-2.9,2.1l-1.1,3.4l1.1,3.4l2.9,2.1h3.6l2.9-2.1L572.4,297.5z"/>
	<path class="st9" d="M540.4,247.5l-1.1-3.4l-2.9-2.1h-3.6l-2.9,2.1l-1.1,3.4l1.1,3.4l2.9,2.1h3.6l2.9-2.1L540.4,247.5z"/>
	<path class="st9" d="M472.4,196.5l-1.1-3.4l-2.9-2.1h-3.6l-2.9,2.1l-1.1,3.4l1.1,3.4l2.9,2.1h3.6l2.9-2.1L472.4,196.5z"/>
	<path class="st9" d="M576.4,145.5l-1.1-3.4l-2.9-2.1h-3.6l-2.9,2.1l-1.1,3.4l1.1,3.4l2.9,2.1h3.6l2.9-2.1L576.4,145.5z"/>
	<path class="st9" d="M490.4,95.5l-1.1-3.4l-2.9-2.1h-3.6l-2.9,2.1l-1.1,3.4l1.1,3.4l2.9,2.1h3.6l2.9-2.1L490.4,95.5z"/>
</g>
<g>
	<path class="st8" d="M444.8,450l28.4-50.7l48.8-50.7l44.8-50.7"/>
	<line class="st8" x1="479.2" y1="551.3" x2="535.2" y2="500.7"/>
	<path class="st8" d="M527.3,804.7l13.6-50.7l-17.5-50.7l15.4-50.7l7.6-50.7"/>
</g>
<line class="st0" x1="1330" y1="804.7" x2="824" y2="804.7"/>
<line class="st0" x1="1330" y1="754" x2="824" y2="754"/>
<line class="st0" x1="1330" y1="703.3" x2="824" y2="703.3"/>
<line class="st0" x1="1330" y1="652.7" x2="824" y2="652.7"/>
<line class="st0" x1="1330" y1="602" x2="824" y2="602"/>
<line class="st0" x1="1330" y1="551.3" x2="824" y2="551.3"/>
<line class="st0" x1="1330" y1="500.7" x2="824" y2="500.7"/>
<line class="st0" x1="1330" y1="450" x2="824" y2="450"/>
<line class="st0" x1="1330" y1="399.3" x2="824" y2="399.3"/>
<line class="st0" x1="1330" y1="348.7" x2="824" y2="348.7"/>
<line class="st0" x1="1330" y1="298" x2="824" y2="298"/>
<line class="st0" x1="1330" y1="247.3" x2="824" y2="247.3"/>
<line class="st0" x1="1330" y1="196.7" x2="824" y2="196.7"/>
<line class="st0" x1="1330" y1="146" x2="824" y2="146"/>
<line class="st0" x1="1330" y1="95.3" x2="824" y2="95.3"/>
<line class="st1" x1="824" y1="830" x2="1330" y2="830"/>
<g transform="translate(1014,835.3333)">
	<text transform="matrix(1 0 0 1 -194 14)" class="st2 st3 st4">0</text>
</g>
<g transform="translate(1086.2858,835.3333)">
	<text transform="matrix(1 0 0 1 -203 14)" class="st2 st3 st4">0.02</text>
</g>
<g transform="translate(1158.5714,835.3333)">
	<text transform="matrix(1 0 0 1 -203 14)" class="st2 st3 st4">0.04</text>
</g>
<g transform="translate(1230.8572,835.3333)">
	<text transform="matrix(1 0 0 1 -203 14)" class="st2 st3 st4">0.06</text>
</g>
<g transform="translate(1303.1428,835.3333)">
	<text transform="matrix(1 0 0 1 -203 14)" class="st2 st3 st4">0.08</text>
</g>
<g transform="translate(1375.4286,835.3333)">
	<text transform="matrix(1 0 0 1 -199.5 14)" class="st2 st3 st4">0.1</text>
</g>
<g transform="translate(1447.7142,835.3333)">
	<text transform="matrix(1 0 0 1 -203 14)" class="st2 st3 st4">0.12</text>
</g>
<g transform="translate(1520,835.3333)">
	<text transform="matrix(1 0 0 1 -203 14)" class="st2 st3 st4">0.14</text>
</g>
<g>
	<line class="st5" x1="893.9" y1="804.7" x2="921.9" y2="804.7"/>
	<line class="st5" x1="1079.5" y1="754" x2="1216.4" y2="754"/>
	<line class="st5" x1="1043.8" y1="703.3" x2="1181.9" y2="703.3"/>
	<line class="st5" x1="1116.6" y1="652.7" x2="1251.6" y2="652.7"/>
	<line class="st5" x1="1077.8" y1="602" x2="1211.7" y2="602"/>
	<line class="st5" x1="1041.1" y1="551.3" x2="1141.8" y2="551.3"/>
	<line class="st5" x1="891.5" y1="500.7" x2="921.7" y2="500.7"/>
	<line class="st5" x1="955.2" y1="450" x2="1029.4" y2="450"/>
	<line class="st5" x1="954.4" y1="399.3" x2="1022.2" y2="399.3"/>
	<line class="st5" x1="960" y1="348.7" x2="1028.5" y2="348.7"/>
	<line class="st5" x1="966.9" y1="298" x2="1046.5" y2="298"/>
	<line class="st5" x1="890.2" y1="247.3" x2="920.2" y2="247.3"/>
	<line class="st5" x1="871.1" y1="196.7" x2="899.3" y2="196.7"/>
	<line class="st5" x1="1057.4" y1="146" x2="1150.2" y2="146"/>
	<line class="st5" x1="872.7" y1="95.3" x2="899.9" y2="95.3"/>
</g>
<g>
	<path class="st6" d="M912.4,804.5l-1.1-3.4l-2.9-2.1h-3.6l-2.9,2.1l-1.1,3.4l1.1,3.4l2.9,2.1h3.6l2.9-2.1L912.4,804.5z"/>
	<path class="st6" d="M1145.4,754.5l-1.1-3.4l-2.9-2.1h-3.6l-2.9,2.1l-1.1,3.4l1.1,3.4l2.9,2.1h3.6l2.9-2.1L1145.4,754.5z"/>
	<path class="st6" d="M1114.4,703.5l-1.1-3.4l-2.9-2.1h-3.6l-2.9,2.1l-1.1,3.4l1.1,3.4l2.9,2.1h3.6l2.9-2.1L1114.4,703.5z"/>
	<path class="st6" d="M1186.4,652.5l-1.1-3.4l-2.9-2.1h-3.6l-2.9,2.1l-1.1,3.4l1.1,3.4l2.9,2.1h3.6l2.9-2.1L1186.4,652.5z"/>
	<path class="st6" d="M1145.4,602.5l-1.1-3.4l-2.9-2.1h-3.6l-2.9,2.1l-1.1,3.4l1.1,3.4l2.9,2.1h3.6l2.9-2.1L1145.4,602.5z"/>
	<path class="st6" d="M1093.4,551.5l-1.1-3.4l-2.9-2.1h-3.6l-2.9,2.1l-1.1,3.4l1.1,3.4l2.9,2.1h3.6l2.9-2.1L1093.4,551.5z"/>
	<path class="st6" d="M911.4,500.5l-1.1-3.4l-2.9-2.1h-3.6l-2.9,2.1l-1.1,3.4l1.1,3.4l2.9,2.1h3.6l2.9-2.1L911.4,500.5z"/>
	<path class="st6" d="M996.4,449.5l-1.1-3.4l-2.9-2.1h-3.6l-2.9,2.1l-1.1,3.4l1.1,3.4l2.9,2.1h3.6l2.9-2.1L996.4,449.5z"/>
	<path class="st6" d="M992.4,399.5l-1.1-3.4l-2.9-2.1h-3.6l-2.9,2.1l-1.1,3.4l1.1,3.4l2.9,2.1h3.6l2.9-2.1L992.4,399.5z"/>
	<path class="st6" d="M999.4,348.5l-1.1-3.4l-2.9-2.1h-3.6l-2.9,2.1l-1.1,3.4l1.1,3.4l2.9,2.1h3.6l2.9-2.1L999.4,348.5z"/>
	<path class="st6" d="M1010.4,297.5l-1.1-3.4l-2.9-2.1h-3.6l-2.9,2.1l-1.1,3.4l1.1,3.4l2.9,2.1h3.6l2.9-2.1L1010.4,297.5z"/>
	<path class="st6" d="M909.4,247.5l-1.1-3.4l-2.9-2.1h-3.6l-2.9,2.1l-1.1,3.4l1.1,3.4l2.9,2.1h3.6l2.9-2.1L909.4,247.5z"/>
	<path class="st6" d="M889.4,196.5l-1.1-3.4l-2.9-2.1h-3.6l-2.9,2.1l-1.1,3.4l1.1,3.4l2.9,2.1h3.6l2.9-2.1L889.4,196.5z"/>
	<path class="st6" d="M1107.4,145.5l-1.1-3.4l-2.9-2.1h-3.6l-2.9,2.1l-1.1,3.4l1.1,3.4l2.9,2.1h3.6l2.9-2.1L1107.4,145.5z"/>
	<path class="st6" d="M890.4,95.5l-1.1-3.4l-2.9-2.1h-3.6l-2.9,2.1l-1.1,3.4l1.1,3.4l2.9,2.1h3.6l2.9-2.1L890.4,95.5z"/>
</g>
<g>
	<path class="st5" d="M990.7,450l-4.3-50.7l7.1-50.7l11.1-50.7"/>
	<line class="st5" x1="1087.7" y1="551.3" x2="905" y2="500.7"/>
	<path class="st5" d="M906.1,804.7l233.7-50.7l-31-50.7l71.4-50.7l-41-50.7"/>
</g>
<g>
	<line class="st8" x1="960.3" y1="804.7" x2="1002.2" y2="804.7"/>
	<line class="st8" x1="1121.8" y1="754" x2="1279.8" y2="754"/>
	<line class="st8" x1="1100" y1="703.3" x2="1249.2" y2="703.3"/>
	<line class="st8" x1="1131.5" y1="652.7" x2="1284.4" y2="652.7"/>
	<line class="st8" x1="1123.1" y1="602" x2="1289.1" y2="602"/>
	<line class="st8" x1="1064.9" y1="551.3" x2="1178.6" y2="551.3"/>
	<line class="st8" x1="957.6" y1="500.7" x2="1005.1" y2="500.7"/>
	<line class="st8" x1="977.2" y1="450" x2="1064.5" y2="450"/>
	<line class="st8" x1="976.8" y1="399.3" x2="1064" y2="399.3"/>
	<line class="st8" x1="989.4" y1="348.7" x2="1077.3" y2="348.7"/>
	<line class="st8" x1="1012" y1="298" x2="1103" y2="298"/>
	<line class="st8" x1="955.7" y1="247.3" x2="1001.6" y2="247.3"/>
	<line class="st8" x1="882" y1="196.7" x2="913.6" y2="196.7"/>
	<line class="st8" x1="1059.5" y1="146" x2="1139.9" y2="146"/>
	<line class="st8" x1="873.5" y1="95.3" x2="903.1" y2="95.3"/>
</g>
<g>
	<path class="st9" d="M986.4,804.5l-1.1-3.4l-2.9-2.1h-3.6l-2.9,2.1l-1.1,3.4l1.1,3.4l2.9,2.1h3.6l2.9-2.1L986.4,804.5z"/>
	<path class="st9" d="M1199.4,754.5l-1.1-3.4l-2.9-2.1h-3.6l-2.9,2.1l-1.1,3.4l1.1,3.4l2.9,2.1h3.6l2.9-2.1L1199.4,754.5z"/>
	<path class="st9" d="M1175.4,703.5l-1.1-3.4l-2.9-2.1h-3.6l-2.9,2.1l-1.1,3.4l1.1,3.4l2.9,2.1h3.6l2.9-2.1L1175.4,703.5z"/>
	<path class="st9" d="M1208.4,652.5l-1.1-3.4l-2.9-2.1h-3.6l-2.9,2.1l-1.1,3.4l1.1,3.4l2.9,2.1h3.6l2.9-2.1L1208.4,652.5z"/>
	<path class="st9" d="M1206.4,602.5l-1.1-3.4l-2.9-2.1h-3.6l-2.9,2.1l-1.1,3.4l1.1,3.4l2.9,2.1h3.6l2.9-2.1L1206.4,602.5z"/>
	<path class="st9" d="M1123.4,551.5l-1.1-3.4l-2.9-2.1h-3.6l-2.9,2.1l-1.1,3.4l1.1,3.4l2.9,2.1h3.6l2.9-2.1L1123.4,551.5z"/>
	<path class="st9" d="M986.4,500.5l-1.1-3.4l-2.9-2.1h-3.6l-2.9,2.1l-1.1,3.4l1.1,3.4l2.9,2.1h3.6l2.9-2.1L986.4,500.5z"/>
	<path class="st9" d="M1023.4,449.5l-1.1-3.4l-2.9-2.1h-3.6l-2.9,2.1l-1.1,3.4l1.1,3.4l2.9,2.1h3.6l2.9-2.1L1023.4,449.5z"/>
	<path class="st9" d="M1022.4,399.5l-1.1-3.4l-2.9-2.1h-3.6l-2.9,2.1l-1.1,3.4l1.1,3.4l2.9,2.1h3.6l2.9-2.1L1022.4,399.5z"/>
	<path class="st9" d="M1035.4,348.5l-1.1-3.4l-2.9-2.1h-3.6l-2.9,2.1l-1.1,3.4l1.1,3.4l2.9,2.1h3.6l2.9-2.1L1035.4,348.5z"/>
	<path class="st9" d="M1061.4,297.5l-1.1-3.4l-2.9-2.1h-3.6l-2.9,2.1l-1.1,3.4l1.1,3.4l2.9,2.1h3.6l2.9-2.1L1061.4,297.5z"/>
	<path class="st9" d="M983.4,247.5l-1.1-3.4l-2.9-2.1h-3.6l-2.9,2.1l-1.1,3.4l1.1,3.4l2.9,2.1h3.6l2.9-2.1L983.4,247.5z"/>
	<path class="st9" d="M902.4,196.5l-1.1-3.4l-2.9-2.1h-3.6l-2.9,2.1l-1.1,3.4l1.1,3.4l2.9,2.1h3.6l2.9-2.1L902.4,196.5z"/>
	<path class="st9" d="M1101.4,145.5l-1.1-3.4l-2.9-2.1h-3.6l-2.9,2.1l-1.1,3.4l1.1,3.4l2.9,2.1h3.6l2.9-2.1L1101.4,145.5z"/>
	<path class="st9" d="M892.4,95.5l-1.1-3.4l-2.9-2.1h-3.6l-2.9,2.1l-1.1,3.4l1.1,3.4l2.9,2.1h3.6l2.9-2.1L892.4,95.5z"/>
</g>
<g>
	<path class="st8" d="M1017.5,450l-0.9-50.7l12.9-50.7l25.7-50.7"/>
	<line class="st8" x1="1117.5" y1="551.3" x2="980" y2="500.7"/>
	<path class="st8" d="M980.2,804.7l213.4-50.7l-23.8-50.7l33.1-50.7l-2.6-50.7"/>
</g>
<g>
	<text transform="matrix(1 0 0 1 493.4958 869.0473)" class="st10 st4">Stronger for Orientation Rule</text>
	<text transform="matrix(1 0 0 1 330.0858 869.0473)" class="st10 st4">Stronger for Color Rule</text>
	<g>
		<line class="st11" x1="419.6" y1="885.1" x2="384.5" y2="885.1"/>
		<g>
			<line class="st12" x1="419.6" y1="885.1" x2="393.3" y2="885.1"/>
			<g>
				<polygon points="395.3,882.2 384.5,885.1 395.3,888 				"/>
			</g>
		</g>
	</g>
	<g>
		<line class="st11" x1="565.4" y1="885.1" x2="600.5" y2="885.1"/>
		<g>
			<line class="st12" x1="565.4" y1="885.1" x2="591.7" y2="885.1"/>
			<g>
				<polygon points="589.7,888 600.5,885.1 589.7,882.2 				"/>
			</g>
		</g>
	</g>
</g>
<text transform="matrix(1 0 0 1 767 928)" class="st3" style="font-size:36px;">ACC</text>
<g transform="translate(500.5005,347.25)">
	<text transform="matrix(1 0 0 1 -147.5258 -280.0201)" class="st10 st13">Normalized Change in Firing Rate (Difference Index)</text>
</g>
<g transform="translate(500.5005,347.25)">
	<text transform="matrix(1 0 0 1 370.7153 -280.0201)" class="st10 st13">Absolute Normalized Change in Firing Rate (Difference Index)</text>
</g>
<line class="st0" x1="272" y1="803.2" x2="-235" y2="803.2"/>
<line class="st0" x1="272" y1="752.6" x2="-235" y2="752.6"/>
<line class="st0" x1="272" y1="701.9" x2="-235" y2="701.9"/>
<line class="st0" x1="272" y1="651.2" x2="-235" y2="651.2"/>
<line class="st0" x1="272" y1="600.6" x2="-235" y2="600.6"/>
<line class="st0" x1="272" y1="549.9" x2="-235" y2="549.9"/>
<line class="st0" x1="272" y1="499.2" x2="-235" y2="499.2"/>
<g transform="translate(268.6667,804.6667)">
	<text transform="matrix(1 0 0 1 -100.9121 4.0793)" class="st3 st4">Rule@Repetition5+</text>
</g>
<g transform="translate(268.6667,754)">
	<text transform="matrix(1 0 0 1 -93.1641 4.0793)" class="st3 st4">Rule@Repetition4</text>
</g>
<g transform="translate(268.6667,703.3333)">
	<text transform="matrix(1 0 0 1 -93.1641 4.0793)" class="st3 st4">Rule@Repetition3</text>
</g>
<g transform="translate(268.6667,652.6667)">
	<text transform="matrix(1 0 0 1 -93.1641 4.0793)" class="st3 st4">Rule@Repetition2</text>
</g>
<g transform="translate(268.6667,602)">
	<text transform="matrix(1 0 0 1 -93.1641 4.0793)" class="st3 st4">Rule@Repetition1</text>
</g>
<g transform="translate(268.6667,551.3333)">
	<text transform="matrix(1 0 0 1 -105.0332 4.0793)" class="st3 st4">Rule@Previous Error</text>
</g>
<g transform="translate(268.6667,500.6667)">
	<text transform="matrix(1 0 0 1 -123.48 4.0793)" class="st3 st4">Rule@No Previous Error</text>
</g>
<g transform="translate(268.6667,450)">
	<text transform="matrix(1 0 0 1 -140.2749 4.0793)" class="st3 st4">Repetition4 - Repetition5+</text>
</g>
<g transform="translate(268.6667,399.3333)">
	<text transform="matrix(1 0 0 1 -140.2749 4.0793)" class="st3 st4">Repetition3 - Repetition5+</text>
</g>
<g transform="translate(268.6667,348.6667)">
	<text transform="matrix(1 0 0 1 -140.2749 4.0793)" class="st3 st4">Repetition2 - Repetition5+</text>
</g>
<g transform="translate(268.6667,298)">
	<text transform="matrix(1 0 0 1 -140.2749 4.0792)" class="st3 st4">Repetition1 - Repetition5+</text>
</g>
<g transform="translate(268.6667,247.3333)">
	<text transform="matrix(1 0 0 1 -97.3501 4.0793)" class="st3 st4">Orientation - Color</text>
</g>
<g transform="translate(268.6667,196.6667)">
	<text transform="matrix(1 0 0 1 -55.7759 4.0793)" class="st3 st4">Left - Right</text>
</g>
<g transform="translate(268.6667,146)">
	<text transform="matrix(1 0 0 1 -174.7119 4.0792)" class="st3 st4">Previous Error - No Previous Error</text>
</g>
<g transform="translate(268.6667,95.3333)">
	<text transform="matrix(1 0 0 1 -131.6309 4.0793)" class="st3 st4">Incongruent - Congruent</text>
</g>
</svg>
