<?xml version="1.0" encoding="utf-8"?>
<!-- Generator: Adobe Illustrator 19.2.1, SVG Export Plug-In . SVG Version: 6.00 Build 0)  -->
<svg version="1.1" id="Layer_1" xmlns="http://www.w3.org/2000/svg" xmlns:xlink="http://www.w3.org/1999/xlink" x="0px" y="0px"
	 viewBox="0 0 1600 888" style="enable-background:new 0 0 1600 888;" xml:space="preserve">
<style type="text/css">
	.st0{fill:none;stroke:#000000;stroke-width:1.3333;stroke-linejoin:bevel;stroke-miterlimit:1;stroke-dasharray:1,3;}
	.st1{fill:none;stroke:#262626;stroke-linecap:square;stroke-miterlimit:10;stroke-opacity:0.149;}
	.st2{fill:none;stroke:#000000;stroke-linecap:square;stroke-miterlimit:10;}
	.st3{font-family:'MyriadPro-Regular';}
	.st4{font-size:13px;}
	.st5{fill:none;stroke:#66C2A5;stroke-linecap:square;stroke-miterlimit:10;}
	.st6{fill:#66C2A5;}
	.st7{fill:none;stroke:#7570B3;stroke-linecap:square;stroke-miterlimit:10;}
	.st8{fill:#7570B3;}
	.st9{font-family:'ArialMT';}
	.st10{fill:none;}
	.st11{fill:none;stroke:#000000;stroke-width:2;stroke-miterlimit:10;}
	.st12{font-size:15px;}
</style>
<g>
	<line class="st0" x1="555.7" y1="830" x2="555.7" y2="70"/>
</g>
<line class="st1" x1="275.8" y1="804.7" x2="-231.2" y2="804.7"/>
<line class="st1" x1="275.8" y1="754" x2="-231.2" y2="754"/>
<line class="st1" x1="275.8" y1="703.3" x2="-231.2" y2="703.3"/>
<line class="st1" x1="275.8" y1="652.7" x2="-231.2" y2="652.7"/>
<line class="st1" x1="275.8" y1="602" x2="-231.2" y2="602"/>
<line class="st1" x1="275.8" y1="551.3" x2="-231.2" y2="551.3"/>
<line class="st1" x1="275.8" y1="500.7" x2="-231.2" y2="500.7"/>
<line class="st1" x1="781" y1="450" x2="274" y2="450"/>
<line class="st1" x1="781" y1="399.3" x2="274" y2="399.3"/>
<line class="st1" x1="781" y1="348.7" x2="274" y2="348.7"/>
<line class="st1" x1="781" y1="298" x2="274" y2="298"/>
<line class="st1" x1="781" y1="247.3" x2="274" y2="247.3"/>
<line class="st1" x1="781" y1="196.7" x2="274" y2="196.7"/>
<line class="st1" x1="781" y1="146" x2="274" y2="146"/>
<line class="st1" x1="781" y1="95.3" x2="274" y2="95.3"/>
<path class="st2" d="M274,830h507H274z"/>
<g transform="translate(274,835.3333)">
	<text transform="matrix(1 0 0 1 -15 14)" class="st3 st4">-0.05</text>
</g>
<g transform="translate(330.3333,835.3333)">
	<text transform="matrix(1 0 0 1 -15 14)" class="st3 st4">-0.04</text>
</g>
<g transform="translate(386.6667,835.3333)">
	<text transform="matrix(1 0 0 1 -15 14)" class="st3 st4">-0.03</text>
</g>
<g transform="translate(443,835.3333)">
	<text transform="matrix(1 0 0 1 -15 14)" class="st3 st4">-0.02</text>
</g>
<g transform="translate(499.3333,835.3333)">
	<text transform="matrix(1 0 0 1 -15 14)" class="st3 st4">-0.01</text>
</g>
<g transform="translate(555.6667,835.3333)">
	<text transform="matrix(1 0 0 1 -4 14)" class="st3 st4">0</text>
</g>
<g transform="translate(612,835.3333)">
	<text transform="matrix(1 0 0 1 -13 14)" class="st3 st4">0.01</text>
</g>
<g transform="translate(668.3333,835.3333)">
	<text transform="matrix(1 0 0 1 -13 14)" class="st3 st4">0.02</text>
</g>
<g transform="translate(724.6667,835.3333)">
	<text transform="matrix(1 0 0 1 -13 14)" class="st3 st4">0.03</text>
</g>
<g transform="translate(781,835.3333)">
	<text transform="matrix(1 0 0 1 -13 14)" class="st3 st4">0.04</text>
</g>
<g transform="translate(268.6667,804.6667)">
	<text transform="matrix(1 0 0 1 -97.0669 5.5)" class="st3 st4">Rule@Repetition5+</text>
</g>
<g transform="translate(268.6667,754)">
	<text transform="matrix(1 0 0 1 -89.3188 5.5)" class="st3 st4">Rule@Repetition4</text>
</g>
<g transform="translate(268.6667,703.3333)">
	<text transform="matrix(1 0 0 1 -89.3188 5.5)" class="st3 st4">Rule@Repetition3</text>
</g>
<g transform="translate(268.6667,652.6667)">
	<text transform="matrix(1 0 0 1 -89.3188 5.5)" class="st3 st4">Rule@Repetition2</text>
</g>
<g transform="translate(268.6667,602)">
	<text transform="matrix(1 0 0 1 -89.3188 5.5)" class="st3 st4">Rule@Repetition1</text>
</g>
<g transform="translate(268.6667,551.3333)">
	<text transform="matrix(1 0 0 1 -101.188 5.5)" class="st3 st4">Rule@Previous Error</text>
</g>
<g transform="translate(268.6667,500.6667)">
	<text transform="matrix(1 0 0 1 -119.6348 5.5)" class="st3 st4">Rule@No Previous Error</text>
</g>
<g transform="translate(268.6667,450)">
	<text transform="matrix(1 0 0 1 -136.4297 5.5)" class="st3 st4">Repetition4 - Repetition5+</text>
</g>
<g transform="translate(268.6667,399.3333)">
	<text transform="matrix(1 0 0 1 -136.4297 5.5)" class="st3 st4">Repetition3 - Repetition5+</text>
</g>
<g transform="translate(268.6667,348.6667)">
	<text transform="matrix(1 0 0 1 -136.4297 5.5)" class="st3 st4">Repetition2 - Repetition5+</text>
</g>
<g transform="translate(268.6667,298)">
	<text transform="matrix(1 0 0 1 -136.4297 5.5)" class="st3 st4">Repetition1 - Repetition5+</text>
</g>
<g transform="translate(268.6667,247.3333)">
	<text transform="matrix(1 0 0 1 -93.5049 5.5)" class="st3 st4">Orientation - Color</text>
</g>
<g transform="translate(268.6667,196.6667)">
	<text transform="matrix(1 0 0 1 -51.9307 5.5)" class="st3 st4">Left - Right</text>
</g>
<g transform="translate(268.6667,146)">
	<text transform="matrix(1 0 0 1 -170.8667 5.5)" class="st3 st4">Previous Error - No Previous Error</text>
</g>
<g transform="translate(268.6667,95.3333)">
	<text transform="matrix(1 0 0 1 -127.7856 5.5)" class="st3 st4">Incongruent - Congruent</text>
</g>
<g>
	<line class="st5" x1="549.9" y1="804.7" x2="627.3" y2="804.7"/>
	<line class="st5" x1="401.4" y1="754" x2="658.3" y2="754"/>
	<line class="st5" x1="432.1" y1="703.3" x2="716.2" y2="703.3"/>
	<line class="st5" x1="343" y1="652.7" x2="624.2" y2="652.7"/>
	<line class="st5" x1="393" y1="602" x2="680.9" y2="602"/>
	<line class="st5" x1="327.8" y1="551.3" x2="598.6" y2="551.3"/>
	<line class="st5" x1="549.8" y1="500.7" x2="619.3" y2="500.7"/>
	<line class="st5" x1="517.1" y1="450" x2="666.5" y2="450"/>
	<line class="st5" x1="459.6" y1="399.3" x2="627.3" y2="399.3"/>
	<line class="st5" x1="503.6" y1="348.7" x2="651.6" y2="348.7"/>
	<line class="st5" x1="559.8" y1="298" x2="732.5" y2="298"/>
	<line class="st5" x1="542.8" y1="247.3" x2="611.6" y2="247.3"/>
	<line class="st5" x1="487.4" y1="196.7" x2="539.8" y2="196.7"/>
	<line class="st5" x1="529.7" y1="146" x2="727.3" y2="146"/>
	<line class="st5" x1="531.9" y1="95.3" x2="587" y2="95.3"/>
</g>
<g>
	<path class="st6" d="M590.4,804.5l-1.1-3.4l-2.9-2.1h-3.6l-2.9,2.1l-1.1,3.4l1.1,3.4l2.9,2.1h3.6l2.9-2.1L590.4,804.5z"/>
	<path class="st6" d="M533.4,754.5l-1.1-3.4l-2.9-2.1h-3.6l-2.9,2.1l-1.1,3.4l1.1,3.4l2.9,2.1h3.6l2.9-2.1L533.4,754.5z"/>
	<path class="st6" d="M585.4,703.5l-1.1-3.4l-2.9-2.1h-3.6l-2.9,2.1l-1.1,3.4l1.1,3.4l2.9,2.1h3.6l2.9-2.1L585.4,703.5z"/>
	<path class="st6" d="M491.4,652.5l-1.1-3.4l-2.9-2.1h-3.6l-2.9,2.1l-1.1,3.4l1.1,3.4l2.9,2.1h3.6l2.9-2.1L491.4,652.5z"/>
	<path class="st6" d="M545.4,602.5l-1.1-3.4l-2.9-2.1h-3.6l-2.9,2.1l-1.1,3.4l1.1,3.4l2.9,2.1h3.6l2.9-2.1L545.4,602.5z"/>
	<path class="st6" d="M473.4,551.5l-1.1-3.4l-2.9-2.1h-3.6l-2.9,2.1l-1.1,3.4l1.1,3.4l2.9,2.1h3.6l2.9-2.1L473.4,551.5z"/>
	<path class="st6" d="M589.4,500.5l-1.1-3.4l-2.9-2.1h-3.6l-2.9,2.1l-1.1,3.4l1.1,3.4l2.9,2.1h3.6l2.9-2.1L589.4,500.5z"/>
	<path class="st6" d="M598.4,449.5l-1.1-3.4l-2.9-2.1h-3.6l-2.9,2.1l-1.1,3.4l1.1,3.4l2.9,2.1h3.6l2.9-2.1L598.4,449.5z"/>
	<path class="st6" d="M547.4,399.5l-1.1-3.4l-2.9-2.1h-3.6l-2.9,2.1l-1.1,3.4l1.1,3.4l2.9,2.1h3.6l2.9-2.1L547.4,399.5z"/>
	<path class="st6" d="M580.4,348.5l-1.1-3.4l-2.9-2.1h-3.6l-2.9,2.1l-1.1,3.4l1.1,3.4l2.9,2.1h3.6l2.9-2.1L580.4,348.5z"/>
	<path class="st6" d="M652.4,297.5l-1.1-3.4l-2.9-2.1h-3.6l-2.9,2.1l-1.1,3.4l1.1,3.4l2.9,2.1h3.6l2.9-2.1L652.4,297.5z"/>
	<path class="st6" d="M581.4,247.5l-1.1-3.4l-2.9-2.1h-3.6l-2.9,2.1l-1.1,3.4l1.1,3.4l2.9,2.1h3.6l2.9-2.1L581.4,247.5z"/>
	<path class="st6" d="M521.4,196.5l-1.1-3.4l-2.9-2.1h-3.6l-2.9,2.1l-1.1,3.4l1.1,3.4l2.9,2.1h3.6l2.9-2.1L521.4,196.5z"/>
	<path class="st6" d="M639.4,145.5l-1.1-3.4l-2.9-2.1h-3.6l-2.9,2.1l-1.1,3.4l1.1,3.4l2.9,2.1h3.6l2.9-2.1L639.4,145.5z"/>
	<path class="st6" d="M565.4,95.5l-1.1-3.4l-2.9-2.1h-3.6l-2.9,2.1l-1.1,3.4l1.1,3.4l2.9,2.1h3.6l2.9-2.1L565.4,95.5z"/>
</g>
<g>
	<path class="st5" d="M592.6,450l-51.1-50.7l33.3-50.7L646,298"/>
	<line class="st5" x1="467.9" y1="551.3" x2="583.5" y2="500.7"/>
	<path class="st5" d="M584.2,804.7L527.9,754l51.6-50.7l-93.7-50.7l53.9-50.7"/>
</g>
<g>
	<line class="st7" x1="555.5" y1="804.7" x2="610.1" y2="804.7"/>
	<line class="st7" x1="387.2" y1="754" x2="609.4" y2="754"/>
	<line class="st7" x1="446.8" y1="703.3" x2="655.7" y2="703.3"/>
	<line class="st7" x1="447.2" y1="652.7" x2="665.2" y2="652.7"/>
	<line class="st7" x1="320.2" y1="602" x2="551.3" y2="602"/>
	<line class="st7" x1="479.8" y1="551.3" x2="645" y2="551.3"/>
	<line class="st7" x1="547.4" y1="500.7" x2="603.8" y2="500.7"/>
	<line class="st7" x1="485" y1="450" x2="610" y2="450"/>
	<line class="st7" x1="491.1" y1="399.3" x2="630.5" y2="399.3"/>
	<line class="st7" x1="541.4" y1="348.7" x2="681.3" y2="348.7"/>
	<line class="st7" x1="594.7" y1="298" x2="748.1" y2="298"/>
	<line class="st7" x1="544.9" y1="247.3" x2="605" y2="247.3"/>
	<line class="st7" x1="545.9" y1="196.7" x2="589.5" y2="196.7"/>
	<line class="st7" x1="576.7" y1="146" x2="730.9" y2="146"/>
	<line class="st7" x1="524.6" y1="95.3" x2="565.5" y2="95.3"/>
</g>
<g>
	<path class="st8" d="M587.4,804.5l-1.1-3.4l-2.9-2.1h-3.6l-2.9,2.1l-1.1,3.4l1.1,3.4l2.9,2.1h3.6l2.9-2.1L587.4,804.5z"/>
	<path class="st8" d="M502.4,754.5l-1.1-3.4l-2.9-2.1h-3.6l-2.9,2.1l-1.1,3.4l1.1,3.4l2.9,2.1h3.6l2.9-2.1L502.4,754.5z"/>
	<path class="st8" d="M555.4,703.5l-1.1-3.4l-2.9-2.1h-3.6l-2.9,2.1l-1.1,3.4l1.1,3.4l2.9,2.1h3.6l2.9-2.1L555.4,703.5z"/>
	<path class="st8" d="M566.4,652.5l-1.1-3.4l-2.9-2.1h-3.6l-2.9,2.1l-1.1,3.4l1.1,3.4l2.9,2.1h3.6l2.9-2.1L566.4,652.5z"/>
	<path class="st8" d="M442.4,602.5l-1.1-3.4l-2.9-2.1h-3.6l-2.9,2.1l-1.1,3.4l1.1,3.4l2.9,2.1h3.6l2.9-2.1L442.4,602.5z"/>
	<path class="st8" d="M570.4,551.5l-1.1-3.4l-2.9-2.1h-3.6l-2.9,2.1l-1.1,3.4l1.1,3.4l2.9,2.1h3.6l2.9-2.1L570.4,551.5z"/>
	<path class="st8" d="M580.4,500.5l-1.1-3.4l-2.9-2.1h-3.6l-2.9,2.1l-1.1,3.4l1.1,3.4l2.9,2.1h3.6l2.9-2.1L580.4,500.5z"/>
	<path class="st8" d="M554.4,449.5l-1.1-3.4l-2.9-2.1h-3.6l-2.9,2.1l-1.1,3.4l1.1,3.4l2.9,2.1h3.6l2.9-2.1L554.4,449.5z"/>
	<path class="st8" d="M569.4,399.5l-1.1-3.4l-2.9-2.1h-3.6l-2.9,2.1l-1.1,3.4l1.1,3.4l2.9,2.1h3.6l2.9-2.1L569.4,399.5z"/>
	<path class="st8" d="M618.4,348.5l-1.1-3.4l-2.9-2.1h-3.6l-2.9,2.1l-1.1,3.4l1.1,3.4l2.9,2.1h3.6l2.9-2.1L618.4,348.5z"/>
	<path class="st8" d="M674.4,297.5l-1.1-3.4l-2.9-2.1h-3.6l-2.9,2.1l-1.1,3.4l1.1,3.4l2.9,2.1h3.6l2.9-2.1L674.4,297.5z"/>
	<path class="st8" d="M580.4,247.5l-1.1-3.4l-2.9-2.1h-3.6l-2.9,2.1l-1.1,3.4l1.1,3.4l2.9,2.1h3.6l2.9-2.1L580.4,247.5z"/>
	<path class="st8" d="M572.4,196.5l-1.1-3.4l-2.9-2.1h-3.6l-2.9,2.1l-1.1,3.4l1.1,3.4l2.9,2.1h3.6l2.9-2.1L572.4,196.5z"/>
	<path class="st8" d="M657.4,145.5l-1.1-3.4l-2.9-2.1h-3.6l-2.9,2.1l-1.1,3.4l1.1,3.4l2.9,2.1h3.6l2.9-2.1L657.4,145.5z"/>
	<path class="st8" d="M551.4,95.5l-1.1-3.4l-2.9-2.1h-3.6l-2.9,2.1l-1.1,3.4l1.1,3.4l2.9,2.1h3.6l2.9-2.1L551.4,95.5z"/>
</g>
<g>
	<path class="st7" d="M548.9,450l14.9-50.7l48.6-50.7l56.3-50.7"/>
	<line class="st7" x1="564.8" y1="551.3" x2="574.9" y2="500.7"/>
	<path class="st7" d="M581.3,804.7L496.5,754l52.8-50.7l11.4-50.7L436.5,602"/>
</g>
<line class="st1" x1="1340" y1="804.7" x2="834" y2="804.7"/>
<line class="st1" x1="1340" y1="754" x2="834" y2="754"/>
<line class="st1" x1="1340" y1="703.3" x2="834" y2="703.3"/>
<line class="st1" x1="1340" y1="652.7" x2="834" y2="652.7"/>
<line class="st1" x1="1340" y1="602" x2="834" y2="602"/>
<line class="st1" x1="1340" y1="551.3" x2="834" y2="551.3"/>
<line class="st1" x1="1340" y1="500.7" x2="834" y2="500.7"/>
<line class="st1" x1="1340" y1="450" x2="834" y2="450"/>
<line class="st1" x1="1340" y1="399.3" x2="834" y2="399.3"/>
<line class="st1" x1="1340" y1="348.7" x2="834" y2="348.7"/>
<line class="st1" x1="1340" y1="298" x2="834" y2="298"/>
<line class="st1" x1="1340" y1="247.3" x2="834" y2="247.3"/>
<line class="st1" x1="1340" y1="196.7" x2="834" y2="196.7"/>
<line class="st1" x1="1340" y1="146" x2="834" y2="146"/>
<line class="st1" x1="1340" y1="95.3" x2="834" y2="95.3"/>
<path class="st2" d="M834,830h506H834z"/>
<g transform="translate(1014,835.3333)">
	<text transform="matrix(1 0 0 1 -184 14)" class="st3 st4">0</text>
</g>
<g transform="translate(1086.2858,835.3333)">
	<text transform="matrix(1 0 0 1 -193 14)" class="st3 st4">0.02</text>
</g>
<g transform="translate(1158.5714,835.3333)">
	<text transform="matrix(1 0 0 1 -193 14)" class="st3 st4">0.04</text>
</g>
<g transform="translate(1230.8572,835.3333)">
	<text transform="matrix(1 0 0 1 -193 14)" class="st3 st4">0.06</text>
</g>
<g transform="translate(1303.1428,835.3333)">
	<text transform="matrix(1 0 0 1 -193 14)" class="st3 st4">0.08</text>
</g>
<g transform="translate(1375.4286,835.3333)">
	<text transform="matrix(1 0 0 1 -189.5 14)" class="st3 st4">0.1</text>
</g>
<g transform="translate(1447.7142,835.3333)">
	<text transform="matrix(1 0 0 1 -193 14)" class="st3 st4">0.12</text>
</g>
<g transform="translate(1520,835.3333)">
	<text transform="matrix(1 0 0 1 -193 14)" class="st3 st4">0.14</text>
</g>
<g>
	<line class="st5" x1="938" y1="804.7" x2="979.6" y2="804.7"/>
	<line class="st5" x1="1098.7" y1="754" x2="1247.3" y2="754"/>
	<line class="st5" x1="1121.8" y1="703.3" x2="1278.7" y2="703.3"/>
	<line class="st5" x1="1100.2" y1="652.7" x2="1243.7" y2="652.7"/>
	<line class="st5" x1="1128.5" y1="602" x2="1275.8" y2="602"/>
	<line class="st5" x1="1073.1" y1="551.3" x2="1205.4" y2="551.3"/>
	<line class="st5" x1="930.5" y1="500.7" x2="973.3" y2="500.7"/>
	<line class="st5" x1="961.5" y1="450" x2="1041.4" y2="450"/>
	<line class="st5" x1="973.6" y1="399.3" x2="1049.7" y2="399.3"/>
	<line class="st5" x1="965.4" y1="348.7" x2="1044.6" y2="348.7"/>
	<line class="st5" x1="984.4" y1="298" x2="1074.9" y2="298"/>
	<line class="st5" x1="928.6" y1="247.3" x2="972.7" y2="247.3"/>
	<line class="st5" x1="893.3" y1="196.7" x2="924.4" y2="196.7"/>
	<line class="st5" x1="1010.4" y1="146" x2="1089.8" y2="146"/>
	<line class="st5" x1="894.1" y1="95.3" x2="927" y2="95.3"/>
</g>
<g>
	<path class="st6" d="M963.4,804.5l-1.1-3.4l-2.9-2.1h-3.6l-2.9,2.1l-1.1,3.4l1.1,3.4l2.9,2.1h3.6l2.9-2.1L963.4,804.5z"/>
	<path class="st6" d="M1172.4,754.5l-1.1-3.4l-2.9-2.1h-3.6l-2.9,2.1l-1.1,3.4l1.1,3.4l2.9,2.1h3.6l2.9-2.1L1172.4,754.5z"/>
	<path class="st6" d="M1198.4,703.5l-1.1-3.4l-2.9-2.1h-3.6l-2.9,2.1l-1.1,3.4l1.1,3.4l2.9,2.1h3.6l2.9-2.1L1198.4,703.5z"/>
	<path class="st6" d="M1174.4,652.5l-1.1-3.4l-2.9-2.1h-3.6l-2.9,2.1l-1.1,3.4l1.1,3.4l2.9,2.1h3.6l2.9-2.1L1174.4,652.5z"/>
	<path class="st6" d="M1206.4,602.5l-1.1-3.4l-2.9-2.1h-3.6l-2.9,2.1l-1.1,3.4l1.1,3.4l2.9,2.1h3.6l2.9-2.1L1206.4,602.5z"/>
	<path class="st6" d="M1141.4,551.5l-1.1-3.4l-2.9-2.1h-3.6l-2.9,2.1l-1.1,3.4l1.1,3.4l2.9,2.1h3.6l2.9-2.1L1141.4,551.5z"/>
	<path class="st6" d="M955.4,500.5l-1.1-3.4l-2.9-2.1h-3.6l-2.9,2.1l-1.1,3.4l1.1,3.4l2.9,2.1h3.6l2.9-2.1L955.4,500.5z"/>
	<path class="st6" d="M1006.4,449.5l-1.1-3.4l-2.9-2.1h-3.6l-2.9,2.1l-1.1,3.4l1.1,3.4l2.9,2.1h3.6l2.9-2.1L1006.4,449.5z"/>
	<path class="st6" d="M1016.4,399.5l-1.1-3.4l-2.9-2.1h-3.6l-2.9,2.1l-1.1,3.4l1.1,3.4l2.9,2.1h3.6l2.9-2.1L1016.4,399.5z"/>
	<path class="st6" d="M1008.4,348.5l-1.1-3.4l-2.9-2.1h-3.6l-2.9,2.1l-1.1,3.4l1.1,3.4l2.9,2.1h3.6l2.9-2.1L1008.4,348.5z"/>
	<path class="st6" d="M1032.4,297.5l-1.1-3.4l-2.9-2.1h-3.6l-2.9,2.1l-1.1,3.4l1.1,3.4l2.9,2.1h3.6l2.9-2.1L1032.4,297.5z"/>
	<path class="st6" d="M953.4,247.5l-1.1-3.4l-2.9-2.1h-3.6l-2.9,2.1l-1.1,3.4l1.1,3.4l2.9,2.1h3.6l2.9-2.1L953.4,247.5z"/>
	<path class="st6" d="M913.4,196.5l-1.1-3.4l-2.9-2.1h-3.6l-2.9,2.1l-1.1,3.4l1.1,3.4l2.9,2.1h3.6l2.9-2.1L913.4,196.5z"/>
	<path class="st6" d="M1055.4,145.5l-1.1-3.4l-2.9-2.1h-3.6l-2.9,2.1l-1.1,3.4l1.1,3.4l2.9,2.1h3.6l2.9-2.1L1055.4,145.5z"/>
	<path class="st6" d="M915.4,95.5l-1.1-3.4l-2.9-2.1h-3.6l-2.9,2.1l-1.1,3.4l1.1,3.4l2.9,2.1h3.6l2.9-2.1L915.4,95.5z"/>
</g>
<g>
	<path class="st5" d="M1000,450l10.7-50.7l-8.6-50.7l24.5-50.7"/>
	<line class="st5" x1="1135.4" y1="551.3" x2="949.1" y2="500.7"/>
	<path class="st5" d="M958,804.7l208.2-50.7l26.7-50.7l-24.7-50.7l32-50.7"/>
</g>
<g>
	<line class="st7" x1="962.6" y1="804.7" x2="995.6" y2="804.7"/>
	<line class="st7" x1="1164.8" y1="754" x2="1291.2" y2="754"/>
	<line class="st7" x1="1126.8" y1="703.3" x2="1244.6" y2="703.3"/>
	<line class="st7" x1="1154.2" y1="652.7" x2="1280.2" y2="652.7"/>
	<line class="st7" x1="1190.9" y1="602" x2="1326.4" y2="602"/>
	<line class="st7" x1="1075.7" y1="551.3" x2="1169.3" y2="551.3"/>
	<line class="st7" x1="965.2" y1="500.7" x2="1000.7" y2="500.7"/>
	<line class="st7" x1="974" y1="450" x2="1034" y2="450"/>
	<line class="st7" x1="1007.4" y1="399.3" x2="1073" y2="399.3"/>
	<line class="st7" x1="1015.8" y1="348.7" x2="1084.1" y2="348.7"/>
	<line class="st7" x1="1045.4" y1="298" x2="1122.1" y2="298"/>
	<line class="st7" x1="963.7" y1="247.3" x2="998" y2="247.3"/>
	<line class="st7" x1="915.8" y1="196.7" x2="943.8" y2="196.7"/>
	<line class="st7" x1="1052.3" y1="146" x2="1118.5" y2="146"/>
	<line class="st7" x1="889.3" y1="95.3" x2="913.1" y2="95.3"/>
</g>
<g>
	<path class="st8" d="M984.4,804.5l-1.1-3.4l-2.9-2.1h-3.6l-2.9,2.1l-1.1,3.4l1.1,3.4l2.9,2.1h3.6l2.9-2.1L984.4,804.5z"/>
	<path class="st8" d="M1231.4,754.5l-1.1-3.4l-2.9-2.1h-3.6l-2.9,2.1l-1.1,3.4l1.1,3.4l2.9,2.1h3.6l2.9-2.1L1231.4,754.5z"/>
	<path class="st8" d="M1187.4,703.5l-1.1-3.4l-2.9-2.1h-3.6l-2.9,2.1l-1.1,3.4l1.1,3.4l2.9,2.1h3.6l2.9-2.1L1187.4,703.5z"/>
	<path class="st8" d="M1218.4,652.5l-1.1-3.4l-2.9-2.1h-3.6l-2.9,2.1l-1.1,3.4l1.1,3.4l2.9,2.1h3.6l2.9-2.1L1218.4,652.5z"/>
	<path class="st8" d="M1261.4,602.5l-1.1-3.4l-2.9-2.1h-3.6l-2.9,2.1l-1.1,3.4l1.1,3.4l2.9,2.1h3.6l2.9-2.1L1261.4,602.5z"/>
	<path class="st8" d="M1124.4,551.5l-1.1-3.4l-2.9-2.1h-3.6l-2.9,2.1l-1.1,3.4l1.1,3.4l2.9,2.1h3.6l2.9-2.1L1124.4,551.5z"/>
	<path class="st8" d="M987.4,500.5l-1.1-3.4l-2.9-2.1h-3.6l-2.9,2.1l-1.1,3.4l1.1,3.4l2.9,2.1h3.6l2.9-2.1L987.4,500.5z"/>
	<path class="st8" d="M1008.4,449.5l-1.1-3.4l-2.9-2.1h-3.6l-2.9,2.1l-1.1,3.4l1.1,3.4l2.9,2.1h3.6l2.9-2.1L1008.4,449.5z"/>
	<path class="st8" d="M1043.4,399.5l-1.1-3.4l-2.9-2.1h-3.6l-2.9,2.1l-1.1,3.4l1.1,3.4l2.9,2.1h3.6l2.9-2.1L1043.4,399.5z"/>
	<path class="st8" d="M1053.4,348.5l-1.1-3.4l-2.9-2.1h-3.6l-2.9,2.1l-1.1,3.4l1.1,3.4l2.9,2.1h3.6l2.9-2.1L1053.4,348.5z"/>
	<path class="st8" d="M1087.4,297.5l-1.1-3.4l-2.9-2.1h-3.6l-2.9,2.1l-1.1,3.4l1.1,3.4l2.9,2.1h3.6l2.9-2.1L1087.4,297.5z"/>
	<path class="st8" d="M985.4,247.5l-1.1-3.4l-2.9-2.1h-3.6l-2.9,2.1l-1.1,3.4l1.1,3.4l2.9,2.1h3.6l2.9-2.1L985.4,247.5z"/>
	<path class="st8" d="M933.4,196.5l-1.1-3.4l-2.9-2.1h-3.6l-2.9,2.1l-1.1,3.4l1.1,3.4l2.9,2.1h3.6l2.9-2.1L933.4,196.5z"/>
	<path class="st8" d="M1090.4,145.5l-1.1-3.4l-2.9-2.1h-3.6l-2.9,2.1l-1.1,3.4l1.1,3.4l2.9,2.1h3.6l2.9-2.1L1090.4,145.5z"/>
	<path class="st8" d="M906.4,95.5l-1.1-3.4l-2.9-2.1h-3.6l-2.9,2.1l-1.1,3.4l1.1,3.4l2.9,2.1h3.6l2.9-2.1L906.4,95.5z"/>
</g>
<g>
	<path class="st7" d="M1002.7,450l34.9-50.7l10.3-50.7l33.7-50.7"/>
	<line class="st7" x1="1118.3" y1="551.3" x2="981.8" y2="500.7"/>
	<path class="st7" d="M978.4,804.7l246.9-50.7l-43.5-50.7l31.1-50.7l42.5-50.7"/>
</g>
<g>
	<text transform="matrix(1 0 0 1 570.9667 869.0473)" class="st9 st4">Stronger for Orientation Rule</text>
	<text transform="matrix(1 0 0 1 407.5566 869.0473)" class="st9 st4">Stronger for Color Rule</text>
	<g>
		<line class="st10" x1="497" y1="885.1" x2="461.9" y2="885.1"/>
		<g>
			<line class="st11" x1="497" y1="885.1" x2="470.7" y2="885.1"/>
			<g>
				<polygon points="472.7,882.2 461.9,885.1 472.7,888 				"/>
			</g>
		</g>
	</g>
	<g>
		<line class="st10" x1="642.8" y1="885.1" x2="677.9" y2="885.1"/>
		<g>
			<line class="st11" x1="642.8" y1="885.1" x2="669.1" y2="885.1"/>
			<g>
				<polygon points="667.1,888 677.9,885.1 667.1,882.2 				"/>
			</g>
		</g>
	</g>
</g>
<text transform="matrix(1 0 0 1 774 924)" class="st3" style="font-size:36px;">dlPFC</text>
<g transform="translate(500.5005,347.25)">
	<text transform="matrix(1 0 0 1 -147.5259 -291.0201)" class="st9 st12">Normalized Change in Firing Rate (Difference Index)</text>
</g>
<g transform="translate(500.5005,347.25)">
	<text transform="matrix(1 0 0 1 480.7152 -291.0201)" class="st9 st12">Absolute Normalized Change in Firing Rate (Difference Index)</text>
</g>
</svg>
