<?xml version="1.0" encoding="utf-8"?>
<!-- Generator: Adobe Illustrator 19.2.1, SVG Export Plug-In . SVG Version: 6.00 Build 0)  -->
<svg version="1.1" id="Layer_1" xmlns="http://www.w3.org/2000/svg" xmlns:xlink="http://www.w3.org/1999/xlink" x="0px" y="0px"
	 viewBox="0 0 1440 749" style="enable-background:new 0 0 1440 749;" xml:space="preserve">
<style type="text/css">
	.st0{fill:none;stroke:#000000;stroke-linecap:square;stroke-linejoin:round;stroke-miterlimit:10;}
	.st1{fill:none;stroke:#000000;stroke-width:0.8;stroke-linejoin:round;stroke-miterlimit:10;}
	.st2{fill:#515151;fill-opacity:0.6;stroke:#FFFFFF;stroke-miterlimit:10;}
	.st3{font-family:'ArialMT';}
	.st4{font-size:14px;}
	.st5{fill:#66C2A5;fill-opacity:0.8;}
	.st6{fill:#7570B3;fill-opacity:0.8;}
	.st7{fill:none;stroke:#000000;stroke-width:0.5;stroke-linejoin:round;stroke-miterlimit:10;}
	.st8{fill:none;stroke:#000000;stroke-linejoin:round;stroke-miterlimit:10;}
	.st9{fill:none;stroke:#231F20;stroke-width:0.5;stroke-linejoin:round;stroke-miterlimit:10;}
	.st10{font-size:12px;}
	.st11{font-size:13px;}
	.st12{font-size:9px;}
	.st13{fill:none;}
	.st14{fill:none;stroke:#000000;stroke-miterlimit:10;}
	.st15{font-size:36px;}
	.st16{fill:#66C2A5;}
	.st17{fill:#7570B3;}
</style>
<line class="st0" x1="191" y1="309" x2="413" y2="309"/>
<line class="st0" x1="191" y1="309" x2="191" y2="56"/>
<g>
	<line class="st1" x1="191" y1="309" x2="413" y2="56"/>
</g>
<line class="st0" x1="488" y1="309" x2="710" y2="309"/>
<line class="st0" x1="488" y1="309" x2="488" y2="56"/>
<line class="st0" x1="488" y1="309" x2="493.1" y2="309"/>
<g>
	<line class="st1" x1="488" y1="309" x2="710" y2="56"/>
</g>
<line class="st0" x1="785" y1="309" x2="1006" y2="309"/>
<line class="st0" x1="785" y1="309" x2="785" y2="303.9"/>
<line class="st0" x1="785" y1="309" x2="785" y2="56"/>
<line class="st0" x1="785" y1="309" x2="790.1" y2="309"/>
<g>
	<line class="st1" x1="785" y1="309" x2="1006" y2="56"/>
</g>
<line class="st0" x1="1082" y1="309" x2="1303" y2="309"/>
<line class="st0" x1="1082" y1="309" x2="1082" y2="303.9"/>
<line class="st0" x1="1082" y1="309" x2="1082" y2="56"/>
<line class="st0" x1="1082" y1="309" x2="1087.1" y2="309"/>
<g>
	<line class="st1" x1="1082" y1="309" x2="1303" y2="56"/>
</g>
<path class="st2" d="M1192.5,624V379.4h4.6V624H1192.5z"/>
<path class="st2" d="M1197.1,624v-54h4.6v54H1197.1z"/>
<path class="st2" d="M1201.7,624v-16.9h4.6V624H1201.7z"/>
<path class="st2" d="M1206.3,624v-21.9h4.6V624H1206.3z"/>
<path class="st2" d="M1210.9,624v-6.7h4.6v6.7H1210.9z"/>
<path class="st2" d="M1215.5,624v-3.4h4.6v3.4H1215.5z"/>
<path class="st2" d="M1220.1,624v-5.1h4.6v5.1H1220.1z"/>
<path class="st2" d="M1224.7,624v-1.7h4.6v1.7H1224.7z"/>
<path class="st2" d="M1233.9,624v-1.7h4.6v1.7H1233.9z"/>
<path class="st2" d="M1238.5,624v-1.7h4.6v1.7H1238.5z"/>
<path class="st2" d="M1243.1,624v-1.7h4.6v1.7H1243.1z"/>
<path class="st2" d="M1247.7,624v-1.7h4.6v1.7H1247.7z"/>
<line class="st0" x1="191" y1="309" x2="191" y2="303.9"/>
<g transform="translate(191,313.8)">
	<text transform="matrix(1 0 0 1 -4 11)" class="st3 st4">0</text>
</g>
<g transform="translate(267.243,313.8)">
	<text transform="matrix(1 0 0 1 -10 11)" class="st3 st4">0.5</text>
</g>
<g transform="translate(343.4861,313.8)">
	<text transform="matrix(1 0 0 1 -4 11)" class="st3 st4">1</text>
</g>
<line class="st0" x1="191" y1="309" x2="196.1" y2="309"/>
<g transform="translate(186.2,309)">
	<text transform="matrix(1 0 0 1 -8 3.5)" class="st3 st4">0</text>
</g>
<g transform="translate(186.2,274.2442)">
	<text transform="matrix(1 0 0 1 -20 3.5)" class="st3 st4">0.2</text>
</g>
<g transform="translate(186.2,239.4883)">
	<text transform="matrix(1 0 0 1 -20 3.5)" class="st3 st4">0.4</text>
</g>
<g transform="translate(186.2,204.7325)">
	<text transform="matrix(1 0 0 1 -20 3.5)" class="st3 st4">0.6</text>
</g>
<g transform="translate(186.2,169.9767)">
	<text transform="matrix(1 0 0 1 -20 3.5)" class="st3 st4">0.8</text>
</g>
<g transform="translate(186.2,135.2208)">
	<text transform="matrix(1 0 0 1 -8 3.5)" class="st3 st4">1</text>
</g>
<g transform="translate(186.2,100.465)">
	<text transform="matrix(1 0 0 1 -20 3.5)" class="st3 st4">1.2</text>
</g>
<g transform="translate(186.2,65.7092)">
	<text transform="matrix(1 0 0 1 -20 3.5)" class="st3 st4">1.4</text>
</g>
<g>
	<path class="st5" d="M217.7,285.5l-0.9-2.2l-2.2-0.9l-2.2,0.9l-0.9,2.2l0.9,2.2l2.2,0.9l2.2-0.9L217.7,285.5z"/>
	<path class="st5" d="M201.7,306.5l-0.9-2.2l-2.2-0.9l-2.2,0.9l-0.9,2.2l0.9,2.2l2.2,0.9l2.2-0.9L201.7,306.5z"/>
	<path class="st5" d="M202.7,301.5l-0.9-2.2l-2.2-0.9l-2.2,0.9l-0.9,2.2l0.9,2.2l2.2,0.9l2.2-0.9L202.7,301.5z"/>
	<path class="st5" d="M196.7,306.5l-0.9-2.2l-2.2-0.9l-2.2,0.9l-0.9,2.2l0.9,2.2l2.2,0.9l2.2-0.9L196.7,306.5z"/>
	<path class="st5" d="M199.7,305.5l-0.9-2.2l-2.2-0.9l-2.2,0.9l-0.9,2.2l0.9,2.2l2.2,0.9l2.2-0.9L199.7,305.5z"/>
	<path class="st5" d="M196.7,306.5l-0.9-2.2l-2.2-0.9l-2.2,0.9l-0.9,2.2l0.9,2.2l2.2,0.9l2.2-0.9L196.7,306.5z"/>
	<path class="st5" d="M196.7,306.5l-0.9-2.2l-2.2-0.9l-2.2,0.9l-0.9,2.2l0.9,2.2l2.2,0.9l2.2-0.9L196.7,306.5z"/>
	<path class="st5" d="M199.7,305.5l-0.9-2.2l-2.2-0.9l-2.2,0.9l-0.9,2.2l0.9,2.2l2.2,0.9l2.2-0.9L199.7,305.5z"/>
	<path class="st5" d="M222.7,279.5l-0.9-2.2l-2.2-0.9l-2.2,0.9l-0.9,2.2l0.9,2.2l2.2,0.9l2.2-0.9L222.7,279.5z"/>
	<path class="st5" d="M197.7,306.5l-0.9-2.2l-2.2-0.9l-2.2,0.9l-0.9,2.2l0.9,2.2l2.2,0.9l2.2-0.9L197.7,306.5z"/>
	<path class="st5" d="M206.7,295.5l-0.9-2.2l-2.2-0.9l-2.2,0.9l-0.9,2.2l0.9,2.2l2.2,0.9l2.2-0.9L206.7,295.5z"/>
	<path class="st5" d="M194.7,308.5l-0.9-2.2l-2.2-0.9l-2.2,0.9l-0.9,2.2l0.9,2.2l2.2,0.9l2.2-0.9L194.7,308.5z"/>
	<path class="st5" d="M195.7,308.5l-0.9-2.2l-2.2-0.9l-2.2,0.9l-0.9,2.2l0.9,2.2l2.2,0.9l2.2-0.9L195.7,308.5z"/>
	<path class="st5" d="M194.7,308.5l-0.9-2.2l-2.2-0.9l-2.2,0.9l-0.9,2.2l0.9,2.2l2.2,0.9l2.2-0.9L194.7,308.5z"/>
	<path class="st5" d="M198.7,305.5l-0.9-2.2l-2.2-0.9l-2.2,0.9l-0.9,2.2l0.9,2.2l2.2,0.9l2.2-0.9L198.7,305.5z"/>
	<path class="st5" d="M225.7,273.5l-0.9-2.2l-2.2-0.9l-2.2,0.9l-0.9,2.2l0.9,2.2l2.2,0.9l2.2-0.9L225.7,273.5z"/>
	<path class="st5" d="M195.7,307.5l-0.9-2.2l-2.2-0.9l-2.2,0.9l-0.9,2.2l0.9,2.2l2.2,0.9l2.2-0.9L195.7,307.5z"/>
	<path class="st5" d="M196.7,306.5l-0.9-2.2l-2.2-0.9l-2.2,0.9l-0.9,2.2l0.9,2.2l2.2,0.9l2.2-0.9L196.7,306.5z"/>
	<path class="st5" d="M220.7,278.5l-0.9-2.2l-2.2-0.9l-2.2,0.9l-0.9,2.2l0.9,2.2l2.2,0.9l2.2-0.9L220.7,278.5z"/>
	<path class="st5" d="M338.7,149.5l-0.9-2.2l-2.2-0.9l-2.2,0.9l-0.9,2.2l0.9,2.2l2.2,0.9l2.2-0.9L338.7,149.5z"/>
	<path class="st5" d="M220.7,280.5l-0.9-2.2l-2.2-0.9l-2.2,0.9l-0.9,2.2l0.9,2.2l2.2,0.9l2.2-0.9L220.7,280.5z"/>
	<path class="st6" d="M194.7,308.5l-0.9-2.2l-2.2-0.9l-2.2,0.9l-0.9,2.2l0.9,2.2l2.2,0.9l2.2-0.9L194.7,308.5z"/>
	<path class="st6" d="M221.7,277.5l-0.9-2.2l-2.2-0.9l-2.2,0.9l-0.9,2.2l0.9,2.2l2.2,0.9l2.2-0.9L221.7,277.5z"/>
	<path class="st6" d="M197.7,305.5l-0.9-2.2l-2.2-0.9l-2.2,0.9l-0.9,2.2l0.9,2.2l2.2,0.9l2.2-0.9L197.7,305.5z"/>
	<path class="st6" d="M199.7,302.5l-0.9-2.2l-2.2-0.9l-2.2,0.9l-0.9,2.2l0.9,2.2l2.2,0.9l2.2-0.9L199.7,302.5z"/>
	<path class="st6" d="M195.7,302.5l-0.9-2.2l-2.2-0.9l-2.2,0.9l-0.9,2.2l0.9,2.2l2.2,0.9l2.2-0.9L195.7,302.5z"/>
	<path class="st6" d="M197.7,305.5l-0.9-2.2l-2.2-0.9l-2.2,0.9l-0.9,2.2l0.9,2.2l2.2,0.9l2.2-0.9L197.7,305.5z"/>
	<path class="st6" d="M200.7,302.5l-0.9-2.2l-2.2-0.9l-2.2,0.9l-0.9,2.2l0.9,2.2l2.2,0.9l2.2-0.9L200.7,302.5z"/>
	<path class="st6" d="M195.7,307.5l-0.9-2.2l-2.2-0.9l-2.2,0.9l-0.9,2.2l0.9,2.2l2.2,0.9l2.2-0.9L195.7,307.5z"/>
	<path class="st6" d="M322.7,160.5l-0.9-2.2l-2.2-0.9l-2.2,0.9l-0.9,2.2l0.9,2.2l2.2,0.9l2.2-0.9L322.7,160.5z"/>
	<path class="st6" d="M195.7,307.5l-0.9-2.2l-2.2-0.9l-2.2,0.9l-0.9,2.2l0.9,2.2l2.2,0.9l2.2-0.9L195.7,307.5z"/>
	<path class="st6" d="M203.7,298.5l-0.9-2.2l-2.2-0.9l-2.2,0.9l-0.9,2.2l0.9,2.2l2.2,0.9l2.2-0.9L203.7,298.5z"/>
	<path class="st6" d="M199.7,302.5l-0.9-2.2l-2.2-0.9l-2.2,0.9l-0.9,2.2l0.9,2.2l2.2,0.9l2.2-0.9L199.7,302.5z"/>
	<path class="st6" d="M195.7,308.5l-0.9-2.2l-2.2-0.9l-2.2,0.9l-0.9,2.2l0.9,2.2l2.2,0.9l2.2-0.9L195.7,308.5z"/>
	<path class="st6" d="M267.7,224.5l-0.9-2.2l-2.2-0.9l-2.2,0.9l-0.9,2.2l0.9,2.2l2.2,0.9l2.2-0.9L267.7,224.5z"/>
	<path class="st6" d="M204.7,292.5l-0.9-2.2l-2.2-0.9l-2.2,0.9l-0.9,2.2l0.9,2.2l2.2,0.9l2.2-0.9L204.7,292.5z"/>
	<path class="st6" d="M201.7,301.5l-0.9-2.2l-2.2-0.9l-2.2,0.9l-0.9,2.2l0.9,2.2l2.2,0.9l2.2-0.9L201.7,301.5z"/>
	<path class="st6" d="M204.7,297.5l-0.9-2.2l-2.2-0.9l-2.2,0.9l-0.9,2.2l0.9,2.2l2.2,0.9l2.2-0.9L204.7,297.5z"/>
	<path class="st6" d="M199.7,303.5l-0.9-2.2l-2.2-0.9l-2.2,0.9l-0.9,2.2l0.9,2.2l2.2,0.9l2.2-0.9L199.7,303.5z"/>
	<path class="st6" d="M224.7,273.5l-0.9-2.2l-2.2-0.9l-2.2,0.9l-0.9,2.2l0.9,2.2l2.2,0.9l2.2-0.9L224.7,273.5z"/>
	<path class="st6" d="M198.7,305.5l-0.9-2.2l-2.2-0.9l-2.2,0.9l-0.9,2.2l0.9,2.2l2.2,0.9l2.2-0.9L198.7,305.5z"/>
	<path class="st6" d="M197.7,304.5l-0.9-2.2l-2.2-0.9l-2.2,0.9l-0.9,2.2l0.9,2.2l2.2,0.9l2.2-0.9L197.7,304.5z"/>
	<path class="st6" d="M202.7,300.5l-0.9-2.2l-2.2-0.9l-2.2,0.9l-0.9,2.2l0.9,2.2l2.2,0.9l2.2-0.9L202.7,300.5z"/>
	<path class="st6" d="M194.7,308.5l-0.9-2.2l-2.2-0.9l-2.2,0.9l-0.9,2.2l0.9,2.2l2.2,0.9l2.2-0.9L194.7,308.5z"/>
	<path class="st6" d="M195.7,307.5l-0.9-2.2l-2.2-0.9l-2.2,0.9l-0.9,2.2l0.9,2.2l2.2,0.9l2.2-0.9L195.7,307.5z"/>
	<path class="st6" d="M196.7,306.5l-0.9-2.2l-2.2-0.9l-2.2,0.9l-0.9,2.2l0.9,2.2l2.2,0.9l2.2-0.9L196.7,306.5z"/>
	<path class="st6" d="M263.7,229.5l-0.9-2.2l-2.2-0.9l-2.2,0.9l-0.9,2.2l0.9,2.2l2.2,0.9l2.2-0.9L263.7,229.5z"/>
	<path class="st6" d="M205.7,297.5l-0.9-2.2l-2.2-0.9l-2.2,0.9l-0.9,2.2l0.9,2.2l2.2,0.9l2.2-0.9L205.7,297.5z"/>
	<path class="st6" d="M416.7,56.5l-0.9-2.2l-2.2-0.9l-2.2,0.9l-0.9,2.2l0.9,2.2l2.2,0.9l2.2-0.9L416.7,56.5z"/>
	<path class="st6" d="M206.7,298.5l-0.9-2.2l-2.2-0.9l-2.2,0.9l-0.9,2.2l0.9,2.2l2.2,0.9l2.2-0.9L206.7,298.5z"/>
	<path class="st6" d="M248.7,244.5l-0.9-2.2l-2.2-0.9l-2.2,0.9l-0.9,2.2l0.9,2.2l2.2,0.9l2.2-0.9L248.7,244.5z"/>
	<path class="st6" d="M195.7,307.5l-0.9-2.2l-2.2-0.9l-2.2,0.9l-0.9,2.2l0.9,2.2l2.2,0.9l2.2-0.9L195.7,307.5z"/>
	<path class="st6" d="M200.7,301.5l-0.9-2.2l-2.2-0.9l-2.2,0.9l-0.9,2.2l0.9,2.2l2.2,0.9l2.2-0.9L200.7,301.5z"/>
	<path class="st6" d="M198.7,303.5l-0.9-2.2l-2.2-0.9l-2.2,0.9l-0.9,2.2l0.9,2.2l2.2,0.9l2.2-0.9L198.7,303.5z"/>
	<path class="st6" d="M201.7,300.5l-0.9-2.2l-2.2-0.9l-2.2,0.9l-0.9,2.2l0.9,2.2l2.2,0.9l2.2-0.9L201.7,300.5z"/>
	<path class="st6" d="M200.7,301.5l-0.9-2.2l-2.2-0.9l-2.2,0.9l-0.9,2.2l0.9,2.2l2.2,0.9l2.2-0.9L200.7,301.5z"/>
	<path class="st6" d="M198.7,304.5l-0.9-2.2l-2.2-0.9l-2.2,0.9l-0.9,2.2l0.9,2.2l2.2,0.9l2.2-0.9L198.7,304.5z"/>
	<path class="st6" d="M196.7,305.5l-0.9-2.2l-2.2-0.9l-2.2,0.9l-0.9,2.2l0.9,2.2l2.2,0.9l2.2-0.9L196.7,305.5z"/>
	<path class="st6" d="M262.7,240.5l-0.9-2.2l-2.2-0.9l-2.2,0.9l-0.9,2.2l0.9,2.2l2.2,0.9l2.2-0.9L262.7,240.5z"/>
	<path class="st6" d="M200.7,300.5l-0.9-2.2l-2.2-0.9l-2.2,0.9l-0.9,2.2l0.9,2.2l2.2,0.9l2.2-0.9L200.7,300.5z"/>
	<path class="st6" d="M201.7,304.5l-0.9-2.2l-2.2-0.9l-2.2,0.9l-0.9,2.2l0.9,2.2l2.2,0.9l2.2-0.9L201.7,304.5z"/>
	<path class="st6" d="M198.7,305.5l-0.9-2.2l-2.2-0.9l-2.2,0.9l-0.9,2.2l0.9,2.2l2.2,0.9l2.2-0.9L198.7,305.5z"/>
	<path class="st6" d="M196.7,307.5l-0.9-2.2l-2.2-0.9l-2.2,0.9l-0.9,2.2l0.9,2.2l2.2,0.9l2.2-0.9L196.7,307.5z"/>
	<path class="st6" d="M194.7,307.5l-0.9-2.2l-2.2-0.9l-2.2,0.9l-0.9,2.2l0.9,2.2l2.2,0.9l2.2-0.9L194.7,307.5z"/>
	<path class="st6" d="M195.7,307.5l-0.9-2.2l-2.2-0.9l-2.2,0.9l-0.9,2.2l0.9,2.2l2.2,0.9l2.2-0.9L195.7,307.5z"/>
	<path class="st6" d="M207.7,293.5l-0.9-2.2l-2.2-0.9l-2.2,0.9l-0.9,2.2l0.9,2.2l2.2,0.9l2.2-0.9L207.7,293.5z"/>
	<path class="st6" d="M205.7,296.5l-0.9-2.2l-2.2-0.9l-2.2,0.9l-0.9,2.2l0.9,2.2l2.2,0.9l2.2-0.9L205.7,296.5z"/>
	<path class="st6" d="M222.7,276.5l-0.9-2.2l-2.2-0.9l-2.2,0.9l-0.9,2.2l0.9,2.2l2.2,0.9l2.2-0.9L222.7,276.5z"/>
	<path class="st6" d="M204.7,283.5l-0.9-2.2l-2.2-0.9l-2.2,0.9l-0.9,2.2l0.9,2.2l2.2,0.9l2.2-0.9L204.7,283.5z"/>
	<path class="st6" d="M226.7,271.5l-0.9-2.2l-2.2-0.9l-2.2,0.9l-0.9,2.2l0.9,2.2l2.2,0.9l2.2-0.9L226.7,271.5z"/>
	<path class="st6" d="M196.7,306.5l-0.9-2.2l-2.2-0.9l-2.2,0.9l-0.9,2.2l0.9,2.2l2.2,0.9l2.2-0.9L196.7,306.5z"/>
	<path class="st6" d="M204.7,297.5l-0.9-2.2l-2.2-0.9l-2.2,0.9l-0.9,2.2l0.9,2.2l2.2,0.9l2.2-0.9L204.7,297.5z"/>
	<path class="st6" d="M228.7,270.5l-0.9-2.2l-2.2-0.9l-2.2,0.9l-0.9,2.2l0.9,2.2l2.2,0.9l2.2-0.9L228.7,270.5z"/>
	<path class="st6" d="M199.7,303.5l-0.9-2.2l-2.2-0.9l-2.2,0.9l-0.9,2.2l0.9,2.2l2.2,0.9l2.2-0.9L199.7,303.5z"/>
	<path class="st6" d="M210.7,288.5l-0.9-2.2l-2.2-0.9l-2.2,0.9l-0.9,2.2l0.9,2.2l2.2,0.9l2.2-0.9L210.7,288.5z"/>
	<path class="st6" d="M195.7,307.5l-0.9-2.2l-2.2-0.9l-2.2,0.9l-0.9,2.2l0.9,2.2l2.2,0.9l2.2-0.9L195.7,307.5z"/>
	<path class="st6" d="M195.7,306.5l-0.9-2.2l-2.2-0.9l-2.2,0.9l-0.9,2.2l0.9,2.2l2.2,0.9l2.2-0.9L195.7,306.5z"/>
	<path class="st6" d="M213.7,282.5l-0.9-2.2l-2.2-0.9l-2.2,0.9l-0.9,2.2l0.9,2.2l2.2,0.9l2.2-0.9L213.7,282.5z"/>
	<path class="st6" d="M207.7,300.5l-0.9-2.2l-2.2-0.9l-2.2,0.9l-0.9,2.2l0.9,2.2l2.2,0.9l2.2-0.9L207.7,300.5z"/>
	<path class="st6" d="M206.7,294.5l-0.9-2.2l-2.2-0.9l-2.2,0.9l-0.9,2.2l0.9,2.2l2.2,0.9l2.2-0.9L206.7,294.5z"/>
	<path class="st6" d="M195.7,307.5l-0.9-2.2l-2.2-0.9l-2.2,0.9l-0.9,2.2l0.9,2.2l2.2,0.9l2.2-0.9L195.7,307.5z"/>
	<path class="st6" d="M209.7,292.5l-0.9-2.2l-2.2-0.9l-2.2,0.9l-0.9,2.2l0.9,2.2l2.2,0.9l2.2-0.9L209.7,292.5z"/>
	<path class="st6" d="M200.7,302.5l-0.9-2.2l-2.2-0.9l-2.2,0.9l-0.9,2.2l0.9,2.2l2.2,0.9l2.2-0.9L200.7,302.5z"/>
	<path class="st6" d="M196.7,306.5l-0.9-2.2l-2.2-0.9l-2.2,0.9l-0.9,2.2l0.9,2.2l2.2,0.9l2.2-0.9L196.7,306.5z"/>
	<path class="st6" d="M224.7,273.5l-0.9-2.2l-2.2-0.9l-2.2,0.9l-0.9,2.2l0.9,2.2l2.2,0.9l2.2-0.9L224.7,273.5z"/>
	<path class="st6" d="M201.7,301.5l-0.9-2.2l-2.2-0.9l-2.2,0.9l-0.9,2.2l0.9,2.2l2.2,0.9l2.2-0.9L201.7,301.5z"/>
	<path class="st6" d="M196.7,306.5l-0.9-2.2l-2.2-0.9l-2.2,0.9l-0.9,2.2l0.9,2.2l2.2,0.9l2.2-0.9L196.7,306.5z"/>
	<path class="st6" d="M211.7,292.5l-0.9-2.2l-2.2-0.9l-2.2,0.9l-0.9,2.2l0.9,2.2l2.2,0.9l2.2-0.9L211.7,292.5z"/>
	<path class="st6" d="M195.7,307.5l-0.9-2.2l-2.2-0.9l-2.2,0.9l-0.9,2.2l0.9,2.2l2.2,0.9l2.2-0.9L195.7,307.5z"/>
	<path class="st6" d="M216.7,285.5l-0.9-2.2l-2.2-0.9l-2.2,0.9l-0.9,2.2l0.9,2.2l2.2,0.9l2.2-0.9L216.7,285.5z"/>
	<path class="st6" d="M195.7,308.5l-0.9-2.2l-2.2-0.9l-2.2,0.9l-0.9,2.2l0.9,2.2l2.2,0.9l2.2-0.9L195.7,308.5z"/>
	<path class="st6" d="M222.7,279.5l-0.9-2.2l-2.2-0.9l-2.2,0.9l-0.9,2.2l0.9,2.2l2.2,0.9l2.2-0.9L222.7,279.5z"/>
	<path class="st6" d="M200.7,300.5l-0.9-2.2l-2.2-0.9l-2.2,0.9l-0.9,2.2l0.9,2.2l2.2,0.9l2.2-0.9L200.7,300.5z"/>
	<path class="st6" d="M195.7,307.5l-0.9-2.2l-2.2-0.9l-2.2,0.9l-0.9,2.2l0.9,2.2l2.2,0.9l2.2-0.9L195.7,307.5z"/>
	<path class="st6" d="M223.7,286.5l-0.9-2.2l-2.2-0.9l-2.2,0.9l-0.9,2.2l0.9,2.2l2.2,0.9l2.2-0.9L223.7,286.5z"/>
	<path class="st6" d="M198.7,304.5l-0.9-2.2l-2.2-0.9l-2.2,0.9l-0.9,2.2l0.9,2.2l2.2,0.9l2.2-0.9L198.7,304.5z"/>
	<path class="st6" d="M203.7,297.5l-0.9-2.2l-2.2-0.9l-2.2,0.9l-0.9,2.2l0.9,2.2l2.2,0.9l2.2-0.9L203.7,297.5z"/>
	<path class="st6" d="M196.7,307.5l-0.9-2.2l-2.2-0.9l-2.2,0.9l-0.9,2.2l0.9,2.2l2.2,0.9l2.2-0.9L196.7,307.5z"/>
	<path class="st6" d="M241.7,254.5l-0.9-2.2l-2.2-0.9l-2.2,0.9l-0.9,2.2l0.9,2.2l2.2,0.9l2.2-0.9L241.7,254.5z"/>
	<path class="st6" d="M214.7,286.5l-0.9-2.2l-2.2-0.9l-2.2,0.9l-0.9,2.2l0.9,2.2l2.2,0.9l2.2-0.9L214.7,286.5z"/>
	<path class="st6" d="M202.7,297.5l-0.9-2.2l-2.2-0.9l-2.2,0.9l-0.9,2.2l0.9,2.2l2.2,0.9l2.2-0.9L202.7,297.5z"/>
</g>
<line class="st0" x1="302" y1="624" x2="302" y2="618.9"/>
<g transform="translate(209.6195,668.8)">
	<text transform="matrix(1 0 0 1 -6.5 -29)" class="st3 st4">-1</text>
</g>
<g transform="translate(302,668.8)">
	<text transform="matrix(1 0 0 1 -4 -29)" class="st3 st4">0</text>
</g>
<g transform="translate(394.3805,668.8)">
	<text transform="matrix(1 0 0 1 -4 -29)" class="st3 st4">1</text>
</g>
<path class="st0" d="M191,624V371V624z"/>
<g transform="translate(186.2,664)">
	<text transform="matrix(1 0 0 1 -8 -36.5)" class="st3 st4">0</text>
</g>
<g transform="translate(186.2,411)">
	<text transform="matrix(1 0 0 1 -24 -36.5)" class="st3 st4">200</text>
</g>
<g>
	<path class="st2" d="M260.4,624v-1.3h4.6v1.3H260.4z"/>
	<path class="st2" d="M265,624L265,624h4.6l0,0H265z"/>
	<path class="st2" d="M269.7,624v-1.3h4.6v1.3H269.7z"/>
	<path class="st2" d="M274.3,624L274.3,624h4.6l0,0H274.3z"/>
	<path class="st2" d="M278.9,624v-1.3h4.6v1.3H278.9z"/>
	<path class="st2" d="M283.5,624v-2.5h4.6v2.5H283.5z"/>
	<path class="st2" d="M288.1,624v-6.3h4.6v6.3H288.1z"/>
	<path class="st2" d="M292.8,624v-8.9h4.6v8.9H292.8z"/>
	<path class="st2" d="M297.4,624V383.6h4.6V624H297.4z"/>
	<path class="st2" d="M302,624v-46.8h4.6V624H302z"/>
	<path class="st2" d="M306.6,624v-1.3h4.6v1.3H306.6z"/>
	<path class="st2" d="M311.2,624L311.2,624h4.6l0,0H311.2z"/>
	<path class="st2" d="M315.9,624L315.9,624h4.6l0,0H315.9z"/>
	<path class="st2" d="M320.5,624L320.5,624h4.6l0,0H320.5z"/>
	<path class="st2" d="M325.1,624L325.1,624h4.6l0,0H325.1z"/>
	<path class="st2" d="M329.7,624L329.7,624h4.6l0,0H329.7z"/>
	<path class="st2" d="M334.3,624L334.3,624h4.6l0,0H334.3z"/>
	<path class="st2" d="M339,624L339,624h4.6l0,0H339z"/>
	<path class="st2" d="M343.6,624L343.6,624h4.6l0,0H343.6z"/>
	<path class="st2" d="M348.2,624L348.2,624h4.6l0,0H348.2z"/>
	<path class="st2" d="M352.8,624L352.8,624h4.6l0,0H352.8z"/>
	<path class="st2" d="M357.4,624L357.4,624h4.6l0,0H357.4z"/>
	<path class="st2" d="M362,624L362,624h4.6l0,0H362z"/>
	<path class="st2" d="M366.7,624v-1.3h4.6v1.3H366.7z"/>
</g>
<line class="st7" x1="265" y1="624" x2="269.7" y2="624"/>
<line class="st7" x1="274.3" y1="624" x2="278.9" y2="624"/>
<path class="st7" d="M311.2,624h4.6l0,0l0,0"/>
<path class="st7" d="M315.9,624h4.6l0,0l0,0"/>
<path class="st7" d="M320.5,624h4.6l0,0l0,0"/>
<path class="st7" d="M325.1,624h4.6l0,0l0,0"/>
<path class="st7" d="M329.7,624h4.6l0,0l0,0"/>
<path class="st7" d="M334.3,624h4.6l0,0l0,0"/>
<path class="st7" d="M339,624h4.6l0,0l0,0"/>
<path class="st7" d="M343.6,624h4.6l0,0l0,0"/>
<path class="st7" d="M348.2,624h4.6l0,0l0,0"/>
<path class="st7" d="M352.8,624h4.6l0,0l0,0"/>
<path class="st7" d="M357.4,624h4.6l0,0l0,0"/>
<line class="st7" x1="362" y1="624" x2="366.7" y2="624"/>
<line class="st8" x1="302" y1="624" x2="302" y2="371"/>
<line class="st0" x1="488" y1="309" x2="488" y2="303.9"/>
<g transform="translate(488,313.8)">
	<text transform="matrix(1 0 0 1 -4 11)" class="st3 st4">0</text>
</g>
<g transform="translate(564.243,313.8)">
	<text transform="matrix(1 0 0 1 -10 11)" class="st3 st4">0.5</text>
</g>
<g transform="translate(640.4861,313.8)">
	<text transform="matrix(1 0 0 1 -4 11)" class="st3 st4">1</text>
</g>
<g transform="translate(483.2,309)">
	<text transform="matrix(1 0 0 1 -8 3.5)" class="st3 st4">0</text>
</g>
<g transform="translate(483.2,274.2442)">
	<text transform="matrix(1 0 0 1 -20 3.5)" class="st3 st4">0.2</text>
</g>
<g transform="translate(483.2,239.4883)">
	<text transform="matrix(1 0 0 1 -20 3.5)" class="st3 st4">0.4</text>
</g>
<g transform="translate(483.2,204.7325)">
	<text transform="matrix(1 0 0 1 -20 3.5)" class="st3 st4">0.6</text>
</g>
<g transform="translate(483.2,169.9767)">
	<text transform="matrix(1 0 0 1 -20 3.5)" class="st3 st4">0.8</text>
</g>
<g transform="translate(483.2,135.2208)">
	<text transform="matrix(1 0 0 1 -8 3.5)" class="st3 st4">1</text>
</g>
<g transform="translate(483.2,100.465)">
	<text transform="matrix(1 0 0 1 -20 3.5)" class="st3 st4">1.2</text>
</g>
<g transform="translate(483.2,65.7092)">
	<text transform="matrix(1 0 0 1 -20 3.5)" class="st3 st4">1.4</text>
</g>
<g>
	<path class="st5" d="M493.7,285.5l-0.9-2.2l-2.2-0.9l-2.2,0.9l-0.9,2.2l0.9,2.2l2.2,0.9l2.2-0.9L493.7,285.5z"/>
	<path class="st5" d="M513.7,279.5l-0.9-2.2l-2.2-0.9l-2.2,0.9l-0.9,2.2l0.9,2.2l2.2,0.9l2.2-0.9L513.7,279.5z"/>
	<path class="st5" d="M502.7,295.5l-0.9-2.2l-2.2-0.9l-2.2,0.9l-0.9,2.2l0.9,2.2l2.2,0.9l2.2-0.9L502.7,295.5z"/>
	<path class="st5" d="M521.7,273.5l-0.9-2.2l-2.2-0.9l-2.2,0.9l-0.9,2.2l0.9,2.2l2.2,0.9l2.2-0.9L521.7,273.5z"/>
	<path class="st5" d="M491.7,307.5l-0.9-2.2l-2.2-0.9l-2.2,0.9l-0.9,2.2l0.9,2.2l2.2,0.9l2.2-0.9L491.7,307.5z"/>
	<path class="st5" d="M513.7,278.5l-0.9-2.2l-2.2-0.9l-2.2,0.9l-0.9,2.2l0.9,2.2l2.2,0.9l2.2-0.9L513.7,278.5z"/>
	<path class="st5" d="M585.7,149.5l-0.9-2.2l-2.2-0.9l-2.2,0.9l-0.9,2.2l0.9,2.2l2.2,0.9l2.2-0.9L585.7,149.5z"/>
	<path class="st5" d="M507.7,280.5l-0.9-2.2l-2.2-0.9l-2.2,0.9l-0.9,2.2l0.9,2.2l2.2,0.9l2.2-0.9L507.7,280.5z"/>
	<path class="st6" d="M517.7,277.5l-0.9-2.2l-2.2-0.9l-2.2,0.9l-0.9,2.2l0.9,2.2l2.2,0.9l2.2-0.9L517.7,277.5z"/>
	<path class="st6" d="M493.7,305.5l-0.9-2.2l-2.2-0.9l-2.2,0.9l-0.9,2.2l0.9,2.2l2.2,0.9l2.2-0.9L493.7,305.5z"/>
	<path class="st6" d="M496.7,302.5l-0.9-2.2l-2.2-0.9l-2.2,0.9l-0.9,2.2l0.9,2.2l2.2,0.9l2.2-0.9L496.7,302.5z"/>
	<path class="st6" d="M493.7,302.5l-0.9-2.2l-2.2-0.9l-2.2,0.9l-0.9,2.2l0.9,2.2l2.2,0.9l2.2-0.9L493.7,302.5z"/>
	<path class="st6" d="M618.7,160.5l-0.9-2.2l-2.2-0.9l-2.2,0.9l-0.9,2.2l0.9,2.2l2.2,0.9l2.2-0.9L618.7,160.5z"/>
	<path class="st6" d="M495.7,298.5l-0.9-2.2l-2.2-0.9l-2.2,0.9l-0.9,2.2l0.9,2.2l2.2,0.9l2.2-0.9L495.7,298.5z"/>
	<path class="st6" d="M494.7,302.5l-0.9-2.2l-2.2-0.9l-2.2,0.9l-0.9,2.2l0.9,2.2l2.2,0.9l2.2-0.9L494.7,302.5z"/>
	<path class="st6" d="M561.7,224.5l-0.9-2.2l-2.2-0.9l-2.2,0.9l-0.9,2.2l0.9,2.2l2.2,0.9l2.2-0.9L561.7,224.5z"/>
	<path class="st6" d="M500.7,292.5l-0.9-2.2l-2.2-0.9l-2.2,0.9l-0.9,2.2l0.9,2.2l2.2,0.9l2.2-0.9L500.7,292.5z"/>
	<path class="st6" d="M494.7,301.5l-0.9-2.2l-2.2-0.9l-2.2,0.9l-0.9,2.2l0.9,2.2l2.2,0.9l2.2-0.9L494.7,301.5z"/>
	<path class="st6" d="M497.7,297.5l-0.9-2.2l-2.2-0.9l-2.2,0.9l-0.9,2.2l0.9,2.2l2.2,0.9l2.2-0.9L497.7,297.5z"/>
	<path class="st6" d="M495.7,303.5l-0.9-2.2l-2.2-0.9l-2.2,0.9l-0.9,2.2l0.9,2.2l2.2,0.9l2.2-0.9L495.7,303.5z"/>
	<path class="st6" d="M519.7,273.5l-0.9-2.2l-2.2-0.9l-2.2,0.9l-0.9,2.2l0.9,2.2l2.2,0.9l2.2-0.9L519.7,273.5z"/>
	<path class="st6" d="M493.7,304.5l-0.9-2.2l-2.2-0.9l-2.2,0.9l-0.9,2.2l0.9,2.2l2.2,0.9l2.2-0.9L493.7,304.5z"/>
	<path class="st6" d="M498.7,300.5l-0.9-2.2l-2.2-0.9l-2.2,0.9l-0.9,2.2l0.9,2.2l2.2,0.9l2.2-0.9L498.7,300.5z"/>
	<path class="st6" d="M491.7,307.5l-0.9-2.2l-2.2-0.9l-2.2,0.9l-0.9,2.2l0.9,2.2l2.2,0.9l2.2-0.9L491.7,307.5z"/>
	<path class="st6" d="M491.7,306.5l-0.9-2.2l-2.2-0.9l-2.2,0.9l-0.9,2.2l0.9,2.2l2.2,0.9l2.2-0.9L491.7,306.5z"/>
	<path class="st6" d="M552.7,229.5l-0.9-2.2l-2.2-0.9l-2.2,0.9l-0.9,2.2l0.9,2.2l2.2,0.9l2.2-0.9L552.7,229.5z"/>
	<path class="st6" d="M497.7,297.5l-0.9-2.2l-2.2-0.9l-2.2,0.9l-0.9,2.2l0.9,2.2l2.2,0.9l2.2-0.9L497.7,297.5z"/>
	<path class="st6" d="M692.7,56.5l-0.9-2.2l-2.2-0.9l-2.2,0.9l-0.9,2.2l0.9,2.2l2.2,0.9l2.2-0.9L692.7,56.5z"/>
	<path class="st6" d="M549.7,244.5l-0.9-2.2l-2.2-0.9l-2.2,0.9l-0.9,2.2l0.9,2.2l2.2,0.9l2.2-0.9L549.7,244.5z"/>
	<path class="st6" d="M491.7,307.5l-0.9-2.2l-2.2-0.9l-2.2,0.9l-0.9,2.2l0.9,2.2l2.2,0.9l2.2-0.9L491.7,307.5z"/>
	<path class="st6" d="M496.7,301.5l-0.9-2.2l-2.2-0.9l-2.2,0.9l-0.9,2.2l0.9,2.2l2.2,0.9l2.2-0.9L496.7,301.5z"/>
	<path class="st6" d="M496.7,300.5l-0.9-2.2l-2.2-0.9l-2.2,0.9l-0.9,2.2l0.9,2.2l2.2,0.9l2.2-0.9L496.7,300.5z"/>
	<path class="st6" d="M493.7,305.5l-0.9-2.2l-2.2-0.9l-2.2,0.9l-0.9,2.2l0.9,2.2l2.2,0.9l2.2-0.9L493.7,305.5z"/>
	<path class="st6" d="M528.7,240.5l-0.9-2.2l-2.2-0.9l-2.2,0.9l-0.9,2.2l0.9,2.2l2.2,0.9l2.2-0.9L528.7,240.5z"/>
	<path class="st6" d="M498.7,300.5l-0.9-2.2l-2.2-0.9l-2.2,0.9l-0.9,2.2l0.9,2.2l2.2,0.9l2.2-0.9L498.7,300.5z"/>
	<path class="st6" d="M501.7,297.5l-0.9-2.2l-2.2-0.9l-2.2,0.9l-0.9,2.2l0.9,2.2l2.2,0.9l2.2-0.9L501.7,297.5z"/>
	<path class="st6" d="M495.7,303.5l-0.9-2.2l-2.2-0.9l-2.2,0.9l-0.9,2.2l0.9,2.2l2.2,0.9l2.2-0.9L495.7,303.5z"/>
	<path class="st6" d="M491.7,307.5l-0.9-2.2l-2.2-0.9l-2.2,0.9l-0.9,2.2l0.9,2.2l2.2,0.9l2.2-0.9L491.7,307.5z"/>
	<path class="st6" d="M492.7,306.5l-0.9-2.2l-2.2-0.9l-2.2,0.9l-0.9,2.2l0.9,2.2l2.2,0.9l2.2-0.9L492.7,306.5z"/>
	<path class="st6" d="M514.7,282.5l-0.9-2.2l-2.2-0.9l-2.2,0.9l-0.9,2.2l0.9,2.2l2.2,0.9l2.2-0.9L514.7,282.5z"/>
	<path class="st6" d="M502.7,294.5l-0.9-2.2l-2.2-0.9l-2.2,0.9l-0.9,2.2l0.9,2.2l2.2,0.9l2.2-0.9L502.7,294.5z"/>
	<path class="st6" d="M520.7,273.5l-0.9-2.2l-2.2-0.9l-2.2,0.9l-0.9,2.2l0.9,2.2l2.2,0.9l2.2-0.9L520.7,273.5z"/>
	<path class="st6" d="M496.7,301.5l-0.9-2.2l-2.2-0.9l-2.2,0.9l-0.9,2.2l0.9,2.2l2.2,0.9l2.2-0.9L496.7,301.5z"/>
	<path class="st6" d="M493.7,286.5l-0.9-2.2l-2.2-0.9l-2.2,0.9l-0.9,2.2l0.9,2.2l2.2,0.9l2.2-0.9L493.7,286.5z"/>
	<path class="st6" d="M492.7,304.5l-0.9-2.2l-2.2-0.9l-2.2,0.9l-0.9,2.2l0.9,2.2l2.2,0.9l2.2-0.9L492.7,304.5z"/>
	<path class="st6" d="M491.7,297.5l-0.9-2.2l-2.2-0.9l-2.2,0.9l-0.9,2.2l0.9,2.2l2.2,0.9l2.2-0.9L491.7,297.5z"/>
	<path class="st6" d="M525.7,254.5l-0.9-2.2l-2.2-0.9l-2.2,0.9l-0.9,2.2l0.9,2.2l2.2,0.9l2.2-0.9L525.7,254.5z"/>
	<path class="st6" d="M508.7,286.5l-0.9-2.2l-2.2-0.9l-2.2,0.9l-0.9,2.2l0.9,2.2l2.2,0.9l2.2-0.9L508.7,286.5z"/>
	<path class="st6" d="M498.7,297.5l-0.9-2.2l-2.2-0.9l-2.2,0.9l-0.9,2.2l0.9,2.2l2.2,0.9l2.2-0.9L498.7,297.5z"/>
</g>
<line class="st0" x1="599" y1="624" x2="599" y2="618.9"/>
<g transform="translate(506.6195,668.8)">
	<text transform="matrix(1 0 0 1 -6.5 -29)" class="st3 st4">-1</text>
</g>
<g transform="translate(599,668.8)">
	<text transform="matrix(1 0 0 1 -4 -29)" class="st3 st4">0</text>
</g>
<g transform="translate(691.3805,668.8)">
	<text transform="matrix(1 0 0 1 -4 -29)" class="st3 st4">1</text>
</g>
<line class="st0" x1="488" y1="624" x2="488" y2="371"/>
<g transform="translate(483.2,664)">
	<text transform="matrix(1 0 0 1 -8 -36.5)" class="st3 st4">0</text>
</g>
<g transform="translate(483.2,411)">
	<text transform="matrix(1 0 0 1 -24 -36.5)" class="st3 st4">150</text>
</g>
<path class="st2" d="M594.4,624v-3.4h4.6v3.4H594.4z"/>
<path class="st2" d="M599,624V379.4h4.6V624H599z"/>
<path class="st2" d="M603.6,624v-42.2h4.6V624H603.6z"/>
<path class="st2" d="M608.2,624v-20.2h4.6V624H608.2z"/>
<path class="st2" d="M612.9,624v-3.4h4.6v3.4H612.9z"/>
<path class="st2" d="M617.5,624v-3.4h4.6v3.4H617.5z"/>
<path class="st2" d="M622.1,624v-1.7h4.6v1.7H622.1z"/>
<path class="st2" d="M626.7,624v-5.1h4.6v5.1H626.7z"/>
<path class="st2" d="M631.3,624v-1.7h4.6v1.7H631.3z"/>
<path class="st2" d="M636,624L636,624h4.6l0,0H636z"/>
<path class="st2" d="M640.6,624v-1.7h4.6v1.7H640.6z"/>
<path class="st2" d="M645.2,624L645.2,624h4.6l0,0H645.2z"/>
<path class="st2" d="M649.8,624v-1.7h4.6v1.7H649.8z"/>
<line class="st7" x1="636" y1="624" x2="640.6" y2="624"/>
<line class="st7" x1="645.2" y1="624" x2="649.8" y2="624"/>
<line class="st8" x1="599" y1="624" x2="599" y2="371"/>
<g transform="translate(785,313.8)">
	<text transform="matrix(1 0 0 1 -4 11)" class="st3 st4">0</text>
</g>
<g transform="translate(860.8996,313.8)">
	<text transform="matrix(1 0 0 1 -10 11)" class="st3 st4">0.5</text>
</g>
<g transform="translate(936.7992,313.8)">
	<text transform="matrix(1 0 0 1 -4 11)" class="st3 st4">1</text>
</g>
<g transform="translate(780.2,309)">
	<text transform="matrix(1 0 0 1 -8 3.5)" class="st3 st4">0</text>
</g>
<g transform="translate(780.2,274.2442)">
	<text transform="matrix(1 0 0 1 -20 3.5)" class="st3 st4">0.2</text>
</g>
<g transform="translate(780.2,239.4883)">
	<text transform="matrix(1 0 0 1 -20 3.5)" class="st3 st4">0.4</text>
</g>
<g transform="translate(780.2,204.7325)">
	<text transform="matrix(1 0 0 1 -20 3.5)" class="st3 st4">0.6</text>
</g>
<g transform="translate(780.2,169.9767)">
	<text transform="matrix(1 0 0 1 -20 3.5)" class="st3 st4">0.8</text>
</g>
<g transform="translate(780.2,135.2208)">
	<text transform="matrix(1 0 0 1 -8 3.5)" class="st3 st4">1</text>
</g>
<g transform="translate(780.2,100.465)">
	<text transform="matrix(1 0 0 1 -20 3.5)" class="st3 st4">1.2</text>
</g>
<g transform="translate(780.2,65.7092)">
	<text transform="matrix(1 0 0 1 -20 3.5)" class="st3 st4">1.4</text>
</g>
<g>
	<path class="st5" d="M788.7,306.5l-0.9-2.2l-2.2-0.9l-2.2,0.9l-0.9,2.2l0.9,2.2l2.2,0.9l2.2-0.9L788.7,306.5z"/>
	<path class="st5" d="M788.7,306.5l-0.9-2.2l-2.2-0.9l-2.2,0.9l-0.9,2.2l0.9,2.2l2.2,0.9l2.2-0.9L788.7,306.5z"/>
	<path class="st5" d="M808.7,279.5l-0.9-2.2l-2.2-0.9l-2.2,0.9l-0.9,2.2l0.9,2.2l2.2,0.9l2.2-0.9L808.7,279.5z"/>
	<path class="st5" d="M799.7,295.5l-0.9-2.2l-2.2-0.9l-2.2,0.9l-0.9,2.2l0.9,2.2l2.2,0.9l2.2-0.9L799.7,295.5z"/>
	<path class="st5" d="M817.7,273.5l-0.9-2.2l-2.2-0.9l-2.2,0.9l-0.9,2.2l0.9,2.2l2.2,0.9l2.2-0.9L817.7,273.5z"/>
	<path class="st5" d="M788.7,307.5l-0.9-2.2l-2.2-0.9l-2.2,0.9l-0.9,2.2l0.9,2.2l2.2,0.9l2.2-0.9L788.7,307.5z"/>
	<path class="st5" d="M811.7,278.5l-0.9-2.2l-2.2-0.9l-2.2,0.9l-0.9,2.2l0.9,2.2l2.2,0.9l2.2-0.9L811.7,278.5z"/>
	<path class="st5" d="M880.7,149.5l-0.9-2.2l-2.2-0.9l-2.2,0.9l-0.9,2.2l0.9,2.2l2.2,0.9l2.2-0.9L880.7,149.5z"/>
	<path class="st5" d="M804.7,280.5l-0.9-2.2l-2.2-0.9l-2.2,0.9l-0.9,2.2l0.9,2.2l2.2,0.9l2.2-0.9L804.7,280.5z"/>
	<path class="st6" d="M814.7,277.5l-0.9-2.2l-2.2-0.9l-2.2,0.9l-0.9,2.2l0.9,2.2l2.2,0.9l2.2-0.9L814.7,277.5z"/>
	<path class="st6" d="M790.7,305.5l-0.9-2.2l-2.2-0.9l-2.2,0.9l-0.9,2.2l0.9,2.2l2.2,0.9l2.2-0.9L790.7,305.5z"/>
	<path class="st6" d="M793.7,302.5l-0.9-2.2l-2.2-0.9l-2.2,0.9l-0.9,2.2l0.9,2.2l2.2,0.9l2.2-0.9L793.7,302.5z"/>
	<path class="st6" d="M916.7,160.5l-0.9-2.2l-2.2-0.9l-2.2,0.9l-0.9,2.2l0.9,2.2l2.2,0.9l2.2-0.9L916.7,160.5z"/>
	<path class="st6" d="M795.7,298.5l-0.9-2.2l-2.2-0.9l-2.2,0.9l-0.9,2.2l0.9,2.2l2.2,0.9l2.2-0.9L795.7,298.5z"/>
	<path class="st6" d="M790.7,302.5l-0.9-2.2l-2.2-0.9l-2.2,0.9l-0.9,2.2l0.9,2.2l2.2,0.9l2.2-0.9L790.7,302.5z"/>
	<path class="st6" d="M859.7,224.5l-0.9-2.2l-2.2-0.9l-2.2,0.9l-0.9,2.2l0.9,2.2l2.2,0.9l2.2-0.9L859.7,224.5z"/>
	<path class="st6" d="M797.7,292.5l-0.9-2.2l-2.2-0.9l-2.2,0.9l-0.9,2.2l0.9,2.2l2.2,0.9l2.2-0.9L797.7,292.5z"/>
	<path class="st6" d="M792.7,301.5l-0.9-2.2l-2.2-0.9l-2.2,0.9l-0.9,2.2l0.9,2.2l2.2,0.9l2.2-0.9L792.7,301.5z"/>
	<path class="st6" d="M794.7,297.5l-0.9-2.2l-2.2-0.9l-2.2,0.9l-0.9,2.2l0.9,2.2l2.2,0.9l2.2-0.9L794.7,297.5z"/>
	<path class="st6" d="M791.7,303.5l-0.9-2.2l-2.2-0.9l-2.2,0.9l-0.9,2.2l0.9,2.2l2.2,0.9l2.2-0.9L791.7,303.5z"/>
	<path class="st6" d="M817.7,273.5l-0.9-2.2l-2.2-0.9l-2.2,0.9l-0.9,2.2l0.9,2.2l2.2,0.9l2.2-0.9L817.7,273.5z"/>
	<path class="st6" d="M790.7,304.5l-0.9-2.2l-2.2-0.9l-2.2,0.9l-0.9,2.2l0.9,2.2l2.2,0.9l2.2-0.9L790.7,304.5z"/>
	<path class="st6" d="M793.7,300.5l-0.9-2.2l-2.2-0.9l-2.2,0.9l-0.9,2.2l0.9,2.2l2.2,0.9l2.2-0.9L793.7,300.5z"/>
	<path class="st6" d="M788.7,307.5l-0.9-2.2l-2.2-0.9l-2.2,0.9l-0.9,2.2l0.9,2.2l2.2,0.9l2.2-0.9L788.7,307.5z"/>
	<path class="st6" d="M788.7,306.5l-0.9-2.2l-2.2-0.9l-2.2,0.9l-0.9,2.2l0.9,2.2l2.2,0.9l2.2-0.9L788.7,306.5z"/>
	<path class="st6" d="M860.7,229.5l-0.9-2.2l-2.2-0.9l-2.2,0.9l-0.9,2.2l0.9,2.2l2.2,0.9l2.2-0.9L860.7,229.5z"/>
	<path class="st6" d="M792.7,297.5l-0.9-2.2l-2.2-0.9l-2.2,0.9l-0.9,2.2l0.9,2.2l2.2,0.9l2.2-0.9L792.7,297.5z"/>
	<path class="st6" d="M1002.7,56.5l-0.9-2.2l-2.2-0.9l-2.2,0.9l-0.9,2.2l0.9,2.2l2.2,0.9l2.2-0.9L1002.7,56.5z"/>
	<path class="st6" d="M845.7,244.5l-0.9-2.2l-2.2-0.9l-2.2,0.9l-0.9,2.2l0.9,2.2l2.2,0.9l2.2-0.9L845.7,244.5z"/>
	<path class="st6" d="M792.7,301.5l-0.9-2.2l-2.2-0.9l-2.2,0.9l-0.9,2.2l0.9,2.2l2.2,0.9l2.2-0.9L792.7,301.5z"/>
	<path class="st6" d="M789.7,303.5l-0.9-2.2l-2.2-0.9l-2.2,0.9l-0.9,2.2l0.9,2.2l2.2,0.9l2.2-0.9L789.7,303.5z"/>
	<path class="st6" d="M794.7,300.5l-0.9-2.2l-2.2-0.9l-2.2,0.9l-0.9,2.2l0.9,2.2l2.2,0.9l2.2-0.9L794.7,300.5z"/>
	<path class="st6" d="M790.7,305.5l-0.9-2.2l-2.2-0.9l-2.2,0.9l-0.9,2.2l0.9,2.2l2.2,0.9l2.2-0.9L790.7,305.5z"/>
	<path class="st6" d="M825.7,240.5l-0.9-2.2l-2.2-0.9l-2.2,0.9l-0.9,2.2l0.9,2.2l2.2,0.9l2.2-0.9L825.7,240.5z"/>
	<path class="st6" d="M795.7,300.5l-0.9-2.2l-2.2-0.9l-2.2,0.9l-0.9,2.2l0.9,2.2l2.2,0.9l2.2-0.9L795.7,300.5z"/>
	<path class="st6" d="M788.7,307.5l-0.9-2.2l-2.2-0.9l-2.2,0.9l-0.9,2.2l0.9,2.2l2.2,0.9l2.2-0.9L788.7,307.5z"/>
	<path class="st6" d="M788.7,307.5l-0.9-2.2l-2.2-0.9l-2.2,0.9l-0.9,2.2l0.9,2.2l2.2,0.9l2.2-0.9L788.7,307.5z"/>
	<path class="st6" d="M799.7,293.5l-0.9-2.2l-2.2-0.9l-2.2,0.9l-0.9,2.2l0.9,2.2l2.2,0.9l2.2-0.9L799.7,293.5z"/>
	<path class="st6" d="M798.7,296.5l-0.9-2.2l-2.2-0.9l-2.2,0.9l-0.9,2.2l0.9,2.2l2.2,0.9l2.2-0.9L798.7,296.5z"/>
	<path class="st6" d="M815.7,276.5l-0.9-2.2l-2.2-0.9l-2.2,0.9l-0.9,2.2l0.9,2.2l2.2,0.9l2.2-0.9L815.7,276.5z"/>
	<path class="st6" d="M809.7,283.5l-0.9-2.2l-2.2-0.9l-2.2,0.9l-0.9,2.2l0.9,2.2l2.2,0.9l2.2-0.9L809.7,283.5z"/>
	<path class="st6" d="M819.7,271.5l-0.9-2.2l-2.2-0.9l-2.2,0.9l-0.9,2.2l0.9,2.2l2.2,0.9l2.2-0.9L819.7,271.5z"/>
	<path class="st6" d="M798.7,297.5l-0.9-2.2l-2.2-0.9l-2.2,0.9l-0.9,2.2l0.9,2.2l2.2,0.9l2.2-0.9L798.7,297.5z"/>
	<path class="st6" d="M818.7,270.5l-0.9-2.2l-2.2-0.9l-2.2,0.9l-0.9,2.2l0.9,2.2l2.2,0.9l2.2-0.9L818.7,270.5z"/>
	<path class="st6" d="M791.7,303.5l-0.9-2.2l-2.2-0.9l-2.2,0.9l-0.9,2.2l0.9,2.2l2.2,0.9l2.2-0.9L791.7,303.5z"/>
	<path class="st6" d="M804.7,288.5l-0.9-2.2l-2.2-0.9l-2.2,0.9l-0.9,2.2l0.9,2.2l2.2,0.9l2.2-0.9L804.7,288.5z"/>
	<path class="st6" d="M788.7,307.5l-0.9-2.2l-2.2-0.9l-2.2,0.9l-0.9,2.2l0.9,2.2l2.2,0.9l2.2-0.9L788.7,307.5z"/>
	<path class="st6" d="M789.7,306.5l-0.9-2.2l-2.2-0.9l-2.2,0.9l-0.9,2.2l0.9,2.2l2.2,0.9l2.2-0.9L789.7,306.5z"/>
	<path class="st6" d="M811.7,282.5l-0.9-2.2l-2.2-0.9l-2.2,0.9l-0.9,2.2l0.9,2.2l2.2,0.9l2.2-0.9L811.7,282.5z"/>
	<path class="st6" d="M800.7,294.5l-0.9-2.2l-2.2-0.9l-2.2,0.9l-0.9,2.2l0.9,2.2l2.2,0.9l2.2-0.9L800.7,294.5z"/>
	<path class="st6" d="M817.7,273.5l-0.9-2.2l-2.2-0.9l-2.2,0.9l-0.9,2.2l0.9,2.2l2.2,0.9l2.2-0.9L817.7,273.5z"/>
	<path class="st6" d="M792.7,301.5l-0.9-2.2l-2.2-0.9l-2.2,0.9l-0.9,2.2l0.9,2.2l2.2,0.9l2.2-0.9L792.7,301.5z"/>
	<path class="st6" d="M798.7,292.5l-0.9-2.2l-2.2-0.9l-2.2,0.9l-0.9,2.2l0.9,2.2l2.2,0.9l2.2-0.9L798.7,292.5z"/>
	<path class="st6" d="M800.7,285.5l-0.9-2.2l-2.2-0.9l-2.2,0.9l-0.9,2.2l0.9,2.2l2.2,0.9l2.2-0.9L800.7,285.5z"/>
	<path class="st6" d="M808.7,279.5l-0.9-2.2l-2.2-0.9l-2.2,0.9l-0.9,2.2l0.9,2.2l2.2,0.9l2.2-0.9L808.7,279.5z"/>
	<path class="st6" d="M790.7,300.5l-0.9-2.2l-2.2-0.9l-2.2,0.9l-0.9,2.2l0.9,2.2l2.2,0.9l2.2-0.9L790.7,300.5z"/>
	<path class="st6" d="M788.7,304.5l-0.9-2.2l-2.2-0.9l-2.2,0.9l-0.9,2.2l0.9,2.2l2.2,0.9l2.2-0.9L788.7,304.5z"/>
	<path class="st6" d="M789.7,297.5l-0.9-2.2l-2.2-0.9l-2.2,0.9l-0.9,2.2l0.9,2.2l2.2,0.9l2.2-0.9L789.7,297.5z"/>
	<path class="st6" d="M826.7,254.5l-0.9-2.2l-2.2-0.9l-2.2,0.9l-0.9,2.2l0.9,2.2l2.2,0.9l2.2-0.9L826.7,254.5z"/>
	<path class="st6" d="M804.7,286.5l-0.9-2.2l-2.2-0.9l-2.2,0.9l-0.9,2.2l0.9,2.2l2.2,0.9l2.2-0.9L804.7,286.5z"/>
	<path class="st6" d="M795.7,297.5l-0.9-2.2l-2.2-0.9l-2.2,0.9l-0.9,2.2l0.9,2.2l2.2,0.9l2.2-0.9L795.7,297.5z"/>
</g>
<line class="st0" x1="895.5" y1="624" x2="895.5" y2="618.9"/>
<g transform="translate(803.5356,668.8)">
	<text transform="matrix(1 0 0 1 -6.5 -29)" class="st3 st4">-1</text>
</g>
<g transform="translate(895.5,668.8)">
	<text transform="matrix(1 0 0 1 -4 -29)" class="st3 st4">0</text>
</g>
<g transform="translate(987.4644,668.8)">
	<text transform="matrix(1 0 0 1 -4 -29)" class="st3 st4">1</text>
</g>
<line class="st0" x1="785" y1="624" x2="785" y2="371"/>
<line class="st0" x1="785" y1="624" x2="790.1" y2="624"/>
<g transform="translate(780.2,664)">
	<text transform="matrix(1 0 0 1 -8 -36.5)" class="st3 st4">0</text>
</g>
<g transform="translate(780.2,411)">
	<text transform="matrix(1 0 0 1 -24 -36.5)" class="st3 st4">200</text>
</g>
<g>
	<path class="st2" d="M890.9,624v-3.8h4.6v3.8H890.9z"/>
	<path class="st2" d="M895.5,624V417.8h4.6V624H895.5z"/>
	<path class="st2" d="M900.1,624v-43h4.6v43H900.1z"/>
	<path class="st2" d="M904.7,624v-16.4h4.6V624H904.7z"/>
	<path class="st2" d="M909.3,624v-10.1h4.6V624H909.3z"/>
	<path class="st2" d="M913.9,624v-3.8h4.6v3.8H913.9z"/>
	<path class="st2" d="M918.5,624v-3.8h4.6v3.8H918.5z"/>
	<path class="st2" d="M923.1,624v-2.5h4.6v2.5H923.1z"/>
	<path class="st2" d="M927.7,624L927.7,624h4.6l0,0H927.7z"/>
	<path class="st2" d="M932.3,624L932.3,624h4.6l0,0H932.3z"/>
	<path class="st2" d="M936.9,624L936.9,624h4.6l0,0H936.9z"/>
	<path class="st2" d="M941.5,624v-1.3h4.6v1.3H941.5z"/>
	<path class="st2" d="M946.1,624v-1.3h4.6v1.3H946.1z"/>
	<path class="st2" d="M950.7,624L950.7,624h4.6l0,0H950.7z"/>
	<path class="st2" d="M955.3,624L955.3,624h4.6l0,0H955.3z"/>
	<path class="st2" d="M959.9,624L959.9,624h4.6l0,0H959.9z"/>
	<path class="st2" d="M964.5,624v-1.3h4.6v1.3H964.5z"/>
	<path class="st2" d="M969.1,624L969.1,624h4.6l0,0H969.1z"/>
	<path class="st2" d="M973.7,624v-1.3h4.6v1.3H973.7z"/>
</g>
<path class="st7" d="M927.7,624h4.6l0,0l0,0"/>
<path class="st7" d="M932.3,624h4.6l0,0l0,0"/>
<line class="st7" x1="936.9" y1="624" x2="941.5" y2="624"/>
<path class="st7" d="M950.7,624h4.6l0,0l0,0"/>
<path class="st7" d="M955.3,624h4.6l0,0l0,0"/>
<line class="st7" x1="959.9" y1="624" x2="964.5" y2="624"/>
<line class="st7" x1="969.1" y1="624" x2="973.7" y2="624"/>
<line class="st8" x1="895.5" y1="624" x2="895.5" y2="371"/>
<g transform="translate(1082,313.8)">
	<text transform="matrix(1 0 0 1 -4 11)" class="st3 st4">0</text>
</g>
<g transform="translate(1157.8995,313.8)">
	<text transform="matrix(1 0 0 1 -10 11)" class="st3 st4">0.5</text>
</g>
<g transform="translate(1233.7992,313.8)">
	<text transform="matrix(1 0 0 1 -4 11)" class="st3 st4">1</text>
</g>
<g transform="translate(1077.2,309)">
	<text transform="matrix(1 0 0 1 -8 3.5)" class="st3 st4">0</text>
</g>
<g transform="translate(1077.2,274.2442)">
	<text transform="matrix(1 0 0 1 -20 3.5)" class="st3 st4">0.2</text>
</g>
<g transform="translate(1077.2,239.4883)">
	<text transform="matrix(1 0 0 1 -20 3.5)" class="st3 st4">0.4</text>
</g>
<g transform="translate(1077.2,204.7325)">
	<text transform="matrix(1 0 0 1 -20 3.5)" class="st3 st4">0.6</text>
</g>
<g transform="translate(1077.2,169.9767)">
	<text transform="matrix(1 0 0 1 -20 3.5)" class="st3 st4">0.8</text>
</g>
<g transform="translate(1077.2,135.2208)">
	<text transform="matrix(1 0 0 1 -8 3.5)" class="st3 st4">1</text>
</g>
<g transform="translate(1077.2,100.465)">
	<text transform="matrix(1 0 0 1 -20 3.5)" class="st3 st4">1.2</text>
</g>
<g transform="translate(1077.2,65.7092)">
	<text transform="matrix(1 0 0 1 -20 3.5)" class="st3 st4">1.4</text>
</g>
<g>
	<path class="st5" d="M1085.7,306.5l-0.9-2.2l-2.2-0.9l-2.2,0.9l-0.9,2.2l0.9,2.2l2.2,0.9l2.2-0.9L1085.7,306.5z"/>
	<path class="st5" d="M1104.7,279.5l-0.9-2.2l-2.2-0.9l-2.2,0.9l-0.9,2.2l0.9,2.2l2.2,0.9l2.2-0.9L1104.7,279.5z"/>
	<path class="st5" d="M1096.7,295.5l-0.9-2.2l-2.2-0.9l-2.2,0.9l-0.9,2.2l0.9,2.2l2.2,0.9l2.2-0.9L1096.7,295.5z"/>
	<path class="st5" d="M1113.7,273.5l-0.9-2.2l-2.2-0.9l-2.2,0.9l-0.9,2.2l0.9,2.2l2.2,0.9l2.2-0.9L1113.7,273.5z"/>
	<path class="st5" d="M1085.7,307.5l-0.9-2.2l-2.2-0.9l-2.2,0.9l-0.9,2.2l0.9,2.2l2.2,0.9l2.2-0.9L1085.7,307.5z"/>
	<path class="st5" d="M1106.7,278.5l-0.9-2.2l-2.2-0.9l-2.2,0.9l-0.9,2.2l0.9,2.2l2.2,0.9l2.2-0.9L1106.7,278.5z"/>
	<path class="st5" d="M1142.7,149.5l-0.9-2.2l-2.2-0.9l-2.2,0.9l-0.9,2.2l0.9,2.2l2.2,0.9l2.2-0.9L1142.7,149.5z"/>
	<path class="st5" d="M1101.7,280.5l-0.9-2.2l-2.2-0.9l-2.2,0.9l-0.9,2.2l0.9,2.2l2.2,0.9l2.2-0.9L1101.7,280.5z"/>
	<path class="st6" d="M1211.7,160.5l-0.9-2.2l-2.2-0.9l-2.2,0.9l-0.9,2.2l0.9,2.2l2.2,0.9l2.2-0.9L1211.7,160.5z"/>
	<path class="st6" d="M1154.7,224.5l-0.9-2.2l-2.2-0.9l-2.2,0.9l-0.9,2.2l0.9,2.2l2.2,0.9l2.2-0.9L1154.7,224.5z"/>
	<path class="st6" d="M1094.7,292.5l-0.9-2.2l-2.2-0.9l-2.2,0.9l-0.9,2.2l0.9,2.2l2.2,0.9l2.2-0.9L1094.7,292.5z"/>
	<path class="st6" d="M1091.7,297.5l-0.9-2.2l-2.2-0.9l-2.2,0.9l-0.9,2.2l0.9,2.2l2.2,0.9l2.2-0.9L1091.7,297.5z"/>
	<path class="st6" d="M1088.7,303.5l-0.9-2.2l-2.2-0.9l-2.2,0.9l-0.9,2.2l0.9,2.2l2.2,0.9l2.2-0.9L1088.7,303.5z"/>
	<path class="st6" d="M1114.7,273.5l-0.9-2.2l-2.2-0.9l-2.2,0.9l-0.9,2.2l0.9,2.2l2.2,0.9l2.2-0.9L1114.7,273.5z"/>
	<path class="st6" d="M1087.7,304.5l-0.9-2.2l-2.2-0.9l-2.2,0.9l-0.9,2.2l0.9,2.2l2.2,0.9l2.2-0.9L1087.7,304.5z"/>
	<path class="st6" d="M1089.7,300.5l-0.9-2.2l-2.2-0.9l-2.2,0.9l-0.9,2.2l0.9,2.2l2.2,0.9l2.2-0.9L1089.7,300.5z"/>
	<path class="st6" d="M1085.7,307.5l-0.9-2.2l-2.2-0.9l-2.2,0.9l-0.9,2.2l0.9,2.2l2.2,0.9l2.2-0.9L1085.7,307.5z"/>
	<path class="st6" d="M1085.7,306.5l-0.9-2.2l-2.2-0.9l-2.2,0.9l-0.9,2.2l0.9,2.2l2.2,0.9l2.2-0.9L1085.7,306.5z"/>
	<path class="st6" d="M1153.7,229.5l-0.9-2.2l-2.2-0.9l-2.2,0.9l-0.9,2.2l0.9,2.2l2.2,0.9l2.2-0.9L1153.7,229.5z"/>
	<path class="st6" d="M1090.7,297.5l-0.9-2.2l-2.2-0.9l-2.2,0.9l-0.9,2.2l0.9,2.2l2.2,0.9l2.2-0.9L1090.7,297.5z"/>
	<path class="st6" d="M1297.7,56.5l-0.9-2.2l-2.2-0.9l-2.2,0.9l-0.9,2.2l0.9,2.2l2.2,0.9l2.2-0.9L1297.7,56.5z"/>
	<path class="st6" d="M1143.7,244.5l-0.9-2.2l-2.2-0.9l-2.2,0.9l-0.9,2.2l0.9,2.2l2.2,0.9l2.2-0.9L1143.7,244.5z"/>
	<path class="st6" d="M1089.7,301.5l-0.9-2.2l-2.2-0.9l-2.2,0.9l-0.9,2.2l0.9,2.2l2.2,0.9l2.2-0.9L1089.7,301.5z"/>
	<path class="st6" d="M1085.7,303.5l-0.9-2.2l-2.2-0.9l-2.2,0.9l-0.9,2.2l0.9,2.2l2.2,0.9l2.2-0.9L1085.7,303.5z"/>
	<path class="st6" d="M1090.7,300.5l-0.9-2.2l-2.2-0.9l-2.2,0.9l-0.9,2.2l0.9,2.2l2.2,0.9l2.2-0.9L1090.7,300.5z"/>
	<path class="st6" d="M1087.7,305.5l-0.9-2.2l-2.2-0.9l-2.2,0.9l-0.9,2.2l0.9,2.2l2.2,0.9l2.2-0.9L1087.7,305.5z"/>
	<path class="st6" d="M1109.7,240.5l-0.9-2.2l-2.2-0.9l-2.2,0.9l-0.9,2.2l0.9,2.2l2.2,0.9l2.2-0.9L1109.7,240.5z"/>
	<path class="st6" d="M1091.7,300.5l-0.9-2.2l-2.2-0.9l-2.2,0.9l-0.9,2.2l0.9,2.2l2.2,0.9l2.2-0.9L1091.7,300.5z"/>
	<path class="st6" d="M1085.7,307.5l-0.9-2.2l-2.2-0.9l-2.2,0.9l-0.9,2.2l0.9,2.2l2.2,0.9l2.2-0.9L1085.7,307.5z"/>
	<path class="st6" d="M1085.7,307.5l-0.9-2.2l-2.2-0.9l-2.2,0.9l-0.9,2.2l0.9,2.2l2.2,0.9l2.2-0.9L1085.7,307.5z"/>
	<path class="st6" d="M1095.7,293.5l-0.9-2.2l-2.2-0.9l-2.2,0.9l-0.9,2.2l0.9,2.2l2.2,0.9l2.2-0.9L1095.7,293.5z"/>
	<path class="st6" d="M1112.7,276.5l-0.9-2.2l-2.2-0.9l-2.2,0.9l-0.9,2.2l0.9,2.2l2.2,0.9l2.2-0.9L1112.7,276.5z"/>
	<path class="st6" d="M1105.7,283.5l-0.9-2.2l-2.2-0.9l-2.2,0.9l-0.9,2.2l0.9,2.2l2.2,0.9l2.2-0.9L1105.7,283.5z"/>
	<path class="st6" d="M1094.7,297.5l-0.9-2.2l-2.2-0.9l-2.2,0.9l-0.9,2.2l0.9,2.2l2.2,0.9l2.2-0.9L1094.7,297.5z"/>
	<path class="st6" d="M1114.7,270.5l-0.9-2.2l-2.2-0.9l-2.2,0.9l-0.9,2.2l0.9,2.2l2.2,0.9l2.2-0.9L1114.7,270.5z"/>
	<path class="st6" d="M1088.7,303.5l-0.9-2.2l-2.2-0.9l-2.2,0.9l-0.9,2.2l0.9,2.2l2.2,0.9l2.2-0.9L1088.7,303.5z"/>
	<path class="st6" d="M1101.7,288.5l-0.9-2.2l-2.2-0.9l-2.2,0.9l-0.9,2.2l0.9,2.2l2.2,0.9l2.2-0.9L1101.7,288.5z"/>
	<path class="st6" d="M1086.7,306.5l-0.9-2.2l-2.2-0.9l-2.2,0.9l-0.9,2.2l0.9,2.2l2.2,0.9l2.2-0.9L1086.7,306.5z"/>
	<path class="st6" d="M1107.7,282.5l-0.9-2.2l-2.2-0.9l-2.2,0.9l-0.9,2.2l0.9,2.2l2.2,0.9l2.2-0.9L1107.7,282.5z"/>
	<path class="st6" d="M1097.7,294.5l-0.9-2.2l-2.2-0.9l-2.2,0.9l-0.9,2.2l0.9,2.2l2.2,0.9l2.2-0.9L1097.7,294.5z"/>
	<path class="st6" d="M1114.7,273.5l-0.9-2.2l-2.2-0.9l-2.2,0.9l-0.9,2.2l0.9,2.2l2.2,0.9l2.2-0.9L1114.7,273.5z"/>
	<path class="st6" d="M1089.7,301.5l-0.9-2.2l-2.2-0.9l-2.2,0.9l-0.9,2.2l0.9,2.2l2.2,0.9l2.2-0.9L1089.7,301.5z"/>
	<path class="st6" d="M1094.7,292.5l-0.9-2.2l-2.2-0.9l-2.2,0.9l-0.9,2.2l0.9,2.2l2.2,0.9l2.2-0.9L1094.7,292.5z"/>
	<path class="st6" d="M1097.7,285.5l-0.9-2.2l-2.2-0.9l-2.2,0.9l-0.9,2.2l0.9,2.2l2.2,0.9l2.2-0.9L1097.7,285.5z"/>
	<path class="st6" d="M1102.7,279.5l-0.9-2.2l-2.2-0.9l-2.2,0.9l-0.9,2.2l0.9,2.2l2.2,0.9l2.2-0.9L1102.7,279.5z"/>
	<path class="st6" d="M1089.7,300.5l-0.9-2.2l-2.2-0.9l-2.2,0.9l-0.9,2.2l0.9,2.2l2.2,0.9l2.2-0.9L1089.7,300.5z"/>
	<path class="st6" d="M1087.7,297.5l-0.9-2.2l-2.2-0.9l-2.2,0.9l-0.9,2.2l0.9,2.2l2.2,0.9l2.2-0.9L1087.7,297.5z"/>
	<path class="st6" d="M1118.7,254.5l-0.9-2.2l-2.2-0.9l-2.2,0.9l-0.9,2.2l0.9,2.2l2.2,0.9l2.2-0.9L1118.7,254.5z"/>
	<path class="st6" d="M1100.7,286.5l-0.9-2.2l-2.2-0.9l-2.2,0.9l-0.9,2.2l0.9,2.2l2.2,0.9l2.2-0.9L1100.7,286.5z"/>
	<path class="st6" d="M1092.7,297.5l-0.9-2.2l-2.2-0.9l-2.2,0.9l-0.9,2.2l0.9,2.2l2.2,0.9l2.2-0.9L1092.7,297.5z"/>
</g>
<line class="st0" x1="1192.5" y1="624" x2="1192.5" y2="618.9"/>
<g transform="translate(1100.5356,668.8)">
	<text transform="matrix(1 0 0 1 -6.5 -29)" class="st3 st4">-1</text>
</g>
<g transform="translate(1192.5,668.8)">
	<text transform="matrix(1 0 0 1 -4 -29)" class="st3 st4">0</text>
</g>
<g transform="translate(1284.4644,668.8)">
	<text transform="matrix(1 0 0 1 -4 -29)" class="st3 st4">1</text>
</g>
<line class="st0" x1="1082" y1="624" x2="1082" y2="371"/>
<g transform="translate(1077.2,664)">
	<text transform="matrix(1 0 0 1 -8 -36.5)" class="st3 st4">0</text>
</g>
<g transform="translate(1077.2,411)">
	<text transform="matrix(1 0 0 1 -24 -36.5)" class="st3 st4">150</text>
</g>
<path class="st2" d="M1187.9,624v-1.7h4.6v1.7H1187.9z"/>
<path class="st2" d="M1229.3,624L1229.3,624h4.6l0,0H1229.3z"/>
<path class="st2" d="M1252.3,624L1252.3,624h4.6l0,0H1252.3z"/>
<path class="st2" d="M1256.9,624L1256.9,624h4.6l0,0H1256.9z"/>
<path class="st2" d="M1261.5,624L1261.5,624h4.6l0,0H1261.5z"/>
<path class="st2" d="M1266.1,624L1266.1,624h4.6l0,0H1266.1z"/>
<path class="st2" d="M1270.7,624L1270.7,624h4.6l0,0H1270.7z"/>
<path class="st2" d="M1275.3,624L1275.3,624h4.6l0,0H1275.3z"/>
<path class="st2" d="M1279.9,624L1279.9,624h4.6l0,0H1279.9z"/>
<path class="st2" d="M1284.5,624v-1.7h4.6v1.7H1284.5z"/>
<path class="st2" d="M1289.1,624L1289.1,624h4.6l0,0H1289.1z"/>
<path class="st2" d="M1293.7,624L1293.7,624h4.6l0,0H1293.7z"/>
<path class="st2" d="M1298.3,624L1298.3,624h4.6l0,0H1298.3z"/>
<path class="st2" d="M1302.9,624v-1.7h0.1L1302.9,624L1302.9,624z"/>
<line class="st9" x1="1229.3" y1="624" x2="1233.9" y2="624"/>
<path class="st7" d="M1252.3,624h4.6l0,0l0,0"/>
<path class="st7" d="M1256.9,624h4.6l0,0l0,0"/>
<path class="st7" d="M1261.5,624h4.6l0,0l0,0"/>
<path class="st7" d="M1266.1,624h4.6l0,0l0,0"/>
<path class="st7" d="M1270.7,624h4.6l0,0l0,0"/>
<path class="st7" d="M1275.3,624h4.6l0,0l0,0"/>
<line class="st7" x1="1279.9" y1="624" x2="1284.5" y2="624"/>
<path class="st7" d="M1289.1,624h4.6l0,0l0,0"/>
<path class="st7" d="M1293.7,624h4.6l0,0l0,0"/>
<line class="st7" x1="1298.3" y1="624" x2="1302.9" y2="624"/>
<line class="st8" x1="1192.5" y1="624" x2="1192.5" y2="371"/>
<text transform="matrix(1 0 0 1 230.9794 66.1191)" class="st3 st10">Stronger for</text>
<text transform="matrix(1 0 0 1 230.9794 80.5191)" class="st3 st10">Previous Error</text>
<text transform="matrix(1 0 0 1 230.9794 94.9191)" class="st3 st10">Model</text>
<text transform="matrix(1 0 0 1 358.4127 214.5)" class="st3 st10">Stronger for</text>
<text transform="matrix(1 0 0 1 358.4127 228.9)" class="st3 st10">No Rule</text>
<text transform="matrix(1 0 0 1 358.4127 243.3)" class="st3 st10">Model</text>
<text transform="matrix(1 0 0 1 522.0265 66.1192)" class="st3 st10">Stronger for</text>
<text transform="matrix(1 0 0 1 522.0265 80.5192)" class="st3 st10">Previous Error</text>
<text transform="matrix(1 0 0 1 522.0265 94.9192)" class="st3 st10">Model</text>
<text transform="matrix(1 0 0 1 822.0265 66.1193)" class="st3 st10">Stronger for</text>
<text transform="matrix(1 0 0 1 822.0265 80.5193)" class="st3 st10">Previous Error</text>
<text transform="matrix(1 0 0 1 822.0265 94.9193)" class="st3 st10">Model</text>
<text transform="matrix(1 0 0 1 1120.7019 66.1193)" class="st3 st10">Stronger for</text>
<text transform="matrix(1 0 0 1 1120.7019 80.5193)" class="st3 st10">Previous Error</text>
<text transform="matrix(1 0 0 1 1120.7019 94.9193)" class="st3 st10">Model</text>
<text transform="matrix(1 0 0 1 638.7455 215.3378)" class="st3 st10">Stronger for</text>
<text transform="matrix(1 0 0 1 638.7455 229.7378)" class="st3 st10">Rule Repetition</text>
<text transform="matrix(1 0 0 1 638.7455 244.1378)" class="st3 st10">Model</text>
<text transform="matrix(1 0 0 1 920.3332 209.6622)" class="st3 st10">Stronger for</text>
<text transform="matrix(1 0 0 1 920.3332 224.0622)" class="st3 st10">Rule Repetition</text>
<text transform="matrix(1 0 0 1 920.3332 238.4622)" class="st3 st10">and Previous Error</text>
<text transform="matrix(1 0 0 1 920.3332 252.8622)" class="st3 st10">Model</text>
<text transform="matrix(1 0 0 1 1226.718 194.6624)" class="st3 st10">Stronger for</text>
<text transform="matrix(1 0 0 1 1226.718 209.0624)" class="st3 st10">Rule Repetition, </text>
<text transform="matrix(1 0 0 1 1226.718 223.4624)" class="st3 st10">Previous Error,</text>
<text transform="matrix(1 0 0 1 1226.718 237.8624)" class="st3 st10">Congruency</text>
<text transform="matrix(1 0 0 1 1226.718 252.2624)" class="st3 st10">Model</text>
<text transform="matrix(1 0 0 1 99.6606 164.6221)" class="st3 st11">Mutual</text>
<text transform="matrix(1 0 0 1 87.6606 179.0221)" class="st3 st11">Information</text>
<text transform="matrix(1 0 0 1 87.1606 193.4221)" class="st3 st11">(bits / spike)</text>
<text transform="matrix(1 0 0 1 664.0188 340)" class="st3 st11">Mutual Information (bits / spike)</text>
<text transform="matrix(1 0 0 1 89.1608 483.8218)" class="st3 st11">Number of </text>
<text transform="matrix(1 0 0 1 96.1608 498.2218)" class="st3 st11">Neurons</text>
<text transform="matrix(1 0 0 1 613.5425 658.9997)" class="st3 st11">Difference in Mutual Information between Models</text>
<text transform="matrix(1 0 0 1 311.9999 386.368)" class="st3 st12">Stronger for</text>
<text transform="matrix(1 0 0 1 311.9999 397.168)" class="st3 st12">Previous Error</text>
<text transform="matrix(1 0 0 1 311.9999 407.968)" class="st3 st12">Model</text>
<text transform="matrix(1 0 0 1 609.0001 386.368)" class="st3 st12">Stronger for</text>
<text transform="matrix(1 0 0 1 609.0001 397.168)" class="st3 st12">Previous Error</text>
<text transform="matrix(1 0 0 1 609.0001 407.968)" class="st3 st12">Model</text>
<text transform="matrix(1 0 0 1 905.5002 386.368)" class="st3 st12">Stronger for</text>
<text transform="matrix(1 0 0 1 905.5002 397.168)" class="st3 st12">Previous Error</text>
<text transform="matrix(1 0 0 1 905.5002 407.968)" class="st3 st12">Model</text>
<text transform="matrix(1 0 0 1 1202.4998 386.368)" class="st3 st12">Stronger for</text>
<text transform="matrix(1 0 0 1 1202.4998 397.168)" class="st3 st12">Previous Error</text>
<text transform="matrix(1 0 0 1 1202.4998 407.968)" class="st3 st12">Model</text>
<text transform="matrix(1 0 0 1 244.3517 386.368)" class="st3 st12">Stronger for</text>
<text transform="matrix(1 0 0 1 259.485 397.168)" class="st3 st12">No Rule</text>
<text transform="matrix(1 0 0 1 267.4872 407.968)" class="st3 st12">Model</text>
<text transform="matrix(1 0 0 1 541.3518 386.3678)" class="st3 st12">Stronger for</text>
<text transform="matrix(1 0 0 1 527.4633 397.1678)" class="st3 st12">Rule Repetition</text>
<text transform="matrix(1 0 0 1 564.4872 407.9678)" class="st3 st12">Model</text>
<text transform="matrix(1 0 0 1 837.8512 386.3678)" class="st3 st12">Stronger for</text>
<text transform="matrix(1 0 0 1 823.9636 397.1678)" class="st3 st12">Rule Repetition</text>
<text transform="matrix(1 0 0 1 810.3418 407.9678)" class="st3 st12">and Previous Error</text>
<text transform="matrix(1 0 0 1 860.9871 418.7678)" class="st3 st12">Model</text>
<text transform="matrix(1 0 0 1 1134.8513 386.3682)" class="st3 st12">Stronger for</text>
<text transform="matrix(1 0 0 1 1118.4626 397.1682)" class="st3 st12">Rule Repetition,</text>
<text transform="matrix(1 0 0 1 1122.9806 407.9682)" class="st3 st12">Previous Error,</text>
<text transform="matrix(1 0 0 1 1133.9712 418.7682)" class="st3 st12">Congruency</text>
<text transform="matrix(1 0 0 1 1157.9712 429.5682)" class="st3 st12">Model</text>
<g>
	<line class="st13" x1="292" y1="371.9" x2="260.1" y2="371.9"/>
	<g>
		<line class="st14" x1="292" y1="371.9" x2="267.2" y2="371.9"/>
		<g>
			<polygon points="268.8,369.6 260.1,371.9 268.8,374.2 			"/>
		</g>
	</g>
</g>
<g>
	<line class="st13" x1="589" y1="371.9" x2="557.1" y2="371.9"/>
	<g>
		<line class="st14" x1="589" y1="371.9" x2="564.2" y2="371.9"/>
		<g>
			<polygon points="565.8,369.6 557.1,371.9 565.8,374.2 			"/>
		</g>
	</g>
</g>
<g>
	<line class="st13" x1="885.5" y1="371.9" x2="853.7" y2="371.9"/>
	<g>
		<line class="st14" x1="885.5" y1="371.9" x2="860.8" y2="371.9"/>
		<g>
			<polygon points="862.4,369.6 853.7,371.9 862.4,374.2 			"/>
		</g>
	</g>
</g>
<g>
	<line class="st13" x1="1182.5" y1="371.9" x2="1150.7" y2="371.9"/>
	<g>
		<line class="st14" x1="1182.5" y1="371.9" x2="1157.8" y2="371.9"/>
		<g>
			<polygon points="1159.4,369.6 1150.7,371.9 1159.4,374.2 			"/>
		</g>
	</g>
</g>
<g>
	<line class="st13" x1="1202.5" y1="371.9" x2="1234.3" y2="371.9"/>
	<g>
		<line class="st14" x1="1202.5" y1="371.9" x2="1227.2" y2="371.9"/>
		<g>
			<polygon points="1225.7,374.2 1234.3,371.9 1225.7,369.6 			"/>
		</g>
	</g>
</g>
<g>
	<line class="st13" x1="905.5" y1="371.9" x2="937.4" y2="371.9"/>
	<g>
		<line class="st14" x1="905.5" y1="371.9" x2="930.3" y2="371.9"/>
		<g>
			<polygon points="928.7,374.2 937.4,371.9 928.7,369.6 			"/>
		</g>
	</g>
</g>
<g>
	<line class="st13" x1="609" y1="371.9" x2="640.9" y2="371.9"/>
	<g>
		<line class="st14" x1="609" y1="371.9" x2="633.8" y2="371.9"/>
		<g>
			<polygon points="632.2,374.2 640.9,371.9 632.2,369.6 			"/>
		</g>
	</g>
</g>
<g>
	<line class="st13" x1="312" y1="371.9" x2="343.9" y2="371.9"/>
	<g>
		<line class="st14" x1="312" y1="371.9" x2="336.8" y2="371.9"/>
		<g>
			<polygon points="335.2,374.2 343.9,371.9 335.2,369.6 			"/>
		</g>
	</g>
</g>
<line class="st0" x1="488" y1="624" x2="710" y2="624"/>
<line class="st0" x1="1082" y1="624" x2="1303" y2="624"/>
<line class="st0" x1="785" y1="624" x2="1006" y2="624"/>
<path class="st0" d="M191,624h222H191z"/>
<text transform="matrix(1 0 0 1 723.4448 706.0615)" class="st3 st15">ACC</text>
<g transform="translate(1262.0667,187.7187)">
	<path class="st16" d="M-903.7-34.7h1.5l2.3,6.7l2.3-6.7h1.5v7.9h-1v-4.7c0-0.2,0-0.4,0-0.8c0-0.4,0-0.8,0-1.2l-2.3,6.7h-1l-2.3-6.7
		v0.2c0,0.2,0,0.5,0,0.9c0,0.4,0,0.7,0,0.9v4.7h-1C-903.7-26.8-903.7-34.7-903.7-34.7z M-891-28.2c0.2-0.5,0.4-1,0.4-1.6
		c0-0.5-0.1-1-0.3-1.3c-0.3-0.5-0.7-0.8-1.4-0.8c-0.6,0-1,0.2-1.3,0.7c-0.3,0.5-0.4,1-0.4,1.6s0.1,1.1,0.4,1.5
		c0.3,0.4,0.7,0.6,1.3,0.6C-891.7-27.4-891.3-27.7-891-28.2z M-890.4-32c0.5,0.5,0.7,1.2,0.7,2.2c0,0.9-0.2,1.7-0.7,2.3
		s-1.2,0.9-2.1,0.9c-0.8,0-1.4-0.3-1.9-0.8c-0.4-0.5-0.6-1.2-0.6-2.1c0-1,0.2-1.7,0.7-2.3s1.1-0.9,2-0.9
		C-891.6-32.7-890.9-32.5-890.4-32z M-888.5-32.6h0.9v0.8c0.3-0.3,0.6-0.6,0.9-0.7c0.3-0.1,0.6-0.2,1-0.2c0.8,0,1.4,0.3,1.7,0.9
		c0.2,0.3,0.2,0.8,0.2,1.3v3.7h-1v-3.6c0-0.4-0.1-0.6-0.2-0.8c-0.1-0.4-0.4-0.6-0.9-0.6c-0.2,0-0.4,0-0.6,0.1
		c-0.3,0.1-0.5,0.2-0.7,0.5c-0.2,0.2-0.3,0.4-0.3,0.6c0,0.1,0,0.4,0,0.8v3h-1V-32.6z M-882.4-34.7h0.9v4.6l2.5-2.4h1.2l-2.2,2.2
		l2.4,3.5h-1.2l-1.8-2.9l-0.9,0.7v2.2h-0.9V-34.7z M-873.3-32.4c0.4,0.2,0.7,0.4,0.9,0.7c0.2,0.3,0.3,0.6,0.4,1
		c0.1,0.3,0.1,0.7,0.1,1.3h-4.2c0,0.6,0.2,1.1,0.4,1.4c0.3,0.4,0.7,0.5,1.2,0.5s0.9-0.2,1.2-0.5c0.2-0.2,0.3-0.4,0.4-0.7h1
		c0,0.2-0.1,0.4-0.2,0.7c-0.1,0.3-0.3,0.5-0.5,0.6c-0.3,0.3-0.7,0.5-1.1,0.6c-0.2,0.1-0.5,0.1-0.8,0.1c-0.7,0-1.3-0.3-1.8-0.8
		s-0.7-1.3-0.7-2.2s0.3-1.7,0.8-2.3c0.5-0.6,1.2-0.9,2-0.9C-874.1-32.7-873.7-32.6-873.3-32.4z M-873-30.1c0-0.4-0.1-0.8-0.3-1
		c-0.2-0.5-0.6-0.7-1.3-0.7c-0.4,0-0.8,0.2-1.1,0.5c-0.3,0.3-0.5,0.7-0.5,1.2C-876.2-30.1-873-30.1-873-30.1z M-867.2-32.6h1.1
		c-0.1,0.4-0.4,1.2-0.9,2.5c-0.4,1-0.6,1.8-0.9,2.4c-0.6,1.5-1,2.4-1.2,2.7c-0.2,0.3-0.6,0.5-1.2,0.5c-0.1,0-0.2,0-0.3,0
		c-0.1,0-0.2,0-0.3-0.1v-0.8c0.2,0,0.3,0.1,0.4,0.1c0.1,0,0.1,0,0.2,0c0.2,0,0.3,0,0.4-0.1c0.1-0.1,0.2-0.1,0.2-0.2
		c0,0,0.1-0.2,0.2-0.4c0.1-0.3,0.2-0.5,0.2-0.6l-2.1-5.9h1.1l1.5,4.7L-867.2-32.6z M-856.4-34.1c0.6,0.5,0.9,1.1,0.9,1.8h-1
		c-0.1-0.5-0.4-0.9-0.7-1.2c-0.4-0.3-0.8-0.4-1.5-0.4c-0.8,0-1.4,0.3-1.9,0.8s-0.7,1.4-0.7,2.5c0,0.9,0.2,1.7,0.6,2.2
		c0.4,0.5,1.1,0.9,1.9,0.9c0.8,0,1.4-0.3,1.8-0.9c0.2-0.4,0.4-0.8,0.5-1.3h1c-0.1,0.8-0.4,1.5-0.9,2.1c-0.6,0.7-1.5,1-2.5,1
		c-0.9,0-1.7-0.3-2.3-0.8c-0.8-0.7-1.2-1.9-1.2-3.4c0-1.2,0.3-2.1,0.9-2.9c0.7-0.8,1.6-1.2,2.8-1.2C-857.8-34.9-857-34.6-856.4-34.1
		z M-848.5-34.1c0.6,0.5,0.9,1.1,0.9,1.8h-1c-0.1-0.5-0.4-0.9-0.7-1.2c-0.4-0.3-0.8-0.4-1.5-0.4c-0.8,0-1.4,0.3-1.9,0.8
		s-0.7,1.4-0.7,2.5c0,0.9,0.2,1.7,0.6,2.2c0.4,0.6,1.1,0.9,1.9,0.9s1.4-0.3,1.8-0.9c0.3-0.4,0.4-0.8,0.6-1.3h1
		c-0.1,0.8-0.4,1.5-0.9,2.1c-0.6,0.7-1.5,1-2.5,1c-0.9,0-1.7-0.3-2.3-0.8c-0.9-0.8-1.3-1.9-1.3-3.4c0-1.2,0.3-2.1,0.9-2.9
		c0.7-0.8,1.6-1.2,2.8-1.2C-849.8-34.9-849-34.6-848.5-34.1z"/>
</g>
<g transform="translate(1262.0667,201.0195)">
	<path class="st17" d="M-903.7-34.7h1.5l2.3,6.7l2.3-6.7h1.5v7.9h-1v-4.7c0-0.2,0-0.4,0-0.8c0-0.4,0-0.8,0-1.2l-2.3,6.7h-1l-2.3-6.7
		v0.2c0,0.2,0,0.5,0,0.9c0,0.4,0,0.7,0,0.9v4.7h-1C-903.7-26.8-903.7-34.7-903.7-34.7z M-891-28.2c0.2-0.5,0.4-1,0.4-1.6
		c0-0.5-0.1-1-0.3-1.3c-0.3-0.5-0.7-0.8-1.4-0.8c-0.6,0-1,0.2-1.3,0.7c-0.3,0.5-0.4,1-0.4,1.6s0.1,1.1,0.4,1.5
		c0.3,0.4,0.7,0.6,1.3,0.6C-891.7-27.4-891.3-27.7-891-28.2z M-890.4-32c0.5,0.5,0.7,1.2,0.7,2.2c0,0.9-0.2,1.7-0.7,2.3
		c-0.5,0.6-1.2,0.9-2.1,0.9c-0.8,0-1.4-0.3-1.9-0.8c-0.4-0.5-0.6-1.2-0.6-2.2s0.2-1.7,0.7-2.3c0.5-0.6,1.1-0.9,2-0.9
		C-891.6-32.7-890.9-32.5-890.4-32z M-888.5-32.6h0.9v0.8c0.3-0.3,0.6-0.6,0.9-0.7c0.3-0.1,0.6-0.2,1-0.2c0.8,0,1.4,0.3,1.7,0.9
		c0.2,0.3,0.2,0.8,0.2,1.3v3.7h-1v-3.6c0-0.4-0.1-0.6-0.2-0.8c-0.1-0.4-0.4-0.6-0.9-0.6c-0.2,0-0.4,0-0.6,0.1
		c-0.3,0.1-0.5,0.2-0.7,0.5c-0.2,0.2-0.3,0.4-0.3,0.6c0,0.1,0,0.4,0,0.8v3h-1V-32.6z M-882.4-34.7h0.9v4.6l2.5-2.4h1.2l-2.2,2.2
		l2.4,3.5h-1.2l-1.8-2.9l-0.9,0.7v2.2h-0.9V-34.7z M-873.3-32.4c0.4,0.2,0.7,0.4,0.9,0.7s0.3,0.6,0.4,1c0.1,0.3,0.1,0.7,0.1,1.3
		h-4.2c0,0.6,0.2,1.1,0.4,1.4c0.3,0.4,0.7,0.5,1.2,0.5s0.9-0.2,1.2-0.5c0.2-0.2,0.3-0.4,0.4-0.7h1c0,0.2-0.1,0.4-0.2,0.7
		c-0.1,0.3-0.3,0.5-0.5,0.6c-0.3,0.3-0.7,0.5-1.1,0.6c-0.2,0.1-0.5,0.1-0.8,0.1c-0.7,0-1.3-0.3-1.8-0.8s-0.7-1.3-0.7-2.2
		s0.3-1.7,0.8-2.3c0.5-0.6,1.2-0.9,2-0.9C-874.1-32.7-873.7-32.6-873.3-32.4z M-873-30.1c0-0.4-0.1-0.8-0.3-1
		c-0.2-0.5-0.6-0.7-1.3-0.7c-0.4,0-0.8,0.2-1.1,0.5s-0.5,0.7-0.5,1.2C-876.2-30.1-873-30.1-873-30.1z M-867.2-32.6h1.1
		c-0.1,0.4-0.4,1.2-0.9,2.5c-0.4,1-0.6,1.8-0.9,2.4c-0.6,1.5-1,2.4-1.2,2.7c-0.2,0.3-0.6,0.5-1.2,0.5c-0.1,0-0.2,0-0.3,0
		c-0.1,0-0.2,0-0.3-0.1v-0.8c0.2,0,0.3,0.1,0.4,0.1c0.1,0,0.1,0,0.2,0c0.2,0,0.3,0,0.4-0.1c0.1-0.1,0.2-0.1,0.2-0.2
		c0,0,0.1-0.2,0.2-0.4c0.1-0.3,0.2-0.5,0.2-0.6l-2.1-5.9h1.1l1.5,4.7L-867.2-32.6z M-861.8-34.7h1.1v7.9h-1.1V-34.7z M-858.3-29.3
		c0,0.4,0.1,0.8,0.3,1.1c0.4,0.5,1,0.8,1.9,0.8c0.4,0,0.8-0.1,1.1-0.2c0.6-0.2,1-0.6,1-1.2c0-0.4-0.1-0.7-0.4-0.9s-0.7-0.3-1.3-0.5
		l-1.1-0.2c-0.7-0.2-1.2-0.4-1.5-0.6c-0.5-0.3-0.8-0.8-0.8-1.5c0-0.7,0.2-1.3,0.7-1.7c0.5-0.5,1.2-0.7,2.1-0.7
		c0.8,0,1.5,0.2,2.1,0.6c0.6,0.4,0.9,1,0.9,1.9h-1c-0.1-0.4-0.2-0.7-0.3-1c-0.4-0.4-0.9-0.6-1.7-0.6c-0.6,0-1.1,0.1-1.4,0.4
		c-0.3,0.3-0.4,0.6-0.4,0.9c0,0.4,0.2,0.7,0.5,0.8c0.2,0.1,0.7,0.3,1.4,0.4l1.1,0.3c0.6,0.2,1,0.4,1.3,0.6c0.5,0.4,0.8,0.9,0.8,1.6
		c0,0.9-0.3,1.5-1,1.9c-0.6,0.4-1.4,0.6-2.2,0.6c-1,0-1.7-0.3-2.3-0.8c-0.6-0.5-0.8-1.2-0.8-2C-859.3-29.3-858.3-29.3-858.3-29.3z
		 M-847.6-30l-1.2-3.5l-1.3,3.5C-850.1-30-847.6-30-847.6-30z M-849.4-34.7h1.2l2.9,7.9h-1.2l-0.8-2.4h-3.1l-0.9,2.4h-1.1
		L-849.4-34.7z"/>
</g>
</svg>
