<?xml version="1.0" encoding="utf-8"?>
<!-- Generator: Adobe Illustrator 19.2.1, SVG Export Plug-In . SVG Version: 6.00 Build 0)  -->
<svg version="1.1" id="Layer_1" xmlns="http://www.w3.org/2000/svg" xmlns:xlink="http://www.w3.org/1999/xlink" x="0px" y="0px"
	 viewBox="0 0 1440 749" style="enable-background:new 0 0 1440 749;" xml:space="preserve">
<style type="text/css">
	.st0{fill:none;stroke:#4D4D4D;stroke-width:0.7;stroke-linecap:square;stroke-linejoin:round;stroke-miterlimit:10;}
	.st1{fill:#4D4D4D;}
	.st2{font-family:'MyriadPro-Regular';}
	.st3{font-size:14px;}
	.st4{fill:#66C2A5;fill-opacity:0.8;}
	.st5{fill:#7570B3;fill-opacity:0.8;}
	.st6{fill:none;stroke:#000000;stroke-width:0.8;stroke-linejoin:round;stroke-miterlimit:10;}
	.st7{fill:#0072BD;fill-opacity:0.6;}
	.st8{fill:none;stroke:#000000;stroke-width:0.5;stroke-linejoin:round;stroke-miterlimit:10;}
	.st9{fill:none;stroke:#000000;stroke-linejoin:round;stroke-miterlimit:10;}
	.st10{fill:#FFFFFF;}
	.st11{fill:none;stroke:#FF0000;stroke-linejoin:bevel;stroke-miterlimit:1;stroke-dasharray:1,3;}
	.st12{font-size:12px;}
	.st13{font-size:9px;}
	.st14{fill:none;stroke:#000000;stroke-miterlimit:10;}
</style>
<g>
	<line class="st0" x1="191" y1="309" x2="413" y2="309"/>
	<line class="st0" x1="191" y1="309" x2="191" y2="303.9"/>
	<line class="st0" x1="267.2" y1="309" x2="267.2" y2="303.9"/>
	<line class="st0" x1="343.5" y1="309" x2="343.5" y2="303.9"/>
</g>
<g transform="translate(191,313.8)">
	<text transform="matrix(1 0 0 1 -4 11)" class="st1 st2 st3">0</text>
</g>
<g transform="translate(267.243,313.8)">
	<text transform="matrix(1 0 0 1 -10 11)" class="st1 st2 st3">0.5</text>
</g>
<g transform="translate(343.4861,313.8)">
	<text transform="matrix(1 0 0 1 -4 11)" class="st1 st2 st3">1</text>
</g>
<g>
	<line class="st0" x1="191" y1="309" x2="191" y2="56"/>
	<line class="st0" x1="191" y1="309" x2="196.1" y2="309"/>
	<line class="st0" x1="191" y1="274.2" x2="196.1" y2="274.2"/>
	<line class="st0" x1="191" y1="239.5" x2="196.1" y2="239.5"/>
	<line class="st0" x1="191" y1="204.7" x2="196.1" y2="204.7"/>
	<line class="st0" x1="191" y1="170" x2="196.1" y2="170"/>
	<line class="st0" x1="191" y1="135.2" x2="196.1" y2="135.2"/>
	<line class="st0" x1="191" y1="100.5" x2="196.1" y2="100.5"/>
	<line class="st0" x1="191" y1="65.7" x2="196.1" y2="65.7"/>
</g>
<g transform="translate(186.2,309)">
	<text transform="matrix(1 0 0 1 -8 3.5)" class="st1 st2 st3">0</text>
</g>
<g transform="translate(186.2,274.2442)">
	<text transform="matrix(1 0 0 1 -20 3.5)" class="st1 st2 st3">0.2</text>
</g>
<g transform="translate(186.2,239.4883)">
	<text transform="matrix(1 0 0 1 -20 3.5)" class="st1 st2 st3">0.4</text>
</g>
<g transform="translate(186.2,204.7325)">
	<text transform="matrix(1 0 0 1 -20 3.5)" class="st1 st2 st3">0.6</text>
</g>
<g transform="translate(186.2,169.9767)">
	<text transform="matrix(1 0 0 1 -20 3.5)" class="st1 st2 st3">0.8</text>
</g>
<g transform="translate(186.2,135.2208)">
	<text transform="matrix(1 0 0 1 -8 3.5)" class="st1 st2 st3">1</text>
</g>
<g transform="translate(186.2,100.465)">
	<text transform="matrix(1 0 0 1 -20 3.5)" class="st1 st2 st3">1.2</text>
</g>
<g transform="translate(186.2,65.7092)">
	<text transform="matrix(1 0 0 1 -20 3.5)" class="st1 st2 st3">1.4</text>
</g>
<g>
	<path class="st4" d="M217.7,285.5l-0.9-2.2l-2.2-0.9l-2.2,0.9l-0.9,2.2l0.9,2.2l2.2,0.9l2.2-0.9L217.7,285.5z"/>
	<path class="st4" d="M201.7,306.5l-0.9-2.2l-2.2-0.9l-2.2,0.9l-0.9,2.2l0.9,2.2l2.2,0.9l2.2-0.9L201.7,306.5z"/>
	<path class="st4" d="M202.7,301.5l-0.9-2.2l-2.2-0.9l-2.2,0.9l-0.9,2.2l0.9,2.2l2.2,0.9l2.2-0.9L202.7,301.5z"/>
	<path class="st4" d="M196.7,306.5l-0.9-2.2l-2.2-0.9l-2.2,0.9l-0.9,2.2l0.9,2.2l2.2,0.9l2.2-0.9L196.7,306.5z"/>
	<path class="st4" d="M199.7,305.5l-0.9-2.2l-2.2-0.9l-2.2,0.9l-0.9,2.2l0.9,2.2l2.2,0.9l2.2-0.9L199.7,305.5z"/>
	<path class="st4" d="M196.7,306.5l-0.9-2.2l-2.2-0.9l-2.2,0.9l-0.9,2.2l0.9,2.2l2.2,0.9l2.2-0.9L196.7,306.5z"/>
	<path class="st4" d="M196.7,306.5l-0.9-2.2l-2.2-0.9l-2.2,0.9l-0.9,2.2l0.9,2.2l2.2,0.9l2.2-0.9L196.7,306.5z"/>
	<path class="st4" d="M199.7,305.5l-0.9-2.2l-2.2-0.9l-2.2,0.9l-0.9,2.2l0.9,2.2l2.2,0.9l2.2-0.9L199.7,305.5z"/>
	<path class="st4" d="M222.7,279.5l-0.9-2.2l-2.2-0.9l-2.2,0.9l-0.9,2.2l0.9,2.2l2.2,0.9l2.2-0.9L222.7,279.5z"/>
	<path class="st4" d="M197.7,306.5l-0.9-2.2l-2.2-0.9l-2.2,0.9l-0.9,2.2l0.9,2.2l2.2,0.9l2.2-0.9L197.7,306.5z"/>
	<path class="st4" d="M206.7,295.5l-0.9-2.2l-2.2-0.9l-2.2,0.9l-0.9,2.2l0.9,2.2l2.2,0.9l2.2-0.9L206.7,295.5z"/>
	<path class="st4" d="M194.7,308.5l-0.9-2.2l-2.2-0.9l-2.2,0.9l-0.9,2.2l0.9,2.2l2.2,0.9l2.2-0.9L194.7,308.5z"/>
	<path class="st4" d="M195.7,308.5l-0.9-2.2l-2.2-0.9l-2.2,0.9l-0.9,2.2l0.9,2.2l2.2,0.9l2.2-0.9L195.7,308.5z"/>
	<path class="st4" d="M194.7,308.5l-0.9-2.2l-2.2-0.9l-2.2,0.9l-0.9,2.2l0.9,2.2l2.2,0.9l2.2-0.9L194.7,308.5z"/>
	<path class="st4" d="M198.7,305.5l-0.9-2.2l-2.2-0.9l-2.2,0.9l-0.9,2.2l0.9,2.2l2.2,0.9l2.2-0.9L198.7,305.5z"/>
	<path class="st4" d="M225.7,273.5l-0.9-2.2l-2.2-0.9l-2.2,0.9l-0.9,2.2l0.9,2.2l2.2,0.9l2.2-0.9L225.7,273.5z"/>
	<path class="st4" d="M195.7,307.5l-0.9-2.2l-2.2-0.9l-2.2,0.9l-0.9,2.2l0.9,2.2l2.2,0.9l2.2-0.9L195.7,307.5z"/>
	<path class="st4" d="M196.7,306.5l-0.9-2.2l-2.2-0.9l-2.2,0.9l-0.9,2.2l0.9,2.2l2.2,0.9l2.2-0.9L196.7,306.5z"/>
	<path class="st4" d="M220.7,278.5l-0.9-2.2l-2.2-0.9l-2.2,0.9l-0.9,2.2l0.9,2.2l2.2,0.9l2.2-0.9L220.7,278.5z"/>
	<path class="st4" d="M338.7,149.5l-0.9-2.2l-2.2-0.9l-2.2,0.9l-0.9,2.2l0.9,2.2l2.2,0.9l2.2-0.9L338.7,149.5z"/>
	<path class="st4" d="M220.7,280.5l-0.9-2.2l-2.2-0.9l-2.2,0.9l-0.9,2.2l0.9,2.2l2.2,0.9l2.2-0.9L220.7,280.5z"/>
	<path class="st5" d="M194.7,308.5l-0.9-2.2l-2.2-0.9l-2.2,0.9l-0.9,2.2l0.9,2.2l2.2,0.9l2.2-0.9L194.7,308.5z"/>
	<path class="st5" d="M221.7,277.5l-0.9-2.2l-2.2-0.9l-2.2,0.9l-0.9,2.2l0.9,2.2l2.2,0.9l2.2-0.9L221.7,277.5z"/>
	<path class="st5" d="M197.7,305.5l-0.9-2.2l-2.2-0.9l-2.2,0.9l-0.9,2.2l0.9,2.2l2.2,0.9l2.2-0.9L197.7,305.5z"/>
	<path class="st5" d="M199.7,302.5l-0.9-2.2l-2.2-0.9l-2.2,0.9l-0.9,2.2l0.9,2.2l2.2,0.9l2.2-0.9L199.7,302.5z"/>
	<path class="st5" d="M195.7,302.5l-0.9-2.2l-2.2-0.9l-2.2,0.9l-0.9,2.2l0.9,2.2l2.2,0.9l2.2-0.9L195.7,302.5z"/>
	<path class="st5" d="M197.7,305.5l-0.9-2.2l-2.2-0.9l-2.2,0.9l-0.9,2.2l0.9,2.2l2.2,0.9l2.2-0.9L197.7,305.5z"/>
	<path class="st5" d="M200.7,302.5l-0.9-2.2l-2.2-0.9l-2.2,0.9l-0.9,2.2l0.9,2.2l2.2,0.9l2.2-0.9L200.7,302.5z"/>
	<path class="st5" d="M195.7,307.5l-0.9-2.2l-2.2-0.9l-2.2,0.9l-0.9,2.2l0.9,2.2l2.2,0.9l2.2-0.9L195.7,307.5z"/>
	<path class="st5" d="M322.7,160.5l-0.9-2.2l-2.2-0.9l-2.2,0.9l-0.9,2.2l0.9,2.2l2.2,0.9l2.2-0.9L322.7,160.5z"/>
	<path class="st5" d="M195.7,307.5l-0.9-2.2l-2.2-0.9l-2.2,0.9l-0.9,2.2l0.9,2.2l2.2,0.9l2.2-0.9L195.7,307.5z"/>
	<path class="st5" d="M203.7,298.5l-0.9-2.2l-2.2-0.9l-2.2,0.9l-0.9,2.2l0.9,2.2l2.2,0.9l2.2-0.9L203.7,298.5z"/>
	<path class="st5" d="M199.7,302.5l-0.9-2.2l-2.2-0.9l-2.2,0.9l-0.9,2.2l0.9,2.2l2.2,0.9l2.2-0.9L199.7,302.5z"/>
	<path class="st5" d="M195.7,308.5l-0.9-2.2l-2.2-0.9l-2.2,0.9l-0.9,2.2l0.9,2.2l2.2,0.9l2.2-0.9L195.7,308.5z"/>
	<path class="st5" d="M267.7,224.5l-0.9-2.2l-2.2-0.9l-2.2,0.9l-0.9,2.2l0.9,2.2l2.2,0.9l2.2-0.9L267.7,224.5z"/>
	<path class="st5" d="M204.7,292.5l-0.9-2.2l-2.2-0.9l-2.2,0.9l-0.9,2.2l0.9,2.2l2.2,0.9l2.2-0.9L204.7,292.5z"/>
	<path class="st5" d="M201.7,301.5l-0.9-2.2l-2.2-0.9l-2.2,0.9l-0.9,2.2l0.9,2.2l2.2,0.9l2.2-0.9L201.7,301.5z"/>
	<path class="st5" d="M204.7,297.5l-0.9-2.2l-2.2-0.9l-2.2,0.9l-0.9,2.2l0.9,2.2l2.2,0.9l2.2-0.9L204.7,297.5z"/>
	<path class="st5" d="M199.7,303.5l-0.9-2.2l-2.2-0.9l-2.2,0.9l-0.9,2.2l0.9,2.2l2.2,0.9l2.2-0.9L199.7,303.5z"/>
	<path class="st5" d="M224.7,273.5l-0.9-2.2l-2.2-0.9l-2.2,0.9l-0.9,2.2l0.9,2.2l2.2,0.9l2.2-0.9L224.7,273.5z"/>
	<path class="st5" d="M198.7,305.5l-0.9-2.2l-2.2-0.9l-2.2,0.9l-0.9,2.2l0.9,2.2l2.2,0.9l2.2-0.9L198.7,305.5z"/>
	<path class="st5" d="M197.7,304.5l-0.9-2.2l-2.2-0.9l-2.2,0.9l-0.9,2.2l0.9,2.2l2.2,0.9l2.2-0.9L197.7,304.5z"/>
	<path class="st5" d="M202.7,300.5l-0.9-2.2l-2.2-0.9l-2.2,0.9l-0.9,2.2l0.9,2.2l2.2,0.9l2.2-0.9L202.7,300.5z"/>
	<path class="st5" d="M194.7,308.5l-0.9-2.2l-2.2-0.9l-2.2,0.9l-0.9,2.2l0.9,2.2l2.2,0.9l2.2-0.9L194.7,308.5z"/>
	<path class="st5" d="M195.7,307.5l-0.9-2.2l-2.2-0.9l-2.2,0.9l-0.9,2.2l0.9,2.2l2.2,0.9l2.2-0.9L195.7,307.5z"/>
	<path class="st5" d="M196.7,306.5l-0.9-2.2l-2.2-0.9l-2.2,0.9l-0.9,2.2l0.9,2.2l2.2,0.9l2.2-0.9L196.7,306.5z"/>
	<path class="st5" d="M263.7,229.5l-0.9-2.2l-2.2-0.9l-2.2,0.9l-0.9,2.2l0.9,2.2l2.2,0.9l2.2-0.9L263.7,229.5z"/>
	<path class="st5" d="M205.7,297.5l-0.9-2.2l-2.2-0.9l-2.2,0.9l-0.9,2.2l0.9,2.2l2.2,0.9l2.2-0.9L205.7,297.5z"/>
	<path class="st5" d="M416.7,56.5l-0.9-2.2l-2.2-0.9l-2.2,0.9l-0.9,2.2l0.9,2.2l2.2,0.9l2.2-0.9L416.7,56.5z"/>
	<path class="st5" d="M206.7,298.5l-0.9-2.2l-2.2-0.9l-2.2,0.9l-0.9,2.2l0.9,2.2l2.2,0.9l2.2-0.9L206.7,298.5z"/>
	<path class="st5" d="M248.7,244.5l-0.9-2.2l-2.2-0.9l-2.2,0.9l-0.9,2.2l0.9,2.2l2.2,0.9l2.2-0.9L248.7,244.5z"/>
	<path class="st5" d="M195.7,307.5l-0.9-2.2l-2.2-0.9l-2.2,0.9l-0.9,2.2l0.9,2.2l2.2,0.9l2.2-0.9L195.7,307.5z"/>
	<path class="st5" d="M200.7,301.5l-0.9-2.2l-2.2-0.9l-2.2,0.9l-0.9,2.2l0.9,2.2l2.2,0.9l2.2-0.9L200.7,301.5z"/>
	<path class="st5" d="M198.7,303.5l-0.9-2.2l-2.2-0.9l-2.2,0.9l-0.9,2.2l0.9,2.2l2.2,0.9l2.2-0.9L198.7,303.5z"/>
	<path class="st5" d="M201.7,300.5l-0.9-2.2l-2.2-0.9l-2.2,0.9l-0.9,2.2l0.9,2.2l2.2,0.9l2.2-0.9L201.7,300.5z"/>
	<path class="st5" d="M200.7,301.5l-0.9-2.2l-2.2-0.9l-2.2,0.9l-0.9,2.2l0.9,2.2l2.2,0.9l2.2-0.9L200.7,301.5z"/>
	<path class="st5" d="M198.7,304.5l-0.9-2.2l-2.2-0.9l-2.2,0.9l-0.9,2.2l0.9,2.2l2.2,0.9l2.2-0.9L198.7,304.5z"/>
	<path class="st5" d="M196.7,305.5l-0.9-2.2l-2.2-0.9l-2.2,0.9l-0.9,2.2l0.9,2.2l2.2,0.9l2.2-0.9L196.7,305.5z"/>
	<path class="st5" d="M262.7,240.5l-0.9-2.2l-2.2-0.9l-2.2,0.9l-0.9,2.2l0.9,2.2l2.2,0.9l2.2-0.9L262.7,240.5z"/>
	<path class="st5" d="M200.7,300.5l-0.9-2.2l-2.2-0.9l-2.2,0.9l-0.9,2.2l0.9,2.2l2.2,0.9l2.2-0.9L200.7,300.5z"/>
	<path class="st5" d="M201.7,304.5l-0.9-2.2l-2.2-0.9l-2.2,0.9l-0.9,2.2l0.9,2.2l2.2,0.9l2.2-0.9L201.7,304.5z"/>
	<path class="st5" d="M198.7,305.5l-0.9-2.2l-2.2-0.9l-2.2,0.9l-0.9,2.2l0.9,2.2l2.2,0.9l2.2-0.9L198.7,305.5z"/>
	<path class="st5" d="M196.7,307.5l-0.9-2.2l-2.2-0.9l-2.2,0.9l-0.9,2.2l0.9,2.2l2.2,0.9l2.2-0.9L196.7,307.5z"/>
	<path class="st5" d="M194.7,307.5l-0.9-2.2l-2.2-0.9l-2.2,0.9l-0.9,2.2l0.9,2.2l2.2,0.9l2.2-0.9L194.7,307.5z"/>
	<path class="st5" d="M195.7,307.5l-0.9-2.2l-2.2-0.9l-2.2,0.9l-0.9,2.2l0.9,2.2l2.2,0.9l2.2-0.9L195.7,307.5z"/>
	<path class="st5" d="M207.7,293.5l-0.9-2.2l-2.2-0.9l-2.2,0.9l-0.9,2.2l0.9,2.2l2.2,0.9l2.2-0.9L207.7,293.5z"/>
	<path class="st5" d="M205.7,296.5l-0.9-2.2l-2.2-0.9l-2.2,0.9l-0.9,2.2l0.9,2.2l2.2,0.9l2.2-0.9L205.7,296.5z"/>
	<path class="st5" d="M222.7,276.5l-0.9-2.2l-2.2-0.9l-2.2,0.9l-0.9,2.2l0.9,2.2l2.2,0.9l2.2-0.9L222.7,276.5z"/>
	<path class="st5" d="M204.7,283.5l-0.9-2.2l-2.2-0.9l-2.2,0.9l-0.9,2.2l0.9,2.2l2.2,0.9l2.2-0.9L204.7,283.5z"/>
	<path class="st5" d="M226.7,271.5l-0.9-2.2l-2.2-0.9l-2.2,0.9l-0.9,2.2l0.9,2.2l2.2,0.9l2.2-0.9L226.7,271.5z"/>
	<path class="st5" d="M196.7,306.5l-0.9-2.2l-2.2-0.9l-2.2,0.9l-0.9,2.2l0.9,2.2l2.2,0.9l2.2-0.9L196.7,306.5z"/>
	<path class="st5" d="M204.7,297.5l-0.9-2.2l-2.2-0.9l-2.2,0.9l-0.9,2.2l0.9,2.2l2.2,0.9l2.2-0.9L204.7,297.5z"/>
	<path class="st5" d="M228.7,270.5l-0.9-2.2l-2.2-0.9l-2.2,0.9l-0.9,2.2l0.9,2.2l2.2,0.9l2.2-0.9L228.7,270.5z"/>
	<path class="st5" d="M199.7,303.5l-0.9-2.2l-2.2-0.9l-2.2,0.9l-0.9,2.2l0.9,2.2l2.2,0.9l2.2-0.9L199.7,303.5z"/>
	<path class="st5" d="M210.7,288.5l-0.9-2.2l-2.2-0.9l-2.2,0.9l-0.9,2.2l0.9,2.2l2.2,0.9l2.2-0.9L210.7,288.5z"/>
	<path class="st5" d="M195.7,307.5l-0.9-2.2l-2.2-0.9l-2.2,0.9l-0.9,2.2l0.9,2.2l2.2,0.9l2.2-0.9L195.7,307.5z"/>
	<path class="st5" d="M195.7,306.5l-0.9-2.2l-2.2-0.9l-2.2,0.9l-0.9,2.2l0.9,2.2l2.2,0.9l2.2-0.9L195.7,306.5z"/>
	<path class="st5" d="M213.7,282.5l-0.9-2.2l-2.2-0.9l-2.2,0.9l-0.9,2.2l0.9,2.2l2.2,0.9l2.2-0.9L213.7,282.5z"/>
	<path class="st5" d="M207.7,300.5l-0.9-2.2l-2.2-0.9l-2.2,0.9l-0.9,2.2l0.9,2.2l2.2,0.9l2.2-0.9L207.7,300.5z"/>
	<path class="st5" d="M206.7,294.5l-0.9-2.2l-2.2-0.9l-2.2,0.9l-0.9,2.2l0.9,2.2l2.2,0.9l2.2-0.9L206.7,294.5z"/>
	<path class="st5" d="M195.7,307.5l-0.9-2.2l-2.2-0.9l-2.2,0.9l-0.9,2.2l0.9,2.2l2.2,0.9l2.2-0.9L195.7,307.5z"/>
	<path class="st5" d="M209.7,292.5l-0.9-2.2l-2.2-0.9l-2.2,0.9l-0.9,2.2l0.9,2.2l2.2,0.9l2.2-0.9L209.7,292.5z"/>
	<path class="st5" d="M200.7,302.5l-0.9-2.2l-2.2-0.9l-2.2,0.9l-0.9,2.2l0.9,2.2l2.2,0.9l2.2-0.9L200.7,302.5z"/>
	<path class="st5" d="M196.7,306.5l-0.9-2.2l-2.2-0.9l-2.2,0.9l-0.9,2.2l0.9,2.2l2.2,0.9l2.2-0.9L196.7,306.5z"/>
	<path class="st5" d="M224.7,273.5l-0.9-2.2l-2.2-0.9l-2.2,0.9l-0.9,2.2l0.9,2.2l2.2,0.9l2.2-0.9L224.7,273.5z"/>
	<path class="st5" d="M201.7,301.5l-0.9-2.2l-2.2-0.9l-2.2,0.9l-0.9,2.2l0.9,2.2l2.2,0.9l2.2-0.9L201.7,301.5z"/>
	<path class="st5" d="M196.7,306.5l-0.9-2.2l-2.2-0.9l-2.2,0.9l-0.9,2.2l0.9,2.2l2.2,0.9l2.2-0.9L196.7,306.5z"/>
	<path class="st5" d="M211.7,292.5l-0.9-2.2l-2.2-0.9l-2.2,0.9l-0.9,2.2l0.9,2.2l2.2,0.9l2.2-0.9L211.7,292.5z"/>
	<path class="st5" d="M195.7,307.5l-0.9-2.2l-2.2-0.9l-2.2,0.9l-0.9,2.2l0.9,2.2l2.2,0.9l2.2-0.9L195.7,307.5z"/>
	<path class="st5" d="M216.7,285.5l-0.9-2.2l-2.2-0.9l-2.2,0.9l-0.9,2.2l0.9,2.2l2.2,0.9l2.2-0.9L216.7,285.5z"/>
	<path class="st5" d="M195.7,308.5l-0.9-2.2l-2.2-0.9l-2.2,0.9l-0.9,2.2l0.9,2.2l2.2,0.9l2.2-0.9L195.7,308.5z"/>
	<path class="st5" d="M222.7,279.5l-0.9-2.2l-2.2-0.9l-2.2,0.9l-0.9,2.2l0.9,2.2l2.2,0.9l2.2-0.9L222.7,279.5z"/>
	<path class="st5" d="M200.7,300.5l-0.9-2.2l-2.2-0.9l-2.2,0.9l-0.9,2.2l0.9,2.2l2.2,0.9l2.2-0.9L200.7,300.5z"/>
	<path class="st5" d="M195.7,307.5l-0.9-2.2l-2.2-0.9l-2.2,0.9l-0.9,2.2l0.9,2.2l2.2,0.9l2.2-0.9L195.7,307.5z"/>
	<path class="st5" d="M223.7,286.5l-0.9-2.2l-2.2-0.9l-2.2,0.9l-0.9,2.2l0.9,2.2l2.2,0.9l2.2-0.9L223.7,286.5z"/>
	<path class="st5" d="M198.7,304.5l-0.9-2.2l-2.2-0.9l-2.2,0.9l-0.9,2.2l0.9,2.2l2.2,0.9l2.2-0.9L198.7,304.5z"/>
	<path class="st5" d="M203.7,297.5l-0.9-2.2l-2.2-0.9l-2.2,0.9l-0.9,2.2l0.9,2.2l2.2,0.9l2.2-0.9L203.7,297.5z"/>
	<path class="st5" d="M196.7,307.5l-0.9-2.2l-2.2-0.9l-2.2,0.9l-0.9,2.2l0.9,2.2l2.2,0.9l2.2-0.9L196.7,307.5z"/>
	<path class="st5" d="M241.7,254.5l-0.9-2.2l-2.2-0.9l-2.2,0.9l-0.9,2.2l0.9,2.2l2.2,0.9l2.2-0.9L241.7,254.5z"/>
	<path class="st5" d="M214.7,286.5l-0.9-2.2l-2.2-0.9l-2.2,0.9l-0.9,2.2l0.9,2.2l2.2,0.9l2.2-0.9L214.7,286.5z"/>
	<path class="st5" d="M202.7,297.5l-0.9-2.2l-2.2-0.9l-2.2,0.9l-0.9,2.2l0.9,2.2l2.2,0.9l2.2-0.9L202.7,297.5z"/>
</g>
<g>
	<line class="st6" x1="191" y1="309" x2="413" y2="56"/>
</g>
<g>
	<line class="st0" x1="191" y1="624" x2="413" y2="624"/>
	<line class="st0" x1="209.6" y1="624" x2="209.6" y2="618.9"/>
	<line class="st0" x1="255.8" y1="624" x2="255.8" y2="618.9"/>
	<line class="st0" x1="302" y1="624" x2="302" y2="618.9"/>
	<line class="st0" x1="348.2" y1="624" x2="348.2" y2="618.9"/>
	<line class="st0" x1="394.4" y1="624" x2="394.4" y2="618.9"/>
</g>
<g transform="translate(209.6195,668.8)">
	<text transform="matrix(1 0 0 1 -6.5 -29)" class="st1 st2 st3">-1</text>
</g>
<g transform="translate(255.8098,668.8)">
	<text transform="matrix(1 0 0 1 -12.5 -29)" class="st1 st2 st3">-0.5</text>
</g>
<g transform="translate(302,668.8)">
	<text transform="matrix(1 0 0 1 -4 -29)" class="st1 st2 st3">0</text>
</g>
<g transform="translate(348.1902,668.8)">
	<text transform="matrix(1 0 0 1 -10 -29)" class="st1 st2 st3">0.5</text>
</g>
<g transform="translate(394.3805,668.8)">
	<text transform="matrix(1 0 0 1 -4 -29)" class="st1 st2 st3">1</text>
</g>
<g>
	<line class="st0" x1="191" y1="624" x2="191" y2="371"/>
	<line class="st0" x1="191" y1="624" x2="196.1" y2="624"/>
	<line class="st0" x1="191" y1="560.8" x2="196.1" y2="560.8"/>
	<line class="st0" x1="191" y1="497.5" x2="196.1" y2="497.5"/>
	<line class="st0" x1="191" y1="434.2" x2="196.1" y2="434.2"/>
	<line class="st0" x1="191" y1="371" x2="196.1" y2="371"/>
</g>
<g transform="translate(186.2,664)">
	<text transform="matrix(1 0 0 1 -8 -36.5)" class="st1 st2 st3">0</text>
</g>
<g transform="translate(186.2,600.75)">
	<text transform="matrix(1 0 0 1 -16 -36.5)" class="st1 st2 st3">50</text>
</g>
<g transform="translate(186.2,537.5)">
	<text transform="matrix(1 0 0 1 -24 -36.5)" class="st1 st2 st3">100</text>
</g>
<g transform="translate(186.2,474.25)">
	<text transform="matrix(1 0 0 1 -24 -36.5)" class="st1 st2 st3">150</text>
</g>
<g transform="translate(186.2,411)">
	<text transform="matrix(1 0 0 1 -24 -36.5)" class="st1 st2 st3">200</text>
</g>
<g>
	<path class="st7" d="M260.4,624v-1.3h4.6v1.3H260.4z"/>
	<path class="st7" d="M265,624L265,624h4.6l0,0H265z"/>
	<path class="st7" d="M269.7,624v-1.3h4.6v1.3H269.7z"/>
	<path class="st7" d="M274.3,624L274.3,624h4.6l0,0H274.3z"/>
	<path class="st7" d="M278.9,624v-1.3h4.6v1.3H278.9z"/>
	<path class="st7" d="M283.5,624v-2.5h4.6v2.5H283.5z"/>
	<path class="st7" d="M288.1,624v-6.3h4.6v6.3H288.1z"/>
	<path class="st7" d="M292.8,624v-8.9h4.6v8.9H292.8z"/>
	<path class="st7" d="M297.4,624V383.6h4.6V624H297.4z"/>
	<path class="st7" d="M302,624v-46.8h4.6V624H302z"/>
	<path class="st7" d="M306.6,624v-1.3h4.6v1.3H306.6z"/>
	<path class="st7" d="M311.2,624L311.2,624h4.6l0,0H311.2z"/>
	<path class="st7" d="M315.9,624L315.9,624h4.6l0,0H315.9z"/>
	<path class="st7" d="M320.5,624L320.5,624h4.6l0,0H320.5z"/>
	<path class="st7" d="M325.1,624L325.1,624h4.6l0,0H325.1z"/>
	<path class="st7" d="M329.7,624L329.7,624h4.6l0,0H329.7z"/>
	<path class="st7" d="M334.3,624L334.3,624h4.6l0,0H334.3z"/>
	<path class="st7" d="M339,624L339,624h4.6l0,0H339z"/>
	<path class="st7" d="M343.6,624L343.6,624h4.6l0,0H343.6z"/>
	<path class="st7" d="M348.2,624L348.2,624h4.6l0,0H348.2z"/>
	<path class="st7" d="M352.8,624L352.8,624h4.6l0,0H352.8z"/>
	<path class="st7" d="M357.4,624L357.4,624h4.6l0,0H357.4z"/>
	<path class="st7" d="M362,624L362,624h4.6l0,0H362z"/>
	<path class="st7" d="M366.7,624v-1.3h4.6v1.3H366.7z"/>
</g>
<g>
	<path class="st8" d="M260.4,624v-1.3h4.6v1.3l0,0"/>
	<line class="st8" x1="265" y1="624" x2="269.7" y2="624"/>
	<path class="st8" d="M269.7,624L269.7,624v-1.3h4.6v1.3l0,0"/>
	<line class="st8" x1="274.3" y1="624" x2="278.9" y2="624"/>
	<path class="st8" d="M278.9,624L278.9,624v-1.3h4.6"/>
	<path class="st8" d="M283.5,624L283.5,624v-2.5h4.6"/>
	<path class="st8" d="M288.1,624L288.1,624v-6.3h4.6"/>
	<path class="st8" d="M292.8,624L292.8,624v-8.9h4.6"/>
	<path class="st8" d="M297.4,624L297.4,624V383.6h4.6V624l0,0"/>
	<path class="st8" d="M302,577.2h4.6V624l0,0"/>
	<path class="st8" d="M306.6,622.7h4.6v1.3l0,0"/>
	<path class="st8" d="M311.2,624h4.6l0,0l0,0"/>
	<path class="st8" d="M315.9,624h4.6l0,0l0,0"/>
	<path class="st8" d="M320.5,624h4.6l0,0l0,0"/>
	<path class="st8" d="M325.1,624h4.6l0,0l0,0"/>
	<path class="st8" d="M329.7,624h4.6l0,0l0,0"/>
	<path class="st8" d="M334.3,624h4.6l0,0l0,0"/>
	<path class="st8" d="M339,624h4.6l0,0l0,0"/>
	<path class="st8" d="M343.6,624h4.6l0,0l0,0"/>
	<path class="st8" d="M348.2,624h4.6l0,0l0,0"/>
	<path class="st8" d="M352.8,624h4.6l0,0l0,0"/>
	<path class="st8" d="M357.4,624h4.6l0,0l0,0"/>
	<line class="st8" x1="362" y1="624" x2="366.7" y2="624"/>
	<path class="st8" d="M366.7,624L366.7,624v-1.3h4.6v1.3"/>
	<line class="st9" x1="302" y1="624" x2="302" y2="371"/>
</g>
<g>
	<path class="st10" d="M488,309h222V56H488V309z"/>
</g>
<g>
	<line class="st0" x1="488" y1="309" x2="710" y2="309"/>
	<line class="st0" x1="488" y1="309" x2="488" y2="303.9"/>
	<line class="st0" x1="564.2" y1="309" x2="564.2" y2="303.9"/>
	<line class="st0" x1="640.5" y1="309" x2="640.5" y2="303.9"/>
</g>
<g transform="translate(488,313.8)">
	<text transform="matrix(1 0 0 1 -4 11)" class="st1 st2 st3">0</text>
</g>
<g transform="translate(564.243,313.8)">
	<text transform="matrix(1 0 0 1 -10 11)" class="st1 st2 st3">0.5</text>
</g>
<g transform="translate(640.4861,313.8)">
	<text transform="matrix(1 0 0 1 -4 11)" class="st1 st2 st3">1</text>
</g>
<g>
	<line class="st0" x1="488" y1="309" x2="488" y2="56"/>
	<line class="st0" x1="488" y1="309" x2="493.1" y2="309"/>
	<line class="st0" x1="488" y1="274.2" x2="493.1" y2="274.2"/>
	<line class="st0" x1="488" y1="239.5" x2="493.1" y2="239.5"/>
	<line class="st0" x1="488" y1="204.7" x2="493.1" y2="204.7"/>
	<line class="st0" x1="488" y1="170" x2="493.1" y2="170"/>
	<line class="st0" x1="488" y1="135.2" x2="493.1" y2="135.2"/>
	<line class="st0" x1="488" y1="100.5" x2="493.1" y2="100.5"/>
	<line class="st0" x1="488" y1="65.7" x2="493.1" y2="65.7"/>
</g>
<g transform="translate(483.2,309)">
	<text transform="matrix(1 0 0 1 -8 3.5)" class="st1 st2 st3">0</text>
</g>
<g transform="translate(483.2,274.2442)">
	<text transform="matrix(1 0 0 1 -20 3.5)" class="st1 st2 st3">0.2</text>
</g>
<g transform="translate(483.2,239.4883)">
	<text transform="matrix(1 0 0 1 -20 3.5)" class="st1 st2 st3">0.4</text>
</g>
<g transform="translate(483.2,204.7325)">
	<text transform="matrix(1 0 0 1 -20 3.5)" class="st1 st2 st3">0.6</text>
</g>
<g transform="translate(483.2,169.9767)">
	<text transform="matrix(1 0 0 1 -20 3.5)" class="st1 st2 st3">0.8</text>
</g>
<g transform="translate(483.2,135.2208)">
	<text transform="matrix(1 0 0 1 -8 3.5)" class="st1 st2 st3">1</text>
</g>
<g transform="translate(483.2,100.465)">
	<text transform="matrix(1 0 0 1 -20 3.5)" class="st1 st2 st3">1.2</text>
</g>
<g transform="translate(483.2,65.7092)">
	<text transform="matrix(1 0 0 1 -20 3.5)" class="st1 st2 st3">1.4</text>
</g>
<g>
	<path class="st4" d="M493.7,285.5l-0.9-2.2l-2.2-0.9l-2.2,0.9l-0.9,2.2l0.9,2.2l2.2,0.9l2.2-0.9L493.7,285.5z"/>
	<path class="st4" d="M513.7,279.5l-0.9-2.2l-2.2-0.9l-2.2,0.9l-0.9,2.2l0.9,2.2l2.2,0.9l2.2-0.9L513.7,279.5z"/>
	<path class="st4" d="M502.7,295.5l-0.9-2.2l-2.2-0.9l-2.2,0.9l-0.9,2.2l0.9,2.2l2.2,0.9l2.2-0.9L502.7,295.5z"/>
	<path class="st4" d="M521.7,273.5l-0.9-2.2l-2.2-0.9l-2.2,0.9l-0.9,2.2l0.9,2.2l2.2,0.9l2.2-0.9L521.7,273.5z"/>
	<path class="st4" d="M491.7,307.5l-0.9-2.2l-2.2-0.9l-2.2,0.9l-0.9,2.2l0.9,2.2l2.2,0.9l2.2-0.9L491.7,307.5z"/>
	<path class="st4" d="M513.7,278.5l-0.9-2.2l-2.2-0.9l-2.2,0.9l-0.9,2.2l0.9,2.2l2.2,0.9l2.2-0.9L513.7,278.5z"/>
	<path class="st4" d="M585.7,149.5l-0.9-2.2l-2.2-0.9l-2.2,0.9l-0.9,2.2l0.9,2.2l2.2,0.9l2.2-0.9L585.7,149.5z"/>
	<path class="st4" d="M507.7,280.5l-0.9-2.2l-2.2-0.9l-2.2,0.9l-0.9,2.2l0.9,2.2l2.2,0.9l2.2-0.9L507.7,280.5z"/>
	<path class="st5" d="M517.7,277.5l-0.9-2.2l-2.2-0.9l-2.2,0.9l-0.9,2.2l0.9,2.2l2.2,0.9l2.2-0.9L517.7,277.5z"/>
	<path class="st5" d="M493.7,305.5l-0.9-2.2l-2.2-0.9l-2.2,0.9l-0.9,2.2l0.9,2.2l2.2,0.9l2.2-0.9L493.7,305.5z"/>
	<path class="st5" d="M496.7,302.5l-0.9-2.2l-2.2-0.9l-2.2,0.9l-0.9,2.2l0.9,2.2l2.2,0.9l2.2-0.9L496.7,302.5z"/>
	<path class="st5" d="M493.7,302.5l-0.9-2.2l-2.2-0.9l-2.2,0.9l-0.9,2.2l0.9,2.2l2.2,0.9l2.2-0.9L493.7,302.5z"/>
	<path class="st5" d="M618.7,160.5l-0.9-2.2l-2.2-0.9l-2.2,0.9l-0.9,2.2l0.9,2.2l2.2,0.9l2.2-0.9L618.7,160.5z"/>
	<path class="st5" d="M495.7,298.5l-0.9-2.2l-2.2-0.9l-2.2,0.9l-0.9,2.2l0.9,2.2l2.2,0.9l2.2-0.9L495.7,298.5z"/>
	<path class="st5" d="M494.7,302.5l-0.9-2.2l-2.2-0.9l-2.2,0.9l-0.9,2.2l0.9,2.2l2.2,0.9l2.2-0.9L494.7,302.5z"/>
	<path class="st5" d="M561.7,224.5l-0.9-2.2l-2.2-0.9l-2.2,0.9l-0.9,2.2l0.9,2.2l2.2,0.9l2.2-0.9L561.7,224.5z"/>
	<path class="st5" d="M500.7,292.5l-0.9-2.2l-2.2-0.9l-2.2,0.9l-0.9,2.2l0.9,2.2l2.2,0.9l2.2-0.9L500.7,292.5z"/>
	<path class="st5" d="M494.7,301.5l-0.9-2.2l-2.2-0.9l-2.2,0.9l-0.9,2.2l0.9,2.2l2.2,0.9l2.2-0.9L494.7,301.5z"/>
	<path class="st5" d="M497.7,297.5l-0.9-2.2l-2.2-0.9l-2.2,0.9l-0.9,2.2l0.9,2.2l2.2,0.9l2.2-0.9L497.7,297.5z"/>
	<path class="st5" d="M495.7,303.5l-0.9-2.2l-2.2-0.9l-2.2,0.9l-0.9,2.2l0.9,2.2l2.2,0.9l2.2-0.9L495.7,303.5z"/>
	<path class="st5" d="M519.7,273.5l-0.9-2.2l-2.2-0.9l-2.2,0.9l-0.9,2.2l0.9,2.2l2.2,0.9l2.2-0.9L519.7,273.5z"/>
	<path class="st5" d="M493.7,304.5l-0.9-2.2l-2.2-0.9l-2.2,0.9l-0.9,2.2l0.9,2.2l2.2,0.9l2.2-0.9L493.7,304.5z"/>
	<path class="st5" d="M498.7,300.5l-0.9-2.2l-2.2-0.9l-2.2,0.9l-0.9,2.2l0.9,2.2l2.2,0.9l2.2-0.9L498.7,300.5z"/>
	<path class="st5" d="M491.7,307.5l-0.9-2.2l-2.2-0.9l-2.2,0.9l-0.9,2.2l0.9,2.2l2.2,0.9l2.2-0.9L491.7,307.5z"/>
	<path class="st5" d="M491.7,306.5l-0.9-2.2l-2.2-0.9l-2.2,0.9l-0.9,2.2l0.9,2.2l2.2,0.9l2.2-0.9L491.7,306.5z"/>
	<path class="st5" d="M552.7,229.5l-0.9-2.2l-2.2-0.9l-2.2,0.9l-0.9,2.2l0.9,2.2l2.2,0.9l2.2-0.9L552.7,229.5z"/>
	<path class="st5" d="M497.7,297.5l-0.9-2.2l-2.2-0.9l-2.2,0.9l-0.9,2.2l0.9,2.2l2.2,0.9l2.2-0.9L497.7,297.5z"/>
	<path class="st5" d="M692.7,56.5l-0.9-2.2l-2.2-0.9l-2.2,0.9l-0.9,2.2l0.9,2.2l2.2,0.9l2.2-0.9L692.7,56.5z"/>
	<path class="st5" d="M549.7,244.5l-0.9-2.2l-2.2-0.9l-2.2,0.9l-0.9,2.2l0.9,2.2l2.2,0.9l2.2-0.9L549.7,244.5z"/>
	<path class="st5" d="M491.7,307.5l-0.9-2.2l-2.2-0.9l-2.2,0.9l-0.9,2.2l0.9,2.2l2.2,0.9l2.2-0.9L491.7,307.5z"/>
	<path class="st5" d="M496.7,301.5l-0.9-2.2l-2.2-0.9l-2.2,0.9l-0.9,2.2l0.9,2.2l2.2,0.9l2.2-0.9L496.7,301.5z"/>
	<path class="st5" d="M496.7,300.5l-0.9-2.2l-2.2-0.9l-2.2,0.9l-0.9,2.2l0.9,2.2l2.2,0.9l2.2-0.9L496.7,300.5z"/>
	<path class="st5" d="M493.7,305.5l-0.9-2.2l-2.2-0.9l-2.2,0.9l-0.9,2.2l0.9,2.2l2.2,0.9l2.2-0.9L493.7,305.5z"/>
	<path class="st5" d="M528.7,240.5l-0.9-2.2l-2.2-0.9l-2.2,0.9l-0.9,2.2l0.9,2.2l2.2,0.9l2.2-0.9L528.7,240.5z"/>
	<path class="st5" d="M498.7,300.5l-0.9-2.2l-2.2-0.9l-2.2,0.9l-0.9,2.2l0.9,2.2l2.2,0.9l2.2-0.9L498.7,300.5z"/>
	<path class="st5" d="M501.7,297.5l-0.9-2.2l-2.2-0.9l-2.2,0.9l-0.9,2.2l0.9,2.2l2.2,0.9l2.2-0.9L501.7,297.5z"/>
	<path class="st5" d="M495.7,303.5l-0.9-2.2l-2.2-0.9l-2.2,0.9l-0.9,2.2l0.9,2.2l2.2,0.9l2.2-0.9L495.7,303.5z"/>
	<path class="st5" d="M491.7,307.5l-0.9-2.2l-2.2-0.9l-2.2,0.9l-0.9,2.2l0.9,2.2l2.2,0.9l2.2-0.9L491.7,307.5z"/>
	<path class="st5" d="M492.7,306.5l-0.9-2.2l-2.2-0.9l-2.2,0.9l-0.9,2.2l0.9,2.2l2.2,0.9l2.2-0.9L492.7,306.5z"/>
	<path class="st5" d="M514.7,282.5l-0.9-2.2l-2.2-0.9l-2.2,0.9l-0.9,2.2l0.9,2.2l2.2,0.9l2.2-0.9L514.7,282.5z"/>
	<path class="st5" d="M502.7,294.5l-0.9-2.2l-2.2-0.9l-2.2,0.9l-0.9,2.2l0.9,2.2l2.2,0.9l2.2-0.9L502.7,294.5z"/>
	<path class="st5" d="M520.7,273.5l-0.9-2.2l-2.2-0.9l-2.2,0.9l-0.9,2.2l0.9,2.2l2.2,0.9l2.2-0.9L520.7,273.5z"/>
	<path class="st5" d="M496.7,301.5l-0.9-2.2l-2.2-0.9l-2.2,0.9l-0.9,2.2l0.9,2.2l2.2,0.9l2.2-0.9L496.7,301.5z"/>
	<path class="st5" d="M493.7,286.5l-0.9-2.2l-2.2-0.9l-2.2,0.9l-0.9,2.2l0.9,2.2l2.2,0.9l2.2-0.9L493.7,286.5z"/>
	<path class="st5" d="M492.7,304.5l-0.9-2.2l-2.2-0.9l-2.2,0.9l-0.9,2.2l0.9,2.2l2.2,0.9l2.2-0.9L492.7,304.5z"/>
	<path class="st5" d="M491.7,297.5l-0.9-2.2l-2.2-0.9l-2.2,0.9l-0.9,2.2l0.9,2.2l2.2,0.9l2.2-0.9L491.7,297.5z"/>
	<path class="st5" d="M525.7,254.5l-0.9-2.2l-2.2-0.9l-2.2,0.9l-0.9,2.2l0.9,2.2l2.2,0.9l2.2-0.9L525.7,254.5z"/>
	<path class="st5" d="M508.7,286.5l-0.9-2.2l-2.2-0.9l-2.2,0.9l-0.9,2.2l0.9,2.2l2.2,0.9l2.2-0.9L508.7,286.5z"/>
	<path class="st5" d="M498.7,297.5l-0.9-2.2l-2.2-0.9l-2.2,0.9l-0.9,2.2l0.9,2.2l2.2,0.9l2.2-0.9L498.7,297.5z"/>
</g>
<g>
	<line class="st6" x1="488" y1="309" x2="710" y2="56"/>
</g>
<g>
	<line class="st0" x1="488" y1="624" x2="710" y2="624"/>
	<line class="st0" x1="506.6" y1="624" x2="506.6" y2="618.9"/>
	<line class="st0" x1="552.8" y1="624" x2="552.8" y2="618.9"/>
	<line class="st0" x1="599" y1="624" x2="599" y2="618.9"/>
	<line class="st0" x1="645.2" y1="624" x2="645.2" y2="618.9"/>
	<line class="st0" x1="691.4" y1="624" x2="691.4" y2="618.9"/>
</g>
<g transform="translate(506.6195,668.8)">
	<text transform="matrix(1 0 0 1 -6.5 -29)" class="st1 st2 st3">-1</text>
</g>
<g transform="translate(552.8098,668.8)">
	<text transform="matrix(1 0 0 1 -12.5 -29)" class="st1 st2 st3">-0.5</text>
</g>
<g transform="translate(599,668.8)">
	<text transform="matrix(1 0 0 1 -4 -29)" class="st1 st2 st3">0</text>
</g>
<g transform="translate(645.1902,668.8)">
	<text transform="matrix(1 0 0 1 -10 -29)" class="st1 st2 st3">0.5</text>
</g>
<g transform="translate(691.3805,668.8)">
	<text transform="matrix(1 0 0 1 -4 -29)" class="st1 st2 st3">1</text>
</g>
<g>
	<line class="st0" x1="488" y1="624" x2="488" y2="371"/>
	<line class="st0" x1="488" y1="624" x2="493.1" y2="624"/>
	<line class="st0" x1="488" y1="539.7" x2="493.1" y2="539.7"/>
	<line class="st0" x1="488" y1="455.3" x2="493.1" y2="455.3"/>
	<line class="st0" x1="488" y1="371" x2="493.1" y2="371"/>
</g>
<g transform="translate(483.2,664)">
	<text transform="matrix(1 0 0 1 -8 -36.5)" class="st1 st2 st3">0</text>
</g>
<g transform="translate(483.2,579.6667)">
	<text transform="matrix(1 0 0 1 -16 -36.5)" class="st1 st2 st3">50</text>
</g>
<g transform="translate(483.2,495.3333)">
	<text transform="matrix(1 0 0 1 -24 -36.5)" class="st1 st2 st3">100</text>
</g>
<g transform="translate(483.2,411)">
	<text transform="matrix(1 0 0 1 -24 -36.5)" class="st1 st2 st3">150</text>
</g>
<g>
	<path class="st7" d="M594.4,624v-3.4h4.6v3.4H594.4z"/>
	<path class="st7" d="M599,624V379.4h4.6V624H599z"/>
	<path class="st7" d="M603.6,624v-42.2h4.6V624H603.6z"/>
	<path class="st7" d="M608.2,624v-20.2h4.6V624H608.2z"/>
	<path class="st7" d="M612.9,624v-3.4h4.6v3.4H612.9z"/>
	<path class="st7" d="M617.5,624v-3.4h4.6v3.4H617.5z"/>
	<path class="st7" d="M622.1,624v-1.7h4.6v1.7H622.1z"/>
	<path class="st7" d="M626.7,624v-5.1h4.6v5.1H626.7z"/>
	<path class="st7" d="M631.3,624v-1.7h4.6v1.7H631.3z"/>
	<path class="st7" d="M636,624L636,624h4.6l0,0H636z"/>
	<path class="st7" d="M640.6,624v-1.7h4.6v1.7H640.6z"/>
	<path class="st7" d="M645.2,624L645.2,624h4.6l0,0H645.2z"/>
	<path class="st7" d="M649.8,624v-1.7h4.6v1.7H649.8z"/>
</g>
<g>
	<path class="st8" d="M594.4,624v-3.4h4.6"/>
	<path class="st8" d="M599,624L599,624V379.4h4.6V624l0,0"/>
	<path class="st8" d="M603.6,581.8h4.6V624l0,0"/>
	<path class="st8" d="M608.2,603.8h4.6V624l0,0"/>
	<path class="st8" d="M612.9,620.6h4.6v3.4l0,0"/>
	<path class="st8" d="M617.5,620.6h4.6v3.4l0,0"/>
	<line class="st8" x1="622.1" y1="622.3" x2="626.7" y2="622.3"/>
	<path class="st8" d="M626.7,624L626.7,624v-5.1h4.6v5.1l0,0"/>
	<path class="st8" d="M631.3,622.3h4.6v1.7l0,0"/>
	<line class="st8" x1="636" y1="624" x2="640.6" y2="624"/>
	<path class="st8" d="M640.6,624L640.6,624v-1.7h4.6v1.7l0,0"/>
	<line class="st8" x1="645.2" y1="624" x2="649.8" y2="624"/>
	<path class="st8" d="M649.8,624L649.8,624v-1.7h4.6v1.7"/>
	<line class="st9" x1="599" y1="624" x2="599" y2="371"/>
</g>
<g>
	<path class="st10" d="M785,309h221V56H785V309z"/>
</g>
<g>
	<line class="st0" x1="785" y1="309" x2="1006" y2="309"/>
	<line class="st0" x1="785" y1="309" x2="785" y2="303.9"/>
	<line class="st0" x1="860.9" y1="309" x2="860.9" y2="303.9"/>
	<line class="st0" x1="936.8" y1="309" x2="936.8" y2="303.9"/>
</g>
<g transform="translate(785,313.8)">
	<text transform="matrix(1 0 0 1 -4 11)" class="st1 st2 st3">0</text>
</g>
<g transform="translate(860.8996,313.8)">
	<text transform="matrix(1 0 0 1 -10 11)" class="st1 st2 st3">0.5</text>
</g>
<g transform="translate(936.7992,313.8)">
	<text transform="matrix(1 0 0 1 -4 11)" class="st1 st2 st3">1</text>
</g>
<g>
	<line class="st0" x1="785" y1="309" x2="785" y2="56"/>
	<line class="st0" x1="785" y1="309" x2="790.1" y2="309"/>
	<line class="st0" x1="785" y1="274.2" x2="790.1" y2="274.2"/>
	<line class="st0" x1="785" y1="239.5" x2="790.1" y2="239.5"/>
	<line class="st0" x1="785" y1="204.7" x2="790.1" y2="204.7"/>
	<line class="st0" x1="785" y1="170" x2="790.1" y2="170"/>
	<line class="st0" x1="785" y1="135.2" x2="790.1" y2="135.2"/>
	<line class="st0" x1="785" y1="100.5" x2="790.1" y2="100.5"/>
	<line class="st0" x1="785" y1="65.7" x2="790.1" y2="65.7"/>
</g>
<g transform="translate(780.2,309)">
	<text transform="matrix(1 0 0 1 -8 3.5)" class="st1 st2 st3">0</text>
</g>
<g transform="translate(780.2,274.2442)">
	<text transform="matrix(1 0 0 1 -20 3.5)" class="st1 st2 st3">0.2</text>
</g>
<g transform="translate(780.2,239.4883)">
	<text transform="matrix(1 0 0 1 -20 3.5)" class="st1 st2 st3">0.4</text>
</g>
<g transform="translate(780.2,204.7325)">
	<text transform="matrix(1 0 0 1 -20 3.5)" class="st1 st2 st3">0.6</text>
</g>
<g transform="translate(780.2,169.9767)">
	<text transform="matrix(1 0 0 1 -20 3.5)" class="st1 st2 st3">0.8</text>
</g>
<g transform="translate(780.2,135.2208)">
	<text transform="matrix(1 0 0 1 -8 3.5)" class="st1 st2 st3">1</text>
</g>
<g transform="translate(780.2,100.465)">
	<text transform="matrix(1 0 0 1 -20 3.5)" class="st1 st2 st3">1.2</text>
</g>
<g transform="translate(780.2,65.7092)">
	<text transform="matrix(1 0 0 1 -20 3.5)" class="st1 st2 st3">1.4</text>
</g>
<g>
	<path class="st4" d="M788.7,306.5l-0.9-2.2l-2.2-0.9l-2.2,0.9l-0.9,2.2l0.9,2.2l2.2,0.9l2.2-0.9L788.7,306.5z"/>
	<path class="st4" d="M788.7,306.5l-0.9-2.2l-2.2-0.9l-2.2,0.9l-0.9,2.2l0.9,2.2l2.2,0.9l2.2-0.9L788.7,306.5z"/>
	<path class="st4" d="M808.7,279.5l-0.9-2.2l-2.2-0.9l-2.2,0.9l-0.9,2.2l0.9,2.2l2.2,0.9l2.2-0.9L808.7,279.5z"/>
	<path class="st4" d="M799.7,295.5l-0.9-2.2l-2.2-0.9l-2.2,0.9l-0.9,2.2l0.9,2.2l2.2,0.9l2.2-0.9L799.7,295.5z"/>
	<path class="st4" d="M817.7,273.5l-0.9-2.2l-2.2-0.9l-2.2,0.9l-0.9,2.2l0.9,2.2l2.2,0.9l2.2-0.9L817.7,273.5z"/>
	<path class="st4" d="M788.7,307.5l-0.9-2.2l-2.2-0.9l-2.2,0.9l-0.9,2.2l0.9,2.2l2.2,0.9l2.2-0.9L788.7,307.5z"/>
	<path class="st4" d="M811.7,278.5l-0.9-2.2l-2.2-0.9l-2.2,0.9l-0.9,2.2l0.9,2.2l2.2,0.9l2.2-0.9L811.7,278.5z"/>
	<path class="st4" d="M880.7,149.5l-0.9-2.2l-2.2-0.9l-2.2,0.9l-0.9,2.2l0.9,2.2l2.2,0.9l2.2-0.9L880.7,149.5z"/>
	<path class="st4" d="M804.7,280.5l-0.9-2.2l-2.2-0.9l-2.2,0.9l-0.9,2.2l0.9,2.2l2.2,0.9l2.2-0.9L804.7,280.5z"/>
	<path class="st5" d="M814.7,277.5l-0.9-2.2l-2.2-0.9l-2.2,0.9l-0.9,2.2l0.9,2.2l2.2,0.9l2.2-0.9L814.7,277.5z"/>
	<path class="st5" d="M790.7,305.5l-0.9-2.2l-2.2-0.9l-2.2,0.9l-0.9,2.2l0.9,2.2l2.2,0.9l2.2-0.9L790.7,305.5z"/>
	<path class="st5" d="M793.7,302.5l-0.9-2.2l-2.2-0.9l-2.2,0.9l-0.9,2.2l0.9,2.2l2.2,0.9l2.2-0.9L793.7,302.5z"/>
	<path class="st5" d="M916.7,160.5l-0.9-2.2l-2.2-0.9l-2.2,0.9l-0.9,2.2l0.9,2.2l2.2,0.9l2.2-0.9L916.7,160.5z"/>
	<path class="st5" d="M795.7,298.5l-0.9-2.2l-2.2-0.9l-2.2,0.9l-0.9,2.2l0.9,2.2l2.2,0.9l2.2-0.9L795.7,298.5z"/>
	<path class="st5" d="M790.7,302.5l-0.9-2.2l-2.2-0.9l-2.2,0.9l-0.9,2.2l0.9,2.2l2.2,0.9l2.2-0.9L790.7,302.5z"/>
	<path class="st5" d="M859.7,224.5l-0.9-2.2l-2.2-0.9l-2.2,0.9l-0.9,2.2l0.9,2.2l2.2,0.9l2.2-0.9L859.7,224.5z"/>
	<path class="st5" d="M797.7,292.5l-0.9-2.2l-2.2-0.9l-2.2,0.9l-0.9,2.2l0.9,2.2l2.2,0.9l2.2-0.9L797.7,292.5z"/>
	<path class="st5" d="M792.7,301.5l-0.9-2.2l-2.2-0.9l-2.2,0.9l-0.9,2.2l0.9,2.2l2.2,0.9l2.2-0.9L792.7,301.5z"/>
	<path class="st5" d="M794.7,297.5l-0.9-2.2l-2.2-0.9l-2.2,0.9l-0.9,2.2l0.9,2.2l2.2,0.9l2.2-0.9L794.7,297.5z"/>
	<path class="st5" d="M791.7,303.5l-0.9-2.2l-2.2-0.9l-2.2,0.9l-0.9,2.2l0.9,2.2l2.2,0.9l2.2-0.9L791.7,303.5z"/>
	<path class="st5" d="M817.7,273.5l-0.9-2.2l-2.2-0.9l-2.2,0.9l-0.9,2.2l0.9,2.2l2.2,0.9l2.2-0.9L817.7,273.5z"/>
	<path class="st5" d="M790.7,304.5l-0.9-2.2l-2.2-0.9l-2.2,0.9l-0.9,2.2l0.9,2.2l2.2,0.9l2.2-0.9L790.7,304.5z"/>
	<path class="st5" d="M793.7,300.5l-0.9-2.2l-2.2-0.9l-2.2,0.9l-0.9,2.2l0.9,2.2l2.2,0.9l2.2-0.9L793.7,300.5z"/>
	<path class="st5" d="M788.7,307.5l-0.9-2.2l-2.2-0.9l-2.2,0.9l-0.9,2.2l0.9,2.2l2.2,0.9l2.2-0.9L788.7,307.5z"/>
	<path class="st5" d="M788.7,306.5l-0.9-2.2l-2.2-0.9l-2.2,0.9l-0.9,2.2l0.9,2.2l2.2,0.9l2.2-0.9L788.7,306.5z"/>
	<path class="st5" d="M860.7,229.5l-0.9-2.2l-2.2-0.9l-2.2,0.9l-0.9,2.2l0.9,2.2l2.2,0.9l2.2-0.9L860.7,229.5z"/>
	<path class="st5" d="M792.7,297.5l-0.9-2.2l-2.2-0.9l-2.2,0.9l-0.9,2.2l0.9,2.2l2.2,0.9l2.2-0.9L792.7,297.5z"/>
	<path class="st5" d="M1002.7,56.5l-0.9-2.2l-2.2-0.9l-2.2,0.9l-0.9,2.2l0.9,2.2l2.2,0.9l2.2-0.9L1002.7,56.5z"/>
	<path class="st5" d="M845.7,244.5l-0.9-2.2l-2.2-0.9l-2.2,0.9l-0.9,2.2l0.9,2.2l2.2,0.9l2.2-0.9L845.7,244.5z"/>
	<path class="st5" d="M792.7,301.5l-0.9-2.2l-2.2-0.9l-2.2,0.9l-0.9,2.2l0.9,2.2l2.2,0.9l2.2-0.9L792.7,301.5z"/>
	<path class="st5" d="M789.7,303.5l-0.9-2.2l-2.2-0.9l-2.2,0.9l-0.9,2.2l0.9,2.2l2.2,0.9l2.2-0.9L789.7,303.5z"/>
	<path class="st5" d="M794.7,300.5l-0.9-2.2l-2.2-0.9l-2.2,0.9l-0.9,2.2l0.9,2.2l2.2,0.9l2.2-0.9L794.7,300.5z"/>
	<path class="st5" d="M790.7,305.5l-0.9-2.2l-2.2-0.9l-2.2,0.9l-0.9,2.2l0.9,2.2l2.2,0.9l2.2-0.9L790.7,305.5z"/>
	<path class="st5" d="M825.7,240.5l-0.9-2.2l-2.2-0.9l-2.2,0.9l-0.9,2.2l0.9,2.2l2.2,0.9l2.2-0.9L825.7,240.5z"/>
	<path class="st5" d="M795.7,300.5l-0.9-2.2l-2.2-0.9l-2.2,0.9l-0.9,2.2l0.9,2.2l2.2,0.9l2.2-0.9L795.7,300.5z"/>
	<path class="st5" d="M788.7,307.5l-0.9-2.2l-2.2-0.9l-2.2,0.9l-0.9,2.2l0.9,2.2l2.2,0.9l2.2-0.9L788.7,307.5z"/>
	<path class="st5" d="M788.7,307.5l-0.9-2.2l-2.2-0.9l-2.2,0.9l-0.9,2.2l0.9,2.2l2.2,0.9l2.2-0.9L788.7,307.5z"/>
	<path class="st5" d="M799.7,293.5l-0.9-2.2l-2.2-0.9l-2.2,0.9l-0.9,2.2l0.9,2.2l2.2,0.9l2.2-0.9L799.7,293.5z"/>
	<path class="st5" d="M798.7,296.5l-0.9-2.2l-2.2-0.9l-2.2,0.9l-0.9,2.2l0.9,2.2l2.2,0.9l2.2-0.9L798.7,296.5z"/>
	<path class="st5" d="M815.7,276.5l-0.9-2.2l-2.2-0.9l-2.2,0.9l-0.9,2.2l0.9,2.2l2.2,0.9l2.2-0.9L815.7,276.5z"/>
	<path class="st5" d="M809.7,283.5l-0.9-2.2l-2.2-0.9l-2.2,0.9l-0.9,2.2l0.9,2.2l2.2,0.9l2.2-0.9L809.7,283.5z"/>
	<path class="st5" d="M819.7,271.5l-0.9-2.2l-2.2-0.9l-2.2,0.9l-0.9,2.2l0.9,2.2l2.2,0.9l2.2-0.9L819.7,271.5z"/>
	<path class="st5" d="M798.7,297.5l-0.9-2.2l-2.2-0.9l-2.2,0.9l-0.9,2.2l0.9,2.2l2.2,0.9l2.2-0.9L798.7,297.5z"/>
	<path class="st5" d="M818.7,270.5l-0.9-2.2l-2.2-0.9l-2.2,0.9l-0.9,2.2l0.9,2.2l2.2,0.9l2.2-0.9L818.7,270.5z"/>
	<path class="st5" d="M791.7,303.5l-0.9-2.2l-2.2-0.9l-2.2,0.9l-0.9,2.2l0.9,2.2l2.2,0.9l2.2-0.9L791.7,303.5z"/>
	<path class="st5" d="M804.7,288.5l-0.9-2.2l-2.2-0.9l-2.2,0.9l-0.9,2.2l0.9,2.2l2.2,0.9l2.2-0.9L804.7,288.5z"/>
	<path class="st5" d="M788.7,307.5l-0.9-2.2l-2.2-0.9l-2.2,0.9l-0.9,2.2l0.9,2.2l2.2,0.9l2.2-0.9L788.7,307.5z"/>
	<path class="st5" d="M789.7,306.5l-0.9-2.2l-2.2-0.9l-2.2,0.9l-0.9,2.2l0.9,2.2l2.2,0.9l2.2-0.9L789.7,306.5z"/>
	<path class="st5" d="M811.7,282.5l-0.9-2.2l-2.2-0.9l-2.2,0.9l-0.9,2.2l0.9,2.2l2.2,0.9l2.2-0.9L811.7,282.5z"/>
	<path class="st5" d="M800.7,294.5l-0.9-2.2l-2.2-0.9l-2.2,0.9l-0.9,2.2l0.9,2.2l2.2,0.9l2.2-0.9L800.7,294.5z"/>
	<path class="st5" d="M817.7,273.5l-0.9-2.2l-2.2-0.9l-2.2,0.9l-0.9,2.2l0.9,2.2l2.2,0.9l2.2-0.9L817.7,273.5z"/>
	<path class="st5" d="M792.7,301.5l-0.9-2.2l-2.2-0.9l-2.2,0.9l-0.9,2.2l0.9,2.2l2.2,0.9l2.2-0.9L792.7,301.5z"/>
	<path class="st5" d="M798.7,292.5l-0.9-2.2l-2.2-0.9l-2.2,0.9l-0.9,2.2l0.9,2.2l2.2,0.9l2.2-0.9L798.7,292.5z"/>
	<path class="st5" d="M800.7,285.5l-0.9-2.2l-2.2-0.9l-2.2,0.9l-0.9,2.2l0.9,2.2l2.2,0.9l2.2-0.9L800.7,285.5z"/>
	<path class="st5" d="M808.7,279.5l-0.9-2.2l-2.2-0.9l-2.2,0.9l-0.9,2.2l0.9,2.2l2.2,0.9l2.2-0.9L808.7,279.5z"/>
	<path class="st5" d="M790.7,300.5l-0.9-2.2l-2.2-0.9l-2.2,0.9l-0.9,2.2l0.9,2.2l2.2,0.9l2.2-0.9L790.7,300.5z"/>
	<path class="st5" d="M788.7,304.5l-0.9-2.2l-2.2-0.9l-2.2,0.9l-0.9,2.2l0.9,2.2l2.2,0.9l2.2-0.9L788.7,304.5z"/>
	<path class="st5" d="M789.7,297.5l-0.9-2.2l-2.2-0.9l-2.2,0.9l-0.9,2.2l0.9,2.2l2.2,0.9l2.2-0.9L789.7,297.5z"/>
	<path class="st5" d="M826.7,254.5l-0.9-2.2l-2.2-0.9l-2.2,0.9l-0.9,2.2l0.9,2.2l2.2,0.9l2.2-0.9L826.7,254.5z"/>
	<path class="st5" d="M804.7,286.5l-0.9-2.2l-2.2-0.9l-2.2,0.9l-0.9,2.2l0.9,2.2l2.2,0.9l2.2-0.9L804.7,286.5z"/>
	<path class="st5" d="M795.7,297.5l-0.9-2.2l-2.2-0.9l-2.2,0.9l-0.9,2.2l0.9,2.2l2.2,0.9l2.2-0.9L795.7,297.5z"/>
</g>
<g>
	<line class="st6" x1="785" y1="309" x2="1006" y2="56"/>
</g>
<g>
	<line class="st0" x1="785" y1="624" x2="1006" y2="624"/>
	<line class="st0" x1="803.5" y1="624" x2="803.5" y2="618.9"/>
	<line class="st0" x1="849.5" y1="624" x2="849.5" y2="618.9"/>
	<line class="st0" x1="895.5" y1="624" x2="895.5" y2="618.9"/>
	<line class="st0" x1="941.5" y1="624" x2="941.5" y2="618.9"/>
	<line class="st0" x1="987.5" y1="624" x2="987.5" y2="618.9"/>
</g>
<g transform="translate(803.5356,668.8)">
	<text transform="matrix(1 0 0 1 -6.5 -29)" class="st1 st2 st3">-1</text>
</g>
<g transform="translate(849.5178,668.8)">
	<text transform="matrix(1 0 0 1 -12.5 -29)" class="st1 st2 st3">-0.5</text>
</g>
<g transform="translate(895.5,668.8)">
	<text transform="matrix(1 0 0 1 -4 -29)" class="st1 st2 st3">0</text>
</g>
<g transform="translate(941.4822,668.8)">
	<text transform="matrix(1 0 0 1 -10 -29)" class="st1 st2 st3">0.5</text>
</g>
<g transform="translate(987.4644,668.8)">
	<text transform="matrix(1 0 0 1 -4 -29)" class="st1 st2 st3">1</text>
</g>
<g>
	<line class="st0" x1="785" y1="624" x2="785" y2="371"/>
	<line class="st0" x1="785" y1="624" x2="790.1" y2="624"/>
	<line class="st0" x1="785" y1="560.8" x2="790.1" y2="560.8"/>
	<line class="st0" x1="785" y1="497.5" x2="790.1" y2="497.5"/>
	<line class="st0" x1="785" y1="434.2" x2="790.1" y2="434.2"/>
	<line class="st0" x1="785" y1="371" x2="790.1" y2="371"/>
</g>
<g transform="translate(780.2,664)">
	<text transform="matrix(1 0 0 1 -8 -36.5)" class="st1 st2 st3">0</text>
</g>
<g transform="translate(780.2,600.75)">
	<text transform="matrix(1 0 0 1 -16 -36.5)" class="st1 st2 st3">50</text>
</g>
<g transform="translate(780.2,537.5)">
	<text transform="matrix(1 0 0 1 -24 -36.5)" class="st1 st2 st3">100</text>
</g>
<g transform="translate(780.2,474.25)">
	<text transform="matrix(1 0 0 1 -24 -36.5)" class="st1 st2 st3">150</text>
</g>
<g transform="translate(780.2,411)">
	<text transform="matrix(1 0 0 1 -24 -36.5)" class="st1 st2 st3">200</text>
</g>
<g>
	<path class="st7" d="M890.9,624v-3.8h4.6v3.8H890.9z"/>
	<path class="st7" d="M895.5,624V417.8h4.6V624H895.5z"/>
	<path class="st7" d="M900.1,624v-43h4.6v43H900.1z"/>
	<path class="st7" d="M904.7,624v-16.4h4.6V624H904.7z"/>
	<path class="st7" d="M909.3,624v-10.1h4.6V624H909.3z"/>
	<path class="st7" d="M913.9,624v-3.8h4.6v3.8H913.9z"/>
	<path class="st7" d="M918.5,624v-3.8h4.6v3.8H918.5z"/>
	<path class="st7" d="M923.1,624v-2.5h4.6v2.5H923.1z"/>
	<path class="st7" d="M927.7,624L927.7,624h4.6l0,0H927.7z"/>
	<path class="st7" d="M932.3,624L932.3,624h4.6l0,0H932.3z"/>
	<path class="st7" d="M936.9,624L936.9,624h4.6l0,0H936.9z"/>
	<path class="st7" d="M941.5,624v-1.3h4.6v1.3H941.5z"/>
	<path class="st7" d="M946.1,624v-1.3h4.6v1.3H946.1z"/>
	<path class="st7" d="M950.7,624L950.7,624h4.6l0,0H950.7z"/>
	<path class="st7" d="M955.3,624L955.3,624h4.6l0,0H955.3z"/>
	<path class="st7" d="M959.9,624L959.9,624h4.6l0,0H959.9z"/>
	<path class="st7" d="M964.5,624v-1.3h4.6v1.3H964.5z"/>
	<path class="st7" d="M969.1,624L969.1,624h4.6l0,0H969.1z"/>
	<path class="st7" d="M973.7,624v-1.3h4.6v1.3H973.7z"/>
</g>
<g>
	<path class="st8" d="M890.9,624v-3.8h4.6"/>
	<path class="st8" d="M895.5,624L895.5,624V417.8h4.6V624l0,0"/>
	<path class="st8" d="M900.1,581h4.6v43l0,0"/>
	<path class="st8" d="M904.7,607.6h4.6V624l0,0"/>
	<path class="st8" d="M909.3,613.9h4.6V624l0,0"/>
	<path class="st8" d="M913.9,620.2h4.6v3.8l0,0"/>
	<path class="st8" d="M918.5,620.2h4.6v3.8l0,0"/>
	<path class="st8" d="M923.1,621.5h4.6v2.5l0,0"/>
	<path class="st8" d="M927.7,624h4.6l0,0l0,0"/>
	<path class="st8" d="M932.3,624h4.6l0,0l0,0"/>
	<line class="st8" x1="936.9" y1="624" x2="941.5" y2="624"/>
	<path class="st8" d="M941.5,624L941.5,624v-1.3h4.6v1.3l0,0"/>
	<path class="st8" d="M946.1,622.7h4.6v1.3l0,0"/>
	<path class="st8" d="M950.7,624h4.6l0,0l0,0"/>
	<path class="st8" d="M955.3,624h4.6l0,0l0,0"/>
	<line class="st8" x1="959.9" y1="624" x2="964.5" y2="624"/>
	<path class="st8" d="M964.5,624L964.5,624v-1.3h4.6v1.3l0,0"/>
	<line class="st8" x1="969.1" y1="624" x2="973.7" y2="624"/>
	<path class="st8" d="M973.7,624L973.7,624v-1.3h4.6v1.3"/>
	<line class="st9" x1="895.5" y1="624" x2="895.5" y2="371"/>
</g>
<g>
	<path class="st10" d="M1082,309h221V56h-221V309z"/>
</g>
<g>
	<line class="st0" x1="1082" y1="309" x2="1303" y2="309"/>
	<line class="st0" x1="1082" y1="309" x2="1082" y2="303.9"/>
	<line class="st0" x1="1157.9" y1="309" x2="1157.9" y2="303.9"/>
	<line class="st0" x1="1233.8" y1="309" x2="1233.8" y2="303.9"/>
</g>
<g transform="translate(1082,313.8)">
	<text transform="matrix(1 0 0 1 -4 11)" class="st1 st2 st3">0</text>
</g>
<g transform="translate(1157.8995,313.8)">
	<text transform="matrix(1 0 0 1 -10 11)" class="st1 st2 st3">0.5</text>
</g>
<g transform="translate(1233.7992,313.8)">
	<text transform="matrix(1 0 0 1 -4 11)" class="st1 st2 st3">1</text>
</g>
<g>
	<line class="st0" x1="1082" y1="309" x2="1082" y2="56"/>
	<line class="st0" x1="1082" y1="309" x2="1087.1" y2="309"/>
	<line class="st0" x1="1082" y1="274.2" x2="1087.1" y2="274.2"/>
	<line class="st0" x1="1082" y1="239.5" x2="1087.1" y2="239.5"/>
	<line class="st0" x1="1082" y1="204.7" x2="1087.1" y2="204.7"/>
	<line class="st0" x1="1082" y1="170" x2="1087.1" y2="170"/>
	<line class="st0" x1="1082" y1="135.2" x2="1087.1" y2="135.2"/>
	<line class="st0" x1="1082" y1="100.5" x2="1087.1" y2="100.5"/>
	<line class="st0" x1="1082" y1="65.7" x2="1087.1" y2="65.7"/>
</g>
<g transform="translate(1077.2,309)">
	<text transform="matrix(1 0 0 1 -8 3.5)" class="st1 st2 st3">0</text>
</g>
<g transform="translate(1077.2,274.2442)">
	<text transform="matrix(1 0 0 1 -20 3.5)" class="st1 st2 st3">0.2</text>
</g>
<g transform="translate(1077.2,239.4883)">
	<text transform="matrix(1 0 0 1 -20 3.5)" class="st1 st2 st3">0.4</text>
</g>
<g transform="translate(1077.2,204.7325)">
	<text transform="matrix(1 0 0 1 -20 3.5)" class="st1 st2 st3">0.6</text>
</g>
<g transform="translate(1077.2,169.9767)">
	<text transform="matrix(1 0 0 1 -20 3.5)" class="st1 st2 st3">0.8</text>
</g>
<g transform="translate(1077.2,135.2208)">
	<text transform="matrix(1 0 0 1 -8 3.5)" class="st1 st2 st3">1</text>
</g>
<g transform="translate(1077.2,100.465)">
	<text transform="matrix(1 0 0 1 -20 3.5)" class="st1 st2 st3">1.2</text>
</g>
<g transform="translate(1077.2,65.7092)">
	<text transform="matrix(1 0 0 1 -20 3.5)" class="st1 st2 st3">1.4</text>
</g>
<g>
	<path class="st4" d="M1085.7,306.5l-0.9-2.2l-2.2-0.9l-2.2,0.9l-0.9,2.2l0.9,2.2l2.2,0.9l2.2-0.9L1085.7,306.5z"/>
	<path class="st4" d="M1104.7,279.5l-0.9-2.2l-2.2-0.9l-2.2,0.9l-0.9,2.2l0.9,2.2l2.2,0.9l2.2-0.9L1104.7,279.5z"/>
	<path class="st4" d="M1096.7,295.5l-0.9-2.2l-2.2-0.9l-2.2,0.9l-0.9,2.2l0.9,2.2l2.2,0.9l2.2-0.9L1096.7,295.5z"/>
	<path class="st4" d="M1113.7,273.5l-0.9-2.2l-2.2-0.9l-2.2,0.9l-0.9,2.2l0.9,2.2l2.2,0.9l2.2-0.9L1113.7,273.5z"/>
	<path class="st4" d="M1085.7,307.5l-0.9-2.2l-2.2-0.9l-2.2,0.9l-0.9,2.2l0.9,2.2l2.2,0.9l2.2-0.9L1085.7,307.5z"/>
	<path class="st4" d="M1106.7,278.5l-0.9-2.2l-2.2-0.9l-2.2,0.9l-0.9,2.2l0.9,2.2l2.2,0.9l2.2-0.9L1106.7,278.5z"/>
	<path class="st4" d="M1142.7,149.5l-0.9-2.2l-2.2-0.9l-2.2,0.9l-0.9,2.2l0.9,2.2l2.2,0.9l2.2-0.9L1142.7,149.5z"/>
	<path class="st4" d="M1101.7,280.5l-0.9-2.2l-2.2-0.9l-2.2,0.9l-0.9,2.2l0.9,2.2l2.2,0.9l2.2-0.9L1101.7,280.5z"/>
	<path class="st5" d="M1211.7,160.5l-0.9-2.2l-2.2-0.9l-2.2,0.9l-0.9,2.2l0.9,2.2l2.2,0.9l2.2-0.9L1211.7,160.5z"/>
	<path class="st5" d="M1154.7,224.5l-0.9-2.2l-2.2-0.9l-2.2,0.9l-0.9,2.2l0.9,2.2l2.2,0.9l2.2-0.9L1154.7,224.5z"/>
	<path class="st5" d="M1094.7,292.5l-0.9-2.2l-2.2-0.9l-2.2,0.9l-0.9,2.2l0.9,2.2l2.2,0.9l2.2-0.9L1094.7,292.5z"/>
	<path class="st5" d="M1091.7,297.5l-0.9-2.2l-2.2-0.9l-2.2,0.9l-0.9,2.2l0.9,2.2l2.2,0.9l2.2-0.9L1091.7,297.5z"/>
	<path class="st5" d="M1088.7,303.5l-0.9-2.2l-2.2-0.9l-2.2,0.9l-0.9,2.2l0.9,2.2l2.2,0.9l2.2-0.9L1088.7,303.5z"/>
	<path class="st5" d="M1114.7,273.5l-0.9-2.2l-2.2-0.9l-2.2,0.9l-0.9,2.2l0.9,2.2l2.2,0.9l2.2-0.9L1114.7,273.5z"/>
	<path class="st5" d="M1087.7,304.5l-0.9-2.2l-2.2-0.9l-2.2,0.9l-0.9,2.2l0.9,2.2l2.2,0.9l2.2-0.9L1087.7,304.5z"/>
	<path class="st5" d="M1089.7,300.5l-0.9-2.2l-2.2-0.9l-2.2,0.9l-0.9,2.2l0.9,2.2l2.2,0.9l2.2-0.9L1089.7,300.5z"/>
	<path class="st5" d="M1085.7,307.5l-0.9-2.2l-2.2-0.9l-2.2,0.9l-0.9,2.2l0.9,2.2l2.2,0.9l2.2-0.9L1085.7,307.5z"/>
	<path class="st5" d="M1085.7,306.5l-0.9-2.2l-2.2-0.9l-2.2,0.9l-0.9,2.2l0.9,2.2l2.2,0.9l2.2-0.9L1085.7,306.5z"/>
	<path class="st5" d="M1153.7,229.5l-0.9-2.2l-2.2-0.9l-2.2,0.9l-0.9,2.2l0.9,2.2l2.2,0.9l2.2-0.9L1153.7,229.5z"/>
	<path class="st5" d="M1090.7,297.5l-0.9-2.2l-2.2-0.9l-2.2,0.9l-0.9,2.2l0.9,2.2l2.2,0.9l2.2-0.9L1090.7,297.5z"/>
	<path class="st5" d="M1297.7,56.5l-0.9-2.2l-2.2-0.9l-2.2,0.9l-0.9,2.2l0.9,2.2l2.2,0.9l2.2-0.9L1297.7,56.5z"/>
	<path class="st5" d="M1143.7,244.5l-0.9-2.2l-2.2-0.9l-2.2,0.9l-0.9,2.2l0.9,2.2l2.2,0.9l2.2-0.9L1143.7,244.5z"/>
	<path class="st5" d="M1089.7,301.5l-0.9-2.2l-2.2-0.9l-2.2,0.9l-0.9,2.2l0.9,2.2l2.2,0.9l2.2-0.9L1089.7,301.5z"/>
	<path class="st5" d="M1085.7,303.5l-0.9-2.2l-2.2-0.9l-2.2,0.9l-0.9,2.2l0.9,2.2l2.2,0.9l2.2-0.9L1085.7,303.5z"/>
	<path class="st5" d="M1090.7,300.5l-0.9-2.2l-2.2-0.9l-2.2,0.9l-0.9,2.2l0.9,2.2l2.2,0.9l2.2-0.9L1090.7,300.5z"/>
	<path class="st5" d="M1087.7,305.5l-0.9-2.2l-2.2-0.9l-2.2,0.9l-0.9,2.2l0.9,2.2l2.2,0.9l2.2-0.9L1087.7,305.5z"/>
	<path class="st5" d="M1109.7,240.5l-0.9-2.2l-2.2-0.9l-2.2,0.9l-0.9,2.2l0.9,2.2l2.2,0.9l2.2-0.9L1109.7,240.5z"/>
	<path class="st5" d="M1091.7,300.5l-0.9-2.2l-2.2-0.9l-2.2,0.9l-0.9,2.2l0.9,2.2l2.2,0.9l2.2-0.9L1091.7,300.5z"/>
	<path class="st5" d="M1085.7,307.5l-0.9-2.2l-2.2-0.9l-2.2,0.9l-0.9,2.2l0.9,2.2l2.2,0.9l2.2-0.9L1085.7,307.5z"/>
	<path class="st5" d="M1085.7,307.5l-0.9-2.2l-2.2-0.9l-2.2,0.9l-0.9,2.2l0.9,2.2l2.2,0.9l2.2-0.9L1085.7,307.5z"/>
	<path class="st5" d="M1095.7,293.5l-0.9-2.2l-2.2-0.9l-2.2,0.9l-0.9,2.2l0.9,2.2l2.2,0.9l2.2-0.9L1095.7,293.5z"/>
	<path class="st5" d="M1112.7,276.5l-0.9-2.2l-2.2-0.9l-2.2,0.9l-0.9,2.2l0.9,2.2l2.2,0.9l2.2-0.9L1112.7,276.5z"/>
	<path class="st5" d="M1105.7,283.5l-0.9-2.2l-2.2-0.9l-2.2,0.9l-0.9,2.2l0.9,2.2l2.2,0.9l2.2-0.9L1105.7,283.5z"/>
	<path class="st5" d="M1094.7,297.5l-0.9-2.2l-2.2-0.9l-2.2,0.9l-0.9,2.2l0.9,2.2l2.2,0.9l2.2-0.9L1094.7,297.5z"/>
	<path class="st5" d="M1114.7,270.5l-0.9-2.2l-2.2-0.9l-2.2,0.9l-0.9,2.2l0.9,2.2l2.2,0.9l2.2-0.9L1114.7,270.5z"/>
	<path class="st5" d="M1088.7,303.5l-0.9-2.2l-2.2-0.9l-2.2,0.9l-0.9,2.2l0.9,2.2l2.2,0.9l2.2-0.9L1088.7,303.5z"/>
	<path class="st5" d="M1101.7,288.5l-0.9-2.2l-2.2-0.9l-2.2,0.9l-0.9,2.2l0.9,2.2l2.2,0.9l2.2-0.9L1101.7,288.5z"/>
	<path class="st5" d="M1086.7,306.5l-0.9-2.2l-2.2-0.9l-2.2,0.9l-0.9,2.2l0.9,2.2l2.2,0.9l2.2-0.9L1086.7,306.5z"/>
	<path class="st5" d="M1107.7,282.5l-0.9-2.2l-2.2-0.9l-2.2,0.9l-0.9,2.2l0.9,2.2l2.2,0.9l2.2-0.9L1107.7,282.5z"/>
	<path class="st5" d="M1097.7,294.5l-0.9-2.2l-2.2-0.9l-2.2,0.9l-0.9,2.2l0.9,2.2l2.2,0.9l2.2-0.9L1097.7,294.5z"/>
	<path class="st5" d="M1114.7,273.5l-0.9-2.2l-2.2-0.9l-2.2,0.9l-0.9,2.2l0.9,2.2l2.2,0.9l2.2-0.9L1114.7,273.5z"/>
	<path class="st5" d="M1089.7,301.5l-0.9-2.2l-2.2-0.9l-2.2,0.9l-0.9,2.2l0.9,2.2l2.2,0.9l2.2-0.9L1089.7,301.5z"/>
	<path class="st5" d="M1094.7,292.5l-0.9-2.2l-2.2-0.9l-2.2,0.9l-0.9,2.2l0.9,2.2l2.2,0.9l2.2-0.9L1094.7,292.5z"/>
	<path class="st5" d="M1097.7,285.5l-0.9-2.2l-2.2-0.9l-2.2,0.9l-0.9,2.2l0.9,2.2l2.2,0.9l2.2-0.9L1097.7,285.5z"/>
	<path class="st5" d="M1102.7,279.5l-0.9-2.2l-2.2-0.9l-2.2,0.9l-0.9,2.2l0.9,2.2l2.2,0.9l2.2-0.9L1102.7,279.5z"/>
	<path class="st5" d="M1089.7,300.5l-0.9-2.2l-2.2-0.9l-2.2,0.9l-0.9,2.2l0.9,2.2l2.2,0.9l2.2-0.9L1089.7,300.5z"/>
	<path class="st5" d="M1087.7,297.5l-0.9-2.2l-2.2-0.9l-2.2,0.9l-0.9,2.2l0.9,2.2l2.2,0.9l2.2-0.9L1087.7,297.5z"/>
	<path class="st5" d="M1118.7,254.5l-0.9-2.2l-2.2-0.9l-2.2,0.9l-0.9,2.2l0.9,2.2l2.2,0.9l2.2-0.9L1118.7,254.5z"/>
	<path class="st5" d="M1100.7,286.5l-0.9-2.2l-2.2-0.9l-2.2,0.9l-0.9,2.2l0.9,2.2l2.2,0.9l2.2-0.9L1100.7,286.5z"/>
	<path class="st5" d="M1092.7,297.5l-0.9-2.2l-2.2-0.9l-2.2,0.9l-0.9,2.2l0.9,2.2l2.2,0.9l2.2-0.9L1092.7,297.5z"/>
</g>
<g>
	<line class="st6" x1="1082" y1="309" x2="1303" y2="56"/>
</g>
<g>
	<line class="st0" x1="1082" y1="624" x2="1303" y2="624"/>
	<line class="st0" x1="1100.5" y1="624" x2="1100.5" y2="618.9"/>
	<line class="st0" x1="1146.5" y1="624" x2="1146.5" y2="618.9"/>
	<line class="st0" x1="1192.5" y1="624" x2="1192.5" y2="618.9"/>
	<line class="st0" x1="1238.5" y1="624" x2="1238.5" y2="618.9"/>
	<line class="st0" x1="1284.5" y1="624" x2="1284.5" y2="618.9"/>
</g>
<g transform="translate(1100.5356,668.8)">
	<text transform="matrix(1 0 0 1 -6.5 -29)" class="st1 st2 st3">-1</text>
</g>
<g transform="translate(1146.5178,668.8)">
	<text transform="matrix(1 0 0 1 -12.5 -29)" class="st1 st2 st3">-0.5</text>
</g>
<g transform="translate(1192.5,668.8)">
	<text transform="matrix(1 0 0 1 -4 -29)" class="st1 st2 st3">0</text>
</g>
<g transform="translate(1238.4822,668.8)">
	<text transform="matrix(1 0 0 1 -10 -29)" class="st1 st2 st3">0.5</text>
</g>
<g transform="translate(1284.4644,668.8)">
	<text transform="matrix(1 0 0 1 -4 -29)" class="st1 st2 st3">1</text>
</g>
<g>
	<line class="st0" x1="1082" y1="624" x2="1082" y2="371"/>
	<line class="st0" x1="1082" y1="624" x2="1087.1" y2="624"/>
	<line class="st0" x1="1082" y1="539.7" x2="1087.1" y2="539.7"/>
	<line class="st0" x1="1082" y1="455.3" x2="1087.1" y2="455.3"/>
	<line class="st0" x1="1082" y1="371" x2="1087.1" y2="371"/>
</g>
<g transform="translate(1077.2,664)">
	<text transform="matrix(1 0 0 1 -8 -36.5)" class="st1 st2 st3">0</text>
</g>
<g transform="translate(1077.2,579.6667)">
	<text transform="matrix(1 0 0 1 -16 -36.5)" class="st1 st2 st3">50</text>
</g>
<g transform="translate(1077.2,495.3333)">
	<text transform="matrix(1 0 0 1 -24 -36.5)" class="st1 st2 st3">100</text>
</g>
<g transform="translate(1077.2,411)">
	<text transform="matrix(1 0 0 1 -24 -36.5)" class="st1 st2 st3">150</text>
</g>
<g>
	<path class="st7" d="M1187.9,624v-1.7h4.6v1.7H1187.9z"/>
	<path class="st7" d="M1192.5,624V379.4h4.6V624H1192.5z"/>
	<path class="st7" d="M1197.1,624v-54h4.6v54H1197.1z"/>
	<path class="st7" d="M1201.7,624v-16.9h4.6V624H1201.7z"/>
	<path class="st7" d="M1206.3,624v-21.9h4.6V624H1206.3z"/>
	<path class="st7" d="M1210.9,624v-6.7h4.6v6.7H1210.9z"/>
	<path class="st7" d="M1215.5,624v-3.4h4.6v3.4H1215.5z"/>
	<path class="st7" d="M1220.1,624v-5.1h4.6v5.1H1220.1z"/>
	<path class="st7" d="M1224.7,624v-1.7h4.6v1.7H1224.7z"/>
	<path class="st7" d="M1229.3,624L1229.3,624h4.6l0,0H1229.3z"/>
	<path class="st7" d="M1233.9,624v-1.7h4.6v1.7H1233.9z"/>
	<path class="st7" d="M1238.5,624v-1.7h4.6v1.7H1238.5z"/>
	<path class="st7" d="M1243.1,624v-1.7h4.6v1.7H1243.1z"/>
	<path class="st7" d="M1247.7,624v-1.7h4.6v1.7H1247.7z"/>
	<path class="st7" d="M1252.3,624L1252.3,624h4.6l0,0H1252.3z"/>
	<path class="st7" d="M1256.9,624L1256.9,624h4.6l0,0H1256.9z"/>
	<path class="st7" d="M1261.5,624L1261.5,624h4.6l0,0H1261.5z"/>
	<path class="st7" d="M1266.1,624L1266.1,624h4.6l0,0H1266.1z"/>
	<path class="st7" d="M1270.7,624L1270.7,624h4.6l0,0H1270.7z"/>
	<path class="st7" d="M1275.3,624L1275.3,624h4.6l0,0H1275.3z"/>
	<path class="st7" d="M1279.9,624L1279.9,624h4.6l0,0H1279.9z"/>
	<path class="st7" d="M1284.5,624v-1.7h4.6v1.7H1284.5z"/>
	<path class="st7" d="M1289.1,624L1289.1,624h4.6l0,0H1289.1z"/>
	<path class="st7" d="M1293.7,624L1293.7,624h4.6l0,0H1293.7z"/>
	<path class="st7" d="M1298.3,624L1298.3,624h4.6l0,0H1298.3z"/>
	<path class="st7" d="M1302.9,624v-1.7h0.1v1.7H1302.9z"/>
</g>
<g>
	<path class="st8" d="M1187.9,624v-1.7h4.6"/>
	<path class="st8" d="M1192.5,624L1192.5,624V379.4h4.6V624l0,0"/>
	<path class="st8" d="M1197.1,570h4.6v54l0,0"/>
	<line class="st8" x1="1201.7" y1="607.1" x2="1206.3" y2="607.1"/>
	<path class="st8" d="M1206.3,624L1206.3,624v-21.9h4.6V624l0,0"/>
	<path class="st8" d="M1210.9,617.3h4.6v6.7l0,0"/>
	<line class="st8" x1="1215.5" y1="620.6" x2="1220.1" y2="620.6"/>
	<path class="st8" d="M1220.1,624L1220.1,624v-5.1h4.6v5.1l0,0"/>
	<path class="st8" d="M1224.7,622.3h4.6v1.7l0,0"/>
	<line class="st8" x1="1229.3" y1="624" x2="1233.9" y2="624"/>
	<path class="st8" d="M1233.9,624L1233.9,624v-1.7h4.6v1.7l0,0"/>
	<path class="st8" d="M1238.5,622.3h4.6v1.7l0,0"/>
	<path class="st8" d="M1243.1,622.3h4.6v1.7l0,0"/>
	<path class="st8" d="M1247.7,622.3h4.6v1.7l0,0"/>
	<path class="st8" d="M1252.3,624h4.6l0,0l0,0"/>
	<path class="st8" d="M1256.9,624h4.6l0,0l0,0"/>
	<path class="st8" d="M1261.5,624h4.6l0,0l0,0"/>
	<path class="st8" d="M1266.1,624h4.6l0,0l0,0"/>
	<path class="st8" d="M1270.7,624h4.6l0,0l0,0"/>
	<path class="st8" d="M1275.3,624h4.6l0,0l0,0"/>
	<line class="st8" x1="1279.9" y1="624" x2="1284.5" y2="624"/>
	<path class="st8" d="M1284.5,624L1284.5,624v-1.7h4.6v1.7l0,0"/>
	<path class="st8" d="M1289.1,624h4.6l0,0l0,0"/>
	<path class="st8" d="M1293.7,624h4.6l0,0l0,0"/>
	<line class="st8" x1="1298.3" y1="624" x2="1302.9" y2="624"/>
	<path class="st8" d="M1302.9,624L1302.9,624v-1.7h0.1v1.7"/>
	<line class="st9" x1="1192.5" y1="624" x2="1192.5" y2="371"/>
</g>
<g>
	<line class="st11" x1="1199.1" y1="624" x2="1199.1" y2="371"/>
</g>
<text transform="matrix(1 0 0 1 230.9794 66.1191)"><tspan x="0" y="0" class="st2 st12">Stronger for</tspan><tspan x="0" y="14.4" class="st2 st12">Previous Error</tspan><tspan x="0" y="28.8" class="st2 st12">Model</tspan></text>
<text transform="matrix(1 0 0 1 358.4127 214.5)"><tspan x="0" y="0" class="st2 st12">Stronger for</tspan><tspan x="0" y="14.4" class="st2 st12">No Rule</tspan><tspan x="0" y="28.8" class="st2 st12">Model</tspan></text>
<text transform="matrix(1 0 0 1 522.0265 66.1192)"><tspan x="0" y="0" class="st2 st12">Stronger for</tspan><tspan x="0" y="14.4" class="st2 st12">Previous Error</tspan><tspan x="0" y="28.8" class="st2 st12">Model</tspan></text>
<text transform="matrix(1 0 0 1 822.0265 66.1193)"><tspan x="0" y="0" class="st2 st12">Stronger for</tspan><tspan x="0" y="14.4" class="st2 st12">Previous Error</tspan><tspan x="0" y="28.8" class="st2 st12">Model</tspan></text>
<text transform="matrix(1 0 0 1 1120.7019 66.1193)"><tspan x="0" y="0" class="st2 st12">Stronger for</tspan><tspan x="0" y="14.4" class="st2 st12">Previous Error</tspan><tspan x="0" y="28.8" class="st2 st12">Model</tspan></text>
<text transform="matrix(1 0 0 1 638.7455 215.3378)"><tspan x="0" y="0" class="st2 st12">Stronger for</tspan><tspan x="0" y="14.4" class="st2 st12">Rule Repetition</tspan><tspan x="0" y="28.8" class="st2 st12">Model</tspan></text>
<text transform="matrix(1 0 0 1 920.3332 209.6622)"><tspan x="0" y="0" class="st2 st12">Stronger for</tspan><tspan x="0" y="14.4" class="st2 st12">Rule Repetition</tspan><tspan x="0" y="28.8" class="st2 st12">and Previous Error</tspan><tspan x="0" y="43.2" class="st2 st12">Model</tspan></text>
<text transform="matrix(1 0 0 1 1226.718 194.6624)"><tspan x="0" y="0" class="st2 st12">Stronger for</tspan><tspan x="0" y="14.4" class="st2 st12">Rule Repetition, </tspan><tspan x="0" y="28.8" class="st2 st12">Previous Error,</tspan><tspan x="0" y="43.2" class="st2 st12">Congruency</tspan><tspan x="0" y="57.6" class="st2 st12">Model</tspan></text>
<text transform="matrix(1 0 0 1 109.6606 164.6221)"><tspan x="0" y="0" class="st2 st12">Mutual</tspan><tspan x="-12" y="14.4" class="st2 st12">Information</tspan><tspan x="-12.5" y="28.8" class="st2 st12">(bits / spike)</tspan></text>
<text transform="matrix(1 0 0 1 258.6807 338)"><tspan x="0" y="0" class="st2 st12">Mutual Information</tspan><tspan x="18.5" y="14.4" class="st2 st12">(bits / spike)</tspan></text>
<text transform="matrix(1 0 0 1 312.9028 380.1191)"><tspan x="0" y="0" class="st2 st13">Stronger for</tspan><tspan x="0" y="10.8" class="st2 st13">Previous Error</tspan><tspan x="0" y="21.6" class="st2 st13">Model</tspan></text>
<text transform="matrix(1 0 0 1 613.7491 380.1191)"><tspan x="0" y="0" class="st2 st13">Stronger for</tspan><tspan x="0" y="10.8" class="st2 st13">Previous Error</tspan><tspan x="0" y="21.6" class="st2 st13">Model</tspan></text>
<text transform="matrix(1 0 0 1 910.1794 380.1191)"><tspan x="0" y="0" class="st2 st13">Stronger for</tspan><tspan x="0" y="10.8" class="st2 st13">Previous Error</tspan><tspan x="0" y="21.6" class="st2 st13">Model</tspan></text>
<text transform="matrix(1 0 0 1 1203.3508 380.1191)"><tspan x="0" y="0" class="st2 st13">Stronger for</tspan><tspan x="0" y="10.8" class="st2 st13">Previous Error</tspan><tspan x="0" y="21.6" class="st2 st13">Model</tspan></text>
<text transform="matrix(1 0 0 1 99.1608 483.8218)"><tspan x="0" y="0" class="st2 st12">Number of </tspan><tspan x="7" y="14.4" class="st2 st12">Neurons</tspan></text>
<text transform="matrix(1 0 0 1 244.628 380.1191)"><tspan x="0" y="0" class="st2 st13">Stronger for</tspan><tspan x="16" y="10.8" class="st2 st13">No Rule</tspan><tspan x="21.3" y="21.6" class="st2 st13">Model</tspan></text>
<text transform="matrix(1 0 0 1 541.6282 380.119)"><tspan x="0" y="0" class="st2 st13">Stronger for</tspan><tspan x="-12.2" y="10.8" class="st2 st13">Rule Repetition</tspan><tspan x="21.3" y="21.6" class="st2 st13">Model</tspan></text>
<text transform="matrix(1 0 0 1 839.4962 380.119)"><tspan x="0" y="0" class="st2 st13">Stronger for</tspan><tspan x="-12.2" y="10.8" class="st2 st13">Rule Repetition</tspan><tspan x="-23.4" y="21.6" class="st2 st13">and Previous Error</tspan><tspan x="21.3" y="32.4" class="st2 st13">Model</tspan></text>
<text transform="matrix(1 0 0 1 1136.8293 380.1194)"><tspan x="0" y="0" class="st2 st13">Stronger for</tspan><tspan x="-16" y="10.8" class="st2 st13">Rule Repetition, </tspan><tspan x="-8.9" y="21.6" class="st2 st13">Previous Error,</tspan><tspan x="-0.7" y="32.4" class="st2 st13">Congruency</tspan><tspan x="21.3" y="43.2" class="st2 st13">Model</tspan></text>
<g>
	<line x1="236.9" y1="380.1" x2="205" y2="380.1"/>
	<g>
		<line class="st14" x1="236.9" y1="380.1" x2="212.1" y2="380.1"/>
		<g>
			<polygon points="213.7,377.8 205,380.1 213.7,382.4 			"/>
		</g>
	</g>
</g>
<g>
	<line x1="527.9" y1="380.1" x2="496.1" y2="380.1"/>
	<g>
		<line class="st14" x1="527.9" y1="380.1" x2="503.2" y2="380.1"/>
		<g>
			<polygon points="504.8,377.8 496.1,380.1 504.8,382.4 			"/>
		</g>
	</g>
</g>
<g>
	<line x1="822.6" y1="380.1" x2="790.8" y2="380.1"/>
	<g>
		<line class="st14" x1="822.6" y1="380.1" x2="797.9" y2="380.1"/>
		<g>
			<polygon points="799.5,377.8 790.8,380.1 799.5,382.4 			"/>
		</g>
	</g>
</g>
<g>
	<line x1="1118.6" y1="380.1" x2="1086.8" y2="380.1"/>
	<g>
		<line class="st14" x1="1118.6" y1="380.1" x2="1093.9" y2="380.1"/>
		<g>
			<polygon points="1095.5,377.8 1086.8,380.1 1095.5,382.4 			"/>
		</g>
	</g>
</g>
<g>
	<line x1="1252.8" y1="380.1" x2="1284.6" y2="380.1"/>
	<g>
		<line class="st14" x1="1252.8" y1="380.1" x2="1277.5" y2="380.1"/>
		<g>
			<polygon points="1275.9,382.4 1284.6,380.1 1275.9,377.8 			"/>
		</g>
	</g>
</g>
<g>
	<line x1="958.1" y1="380.1" x2="989.9" y2="380.1"/>
	<g>
		<line class="st14" x1="958.1" y1="380.1" x2="982.9" y2="380.1"/>
		<g>
			<polygon points="981.3,382.4 989.9,380.1 981.3,377.8 			"/>
		</g>
	</g>
</g>
<g>
	<line x1="662.1" y1="380.1" x2="693.9" y2="380.1"/>
	<g>
		<line class="st14" x1="662.1" y1="380.1" x2="686.9" y2="380.1"/>
		<g>
			<polygon points="685.3,382.4 693.9,380.1 685.3,377.8 			"/>
		</g>
	</g>
</g>
<g>
	<line x1="360.5" y1="380.1" x2="392.4" y2="380.1"/>
	<g>
		<line class="st14" x1="360.5" y1="380.1" x2="385.3" y2="380.1"/>
		<g>
			<polygon points="383.7,382.4 392.4,380.1 383.7,377.8 			"/>
		</g>
	</g>
</g>
<text transform="matrix(1 0 0 1 250.4611 653)"><tspan x="0" y="0" class="st2 st12">Difference in Mutual</tspan><tspan x="-21.8" y="14.4" class="st2 st12">Information between Models</tspan><tspan x="20.7" y="28.8" class="st2 st12">(bits / spike)</tspan></text>
</svg>
