<?xml version="1.0" encoding="utf-8"?>
<!-- Generator: Adobe Illustrator 19.2.1, SVG Export Plug-In . SVG Version: 6.00 Build 0)  -->
<svg version="1.1" id="Layer_1" xmlns="http://www.w3.org/2000/svg" xmlns:xlink="http://www.w3.org/1999/xlink" x="0px" y="0px"
	 viewBox="0 0 1600 1083" style="enable-background:new 0 0 1600 1083;" xml:space="preserve">
<style type="text/css">
	.st0{fill:none;stroke:#262626;stroke-linecap:square;stroke-miterlimit:10;stroke-opacity:0.149;}
	.st1{fill:none;stroke:#262626;stroke-linecap:square;stroke-miterlimit:10;}
	.st2{fill:#262626;}
	.st3{font-family:'MyriadPro-Regular';}
	.st4{font-size:13px;}
	.st5{fill:none;stroke:#66C2A5;stroke-linecap:square;stroke-miterlimit:10;}
	.st6{fill:#66C2A5;}
	.st7{fill:none;stroke:#000000;stroke-width:1.3333;stroke-linejoin:bevel;stroke-miterlimit:1;stroke-dasharray:1,3;}
	.st8{fill:none;stroke:#7570B3;stroke-linecap:square;stroke-miterlimit:10;}
	.st9{fill:#7570B3;}
	.st10{font-size:15px;}
	.st11{font-size:36px;}
	.st12{font-size:14px;}
	.st13{fill:none;stroke:#000000;stroke-width:2;stroke-miterlimit:10;}
</style>
<line class="st0" x1="743" y1="308.3" x2="216" y2="308.3"/>
<line class="st0" x1="743" y1="274.9" x2="216" y2="274.9"/>
<line class="st0" x1="743" y1="241.4" x2="216" y2="241.4"/>
<line class="st0" x1="743" y1="208" x2="216" y2="208"/>
<line class="st0" x1="743" y1="174.6" x2="216" y2="174.6"/>
<line class="st0" x1="743" y1="131.1" x2="216" y2="131.1"/>
<line class="st0" x1="743" y1="97.7" x2="216" y2="97.7"/>
<line class="st1" x1="216" y1="325" x2="743" y2="325"/>
<line class="st1" x1="216" y1="325" x2="216" y2="319.7"/>
<line class="st1" x1="281.9" y1="325" x2="281.9" y2="319.7"/>
<line class="st1" x1="347.8" y1="325" x2="347.8" y2="319.7"/>
<line class="st1" x1="413.6" y1="325" x2="413.6" y2="319.7"/>
<line class="st1" x1="479.5" y1="325" x2="479.5" y2="319.7"/>
<line class="st1" x1="545.4" y1="325" x2="545.4" y2="319.7"/>
<line class="st1" x1="611.3" y1="325" x2="611.3" y2="319.7"/>
<line class="st1" x1="677.1" y1="325" x2="677.1" y2="319.7"/>
<line class="st1" x1="743" y1="325" x2="743" y2="319.7"/>
<g transform="translate(216,320.3333)">
	<text transform="matrix(1 0 0 1 -11.5 17)" class="st2 st3 st4">-0.4</text>
</g>
<g transform="translate(281.875,320.3333)">
	<text transform="matrix(1 0 0 1 -11.5 17)" class="st2 st3 st4">-0.3</text>
</g>
<g transform="translate(347.75,320.3333)">
	<text transform="matrix(1 0 0 1 -11.5 17)" class="st2 st3 st4">-0.2</text>
</g>
<g transform="translate(413.625,320.3333)">
	<text transform="matrix(1 0 0 1 -11.5 17)" class="st2 st3 st4">-0.1</text>
</g>
<g transform="translate(479.5,320.3333)">
	<text transform="matrix(1 0 0 1 -4 17)" class="st2 st3 st4">0</text>
</g>
<g transform="translate(545.375,320.3333)">
	<text transform="matrix(1 0 0 1 -9.5 17)" class="st2 st3 st4">0.1</text>
</g>
<g transform="translate(611.25,320.3333)">
	<text transform="matrix(1 0 0 1 -9.5 17)" class="st2 st3 st4">0.2</text>
</g>
<g transform="translate(677.125,320.3333)">
	<text transform="matrix(1 0 0 1 -9.5 17)" class="st2 st3 st4">0.3</text>
</g>
<g transform="translate(743,320.3333)">
	<text transform="matrix(1 0 0 1 -9.5 17)" class="st2 st3 st4">0.4</text>
</g>
<g transform="translate(210.6667,298.2857)">
	<text transform="matrix(1 0 0 1 -103.7481 15.5)" class="st2 st3 st4">Rule@Repetition5+</text>
</g>
<g transform="translate(210.6667,264.8571)">
	<text transform="matrix(1 0 0 1 -96 15.5)" class="st2 st3 st4">Rule@Repetition4</text>
</g>
<g transform="translate(210.6667,231.4286)">
	<text transform="matrix(1 0 0 1 -96 15.5)" class="st2 st3 st4">Rule@Repetition3</text>
</g>
<g transform="translate(210.6667,198)">
	<text transform="matrix(1 0 0 1 -96 15.5)" class="st2 st3 st4">Rule@Repetition2</text>
</g>
<g transform="translate(210.6667,164.5714)">
	<text transform="matrix(1 0 0 1 -96 15.5)" class="st2 st3 st4">Rule@Repetition1</text>
</g>
<g transform="translate(210.6667,131.1429)">
	<text transform="matrix(1 0 0 1 -107.8692 5.5)" class="st2 st3 st4">Rule@Previous Error</text>
</g>
<g transform="translate(210.6667,97.7143)">
	<text transform="matrix(1 0 0 1 -126.3159 5.5)" class="st2 st3 st4">Rule@No Previous Error</text>
</g>
<line class="st5" x1="502.6" y1="308.3" x2="572.6" y2="308.3"/>
<line class="st5" x1="395.4" y1="274.9" x2="692" y2="274.9"/>
<line class="st5" x1="272.9" y1="241.4" x2="569.7" y2="241.4"/>
<line class="st5" x1="310.1" y1="208" x2="690.2" y2="208"/>
<line class="st5" x1="216" y1="174.6" x2="568.7" y2="174.6"/>
<line class="st5" x1="302" y1="131.1" x2="642.9" y2="131.1"/>
<line class="st5" x1="483.9" y1="97.7" x2="559.8" y2="97.7"/>
<path class="st6" d="M544.4,308.5l-1.1-3.4l-2.9-2.1h-3.6l-2.9,2.1l-1.1,3.4l1.1,3.4l2.9,2.1h3.6l2.9-2.1L544.4,308.5z"/>
<path class="st6" d="M541.4,274.5l-1.1-3.4l-2.9-2.1h-3.6l-2.9,2.1l-1.1,3.4l1.1,3.4l2.9,2.1h3.6l2.9-2.1L541.4,274.5z"/>
<path class="st6" d="M435.4,241.5l-1.1-3.4l-2.9-2.1h-3.6l-2.9,2.1l-1.1,3.4l1.1,3.4l2.9,2.1h3.6l2.9-2.1L435.4,241.5z"/>
<path class="st6" d="M498.4,207.5l-1.1-3.4l-2.9-2.1h-3.6l-2.9,2.1l-1.1,3.4l1.1,3.4l2.9,2.1h3.6l2.9-2.1L498.4,207.5z"/>
<path class="st6" d="M406.4,174.5l-1.1-3.4l-2.9-2.1h-3.6l-2.9,2.1l-1.1,3.4l1.1,3.4l2.9,2.1h3.6l2.9-2.1L406.4,174.5z"/>
<path class="st6" d="M478.4,131.5l-1.1-3.4l-2.9-2.1h-3.6l-2.9,2.1l-1.1,3.4l1.1,3.4l2.9,2.1h3.6l2.9-2.1L478.4,131.5z"/>
<path class="st6" d="M527.4,97.5l-1.1-3.4l-2.9-2.1h-3.6l-2.9,2.1l-1.1,3.4l1.1,3.4l2.9,2.1h3.6l2.9-2.1L527.4,97.5z"/>
<line class="st5" x1="472.3" y1="131.1" x2="521.9" y2="97.7"/>
<path class="st5" d="M538.4,308.3l-3.3-33.4l-105.9-33.4l63.5-33.4l-92-33.4"/>
<g>
	<line class="st7" x1="479.5" y1="315" x2="479.5" y2="81"/>
</g>
<line class="st8" x1="496.7" y1="308.3" x2="542.9" y2="308.3"/>
<line class="st8" x1="452.6" y1="274.9" x2="602.9" y2="274.9"/>
<line class="st8" x1="438.9" y1="241.4" x2="585.6" y2="241.4"/>
<line class="st8" x1="447.1" y1="208" x2="598.9" y2="208"/>
<line class="st8" x1="444.6" y1="174.6" x2="597.1" y2="174.6"/>
<line class="st8" x1="425.2" y1="131.1" x2="557.5" y2="131.1"/>
<line class="st8" x1="499.2" y1="97.7" x2="547.3" y2="97.7"/>
<path class="st9" d="M525.4,308.5l-1.1-3.4l-2.9-2.1h-3.6l-2.9,2.1l-1.1,3.4l1.1,3.4l2.9,2.1h3.6l2.9-2.1L525.4,308.5z"/>
<path class="st9" d="M522.4,274.5l-1.1-3.4l-2.9-2.1h-3.6l-2.9,2.1l-1.1,3.4l1.1,3.4l2.9,2.1h3.6l2.9-2.1L522.4,274.5z"/>
<path class="st9" d="M510.4,241.5l-1.1-3.4l-2.9-2.1h-3.6l-2.9,2.1l-1.1,3.4l1.1,3.4l2.9,2.1h3.6l2.9-2.1L510.4,241.5z"/>
<path class="st9" d="M522.4,207.5l-1.1-3.4l-2.9-2.1h-3.6l-2.9,2.1l-1.1,3.4l1.1,3.4l2.9,2.1h3.6l2.9-2.1L522.4,207.5z"/>
<path class="st9" d="M519.4,174.5l-1.1-3.4l-2.9-2.1h-3.6l-2.9,2.1l-1.1,3.4l1.1,3.4l2.9,2.1h3.6l2.9-2.1L519.4,174.5z"/>
<path class="st9" d="M497.4,131.5l-1.1-3.4l-2.9-2.1h-3.6l-2.9,2.1l-1.1,3.4l1.1,3.4l2.9,2.1h3.6l2.9-2.1L497.4,131.5z"/>
<path class="st9" d="M528.4,97.5l-1.1-3.4l-2.9-2.1h-3.6l-2.9,2.1l-1.1,3.4l1.1,3.4l2.9,2.1h3.6l2.9-2.1L528.4,97.5z"/>
<line class="st8" x1="491.2" y1="131.1" x2="522.9" y2="97.7"/>
<path class="st8" d="M519.6,308.3l-3.2-33.4l-11.6-33.4l11.3-33.4l-2.6-33.4"/>
<g>
	<line class="st7" x1="479.5" y1="315" x2="479.5" y2="81"/>
</g>
<line class="st0" x1="1448" y1="308.3" x2="921" y2="308.3"/>
<line class="st0" x1="1448" y1="274.9" x2="921" y2="274.9"/>
<line class="st0" x1="1448" y1="241.4" x2="921" y2="241.4"/>
<line class="st0" x1="1448" y1="208" x2="921" y2="208"/>
<line class="st0" x1="1448" y1="174.6" x2="921" y2="174.6"/>
<line class="st0" x1="1448" y1="131.1" x2="921" y2="131.1"/>
<line class="st0" x1="1448" y1="97.7" x2="921" y2="97.7"/>
<line class="st1" x1="921" y1="325" x2="1448" y2="325"/>
<line class="st1" x1="921" y1="325" x2="921" y2="319.7"/>
<line class="st1" x1="986.9" y1="325" x2="986.9" y2="319.7"/>
<line class="st1" x1="1052.8" y1="325" x2="1052.8" y2="319.7"/>
<line class="st1" x1="1118.6" y1="325" x2="1118.6" y2="319.7"/>
<line class="st1" x1="1184.5" y1="325" x2="1184.5" y2="319.7"/>
<line class="st1" x1="1250.4" y1="325" x2="1250.4" y2="319.7"/>
<line class="st1" x1="1316.3" y1="325" x2="1316.3" y2="319.7"/>
<line class="st1" x1="1382.1" y1="325" x2="1382.1" y2="319.7"/>
<line class="st1" x1="1448" y1="325" x2="1448" y2="319.7"/>
<g transform="translate(921,320.3333)">
	<text transform="matrix(1 0 0 1 -4 17)" class="st2 st3 st4">0</text>
</g>
<g transform="translate(986.875,320.3333)">
	<text transform="matrix(1 0 0 1 -9.5 17)" class="st2 st3 st4">0.2</text>
</g>
<g transform="translate(1052.75,320.3333)">
	<text transform="matrix(1 0 0 1 -9.5 17)" class="st2 st3 st4">0.4</text>
</g>
<g transform="translate(1118.625,320.3333)">
	<text transform="matrix(1 0 0 1 -9.5 17)" class="st2 st3 st4">0.6</text>
</g>
<g transform="translate(1184.5,320.3333)">
	<text transform="matrix(1 0 0 1 -9.5 17)" class="st2 st3 st4">0.8</text>
</g>
<g transform="translate(1250.375,320.3333)">
	<text transform="matrix(1 0 0 1 -4 17)" class="st2 st3 st4">1</text>
</g>
<g transform="translate(1316.25,320.3333)">
	<text transform="matrix(1 0 0 1 -9.5 17)" class="st2 st3 st4">1.2</text>
</g>
<g transform="translate(1382.125,320.3333)">
	<text transform="matrix(1 0 0 1 -9.5 17)" class="st2 st3 st4">1.4</text>
</g>
<g transform="translate(1448,320.3333)">
	<text transform="matrix(1 0 0 1 -9.5 17)" class="st2 st3 st4">1.6</text>
</g>
<g transform="translate(915.6667,298.2857)">
	<text transform="matrix(1 0 0 1 -103.748 15.5)" class="st2 st3 st4">Rule@Repetition5+</text>
</g>
<g transform="translate(915.6667,264.8571)">
	<text transform="matrix(1 0 0 1 -96 15.5)" class="st2 st3 st4">Rule@Repetition4</text>
</g>
<g transform="translate(915.6667,231.4286)">
	<text transform="matrix(1 0 0 1 -96 15.5)" class="st2 st3 st4">Rule@Repetition3</text>
</g>
<g transform="translate(915.6667,198)">
	<text transform="matrix(1 0 0 1 -96 15.5)" class="st2 st3 st4">Rule@Repetition2</text>
</g>
<g transform="translate(915.6667,164.5714)">
	<text transform="matrix(1 0 0 1 -96 15.5)" class="st2 st3 st4">Rule@Repetition1</text>
</g>
<g transform="translate(915.6667,131.1429)">
	<text transform="matrix(1 0 0 1 -107.8691 5.5)" class="st2 st3 st4">Rule@Previous Error</text>
</g>
<g transform="translate(915.6667,97.7143)">
	<text transform="matrix(1 0 0 1 -126.3164 5.5)" class="st2 st3 st4">Rule@No Previous Error</text>
</g>
<line class="st5" x1="1017.5" y1="308.3" x2="1059" y2="308.3"/>
<line class="st5" x1="1223.8" y1="274.9" x2="1383.2" y2="274.9"/>
<line class="st5" x1="1195.1" y1="241.4" x2="1370.1" y2="241.4"/>
<line class="st5" x1="1264.2" y1="208" x2="1445.3" y2="208"/>
<line class="st5" x1="1223.9" y1="174.6" x2="1398.8" y2="174.6"/>
<line class="st5" x1="1237.9" y1="131.1" x2="1375.9" y2="131.1"/>
<line class="st5" x1="1054.1" y1="97.7" x2="1097.3" y2="97.7"/>
<path class="st6" d="M1042.4,308.5l-1.1-3.4l-2.9-2.1h-3.6l-2.9,2.1l-1.1,3.4l1.1,3.4l2.9,2.1h3.6l2.9-2.1L1042.4,308.5z"/>
<path class="st6" d="M1307.4,274.5l-1.1-3.4l-2.9-2.1h-3.6l-2.9,2.1l-1.1,3.4l1.1,3.4l2.9,2.1h3.6l2.9-2.1L1307.4,274.5z"/>
<path class="st6" d="M1280.4,241.5l-1.1-3.4l-2.9-2.1h-3.6l-2.9,2.1l-1.1,3.4l1.1,3.4l2.9,2.1h3.6l2.9-2.1L1280.4,241.5z"/>
<path class="st6" d="M1356.4,207.5l-1.1-3.4l-2.9-2.1h-3.6l-2.9,2.1l-1.1,3.4l1.1,3.4l2.9,2.1h3.6l2.9-2.1L1356.4,207.5z"/>
<path class="st6" d="M1310.4,174.5l-1.1-3.4l-2.9-2.1h-3.6l-2.9,2.1l-1.1,3.4l1.1,3.4l2.9,2.1h3.6l2.9-2.1L1310.4,174.5z"/>
<path class="st6" d="M1306.4,131.5l-1.1-3.4l-2.9-2.1h-3.6l-2.9,2.1l-1.1,3.4l1.1,3.4l2.9,2.1h3.6l2.9-2.1L1306.4,131.5z"/>
<path class="st6" d="M1078.4,97.5l-1.1-3.4l-2.9-2.1h-3.6l-2.9,2.1l-1.1,3.4l1.1,3.4l2.9,2.1h3.6l2.9-2.1L1078.4,97.5z"/>
<line class="st5" x1="1300.9" y1="131.1" x2="1073" y2="97.7"/>
<path class="st5" d="M1036.8,308.3l264.5-33.4l-26.6-33.4l75.8-33.4l-45.7-33.4"/>
<line class="st8" x1="1001" y1="308.3" x2="1026.4" y2="308.3"/>
<line class="st8" x1="1072" y1="274.9" x2="1154.9" y2="274.9"/>
<line class="st8" x1="1059.3" y1="241.4" x2="1144" y2="241.4"/>
<line class="st8" x1="1088.4" y1="208" x2="1178.6" y2="208"/>
<line class="st8" x1="1083.7" y1="174.6" x2="1182.9" y2="174.6"/>
<line class="st8" x1="1069.5" y1="131.1" x2="1138.5" y2="131.1"/>
<line class="st8" x1="1011.7" y1="97.7" x2="1039.2" y2="97.7"/>
<path class="st9" d="M1018.4,308.5l-1.1-3.4l-2.9-2.1h-3.6l-2.9,2.1l-1.1,3.4l1.1,3.4l2.9,2.1h3.6l2.9-2.1L1018.4,308.5z"/>
<path class="st9" d="M1116.4,274.5l-1.1-3.4l-2.9-2.1h-3.6l-2.9,2.1l-1.1,3.4l1.1,3.4l2.9,2.1h3.6l2.9-2.1L1116.4,274.5z"/>
<path class="st9" d="M1103.4,241.5l-1.1-3.4l-2.9-2.1h-3.6l-2.9,2.1l-1.1,3.4l1.1,3.4l2.9,2.1h3.6l2.9-2.1L1103.4,241.5z"/>
<path class="st9" d="M1133.4,207.5l-1.1-3.4l-2.9-2.1h-3.6l-2.9,2.1l-1.1,3.4l1.1,3.4l2.9,2.1h3.6l2.9-2.1L1133.4,207.5z"/>
<path class="st9" d="M1133.4,174.5l-1.1-3.4l-2.9-2.1h-3.6l-2.9,2.1l-1.1,3.4l1.1,3.4l2.9,2.1h3.6l2.9-2.1L1133.4,174.5z"/>
<path class="st9" d="M1108.4,131.5l-1.1-3.4l-2.9-2.1h-3.6l-2.9,2.1l-1.1,3.4l1.1,3.4l2.9,2.1h3.6l2.9-2.1L1108.4,131.5z"/>
<path class="st9" d="M1030.4,97.5l-1.1-3.4l-2.9-2.1h-3.6l-2.9,2.1l-1.1,3.4l1.1,3.4l2.9,2.1h3.6l2.9-2.1L1030.4,97.5z"/>
<line class="st8" x1="1102.6" y1="131.1" x2="1024.5" y2="97.7"/>
<path class="st8" d="M1012.6,308.3l98.4-33.4l-13.5-33.4l29.8-33.4l0.7-33.4"/>
<line class="st0" x1="743" y1="592.4" x2="216" y2="592.4"/>
<line class="st0" x1="743" y1="559.1" x2="216" y2="559.1"/>
<line class="st0" x1="743" y1="525.8" x2="216" y2="525.8"/>
<line class="st0" x1="743" y1="492.5" x2="216" y2="492.5"/>
<line class="st0" x1="743" y1="459.2" x2="216" y2="459.2"/>
<line class="st0" x1="743" y1="415.9" x2="216" y2="415.9"/>
<line class="st0" x1="743" y1="382.6" x2="216" y2="382.6"/>
<line class="st1" x1="216" y1="609" x2="743" y2="609"/>
<line class="st1" x1="216" y1="609" x2="216" y2="603.7"/>
<line class="st1" x1="281.9" y1="609" x2="281.9" y2="603.7"/>
<line class="st1" x1="347.8" y1="609" x2="347.8" y2="603.7"/>
<line class="st1" x1="413.6" y1="609" x2="413.6" y2="603.7"/>
<line class="st1" x1="479.5" y1="609" x2="479.5" y2="603.7"/>
<line class="st1" x1="545.4" y1="609" x2="545.4" y2="603.7"/>
<line class="st1" x1="611.3" y1="609" x2="611.3" y2="603.7"/>
<line class="st1" x1="677.1" y1="609" x2="677.1" y2="603.7"/>
<line class="st1" x1="743" y1="609" x2="743" y2="603.7"/>
<g transform="translate(216,644.3333)">
	<text transform="matrix(1 0 0 1 -15 -24)" class="st2 st3 st4">-0.04</text>
</g>
<g transform="translate(281.875,644.3333)">
	<text transform="matrix(1 0 0 1 -15 -24)" class="st2 st3 st4">-0.03</text>
</g>
<g transform="translate(347.75,644.3333)">
	<text transform="matrix(1 0 0 1 -15 -24)" class="st2 st3 st4">-0.02</text>
</g>
<g transform="translate(413.625,644.3333)">
	<text transform="matrix(1 0 0 1 -15 -24)" class="st2 st3 st4">-0.01</text>
</g>
<g transform="translate(479.5,644.3333)">
	<text transform="matrix(1 0 0 1 -4 -24)" class="st2 st3 st4">0</text>
</g>
<g transform="translate(545.375,644.3333)">
	<text transform="matrix(1 0 0 1 -13 -24)" class="st2 st3 st4">0.01</text>
</g>
<g transform="translate(611.25,644.3333)">
	<text transform="matrix(1 0 0 1 -13 -24)" class="st2 st3 st4">0.02</text>
</g>
<g transform="translate(677.125,644.3333)">
	<text transform="matrix(1 0 0 1 -13 -24)" class="st2 st3 st4">0.03</text>
</g>
<g transform="translate(743,644.3333)">
	<text transform="matrix(1 0 0 1 -13 -24)" class="st2 st3 st4">0.04</text>
</g>
<g transform="translate(210.6667,622.3571)">
	<text transform="matrix(1 0 0 1 -103.7481 -24.5)" class="st2 st3 st4">Rule@Repetition5+</text>
</g>
<g transform="translate(210.6667,589.0714)">
	<text transform="matrix(1 0 0 1 -96 -24.5)" class="st2 st3 st4">Rule@Repetition4</text>
</g>
<g transform="translate(210.6667,555.7857)">
	<text transform="matrix(1 0 0 1 -96 -24.5)" class="st2 st3 st4">Rule@Repetition3</text>
</g>
<g transform="translate(210.6667,522.5)">
	<text transform="matrix(1 0 0 1 -96 -24.5)" class="st2 st3 st4">Rule@Repetition2</text>
</g>
<g transform="translate(210.6667,489.2143)">
	<text transform="matrix(1 0 0 1 -96 -24.5)" class="st2 st3 st4">Rule@Repetition1</text>
</g>
<g transform="translate(210.6667,455.9286)">
	<text transform="matrix(1 0 0 1 -107.8692 -34.5)" class="st2 st3 st4">Rule@Previous Error</text>
</g>
<g transform="translate(210.6667,422.6429)">
	<text transform="matrix(1 0 0 1 -126.3159 -34.5)" class="st2 st3 st4">Rule@No Previous Error</text>
</g>
<line class="st5" x1="495" y1="592.4" x2="555.4" y2="592.4"/>
<line class="st5" x1="417.6" y1="559.1" x2="684.9" y2="559.1"/>
<line class="st5" x1="301.1" y1="525.8" x2="571.2" y2="525.8"/>
<line class="st5" x1="344.7" y1="492.5" x2="649.3" y2="492.5"/>
<line class="st5" x1="230.6" y1="459.2" x2="552.1" y2="459.2"/>
<line class="st5" x1="337.3" y1="415.9" x2="617.3" y2="415.9"/>
<line class="st5" x1="484.8" y1="382.6" x2="553.3" y2="382.6"/>
<path class="st6" d="M533.4,592.5l-1.1-3.4l-2.9-2.1h-3.6l-2.9,2.1l-1.1,3.4l1.1,3.4l2.9,2.1h3.6l2.9-2.1L533.4,592.5z"/>
<path class="st6" d="M552.4,559.5l-1.1-3.4l-2.9-2.1h-3.6l-2.9,2.1l-1.1,3.4l1.1,3.4l2.9,2.1h3.6l2.9-2.1L552.4,559.5z"/>
<path class="st6" d="M441.4,525.5l-1.1-3.4l-2.9-2.1h-3.6l-2.9,2.1l-1.1,3.4l1.1,3.4l2.9,2.1h3.6l2.9-2.1L441.4,525.5z"/>
<path class="st6" d="M493.4,492.5l-1.1-3.4l-2.9-2.1h-3.6l-2.9,2.1l-1.1,3.4l1.1,3.4l2.9,2.1h3.6l2.9-2.1L493.4,492.5z"/>
<path class="st6" d="M400.4,459.5l-1.1-3.4l-2.9-2.1h-3.6l-2.9,2.1l-1.1,3.4l1.1,3.4l2.9,2.1h3.6l2.9-2.1L400.4,459.5z"/>
<path class="st6" d="M482.4,415.5l-1.1-3.4l-2.9-2.1h-3.6l-2.9,2.1l-1.1,3.4l1.1,3.4l2.9,2.1h3.6l2.9-2.1L482.4,415.5z"/>
<path class="st6" d="M524.4,382.5l-1.1-3.4l-2.9-2.1h-3.6l-2.9,2.1l-1.1,3.4l1.1,3.4l2.9,2.1h3.6l2.9-2.1L524.4,382.5z"/>
<line class="st5" x1="476.8" y1="415.9" x2="518.8" y2="382.6"/>
<path class="st5" d="M527.2,592.4l19-33.3l-111-33.3l52-33.3l-92.5-33.3"/>
<g>
	<line class="st7" x1="479.5" y1="599" x2="479.5" y2="366"/>
</g>
<line class="st8" x1="506.2" y1="592.4" x2="577.5" y2="592.4"/>
<line class="st8" x1="413.5" y1="559.1" x2="713.7" y2="559.1"/>
<line class="st8" x1="390.3" y1="525.8" x2="681.2" y2="525.8"/>
<line class="st8" x1="403.8" y1="492.5" x2="707.2" y2="492.5"/>
<line class="st8" x1="397.8" y1="459.2" x2="735.7" y2="459.2"/>
<line class="st8" x1="346.8" y1="415.9" x2="611" y2="415.9"/>
<line class="st8" x1="514.6" y1="382.6" x2="593.8" y2="382.6"/>
<path class="st9" d="M551.4,592.5l-1.1-3.4l-2.9-2.1h-3.6l-2.9,2.1l-1.1,3.4l1.1,3.4l2.9,2.1h3.6l2.9-2.1L551.4,592.5z"/>
<path class="st9" d="M568.4,559.5l-1.1-3.4l-2.9-2.1h-3.6l-2.9,2.1l-1.1,3.4l1.1,3.4l2.9,2.1h3.6l2.9-2.1L568.4,559.5z"/>
<path class="st9" d="M545.4,525.5l-1.1-3.4l-2.9-2.1h-3.6l-2.9,2.1l-1.1,3.4l1.1,3.4l2.9,2.1h3.6l2.9-2.1L545.4,525.5z"/>
<path class="st9" d="M566.4,492.5l-1.1-3.4l-2.9-2.1h-3.6l-2.9,2.1l-1.1,3.4l1.1,3.4l2.9,2.1h3.6l2.9-2.1L566.4,492.5z"/>
<path class="st9" d="M575.4,459.5l-1.1-3.4l-2.9-2.1h-3.6l-2.9,2.1l-1.1,3.4l1.1,3.4l2.9,2.1h3.6l2.9-2.1L575.4,459.5z"/>
<path class="st9" d="M488.4,415.5l-1.1-3.4l-2.9-2.1h-3.6l-2.9,2.1l-1.1,3.4l1.1,3.4l2.9,2.1h3.6l2.9-2.1L488.4,415.5z"/>
<path class="st9" d="M561.4,382.5l-1.1-3.4l-2.9-2.1h-3.6l-2.9,2.1l-1.1,3.4l1.1,3.4l2.9,2.1h3.6l2.9-2.1L561.4,382.5z"/>
<line class="st8" x1="482.6" y1="415.9" x2="555.4" y2="382.6"/>
<path class="st8" d="M545.1,592.4l17.6-33.3L540,525.8l20.1-33.3l9.9-33.3"/>
<g>
	<line class="st7" x1="479.5" y1="599" x2="479.5" y2="366"/>
</g>
<line class="st0" x1="1448" y1="592.4" x2="921" y2="592.4"/>
<line class="st0" x1="1448" y1="559.1" x2="921" y2="559.1"/>
<line class="st0" x1="1448" y1="525.8" x2="921" y2="525.8"/>
<line class="st0" x1="1448" y1="492.5" x2="921" y2="492.5"/>
<line class="st0" x1="1448" y1="459.2" x2="921" y2="459.2"/>
<line class="st0" x1="1448" y1="415.9" x2="921" y2="415.9"/>
<line class="st0" x1="1448" y1="382.6" x2="921" y2="382.6"/>
<line class="st1" x1="921" y1="609" x2="1448" y2="609"/>
<line class="st1" x1="921" y1="609" x2="921" y2="603.7"/>
<line class="st1" x1="996.3" y1="609" x2="996.3" y2="603.7"/>
<line class="st1" x1="1071.6" y1="609" x2="1071.6" y2="603.7"/>
<line class="st1" x1="1146.9" y1="609" x2="1146.9" y2="603.7"/>
<line class="st1" x1="1222.1" y1="609" x2="1222.1" y2="603.7"/>
<line class="st1" x1="1297.4" y1="609" x2="1297.4" y2="603.7"/>
<line class="st1" x1="1372.7" y1="609" x2="1372.7" y2="603.7"/>
<line class="st1" x1="1448" y1="609" x2="1448" y2="603.7"/>
<g transform="translate(921,644.3333)">
	<text transform="matrix(1 0 0 1 -4 -24)" class="st2 st3 st4">0</text>
</g>
<g transform="translate(996.2857,644.3333)">
	<text transform="matrix(1 0 0 1 -13 -24)" class="st2 st3 st4">0.02</text>
</g>
<g transform="translate(1071.5714,644.3333)">
	<text transform="matrix(1 0 0 1 -13 -24)" class="st2 st3 st4">0.04</text>
</g>
<g transform="translate(1146.8572,644.3333)">
	<text transform="matrix(1 0 0 1 -13 -24)" class="st2 st3 st4">0.06</text>
</g>
<g transform="translate(1222.1428,644.3333)">
	<text transform="matrix(1 0 0 1 -13 -24)" class="st2 st3 st4">0.08</text>
</g>
<g transform="translate(1297.4286,644.3333)">
	<text transform="matrix(1 0 0 1 -9.5 -24)" class="st2 st3 st4">0.1</text>
</g>
<g transform="translate(1372.7142,644.3333)">
	<text transform="matrix(1 0 0 1 -13 -24)" class="st2 st3 st4">0.12</text>
</g>
<g transform="translate(1448,644.3333)">
	<text transform="matrix(1 0 0 1 -13 -24)" class="st2 st3 st4">0.14</text>
</g>
<g transform="translate(915.6667,622.3571)">
	<text transform="matrix(1 0 0 1 -103.748 -24.5)" class="st2 st3 st4">Rule@Repetition5+</text>
</g>
<g transform="translate(915.6667,589.0714)">
	<text transform="matrix(1 0 0 1 -96 -24.5)" class="st2 st3 st4">Rule@Repetition4</text>
</g>
<g transform="translate(915.6667,555.7857)">
	<text transform="matrix(1 0 0 1 -96 -24.5)" class="st2 st3 st4">Rule@Repetition3</text>
</g>
<g transform="translate(915.6667,522.5)">
	<text transform="matrix(1 0 0 1 -96 -24.5)" class="st2 st3 st4">Rule@Repetition2</text>
</g>
<g transform="translate(915.6667,489.2143)">
	<text transform="matrix(1 0 0 1 -96 -24.5)" class="st2 st3 st4">Rule@Repetition1</text>
</g>
<g transform="translate(915.6667,455.9286)">
	<text transform="matrix(1 0 0 1 -107.8691 -34.5)" class="st2 st3 st4">Rule@Previous Error</text>
</g>
<g transform="translate(915.6667,422.6429)">
	<text transform="matrix(1 0 0 1 -126.3164 -34.5)" class="st2 st3 st4">Rule@No Previous Error</text>
</g>
<line class="st5" x1="993.8" y1="592.4" x2="1023" y2="592.4"/>
<line class="st5" x1="1187.1" y1="559.1" x2="1329.6" y2="559.1"/>
<line class="st5" x1="1149.9" y1="525.8" x2="1293.8" y2="525.8"/>
<line class="st5" x1="1225.7" y1="492.5" x2="1366.3" y2="492.5"/>
<line class="st5" x1="1185.3" y1="459.2" x2="1324.7" y2="459.2"/>
<line class="st5" x1="1147.1" y1="415.9" x2="1251.9" y2="415.9"/>
<line class="st5" x1="991.3" y1="382.6" x2="1022.8" y2="382.6"/>
<path class="st6" d="M1012.4,592.5l-1.1-3.4l-2.9-2.1h-3.6l-2.9,2.1l-1.1,3.4l1.1,3.4l2.9,2.1h3.6l2.9-2.1L1012.4,592.5z"/>
<path class="st6" d="M1255.4,559.5l-1.1-3.4l-2.9-2.1h-3.6l-2.9,2.1l-1.1,3.4l1.1,3.4l2.9,2.1h3.6l2.9-2.1L1255.4,559.5z"/>
<path class="st6" d="M1223.4,525.5l-1.1-3.4l-2.9-2.1h-3.6l-2.9,2.1l-1.1,3.4l1.1,3.4l2.9,2.1h3.6l2.9-2.1L1223.4,525.5z"/>
<path class="st6" d="M1297.4,492.5l-1.1-3.4l-2.9-2.1h-3.6l-2.9,2.1l-1.1,3.4l1.1,3.4l2.9,2.1h3.6l2.9-2.1L1297.4,492.5z"/>
<path class="st6" d="M1255.4,459.5l-1.1-3.4l-2.9-2.1h-3.6l-2.9,2.1l-1.1,3.4l1.1,3.4l2.9,2.1h3.6l2.9-2.1L1255.4,459.5z"/>
<path class="st6" d="M1201.4,415.5l-1.1-3.4l-2.9-2.1h-3.6l-2.9,2.1l-1.1,3.4l1.1,3.4l2.9,2.1h3.6l2.9-2.1L1201.4,415.5z"/>
<path class="st6" d="M1011.4,382.5l-1.1-3.4l-2.9-2.1h-3.6l-2.9,2.1l-1.1,3.4l1.1,3.4l2.9,2.1h3.6l2.9-2.1L1011.4,382.5z"/>
<line class="st5" x1="1195.7" y1="415.9" x2="1005.4" y2="382.6"/>
<path class="st5" d="M1006.5,592.4l243.4-33.3l-32.3-33.3l74.4-33.3l-42.7-33.3"/>
<line class="st8" x1="1063" y1="592.4" x2="1106.6" y2="592.4"/>
<line class="st8" x1="1231.2" y1="559.1" x2="1395.7" y2="559.1"/>
<line class="st8" x1="1208.5" y1="525.8" x2="1363.8" y2="525.8"/>
<line class="st8" x1="1241.3" y1="492.5" x2="1400.5" y2="492.5"/>
<line class="st8" x1="1232.5" y1="459.2" x2="1405.4" y2="459.2"/>
<line class="st8" x1="1171.9" y1="415.9" x2="1290.3" y2="415.9"/>
<line class="st8" x1="1060.2" y1="382.6" x2="1109.6" y2="382.6"/>
<path class="st9" d="M1089.4,592.5l-1.1-3.4l-2.9-2.1h-3.6l-2.9,2.1l-1.1,3.4l1.1,3.4l2.9,2.1h3.6l2.9-2.1L1089.4,592.5z"/>
<path class="st9" d="M1311.4,559.5l-1.1-3.4l-2.9-2.1h-3.6l-2.9,2.1l-1.1,3.4l1.1,3.4l2.9,2.1h3.6l2.9-2.1L1311.4,559.5z"/>
<path class="st9" d="M1287.4,525.5l-1.1-3.4l-2.9-2.1h-3.6l-2.9,2.1l-1.1,3.4l1.1,3.4l2.9,2.1h3.6l2.9-2.1L1287.4,525.5z"/>
<path class="st9" d="M1321.4,492.5l-1.1-3.4l-2.9-2.1h-3.6l-2.9,2.1l-1.1,3.4l1.1,3.4l2.9,2.1h3.6l2.9-2.1L1321.4,492.5z"/>
<path class="st9" d="M1319.4,459.5l-1.1-3.4l-2.9-2.1h-3.6l-2.9,2.1l-1.1,3.4l1.1,3.4l2.9,2.1h3.6l2.9-2.1L1319.4,459.5z"/>
<path class="st9" d="M1232.4,415.5l-1.1-3.4l-2.9-2.1h-3.6l-2.9,2.1l-1.1,3.4l1.1,3.4l2.9,2.1h3.6l2.9-2.1L1232.4,415.5z"/>
<path class="st9" d="M1089.4,382.5l-1.1-3.4l-2.9-2.1h-3.6l-2.9,2.1l-1.1,3.4l1.1,3.4l2.9,2.1h3.6l2.9-2.1L1089.4,382.5z"/>
<line class="st8" x1="1226.7" y1="415.9" x2="1083.5" y2="382.6"/>
<path class="st8" d="M1083.7,592.4l222.2-33.3l-24.7-33.3l34.5-33.3l-2.7-33.3"/>
<line class="st0" x1="743" y1="887.3" x2="216" y2="887.3"/>
<line class="st0" x1="743" y1="853.9" x2="216" y2="853.9"/>
<line class="st0" x1="743" y1="820.4" x2="216" y2="820.4"/>
<line class="st0" x1="743" y1="787" x2="216" y2="787"/>
<line class="st0" x1="743" y1="753.6" x2="216" y2="753.6"/>
<line class="st0" x1="743" y1="710.1" x2="216" y2="710.1"/>
<line class="st0" x1="743" y1="676.7" x2="216" y2="676.7"/>
<line class="st1" x1="216" y1="904" x2="743" y2="904"/>
<line class="st1" x1="216" y1="904" x2="216" y2="898.7"/>
<line class="st1" x1="274.6" y1="904" x2="274.6" y2="898.7"/>
<line class="st1" x1="333.1" y1="904" x2="333.1" y2="898.7"/>
<line class="st1" x1="391.7" y1="904" x2="391.7" y2="898.7"/>
<line class="st1" x1="450.2" y1="904" x2="450.2" y2="898.7"/>
<line class="st1" x1="508.8" y1="904" x2="508.8" y2="898.7"/>
<line class="st1" x1="567.3" y1="904" x2="567.3" y2="898.7"/>
<line class="st1" x1="625.9" y1="904" x2="625.9" y2="898.7"/>
<line class="st1" x1="684.4" y1="904" x2="684.4" y2="898.7"/>
<line class="st1" x1="743" y1="904" x2="743" y2="898.7"/>
<g transform="translate(216,969.3333)">
	<text transform="matrix(1 0 0 1 -15 -53)" class="st2 st3 st4">-0.08</text>
</g>
<g transform="translate(274.5556,969.3333)">
	<text transform="matrix(1 0 0 1 -15 -53)" class="st2 st3 st4">-0.06</text>
</g>
<g transform="translate(333.1111,969.3333)">
	<text transform="matrix(1 0 0 1 -15 -53)" class="st2 st3 st4">-0.04</text>
</g>
<g transform="translate(391.6667,969.3333)">
	<text transform="matrix(1 0 0 1 -15 -53)" class="st2 st3 st4">-0.02</text>
</g>
<g transform="translate(450.2222,969.3333)">
	<text transform="matrix(1 0 0 1 -4 -53)" class="st2 st3 st4">0</text>
</g>
<g transform="translate(508.7778,969.3333)">
	<text transform="matrix(1 0 0 1 -13 -53)" class="st2 st3 st4">0.02</text>
</g>
<g transform="translate(567.3333,969.3333)">
	<text transform="matrix(1 0 0 1 -13 -53)" class="st2 st3 st4">0.04</text>
</g>
<g transform="translate(625.8889,969.3333)">
	<text transform="matrix(1 0 0 1 -13 -53)" class="st2 st3 st4">0.06</text>
</g>
<g transform="translate(684.4445,969.3333)">
	<text transform="matrix(1 0 0 1 -13 -53)" class="st2 st3 st4">0.08</text>
</g>
<g transform="translate(743,969.3333)">
	<text transform="matrix(1 0 0 1 -9.5 -53)" class="st2 st3 st4">0.1</text>
</g>
<g transform="translate(210.6667,947.2857)">
	<text transform="matrix(1 0 0 1 -103.7481 -54.5)" class="st2 st3 st4">Rule@Repetition5+</text>
</g>
<g transform="translate(210.6667,913.8571)">
	<text transform="matrix(1 0 0 1 -96 -54.5)" class="st2 st3 st4">Rule@Repetition4</text>
</g>
<g transform="translate(210.6667,880.4286)">
	<text transform="matrix(1 0 0 1 -96 -54.5)" class="st2 st3 st4">Rule@Repetition3</text>
</g>
<g transform="translate(210.6667,847)">
	<text transform="matrix(1 0 0 1 -96 -54.5)" class="st2 st3 st4">Rule@Repetition2</text>
</g>
<g transform="translate(210.6667,813.5714)">
	<text transform="matrix(1 0 0 1 -96 -54.5)" class="st2 st3 st4">Rule@Repetition1</text>
</g>
<g transform="translate(210.6667,780.1429)">
	<text transform="matrix(1 0 0 1 -107.8692 -64.5)" class="st2 st3 st4">Rule@Previous Error</text>
</g>
<g transform="translate(210.6667,746.7143)">
	<text transform="matrix(1 0 0 1 -126.3159 -64.5)" class="st2 st3 st4">Rule@No Previous Error</text>
</g>
<line class="st5" x1="466" y1="887.3" x2="516.8" y2="887.3"/>
<line class="st5" x1="397" y1="853.9" x2="621.3" y2="853.9"/>
<line class="st5" x1="297.4" y1="820.4" x2="531.5" y2="820.4"/>
<line class="st5" x1="338.9" y1="787" x2="601.3" y2="787"/>
<line class="st5" x1="234.9" y1="753.6" x2="517.7" y2="753.6"/>
<line class="st5" x1="316.3" y1="710.1" x2="578" y2="710.1"/>
<line class="st5" x1="453.3" y1="676.7" x2="510.6" y2="676.7"/>
<path class="st6" d="M498.4,887.5l-1.1-3.4l-2.9-2.1h-3.6l-2.9,2.1l-1.1,3.4l1.1,3.4l2.9,2.1h3.6l2.9-2.1L498.4,887.5z"/>
<path class="st6" d="M513.4,853.5l-1.1-3.4l-2.9-2.1h-3.6l-2.9,2.1l-1.1,3.4l1.1,3.4l2.9,2.1h3.6l2.9-2.1L513.4,853.5z"/>
<path class="st6" d="M419.4,820.5l-1.1-3.4l-2.9-2.1h-3.6l-2.9,2.1l-1.1,3.4l1.1,3.4l2.9,2.1h3.6l2.9-2.1L419.4,820.5z"/>
<path class="st6" d="M464.4,787.5l-1.1-3.4l-2.9-2.1h-3.6l-2.9,2.1l-1.1,3.4l1.1,3.4l2.9,2.1h3.6l2.9-2.1L464.4,787.5z"/>
<path class="st6" d="M383.4,753.5l-1.1-3.4l-2.9-2.1h-3.6l-2.9,2.1l-1.1,3.4l1.1,3.4l2.9,2.1h3.6l2.9-2.1L383.4,753.5z"/>
<path class="st6" d="M451.4,710.5l-1.1-3.4l-2.9-2.1h-3.6l-2.9,2.1l-1.1,3.4l1.1,3.4l2.9,2.1h3.6l2.9-2.1L451.4,710.5z"/>
<path class="st6" d="M489.4,676.5l-1.1-3.4l-2.9-2.1h-3.6l-2.9,2.1l-1.1,3.4l1.1,3.4l2.9,2.1h3.6l2.9-2.1L489.4,676.5z"/>
<line class="st5" x1="445.1" y1="710.1" x2="483.1" y2="676.7"/>
<path class="st5" d="M492.4,887.3l15.4-33.4L414,820.4l44.9-33.4l-81.2-33.4"/>
<g>
	<line class="st7" x1="450.2" y1="894" x2="450.2" y2="660"/>
</g>
<line class="st8" x1="473.3" y1="887.3" x2="533.1" y2="887.3"/>
<line class="st8" x1="395.1" y1="853.9" x2="644.7" y2="853.9"/>
<line class="st8" x1="373.3" y1="820.4" x2="625.4" y2="820.4"/>
<line class="st8" x1="385.1" y1="787" x2="660.2" y2="787"/>
<line class="st8" x1="373.7" y1="753.6" x2="685.8" y2="753.6"/>
<line class="st8" x1="329" y1="710.1" x2="570.6" y2="710.1"/>
<line class="st8" x1="479.8" y1="676.7" x2="547.9" y2="676.7"/>
<path class="st9" d="M511.4,887.5l-1.1-3.4l-2.9-2.1h-3.6l-2.9,2.1l-1.1,3.4l1.1,3.4l2.9,2.1h3.6l2.9-2.1L511.4,887.5z"/>
<path class="st9" d="M523.4,853.5l-1.1-3.4l-2.9-2.1h-3.6l-2.9,2.1l-1.1,3.4l1.1,3.4l2.9,2.1h3.6l2.9-2.1L523.4,853.5z"/>
<path class="st9" d="M505.4,820.5l-1.1-3.4l-2.9-2.1h-3.6l-2.9,2.1l-1.1,3.4l1.1,3.4l2.9,2.1h3.6l2.9-2.1L505.4,820.5z"/>
<path class="st9" d="M526.4,787.5l-1.1-3.4l-2.9-2.1h-3.6l-2.9,2.1l-1.1,3.4l1.1,3.4l2.9,2.1h3.6l2.9-2.1L526.4,787.5z"/>
<path class="st9" d="M535.4,753.5l-1.1-3.4l-2.9-2.1h-3.6l-2.9,2.1l-1.1,3.4l1.1,3.4l2.9,2.1h3.6l2.9-2.1L535.4,753.5z"/>
<path class="st9" d="M459.4,710.5l-1.1-3.4l-2.9-2.1h-3.6l-2.9,2.1l-1.1,3.4l1.1,3.4l2.9,2.1h3.6l2.9-2.1L459.4,710.5z"/>
<path class="st9" d="M520.4,676.5l-1.1-3.4l-2.9-2.1h-3.6l-2.9,2.1l-1.1,3.4l1.1,3.4l2.9,2.1h3.6l2.9-2.1L520.4,676.5z"/>
<line class="st8" x1="453" y1="710.1" x2="515" y2="676.7"/>
<path class="st8" d="M505.6,887.3l12-33.4l-17.8-33.4l20.2-33.4l9.7-33.4"/>
<g>
	<line class="st7" x1="450.2" y1="894" x2="450.2" y2="660"/>
</g>
<line class="st0" x1="1448" y1="887.3" x2="921" y2="887.3"/>
<line class="st0" x1="1448" y1="853.9" x2="921" y2="853.9"/>
<line class="st0" x1="1448" y1="820.4" x2="921" y2="820.4"/>
<line class="st0" x1="1448" y1="787" x2="921" y2="787"/>
<line class="st0" x1="1448" y1="753.6" x2="921" y2="753.6"/>
<line class="st0" x1="1448" y1="710.1" x2="921" y2="710.1"/>
<line class="st0" x1="1448" y1="676.7" x2="921" y2="676.7"/>
<line class="st1" x1="921" y1="904" x2="1448" y2="904"/>
<line class="st1" x1="921" y1="904" x2="921" y2="898.7"/>
<line class="st1" x1="1008.8" y1="904" x2="1008.8" y2="898.7"/>
<line class="st1" x1="1096.7" y1="904" x2="1096.7" y2="898.7"/>
<line class="st1" x1="1184.5" y1="904" x2="1184.5" y2="898.7"/>
<line class="st1" x1="1272.3" y1="904" x2="1272.3" y2="898.7"/>
<line class="st1" x1="1360.2" y1="904" x2="1360.2" y2="898.7"/>
<line class="st1" x1="1448" y1="904" x2="1448" y2="898.7"/>
<g transform="translate(921,969.3333)">
	<text transform="matrix(1 0 0 1 -4 -53)" class="st2 st3 st4">0</text>
</g>
<g transform="translate(1008.8333,969.3333)">
	<text transform="matrix(1 0 0 1 -13 -53)" class="st2 st3 st4">0.05</text>
</g>
<g transform="translate(1096.6666,969.3333)">
	<text transform="matrix(1 0 0 1 -9.5 -53)" class="st2 st3 st4">0.1</text>
</g>
<g transform="translate(1184.5,969.3333)">
	<text transform="matrix(1 0 0 1 -13 -53)" class="st2 st3 st4">0.15</text>
</g>
<g transform="translate(1272.3334,969.3333)">
	<text transform="matrix(1 0 0 1 -9.5 -53)" class="st2 st3 st4">0.2</text>
</g>
<g transform="translate(1360.1666,969.3333)">
	<text transform="matrix(1 0 0 1 -13 -53)" class="st2 st3 st4">0.25</text>
</g>
<g transform="translate(1448,969.3333)">
	<text transform="matrix(1 0 0 1 -9.5 -53)" class="st2 st3 st4">0.3</text>
</g>
<g transform="translate(915.6667,947.2857)">
	<text transform="matrix(1 0 0 1 -103.748 -54.5)" class="st2 st3 st4">Rule@Repetition5+</text>
</g>
<g transform="translate(915.6667,913.8571)">
	<text transform="matrix(1 0 0 1 -96 -54.5)" class="st2 st3 st4">Rule@Repetition4</text>
</g>
<g transform="translate(915.6667,880.4286)">
	<text transform="matrix(1 0 0 1 -96 -54.5)" class="st2 st3 st4">Rule@Repetition3</text>
</g>
<g transform="translate(915.6667,847)">
	<text transform="matrix(1 0 0 1 -96 -54.5)" class="st2 st3 st4">Rule@Repetition2</text>
</g>
<g transform="translate(915.6667,813.5714)">
	<text transform="matrix(1 0 0 1 -96 -54.5)" class="st2 st3 st4">Rule@Repetition1</text>
</g>
<g transform="translate(915.6667,780.1429)">
	<text transform="matrix(1 0 0 1 -107.8691 -64.5)" class="st2 st3 st4">Rule@Previous Error</text>
</g>
<g transform="translate(915.6667,746.7143)">
	<text transform="matrix(1 0 0 1 -126.3164 -64.5)" class="st2 st3 st4">Rule@No Previous Error</text>
</g>
<line class="st5" x1="998.6" y1="887.3" x2="1025" y2="887.3"/>
<line class="st5" x1="1163.6" y1="853.9" x2="1286.8" y2="853.9"/>
<line class="st5" x1="1137.2" y1="820.4" x2="1265.6" y2="820.4"/>
<line class="st5" x1="1198.2" y1="787" x2="1322.7" y2="787"/>
<line class="st5" x1="1164.8" y1="753.6" x2="1288.7" y2="753.6"/>
<line class="st5" x1="1178.8" y1="710.1" x2="1280.1" y2="710.1"/>
<line class="st5" x1="1024.3" y1="676.7" x2="1053.7" y2="676.7"/>
<path class="st6" d="M1016.4,887.5l-1.1-3.4l-2.9-2.1h-3.6l-2.9,2.1l-1.1,3.4l1.1,3.4l2.9,2.1h3.6l2.9-2.1L1016.4,887.5z"/>
<path class="st6" d="M1224.4,853.5l-1.1-3.4l-2.9-2.1h-3.6l-2.9,2.1l-1.1,3.4l1.1,3.4l2.9,2.1h3.6l2.9-2.1L1224.4,853.5z"/>
<path class="st6" d="M1201.4,820.5l-1.1-3.4l-2.9-2.1h-3.6l-2.9,2.1l-1.1,3.4l1.1,3.4l2.9,2.1h3.6l2.9-2.1L1201.4,820.5z"/>
<path class="st6" d="M1263.4,787.5l-1.1-3.4l-2.9-2.1h-3.6l-2.9,2.1l-1.1,3.4l1.1,3.4l2.9,2.1h3.6l2.9-2.1L1263.4,787.5z"/>
<path class="st6" d="M1226.4,753.5l-1.1-3.4l-2.9-2.1h-3.6l-2.9,2.1l-1.1,3.4l1.1,3.4l2.9,2.1h3.6l2.9-2.1L1226.4,753.5z"/>
<path class="st6" d="M1230.4,710.5l-1.1-3.4l-2.9-2.1h-3.6l-2.9,2.1l-1.1,3.4l1.1,3.4l2.9,2.1h3.6l2.9-2.1L1230.4,710.5z"/>
<path class="st6" d="M1043.4,676.5l-1.1-3.4l-2.9-2.1h-3.6l-2.9,2.1l-1.1,3.4l1.1,3.4l2.9,2.1h3.6l2.9-2.1L1043.4,676.5z"/>
<line class="st5" x1="1224.2" y1="710.1" x2="1037.9" y2="676.7"/>
<path class="st5" d="M1010.7,887.3l207.3-33.4l-22.6-33.4l62.1-33.4l-37.4-33.4"/>
<line class="st8" x1="1060.1" y1="887.3" x2="1096.6" y2="887.3"/>
<line class="st8" x1="1202.4" y1="853.9" x2="1350.3" y2="853.9"/>
<line class="st8" x1="1187.1" y1="820.4" x2="1329.1" y2="820.4"/>
<line class="st8" x1="1220.3" y1="787" x2="1376.3" y2="787"/>
<line class="st8" x1="1223.1" y1="753.6" x2="1390.3" y2="753.6"/>
<line class="st8" x1="1190" y1="710.1" x2="1299.8" y2="710.1"/>
<line class="st8" x1="1079.3" y1="676.7" x2="1120.4" y2="676.7"/>
<path class="st9" d="M1083.4,887.5l-1.1-3.4l-2.9-2.1h-3.6l-2.9,2.1l-1.1,3.4l1.1,3.4l2.9,2.1h3.6l2.9-2.1L1083.4,887.5z"/>
<path class="st9" d="M1276.4,853.5l-1.1-3.4l-2.9-2.1h-3.6l-2.9,2.1l-1.1,3.4l1.1,3.4l2.9,2.1h3.6l2.9-2.1L1276.4,853.5z"/>
<path class="st9" d="M1256.4,820.5l-1.1-3.4l-2.9-2.1h-3.6l-2.9,2.1l-1.1,3.4l1.1,3.4l2.9,2.1h3.6l2.9-2.1L1256.4,820.5z"/>
<path class="st9" d="M1296.4,787.5l-1.1-3.4l-2.9-2.1h-3.6l-2.9,2.1l-1.1,3.4l1.1,3.4l2.9,2.1h3.6l2.9-2.1L1296.4,787.5z"/>
<path class="st9" d="M1303.4,753.5l-1.1-3.4l-2.9-2.1h-3.6l-2.9,2.1l-1.1,3.4l1.1,3.4l2.9,2.1h3.6l2.9-2.1L1303.4,753.5z"/>
<path class="st9" d="M1247.4,710.5l-1.1-3.4l-2.9-2.1h-3.6l-2.9,2.1l-1.1,3.4l1.1,3.4l2.9,2.1h3.6l2.9-2.1L1247.4,710.5z"/>
<path class="st9" d="M1104.4,676.5l-1.1-3.4l-2.9-2.1h-3.6l-2.9,2.1l-1.1,3.4l1.1,3.4l2.9,2.1h3.6l2.9-2.1L1104.4,676.5z"/>
<line class="st8" x1="1241.2" y1="710.1" x2="1098.9" y2="676.7"/>
<path class="st8" d="M1077.5,887.3l192.9-33.4l-19.7-33.4l39.8-33.4l7.3-33.4"/>
<g transform="translate(500.5005,67.25)">
	<text transform="matrix(1 0 0 1 -144.5081 6.9966)" class="st3 st10">Change in Firing Rate (Spikes / s)</text>
</g>
<g transform="translate(500.5005,67.25)">
	<text transform="matrix(1 0 0 1 545.5956 13.7267)" class="st3 st10">Absolute Change in Firing Rate (Spikes / s)</text>
</g>
<text transform="matrix(1 0 0 1 773 970.9966)" class="st3 st11">ACC</text>
<g transform="translate(500.5005,347.25)">
	<text transform="matrix(1 0 0 1 -204.6954 13)" class="st3 st10">Normalized Change in Firing Rate (Difference Index)</text>
</g>
<g transform="translate(500.5005,347.25)">
	<text transform="matrix(1 0 0 1 485.4091 13)" class="st3 st10">Absolute Normalized Change in Firing Rate (Difference Index)</text>
</g>
<g transform="translate(500.5005,626.25)">
	<text transform="matrix(1 0 0 1 -213.9952 26.821)" class="st3 st10">Normalized Change in Firing Rate (Average Firing Rate)</text>
</g>
<g transform="translate(500.5005,626.25)">
	<text transform="matrix(1 0 0 1 476.1083 33.571)" class="st3 st10">Absolute Normalized Change in Firing Rate (Average Firing Rate)</text>
</g>
<text transform="matrix(1 0 0 1 454.3243 932.0352)" class="st3 st12">Stronger for Orientation Rule</text>
<text transform="matrix(1 0 0 1 310.9142 932.0352)" class="st3 st12">Stronger for Color Rule</text>
<g>
	<line x1="305.7" y1="928" x2="270.6" y2="928"/>
	<g>
		<line class="st13" x1="305.7" y1="928" x2="279.4" y2="928"/>
		<g>
			<polygon points="281.4,925.1 270.6,928 281.4,930.9 			"/>
		</g>
	</g>
</g>
<g>
	<line x1="626.3" y1="928" x2="661.4" y2="928"/>
	<g>
		<line class="st13" x1="626.3" y1="928" x2="652.6" y2="928"/>
		<g>
			<polygon points="650.6,930.9 661.4,928 650.6,925.1 			"/>
		</g>
	</g>
</g>
<text transform="matrix(1 0 0 1 63 74.2466)" class="st3 st11">a</text>
<text transform="matrix(1 0 0 1 773 74.2466)" class="st3 st11">b</text>
</svg>
