<?xml version="1.0" encoding="utf-8"?>
<!-- Generator: Adobe Illustrator 19.2.1, SVG Export Plug-In . SVG Version: 6.00 Build 0)  -->
<svg version="1.1" id="Layer_1" xmlns="http://www.w3.org/2000/svg" xmlns:xlink="http://www.w3.org/1999/xlink" x="0px" y="0px"
	 viewBox="0 0 1600 888" style="enable-background:new 0 0 1600 888;" xml:space="preserve">
<style type="text/css">
	.st0{fill:none;stroke:#000000;stroke-width:1.3333;stroke-linecap:square;stroke-miterlimit:10;}
	.st1{fill:none;stroke:#66C2A5;stroke-linecap:square;stroke-miterlimit:10;}
	.st2{fill:none;stroke:#7570B3;stroke-linecap:square;stroke-miterlimit:10;}
	.st3{fill:#212121;}
	.st4{font-family:'ArialMT';}
	.st5{font-size:13px;}
	.st6{fill:none;stroke:#262626;stroke-linecap:square;stroke-miterlimit:10;}
	.st7{opacity:0.7;}
	.st8{fill:#66C2A5;}
	.st9{fill:#7570B3;}
	.st10{font-family:'MyriadPro-Regular';}
	.st11{font-size:36px;}
	.st12{fill:none;}
	.st13{fill:none;stroke:#000000;stroke-width:2;stroke-miterlimit:10;}
</style>
<g>
	<line class="st0" x1="1157" y1="731" x2="1157" y2="169"/>
	<line class="st0" x1="876" y1="450" x2="1438" y2="450"/>
	<line class="st1" x1="876" y1="475.4" x2="1438" y2="415.7"/>
</g>
<line class="st2" x1="876" y1="564.8" x2="1438" y2="357.8"/>
<line class="st1" x1="218" y1="505.6" x2="781" y2="403.7"/>
<line class="st0" x1="499.5" y1="731.5" x2="499.5" y2="168.5"/>
<line class="st0" x1="218" y1="450" x2="781" y2="450"/>
<g transform="translate(499.5003,755.1667)">
	<text transform="matrix(1 0 0 1 -38 16)" class="st3 st4 st5">Repetition1</text>
</g>
<line class="st6" x1="218" y1="731.5" x2="781" y2="731.5"/>
<g transform="translate(218,736.8334)">
	<text transform="matrix(1 0 0 1 -6 14)" class="st3 st4 st5">-1</text>
</g>
<g transform="translate(274.3,736.8334)">
	<text transform="matrix(1 0 0 1 -11.5 14)" class="st3 st4 st5">-0.8</text>
</g>
<g transform="translate(330.6,736.8334)">
	<text transform="matrix(1 0 0 1 -11.5 14)" class="st3 st4 st5">-0.6</text>
</g>
<g transform="translate(386.9,736.8334)">
	<text transform="matrix(1 0 0 1 -11.5 14)" class="st3 st4 st5">-0.4</text>
</g>
<g transform="translate(443.2,736.8334)">
	<text transform="matrix(1 0 0 1 -11.5 14)" class="st3 st4 st5">-0.2</text>
</g>
<g transform="translate(499.5,736.8334)">
	<text transform="matrix(1 0 0 1 -4 14)" class="st3 st4 st5">0</text>
</g>
<g transform="translate(555.8,736.8334)">
	<text transform="matrix(1 0 0 1 -9.5 14)" class="st3 st4 st5">0.2</text>
</g>
<g transform="translate(612.1,736.8334)">
	<text transform="matrix(1 0 0 1 -9.5 14)" class="st3 st4 st5">0.4</text>
</g>
<g transform="translate(668.4,736.8334)">
	<text transform="matrix(1 0 0 1 -9.5 14)" class="st3 st4 st5">0.6</text>
</g>
<g transform="translate(724.7,736.8334)">
	<text transform="matrix(1 0 0 1 -9.5 14)" class="st3 st4 st5">0.8</text>
</g>
<g transform="translate(781,736.8334)">
	<text transform="matrix(1 0 0 1 -4 14)" class="st3 st4 st5">1</text>
</g>
<g transform="translate(185.6667,449.9997) rotate(-90)">
	<text transform="matrix(1 0 0 1 -48.0003 -4)" class="st3 st4 st5">Previous Error</text>
</g>
<line class="st6" x1="218" y1="731.5" x2="218" y2="168.5"/>
<g transform="translate(212.6667,731.5)">
	<text transform="matrix(1 0 0 1 -12 5.5)" class="st3 st4 st5">-1</text>
</g>
<g transform="translate(212.6667,675.2)">
	<text transform="matrix(1 0 0 1 -23 5.5)" class="st3 st4 st5">-0.8</text>
</g>
<g transform="translate(212.6667,618.9)">
	<text transform="matrix(1 0 0 1 -23 5.5)" class="st3 st4 st5">-0.6</text>
</g>
<g transform="translate(212.6667,562.6)">
	<text transform="matrix(1 0 0 1 -23 5.5)" class="st3 st4 st5">-0.4</text>
</g>
<g transform="translate(212.6667,506.3)">
	<text transform="matrix(1 0 0 1 -23 5.5)" class="st3 st4 st5">-0.2</text>
</g>
<g transform="translate(212.6667,450)">
	<text transform="matrix(1 0 0 1 -8 5.5)" class="st3 st4 st5">0</text>
</g>
<g transform="translate(212.6667,393.7)">
	<text transform="matrix(1 0 0 1 -19 5.5)" class="st3 st4 st5">0.2</text>
</g>
<g transform="translate(212.6667,337.4)">
	<text transform="matrix(1 0 0 1 -19 5.5)" class="st3 st4 st5">0.4</text>
</g>
<g transform="translate(212.6667,281.1)">
	<text transform="matrix(1 0 0 1 -19 5.5)" class="st3 st4 st5">0.6</text>
</g>
<g transform="translate(212.6667,224.8)">
	<text transform="matrix(1 0 0 1 -19 5.5)" class="st3 st4 st5">0.8</text>
</g>
<g transform="translate(212.6667,168.5)">
	<text transform="matrix(1 0 0 1 -8 5.5)" class="st3 st4 st5">1</text>
</g>
<g class="st7">
	<path class="st8" d="M513.2,431.5l-1.1-2.6l-2.6-1.1l-2.6,1.1l-1.1,2.6l1.1,2.6l2.6,1.1l2.6-1.1L513.2,431.5z"/>
	<path class="st8" d="M314,432.5l-1-2.5l-2.5-1l-2.5,1l-1,2.5l1,2.5l2.5,1l2.5-1L314,432.5z"/>
	<path class="st8" d="M499.8,445.5l-1-3.1l-2.7-1.9h-3.3l-2.7,1.9l-1,3.1l1,3.1l2.7,1.9h3.3l2.7-1.9L499.8,445.5z"/>
	<path class="st8" d="M524.1,401.5l-1.1-3.3l-2.8-2h-3.4l-2.8,2l-1.1,3.3l1.1,3.3l2.8,2h3.4l2.8-2L524.1,401.5z"/>
	<path class="st8" d="M536.2,421.5l-1.1-3.3l-2.8-2.1h-3.5l-2.8,2.1l-1.1,3.3l1.1,3.3l2.8,2.1h3.5l2.8-2.1L536.2,421.5z"/>
	<path class="st8" d="M524.3,485.5l-0.9-2.8L521,481H518l-2.4,1.7l-0.9,2.8l0.9,2.8l2.4,1.7h2.9l2.4-1.7L524.3,485.5z"/>
	<path class="st8" d="M473.1,473.5l-0.9-2.7l-2.3-1.7h-2.8l-2.3,1.7l-0.9,2.7l0.9,2.7l2.3,1.7h2.8l2.3-1.7L473.1,473.5z"/>
	<path class="st8" d="M531.6,384.5l-1.2-2.9l-2.9-1.2l-2.9,1.2l-1.2,2.9l1.2,2.9l2.9,1.2l2.9-1.2L531.6,384.5z"/>
	<path class="st8" d="M497.7,432.5l-1-3.1l-2.6-1.9h-3.2l-2.6,1.9l-1,3.1l1,3.1l2.6,1.9h3.2l2.6-1.9L497.7,432.5z"/>
	<path class="st8" d="M489.3,407.5l-0.9-2.8l-2.4-1.8h-3l-2.4,1.8l-0.9,2.8l0.9,2.8l2.4,1.8h3l2.4-1.8L489.3,407.5z"/>
	<path class="st8" d="M497.8,453.5l-0.9-3.2l-2.3-2.3l-3.2-0.9l-3.2,0.9l-2.3,2.3l-0.9,3.2l0.9,3.2l2.3,2.3l3.2,0.9l3.2-0.9l2.3-2.3
		L497.8,453.5z"/>
	<path class="st8" d="M529.5,441.5l-1.2-2.8l-2.8-1.2l-2.8,1.2l-1.2,2.8l1.2,2.8l2.8,1.2l2.8-1.2L529.5,441.5z"/>
	<path class="st8" d="M533.5,452.5l-1.1-3.5l-3-2.2h-3.7l-3,2.2l-1.1,3.5l1.1,3.5l3,2.2h3.7l3-2.2L533.5,452.5z"/>
	<path class="st8" d="M515.4,450.5l-0.9-3.5l-2.5-2.5l-3.5-0.9l-3.5,0.9l-2.5,2.5l-0.9,3.5l0.9,3.5l2.5,2.5l3.5,0.9l3.5-0.9l2.5-2.5
		L515.4,450.5z"/>
	<path class="st8" d="M544.7,446.5l-0.8-3.1l-2.3-2.3l-3.1-0.8l-3.1,0.8l-2.3,2.3l-0.8,3.1l0.8,3.1l2.3,2.3l3.1,0.8l3.1-0.8l2.3-2.3
		L544.7,446.5z"/>
	<path class="st8" d="M485.1,436.5l-0.9-3.3l-2.4-2.4l-3.3-0.9l-3.3,0.9l-2.4,2.4l-0.9,3.3l0.9,3.3l2.4,2.4l3.3,0.9l3.3-0.9l2.4-2.4
		L485.1,436.5z"/>
	<path class="st8" d="M540.2,506.5l-1.1-2.6l-2.6-1.1l-2.6,1.1l-1.1,2.6l1.1,2.6l2.6,1.1l2.6-1.1L540.2,506.5z"/>
	<path class="st8" d="M471.2,426.5l-1.1-3.3l-2.8-2.1h-3.5l-2.8,2.1l-1.1,3.3l1.1,3.3l2.8,2.1h3.5l2.8-2.1L471.2,426.5z"/>
	<path class="st8" d="M414.1,466.5l-1.1-2.6l-2.6-1.1l-2.6,1.1l-1.1,2.6l1.1,2.6l2.6,1.1l2.6-1.1L414.1,466.5z"/>
	<path class="st8" d="M478,476.5l-0.9-2.6l-2.2-1.6h-2.8l-2.2,1.6l-0.9,2.6l0.9,2.6l2.2,1.6h2.8l2.2-1.6L478,476.5z"/>
	<path class="st8" d="M440.8,457.5L440,455l-2.2-1.6h-2.7L433,455l-0.8,2.5l0.8,2.5l2.2,1.6h2.7l2.2-1.6L440.8,457.5z"/>
	<path class="st8" d="M468.1,453.5l-0.9-2.7l-2.3-1.7h-2.8l-2.3,1.7l-0.9,2.7l0.9,2.7l2.3,1.7h2.8l2.3-1.7L468.1,453.5z"/>
	<path class="st8" d="M467.9,421.5l-1-3.2l-2.7-2h-3.4l-2.7,2l-1,3.2l1,3.2l2.7,2h3.4l2.7-2L467.9,421.5z"/>
	<path class="st8" d="M491.4,447.5l-1.1-3.5l-2.9-2.1h-3.6l-2.9,2.1l-1.1,3.5l1.1,3.5l2.9,2.1h3.6l2.9-2.1L491.4,447.5z"/>
	<path class="st8" d="M498.2,463.5l-0.9-2.8L495,459H492l-2.3,1.7l-0.9,2.8l0.9,2.8l2.3,1.7h2.9l2.3-1.7L498.2,463.5z"/>
	<path class="st8" d="M551.3,482.5l-1.1-2.7l-2.7-1.1l-2.7,1.1l-1.1,2.7l1.1,2.7l2.7,1.1l2.7-1.1L551.3,482.5z"/>
	<path class="st8" d="M493.2,438.5l-1.1-3.3l-2.8-2.1h-3.5l-2.8,2.1l-1.1,3.3l1.1,3.3l2.8,2.1h3.5l2.8-2.1L493.2,438.5z"/>
	<path class="st8" d="M557.1,418.5l-1-2.5l-2.5-1l-2.5,1l-1,2.5l1,2.5l2.5,1l2.5-1L557.1,418.5z"/>
	<path class="st8" d="M399.1,399.5l-1-2.5l-2.5-1l-2.5,1l-1,2.5l1,2.5l2.5,1l2.5-1L399.1,399.5z"/>
	<path class="st8" d="M536.8,514.5l-0.8-2.5l-2.1-1.5h-2.6l-2.1,1.5l-0.8,2.5l0.8,2.5l2.1,1.5h2.6l2.1-1.5L536.8,514.5z"/>
	<path class="st8" d="M707.8,446.5l-1-2.3l-2.3-1l-2.3,1l-1,2.3l1,2.3l2.3,1l2.3-1L707.8,446.5z"/>
	<path class="st8" d="M369.1,300.5l-1-2.5l-2.5-1l-2.5,1l-1,2.5l1,2.5l2.5,1l2.5-1L369.1,300.5z"/>
	<path class="st8" d="M639.4,474.5l-1.1-2.8l-2.8-1.1l-2.8,1.1l-1.1,2.8l1.1,2.8l2.8,1.1l2.8-1.1L639.4,474.5z"/>
	<path class="st8" d="M491.4,404.5l-0.9-2.9l-2.4-1.8h-3l-2.4,1.8l-0.9,2.9l0.9,2.9l2.4,1.8h3l2.4-1.8L491.4,404.5z"/>
	<path class="st8" d="M491.2,431.5l-1.1-2.6l-2.6-1.1l-2.6,1.1l-1.1,2.6l1.1,2.6l2.6,1.1l2.6-1.1L491.2,431.5z"/>
	<path class="st8" d="M506.8,486.5L506,484l-2.1-1.6h-2.6L499,484l-0.8,2.5l0.8,2.5l2.1,1.6h2.6l2.1-1.6L506.8,486.5z"/>
	<path class="st8" d="M527.4,447.5l-0.9-2.9l-2.4-1.8h-3l-2.4,1.8l-0.9,2.9l0.9,2.9l2.4,1.8h3l2.4-1.8L527.4,447.5z"/>
	<path class="st8" d="M504.8,478.5l-0.8-3.1l-2.3-2.3l-3.1-0.8l-3.1,0.8l-2.3,2.3l-0.8,3.1l0.8,3.1l2.3,2.3l3.1,0.8l3.1-0.8l2.3-2.3
		L504.8,478.5z"/>
	<path class="st8" d="M515.8,410.5l-1-3.1l-2.7-1.9h-3.3l-2.7,1.9l-1,3.1l1,3.1l2.7,1.9h3.3l2.7-1.9L515.8,410.5z"/>
	<path class="st8" d="M469.1,475.5l-0.9-2.7l-2.3-1.7h-2.8l-2.3,1.7l-0.9,2.7l0.9,2.7l2.3,1.7h2.8l2.3-1.7L469.1,475.5z"/>
	<path class="st8" d="M444.4,471.5l-1.1-2.8l-2.8-1.1l-2.8,1.1l-1.1,2.8l1.1,2.8l2.8,1.1l2.8-1.1L444.4,471.5z"/>
	<path class="st8" d="M526.3,409.5l-1.1-2.7l-2.7-1.1l-2.7,1.1l-1.1,2.7l1.1,2.7l2.7,1.1l2.7-1.1L526.3,409.5z"/>
	<path class="st8" d="M482.9,442.5l-0.8-2.6l-2.2-1.6h-2.7l-2.2,1.6l-0.8,2.6l0.8,2.6l2.2,1.6h2.7l2.2-1.6L482.9,442.5z"/>
	<path class="st8" d="M491.3,474.5l-1.1-3.4l-2.9-2.1h-3.6l-2.9,2.1l-1.1,3.4l1.1,3.4l2.9,2.1h3.6l2.9-2.1L491.3,474.5z"/>
	<path class="st8" d="M488.7,442.5l-1.2-3.6l-3.1-2.2h-3.8l-3.1,2.2l-1.2,3.6l1.2,3.6l3.1,2.2h3.8l3.1-2.2L488.7,442.5z"/>
	<path class="st8" d="M480.5,466.5l-0.9-2.1l-2.1-0.9l-2.1,0.9l-0.9,2.1l0.9,2.1l2.1,0.9l2.1-0.9L480.5,466.5z"/>
	<path class="st8" d="M518.6,486.5l-1.2-2.9l-2.9-1.2l-2.9,1.2l-1.2,2.9l1.2,2.9l2.9,1.2l2.9-1.2L518.6,486.5z"/>
	<path class="st8" d="M513.2,436.5l-0.9-3.3l-2.4-2.4l-3.3-0.9l-3.3,0.9l-2.4,2.4l-0.9,3.3l0.9,3.3l2.4,2.4l3.3,0.9l3.3-0.9l2.4-2.4
		L513.2,436.5z"/>
	<path class="st8" d="M519.4,483.5l-0.9-2.9l-2.5-1.8h-3l-2.5,1.8l-0.9,2.9l0.9,2.9l2.5,1.8h3l2.5-1.8L519.4,483.5z"/>
	<path class="st8" d="M527.6,432.5l-1.2-3.6l-3-2.2h-3.8l-3,2.2l-1.2,3.6l1.2,3.6l3,2.2h3.8l3-2.2L527.6,432.5z"/>
	<path class="st8" d="M470.1,440.5l-1.1-3.3l-2.8-2h-3.4l-2.8,2l-1.1,3.3l1.1,3.3l2.8,2h3.4l2.8-2L470.1,440.5z"/>
	<path class="st8" d="M500.1,431.5l-0.9-2.7l-2.3-1.7h-2.8l-2.3,1.7l-0.9,2.7l0.9,2.7l2.3,1.7h2.8l2.3-1.7L500.1,431.5z"/>
	<path class="st8" d="M507.8,469.5L507,467l-2.1-1.6h-2.6L500,467l-0.8,2.5l0.8,2.5l2.1,1.6h2.6l2.1-1.6L507.8,469.5z"/>
	<path class="st8" d="M504.1,449.5l-1.1-3.3l-2.8-2h-3.4l-2.8,2l-1.1,3.3l1.1,3.3l2.8,2h3.4l2.8-2L504.1,449.5z"/>
	<path class="st8" d="M524.5,461.5l-1-3l-2.5-1.8h-3.1l-2.5,1.8l-1,3l1,3l2.5,1.8h3.1l2.5-1.8L524.5,461.5z"/>
	<path class="st8" d="M420.8,442.5l-0.8-2.6l-2.2-1.6h-2.7l-2.2,1.6l-0.8,2.6l0.8,2.6l2.2,1.6h2.7l2.2-1.6L420.8,442.5z"/>
	<path class="st8" d="M508.8,456.5l-0.8-2.5l-2.1-1.5h-2.6l-2.1,1.5l-0.8,2.5l0.8,2.5l2.1,1.5h2.6l2.1-1.5L508.8,456.5z"/>
	<path class="st8" d="M517.8,477.5l-0.8-3.1l-2.3-2.3l-3.1-0.8l-3.1,0.8l-2.3,2.3l-0.8,3.1l0.8,3.1l2.3,2.3l3.1,0.8l3.1-0.8l2.3-2.3
		L517.8,477.5z"/>
	<path class="st8" d="M490.5,468.5l-1.1-3.5l-3-2.2h-3.7l-3,2.2l-1.1,3.5l1.1,3.5l3,2.2h3.7l3-2.2L490.5,468.5z"/>
	<path class="st8" d="M505.3,429.5l-0.9-2.8l-2.4-1.7h-3l-2.4,1.7l-0.9,2.8l0.9,2.8l2.4,1.7h3l2.4-1.7L505.3,429.5z"/>
	<path class="st8" d="M474,432.5l-0.9-3.3l-2.4-2.4l-3.3-0.9l-3.3,0.9l-2.4,2.4l-0.9,3.3l0.9,3.3l2.4,2.4l3.3,0.9l3.3-0.9l2.4-2.4
		L474,432.5z"/>
	<path class="st8" d="M559.6,444.5l-1.2-3.6l-3.1-2.2h-3.8l-3.1,2.2l-1.2,3.6l1.2,3.6l3.1,2.2h3.8l3.1-2.2L559.6,444.5z"/>
	<path class="st8" d="M461.2,445.5l-1.1-3.4l-2.9-2.1h-3.5l-2.9,2.1l-1.1,3.4l1.1,3.4l2.9,2.1h3.5l2.9-2.1L461.2,445.5z"/>
	<path class="st8" d="M486.4,446.5l-1.1-3.5l-3-2.2h-3.7l-3,2.2l-1.1,3.5l1.1,3.5l3,2.2h3.7l3-2.2L486.4,446.5z"/>
	<path class="st8" d="M528.2,454.5l-1.1-3.4l-2.9-2.1h-3.5l-2.9,2.1l-1.1,3.4l1.1,3.4l2.9,2.1h3.5l2.9-2.1L528.2,454.5z"/>
	<path class="st8" d="M465.4,464.5l-1.1-3.5l-3-2.2h-3.7l-3,2.2l-1.1,3.5l1.1,3.5l3,2.2h3.7l3-2.2L465.4,464.5z"/>
	<path class="st8" d="M508.8,471.5l-0.8-3.1l-2.3-2.3l-3.1-0.8l-3.1,0.8l-2.3,2.3l-0.8,3.1l0.8,3.1l2.3,2.3l3.1,0.8l3.1-0.8l2.3-2.3
		L508.8,471.5z"/>
	<path class="st8" d="M517.8,478.5l-1-3.1l-2.6-1.9h-3.3l-2.6,1.9l-1,3.1l1,3.1l2.6,1.9h3.3l2.6-1.9L517.8,478.5z"/>
	<path class="st8" d="M469.4,450.5l-0.9-2.9l-2.4-1.8h-3l-2.4,1.8l-0.9,2.9l0.9,2.9l2.4,1.8h3l2.4-1.8L469.4,450.5z"/>
	<path class="st8" d="M444.2,488.5l-1.1-2.6l-2.6-1.1l-2.6,1.1l-1.1,2.6l1.1,2.6l2.6,1.1l2.6-1.1L444.2,488.5z"/>
	<path class="st8" d="M500.1,447.5l-0.9-2.7l-2.3-1.7h-2.8l-2.3,1.7l-0.9,2.7l0.9,2.7l2.3,1.7h2.8l2.3-1.7L500.1,447.5z"/>
	<path class="st8" d="M467,434.5l-1.1-3.2l-2.8-2h-3.4l-2.8,2l-1.1,3.2l1.1,3.2l2.8,2h3.4l2.8-2L467,434.5z"/>
	<path class="st8" d="M525.3,489.5l-1.1-3.4l-2.9-2.1h-3.6l-2.9,2.1l-1.1,3.4l1.1,3.4l2.9,2.1h3.6l2.9-2.1L525.3,489.5z"/>
	<path class="st8" d="M532.6,441.5l-1.2-3.6l-3.1-2.2h-3.8l-3.1,2.2l-1.2,3.6l1.2,3.6l3.1,2.2h3.8l3.1-2.2L532.6,441.5z"/>
	<path class="st8" d="M491.1,396.5l-0.9-3.3l-2.4-2.4l-3.3-0.9l-3.3,0.9l-2.4,2.4l-0.9,3.3l0.9,3.3l2.4,2.4l3.3,0.9l3.3-0.9l2.4-2.4
		L491.1,396.5z"/>
	<path class="st8" d="M536.4,478.5l-1.1-2.7l-2.7-1.1l-2.7,1.1l-1.1,2.7l1.1,2.7l2.7,1.1l2.7-1.1L536.4,478.5z"/>
	<path class="st8" d="M509.5,455.5l-1.2-3.5l-3-2.2h-3.7l-3,2.2l-1.2,3.5l1.2,3.5l3,2.2h3.7l3-2.2L509.5,455.5z"/>
	<path class="st8" d="M503.8,533.5l-1-2.4l-2.4-1l-2.4,1l-1,2.4l1,2.4l2.4,1l2.4-1L503.8,533.5z"/>
	<path class="st8" d="M475.7,430.5l-1-3.1l-2.6-1.9h-3.2l-2.6,1.9l-1,3.1l1,3.1l2.6,1.9h3.2l2.6-1.9L475.7,430.5z"/>
	<path class="st8" d="M470.1,493.5l-0.9-2.7l-2.3-1.7h-2.9l-2.3,1.7l-0.9,2.7l0.9,2.7l2.3,1.7h2.9l2.3-1.7L470.1,493.5z"/>
	<path class="st8" d="M567.4,458.5l-0.9-2.9l-2.4-1.8h-3l-2.4,1.8l-0.9,2.9l0.9,2.9l2.4,1.8h3l2.4-1.8L567.4,458.5z"/>
	<path class="st8" d="M525.5,480.5l-0.9-2.9l-2.5-1.8H519l-2.5,1.8l-0.9,2.9l0.9,2.9l2.5,1.8h3.1l2.5-1.8L525.5,480.5z"/>
	<path class="st8" d="M513.9,428.5l-1-3.2l-2.7-2h-3.3l-2.7,2l-1,3.2l1,3.2l2.7,2h3.3l2.7-2L513.9,428.5z"/>
	<path class="st8" d="M485.7,446.5l-1-3.1l-2.6-1.9h-3.2l-2.6,1.9l-1,3.1l1,3.1l2.6,1.9h3.2l2.6-1.9L485.7,446.5z"/>
	<path class="st8" d="M494.5,405.5l-0.9-2.1l-2.1-0.9l-2.1,0.9l-0.9,2.1l0.9,2.1l2.1,0.9l2.1-0.9L494.5,405.5z"/>
	<path class="st8" d="M521.7,446.5l-0.8-3.1l-2.3-2.3l-3.1-0.8l-3.1,0.8l-2.3,2.3l-0.8,3.1l0.8,3.1l2.3,2.3l3.1,0.8l3.1-0.8l2.3-2.3
		L521.7,446.5z"/>
	<path class="st8" d="M492,433.5l-0.9-2.7l-2.3-1.6h-2.8l-2.3,1.6l-0.9,2.7l0.9,2.7l2.3,1.6h2.8l2.3-1.6L492,433.5z"/>
	<path class="st8" d="M510.8,427.5l-1-3.1l-2.7-1.9h-3.3l-2.7,1.9l-1,3.1l1,3.1l2.7,1.9h3.3l2.7-1.9L510.8,427.5z"/>
	<path class="st8" d="M483.3,430.5l-0.9-2.8l-2.4-1.8h-3l-2.4,1.8l-0.9,2.8l0.9,2.8l2.4,1.8h3l2.4-1.8L483.3,430.5z"/>
	<path class="st8" d="M515.3,520.5l-0.9-2.8l-2.4-1.7h-3l-2.4,1.7l-0.9,2.8l0.9,2.8l2.4,1.7h3l2.4-1.7L515.3,520.5z"/>
	<path class="st8" d="M479.5,430.5l-1.1-3.5l-3-2.2h-3.7l-3,2.2l-1.1,3.5l1.1,3.5l3,2.2h3.7l3-2.2L479.5,430.5z"/>
	<path class="st8" d="M525.8,474.5l-0.8-3.2l-2.3-2.3l-3.2-0.8l-3.2,0.8l-2.3,2.3l-0.8,3.2l0.8,3.2l2.3,2.3l3.2,0.8l3.2-0.8l2.3-2.3
		L525.8,474.5z"/>
	<path class="st8" d="M475.8,404.5l-1-3.1l-2.6-1.9h-3.3l-2.6,1.9l-1,3.1l1,3.1l2.6,1.9h3.3l2.6-1.9L475.8,404.5z"/>
	<path class="st8" d="M498.7,378.5l-1-3l-2.6-1.9h-3.2l-2.6,1.9l-1,3l1,3l2.6,1.9h3.2l2.6-1.9L498.7,378.5z"/>
	<path class="st8" d="M509.3,449.5l-0.9-2.8l-2.4-1.7h-3l-2.4,1.7l-0.9,2.8l0.9,2.8l2.4,1.7h3l2.4-1.7L509.3,449.5z"/>
	<path class="st8" d="M442.5,442.5l-1.2-2.9l-2.9-1.2l-2.9,1.2l-1.2,2.9l1.2,2.9l2.9,1.2l2.9-1.2L442.5,442.5z"/>
	<path class="st8" d="M507.1,441.5l-1.1-2.6l-2.6-1.1l-2.6,1.1l-1.1,2.6l1.1,2.6l2.6,1.1l2.6-1.1L507.1,441.5z"/>
	<path class="st8" d="M479.1,464.5l-1.1-3.3l-2.8-2h-3.5l-2.8,2l-1.1,3.3l1.1,3.3l2.8,2h3.5l2.8-2L479.1,464.5z"/>
	<path class="st8" d="M517,436.5l-1.1-3.2l-2.8-2h-3.4l-2.8,2l-1.1,3.2l1.1,3.2l2.8,2h3.4l2.8-2L517,436.5z"/>
	<path class="st8" d="M509.4,471.5l-0.9-3.5l-2.5-2.5l-3.5-0.9l-3.5,0.9l-2.5,2.5l-0.9,3.5l0.9,3.5l2.5,2.5l3.5,0.9l3.5-0.9l2.5-2.5
		L509.4,471.5z"/>
	<path class="st8" d="M503.2,451.5l-0.9-3.4l-2.5-2.5l-3.4-0.9l-3.4,0.9l-2.5,2.5l-0.9,3.4l0.9,3.4l2.5,2.5l3.4,0.9l3.4-0.9l2.5-2.5
		L503.2,451.5z"/>
	<path class="st8" d="M505.8,453.5l-1-3.1l-2.6-1.9h-3.3l-2.6,1.9l-1,3.1l1,3.1l2.6,1.9h3.3l2.6-1.9L505.8,453.5z"/>
	<path class="st8" d="M511.4,455.5l-1.1-3.5l-2.9-2.1h-3.6l-2.9,2.1l-1.1,3.5l1.1,3.5l2.9,2.1h3.6l2.9-2.1L511.4,455.5z"/>
	<path class="st8" d="M535.6,441.5l-1-3l-2.5-1.8h-3.1l-2.5,1.8l-1,3l1,3l2.5,1.8h3.1l2.5-1.8L535.6,441.5z"/>
	<path class="st8" d="M514.6,459.5l-1.2-3.6l-3.1-2.2h-3.8l-3.1,2.2l-1.2,3.6l1.2,3.6l3.1,2.2h3.8l3.1-2.2L514.6,459.5z"/>
	<path class="st8" d="M501.3,446.5l-1.1-3.4l-2.9-2.1h-3.6l-2.9,2.1l-1.1,3.4l1.1,3.4l2.9,2.1h3.6l2.9-2.1L501.3,446.5z"/>
	<path class="st8" d="M484,462.5l-1-3.2l-2.7-2h-3.4l-2.7,2l-1,3.2l1,3.2l2.7,2h3.4l2.7-2L484,462.5z"/>
	<path class="st8" d="M501.8,462.5l-1-3.1l-2.6-1.9h-3.2l-2.6,1.9l-1,3.1l1,3.1l2.6,1.9h3.2l2.6-1.9L501.8,462.5z"/>
	<path class="st8" d="M479.5,452.5l-0.9-2.1l-2.1-0.9l-2.1,0.9l-0.9,2.1l0.9,2.1l2.1,0.9l2.1-0.9L479.5,452.5z"/>
	<path class="st8" d="M492.8,449.5l-1-3.1l-2.7-1.9h-3.3l-2.7,1.9l-1,3.1l1,3.1l2.7,1.9h3.3l2.7-1.9L492.8,449.5z"/>
	<path class="st8" d="M487.4,490.5l-1.2-2.8l-2.8-1.2l-2.8,1.2l-1.2,2.8l1.2,2.8l2.8,1.2l2.8-1.2L487.4,490.5z"/>
</g>
<g transform="translate(781,403.7479)">
	<text transform="matrix(1 0 0 1 0 5.5)" class="st8 st4 st5">CC: 0.15</text>
</g>
<g class="st7">
	<path class="st9" d="M494.9,445.5l-0.9-3.2l-2.3-2.3l-3.2-0.9l-3.2,0.9l-2.3,2.3l-0.9,3.2l0.9,3.2l2.3,2.3l3.2,0.9l3.2-0.9l2.3-2.3
		L494.9,445.5z"/>
	<path class="st9" d="M496.1,448.5l-1-2.5l-2.5-1l-2.5,1l-1,2.5l1,2.5l2.5,1l2.5-1L496.1,448.5z"/>
	<path class="st9" d="M480.9,330.5l-0.8-2.6l-2.2-1.6h-2.7l-2.2,1.6l-0.8,2.6l0.8,2.6l2.2,1.6h2.7l2.2-1.6L480.9,330.5z"/>
	<path class="st9" d="M526.2,432.5l-0.9-2.8l-2.3-1.7h-2.9l-2.3,1.7l-0.9,2.8l0.9,2.8l2.3,1.7h2.9l2.3-1.7L526.2,432.5z"/>
	<path class="st9" d="M520,482.5l-0.9-3.3l-2.4-2.4l-3.3-0.9l-3.3,0.9l-2.4,2.4l-0.9,3.3l0.9,3.3l2.4,2.4l3.3,0.9l3.3-0.9l2.4-2.4
		L520,482.5z"/>
	<path class="st9" d="M480.8,456.5l-0.8-3.2l-2.3-2.3l-3.2-0.8l-3.2,0.8l-2.3,2.3l-0.8,3.2l0.8,3.2l2.3,2.3l3.2,0.8l3.2-0.8l2.3-2.3
		L480.8,456.5z"/>
	<path class="st9" d="M453.7,321.5l-0.8-2.5l-2.1-1.5h-2.6l-2.1,1.5l-0.8,2.5l0.8,2.5l2.1,1.5h2.6l2.1-1.5L453.7,321.5z"/>
	<path class="st9" d="M457.8,449.5l-1-2.4l-2.4-1l-2.4,1l-1,2.4l1,2.4l2.4,1l2.4-1L457.8,449.5z"/>
	<path class="st9" d="M457.6,362.5l-0.9-2.2l-2.2-0.9l-2.2,0.9l-0.9,2.2l0.9,2.2l2.2,0.9l2.2-0.9L457.6,362.5z"/>
	<path class="st9" d="M511.7,388.5l-0.8-2.5l-2.1-1.5h-2.6l-2.1,1.5l-0.8,2.5l0.8,2.5l2.1,1.5h2.6l2.1-1.5L511.7,388.5z"/>
	<path class="st9" d="M641.8,396.5L641,394l-2.2-1.6h-2.7L634,394l-0.8,2.5l0.8,2.5l2.2,1.6h2.7l2.2-1.6L641.8,396.5z"/>
	<path class="st9" d="M560.9,503.5l-1-2.4l-2.4-1l-2.4,1l-1,2.4l1,2.4l2.4,1l2.4-1L560.9,503.5z"/>
	<path class="st9" d="M486.1,409.5l-0.9-2.7l-2.3-1.7h-2.9l-2.3,1.7l-0.9,2.7l0.9,2.7l2.3,1.7h2.9l2.3-1.7L486.1,409.5z"/>
	<path class="st9" d="M434.8,454.5l-1-2.3l-2.3-1l-2.3,1l-1,2.3l1,2.3l2.3,1l2.3-1L434.8,454.5z"/>
	<path class="st9" d="M523.6,428.5l-1-3l-2.6-1.9h-3.2l-2.6,1.9l-1,3l1,3l2.6,1.9h3.2l2.6-1.9L523.6,428.5z"/>
	<path class="st9" d="M484.4,401.5l-0.9-2.9l-2.5-1.8h-3l-2.5,1.8l-0.9,2.9l0.9,2.9l2.5,1.8h3l2.5-1.8L484.4,401.5z"/>
	<path class="st9" d="M542.9,435.5l-1-2.4l-2.4-1l-2.4,1l-1,2.4l1,2.4l2.4,1l2.4-1L542.9,435.5z"/>
	<path class="st9" d="M499.7,398.5l-0.9-2.3l-2.3-0.9l-2.3,0.9l-0.9,2.3l0.9,2.3l2.3,0.9l2.3-0.9L499.7,398.5z"/>
	<path class="st9" d="M514.5,456.5l-1.2-2.8l-2.8-1.2l-2.8,1.2l-1.2,2.8l1.2,2.8l2.8,1.2l2.8-1.2L514.5,456.5z"/>
	<path class="st9" d="M502.3,407.5l-1.1-2.7l-2.7-1.1l-2.7,1.1l-1.1,2.7l1.1,2.7l2.7,1.1l2.7-1.1L502.3,407.5z"/>
	<path class="st9" d="M449.2,431.5l-0.9-2.8L446,427H443l-2.4,1.7l-0.9,2.8l0.9,2.8l2.4,1.7h2.9l2.4-1.7L449.2,431.5z"/>
	<path class="st9" d="M492.2,452.5l-1.1-2.6l-2.6-1.1l-2.6,1.1l-1.1,2.6l1.1,2.6l2.6,1.1l2.6-1.1L492.2,452.5z"/>
	<path class="st9" d="M526.4,470.5l-0.8-2l-2-0.8l-2,0.8l-0.8,2l0.8,2l2,0.8l2-0.8L526.4,470.5z"/>
	<path class="st9" d="M477.8,395.5l-1-2.3l-2.3-1l-2.3,1l-1,2.3l1,2.3l2.3,1l2.3-1L477.8,395.5z"/>
	<path class="st9" d="M463,464.5l-0.9-2.6l-2.3-1.6h-2.8l-2.3,1.6l-0.9,2.6l0.9,2.6l2.3,1.6h2.8l2.3-1.6L463,464.5z"/>
	<path class="st9" d="M529.2,490.5l-0.9-2.8l-2.3-1.7h-2.9l-2.3,1.7l-0.9,2.8l0.9,2.8l2.3,1.7h2.9l2.3-1.7L529.2,490.5z"/>
	<path class="st9" d="M561.1,420.5l-0.8-1.9l-1.9-0.8l-1.9,0.8l-0.8,1.9l0.8,1.9l1.9,0.8l1.9-0.8L561.1,420.5z"/>
	<path class="st9" d="M506.3,424.5l-0.8-2l-2-0.8l-2,0.8l-0.8,2l0.8,2l2,0.8l2-0.8L506.3,424.5z"/>
	<path class="st9" d="M459.7,467.5l-0.9-2.2l-2.2-0.9l-2.2,0.9l-0.9,2.2l0.9,2.2l2.2,0.9l2.2-0.9L459.7,467.5z"/>
	<path class="st9" d="M516.4,441.5l-0.9-2.1l-2.1-0.9l-2.1,0.9l-0.9,2.1l0.9,2.1l2.1,0.9l2.1-0.9L516.4,441.5z"/>
	<path class="st9" d="M578.7,434.5l-0.9-2.2l-2.2-0.9l-2.2,0.9l-0.9,2.2l0.9,2.2l2.2,0.9l2.2-0.9L578.7,434.5z"/>
	<path class="st9" d="M484.8,446.5l-1-3.1l-2.7-1.9h-3.3l-2.7,1.9l-1,3.1l1,3.1l2.7,1.9h3.3l2.7-1.9L484.8,446.5z"/>
	<path class="st9" d="M546.9,454.5l-0.8-2.6l-2.2-1.6h-2.7l-2.2,1.6l-0.8,2.6l0.8,2.6l2.2,1.6h2.7l2.2-1.6L546.9,454.5z"/>
	<path class="st9" d="M497,474.5l-1-2.4l-2.4-1l-2.4,1l-1,2.4l1,2.4l2.4,1l2.4-1L497,474.5z"/>
	<path class="st9" d="M475.5,426.5l-0.9-2.1l-2.1-0.9l-2.1,0.9l-0.9,2.1l0.9,2.1l2.1,0.9l2.1-0.9L475.5,426.5z"/>
	<path class="st9" d="M517.3,442.5l-1.1-3.4l-2.9-2.1h-3.6l-2.9,2.1l-1.1,3.4l1.1,3.4l2.9,2.1h3.6l2.9-2.1L517.3,442.5z"/>
	<path class="st9" d="M517.6,455.5l-1-3l-2.5-1.9h-3.1l-2.5,1.9l-1,3l1,3l2.5,1.9h3.1l2.5-1.9L517.6,455.5z"/>
	<path class="st9" d="M334.6,437.5l-0.9-2.2l-2.2-0.9l-2.2,0.9l-0.9,2.2l0.9,2.2l2.2,0.9l2.2-0.9L334.6,437.5z"/>
	<path class="st9" d="M406.8,443.5l-1-2.4l-2.4-1l-2.4,1l-1,2.4l1,2.4l2.4,1l2.4-1L406.8,443.5z"/>
	<path class="st9" d="M453.5,521.5l-0.9-2.1l-2.1-0.9l-2.1,0.9l-0.9,2.1l0.9,2.1l2.1,0.9l2.1-0.9L453.5,521.5z"/>
	<path class="st9" d="M446.3,502.5l-0.8-2l-2-0.8l-2,0.8l-0.8,2l0.8,2l2,0.8l2-0.8L446.3,502.5z"/>
	<path class="st9" d="M514.1,442.5l-1-2.5l-2.5-1l-2.5,1l-1,2.5l1,2.5l2.5,1l2.5-1L514.1,442.5z"/>
	<path class="st9" d="M497.2,458.5l-1.1-2.6l-2.6-1.1l-2.6,1.1l-1.1,2.6l1.1,2.6l2.6,1.1l2.6-1.1L497.2,458.5z"/>
	<path class="st9" d="M541.3,421.5l-0.9-2.8l-2.4-1.7h-3l-2.4,1.7l-0.9,2.8l0.9,2.8l2.4,1.7h3l2.4-1.7L541.3,421.5z"/>
	<path class="st9" d="M493.9,463.5l-0.8-2.6l-2.2-1.6h-2.7l-2.2,1.6l-0.8,2.6l0.8,2.6l2.2,1.6h2.7l2.2-1.6L493.9,463.5z"/>
	<path class="st9" d="M564.4,454.5l-1.1-2.7l-2.7-1.1l-2.7,1.1l-1.1,2.7l1.1,2.7l2.7,1.1l2.7-1.1L564.4,454.5z"/>
	<path class="st9" d="M463.1,431.5l-0.9-2.7l-2.3-1.7h-2.8l-2.3,1.7l-0.9,2.7l0.9,2.7l2.3,1.7h2.8l2.3-1.7L463.1,431.5z"/>
	<path class="st9" d="M525.4,445.5l-0.9-2.9l-2.5-1.8h-3l-2.5,1.8l-0.9,2.9l0.9,2.9l2.5,1.8h3l2.5-1.8L525.4,445.5z"/>
	<path class="st9" d="M536.9,411.5l-1-2.4l-2.4-1l-2.4,1l-1,2.4l1,2.4l2.4,1l2.4-1L536.9,411.5z"/>
	<path class="st9" d="M562.2,493.5l-0.8-1.9l-1.9-0.8l-1.9,0.8l-0.8,1.9l0.8,1.9l1.9,0.8l1.9-0.8L562.2,493.5z"/>
	<path class="st9" d="M451.7,529.5l-0.9-2.2l-2.2-0.9l-2.2,0.9l-0.9,2.2l0.9,2.2l2.2,0.9l2.2-0.9L451.7,529.5z"/>
	<path class="st9" d="M500.1,461.5l-0.9-2.7l-2.3-1.7h-2.8l-2.3,1.7l-0.9,2.7l0.9,2.7l2.3,1.7h2.8l2.3-1.7L500.1,461.5z"/>
	<path class="st9" d="M506.5,456.5l-1.2-2.8l-2.8-1.2l-2.8,1.2l-1.2,2.8l1.2,2.8l2.8,1.2l2.8-1.2L506.5,456.5z"/>
	<path class="st9" d="M524.9,463.5l-1-3.2l-2.7-2h-3.4l-2.7,2l-1,3.2l1,3.2l2.7,2h3.4l2.7-2L524.9,463.5z"/>
	<path class="st9" d="M521.3,435.5l-1.1-3.4l-2.9-2.1h-3.6l-2.9,2.1l-1.1,3.4l1.1,3.4l2.9,2.1h3.6l2.9-2.1L521.3,435.5z"/>
	<path class="st9" d="M514.6,453.5l-1.2-2.9l-2.9-1.2l-2.9,1.2l-1.2,2.9l1.2,2.9l2.9,1.2l2.9-1.2L514.6,453.5z"/>
	<path class="st9" d="M483.2,481.5l-0.9-2.7l-2.3-1.7h-2.9l-2.3,1.7l-0.9,2.7l0.9,2.7l2.3,1.7h2.9l2.3-1.7L483.2,481.5z"/>
	<path class="st9" d="M509.6,446.5l-1-3.6l-2.6-2.6l-3.6-1l-3.6,1l-2.6,2.6l-1,3.6l1,3.6l2.6,2.6l3.6,1l3.6-1l2.6-2.6L509.6,446.5z"
		/>
	<path class="st9" d="M540.3,432.5l-0.8-2l-2-0.8l-2,0.8l-0.8,2l0.8,2l2,0.8l2-0.8L540.3,432.5z"/>
	<path class="st9" d="M449.4,382.5l-0.9-2.1l-2.1-0.9l-2.1,0.9l-0.9,2.1l0.9,2.1l2.1,0.9l2.1-0.9L449.4,382.5z"/>
	<path class="st9" d="M474.2,391.5l-0.9-2.8L471,387H468l-2.4,1.7l-0.9,2.8l0.9,2.8l2.4,1.7h2.9l2.4-1.7L474.2,391.5z"/>
	<path class="st9" d="M463,461.5l-0.9-2.7l-2.3-1.6h-2.8l-2.3,1.6l-0.9,2.7l0.9,2.7l2.3,1.6h2.8l2.3-1.6L463,461.5z"/>
	<path class="st9" d="M512.2,480.5l-0.9-2.7l-2.3-1.7h-2.9l-2.3,1.7l-0.9,2.7l0.9,2.7l2.3,1.7h2.9l2.3-1.7L512.2,480.5z"/>
	<path class="st9" d="M513.4,462.5l-0.8-2.1l-2.1-0.8l-2.1,0.8l-0.8,2.1l0.8,2.1l2.1,0.8l2.1-0.8L513.4,462.5z"/>
	<path class="st9" d="M442.3,429.5l-0.8-2l-2-0.8l-2,0.8l-0.8,2l0.8,2l2,0.8l2-0.8L442.3,429.5z"/>
	<path class="st9" d="M531.5,391.5l-0.9-2.9l-2.5-1.8H525l-2.5,1.8l-0.9,2.9l0.9,2.9l2.5,1.8h3.1l2.5-1.8L531.5,391.5z"/>
	<path class="st9" d="M492.3,452.5l-1.1-2.7l-2.7-1.1l-2.7,1.1l-1.1,2.7l1.1,2.7l2.7,1.1l2.7-1.1L492.3,452.5z"/>
	<path class="st9" d="M465.5,386.5l-0.9-2.2l-2.2-0.9l-2.2,0.9l-0.9,2.2l0.9,2.2l2.2,0.9l2.2-0.9L465.5,386.5z"/>
	<path class="st9" d="M494.4,474.5l-0.9-2.9l-2.4-1.8h-3l-2.4,1.8l-0.9,2.9l0.9,2.9l2.4,1.8h3l2.4-1.8L494.4,474.5z"/>
	<path class="st9" d="M541.7,438.5l-1-2.3l-2.3-1l-2.3,1l-1,2.3l1,2.3l2.3,1l2.3-1L541.7,438.5z"/>
	<path class="st9" d="M518.1,467.5l-1-2.5l-2.5-1l-2.5,1l-1,2.5l1,2.5l2.5,1l2.5-1L518.1,467.5z"/>
	<path class="st9" d="M543.6,459.5l-0.9-2.2l-2.2-0.9l-2.2,0.9l-0.9,2.2l0.9,2.2l2.2,0.9l2.2-0.9L543.6,459.5z"/>
	<path class="st9" d="M500.5,436.5l-1-2.9l-2.5-1.8H494l-2.5,1.8l-1,2.9l1,2.9l2.5,1.8h3.1l2.5-1.8L500.5,436.5z"/>
	<path class="st9" d="M564.7,432.5l-1-3.1l-2.6-1.9h-3.2l-2.6,1.9l-1,3.1l1,3.1l2.6,1.9h3.2l2.6-1.9L564.7,432.5z"/>
	<path class="st9" d="M562.9,435.5l-1-2.4l-2.4-1l-2.4,1l-1,2.4l1,2.4l2.4,1l2.4-1L562.9,435.5z"/>
	<path class="st9" d="M539,461.5l-1-3.2l-2.7-2h-3.4l-2.7,2l-1,3.2l1,3.2l2.7,2h3.4l2.7-2L539,461.5z"/>
	<path class="st9" d="M483.1,481.5l-0.9-2.7l-2.3-1.7h-2.8l-2.3,1.7l-0.9,2.7l0.9,2.7l2.3,1.7h2.8l2.3-1.7L483.1,481.5z"/>
	<path class="st9" d="M505.2,471.5l-0.9-2.8L502,467H499l-2.4,1.7l-0.9,2.8l0.9,2.8l2.4,1.7h2.9l2.4-1.7L505.2,471.5z"/>
	<path class="st9" d="M478.6,446.5l-1-3l-2.6-1.9h-3.2l-2.6,1.9l-1,3l1,3l2.6,1.9h3.2l2.6-1.9L478.6,446.5z"/>
	<path class="st9" d="M446.3,482.5l-1.1-2.7l-2.7-1.1l-2.7,1.1l-1.1,2.7l1.1,2.7l2.7,1.1l2.7-1.1L446.3,482.5z"/>
	<path class="st9" d="M495.8,435.5l-1-3.1l-2.7-1.9h-3.3l-2.7,1.9l-1,3.1l1,3.1l2.7,1.9h3.3l2.7-1.9L495.8,435.5z"/>
	<path class="st9" d="M482.5,430.5l-1-3l-2.5-1.8h-3.1l-2.5,1.8l-1,3l1,3l2.5,1.8h3.1l2.5-1.8L482.5,430.5z"/>
	<path class="st9" d="M573,434.5l-1.1-3.3l-2.8-2h-3.4l-2.8,2l-1.1,3.3l1.1,3.3l2.8,2h3.4l2.8-2L573,434.5z"/>
	<path class="st9" d="M488.6,480.5l-1.2-2.9l-2.9-1.2l-2.9,1.2l-1.2,2.9l1.2,2.9l2.9,1.2l2.9-1.2L488.6,480.5z"/>
	<path class="st9" d="M531.5,452.5l-1-3l-2.5-1.8h-3.1l-2.5,1.8l-1,3l1,3l2.5,1.8h3.1l2.5-1.8L531.5,452.5z"/>
	<path class="st9" d="M519,441.5l-0.9-2.7l-2.3-1.6h-2.8l-2.3,1.6l-0.9,2.7l0.9,2.7l2.3,1.6h2.8l2.3-1.6L519,441.5z"/>
	<path class="st9" d="M524,404.5l-0.9-2.6l-2.2-1.6h-2.8l-2.2,1.6l-0.9,2.6l0.9,2.6l2.2,1.6h2.8l2.2-1.6L524,404.5z"/>
	<path class="st9" d="M481,473.5l-0.9-2.6l-2.2-1.6h-2.8l-2.2,1.6l-0.9,2.6l0.9,2.6l2.2,1.6h2.8l2.2-1.6L481,473.5z"/>
	<path class="st9" d="M533.8,436.5l-0.8-2.6l-2.2-1.6h-2.7l-2.2,1.6l-0.8,2.6l0.8,2.6l2.2,1.6h2.7l2.2-1.6L533.8,436.5z"/>
	<path class="st9" d="M519.1,453.5l-1-2.5l-2.5-1l-2.5,1l-1,2.5l1,2.5l2.5,1l2.5-1L519.1,453.5z"/>
	<path class="st9" d="M522.2,472.5l-0.9-2.7l-2.3-1.7h-2.9l-2.3,1.7l-0.9,2.7l0.9,2.7l2.3,1.7h2.9l2.3-1.7L522.2,472.5z"/>
	<path class="st9" d="M497.5,462.5l-1-2.9l-2.5-1.8H491l-2.5,1.8l-1,2.9l1,2.9l2.5,1.8h3.1l2.5-1.8L497.5,462.5z"/>
	<path class="st9" d="M523.2,438.5l-1.1-3.4l-2.9-2.1h-3.5l-2.9,2.1l-1.1,3.4l1.1,3.4l2.9,2.1h3.5l2.9-2.1L523.2,438.5z"/>
	<path class="st9" d="M487.3,515.5l-0.9-2.8l-2.4-1.8h-3l-2.4,1.8l-0.9,2.8l0.9,2.8l2.4,1.8h3l2.4-1.8L487.3,515.5z"/>
	<path class="st9" d="M498.4,432.5l-1.1-2.8l-2.8-1.1l-2.8,1.1l-1.1,2.8l1.1,2.8l2.8,1.1l2.8-1.1L498.4,432.5z"/>
	<path class="st9" d="M498.7,459.5l-1-3l-2.6-1.9h-3.2l-2.6,1.9l-1,3l1,3l2.6,1.9h3.2l2.6-1.9L498.7,459.5z"/>
	<path class="st9" d="M488.3,465.5l-1.1-3.4l-2.9-2.1h-3.6l-2.9,2.1l-1.1,3.4l1.1,3.4l2.9,2.1h3.6l2.9-2.1L488.3,465.5z"/>
	<path class="st9" d="M533.5,469.5l-1-2.9l-2.5-1.8H527l-2.5,1.8l-1,2.9l1,2.9l2.5,1.8h3.1l2.5-1.8L533.5,469.5z"/>
	<path class="st9" d="M550.9,415.5l-1-2.4l-2.4-1l-2.4,1l-1,2.4l1,2.4l2.4,1l2.4-1L550.9,415.5z"/>
	<path class="st9" d="M537.3,454.5l-1.1-2.7l-2.7-1.1l-2.7,1.1l-1.1,2.7l1.1,2.7l2.7,1.1l2.7-1.1L537.3,454.5z"/>
	<path class="st9" d="M539.5,458.5l-1.2-2.8l-2.8-1.2l-2.8,1.2l-1.2,2.8l1.2,2.8l2.8,1.2l2.8-1.2L539.5,458.5z"/>
	<path class="st9" d="M503.6,442.5l-1-3l-2.6-1.9h-3.2l-2.6,1.9l-1,3l1,3l2.6,1.9h3.2l2.6-1.9L503.6,442.5z"/>
	<path class="st9" d="M487.4,433.5l-1.1-2.7l-2.7-1.1l-2.7,1.1l-1.1,2.7l1.1,2.7l2.7,1.1l2.7-1.1L487.4,433.5z"/>
	<path class="st9" d="M514.7,468.5l-0.8-2.5l-2.1-1.5h-2.6l-2.1,1.5l-0.8,2.5l0.8,2.5l2.1,1.5h2.6l2.1-1.5L514.7,468.5z"/>
	<path class="st9" d="M502.9,459.5l-1-3.2l-2.7-2h-3.3l-2.7,2l-1,3.2l1,3.2l2.7,2h3.3l2.7-2L502.9,459.5z"/>
	<path class="st9" d="M487,453.5l-1.1-3.3l-2.8-2h-3.4l-2.8,2l-1.1,3.3l1.1,3.3l2.8,2h3.4l2.8-2L487,453.5z"/>
	<path class="st9" d="M476.8,453.5l-1-3.1l-2.6-1.9h-3.3l-2.6,1.9l-1,3.1l1,3.1l2.6,1.9h3.3l2.6-1.9L476.8,453.5z"/>
	<path class="st9" d="M486.8,455.5l-1-3.1l-2.6-1.9h-3.2l-2.6,1.9l-1,3.1l1,3.1l2.6,1.9h3.2l2.6-1.9L486.8,455.5z"/>
	<path class="st9" d="M521.1,402.5l-0.9-2.7l-2.3-1.7h-2.8l-2.3,1.7l-0.9,2.7l0.9,2.7l2.3,1.7h2.8l2.3-1.7L521.1,402.5z"/>
	<path class="st9" d="M461.1,463.5l-0.9-2.7l-2.3-1.7h-2.8l-2.3,1.7l-0.9,2.7l0.9,2.7l2.3,1.7h2.8l2.3-1.7L461.1,463.5z"/>
	<path class="st9" d="M553.9,469.5l-0.8-2.6l-2.2-1.6h-2.7l-2.2,1.6l-0.8,2.6l0.8,2.6l2.2,1.6h2.7l2.2-1.6L553.9,469.5z"/>
	<path class="st9" d="M537.5,464.5l-1.2-2.8l-2.8-1.2l-2.8,1.2l-1.2,2.8l1.2,2.8l2.8,1.2l2.8-1.2L537.5,464.5z"/>
	<path class="st9" d="M527.6,431.5l-1.2-2.9l-2.9-1.2l-2.9,1.2l-1.2,2.9l1.2,2.9l2.9,1.2l2.9-1.2L527.6,431.5z"/>
	<path class="st9" d="M543.2,440.5l-0.8-1.9l-1.9-0.8l-1.9,0.8l-0.8,1.9l0.8,1.9l1.9,0.8l1.9-0.8L543.2,440.5z"/>
	<path class="st9" d="M457.6,481.5l-0.9-2.2l-2.2-0.9l-2.2,0.9l-0.9,2.2l0.9,2.2l2.2,0.9l2.2-0.9L457.6,481.5z"/>
	<path class="st9" d="M503.7,488.5l-0.8-2.5l-2.1-1.5h-2.6l-2.1,1.5l-0.8,2.5l0.8,2.5l2.1,1.5h2.6l2.1-1.5L503.7,488.5z"/>
	<path class="st9" d="M551,456.5l-1-2.5l-2.5-1l-2.5,1l-1,2.5l1,2.5l2.5,1l2.5-1L551,456.5z"/>
	<path class="st9" d="M586.5,403.5l-1.2-2.9l-2.9-1.2l-2.9,1.2l-1.2,2.9l1.2,2.9l2.9,1.2l2.9-1.2L586.5,403.5z"/>
	<path class="st9" d="M475.5,453.5l-1.2-2.8l-2.8-1.2l-2.8,1.2l-1.2,2.8l1.2,2.8l2.8,1.2l2.8-1.2L475.5,453.5z"/>
	<path class="st9" d="M581.6,445.5l-1.2-2.9l-2.9-1.2l-2.9,1.2l-1.2,2.9l1.2,2.9l2.9,1.2l2.9-1.2L581.6,445.5z"/>
	<path class="st9" d="M498.5,423.5l-1.2-2.8l-2.8-1.2l-2.8,1.2l-1.2,2.8l1.2,2.8l2.8,1.2l2.8-1.2L498.5,423.5z"/>
	<path class="st9" d="M475.1,472.5l-1.1-2.6l-2.6-1.1l-2.6,1.1l-1.1,2.6l1.1,2.6l2.6,1.1l2.6-1.1L475.1,472.5z"/>
	<path class="st9" d="M520.4,447.5l-0.9-2.9l-2.5-1.8h-3l-2.5,1.8l-0.9,2.9l0.9,2.9l2.5,1.8h3l2.5-1.8L520.4,447.5z"/>
	<path class="st9" d="M454.3,473.5l-0.8-2l-2-0.8l-2,0.8l-0.8,2l0.8,2l2,0.8l2-0.8L454.3,473.5z"/>
	<path class="st9" d="M533.3,470.5l-1.1-2.7l-2.7-1.1l-2.7,1.1l-1.1,2.7l1.1,2.7l2.7,1.1l2.7-1.1L533.3,470.5z"/>
	<path class="st9" d="M591.6,469.5l-0.9-2.2l-2.2-0.9l-2.2,0.9l-0.9,2.2l0.9,2.2l2.2,0.9l2.2-0.9L591.6,469.5z"/>
	<path class="st9" d="M587.2,543.5l-0.8-1.9l-1.9-0.8l-1.9,0.8l-0.8,1.9l0.8,1.9l1.9,0.8l1.9-0.8L587.2,543.5z"/>
	<path class="st9" d="M563.3,462.5l-1.1-2.7l-2.7-1.1l-2.7,1.1l-1.1,2.7l1.1,2.7l2.7,1.1l2.7-1.1L563.3,462.5z"/>
	<path class="st9" d="M538.8,381.5l-1-2.3l-2.3-1l-2.3,1l-1,2.3l1,2.3l2.3,1l2.3-1L538.8,381.5z"/>
	<path class="st9" d="M488.4,428.5l-0.9-2.9l-2.4-1.8h-3l-2.4,1.8l-0.9,2.9l0.9,2.9l2.4,1.8h3l2.4-1.8L488.4,428.5z"/>
	<path class="st9" d="M524.9,477.5l-0.8-2.6l-2.2-1.6h-2.7l-2.2,1.6l-0.8,2.6l0.8,2.6l2.2,1.6h2.7l2.2-1.6L524.9,477.5z"/>
	<path class="st9" d="M534.9,467.5l-1-2.4l-2.4-1l-2.4,1l-1,2.4l1,2.4l2.4,1l2.4-1L534.9,467.5z"/>
	<path class="st9" d="M501.3,467.5l-1.1-2.7l-2.7-1.1l-2.7,1.1l-1.1,2.7l1.1,2.7l2.7,1.1l2.7-1.1L501.3,467.5z"/>
	<path class="st9" d="M493.8,423.5L493,421l-2.1-1.6h-2.7L486,421l-0.8,2.5l0.8,2.5l2.1,1.6h2.7l2.1-1.6L493.8,423.5z"/>
</g>
<line class="st2" x1="218" y1="396.1" x2="781" y2="498.5"/>
<g transform="translate(781,498.5234)">
	<text transform="matrix(1 0 0 1 0 5.5)" class="st9 st4 st5">ISA: -0.17</text>
</g>
<g transform="translate(499.5005,165.75)">
	<text transform="matrix(1 0 0 1 -31.248 -4)" class="st10 st11">ACC</text>
</g>
<g transform="translate(1239.0002,754.6667)">
	<text transform="matrix(1 0 0 1 -120 16)" class="st3 st4 st5">Repetition1</text>
</g>
<line class="st6" x1="876" y1="731" x2="1438" y2="731"/>
<g transform="translate(958,736.3333)">
	<text transform="matrix(1 0 0 1 -88 14)" class="st3 st4 st5">-1</text>
</g>
<g transform="translate(1014.2,736.3333)">
	<text transform="matrix(1 0 0 1 -93.5 14)" class="st3 st4 st5">-0.8</text>
</g>
<g transform="translate(1070.4,736.3333)">
	<text transform="matrix(1 0 0 1 -93.5 14)" class="st3 st4 st5">-0.6</text>
</g>
<g transform="translate(1126.6,736.3333)">
	<text transform="matrix(1 0 0 1 -93.5 14)" class="st3 st4 st5">-0.4</text>
</g>
<g transform="translate(1182.8,736.3333)">
	<text transform="matrix(1 0 0 1 -93.5 14)" class="st3 st4 st5">-0.2</text>
</g>
<g transform="translate(1239,736.3333)">
	<text transform="matrix(1 0 0 1 -86 14)" class="st3 st4 st5">0</text>
</g>
<g transform="translate(1295.2,736.3333)">
	<text transform="matrix(1 0 0 1 -91.5 14)" class="st3 st4 st5">0.2</text>
</g>
<g transform="translate(1351.4,736.3333)">
	<text transform="matrix(1 0 0 1 -91.5 14)" class="st3 st4 st5">0.4</text>
</g>
<g transform="translate(1407.6,736.3333)">
	<text transform="matrix(1 0 0 1 -91.5 14)" class="st3 st4 st5">0.6</text>
</g>
<g transform="translate(1463.8,736.3333)">
	<text transform="matrix(1 0 0 1 -91.5 14)" class="st3 st4 st5">0.8</text>
</g>
<g transform="translate(1520,736.3333)">
	<text transform="matrix(1 0 0 1 -86 14)" class="st3 st4 st5">1</text>
</g>
<line class="st6" x1="876" y1="731" x2="876" y2="169"/>
<g class="st7">
	<path class="st8" d="M1155.6,419.5l-1.2-3.6l-3.1-2.2h-3.8l-3.1,2.2l-1.2,3.6l1.2,3.6l3.1,2.2h3.8l3.1-2.2L1155.6,419.5z"/>
	<path class="st8" d="M1135.1,476.5l-1.1-3.3l-2.8-2h-3.5l-2.8,2l-1.1,3.3l1.1,3.3l2.8,2h3.5l2.8-2L1135.1,476.5z"/>
	<path class="st8" d="M1173,437.5l-0.9-2.6l-2.2-1.6h-2.8l-2.2,1.6l-0.9,2.6l0.9,2.6l2.2,1.6h2.8l2.2-1.6L1173,437.5z"/>
	<path class="st8" d="M1167.1,440.5l-0.9-3.3l-2.4-2.4l-3.3-0.9l-3.3,0.9l-2.4,2.4l-0.9,3.3l0.9,3.3l2.4,2.4l3.3,0.9l3.3-0.9
		l2.4-2.4L1167.1,440.5z"/>
	<path class="st8" d="M1188.1,455.5l-1.1-3.3l-2.8-2h-3.5l-2.8,2l-1.1,3.3l1.1,3.3l2.8,2h3.5l2.8-2L1188.1,455.5z"/>
	<path class="st8" d="M1089,471.5l-1-3.2l-2.7-2h-3.4l-2.7,2l-1,3.2l1,3.2l2.7,2h3.4l2.7-2L1089,471.5z"/>
	<path class="st8" d="M1136.4,455.5l-1.1-2.8l-2.8-1.1l-2.8,1.1l-1.1,2.8l1.1,2.8l2.8,1.1l2.8-1.1L1136.4,455.5z"/>
	<path class="st8" d="M1043,406.5l-1-2.5l-2.5-1l-2.5,1l-1,2.5l1,2.5l2.5,1l2.5-1L1043,406.5z"/>
	<path class="st8" d="M1151.4,425.5l-1.1-3.5l-2.9-2.1h-3.6l-2.9,2.1l-1.1,3.5l1.1,3.5l2.9,2.1h3.6l2.9-2.1L1151.4,425.5z"/>
	<path class="st8" d="M1131.6,390.5l-1-3l-2.6-1.9h-3.2l-2.6,1.9l-1,3l1,3l2.6,1.9h3.2l2.6-1.9L1131.6,390.5z"/>
	<path class="st8" d="M1170.2,434.5l-0.9-3.4l-2.5-2.5l-3.4-0.9l-3.4,0.9l-2.5,2.5l-0.9,3.4l0.9,3.4l2.5,2.5l3.4,0.9l3.4-0.9
		l2.5-2.5L1170.2,434.5z"/>
	<path class="st8" d="M1136.3,437.5l-0.9-2.8l-2.4-1.7h-3l-2.4,1.7l-0.9,2.8l0.9,2.8l2.4,1.7h3l2.4-1.7L1136.3,437.5z"/>
	<path class="st8" d="M1165.4,433.5l-0.9-2.9l-2.4-1.8h-3l-2.4,1.8l-0.9,2.9l0.9,2.9l2.4,1.8h3l2.4-1.8L1165.4,433.5z"/>
	<path class="st8" d="M1156,452.5l-1-3.2l-2.7-2h-3.4l-2.7,2l-1,3.2l1,3.2l2.7,2h3.4l2.7-2L1156,452.5z"/>
	<path class="st8" d="M1185.6,477.5l-1.2-3.6l-3-2.2h-3.8l-3,2.2l-1.2,3.6l1.2,3.6l3,2.2h3.8l3-2.2L1185.6,477.5z"/>
	<path class="st8" d="M1187.8,450.5l-1-3.7l-2.7-2.7l-3.7-1l-3.7,1l-2.7,2.7l-1,3.7l1,3.7l2.7,2.7l3.7,1l3.7-1l2.7-2.7L1187.8,450.5
		z"/>
	<path class="st8" d="M1172.3,420.5l-1.1-3.4l-2.9-2.1h-3.6l-2.9,2.1l-1.1,3.4l1.1,3.4l2.9,2.1h3.6l2.9-2.1L1172.3,420.5z"/>
	<path class="st8" d="M1150.5,455.5l-1-2.9l-2.5-1.8h-3.1l-2.5,1.8l-1,2.9l1,2.9l2.5,1.8h3.1l2.5-1.8L1150.5,455.5z"/>
	<path class="st8" d="M1162.2,484.5l-1.1-3.3l-2.8-2.1h-3.5l-2.8,2.1l-1.1,3.3l1.1,3.3l2.8,2.1h3.5l2.8-2.1L1162.2,484.5z"/>
	<path class="st8" d="M1193.8,471.5l-0.8-3.2l-2.3-2.3l-3.2-0.8l-3.2,0.8l-2.3,2.3l-0.8,3.2l0.8,3.2l2.3,2.3l3.2,0.8l3.2-0.8
		l2.3-2.3L1193.8,471.5z"/>
	<path class="st8" d="M1262,442.5l-1-2.5l-2.5-1l-2.5,1l-1,2.5l1,2.5l2.5,1l2.5-1L1262,442.5z"/>
	<path class="st8" d="M1208.5,454.5l-1-3l-2.5-1.8h-3.1l-2.5,1.8l-1,3l1,3l2.5,1.8h3.1l2.5-1.8L1208.5,454.5z"/>
	<path class="st8" d="M1171,495.5l-0.9-2.6l-2.2-1.6h-2.8l-2.2,1.6l-0.9,2.6l0.9,2.6l2.2,1.6h2.8l2.2-1.6L1171,495.5z"/>
	<path class="st8" d="M1145.6,437.5l-1.2-3.6l-3.1-2.2h-3.8l-3.1,2.2l-1.2,3.6l1.2,3.6l3.1,2.2h3.8l3.1-2.2L1145.6,437.5z"/>
	<path class="st8" d="M1114.9,459.5l-0.9-3.2l-2.3-2.3l-3.2-0.9l-3.2,0.9l-2.3,2.3l-0.9,3.2l0.9,3.2l2.3,2.3l3.2,0.9l3.2-0.9
		l2.3-2.3L1114.9,459.5z"/>
	<path class="st8" d="M1138.3,454.5l-1.1-3.4l-2.9-2.1h-3.6l-2.9,2.1l-1.1,3.4l1.1,3.4l2.9,2.1h3.6l2.9-2.1L1138.3,454.5z"/>
	<path class="st8" d="M1160.8,417.5l-1-2.4l-2.4-1l-2.4,1l-1,2.4l1,2.4l2.4,1l2.4-1L1160.8,417.5z"/>
	<path class="st8" d="M1113.5,416.5l-0.9-2.2l-2.2-0.9l-2.2,0.9l-0.9,2.2l0.9,2.2l2.2,0.9l2.2-0.9L1113.5,416.5z"/>
	<path class="st8" d="M1204.9,485.5l-1-2.4l-2.4-1l-2.4,1l-1,2.4l1,2.4l2.4,1l2.4-1L1204.9,485.5z"/>
	<path class="st8" d="M1253.2,478.5l-1.1-2.6l-2.6-1.1l-2.6,1.1l-1.1,2.6l1.1,2.6l2.6,1.1l2.6-1.1L1253.2,478.5z"/>
	<path class="st8" d="M1159.5,468.5l-1-2.9l-2.5-1.8h-3.1l-2.5,1.8l-1,2.9l1,2.9l2.5,1.8h3.1l2.5-1.8L1159.5,468.5z"/>
	<path class="st8" d="M1225.8,446.5l-1-3.1l-2.7-1.9h-3.3l-2.7,1.9l-1,3.1l1,3.1l2.7,1.9h3.3l2.7-1.9L1225.8,446.5z"/>
	<path class="st8" d="M1090.3,484.5l-0.9-3.4l-2.5-2.5l-3.4-0.9l-3.4,0.9l-2.5,2.5l-0.9,3.4l0.9,3.4l2.5,2.5l3.4,0.9l3.4-0.9
		l2.5-2.5L1090.3,484.5z"/>
	<path class="st8" d="M1100.6,533.5l-1.2-2.9l-2.9-1.2l-2.9,1.2l-1.2,2.9l1.2,2.9l2.9,1.2l2.9-1.2L1100.6,533.5z"/>
	<path class="st8" d="M1152.5,519.5l-1.2-2.9l-2.9-1.2l-2.9,1.2l-1.2,2.9l1.2,2.9l2.9,1.2l2.9-1.2L1152.5,519.5z"/>
	<path class="st8" d="M1184,508.5l-1-3.2l-2.7-2h-3.4l-2.7,2l-1,3.2l1,3.2l2.7,2h3.4l2.7-2L1184,508.5z"/>
	<path class="st8" d="M1162.7,466.5l-0.8-2.5l-2.1-1.5h-2.6l-2.1,1.5l-0.8,2.5l0.8,2.5l2.1,1.5h2.6l2.1-1.5L1162.7,466.5z"/>
	<path class="st8" d="M1133.1,379.5l-0.8-1.8l-1.8-0.8l-1.8,0.8l-0.8,1.8l0.8,1.8l1.8,0.8l1.8-0.8L1133.1,379.5z"/>
	<path class="st8" d="M1165.1,475.5l-1.1-3.3l-2.8-2h-3.4l-2.8,2l-1.1,3.3l1.1,3.3l2.8,2h3.4l2.8-2L1165.1,475.5z"/>
	<path class="st8" d="M1156.8,491.5l-1-3.1l-2.6-1.9h-3.3l-2.6,1.9l-1,3.1l1,3.1l2.6,1.9h3.3l2.6-1.9L1156.8,491.5z"/>
	<path class="st8" d="M1221.2,396.5l-1.1-2.6l-2.6-1.1l-2.6,1.1l-1.1,2.6l1.1,2.6l2.6,1.1l2.6-1.1L1221.2,396.5z"/>
	<path class="st8" d="M1123.7,411.5l-0.8-2.4l-2.1-1.5h-2.6l-2.1,1.5l-0.8,2.4l0.8,2.4l2.1,1.5h2.6l2.1-1.5L1123.7,411.5z"/>
	<path class="st8" d="M1172.4,451.5l-0.9-2.9l-2.4-1.8h-3l-2.4,1.8l-0.9,2.9l0.9,2.9l2.4,1.8h3l2.4-1.8L1172.4,451.5z"/>
	<path class="st8" d="M1225.6,463.5l-1.2-2.9l-2.9-1.2l-2.9,1.2l-1.2,2.9l1.2,2.9l2.9,1.2l2.9-1.2L1225.6,463.5z"/>
	<path class="st8" d="M1208.7,396.5l-1-3l-2.6-1.9h-3.2l-2.6,1.9l-1,3l1,3l2.6,1.9h3.2l2.6-1.9L1208.7,396.5z"/>
	<path class="st8" d="M1136.9,450.5l-0.8-2.6l-2.2-1.6h-2.7l-2.2,1.6l-0.8,2.6l0.8,2.6l2.2,1.6h2.7l2.2-1.6L1136.9,450.5z"/>
	<path class="st8" d="M1159,454.5l-0.9-3.2l-2.4-2.4l-3.2-0.9l-3.2,0.9l-2.4,2.4l-0.9,3.2l0.9,3.2l2.4,2.4l3.2,0.9l3.2-0.9l2.4-2.4
		L1159,454.5z"/>
	<path class="st8" d="M1142.6,473.5l-1.2-2.9l-2.9-1.2l-2.9,1.2l-1.2,2.9l1.2,2.9l2.9,1.2l2.9-1.2L1142.6,473.5z"/>
	<path class="st8" d="M1145.9,477.5l-1-3.2l-2.7-2h-3.3l-2.7,2l-1,3.2l1,3.2l2.7,2h3.3l2.7-2L1145.9,477.5z"/>
	<path class="st8" d="M1062.7,431.5l-0.8-2.5l-2.1-1.5h-2.6l-2.1,1.5l-0.8,2.5l0.8,2.5l2.1,1.5h2.6l2.1-1.5L1062.7,431.5z"/>
	<path class="st8" d="M1154.1,450.5l-0.9-2.7l-2.3-1.7h-2.9l-2.3,1.7l-0.9,2.7l0.9,2.7l2.3,1.7h2.9l2.3-1.7L1154.1,450.5z"/>
	<path class="st8" d="M1113.2,445.5l-1.1-3.4l-2.9-2.1h-3.5l-2.9,2.1l-1.1,3.4l1.1,3.4l2.9,2.1h3.5l2.9-2.1L1113.2,445.5z"/>
	<path class="st8" d="M1189.2,459.5l-1.1-3.4l-2.9-2.1h-3.5l-2.9,2.1l-1.1,3.4l1.1,3.4l2.9,2.1h3.5l2.9-2.1L1189.2,459.5z"/>
	<path class="st8" d="M1185.1,483.5l-1.1-2.6l-2.6-1.1l-2.6,1.1l-1.1,2.6l1.1,2.6l2.6,1.1l2.6-1.1L1185.1,483.5z"/>
	<path class="st8" d="M1211.1,469.5l-1.1-3.3l-2.8-2h-3.5l-2.8,2l-1.1,3.3l1.1,3.3l2.8,2h3.5l2.8-2L1211.1,469.5z"/>
	<path class="st8" d="M1165.5,435.5l-0.9-3.5l-2.6-2.6l-3.5-0.9l-3.5,0.9l-2.6,2.6l-0.9,3.5l0.9,3.5l2.6,2.6l3.5,0.9l3.5-0.9
		l2.6-2.6L1165.5,435.5z"/>
	<path class="st8" d="M1149.5,455.5l-1.1-4l-2.9-2.9l-4-1.1l-4,1.1l-2.9,2.9l-1.1,4l1.1,4l2.9,2.9l4,1.1l4-1.1l2.9-2.9L1149.5,455.5
		z"/>
	<path class="st8" d="M1208.7,494.5l-0.9-2.2l-2.2-0.9l-2.2,0.9l-0.9,2.2l0.9,2.2l2.2,0.9l2.2-0.9L1208.7,494.5z"/>
	<path class="st8" d="M1175,430.5l-1-2.5l-2.5-1l-2.5,1l-1,2.5l1,2.5l2.5,1l2.5-1L1175,430.5z"/>
	<path class="st8" d="M1207.8,461.5l-1-3.1l-2.7-1.9h-3.3l-2.7,1.9l-1,3.1l1,3.1l2.7,1.9h3.3l2.7-1.9L1207.8,461.5z"/>
	<path class="st8" d="M1170.7,457.5l-1-3.6l-2.6-2.6l-3.6-1l-3.6,1l-2.6,2.6l-1,3.6l1,3.6l2.6,2.6l3.6,1l3.6-1l2.6-2.6L1170.7,457.5
		z"/>
	<path class="st8" d="M1145.8,524.5l-0.8-2.6l-2.2-1.6h-2.7l-2.2,1.6l-0.8,2.6l0.8,2.6l2.2,1.6h2.7l2.2-1.6L1145.8,524.5z"/>
	<path class="st8" d="M1204.4,472.5l-1.1-3.5l-2.9-2.1h-3.6l-2.9,2.1l-1.1,3.5l1.1,3.5l2.9,2.1h3.6l2.9-2.1L1204.4,472.5z"/>
	<path class="st8" d="M1171.8,428.5l-1-3.1l-2.6-1.9h-3.3l-2.6,1.9l-1,3.1l1,3.1l2.6,1.9h3.3l2.6-1.9L1171.8,428.5z"/>
	<path class="st8" d="M1191.5,410.5l-0.9-2.9l-2.5-1.8h-3.1l-2.5,1.8l-0.9,2.9l0.9,2.9l2.5,1.8h3.1l2.5-1.8L1191.5,410.5z"/>
	<path class="st8" d="M1114.5,431.5l-1.2-2.8l-2.8-1.2l-2.8,1.2l-1.2,2.8l1.2,2.8l2.8,1.2l2.8-1.2L1114.5,431.5z"/>
	<path class="st8" d="M1170.3,401.5l-1.1-3.4l-2.9-2.1h-3.6l-2.9,2.1l-1.1,3.4l1.1,3.4l2.9,2.1h3.6l2.9-2.1L1170.3,401.5z"/>
	<path class="st8" d="M1156.5,384.5l-1-3l-2.5-1.8h-3.1l-2.5,1.8l-1,3l1,3l2.5,1.8h3.1l2.5-1.8L1156.5,384.5z"/>
	<path class="st8" d="M1147.8,474.5l-0.9-4l-2.6-3.2l-3.7-1.8h-4.1l-3.7,1.8l-2.6,3.2l-0.9,4l0.9,4l2.6,3.2l3.7,1.8h4.1l3.7-1.8
		l2.6-3.2L1147.8,474.5z"/>
	<path class="st8" d="M1200.4,529.5l-0.8-2l-2-0.8l-2,0.8l-0.8,2l0.8,2l2,0.8l2-0.8L1200.4,529.5z"/>
	<path class="st8" d="M1223.2,607.5l-0.8-1.9l-1.9-0.8l-1.9,0.8l-0.8,1.9l0.8,1.9l1.9,0.8l1.9-0.8L1223.2,607.5z"/>
	<path class="st8" d="M1151.7,501.5l-0.9-2.3l-2.3-0.9l-2.3,0.9l-0.9,2.3l0.9,2.3l2.3,0.9l2.3-0.9L1151.7,501.5z"/>
	<path class="st8" d="M1108,547.5l-0.9-2.6l-2.2-1.6h-2.8l-2.2,1.6l-0.9,2.6l0.9,2.6l2.2,1.6h2.8l2.2-1.6L1108,547.5z"/>
	<path class="st8" d="M1133.5,459.5l-1-3l-2.5-1.8h-3.1l-2.5,1.8l-1,3l1,3l2.5,1.8h3.1l2.5-1.8L1133.5,459.5z"/>
	<path class="st8" d="M1128.8,437.5l-1-3.1l-2.7-1.9h-3.3l-2.7,1.9l-1,3.1l1,3.1l2.7,1.9h3.3l2.7-1.9L1128.8,437.5z"/>
	<path class="st8" d="M1174.1,501.5l-0.9-2.7l-2.3-1.7h-2.9l-2.3,1.7l-0.9,2.7l0.9,2.7l2.3,1.7h2.9l2.3-1.7L1174.1,501.5z"/>
	<path class="st8" d="M1197.5,472.5l-1.2-3.6l-3-2.2h-3.7l-3,2.2l-1.2,3.6l1.2,3.6l3,2.2h3.7l3-2.2L1197.5,472.5z"/>
	<path class="st8" d="M1155.6,435.5l-1.2-3.6l-3.1-2.2h-3.8l-3.1,2.2l-1.2,3.6l1.2,3.6l3.1,2.2h3.8l3.1-2.2L1155.6,435.5z"/>
	<path class="st8" d="M1195.2,446.5l-0.9-2.7l-2.3-1.7h-2.9l-2.3,1.7l-0.9,2.7l0.9,2.7l2.3,1.7h2.9l2.3-1.7L1195.2,446.5z"/>
	<path class="st8" d="M1363.4,315.5l-1.1-2.7l-2.7-1.1l-2.7,1.1l-1.1,2.7l1.1,2.7l2.7,1.1l2.7-1.1L1363.4,315.5z"/>
	<path class="st8" d="M1225.4,459.5l-0.9-2.9l-2.4-1.8h-3l-2.4,1.8l-0.9,2.9l0.9,2.9l2.4,1.8h3l2.4-1.8L1225.4,459.5z"/>
	<path class="st8" d="M1138.9,452.5l-1-3.1l-2.7-1.9h-3.3l-2.7,1.9l-1,3.1l1,3.1l2.7,1.9h3.3l2.7-1.9L1138.9,452.5z"/>
	<path class="st8" d="M1199.5,430.5l-1-2.9l-2.5-1.8h-3.1l-2.5,1.8l-1,2.9l1,2.9l2.5,1.8h3.1l2.5-1.8L1199.5,430.5z"/>
	<path class="st8" d="M1090.5,502.5l-1.2-2.9l-2.9-1.2l-2.9,1.2l-1.2,2.9l1.2,2.9l2.9,1.2l2.9-1.2L1090.5,502.5z"/>
	<path class="st8" d="M1147.5,432.5l-1.2-3.6l-3-2.2h-3.7l-3,2.2l-1.2,3.6l1.2,3.6l3,2.2h3.7l3-2.2L1147.5,432.5z"/>
	<path class="st8" d="M1191.2,533.5l-1.1-2.6l-2.6-1.1l-2.6,1.1l-1.1,2.6l1.1,2.6l2.6,1.1l2.6-1.1L1191.2,533.5z"/>
	<path class="st8" d="M1119.7,447.5l-1-3.1l-2.6-1.9h-3.2l-2.6,1.9l-1,3.1l1,3.1l2.6,1.9h3.2l2.6-1.9L1119.7,447.5z"/>
	<path class="st8" d="M1236.4,479.5l-1.1-2.7l-2.7-1.1l-2.7,1.1l-1.1,2.7l1.1,2.7l2.7,1.1l2.7-1.1L1236.4,479.5z"/>
	<path class="st8" d="M1191.6,492.5l-1-3l-2.6-1.9h-3.2l-2.6,1.9l-1,3l1,3l2.6,1.9h3.2l2.6-1.9L1191.6,492.5z"/>
	<path class="st8" d="M1119.7,436.5l-1-3.1l-2.6-1.9h-3.2l-2.6,1.9l-1,3.1l1,3.1l2.6,1.9h3.2l2.6-1.9L1119.7,436.5z"/>
	<path class="st8" d="M1139.7,438.5l-1-3.6l-2.6-2.6l-3.6-1l-3.6,1l-2.6,2.6l-1,3.6l1,3.6l2.6,2.6l3.6,1l3.6-1l2.6-2.6L1139.7,438.5
		z"/>
	<path class="st8" d="M1159.7,460.5l-0.8-3.1l-2.3-2.3l-3.1-0.8l-3.1,0.8l-2.3,2.3l-0.8,3.1l0.8,3.1l2.3,2.3l3.1,0.8l3.1-0.8
		l2.3-2.3L1159.7,460.5z"/>
	<path class="st8" d="M1161.4,464.5l-1.1-3.5l-3-2.2h-3.7l-3,2.2l-1.1,3.5l1.1,3.5l3,2.2h3.7l3-2.2L1161.4,464.5z"/>
	<path class="st8" d="M1137.5,447.5l-0.9-2.9l-2.5-1.8h-3.1l-2.5,1.8l-0.9,2.9l0.9,2.9l2.5,1.8h3.1l2.5-1.8L1137.5,447.5z"/>
	<path class="st8" d="M1115.6,394.5l-0.9-2.2l-2.2-0.9l-2.2,0.9l-0.9,2.2l0.9,2.2l2.2,0.9l2.2-0.9L1115.6,394.5z"/>
</g>
<g transform="translate(1520,415.6607)">
	<text transform="matrix(1 0 0 1 -82 5.5)" class="st8 st4 st5">CC: 0.09</text>
</g>
<g class="st7">
	<path class="st9" d="M1207.7,439.5l-1-3.1l-2.6-1.9h-3.2l-2.6,1.9l-1,3.1l1,3.1l2.6,1.9h3.2l2.6-1.9L1207.7,439.5z"/>
	<path class="st9" d="M1104.8,385.5l-1-2.4l-2.4-1l-2.4,1l-1,2.4l1,2.4l2.4,1l2.4-1L1104.8,385.5z"/>
	<path class="st9" d="M1144.3,496.5l-0.9-2.8l-2.4-1.7h-2.9l-2.4,1.7l-0.9,2.8l0.9,2.8l2.4,1.7h2.9l2.4-1.7L1144.3,496.5z"/>
	<path class="st9" d="M1098.5,440.5l-1.2-2.9l-2.9-1.2l-2.9,1.2l-1.2,2.9l1.2,2.9l2.9,1.2l2.9-1.2L1098.5,440.5z"/>
	<path class="st9" d="M1138.6,516.5l-0.9-2.2l-2.2-0.9l-2.2,0.9l-0.9,2.2l0.9,2.2l2.2,0.9l2.2-0.9L1138.6,516.5z"/>
	<path class="st9" d="M1174.6,475.5l-1-3l-2.6-1.9h-3.2l-2.6,1.9l-1,3l1,3l2.6,1.9h3.2l2.6-1.9L1174.6,475.5z"/>
	<path class="st9" d="M1164.6,491.5l-1-3l-2.5-1.9h-3.2l-2.5,1.9l-1,3l1,3l2.5,1.9h3.2l2.5-1.9L1164.6,491.5z"/>
	<path class="st9" d="M1137.1,435.5l-0.9-3.3l-2.4-2.4l-3.3-0.9l-3.3,0.9l-2.4,2.4l-0.9,3.3l0.9,3.3l2.4,2.4l3.3,0.9l3.3-0.9
		l2.4-2.4L1137.1,435.5z"/>
	<path class="st9" d="M1174.8,464.5l-0.8-2.5l-2.2-1.6h-2.7l-2.2,1.6l-0.8,2.5l0.8,2.5l2.2,1.6h2.7l2.2-1.6L1174.8,464.5z"/>
	<path class="st9" d="M1146.4,475.5l-0.9-3.5l-2.5-2.5l-3.5-0.9l-3.5,0.9l-2.5,2.5l-0.9,3.5l0.9,3.5l2.5,2.5l3.5,0.9l3.5-0.9
		l2.5-2.5L1146.4,475.5z"/>
	<path class="st9" d="M1189.7,536.5l-0.9-2.3l-2.3-0.9l-2.3,0.9l-0.9,2.3l0.9,2.3l2.3,0.9l2.3-0.9L1189.7,536.5z"/>
	<path class="st9" d="M1192.1,467.5l-1.1-2.6l-2.6-1.1l-2.6,1.1l-1.1,2.6l1.1,2.6l2.6,1.1l2.6-1.1L1192.1,467.5z"/>
	<path class="st9" d="M1130.5,418.5l-1.2-2.9l-2.9-1.2l-2.9,1.2l-1.2,2.9l1.2,2.9l2.9,1.2l2.9-1.2L1130.5,418.5z"/>
	<path class="st9" d="M1170,439.5l-1-3.2l-2.7-2h-3.4l-2.7,2l-1,3.2l1,3.2l2.7,2h3.4l2.7-2L1170,439.5z"/>
	<path class="st9" d="M1200.6,489.5l-0.9-2.2l-2.2-0.9l-2.2,0.9l-0.9,2.2l0.9,2.2l2.2,0.9l2.2-0.9L1200.6,489.5z"/>
	<path class="st9" d="M1244.2,444.5l-1.1-2.6l-2.6-1.1l-2.6,1.1l-1.1,2.6l1.1,2.6l2.6,1.1l2.6-1.1L1244.2,444.5z"/>
	<path class="st9" d="M1058.4,410.5l-0.8-2l-2-0.8l-2,0.8l-0.8,2l0.8,2l2,0.8l2-0.8L1058.4,410.5z"/>
	<path class="st9" d="M1192.4,433.5l-1.1-3.5l-3-2.1h-3.6l-3,2.1l-1.1,3.5l1.1,3.5l3,2.1h3.6l3-2.1L1192.4,433.5z"/>
	<path class="st9" d="M1177.8,415.5l-0.8-3.2l-2.3-2.3l-3.2-0.8l-3.2,0.8l-2.3,2.3l-0.8,3.2l0.8,3.2l2.3,2.3l3.2,0.8l3.2-0.8
		l2.3-2.3L1177.8,415.5z"/>
	<path class="st9" d="M1252.1,393.5l-1.1-2.5l-2.5-1.1l-2.5,1.1l-1.1,2.5l1.1,2.5l2.5,1.1l2.5-1.1L1252.1,393.5z"/>
	<path class="st9" d="M1244,474.5l-1-2.5l-2.5-1l-2.5,1l-1,2.5l1,2.5l2.5,1l2.5-1L1244,474.5z"/>
	<path class="st9" d="M1127,462.5l-1-3.2l-2.7-2h-3.4l-2.7,2l-1,3.2l1,3.2l2.7,2h3.4l2.7-2L1127,462.5z"/>
	<path class="st9" d="M1053.5,523.5l-1-2.9l-2.5-1.8h-3.1l-2.5,1.8l-1,2.9l1,2.9l2.5,1.8h3.1l2.5-1.8L1053.5,523.5z"/>
	<path class="st9" d="M1046.5,462.5l-1-3l-2.5-1.8h-3.1l-2.5,1.8l-1,3l1,3l2.5,1.8h3.1l2.5-1.8L1046.5,462.5z"/>
	<path class="st9" d="M1074.6,494.5l-1.2-2.9l-2.9-1.2l-2.9,1.2l-1.2,2.9l1.2,2.9l2.9,1.2l2.9-1.2L1074.6,494.5z"/>
	<path class="st9" d="M1178.2,446.5l-1.1-3.4l-2.9-2.1h-3.5l-2.9,2.1l-1.1,3.4l1.1,3.4l2.9,2.1h3.5l2.9-2.1L1178.2,446.5z"/>
	<path class="st9" d="M1173.7,465.5l-0.8-3.1l-2.3-2.3l-3.1-0.8l-3.1,0.8l-2.3,2.3l-0.8,3.1l0.8,3.1l2.3,2.3l3.1,0.8l3.1-0.8
		l2.3-2.3L1173.7,465.5z"/>
	<path class="st9" d="M1133.8,432.5l-1-3.1l-2.6-1.9h-3.3l-2.6,1.9l-1,3.1l1,3.1l2.6,1.9h3.3l2.6-1.9L1133.8,432.5z"/>
	<path class="st9" d="M1125,444.5l-0.9-2.6l-2.2-1.6h-2.8l-2.2,1.6l-0.9,2.6l0.9,2.6l2.2,1.6h2.8l2.2-1.6L1125,444.5z"/>
	<path class="st9" d="M1124.8,480.5l-1-3.1l-2.6-1.9h-3.3l-2.6,1.9l-1,3.1l1,3.1l2.6,1.9h3.3l2.6-1.9L1124.8,480.5z"/>
	<path class="st9" d="M1163.5,445.5l-1.1-3.5l-3-2.2h-3.7l-3,2.2l-1.1,3.5l1.1,3.5l3,2.2h3.7l3-2.2L1163.5,445.5z"/>
	<path class="st9" d="M1280.2,422.5l-1.1-2.6l-2.6-1.1l-2.6,1.1l-1.1,2.6l1.1,2.6l2.6,1.1l2.6-1.1L1280.2,422.5z"/>
	<path class="st9" d="M1207.1,419.5l-0.9-2.7l-2.3-1.7h-2.9l-2.3,1.7l-0.9,2.7l0.9,2.7l2.3,1.7h2.9l2.3-1.7L1207.1,419.5z"/>
	<path class="st9" d="M1244.2,455.5l-0.9-3.3l-2.4-2.4l-3.3-0.9l-3.3,0.9l-2.4,2.4l-0.9,3.3l0.9,3.3l2.4,2.4l3.3,0.9l3.3-0.9
		l2.4-2.4L1244.2,455.5z"/>
	<path class="st9" d="M1143,408.5l-0.9-2.7l-2.3-1.6h-2.8l-2.3,1.6l-0.9,2.7l0.9,2.7l2.3,1.6h2.8l2.3-1.6L1143,408.5z"/>
	<path class="st9" d="M1175.6,438.5l-0.9-3.5l-2.6-2.6l-3.5-0.9l-3.5,0.9l-2.6,2.6l-0.9,3.5l0.9,3.5l2.6,2.6l3.5,0.9l3.5-0.9
		l2.6-2.6L1175.6,438.5z"/>
	<path class="st9" d="M1175.3,460.5l-1.1-3.4l-2.9-2.1h-3.6l-2.9,2.1l-1.1,3.4l1.1,3.4l2.9,2.1h3.6l2.9-2.1L1175.3,460.5z"/>
	<path class="st9" d="M1171.6,381.5l-1.2-2.9l-2.9-1.2l-2.9,1.2l-1.2,2.9l1.2,2.9l2.9,1.2l2.9-1.2L1171.6,381.5z"/>
	<path class="st9" d="M1171.7,408.5l-0.8-2.5l-2.1-1.5h-2.6l-2.1,1.5l-0.8,2.5l0.8,2.5l2.1,1.5h2.6l2.1-1.5L1171.7,408.5z"/>
	<path class="st9" d="M1144.3,421.5l-1.1-2.7l-2.7-1.1l-2.7,1.1l-1.1,2.7l1.1,2.7l2.7,1.1l2.7-1.1L1144.3,421.5z"/>
	<path class="st9" d="M1180.1,464.5l-1.1-2.5l-2.5-1.1l-2.5,1.1l-1.1,2.5l1.1,2.5l2.5,1.1l2.5-1.1L1180.1,464.5z"/>
	<path class="st9" d="M1130.1,442.5l-0.9-3.3l-2.4-2.4l-3.3-0.9l-3.3,0.9l-2.4,2.4l-0.9,3.3l0.9,3.3l2.4,2.4l3.3,0.9l3.3-0.9
		l2.4-2.4L1130.1,442.5z"/>
	<path class="st9" d="M1265.5,416.5l-1.1-3.5l-3-2.2h-3.7l-3,2.2l-1.1,3.5l1.1,3.5l3,2.2h3.7l3-2.2L1265.5,416.5z"/>
	<path class="st9" d="M1168.5,443.5l-1.1-3.5l-3-2.2h-3.7l-3,2.2l-1.1,3.5l1.1,3.5l3,2.2h3.7l3-2.2L1168.5,443.5z"/>
	<path class="st9" d="M1166.6,453.5l-1.2-3.6l-3.1-2.2h-3.8l-3.1,2.2l-1.2,3.6l1.2,3.6l3.1,2.2h3.8l3.1-2.2L1166.6,453.5z"/>
	<path class="st9" d="M1148.6,428.5l-1-3l-2.5-1.8h-3.1l-2.5,1.8l-1,3l1,3l2.5,1.8h3.1l2.5-1.8L1148.6,428.5z"/>
	<path class="st9" d="M1144,415.5l-0.9-2.7l-2.3-1.7h-2.8l-2.3,1.7l-0.9,2.7l0.9,2.7l2.3,1.7h2.8l2.3-1.7L1144,415.5z"/>
	<path class="st9" d="M1147.1,442.5l-1.1-2.5l-2.5-1.1l-2.5,1.1l-1.1,2.5l1.1,2.5l2.5,1.1l2.5-1.1L1147.1,442.5z"/>
	<path class="st9" d="M1142.5,448.5l-1.2-2.8l-2.8-1.2l-2.8,1.2l-1.2,2.8l1.2,2.8l2.8,1.2l2.8-1.2L1142.5,448.5z"/>
	<path class="st9" d="M1143,448.5l-1.1-3.3l-2.8-2h-3.4l-2.8,2l-1.1,3.3l1.1,3.3l2.8,2h3.4l2.8-2L1143,448.5z"/>
	<path class="st9" d="M1147.5,425.5l-1.2-2.9l-2.9-1.2l-2.9,1.2l-1.2,2.9l1.2,2.9l2.9,1.2l2.9-1.2L1147.5,425.5z"/>
	<path class="st9" d="M1181.3,441.5l-1.1-3.4l-2.9-2.1h-3.6l-2.9,2.1l-1.1,3.4l1.1,3.4l2.9,2.1h3.6l2.9-2.1L1181.3,441.5z"/>
	<path class="st9" d="M1191.9,456.5l-1-3.2l-2.7-2h-3.3l-2.7,2l-1,3.2l1,3.2l2.7,2h3.3l2.7-2L1191.9,456.5z"/>
	<path class="st9" d="M1173.8,456.5l-1-3.1l-2.7-1.9h-3.3l-2.7,1.9l-1,3.1l1,3.1l2.7,1.9h3.3l2.7-1.9L1173.8,456.5z"/>
	<path class="st9" d="M1137,453.5l-1-3.2l-2.7-2h-3.4l-2.7,2l-1,3.2l1,3.2l2.7,2h3.4l2.7-2L1137,453.5z"/>
	<path class="st9" d="M1066.2,424.5l-1.1-2.6l-2.6-1.1l-2.6,1.1l-1.1,2.6l1.1,2.6l2.6,1.1l2.6-1.1L1066.2,424.5z"/>
	<path class="st9" d="M1166.4,427.5l-0.9-2.9l-2.4-1.8h-3l-2.4,1.8l-0.9,2.9l0.9,2.9l2.4,1.8h3l2.4-1.8L1166.4,427.5z"/>
	<path class="st9" d="M1171.9,437.5l-0.9-3.2l-2.4-2.4l-3.2-0.9l-3.2,0.9l-2.4,2.4l-0.9,3.2l0.9,3.2l2.4,2.4l3.2,0.9l3.2-0.9
		l2.4-2.4L1171.9,437.5z"/>
	<path class="st9" d="M1106.6,426.5l-1-3l-2.6-1.9h-3.2l-2.6,1.9l-1,3l1,3l2.6,1.9h3.2l2.6-1.9L1106.6,426.5z"/>
	<path class="st9" d="M1045.4,479.5l-1.1-2.7l-2.7-1.1l-2.7,1.1l-1.1,2.7l1.1,2.7l2.7,1.1l2.7-1.1L1045.4,479.5z"/>
	<path class="st9" d="M1141.7,413.5l-0.8-2.5l-2.1-1.5h-2.6l-2.1,1.5l-0.8,2.5l0.8,2.5l2.1,1.5h2.6l2.1-1.5L1141.7,413.5z"/>
	<path class="st9" d="M1235.8,463.5l-0.8-2.5l-2.2-1.6h-2.7l-2.2,1.6l-0.8,2.5l0.8,2.5l2.2,1.6h2.7l2.2-1.6L1235.8,463.5z"/>
	<path class="st9" d="M1242.9,465.5l-0.8-2.6l-2.2-1.6h-2.7l-2.2,1.6l-0.8,2.6l0.8,2.6l2.2,1.6h2.7l2.2-1.6L1242.9,465.5z"/>
	<path class="st9" d="M1115.4,456.5l-1.2-2.8l-2.8-1.2l-2.8,1.2l-1.2,2.8l1.2,2.8l2.8,1.2l2.8-1.2L1115.4,456.5z"/>
	<path class="st9" d="M1177,446.5l-0.9-3.2l-2.4-2.4l-3.2-0.9l-3.2,0.9l-2.4,2.4l-0.9,3.2l0.9,3.2l2.4,2.4l3.2,0.9l3.2-0.9l2.4-2.4
		L1177,446.5z"/>
	<path class="st9" d="M1226.3,522.5l-1.1-2.7l-2.7-1.1l-2.7,1.1l-1.1,2.7l1.1,2.7l2.7,1.1l2.7-1.1L1226.3,522.5z"/>
	<path class="st9" d="M1117,457.5l-0.9-2.6l-2.2-1.6h-2.8l-2.2,1.6l-0.9,2.6l0.9,2.6l2.2,1.6h2.8l2.2-1.6L1117,457.5z"/>
	<path class="st9" d="M1113.6,457.5l-1-3l-2.5-1.9h-3.1l-2.5,1.9l-1,3l1,3l2.5,1.9h3.1l2.5-1.9L1113.6,457.5z"/>
	<path class="st9" d="M1114.2,448.5l-0.9-3.3l-2.4-2.4l-3.3-0.9l-3.3,0.9l-2.4,2.4l-0.9,3.3l0.9,3.3l2.4,2.4l3.3,0.9l3.3-0.9
		l2.4-2.4L1114.2,448.5z"/>
	<path class="st9" d="M1133,443.5l-0.9-2.7l-2.3-1.6h-2.8l-2.3,1.6l-0.9,2.7l0.9,2.7l2.3,1.6h2.8l2.3-1.6L1133,443.5z"/>
	<path class="st9" d="M1139.1,444.5l-1.1-3.3l-2.8-2h-3.5l-2.8,2l-1.1,3.3l1.1,3.3l2.8,2h3.5l2.8-2L1139.1,444.5z"/>
	<path class="st9" d="M1223.4,414.5l-1.2-2.8l-2.8-1.2l-2.8,1.2l-1.2,2.8l1.2,2.8l2.8,1.2l2.8-1.2L1223.4,414.5z"/>
	<path class="st9" d="M1237.2,406.5l-0.9-2.8l-2.4-1.7h-2.9l-2.4,1.7l-0.9,2.8l0.9,2.8l2.4,1.7h2.9l2.4-1.7L1237.2,406.5z"/>
	<path class="st9" d="M1182.5,437.5l-1.2-2.8l-2.8-1.2l-2.8,1.2l-1.2,2.8l1.2,2.8l2.8,1.2l2.8-1.2L1182.5,437.5z"/>
	<path class="st9" d="M1180.5,427.5l-1-2.9l-2.5-1.8h-3.1l-2.5,1.8l-1,2.9l1,2.9l2.5,1.8h3.1l2.5-1.8L1180.5,427.5z"/>
	<path class="st9" d="M1276.5,411.5l-1.2-2.9l-2.9-1.2l-2.9,1.2l-1.2,2.9l1.2,2.9l2.9,1.2l2.9-1.2L1276.5,411.5z"/>
	<path class="st9" d="M1142.3,459.5l-1.1-3.4l-2.9-2.1h-3.6l-2.9,2.1l-1.1,3.4l1.1,3.4l2.9,2.1h3.6l2.9-2.1L1142.3,459.5z"/>
	<path class="st9" d="M1104.1,456.5l-0.9-2.7l-2.3-1.7h-2.9l-2.3,1.7l-0.9,2.7l0.9,2.7l2.3,1.7h2.9l2.3-1.7L1104.1,456.5z"/>
	<path class="st9" d="M1158.9,439.5l-0.9-3.2l-2.3-2.3l-3.2-0.9l-3.2,0.9l-2.3,2.3l-0.9,3.2l0.9,3.2l2.3,2.3l3.2,0.9l3.2-0.9
		l2.3-2.3L1158.9,439.5z"/>
	<path class="st9" d="M1151.2,417.5l-1.1-2.6l-2.6-1.1l-2.6,1.1l-1.1,2.6l1.1,2.6l2.6,1.1l2.6-1.1L1151.2,417.5z"/>
	<path class="st9" d="M1140.6,419.5l-1.2-2.9l-2.9-1.2l-2.9,1.2l-1.2,2.9l1.2,2.9l2.9,1.2l2.9-1.2L1140.6,419.5z"/>
	<path class="st9" d="M1178.5,450.5l-1.2-2.9l-2.9-1.2l-2.9,1.2l-1.2,2.9l1.2,2.9l2.9,1.2l2.9-1.2L1178.5,450.5z"/>
	<path class="st9" d="M1116.9,472.5l-0.8-2.6l-2.2-1.6h-2.7l-2.2,1.6l-0.8,2.6l0.8,2.6l2.2,1.6h2.7l2.2-1.6L1116.9,472.5z"/>
	<path class="st9" d="M1153.4,459.5l-0.9-2.9l-2.4-1.8h-3l-2.4,1.8l-0.9,2.9l0.9,2.9l2.4,1.8h3l2.4-1.8L1153.4,459.5z"/>
	<path class="st9" d="M1141.3,414.5l-1.1-2.7l-2.7-1.1l-2.7,1.1l-1.1,2.7l1.1,2.7l2.7,1.1l2.7-1.1L1141.3,414.5z"/>
	<path class="st9" d="M1113.3,418.5l-1.1-2.7l-2.7-1.1l-2.7,1.1l-1.1,2.7l1.1,2.7l2.7,1.1l2.7-1.1L1113.3,418.5z"/>
	<path class="st9" d="M1187.3,441.5l-1.1-2.7l-2.7-1.1l-2.7,1.1l-1.1,2.7l1.1,2.7l2.7,1.1l2.7-1.1L1187.3,441.5z"/>
	<path class="st9" d="M1227.8,444.5l-1-2.4l-2.4-1l-2.4,1l-1,2.4l1,2.4l2.4,1l2.4-1L1227.8,444.5z"/>
	<path class="st9" d="M1179.7,421.5l-0.8-2.5l-2.1-1.5h-2.6l-2.1,1.5l-0.8,2.5l0.8,2.5l2.1,1.5h2.6l2.1-1.5L1179.7,421.5z"/>
	<path class="st9" d="M1177.3,469.5l-0.8-2l-2-0.8l-2,0.8l-0.8,2l0.8,2l2,0.8l2-0.8L1177.3,469.5z"/>
	<path class="st9" d="M1034,489.5l-1-2.4l-2.4-1l-2.4,1l-1,2.4l1,2.4l2.4,1l2.4-1L1034,489.5z"/>
	<path class="st9" d="M1082.6,444.5l-0.9-2.2l-2.2-0.9l-2.2,0.9l-0.9,2.2l0.9,2.2l2.2,0.9l2.2-0.9L1082.6,444.5z"/>
	<path class="st9" d="M1150.1,433.5l-0.9-2.7l-2.3-1.7h-2.8l-2.3,1.7l-0.9,2.7l0.9,2.7l2.3,1.7h2.8l2.3-1.7L1150.1,433.5z"/>
	<path class="st9" d="M1167.3,522.5l-1.1-2.7l-2.7-1.1l-2.7,1.1l-1.1,2.7l1.1,2.7l2.7,1.1l2.7-1.1L1167.3,522.5z"/>
	<path class="st9" d="M1101.8,459.5l-0.8-2.5l-2.2-1.6h-2.7l-2.2,1.6l-0.8,2.5l0.8,2.5l2.2,1.6h2.7l2.2-1.6L1101.8,459.5z"/>
	<path class="st9" d="M1054.2,447.5l-1.1-3.3l-2.8-2.1h-3.5l-2.8,2.1l-1.1,3.3l1.1,3.3l2.8,2.1h3.5l2.8-2.1L1054.2,447.5z"/>
	<path class="st9" d="M1158,448.5l-0.9-2.7l-2.3-1.6h-2.8l-2.3,1.6l-0.9,2.7l0.9,2.7l2.3,1.6h2.8l2.3-1.6L1158,448.5z"/>
	<path class="st9" d="M1186,443.5l-0.9-3.3l-2.4-2.4l-3.3-0.9l-3.3,0.9l-2.4,2.4l-0.9,3.3l0.9,3.3l2.4,2.4l3.3,0.9l3.3-0.9l2.4-2.4
		L1186,443.5z"/>
	<path class="st9" d="M1126.2,471.5l-1.1-3.4l-2.9-2.1h-3.5l-2.9,2.1l-1.1,3.4l1.1,3.4l2.9,2.1h3.5l2.9-2.1L1126.2,471.5z"/>
	<path class="st9" d="M1202.4,419.5l-0.9-2.9l-2.5-1.8h-3.1l-2.5,1.8l-0.9,2.9l0.9,2.9l2.5,1.8h3.1l2.5-1.8L1202.4,419.5z"/>
	<path class="st9" d="M1091.3,494.5l-1.1-2.7l-2.7-1.1l-2.7,1.1l-1.1,2.7l1.1,2.7l2.7,1.1l2.7-1.1L1091.3,494.5z"/>
	<path class="st9" d="M1170.7,477.5l-1-3.1l-2.6-1.9h-3.2l-2.6,1.9l-1,3.1l1,3.1l2.6,1.9h3.2l2.6-1.9L1170.7,477.5z"/>
	<path class="st9" d="M1148.5,446.5l-1.1-3.5l-3-2.2h-3.7l-3,2.2l-1.1,3.5l1.1,3.5l3,2.2h3.7l3-2.2L1148.5,446.5z"/>
	<path class="st9" d="M1182.2,438.5l-1.1-3.3l-2.8-2.1h-3.5l-2.8,2.1l-1.1,3.3l1.1,3.3l2.8,2.1h3.5l2.8-2.1L1182.2,438.5z"/>
	<path class="st9" d="M1194.5,433.5l-1-2.9l-2.5-1.8h-3.1l-2.5,1.8l-1,2.9l1,2.9l2.5,1.8h3.1l2.5-1.8L1194.5,433.5z"/>
	<path class="st9" d="M1135.7,446.5l-1-3.6l-2.7-2.7l-3.6-1l-3.6,1l-2.7,2.7l-1,3.6l1,3.6l2.7,2.7l3.6,1l3.6-1l2.7-2.7L1135.7,446.5
		z"/>
	<path class="st9" d="M1183.5,468.5l-1-2.9l-2.5-1.8h-3.1l-2.5,1.8l-1,2.9l1,2.9l2.5,1.8h3.1l2.5-1.8L1183.5,468.5z"/>
	<path class="st9" d="M1179.4,473.5l-0.9-2.9l-2.4-1.8h-3l-2.4,1.8l-0.9,2.9l0.9,2.9l2.4,1.8h3l2.4-1.8L1179.4,473.5z"/>
	<path class="st9" d="M1096.4,442.5l-1.1-2.8l-2.8-1.1l-2.8,1.1l-1.1,2.8l1.1,2.8l2.8,1.1l2.8-1.1L1096.4,442.5z"/>
	<path class="st9" d="M1152.5,455.5l-1.2-2.8l-2.8-1.2l-2.8,1.2l-1.2,2.8l1.2,2.8l2.8,1.2l2.8-1.2L1152.5,455.5z"/>
	<path class="st9" d="M1191.9,397.5l-1-3.2l-2.7-2h-3.4l-2.7,2l-1,3.2l1,3.2l2.7,2h3.4l2.7-2L1191.9,397.5z"/>
	<path class="st9" d="M1097.9,466.5l-1-2.4l-2.4-1l-2.4,1l-1,2.4l1,2.4l2.4,1l2.4-1L1097.9,466.5z"/>
	<path class="st9" d="M1157.6,458.5l-1.2-3.6l-3-2.2h-3.8l-3,2.2l-1.2,3.6l1.2,3.6l3,2.2h3.8l3-2.2L1157.6,458.5z"/>
	<path class="st9" d="M1158,422.5l-1-3.2l-2.7-2h-3.4l-2.7,2l-1,3.2l1,3.2l2.7,2h3.4l2.7-2L1158,422.5z"/>
	<path class="st9" d="M1172.1,438.5l-0.9-2.7l-2.3-1.7h-2.9l-2.3,1.7l-0.9,2.7l0.9,2.7l2.3,1.7h2.9l2.3-1.7L1172.1,438.5z"/>
	<path class="st9" d="M1143.6,465.5l-1.2-3.6l-3.1-2.2h-3.8l-3.1,2.2l-1.2,3.6l1.2,3.6l3.1,2.2h3.8l3.1-2.2L1143.6,465.5z"/>
	<path class="st9" d="M1199.3,451.5l-1.1-2.7l-2.7-1.1l-2.7,1.1l-1.1,2.7l1.1,2.7l2.7,1.1l2.7-1.1L1199.3,451.5z"/>
	<path class="st9" d="M1147,481.5l-1-2.5l-2.5-1l-2.5,1l-1,2.5l1,2.5l2.5,1l2.5-1L1147,481.5z"/>
	<path class="st9" d="M1196.9,428.5l-0.8-2.6l-2.2-1.6h-2.7l-2.2,1.6l-0.8,2.6l0.8,2.6l2.2,1.6h2.7l2.2-1.6L1196.9,428.5z"/>
	<path class="st9" d="M1200.7,438.5l-1-3l-2.6-1.9h-3.2l-2.6,1.9l-1,3l1,3l2.6,1.9h3.2l2.6-1.9L1200.7,438.5z"/>
	<path class="st9" d="M1200.9,435.5l-1-3.2l-2.7-2h-3.3l-2.7,2l-1,3.2l1,3.2l2.7,2h3.3l2.7-2L1200.9,435.5z"/>
	<path class="st9" d="M1153.1,438.5l-1.1-2.6l-2.6-1.1l-2.6,1.1l-1.1,2.6l1.1,2.6l2.6,1.1l2.6-1.1L1153.1,438.5z"/>
	<path class="st9" d="M1150.7,453.5l-1-3l-2.6-1.9h-3.2l-2.6,1.9l-1,3l1,3l2.6,1.9h3.2l2.6-1.9L1150.7,453.5z"/>
	<path class="st9" d="M1165.4,440.5l-1.1-3.4l-2.9-2.1h-3.6l-2.9,2.1l-1.1,3.4l1.1,3.4l2.9,2.1h3.6l2.9-2.1L1165.4,440.5z"/>
	<path class="st9" d="M1154.4,438.5l-1.2-2.8l-2.8-1.2l-2.8,1.2l-1.2,2.8l1.2,2.8l2.8,1.2l2.8-1.2L1154.4,438.5z"/>
	<path class="st9" d="M1156.8,391.5l-1-2.3l-2.3-1l-2.3,1l-1,2.3l1,2.3l2.3,1l2.3-1L1156.8,391.5z"/>
	<path class="st9" d="M1176.5,444.5l-0.9-3.5l-2.6-2.6l-3.5-0.9l-3.5,0.9l-2.6,2.6l-0.9,3.5l0.9,3.5l2.6,2.6l3.5,0.9l3.5-0.9
		l2.6-2.6L1176.5,444.5z"/>
	<path class="st9" d="M1180.9,422.5l-1-3.2l-2.7-2h-3.3l-2.7,2l-1,3.2l1,3.2l2.7,2h3.3l2.7-2L1180.9,422.5z"/>
	<path class="st9" d="M1114.7,476.5l-0.8-2.5l-2.1-1.5h-2.6l-2.1,1.5l-0.8,2.5l0.8,2.5l2.1,1.5h2.6l2.1-1.5L1114.7,476.5z"/>
	<path class="st9" d="M1155.4,438.5l-1.1-2.7l-2.7-1.1l-2.7,1.1l-1.1,2.7l1.1,2.7l2.7,1.1l2.7-1.1L1155.4,438.5z"/>
	<path class="st9" d="M1124.2,496.5l-1.1-2.6l-2.6-1.1l-2.6,1.1l-1.1,2.6l1.1,2.6l2.6,1.1l2.6-1.1L1124.2,496.5z"/>
	<path class="st9" d="M1196.2,489.5l-1.1-2.6l-2.6-1.1l-2.6,1.1l-1.1,2.6l1.1,2.6l2.6,1.1l2.6-1.1L1196.2,489.5z"/>
	<path class="st9" d="M1175.2,481.5l-1.1-2.6l-2.6-1.1l-2.6,1.1l-1.1,2.6l1.1,2.6l2.6,1.1l2.6-1.1L1175.2,481.5z"/>
	<path class="st9" d="M1165.7,458.5l-1-3l-2.6-1.9h-3.2l-2.6,1.9l-1,3l1,3l2.6,1.9h3.2l2.6-1.9L1165.7,458.5z"/>
	<path class="st9" d="M1170.9,465.5l-0.8-2.6l-2.2-1.6h-2.7l-2.2,1.6l-0.8,2.6l0.8,2.6l2.2,1.6h2.7l2.2-1.6L1170.9,465.5z"/>
	<path class="st9" d="M1059.4,497.5l-0.8-2l-2-0.8l-2,0.8l-0.8,2l0.8,2l2,0.8l2-0.8L1059.4,497.5z"/>
	<path class="st9" d="M1207.7,448.5l-0.8-2.4l-2.1-1.5h-2.6l-2.1,1.5l-0.8,2.4l0.8,2.4l2.1,1.5h2.6l2.1-1.5L1207.7,448.5z"/>
	<path class="st9" d="M1167.6,437.5l-1-3l-2.6-1.9h-3.2l-2.6,1.9l-1,3l1,3l2.6,1.9h3.2l2.6-1.9L1167.6,437.5z"/>
	<path class="st9" d="M1176.4,467.5l-1.1-3.5l-2.9-2.1h-3.6l-2.9,2.1l-1.1,3.5l1.1,3.5l2.9,2.1h3.6l2.9-2.1L1176.4,467.5z"/>
	<path class="st9" d="M1179,438.5l-0.9-2.6l-2.3-1.6h-2.8l-2.3,1.6l-0.9,2.6l0.9,2.6l2.3,1.6h2.8l2.3-1.6L1179,438.5z"/>
	<path class="st9" d="M1154.3,455.5l-1.1-2.7l-2.7-1.1l-2.7,1.1l-1.1,2.7l1.1,2.7l2.7,1.1l2.7-1.1L1154.3,455.5z"/>
	<path class="st9" d="M1127.9,417.5l-1-2.4l-2.4-1l-2.4,1l-1,2.4l1,2.4l2.4,1l2.4-1L1127.9,417.5z"/>
	<path class="st9" d="M1110.3,481.5l-0.9-2.8l-2.4-1.7h-3l-2.4,1.7l-0.9,2.8l0.9,2.8l2.4,1.7h3l2.4-1.7L1110.3,481.5z"/>
	<path class="st9" d="M1096,488.5l-0.9-2.7l-2.3-1.6h-2.8l-2.3,1.6l-0.9,2.7l0.9,2.7l2.3,1.6h2.8l2.3-1.6L1096,488.5z"/>
	<path class="st9" d="M1118.4,437.5l-1.2-2.8l-2.8-1.2l-2.8,1.2l-1.2,2.8l1.2,2.8l2.8,1.2l2.8-1.2L1118.4,437.5z"/>
	<path class="st9" d="M1138.5,435.5l-1.2-2.9l-2.9-1.2l-2.9,1.2l-1.2,2.9l1.2,2.9l2.9,1.2l2.9-1.2L1138.5,435.5z"/>
	<path class="st9" d="M1160.7,469.5l-1-3l-2.6-1.9h-3.2l-2.6,1.9l-1,3l1,3l2.6,1.9h3.2l2.6-1.9L1160.7,469.5z"/>
	<path class="st9" d="M1185.9,421.5l-1-3.2l-2.7-2h-3.3l-2.7,2l-1,3.2l1,3.2l2.7,2h3.3l2.7-2L1185.9,421.5z"/>
	<path class="st9" d="M1311.4,454.5l-0.9-2.1l-2.1-0.9l-2.1,0.9l-0.9,2.1l0.9,2.1l2.1,0.9l2.1-0.9L1311.4,454.5z"/>
	<path class="st9" d="M1157.2,411.5l-0.8-1.9l-1.9-0.8l-1.9,0.8l-0.8,1.9l0.8,1.9l1.9,0.8l1.9-0.8L1157.2,411.5z"/>
	<path class="st9" d="M1098.4,539.5l-0.9-2.1l-2.1-0.9l-2.1,0.9l-0.9,2.1l0.9,2.1l2.1,0.9l2.1-0.9L1098.4,539.5z"/>
	<path class="st9" d="M1152.1,450.5l-0.9-2.7l-2.3-1.7h-2.9l-2.3,1.7l-0.9,2.7l0.9,2.7l2.3,1.7h2.9l2.3-1.7L1152.1,450.5z"/>
	<path class="st9" d="M1137.5,448.5l-0.9-2.1l-2.1-0.9l-2.1,0.9l-0.9,2.1l0.9,2.1l2.1,0.9l2.1-0.9L1137.5,448.5z"/>
	<path class="st9" d="M1141.2,460.5l-1.1-2.6l-2.6-1.1l-2.6,1.1l-1.1,2.6l1.1,2.6l2.6,1.1l2.6-1.1L1141.2,460.5z"/>
	<path class="st9" d="M1162.7,495.5l-0.9-2.3l-2.3-0.9l-2.3,0.9l-0.9,2.3l0.9,2.3l2.3,0.9l2.3-0.9L1162.7,495.5z"/>
	<path class="st9" d="M1128.1,437.5l-0.8-1.8l-1.8-0.8l-1.8,0.8l-0.8,1.8l0.8,1.8l1.8,0.8l1.8-0.8L1128.1,437.5z"/>
	<path class="st9" d="M1233.4,409.5l-0.9-2.1l-2.1-0.9l-2.1,0.9l-0.9,2.1l0.9,2.1l2.1,0.9l2.1-0.9L1233.4,409.5z"/>
	<path class="st9" d="M1154.1,466.5l-1-2.5l-2.5-1l-2.5,1l-1,2.5l1,2.5l2.5,1l2.5-1L1154.1,466.5z"/>
	<path class="st9" d="M1127.7,453.5l-0.9-2.3l-2.3-0.9l-2.3,0.9l-0.9,2.3l0.9,2.3l2.3,0.9l2.3-0.9L1127.7,453.5z"/>
	<path class="st9" d="M1182.1,422.5l-1.1-2.5l-2.5-1.1l-2.5,1.1l-1.1,2.5l1.1,2.5l2.5,1.1l2.5-1.1L1182.1,422.5z"/>
	<path class="st9" d="M1126.3,425.5l-0.8-2l-2-0.8l-2,0.8l-0.8,2l0.8,2l2,0.8l2-0.8L1126.3,425.5z"/>
	<path class="st9" d="M1069.2,440.5l-0.8-1.9l-1.9-0.8l-1.9,0.8l-0.8,1.9l0.8,1.9l1.9,0.8l1.9-0.8L1069.2,440.5z"/>
	<path class="st9" d="M1109.8,458.5l-1-2.4l-2.4-1l-2.4,1l-1,2.4l1,2.4l2.4,1l2.4-1L1109.8,458.5z"/>
	<path class="st9" d="M1162,476.5l-1-2.5l-2.5-1l-2.5,1l-1,2.5l1,2.5l2.5,1l2.5-1L1162,476.5z"/>
	<path class="st9" d="M1159.7,469.5l-0.9-2.3l-2.3-0.9l-2.3,0.9l-0.9,2.3l0.9,2.3l2.3,0.9l2.3-0.9L1159.7,469.5z"/>
	<path class="st9" d="M1194.6,438.5l-0.9-2.2l-2.2-0.9l-2.2,0.9l-0.9,2.2l0.9,2.2l2.2,0.9l2.2-0.9L1194.6,438.5z"/>
	<path class="st9" d="M1138.3,460.5l-1.1-2.7l-2.7-1.1l-2.7,1.1l-1.1,2.7l1.1,2.7l2.7,1.1l2.7-1.1L1138.3,460.5z"/>
	<path class="st9" d="M1158,465.5l-1-2.5l-2.5-1l-2.5,1l-1,2.5l1,2.5l2.5,1l2.5-1L1158,465.5z"/>
	<path class="st9" d="M1192.2,488.5l-0.8-1.9l-1.9-0.8l-1.9,0.8l-0.8,1.9l0.8,1.9l1.9,0.8l1.9-0.8L1192.2,488.5z"/>
	<path class="st9" d="M1157.2,442.5l-1.1-2.6l-2.6-1.1l-2.6,1.1l-1.1,2.6l1.1,2.6l2.6,1.1l2.6-1.1L1157.2,442.5z"/>
	<path class="st9" d="M1234.7,420.5l-0.9-2.3l-2.3-0.9l-2.3,0.9l-0.9,2.3l0.9,2.3l2.3,0.9l2.3-0.9L1234.7,420.5z"/>
	<path class="st9" d="M1085.1,532.5l-0.8-1.8l-1.8-0.8l-1.8,0.8l-0.8,1.8l0.8,1.8l1.8,0.8l1.8-0.8L1085.1,532.5z"/>
	<path class="st9" d="M1090.7,443.5l-0.9-2.3l-2.3-0.9l-2.3,0.9l-0.9,2.3l0.9,2.3l2.3,0.9l2.3-0.9L1090.7,443.5z"/>
	<path class="st9" d="M1072,440.5l-1.3-2.2h-2.5l-1.3,2.2l1.3,2.2h2.5L1072,440.5z"/>
	<path class="st9" d="M1182.7,465.5l-0.9-2.3l-2.3-0.9l-2.3,0.9l-0.9,2.3l0.9,2.3l2.3,0.9l2.3-0.9L1182.7,465.5z"/>
	<path class="st9" d="M1064.6,472.5l-0.9-2.2l-2.2-0.9l-2.2,0.9l-0.9,2.2l0.9,2.2l2.2,0.9l2.2-0.9L1064.6,472.5z"/>
	<path class="st9" d="M1079.8,471.5l-0.8-2.5l-2.1-1.6h-2.6l-2.1,1.6l-0.8,2.5l0.8,2.5l2.1,1.6h2.6l2.1-1.6L1079.8,471.5z"/>
	<path class="st9" d="M1155.5,460.5l-1.2-2.8l-2.8-1.2l-2.8,1.2l-1.2,2.8l1.2,2.8l2.8,1.2l2.8-1.2L1155.5,460.5z"/>
	<path class="st9" d="M1174.8,489.5l-1-3.1l-2.7-1.9h-3.3l-2.7,1.9l-1,3.1l1,3.1l2.7,1.9h3.3l2.7-1.9L1174.8,489.5z"/>
	<path class="st9" d="M1165,420.5l-1-2.4l-2.4-1l-2.4,1l-1,2.4l1,2.4l2.4,1l2.4-1L1165,420.5z"/>
	<path class="st9" d="M1097.7,510.5l-0.8-2.5l-2.1-1.5h-2.6l-2.1,1.5l-0.8,2.5l0.8,2.5l2.1,1.5h2.6l2.1-1.5L1097.7,510.5z"/>
	<path class="st9" d="M1170.2,446.5l-1.1-2.6l-2.6-1.1l-2.6,1.1l-1.1,2.6l1.1,2.6l2.6,1.1l2.6-1.1L1170.2,446.5z"/>
	<path class="st9" d="M1059.1,538.5l-0.8-1.8l-1.8-0.8l-1.8,0.8l-0.8,1.8l0.8,1.8l1.8,0.8l1.8-0.8L1059.1,538.5z"/>
	<path class="st9" d="M1032.4,371.5l-0.9-2.1l-2.1-0.9l-2.1,0.9l-0.9,2.1l0.9,2.1l2.1,0.9l2.1-0.9L1032.4,371.5z"/>
	<path class="st9" d="M1236.6,447.5l-1.2-2.9l-2.9-1.2l-2.9,1.2l-1.2,2.9l1.2,2.9l2.9,1.2l2.9-1.2L1236.6,447.5z"/>
	<path class="st9" d="M1186.5,474.5l-1.2-2.9l-2.9-1.2l-2.9,1.2l-1.2,2.9l1.2,2.9l2.9,1.2l2.9-1.2L1186.5,474.5z"/>
	<path class="st9" d="M1250.4,471.5l-1.1-2.8l-2.8-1.1l-2.8,1.1l-1.1,2.8l1.1,2.8l2.8,1.1l2.8-1.1L1250.4,471.5z"/>
	<path class="st9" d="M1207.2,469.5l-1.1-2.6l-2.6-1.1l-2.6,1.1l-1.1,2.6l1.1,2.6l2.6,1.1l2.6-1.1L1207.2,469.5z"/>
	<path class="st9" d="M1145.5,454.5l-0.9-2.2l-2.2-0.9l-2.2,0.9l-0.9,2.2l0.9,2.2l2.2,0.9l2.2-0.9L1145.5,454.5z"/>
	<path class="st9" d="M1139.9,445.5l-0.9-3.2l-2.3-2.3l-3.2-0.9l-3.2,0.9l-2.3,2.3l-0.9,3.2l0.9,3.2l2.3,2.3l3.2,0.9l3.2-0.9
		l2.3-2.3L1139.9,445.5z"/>
</g>
<g transform="translate(1520,357.782)">
	<text transform="matrix(1 0 0 1 -82 5.5)" class="st9 st4 st5">ISA: 0.24</text>
</g>
<g transform="translate(1239.0012,166.25)">
	<text transform="matrix(1 0 0 1 -125.1826 -4)" class="st10 st11">dlPFC</text>
</g>
<g>
	<text transform="matrix(1 0 0 1 507.2223 795.7473)" class="st4 st5">Stronger for Orientation Rule</text>
	<text transform="matrix(1 0 0 1 343.8122 795.7473)" class="st4 st5">Stronger for Color Rule</text>
	<g>
		<line class="st12" x1="433.3" y1="811.8" x2="398.2" y2="811.8"/>
		<g>
			<line class="st13" x1="433.3" y1="811.8" x2="407" y2="811.8"/>
			<g>
				<polygon points="409,808.9 398.2,811.8 409,814.7 				"/>
			</g>
		</g>
	</g>
	<g>
		<line class="st12" x1="579.1" y1="811.8" x2="614.2" y2="811.8"/>
		<g>
			<line class="st13" x1="579.1" y1="811.8" x2="605.4" y2="811.8"/>
			<g>
				<polygon points="603.4,814.7 614.2,811.8 603.4,808.9 				"/>
			</g>
		</g>
	</g>
</g>
<g>
	<text transform="matrix(1 0 0 1 1173.1223 795.7474)" class="st4 st5">Stronger for Orientation Rule</text>
	<text transform="matrix(1 0 0 1 1009.7122 795.7474)" class="st4 st5">Stronger for Color Rule</text>
	<g>
		<line class="st12" x1="1099.2" y1="811.8" x2="1064.1" y2="811.8"/>
		<g>
			<line class="st13" x1="1099.2" y1="811.8" x2="1072.9" y2="811.8"/>
			<g>
				<polygon points="1074.9,808.9 1064.1,811.8 1074.9,814.7 				"/>
			</g>
		</g>
	</g>
	<g>
		<line class="st12" x1="1245" y1="811.8" x2="1280.1" y2="811.8"/>
		<g>
			<line class="st13" x1="1245" y1="811.8" x2="1271.3" y2="811.8"/>
			<g>
				<polygon points="1269.3,814.7 1280.1,811.8 1269.3,808.9 				"/>
			</g>
		</g>
	</g>
</g>
<text transform="matrix(4.489659e-011 -1 1 4.489659e-011 140.9559 453.4521)" class="st4 st5">Stronger for Orientation Rule</text>
<text transform="matrix(4.489659e-011 -1 1 4.489659e-011 140.9559 616.8623)" class="st4 st5">Stronger for Color Rule</text>
<g>
	<line class="st12" x1="157" y1="527.3" x2="157" y2="562.4"/>
	<g>
		<line class="st13" x1="157" y1="527.3" x2="157" y2="553.6"/>
		<g>
			<polygon points="154.1,551.6 157,562.4 159.9,551.6 			"/>
		</g>
	</g>
</g>
<g>
	<line class="st12" x1="157" y1="381.5" x2="157" y2="346.4"/>
	<g>
		<line class="st13" x1="157" y1="381.5" x2="157" y2="355.2"/>
		<g>
			<polygon points="159.9,357.2 157,346.4 154.1,357.2 			"/>
		</g>
	</g>
</g>
</svg>
