<?xml version="1.0" encoding="utf-8"?>
<!-- Generator: Adobe Illustrator 19.2.1, SVG Export Plug-In . SVG Version: 6.00 Build 0)  -->
<svg version="1.1" id="Layer_1" xmlns="http://www.w3.org/2000/svg" xmlns:xlink="http://www.w3.org/1999/xlink" x="0px" y="0px"
	 viewBox="0 0 1348.4 987" style="enable-background:new 0 0 1348.4 987;" xml:space="preserve">
<style type="text/css">
	.st0{fill:none;stroke:#000000;stroke-width:1.3333;stroke-linejoin:bevel;stroke-miterlimit:1;stroke-dasharray:1,3;}
	.st1{fill:none;stroke:#262626;stroke-linecap:square;stroke-miterlimit:10;stroke-opacity:0.149;}
	.st2{fill:none;stroke:#000000;stroke-linecap:square;stroke-miterlimit:10;}
	.st3{font-family:'ArialMT';}
	.st4{font-size:13px;}
	.st5{fill:none;stroke:#66C2A5;stroke-linecap:square;stroke-miterlimit:10;}
	.st6{fill:#66C2A5;}
	.st7{fill:none;stroke:#7570B3;stroke-linecap:square;stroke-miterlimit:10;}
	.st8{fill:#7570B3;}
	.st9{font-size:14px;}
	.st10{fill:none;}
	.st11{fill:none;stroke:#000000;stroke-width:2;stroke-miterlimit:10;}
	.st12{font-size:36px;}
	.st13{font-size:24px;}
</style>
<line class="st0" x1="404.9" y1="915.9" x2="404.9" y2="73"/>
<line class="st1" x1="668.4" y1="852.8" x2="141.4" y2="852.8"/>
<line class="st1" x1="668.4" y1="726.7" x2="141.4" y2="726.7"/>
<line class="st1" x1="668.4" y1="600.5" x2="141.4" y2="600.5"/>
<line class="st1" x1="668.4" y1="474.4" x2="141.4" y2="474.4"/>
<line class="st1" x1="668.4" y1="348.2" x2="141.4" y2="348.2"/>
<line class="st1" x1="668.4" y1="212.1" x2="141.4" y2="212.1"/>
<line class="st1" x1="668.4" y1="86" x2="141.4" y2="86"/>
<line class="st2" x1="141.4" y1="915.9" x2="668.4" y2="915.9"/>
<g transform="translate(216,969.3333)">
	<text transform="matrix(1 0 0 1 -89.6267 -39.1146)" class="st3 st4">-0.04</text>
</g>
<g transform="translate(281.875,969.3333)">
	<text transform="matrix(1 0 0 1 -89.6267 -39.1146)" class="st3 st4">-0.03</text>
</g>
<g transform="translate(347.75,969.3333)">
	<text transform="matrix(1 0 0 1 -89.6267 -39.1146)" class="st3 st4">-0.02</text>
</g>
<g transform="translate(413.625,969.3333)">
	<text transform="matrix(1 0 0 1 -89.6267 -39.1146)" class="st3 st4">-0.01</text>
</g>
<g transform="translate(479.5,969.3333)">
	<text transform="matrix(1 0 0 1 -78.6267 -39.1146)" class="st3 st4">0</text>
</g>
<g transform="translate(545.375,969.3333)">
	<text transform="matrix(1 0 0 1 -87.6267 -39.1146)" class="st3 st4">0.01</text>
</g>
<g transform="translate(611.25,969.3333)">
	<text transform="matrix(1 0 0 1 -87.6267 -39.1146)" class="st3 st4">0.02</text>
</g>
<g transform="translate(677.125,969.3333)">
	<text transform="matrix(1 0 0 1 -87.6267 -39.1146)" class="st3 st4">0.03</text>
</g>
<g transform="translate(743,969.3333)">
	<text transform="matrix(1 0 0 1 -87.6267 -39.1146)" class="st3 st4">0.04</text>
</g>
<g transform="translate(210.6667,900.9286)">
	<text transform="matrix(1 0 0 1 -178.3747 -42.6146)" class="st3 st4">Rule@Repetition5+</text>
</g>
<g transform="translate(210.6667,774.7857)">
	<text transform="matrix(1 0 0 1 -170.6267 -42.6146)" class="st3 st4">Rule@Repetition4</text>
</g>
<g transform="translate(210.6667,648.6429)">
	<text transform="matrix(1 0 0 1 -170.6267 -42.6146)" class="st3 st4">Rule@Repetition3</text>
</g>
<g transform="translate(210.6667,522.5)">
	<text transform="matrix(1 0 0 1 -170.6267 -42.6146)" class="st3 st4">Rule@Repetition2</text>
</g>
<g transform="translate(210.6667,396.3571)">
	<text transform="matrix(1 0 0 1 -170.6267 -42.6146)" class="st3 st4">Rule@Repetition1</text>
</g>
<g transform="translate(210.6667,270.2143)">
	<text transform="matrix(1 0 0 1 -182.4958 -52.6146)" class="st3 st4">Rule@Previous Error</text>
</g>
<g transform="translate(210.6667,144.0714)">
	<text transform="matrix(1 0 0 1 -200.9426 -52.6146)" class="st3 st4">Rule@No Previous Error</text>
</g>
<line class="st5" x1="420.4" y1="852.8" x2="480.8" y2="852.8"/>
<line class="st5" x1="343" y1="726.7" x2="610.2" y2="726.7"/>
<line class="st5" x1="226.5" y1="600.5" x2="496.6" y2="600.5"/>
<line class="st5" x1="270.1" y1="474.4" x2="574.7" y2="474.4"/>
<line class="st5" x1="156" y1="348.2" x2="477.4" y2="348.2"/>
<line class="st5" x1="262.6" y1="212.1" x2="542.7" y2="212.1"/>
<line class="st5" x1="410.2" y1="86" x2="478.7" y2="86"/>
<path class="st6" d="M458.7,852.4l-1.1-3.4l-2.9-2.1h-3.6l-2.9,2.1l-1.1,3.4l1.1,3.4l2.9,2.1h3.6l2.9-2.1L458.7,852.4z"/>
<path class="st6" d="M477.7,726.4l-1.1-3.4l-2.9-2.1h-3.6l-2.9,2.1l-1.1,3.4l1.1,3.4l2.9,2.1h3.6l2.9-2.1L477.7,726.4z"/>
<path class="st6" d="M366.7,600.4l-1.1-3.4l-2.9-2.1h-3.6l-2.9,2.1l-1.1,3.4l1.1,3.4l2.9,2.1h3.6l2.9-2.1L366.7,600.4z"/>
<path class="st6" d="M418.7,474.4l-1.1-3.4l-2.9-2.1h-3.6l-2.9,2.1l-1.1,3.4l1.1,3.4l2.9,2.1h3.6l2.9-2.1L418.7,474.4z"/>
<path class="st6" d="M325.7,348.4l-1.1-3.4l-2.9-2.1h-3.6l-2.9,2.1l-1.1,3.4l1.1,3.4l2.9,2.1h3.6l2.9-2.1L325.7,348.4z"/>
<path class="st6" d="M407.7,212.4l-1.1-3.4l-2.9-2.1h-3.6l-2.9,2.1l-1.1,3.4l1.1,3.4l2.9,2.1h3.6l2.9-2.1L407.7,212.4z"/>
<path class="st6" d="M449.7,86.4l-1.1-3.4l-2.9-2.1h-3.6l-2.9,2.1l-1.1,3.4l1.1,3.4l2.9,2.1h3.6l2.9-2.1L449.7,86.4z"/>
<line class="st5" x1="402.2" y1="212.1" x2="444.2" y2="86"/>
<path class="st5" d="M452.6,852.8l19-126.1l-111-126.1l52-126.1l-92.5-126.1"/>
<line class="st7" x1="431.6" y1="852.8" x2="502.8" y2="852.8"/>
<line class="st7" x1="338.9" y1="726.7" x2="639.1" y2="726.7"/>
<line class="st7" x1="315.6" y1="600.5" x2="606.6" y2="600.5"/>
<line class="st7" x1="329.1" y1="474.4" x2="632.6" y2="474.4"/>
<line class="st7" x1="323.1" y1="348.2" x2="661.1" y2="348.2"/>
<line class="st7" x1="272.2" y1="212.1" x2="536.4" y2="212.1"/>
<line class="st7" x1="440" y1="86" x2="519.2" y2="86"/>
<path class="st8" d="M476.7,852.4l-1.1-3.4l-2.9-2.1h-3.6l-2.9,2.1l-1.1,3.4l1.1,3.4l2.9,2.1h3.6l2.9-2.1L476.7,852.4z"/>
<path class="st8" d="M493.7,726.4l-1.1-3.4l-2.9-2.1h-3.6l-2.9,2.1l-1.1,3.4l1.1,3.4l2.9,2.1h3.6l2.9-2.1L493.7,726.4z"/>
<path class="st8" d="M470.7,600.4l-1.1-3.4l-2.9-2.1h-3.6l-2.9,2.1l-1.1,3.4l1.1,3.4l2.9,2.1h3.6l2.9-2.1L470.7,600.4z"/>
<path class="st8" d="M491.7,474.4l-1.1-3.4l-2.9-2.1h-3.6l-2.9,2.1l-1.1,3.4l1.1,3.4l2.9,2.1h3.6l2.9-2.1L491.7,474.4z"/>
<path class="st8" d="M500.7,348.4l-1.1-3.4l-2.9-2.1h-3.6l-2.9,2.1l-1.1,3.4l1.1,3.4l2.9,2.1h3.6l2.9-2.1L500.7,348.4z"/>
<path class="st8" d="M413.7,212.4l-1.1-3.4l-2.9-2.1h-3.6l-2.9,2.1l-1.1,3.4l1.1,3.4l2.9,2.1h3.6l2.9-2.1L413.7,212.4z"/>
<path class="st8" d="M486.7,86.4l-1.1-3.4l-2.9-2.1h-3.6l-2.9,2.1l-1.1,3.4l1.1,3.4l2.9,2.1h3.6l2.9-2.1L486.7,86.4z"/>
<line class="st7" x1="408" y1="212.1" x2="480.8" y2="86"/>
<path class="st7" d="M470.5,852.8l17.6-126.1l-22.8-126.1l20.1-126.1l9.9-126.1"/>
<line class="st1" x1="1333.4" y1="852.8" x2="806.4" y2="852.8"/>
<line class="st1" x1="1333.4" y1="726.7" x2="806.4" y2="726.7"/>
<line class="st1" x1="1333.4" y1="600.5" x2="806.4" y2="600.5"/>
<line class="st1" x1="1333.4" y1="474.4" x2="806.4" y2="474.4"/>
<line class="st1" x1="1333.4" y1="348.2" x2="806.4" y2="348.2"/>
<line class="st1" x1="1333.4" y1="212.1" x2="806.4" y2="212.1"/>
<line class="st1" x1="1333.4" y1="86" x2="806.4" y2="86"/>
<line class="st2" x1="806.4" y1="915.9" x2="1333.4" y2="915.9"/>
<g transform="translate(921,969.3333)">
	<text transform="matrix(1 0 0 1 -118.6267 -39.1146)" class="st3 st4">0</text>
</g>
<g transform="translate(996.2857,969.3333)">
	<text transform="matrix(1 0 0 1 -127.6267 -39.1146)" class="st3 st4">0.02</text>
</g>
<g transform="translate(1071.5714,969.3333)">
	<text transform="matrix(1 0 0 1 -127.6267 -39.1146)" class="st3 st4">0.04</text>
</g>
<g transform="translate(1146.8572,969.3333)">
	<text transform="matrix(1 0 0 1 -127.6267 -39.1146)" class="st3 st4">0.06</text>
</g>
<g transform="translate(1222.1428,969.3333)">
	<text transform="matrix(1 0 0 1 -127.6267 -39.1146)" class="st3 st4">0.08</text>
</g>
<g transform="translate(1297.4286,969.3333)">
	<text transform="matrix(1 0 0 1 -124.1267 -39.1146)" class="st3 st4">0.1</text>
</g>
<g transform="translate(1372.7142,969.3333)">
	<text transform="matrix(1 0 0 1 -127.6267 -39.1146)" class="st3 st4">0.12</text>
</g>
<g transform="translate(1448,969.3333)">
	<text transform="matrix(1 0 0 1 -127.6267 -39.1146)" class="st3 st4">0.14</text>
</g>
<g transform="translate(915.6667,900.9286)">
	<text transform="matrix(1 0 0 1 -218.3747 -42.6146)" class="st3 st4">Rule@Repetition5+</text>
</g>
<g transform="translate(915.6667,774.7857)">
	<text transform="matrix(1 0 0 1 -210.6267 -42.6146)" class="st3 st4">Rule@Repetition4</text>
</g>
<g transform="translate(915.6667,648.6429)">
	<text transform="matrix(1 0 0 1 -210.6267 -42.6146)" class="st3 st4">Rule@Repetition3</text>
</g>
<g transform="translate(915.6667,522.5)">
	<text transform="matrix(1 0 0 1 -210.6267 -42.6146)" class="st3 st4">Rule@Repetition2</text>
</g>
<g transform="translate(915.6667,396.3571)">
	<text transform="matrix(1 0 0 1 -210.6267 -42.6146)" class="st3 st4">Rule@Repetition1</text>
</g>
<g transform="translate(915.6667,270.2143)">
	<text transform="matrix(1 0 0 1 -222.4958 -52.6146)" class="st3 st4">Rule@Previous Error</text>
</g>
<g transform="translate(915.6667,144.0714)">
	<text transform="matrix(1 0 0 1 -240.9431 -52.6146)" class="st3 st4">Rule@No Previous Error</text>
</g>
<line class="st5" x1="879.1" y1="852.8" x2="908.3" y2="852.8"/>
<line class="st5" x1="1072.5" y1="726.7" x2="1215" y2="726.7"/>
<line class="st5" x1="1035.3" y1="600.5" x2="1179.2" y2="600.5"/>
<line class="st5" x1="1111.1" y1="474.4" x2="1251.7" y2="474.4"/>
<line class="st5" x1="1070.7" y1="348.2" x2="1210.1" y2="348.2"/>
<line class="st5" x1="1032.4" y1="212.1" x2="1137.3" y2="212.1"/>
<line class="st5" x1="876.7" y1="86" x2="908.1" y2="86"/>
<path class="st6" d="M897.7,852.4l-1.1-3.4l-2.9-2.1h-3.6l-2.9,2.1l-1.1,3.4l1.1,3.4l2.9,2.1h3.6l2.9-2.1L897.7,852.4z"/>
<path class="st6" d="M1140.7,726.4l-1.1-3.4l-2.9-2.1h-3.6l-2.9,2.1l-1.1,3.4l1.1,3.4l2.9,2.1h3.6l2.9-2.1L1140.7,726.4z"/>
<path class="st6" d="M1108.7,600.4l-1.1-3.4l-2.9-2.1h-3.6l-2.9,2.1l-1.1,3.4l1.1,3.4l2.9,2.1h3.6l2.9-2.1L1108.7,600.4z"/>
<path class="st6" d="M1182.7,474.4l-1.1-3.4l-2.9-2.1h-3.6l-2.9,2.1l-1.1,3.4l1.1,3.4l2.9,2.1h3.6l2.9-2.1L1182.7,474.4z"/>
<path class="st6" d="M1140.7,348.4l-1.1-3.4l-2.9-2.1h-3.6l-2.9,2.1l-1.1,3.4l1.1,3.4l2.9,2.1h3.6l2.9-2.1L1140.7,348.4z"/>
<path class="st6" d="M1086.7,212.4l-1.1-3.4l-2.9-2.1h-3.6l-2.9,2.1l-1.1,3.4l1.1,3.4l2.9,2.1h3.6l2.9-2.1L1086.7,212.4z"/>
<path class="st6" d="M896.7,86.4l-1.1-3.4l-2.9-2.1h-3.6l-2.9,2.1l-1.1,3.4l1.1,3.4l2.9,2.1h3.6l2.9-2.1L896.7,86.4z"/>
<line class="st5" x1="1081" y1="212.1" x2="890.8" y2="86"/>
<path class="st5" d="M891.8,852.8l243.4-126.1L1103,600.5l74.4-126.1l-42.7-126.1"/>
<line class="st7" x1="948.4" y1="852.8" x2="992" y2="852.8"/>
<line class="st7" x1="1116.6" y1="726.7" x2="1281.1" y2="726.7"/>
<line class="st7" x1="1093.9" y1="600.5" x2="1249.2" y2="600.5"/>
<line class="st7" x1="1126.7" y1="474.4" x2="1285.9" y2="474.4"/>
<line class="st7" x1="1117.9" y1="348.2" x2="1290.8" y2="348.2"/>
<line class="st7" x1="1057.2" y1="212.1" x2="1175.7" y2="212.1"/>
<line class="st7" x1="945.6" y1="86" x2="994.9" y2="86"/>
<path class="st8" d="M974.7,852.4l-1.1-3.4l-2.9-2.1h-3.6l-2.9,2.1l-1.1,3.4l1.1,3.4l2.9,2.1h3.6l2.9-2.1L974.7,852.4z"/>
<path class="st8" d="M1196.7,726.4l-1.1-3.4l-2.9-2.1h-3.6l-2.9,2.1l-1.1,3.4l1.1,3.4l2.9,2.1h3.6l2.9-2.1L1196.7,726.4z"/>
<path class="st8" d="M1172.7,600.4l-1.1-3.4l-2.9-2.1h-3.6l-2.9,2.1l-1.1,3.4l1.1,3.4l2.9,2.1h3.6l2.9-2.1L1172.7,600.4z"/>
<path class="st8" d="M1206.7,474.4l-1.1-3.4l-2.9-2.1h-3.6l-2.9,2.1l-1.1,3.4l1.1,3.4l2.9,2.1h3.6l2.9-2.1L1206.7,474.4z"/>
<path class="st8" d="M1204.7,348.4l-1.1-3.4l-2.9-2.1h-3.6l-2.9,2.1l-1.1,3.4l1.1,3.4l2.9,2.1h3.6l2.9-2.1L1204.7,348.4z"/>
<path class="st8" d="M1117.7,212.4l-1.1-3.4l-2.9-2.1h-3.6l-2.9,2.1l-1.1,3.4l1.1,3.4l2.9,2.1h3.6l2.9-2.1L1117.7,212.4z"/>
<path class="st8" d="M974.7,86.4l-1.1-3.4l-2.9-2.1h-3.6l-2.9,2.1l-1.1,3.4l1.1,3.4l2.9,2.1h3.6l2.9-2.1L974.7,86.4z"/>
<line class="st7" x1="1112.1" y1="212.1" x2="968.9" y2="86"/>
<path class="st7" d="M969.1,852.8l222.2-126.1l-24.7-126.1l34.5-126.1l-2.7-126.1"/>
<text transform="matrix(1 0 0 1 413.8371 948.8946)" class="st3 st9">Stronger for Orientation Rule</text>
<text transform="matrix(1 0 0 1 250.427 948.8946)" class="st3 st9">Stronger for Color Rule</text>
<g>
	<line class="st10" x1="340" y1="964.9" x2="304.9" y2="964.9"/>
	<g>
		<line class="st11" x1="340" y1="964.9" x2="313.7" y2="964.9"/>
		<g>
			<polygon points="315.7,962 304.9,964.9 315.7,967.8 			"/>
		</g>
	</g>
</g>
<g>
	<line class="st10" x1="485.8" y1="964.9" x2="520.9" y2="964.9"/>
	<g>
		<line class="st11" x1="485.8" y1="964.9" x2="512.1" y2="964.9"/>
		<g>
			<polygon points="510.1,967.8 520.9,964.9 510.1,962 			"/>
		</g>
	</g>
</g>
<text transform="matrix(1 0 0 1 675.9343 976.8594)" class="st3 st12">ACC</text>
<g transform="translate(500.5005,347.25)">
	<text transform="matrix(1 0 0 1 -296.8679 -295.3646)" class="st3 st13">Change in Firing Rate Between Rules</text>
</g>
<g transform="translate(500.5005,347.25)">
	<text transform="matrix(1 0 0 1 393.2366 -295.3646)" class="st3 st13">Absolute Change in Firing Rate</text>
</g>
<g transform="translate(1262.0667,187.7187)">
	<path class="st6" d="M-459.7,765.5h1.5l2.3,6.7l2.3-6.7h1.5v7.9h-1v-4.7c0-0.2,0-0.4,0-0.8c0-0.4,0-0.8,0-1.2l-2.3,6.7h-1l-2.3-6.7
		v0.2c0,0.2,0,0.5,0,0.9c0,0.4,0,0.7,0,0.9v4.7h-1C-459.7,773.4-459.7,765.5-459.7,765.5z M-447,772c0.2-0.5,0.4-1,0.4-1.6
		c0-0.5-0.1-1-0.3-1.3c-0.3-0.5-0.7-0.8-1.4-0.8c-0.6,0-1,0.2-1.3,0.7c-0.3,0.5-0.4,1-0.4,1.6s0.1,1.1,0.4,1.5
		c0.3,0.4,0.7,0.6,1.3,0.6C-447.7,772.8-447.3,772.5-447,772z M-446.4,768.2c0.5,0.5,0.7,1.2,0.7,2.2c0,0.9-0.2,1.7-0.7,2.3
		c-0.5,0.6-1.2,0.9-2.1,0.9c-0.8,0-1.4-0.3-1.9-0.8c-0.4-0.5-0.6-1.2-0.6-2.1c0-1,0.2-1.7,0.7-2.3c0.5-0.6,1.1-0.9,2-0.9
		C-447.6,767.5-446.9,767.7-446.4,768.2z M-444.5,767.6h0.9v0.8c0.3-0.3,0.6-0.6,0.9-0.7c0.3-0.1,0.6-0.2,1-0.2
		c0.8,0,1.4,0.3,1.7,0.9c0.2,0.3,0.2,0.8,0.2,1.3v3.7h-1v-3.6c0-0.4-0.1-0.6-0.2-0.8c-0.1-0.4-0.4-0.6-0.9-0.6c-0.2,0-0.4,0-0.6,0.1
		c-0.3,0.1-0.5,0.2-0.7,0.5c-0.2,0.2-0.3,0.4-0.3,0.6c0,0.1,0,0.4,0,0.8v3h-1V767.6z M-438.4,765.5h0.9v4.6l2.5-2.4h1.2l-2.2,2.2
		l2.4,3.5h-1.2l-1.8-2.9l-0.9,0.7v2.2h-0.9V765.5z M-429.3,767.8c0.4,0.2,0.7,0.4,0.9,0.7c0.2,0.3,0.3,0.6,0.4,1
		c0.1,0.3,0.1,0.7,0.1,1.3h-4.2c0,0.6,0.2,1.1,0.4,1.4c0.3,0.4,0.7,0.5,1.2,0.5s0.9-0.2,1.2-0.5c0.2-0.2,0.3-0.4,0.4-0.7h1
		c0,0.2-0.1,0.4-0.2,0.7c-0.1,0.3-0.3,0.5-0.5,0.6c-0.3,0.3-0.7,0.5-1.1,0.6c-0.2,0.1-0.5,0.1-0.8,0.1c-0.7,0-1.3-0.3-1.8-0.8
		s-0.7-1.3-0.7-2.2c0-0.9,0.3-1.7,0.8-2.3c0.5-0.6,1.2-0.9,2-0.9C-430.1,767.5-429.7,767.6-429.3,767.8z M-429,770.1
		c0-0.4-0.1-0.8-0.3-1c-0.2-0.5-0.6-0.7-1.3-0.7c-0.4,0-0.8,0.2-1.1,0.5s-0.5,0.7-0.5,1.2C-432.2,770.1-429,770.1-429,770.1z
		 M-423.2,767.6h1.1c-0.1,0.4-0.4,1.2-0.9,2.5c-0.4,1-0.6,1.8-0.9,2.4c-0.6,1.5-1,2.4-1.2,2.7c-0.2,0.3-0.6,0.5-1.2,0.5
		c-0.1,0-0.2,0-0.3,0c-0.1,0-0.2,0-0.3-0.1v-0.8c0.2,0,0.3,0.1,0.4,0.1c0.1,0,0.1,0,0.2,0c0.2,0,0.3,0,0.4-0.1
		c0.1-0.1,0.2-0.1,0.2-0.2c0,0,0.1-0.2,0.2-0.4c0.1-0.3,0.2-0.5,0.2-0.6l-2.1-5.9h1.1l1.5,4.7L-423.2,767.6z M-412.4,766.1
		c0.6,0.5,0.9,1.1,0.9,1.8h-1c-0.1-0.5-0.4-0.9-0.7-1.2c-0.4-0.3-0.8-0.4-1.5-0.4c-0.8,0-1.4,0.3-1.9,0.8s-0.7,1.4-0.7,2.5
		c0,0.9,0.2,1.7,0.6,2.2s1.1,0.9,1.9,0.9s1.4-0.3,1.8-0.9c0.2-0.4,0.4-0.8,0.5-1.3h1c-0.1,0.8-0.4,1.5-0.9,2.1c-0.6,0.7-1.5,1-2.5,1
		c-0.9,0-1.7-0.3-2.3-0.8c-0.8-0.7-1.2-1.9-1.2-3.4c0-1.2,0.3-2.1,0.9-2.9c0.7-0.8,1.6-1.2,2.8-1.2
		C-413.8,765.3-413,765.6-412.4,766.1z M-404.5,766.1c0.6,0.5,0.9,1.1,0.9,1.8h-1c-0.1-0.5-0.4-0.9-0.7-1.2
		c-0.4-0.3-0.8-0.4-1.5-0.4c-0.8,0-1.4,0.3-1.9,0.8s-0.7,1.4-0.7,2.5c0,0.9,0.2,1.7,0.6,2.2c0.4,0.6,1.1,0.9,1.9,0.9
		c0.8,0,1.4-0.3,1.8-0.9c0.3-0.4,0.4-0.8,0.6-1.3h1c-0.1,0.8-0.4,1.5-0.9,2.1c-0.6,0.7-1.5,1-2.5,1c-0.9,0-1.7-0.3-2.3-0.8
		c-0.9-0.8-1.3-1.9-1.3-3.4c0-1.2,0.3-2.1,0.9-2.9c0.7-0.8,1.6-1.2,2.8-1.2C-405.8,765.3-405,765.6-404.5,766.1z"/>
</g>
<g transform="translate(1262.0667,201.0195)">
	<path class="st8" d="M-459.7,765.5h1.5l2.3,6.7l2.3-6.7h1.5v7.9h-1v-4.7c0-0.2,0-0.4,0-0.8c0-0.4,0-0.8,0-1.2l-2.3,6.7h-1l-2.3-6.7
		v0.2c0,0.2,0,0.5,0,0.9c0,0.4,0,0.7,0,0.9v4.7h-1C-459.7,773.4-459.7,765.5-459.7,765.5z M-447,772c0.2-0.5,0.4-1,0.4-1.6
		c0-0.5-0.1-1-0.3-1.3c-0.3-0.5-0.7-0.8-1.4-0.8c-0.6,0-1,0.2-1.3,0.7c-0.3,0.5-0.4,1-0.4,1.6s0.1,1.1,0.4,1.5
		c0.3,0.4,0.7,0.6,1.3,0.6C-447.7,772.8-447.3,772.5-447,772z M-446.4,768.2c0.5,0.5,0.7,1.2,0.7,2.2c0,0.9-0.2,1.7-0.7,2.3
		c-0.5,0.6-1.2,0.9-2.1,0.9c-0.8,0-1.4-0.3-1.9-0.8c-0.4-0.5-0.6-1.2-0.6-2.2s0.2-1.7,0.7-2.3c0.5-0.6,1.1-0.9,2-0.9
		C-447.6,767.5-446.9,767.7-446.4,768.2z M-444.5,767.6h0.9v0.8c0.3-0.3,0.6-0.6,0.9-0.7c0.3-0.1,0.6-0.2,1-0.2
		c0.8,0,1.4,0.3,1.7,0.9c0.2,0.3,0.2,0.8,0.2,1.3v3.7h-1v-3.6c0-0.4-0.1-0.6-0.2-0.8c-0.1-0.4-0.4-0.6-0.9-0.6c-0.2,0-0.4,0-0.6,0.1
		c-0.3,0.1-0.5,0.2-0.7,0.5c-0.2,0.2-0.3,0.4-0.3,0.6c0,0.1,0,0.4,0,0.8v3h-1V767.6z M-438.4,765.5h0.9v4.6l2.5-2.4h1.2l-2.2,2.2
		l2.4,3.5h-1.2l-1.8-2.9l-0.9,0.7v2.2h-0.9V765.5z M-429.3,767.8c0.4,0.2,0.7,0.4,0.9,0.7c0.2,0.3,0.3,0.6,0.4,1
		c0.1,0.3,0.1,0.7,0.1,1.3h-4.2c0,0.6,0.2,1.1,0.4,1.4c0.3,0.4,0.7,0.5,1.2,0.5s0.9-0.2,1.2-0.5c0.2-0.2,0.3-0.4,0.4-0.7h1
		c0,0.2-0.1,0.4-0.2,0.7c-0.1,0.3-0.3,0.5-0.5,0.6c-0.3,0.3-0.7,0.5-1.1,0.6c-0.2,0.1-0.5,0.1-0.8,0.1c-0.7,0-1.3-0.3-1.8-0.8
		s-0.7-1.3-0.7-2.2c0-0.9,0.3-1.7,0.8-2.3c0.5-0.6,1.2-0.9,2-0.9C-430.1,767.5-429.7,767.6-429.3,767.8z M-429,770.1
		c0-0.4-0.1-0.8-0.3-1c-0.2-0.5-0.6-0.7-1.3-0.7c-0.4,0-0.8,0.2-1.1,0.5s-0.5,0.7-0.5,1.2C-432.2,770.1-429,770.1-429,770.1z
		 M-423.2,767.6h1.1c-0.1,0.4-0.4,1.2-0.9,2.5c-0.4,1-0.6,1.8-0.9,2.4c-0.6,1.5-1,2.4-1.2,2.7c-0.2,0.3-0.6,0.5-1.2,0.5
		c-0.1,0-0.2,0-0.3,0c-0.1,0-0.2,0-0.3-0.1v-0.8c0.2,0,0.3,0.1,0.4,0.1c0.1,0,0.1,0,0.2,0c0.2,0,0.3,0,0.4-0.1
		c0.1-0.1,0.2-0.1,0.2-0.2c0,0,0.1-0.2,0.2-0.4c0.1-0.3,0.2-0.5,0.2-0.6l-2.1-5.9h1.1l1.5,4.7L-423.2,767.6z M-417.8,765.5h1.1v7.9
		h-1.1V765.5z M-414.3,770.9c0,0.4,0.1,0.8,0.3,1.1c0.4,0.5,1,0.8,1.9,0.8c0.4,0,0.8-0.1,1.1-0.2c0.6-0.2,1-0.6,1-1.2
		c0-0.4-0.1-0.7-0.4-0.9c-0.3-0.2-0.7-0.3-1.3-0.5l-1.1-0.2c-0.7-0.2-1.2-0.4-1.5-0.6c-0.5-0.3-0.8-0.8-0.8-1.5
		c0-0.7,0.2-1.3,0.7-1.7c0.5-0.5,1.2-0.7,2.1-0.7c0.8,0,1.5,0.2,2.1,0.6c0.6,0.4,0.9,1,0.9,1.9h-1c-0.1-0.4-0.2-0.7-0.3-1
		c-0.4-0.4-0.9-0.6-1.7-0.6c-0.6,0-1.1,0.1-1.4,0.4s-0.4,0.6-0.4,0.9c0,0.4,0.2,0.7,0.5,0.8c0.2,0.1,0.7,0.3,1.4,0.4l1.1,0.3
		c0.6,0.2,1,0.4,1.3,0.6c0.5,0.4,0.8,0.9,0.8,1.6c0,0.9-0.3,1.5-1,1.9c-0.6,0.4-1.4,0.6-2.2,0.6c-1,0-1.7-0.3-2.3-0.8
		c-0.6-0.5-0.8-1.2-0.8-2C-415.3,770.9-414.3,770.9-414.3,770.9z M-403.6,770.2l-1.2-3.5l-1.3,3.5
		C-406.1,770.2-403.6,770.2-403.6,770.2z M-405.4,765.5h1.2l2.9,7.9h-1.2l-0.8-2.4h-3.1l-0.9,2.4h-1.1L-405.4,765.5z"/>
</g>
</svg>
