<?xml version="1.0" encoding="utf-8"?>
<!-- Generator: Adobe Illustrator 19.2.1, SVG Export Plug-In . SVG Version: 6.00 Build 0)  -->
<svg version="1.1" id="Layer_1" xmlns="http://www.w3.org/2000/svg" xmlns:xlink="http://www.w3.org/1999/xlink" x="0px" y="0px"
	 viewBox="0 0 1348.4 987" style="enable-background:new 0 0 1348.4 987;" xml:space="preserve">
<style type="text/css">
	.st0{fill:none;stroke:#000000;stroke-width:1.3333;stroke-linejoin:bevel;stroke-miterlimit:1;stroke-dasharray:1,3;}
	.st1{fill:none;stroke:#262626;stroke-linecap:square;stroke-miterlimit:10;stroke-opacity:0.149;}
	.st2{fill:none;stroke:#262626;stroke-linecap:square;stroke-miterlimit:10;}
	.st3{fill:#262626;}
	.st4{font-family:'MyriadPro-Regular';}
	.st5{font-size:13px;}
	.st6{fill:none;stroke:#66C2A5;stroke-linecap:square;stroke-miterlimit:10;}
	.st7{fill:#66C2A5;}
	.st8{fill:none;stroke:#7570B3;stroke-linecap:square;stroke-miterlimit:10;}
	.st9{fill:#7570B3;}
	.st10{font-size:14px;}
	.st11{fill:none;stroke:#000000;stroke-width:2;stroke-miterlimit:10;}
	.st12{font-size:36px;}
	.st13{font-size:24px;}
</style>
<line class="st0" x1="404.9" y1="905.9" x2="404.9" y2="63"/>
<line class="st1" x1="668.4" y1="852.8" x2="141.4" y2="852.8"/>
<line class="st1" x1="668.4" y1="726.7" x2="141.4" y2="726.7"/>
<line class="st1" x1="668.4" y1="600.5" x2="141.4" y2="600.5"/>
<line class="st1" x1="668.4" y1="474.4" x2="141.4" y2="474.4"/>
<line class="st1" x1="668.4" y1="348.2" x2="141.4" y2="348.2"/>
<line class="st1" x1="668.4" y1="212.1" x2="141.4" y2="212.1"/>
<line class="st1" x1="668.4" y1="86" x2="141.4" y2="86"/>
<line class="st2" x1="141.4" y1="915.9" x2="668.4" y2="915.9"/>
<line class="st2" x1="141.4" y1="915.9" x2="141.4" y2="907.1"/>
<line class="st2" x1="207.2" y1="915.9" x2="207.2" y2="907.1"/>
<line class="st2" x1="273.1" y1="915.9" x2="273.1" y2="907.1"/>
<line class="st2" x1="339" y1="915.9" x2="339" y2="907.1"/>
<line class="st2" x1="404.9" y1="915.9" x2="404.9" y2="907.1"/>
<line class="st2" x1="470.7" y1="915.9" x2="470.7" y2="907.1"/>
<line class="st2" x1="536.6" y1="915.9" x2="536.6" y2="907.1"/>
<line class="st2" x1="602.5" y1="915.9" x2="602.5" y2="907.1"/>
<line class="st2" x1="668.4" y1="915.9" x2="668.4" y2="907.1"/>
<g transform="translate(216,969.3333)">
	<text transform="matrix(1 0 0 1 -89.6267 -42.1146)" class="st3 st4 st5">-0.04</text>
</g>
<g transform="translate(281.875,969.3333)">
	<text transform="matrix(1 0 0 1 -89.6267 -42.1146)" class="st3 st4 st5">-0.03</text>
</g>
<g transform="translate(347.75,969.3333)">
	<text transform="matrix(1 0 0 1 -89.6267 -42.1146)" class="st3 st4 st5">-0.02</text>
</g>
<g transform="translate(413.625,969.3333)">
	<text transform="matrix(1 0 0 1 -89.6267 -42.1146)" class="st3 st4 st5">-0.01</text>
</g>
<g transform="translate(479.5,969.3333)">
	<text transform="matrix(1 0 0 1 -78.6267 -42.1146)" class="st3 st4 st5">0</text>
</g>
<g transform="translate(545.375,969.3333)">
	<text transform="matrix(1 0 0 1 -87.6267 -42.1146)" class="st3 st4 st5">0.01</text>
</g>
<g transform="translate(611.25,969.3333)">
	<text transform="matrix(1 0 0 1 -87.6267 -42.1146)" class="st3 st4 st5">0.02</text>
</g>
<g transform="translate(677.125,969.3333)">
	<text transform="matrix(1 0 0 1 -87.6267 -42.1146)" class="st3 st4 st5">0.03</text>
</g>
<g transform="translate(743,969.3333)">
	<text transform="matrix(1 0 0 1 -87.6267 -42.1146)" class="st3 st4 st5">0.04</text>
</g>
<g transform="translate(210.6667,900.9286)">
	<text transform="matrix(1 0 0 1 -178.3747 -42.6146)" class="st3 st4 st5">Rule@Repetition5+</text>
</g>
<g transform="translate(210.6667,774.7857)">
	<text transform="matrix(1 0 0 1 -170.6267 -42.6146)" class="st3 st4 st5">Rule@Repetition4</text>
</g>
<g transform="translate(210.6667,648.6429)">
	<text transform="matrix(1 0 0 1 -170.6267 -42.6146)" class="st3 st4 st5">Rule@Repetition3</text>
</g>
<g transform="translate(210.6667,522.5)">
	<text transform="matrix(1 0 0 1 -170.6267 -42.6146)" class="st3 st4 st5">Rule@Repetition2</text>
</g>
<g transform="translate(210.6667,396.3571)">
	<text transform="matrix(1 0 0 1 -170.6267 -42.6146)" class="st3 st4 st5">Rule@Repetition1</text>
</g>
<g transform="translate(210.6667,270.2143)">
	<text transform="matrix(1 0 0 1 -182.4958 -52.6146)" class="st3 st4 st5">Rule@Previous Error</text>
</g>
<g transform="translate(210.6667,144.0714)">
	<text transform="matrix(1 0 0 1 -200.9426 -52.6146)" class="st3 st4 st5">Rule@No Previous Error</text>
</g>
<line class="st6" x1="420.4" y1="852.8" x2="480.8" y2="852.8"/>
<line class="st6" x1="343" y1="726.7" x2="610.2" y2="726.7"/>
<line class="st6" x1="226.5" y1="600.5" x2="496.6" y2="600.5"/>
<line class="st6" x1="270.1" y1="474.4" x2="574.7" y2="474.4"/>
<line class="st6" x1="156" y1="348.2" x2="477.4" y2="348.2"/>
<line class="st6" x1="262.6" y1="212.1" x2="542.7" y2="212.1"/>
<line class="st6" x1="410.2" y1="86" x2="478.7" y2="86"/>
<path class="st7" d="M458.7,852.4l-1.1-3.4l-2.9-2.1h-3.6l-2.9,2.1l-1.1,3.4l1.1,3.4l2.9,2.1h3.6l2.9-2.1L458.7,852.4z"/>
<path class="st7" d="M477.7,726.4l-1.1-3.4l-2.9-2.1h-3.6l-2.9,2.1l-1.1,3.4l1.1,3.4l2.9,2.1h3.6l2.9-2.1L477.7,726.4z"/>
<path class="st7" d="M366.7,600.4l-1.1-3.4l-2.9-2.1h-3.6l-2.9,2.1l-1.1,3.4l1.1,3.4l2.9,2.1h3.6l2.9-2.1L366.7,600.4z"/>
<path class="st7" d="M418.7,474.4l-1.1-3.4l-2.9-2.1h-3.6l-2.9,2.1l-1.1,3.4l1.1,3.4l2.9,2.1h3.6l2.9-2.1L418.7,474.4z"/>
<path class="st7" d="M325.7,348.4l-1.1-3.4l-2.9-2.1h-3.6l-2.9,2.1l-1.1,3.4l1.1,3.4l2.9,2.1h3.6l2.9-2.1L325.7,348.4z"/>
<path class="st7" d="M407.7,212.4l-1.1-3.4l-2.9-2.1h-3.6l-2.9,2.1l-1.1,3.4l1.1,3.4l2.9,2.1h3.6l2.9-2.1L407.7,212.4z"/>
<path class="st7" d="M449.7,86.4l-1.1-3.4l-2.9-2.1h-3.6l-2.9,2.1l-1.1,3.4l1.1,3.4l2.9,2.1h3.6l2.9-2.1L449.7,86.4z"/>
<line class="st6" x1="402.2" y1="212.1" x2="444.2" y2="86"/>
<path class="st6" d="M452.6,852.8l19-126.1l-111-126.1l52-126.1l-92.5-126.1"/>
<line class="st8" x1="431.6" y1="852.8" x2="502.8" y2="852.8"/>
<line class="st8" x1="338.9" y1="726.7" x2="639.1" y2="726.7"/>
<line class="st8" x1="315.6" y1="600.5" x2="606.6" y2="600.5"/>
<line class="st8" x1="329.1" y1="474.4" x2="632.6" y2="474.4"/>
<line class="st8" x1="323.1" y1="348.2" x2="661.1" y2="348.2"/>
<line class="st8" x1="272.2" y1="212.1" x2="536.4" y2="212.1"/>
<line class="st8" x1="440" y1="86" x2="519.2" y2="86"/>
<path class="st9" d="M476.7,852.4l-1.1-3.4l-2.9-2.1h-3.6l-2.9,2.1l-1.1,3.4l1.1,3.4l2.9,2.1h3.6l2.9-2.1L476.7,852.4z"/>
<path class="st9" d="M493.7,726.4l-1.1-3.4l-2.9-2.1h-3.6l-2.9,2.1l-1.1,3.4l1.1,3.4l2.9,2.1h3.6l2.9-2.1L493.7,726.4z"/>
<path class="st9" d="M470.7,600.4l-1.1-3.4l-2.9-2.1h-3.6l-2.9,2.1l-1.1,3.4l1.1,3.4l2.9,2.1h3.6l2.9-2.1L470.7,600.4z"/>
<path class="st9" d="M491.7,474.4l-1.1-3.4l-2.9-2.1h-3.6l-2.9,2.1l-1.1,3.4l1.1,3.4l2.9,2.1h3.6l2.9-2.1L491.7,474.4z"/>
<path class="st9" d="M500.7,348.4l-1.1-3.4l-2.9-2.1h-3.6l-2.9,2.1l-1.1,3.4l1.1,3.4l2.9,2.1h3.6l2.9-2.1L500.7,348.4z"/>
<path class="st9" d="M413.7,212.4l-1.1-3.4l-2.9-2.1h-3.6l-2.9,2.1l-1.1,3.4l1.1,3.4l2.9,2.1h3.6l2.9-2.1L413.7,212.4z"/>
<path class="st9" d="M486.7,86.4l-1.1-3.4l-2.9-2.1h-3.6l-2.9,2.1l-1.1,3.4l1.1,3.4l2.9,2.1h3.6l2.9-2.1L486.7,86.4z"/>
<line class="st8" x1="408" y1="212.1" x2="480.8" y2="86"/>
<path class="st8" d="M470.5,852.8l17.6-126.1l-22.8-126.1l20.1-126.1l9.9-126.1"/>
<line class="st1" x1="1333.4" y1="852.8" x2="806.4" y2="852.8"/>
<line class="st1" x1="1333.4" y1="726.7" x2="806.4" y2="726.7"/>
<line class="st1" x1="1333.4" y1="600.5" x2="806.4" y2="600.5"/>
<line class="st1" x1="1333.4" y1="474.4" x2="806.4" y2="474.4"/>
<line class="st1" x1="1333.4" y1="348.2" x2="806.4" y2="348.2"/>
<line class="st1" x1="1333.4" y1="212.1" x2="806.4" y2="212.1"/>
<line class="st1" x1="1333.4" y1="86" x2="806.4" y2="86"/>
<line class="st2" x1="806.4" y1="915.9" x2="1333.4" y2="915.9"/>
<line class="st2" x1="806.4" y1="915.9" x2="806.4" y2="907.1"/>
<line class="st2" x1="881.7" y1="915.9" x2="881.7" y2="907.1"/>
<line class="st2" x1="956.9" y1="915.9" x2="956.9" y2="907.1"/>
<line class="st2" x1="1032.2" y1="915.9" x2="1032.2" y2="907.1"/>
<line class="st2" x1="1107.5" y1="915.9" x2="1107.5" y2="907.1"/>
<line class="st2" x1="1182.8" y1="915.9" x2="1182.8" y2="907.1"/>
<line class="st2" x1="1258.1" y1="915.9" x2="1258.1" y2="907.1"/>
<line class="st2" x1="1333.4" y1="915.9" x2="1333.4" y2="907.1"/>
<g transform="translate(921,969.3333)">
	<text transform="matrix(1 0 0 1 -118.6267 -42.1146)" class="st3 st4 st5">0</text>
</g>
<g transform="translate(996.2857,969.3333)">
	<text transform="matrix(1 0 0 1 -127.6267 -42.1146)" class="st3 st4 st5">0.02</text>
</g>
<g transform="translate(1071.5714,969.3333)">
	<text transform="matrix(1 0 0 1 -127.6267 -42.1146)" class="st3 st4 st5">0.04</text>
</g>
<g transform="translate(1146.8572,969.3333)">
	<text transform="matrix(1 0 0 1 -127.6267 -42.1146)" class="st3 st4 st5">0.06</text>
</g>
<g transform="translate(1222.1428,969.3333)">
	<text transform="matrix(1 0 0 1 -127.6267 -42.1146)" class="st3 st4 st5">0.08</text>
</g>
<g transform="translate(1297.4286,969.3333)">
	<text transform="matrix(1 0 0 1 -124.1267 -42.1146)" class="st3 st4 st5">0.1</text>
</g>
<g transform="translate(1372.7142,969.3333)">
	<text transform="matrix(1 0 0 1 -127.6267 -42.1146)" class="st3 st4 st5">0.12</text>
</g>
<g transform="translate(1448,969.3333)">
	<text transform="matrix(1 0 0 1 -127.6267 -42.1146)" class="st3 st4 st5">0.14</text>
</g>
<g transform="translate(915.6667,900.9286)">
	<text transform="matrix(1 0 0 1 -218.3747 -42.6146)" class="st3 st4 st5">Rule@Repetition5+</text>
</g>
<g transform="translate(915.6667,774.7857)">
	<text transform="matrix(1 0 0 1 -210.6267 -42.6146)" class="st3 st4 st5">Rule@Repetition4</text>
</g>
<g transform="translate(915.6667,648.6429)">
	<text transform="matrix(1 0 0 1 -210.6267 -42.6146)" class="st3 st4 st5">Rule@Repetition3</text>
</g>
<g transform="translate(915.6667,522.5)">
	<text transform="matrix(1 0 0 1 -210.6267 -42.6146)" class="st3 st4 st5">Rule@Repetition2</text>
</g>
<g transform="translate(915.6667,396.3571)">
	<text transform="matrix(1 0 0 1 -210.6267 -42.6146)" class="st3 st4 st5">Rule@Repetition1</text>
</g>
<g transform="translate(915.6667,270.2143)">
	<text transform="matrix(1 0 0 1 -222.4958 -52.6146)" class="st3 st4 st5">Rule@Previous Error</text>
</g>
<g transform="translate(915.6667,144.0714)">
	<text transform="matrix(1 0 0 1 -240.9431 -52.6146)" class="st3 st4 st5">Rule@No Previous Error</text>
</g>
<line class="st6" x1="879.1" y1="852.8" x2="908.3" y2="852.8"/>
<line class="st6" x1="1072.5" y1="726.7" x2="1215" y2="726.7"/>
<line class="st6" x1="1035.3" y1="600.5" x2="1179.2" y2="600.5"/>
<line class="st6" x1="1111.1" y1="474.4" x2="1251.7" y2="474.4"/>
<line class="st6" x1="1070.7" y1="348.2" x2="1210.1" y2="348.2"/>
<line class="st6" x1="1032.4" y1="212.1" x2="1137.3" y2="212.1"/>
<line class="st6" x1="876.7" y1="86" x2="908.1" y2="86"/>
<path class="st7" d="M897.7,852.4l-1.1-3.4l-2.9-2.1h-3.6l-2.9,2.1l-1.1,3.4l1.1,3.4l2.9,2.1h3.6l2.9-2.1L897.7,852.4z"/>
<path class="st7" d="M1140.7,726.4l-1.1-3.4l-2.9-2.1h-3.6l-2.9,2.1l-1.1,3.4l1.1,3.4l2.9,2.1h3.6l2.9-2.1L1140.7,726.4z"/>
<path class="st7" d="M1108.7,600.4l-1.1-3.4l-2.9-2.1h-3.6l-2.9,2.1l-1.1,3.4l1.1,3.4l2.9,2.1h3.6l2.9-2.1L1108.7,600.4z"/>
<path class="st7" d="M1182.7,474.4l-1.1-3.4l-2.9-2.1h-3.6l-2.9,2.1l-1.1,3.4l1.1,3.4l2.9,2.1h3.6l2.9-2.1L1182.7,474.4z"/>
<path class="st7" d="M1140.7,348.4l-1.1-3.4l-2.9-2.1h-3.6l-2.9,2.1l-1.1,3.4l1.1,3.4l2.9,2.1h3.6l2.9-2.1L1140.7,348.4z"/>
<path class="st7" d="M1086.7,212.4l-1.1-3.4l-2.9-2.1h-3.6l-2.9,2.1l-1.1,3.4l1.1,3.4l2.9,2.1h3.6l2.9-2.1L1086.7,212.4z"/>
<path class="st7" d="M896.7,86.4l-1.1-3.4l-2.9-2.1h-3.6l-2.9,2.1l-1.1,3.4l1.1,3.4l2.9,2.1h3.6l2.9-2.1L896.7,86.4z"/>
<g>
	<line class="st6" x1="1081" y1="222.1" x2="890.8" y2="96"/>
	<path class="st6" d="M891.8,852.8l243.4-126.1L1103,600.5l74.4-126.1l-42.7-126.1"/>
</g>
<line class="st8" x1="948.4" y1="852.8" x2="992" y2="852.8"/>
<line class="st8" x1="1116.6" y1="726.7" x2="1281.1" y2="726.7"/>
<line class="st8" x1="1093.9" y1="600.5" x2="1249.2" y2="600.5"/>
<line class="st8" x1="1126.7" y1="474.4" x2="1285.9" y2="474.4"/>
<line class="st8" x1="1117.9" y1="348.2" x2="1290.8" y2="348.2"/>
<line class="st8" x1="1057.2" y1="212.1" x2="1175.7" y2="212.1"/>
<line class="st8" x1="945.6" y1="86" x2="994.9" y2="86"/>
<path class="st9" d="M974.7,852.4l-1.1-3.4l-2.9-2.1h-3.6l-2.9,2.1l-1.1,3.4l1.1,3.4l2.9,2.1h3.6l2.9-2.1L974.7,852.4z"/>
<path class="st9" d="M1196.7,726.4l-1.1-3.4l-2.9-2.1h-3.6l-2.9,2.1l-1.1,3.4l1.1,3.4l2.9,2.1h3.6l2.9-2.1L1196.7,726.4z"/>
<path class="st9" d="M1172.7,600.4l-1.1-3.4l-2.9-2.1h-3.6l-2.9,2.1l-1.1,3.4l1.1,3.4l2.9,2.1h3.6l2.9-2.1L1172.7,600.4z"/>
<path class="st9" d="M1206.7,474.4l-1.1-3.4l-2.9-2.1h-3.6l-2.9,2.1l-1.1,3.4l1.1,3.4l2.9,2.1h3.6l2.9-2.1L1206.7,474.4z"/>
<path class="st9" d="M1204.7,348.4l-1.1-3.4l-2.9-2.1h-3.6l-2.9,2.1l-1.1,3.4l1.1,3.4l2.9,2.1h3.6l2.9-2.1L1204.7,348.4z"/>
<path class="st9" d="M1117.7,212.4l-1.1-3.4l-2.9-2.1h-3.6l-2.9,2.1l-1.1,3.4l1.1,3.4l2.9,2.1h3.6l2.9-2.1L1117.7,212.4z"/>
<path class="st9" d="M974.7,86.4l-1.1-3.4l-2.9-2.1h-3.6l-2.9,2.1l-1.1,3.4l1.1,3.4l2.9,2.1h3.6l2.9-2.1L974.7,86.4z"/>
<g>
	<line class="st8" x1="1112.1" y1="222.1" x2="968.9" y2="96"/>
	<path class="st8" d="M969.1,852.8l222.2-126.1l-24.7-126.1l34.5-126.1l-2.7-126.1"/>
</g>
<text transform="matrix(1 0 0 1 413.8371 948.8946)" class="st4 st10">Stronger for Orientation Rule</text>
<text transform="matrix(1 0 0 1 270.427 948.8946)" class="st4 st10">Stronger for Color Rule</text>
<g>
	<line x1="265.2" y1="944.9" x2="230.1" y2="944.9"/>
	<g>
		<line class="st11" x1="265.2" y1="944.9" x2="238.9" y2="944.9"/>
		<g>
			<polygon points="240.9,942 230.1,944.9 240.9,947.8 			"/>
		</g>
	</g>
</g>
<g>
	<line x1="585.8" y1="944.9" x2="620.9" y2="944.9"/>
	<g>
		<line class="st11" x1="585.8" y1="944.9" x2="612.1" y2="944.9"/>
		<g>
			<polygon points="610.1,947.8 620.9,944.9 610.1,942 			"/>
		</g>
	</g>
</g>
<text transform="matrix(1 0 0 1 675.9343 976.8594)" class="st4 st12">ACC</text>
<g transform="translate(500.5005,347.25)">
	<text transform="matrix(1 0 0 1 -296.8679 -295.3646)" class="st4 st13">Change in Firing Rate Between Rules</text>
</g>
<g transform="translate(500.5005,347.25)">
	<text transform="matrix(1 0 0 1 393.2366 -295.3646)" class="st4 st13">Absolute Change in Firing Rate</text>
</g>
</svg>
