<?xml version="1.0" encoding="utf-8"?>
<!-- Generator: Adobe Illustrator 19.2.1, SVG Export Plug-In . SVG Version: 6.00 Build 0)  -->
<svg version="1.1" id="Layer_1" xmlns="http://www.w3.org/2000/svg" xmlns:xlink="http://www.w3.org/1999/xlink" x="0px" y="0px"
	 viewBox="0 0 1412 936" style="enable-background:new 0 0 1412 936;" xml:space="preserve">
<style type="text/css">
	.st0{fill:none;stroke:#262626;stroke-linecap:square;stroke-miterlimit:10;stroke-opacity:0.149;}
	.st1{fill:none;stroke:#000000;stroke-linecap:square;stroke-miterlimit:10;}
	.st2{fill:#262626;}
	.st3{font-family:'ArialMT';}
	.st4{font-size:13px;}
	.st5{fill:none;stroke:#66C2A5;stroke-linecap:square;stroke-miterlimit:10;}
	.st6{fill:#66C2A5;}
	.st7{fill:none;stroke:#7570B3;stroke-linecap:square;stroke-miterlimit:10;}
	.st8{fill:#7570B3;}
	.st9{fill:none;stroke:#000000;stroke-width:1.3333;stroke-linejoin:bevel;stroke-miterlimit:1;stroke-dasharray:1,3;}
	.st10{font-size:15px;}
	.st11{font-size:36px;}
	.st12{font-size:14px;}
	.st13{fill:none;}
	.st14{fill:none;stroke:#000000;stroke-width:2;stroke-miterlimit:10;}
</style>
<line class="st0" x1="693" y1="264.3" x2="166" y2="264.3"/>
<line class="st0" x1="693" y1="230.9" x2="166" y2="230.9"/>
<line class="st0" x1="693" y1="197.4" x2="166" y2="197.4"/>
<line class="st0" x1="693" y1="164" x2="166" y2="164"/>
<line class="st0" x1="693" y1="130.6" x2="166" y2="130.6"/>
<line class="st0" x1="693" y1="87.1" x2="166" y2="87.1"/>
<line class="st0" x1="693" y1="53.7" x2="166" y2="53.7"/>
<path class="st1" d="M166,281h527H166z"/>
<g transform="translate(216,320.3333)">
	<text transform="matrix(1 0 0 1 -61.5 -25)" class="st2 st3 st4">-0.4</text>
</g>
<g transform="translate(281.875,320.3333)">
	<text transform="matrix(1 0 0 1 -61.5 -25)" class="st2 st3 st4">-0.3</text>
</g>
<g transform="translate(347.75,320.3333)">
	<text transform="matrix(1 0 0 1 -61.5 -25)" class="st2 st3 st4">-0.2</text>
</g>
<g transform="translate(413.625,320.3333)">
	<text transform="matrix(1 0 0 1 -61.5 -25)" class="st2 st3 st4">-0.1</text>
</g>
<g transform="translate(479.5,320.3333)">
	<text transform="matrix(1 0 0 1 -54 -25)" class="st2 st3 st4">0</text>
</g>
<g transform="translate(545.375,320.3333)">
	<text transform="matrix(1 0 0 1 -59.5 -25)" class="st2 st3 st4">0.1</text>
</g>
<g transform="translate(611.25,320.3333)">
	<text transform="matrix(1 0 0 1 -59.5 -25)" class="st2 st3 st4">0.2</text>
</g>
<g transform="translate(677.125,320.3333)">
	<text transform="matrix(1 0 0 1 -59.5 -25)" class="st2 st3 st4">0.3</text>
</g>
<g transform="translate(743,320.3333)">
	<text transform="matrix(1 0 0 1 -59.5 -25)" class="st2 st3 st4">0.4</text>
</g>
<g transform="translate(210.6667,298.2857)">
	<text transform="matrix(1 0 0 1 -153.7481 -28.5)" class="st2 st3 st4">Rule@Repetition5+</text>
</g>
<g transform="translate(210.6667,264.8571)">
	<text transform="matrix(1 0 0 1 -146 -28.5)" class="st2 st3 st4">Rule@Repetition4</text>
</g>
<g transform="translate(210.6667,231.4286)">
	<text transform="matrix(1 0 0 1 -146 -28.5)" class="st2 st3 st4">Rule@Repetition3</text>
</g>
<g transform="translate(210.6667,198)">
	<text transform="matrix(1 0 0 1 -146 -28.5)" class="st2 st3 st4">Rule@Repetition2</text>
</g>
<g transform="translate(210.6667,164.5714)">
	<text transform="matrix(1 0 0 1 -146 -28.5)" class="st2 st3 st4">Rule@Repetition1</text>
</g>
<g transform="translate(210.6667,131.1429)">
	<text transform="matrix(1 0 0 1 -157.8692 -38.5)" class="st2 st3 st4">Rule@Previous Error</text>
</g>
<g transform="translate(210.6667,97.7143)">
	<text transform="matrix(1 0 0 1 -176.3159 -38.5)" class="st2 st3 st4">Rule@No Previous Error</text>
</g>
<line class="st5" x1="452.6" y1="264.3" x2="522.6" y2="264.3"/>
<line class="st5" x1="345.4" y1="230.9" x2="642" y2="230.9"/>
<line class="st5" x1="222.9" y1="197.4" x2="519.7" y2="197.4"/>
<line class="st5" x1="260.1" y1="164" x2="640.2" y2="164"/>
<line class="st5" x1="166" y1="130.6" x2="518.7" y2="130.6"/>
<line class="st5" x1="252" y1="87.1" x2="592.9" y2="87.1"/>
<line class="st5" x1="433.9" y1="53.7" x2="509.8" y2="53.7"/>
<path class="st6" d="M494.4,264.5l-1.1-3.4l-2.9-2.1h-3.6l-2.9,2.1l-1.1,3.4l1.1,3.4l2.9,2.1h3.6l2.9-2.1L494.4,264.5z"/>
<path class="st6" d="M491.4,230.5l-1.1-3.4l-2.9-2.1h-3.6l-2.9,2.1l-1.1,3.4l1.1,3.4l2.9,2.1h3.6l2.9-2.1L491.4,230.5z"/>
<path class="st6" d="M385.4,197.5l-1.1-3.4l-2.9-2.1h-3.6l-2.9,2.1l-1.1,3.4l1.1,3.4l2.9,2.1h3.6l2.9-2.1L385.4,197.5z"/>
<path class="st6" d="M448.4,163.5l-1.1-3.4l-2.9-2.1h-3.6l-2.9,2.1l-1.1,3.4l1.1,3.4l2.9,2.1h3.6l2.9-2.1L448.4,163.5z"/>
<path class="st6" d="M356.4,130.5l-1.1-3.4l-2.9-2.1h-3.6l-2.9,2.1l-1.1,3.4l1.1,3.4l2.9,2.1h3.6l2.9-2.1L356.4,130.5z"/>
<path class="st6" d="M428.4,87.5l-1.1-3.4l-2.9-2.1h-3.6l-2.9,2.1l-1.1,3.4l1.1,3.4l2.9,2.1h3.6l2.9-2.1L428.4,87.5z"/>
<path class="st6" d="M477.4,53.5l-1.1-3.4l-2.9-2.1h-3.6l-2.9,2.1l-1.1,3.4l1.1,3.4l2.9,2.1h3.6l2.9-2.1L477.4,53.5z"/>
<line class="st5" x1="422.3" y1="87.1" x2="471.9" y2="53.7"/>
<path class="st5" d="M488.4,264.3l-3.3-33.4l-105.9-33.4l63.5-33.4l-92-33.4"/>
<line class="st7" x1="446.7" y1="264.3" x2="492.9" y2="264.3"/>
<line class="st7" x1="402.6" y1="230.9" x2="552.9" y2="230.9"/>
<line class="st7" x1="388.9" y1="197.4" x2="535.6" y2="197.4"/>
<line class="st7" x1="397.1" y1="164" x2="548.9" y2="164"/>
<line class="st7" x1="394.6" y1="130.6" x2="547.1" y2="130.6"/>
<line class="st7" x1="375.2" y1="87.1" x2="507.5" y2="87.1"/>
<line class="st7" x1="449.2" y1="53.7" x2="497.3" y2="53.7"/>
<path class="st8" d="M475.4,264.5l-1.1-3.4l-2.9-2.1h-3.6l-2.9,2.1l-1.1,3.4l1.1,3.4l2.9,2.1h3.6l2.9-2.1L475.4,264.5z"/>
<path class="st8" d="M472.4,230.5l-1.1-3.4l-2.9-2.1h-3.6l-2.9,2.1l-1.1,3.4l1.1,3.4l2.9,2.1h3.6l2.9-2.1L472.4,230.5z"/>
<path class="st8" d="M460.4,197.5l-1.1-3.4l-2.9-2.1h-3.6l-2.9,2.1l-1.1,3.4l1.1,3.4l2.9,2.1h3.6l2.9-2.1L460.4,197.5z"/>
<path class="st8" d="M472.4,163.5l-1.1-3.4l-2.9-2.1h-3.6l-2.9,2.1l-1.1,3.4l1.1,3.4l2.9,2.1h3.6l2.9-2.1L472.4,163.5z"/>
<path class="st8" d="M469.4,130.5l-1.1-3.4l-2.9-2.1h-3.6l-2.9,2.1l-1.1,3.4l1.1,3.4l2.9,2.1h3.6l2.9-2.1L469.4,130.5z"/>
<path class="st8" d="M447.4,87.5l-1.1-3.4l-2.9-2.1h-3.6l-2.9,2.1l-1.1,3.4l1.1,3.4l2.9,2.1h3.6l2.9-2.1L447.4,87.5z"/>
<path class="st8" d="M478.4,53.5l-1.1-3.4l-2.9-2.1h-3.6l-2.9,2.1l-1.1,3.4l1.1,3.4l2.9,2.1h3.6l2.9-2.1L478.4,53.5z"/>
<line class="st7" x1="441.2" y1="87.1" x2="472.9" y2="53.7"/>
<path class="st7" d="M469.6,264.3l-3.2-33.4l-11.6-33.4l11.3-33.4l-2.6-33.4"/>
<g>
	<line class="st9" x1="429.5" y1="281" x2="429.5" y2="47"/>
</g>
<line class="st0" x1="1398" y1="264.3" x2="871" y2="264.3"/>
<line class="st0" x1="1398" y1="230.9" x2="871" y2="230.9"/>
<line class="st0" x1="1398" y1="197.4" x2="871" y2="197.4"/>
<line class="st0" x1="1398" y1="164" x2="871" y2="164"/>
<line class="st0" x1="1398" y1="130.6" x2="871" y2="130.6"/>
<line class="st0" x1="1398" y1="87.1" x2="871" y2="87.1"/>
<line class="st0" x1="1398" y1="53.7" x2="871" y2="53.7"/>
<path class="st1" d="M871,281h527H871z"/>
<g transform="translate(921,320.3333)">
	<text transform="matrix(1 0 0 1 -54 -25)" class="st2 st3 st4">0</text>
</g>
<g transform="translate(986.875,320.3333)">
	<text transform="matrix(1 0 0 1 -59.5 -25)" class="st2 st3 st4">0.2</text>
</g>
<g transform="translate(1052.75,320.3333)">
	<text transform="matrix(1 0 0 1 -59.5 -25)" class="st2 st3 st4">0.4</text>
</g>
<g transform="translate(1118.625,320.3333)">
	<text transform="matrix(1 0 0 1 -59.5 -25)" class="st2 st3 st4">0.6</text>
</g>
<g transform="translate(1184.5,320.3333)">
	<text transform="matrix(1 0 0 1 -59.5 -25)" class="st2 st3 st4">0.8</text>
</g>
<g transform="translate(1250.375,320.3333)">
	<text transform="matrix(1 0 0 1 -54 -25)" class="st2 st3 st4">1</text>
</g>
<g transform="translate(1316.25,320.3333)">
	<text transform="matrix(1 0 0 1 -59.5 -25)" class="st2 st3 st4">1.2</text>
</g>
<g transform="translate(1382.125,320.3333)">
	<text transform="matrix(1 0 0 1 -59.5 -25)" class="st2 st3 st4">1.4</text>
</g>
<g transform="translate(1448,320.3333)">
	<text transform="matrix(1 0 0 1 -59.5 -25)" class="st2 st3 st4">1.6</text>
</g>
<g transform="translate(915.6667,298.2857)">
	<text transform="matrix(1 0 0 1 -153.748 -28.5)" class="st2 st3 st4">Rule@Repetition5+</text>
</g>
<g transform="translate(915.6667,264.8571)">
	<text transform="matrix(1 0 0 1 -146 -28.5)" class="st2 st3 st4">Rule@Repetition4</text>
</g>
<g transform="translate(915.6667,231.4286)">
	<text transform="matrix(1 0 0 1 -146 -28.5)" class="st2 st3 st4">Rule@Repetition3</text>
</g>
<g transform="translate(915.6667,198)">
	<text transform="matrix(1 0 0 1 -146 -28.5)" class="st2 st3 st4">Rule@Repetition2</text>
</g>
<g transform="translate(915.6667,164.5714)">
	<text transform="matrix(1 0 0 1 -146 -28.5)" class="st2 st3 st4">Rule@Repetition1</text>
</g>
<g transform="translate(915.6667,131.1429)">
	<text transform="matrix(1 0 0 1 -157.8691 -38.5)" class="st2 st3 st4">Rule@Previous Error</text>
</g>
<g transform="translate(915.6667,97.7143)">
	<text transform="matrix(1 0 0 1 -176.3164 -38.5)" class="st2 st3 st4">Rule@No Previous Error</text>
</g>
<line class="st5" x1="967.5" y1="264.3" x2="1009" y2="264.3"/>
<line class="st5" x1="1173.8" y1="230.9" x2="1333.2" y2="230.9"/>
<line class="st5" x1="1145.1" y1="197.4" x2="1320.1" y2="197.4"/>
<line class="st5" x1="1214.2" y1="164" x2="1395.3" y2="164"/>
<line class="st5" x1="1173.9" y1="130.6" x2="1348.8" y2="130.6"/>
<line class="st5" x1="1187.9" y1="87.1" x2="1325.9" y2="87.1"/>
<line class="st5" x1="1004.1" y1="53.7" x2="1047.3" y2="53.7"/>
<path class="st6" d="M992.4,264.5l-1.1-3.4l-2.9-2.1h-3.6l-2.9,2.1l-1.1,3.4l1.1,3.4l2.9,2.1h3.6l2.9-2.1L992.4,264.5z"/>
<path class="st6" d="M1257.4,230.5l-1.1-3.4l-2.9-2.1h-3.6l-2.9,2.1l-1.1,3.4l1.1,3.4l2.9,2.1h3.6l2.9-2.1L1257.4,230.5z"/>
<path class="st6" d="M1230.4,197.5l-1.1-3.4l-2.9-2.1h-3.6l-2.9,2.1l-1.1,3.4l1.1,3.4l2.9,2.1h3.6l2.9-2.1L1230.4,197.5z"/>
<path class="st6" d="M1306.4,163.5l-1.1-3.4l-2.9-2.1h-3.6l-2.9,2.1l-1.1,3.4l1.1,3.4l2.9,2.1h3.6l2.9-2.1L1306.4,163.5z"/>
<path class="st6" d="M1260.4,130.5l-1.1-3.4l-2.9-2.1h-3.6l-2.9,2.1l-1.1,3.4l1.1,3.4l2.9,2.1h3.6l2.9-2.1L1260.4,130.5z"/>
<path class="st6" d="M1256.4,87.5l-1.1-3.4l-2.9-2.1h-3.6l-2.9,2.1l-1.1,3.4l1.1,3.4l2.9,2.1h3.6l2.9-2.1L1256.4,87.5z"/>
<path class="st6" d="M1028.4,53.5l-1.1-3.4l-2.9-2.1h-3.6l-2.9,2.1l-1.1,3.4l1.1,3.4l2.9,2.1h3.6l2.9-2.1L1028.4,53.5z"/>
<line class="st5" x1="1250.9" y1="87.1" x2="1023" y2="53.7"/>
<path class="st5" d="M986.8,264.3l264.5-33.4l-26.6-33.4l75.8-33.4l-45.7-33.4"/>
<line class="st7" x1="951" y1="264.3" x2="976.4" y2="264.3"/>
<line class="st7" x1="1022" y1="230.9" x2="1104.9" y2="230.9"/>
<line class="st7" x1="1009.3" y1="197.4" x2="1094" y2="197.4"/>
<line class="st7" x1="1038.4" y1="164" x2="1128.6" y2="164"/>
<line class="st7" x1="1033.7" y1="130.6" x2="1132.9" y2="130.6"/>
<line class="st7" x1="1019.5" y1="87.1" x2="1088.5" y2="87.1"/>
<line class="st7" x1="961.7" y1="53.7" x2="989.2" y2="53.7"/>
<path class="st8" d="M968.4,264.5l-1.1-3.4l-2.9-2.1h-3.6l-2.9,2.1l-1.1,3.4l1.1,3.4l2.9,2.1h3.6l2.9-2.1L968.4,264.5z"/>
<path class="st8" d="M1066.4,230.5l-1.1-3.4l-2.9-2.1h-3.6l-2.9,2.1l-1.1,3.4l1.1,3.4l2.9,2.1h3.6l2.9-2.1L1066.4,230.5z"/>
<path class="st8" d="M1053.4,197.5l-1.1-3.4l-2.9-2.1h-3.6l-2.9,2.1l-1.1,3.4l1.1,3.4l2.9,2.1h3.6l2.9-2.1L1053.4,197.5z"/>
<path class="st8" d="M1083.4,163.5l-1.1-3.4l-2.9-2.1h-3.6l-2.9,2.1l-1.1,3.4l1.1,3.4l2.9,2.1h3.6l2.9-2.1L1083.4,163.5z"/>
<path class="st8" d="M1083.4,130.5l-1.1-3.4l-2.9-2.1h-3.6l-2.9,2.1l-1.1,3.4l1.1,3.4l2.9,2.1h3.6l2.9-2.1L1083.4,130.5z"/>
<path class="st8" d="M1058.4,87.5l-1.1-3.4l-2.9-2.1h-3.6l-2.9,2.1l-1.1,3.4l1.1,3.4l2.9,2.1h3.6l2.9-2.1L1058.4,87.5z"/>
<path class="st8" d="M980.4,53.5l-1.1-3.4l-2.9-2.1h-3.6l-2.9,2.1l-1.1,3.4l1.1,3.4l2.9,2.1h3.6l2.9-2.1L980.4,53.5z"/>
<line class="st7" x1="1052.6" y1="87.1" x2="974.5" y2="53.7"/>
<path class="st7" d="M962.6,264.3l98.4-33.4l-13.5-33.4l29.8-33.4l0.7-33.4"/>
<line class="st0" x1="693" y1="548.4" x2="166" y2="548.4"/>
<line class="st0" x1="693" y1="515.1" x2="166" y2="515.1"/>
<line class="st0" x1="693" y1="481.8" x2="166" y2="481.8"/>
<line class="st0" x1="693" y1="448.5" x2="166" y2="448.5"/>
<line class="st0" x1="693" y1="415.2" x2="166" y2="415.2"/>
<line class="st0" x1="693" y1="371.9" x2="166" y2="371.9"/>
<line class="st0" x1="693" y1="338.6" x2="166" y2="338.6"/>
<path class="st1" d="M166,565h527H166z"/>
<g transform="translate(216,644.3333)">
	<text transform="matrix(1 0 0 1 -65 -66)" class="st2 st3 st4">-0.04</text>
</g>
<g transform="translate(281.875,644.3333)">
	<text transform="matrix(1 0 0 1 -65 -66)" class="st2 st3 st4">-0.03</text>
</g>
<g transform="translate(347.75,644.3333)">
	<text transform="matrix(1 0 0 1 -65 -66)" class="st2 st3 st4">-0.02</text>
</g>
<g transform="translate(413.625,644.3333)">
	<text transform="matrix(1 0 0 1 -65 -66)" class="st2 st3 st4">-0.01</text>
</g>
<g transform="translate(479.5,644.3333)">
	<text transform="matrix(1 0 0 1 -54 -66)" class="st2 st3 st4">0</text>
</g>
<g transform="translate(545.375,644.3333)">
	<text transform="matrix(1 0 0 1 -63 -66)" class="st2 st3 st4">0.01</text>
</g>
<g transform="translate(611.25,644.3333)">
	<text transform="matrix(1 0 0 1 -63 -66)" class="st2 st3 st4">0.02</text>
</g>
<g transform="translate(677.125,644.3333)">
	<text transform="matrix(1 0 0 1 -63 -66)" class="st2 st3 st4">0.03</text>
</g>
<g transform="translate(743,644.3333)">
	<text transform="matrix(1 0 0 1 -63 -66)" class="st2 st3 st4">0.04</text>
</g>
<g transform="translate(210.6667,622.3571)">
	<text transform="matrix(1 0 0 1 -153.7481 -68.5)" class="st2 st3 st4">Rule@Repetition5+</text>
</g>
<g transform="translate(210.6667,589.0714)">
	<text transform="matrix(1 0 0 1 -146 -68.5)" class="st2 st3 st4">Rule@Repetition4</text>
</g>
<g transform="translate(210.6667,555.7857)">
	<text transform="matrix(1 0 0 1 -146 -68.5)" class="st2 st3 st4">Rule@Repetition3</text>
</g>
<g transform="translate(210.6667,522.5)">
	<text transform="matrix(1 0 0 1 -146 -68.5)" class="st2 st3 st4">Rule@Repetition2</text>
</g>
<g transform="translate(210.6667,489.2143)">
	<text transform="matrix(1 0 0 1 -146 -68.5)" class="st2 st3 st4">Rule@Repetition1</text>
</g>
<g transform="translate(210.6667,455.9286)">
	<text transform="matrix(1 0 0 1 -157.8692 -78.5)" class="st2 st3 st4">Rule@Previous Error</text>
</g>
<g transform="translate(210.6667,422.6429)">
	<text transform="matrix(1 0 0 1 -176.3159 -78.5)" class="st2 st3 st4">Rule@No Previous Error</text>
</g>
<line class="st5" x1="445" y1="548.4" x2="505.4" y2="548.4"/>
<line class="st5" x1="367.6" y1="515.1" x2="634.9" y2="515.1"/>
<line class="st5" x1="251.1" y1="481.8" x2="521.2" y2="481.8"/>
<line class="st5" x1="294.7" y1="448.5" x2="599.3" y2="448.5"/>
<line class="st5" x1="180.6" y1="415.2" x2="502.1" y2="415.2"/>
<line class="st5" x1="287.3" y1="371.9" x2="567.3" y2="371.9"/>
<line class="st5" x1="434.8" y1="338.6" x2="503.3" y2="338.6"/>
<path class="st6" d="M483.4,548.5l-1.1-3.4l-2.9-2.1h-3.6l-2.9,2.1l-1.1,3.4l1.1,3.4l2.9,2.1h3.6l2.9-2.1L483.4,548.5z"/>
<path class="st6" d="M502.4,515.5l-1.1-3.4l-2.9-2.1h-3.6l-2.9,2.1l-1.1,3.4l1.1,3.4l2.9,2.1h3.6l2.9-2.1L502.4,515.5z"/>
<path class="st6" d="M391.4,481.5l-1.1-3.4l-2.9-2.1h-3.6l-2.9,2.1l-1.1,3.4l1.1,3.4l2.9,2.1h3.6l2.9-2.1L391.4,481.5z"/>
<path class="st6" d="M443.4,448.5l-1.1-3.4l-2.9-2.1h-3.6l-2.9,2.1l-1.1,3.4l1.1,3.4l2.9,2.1h3.6l2.9-2.1L443.4,448.5z"/>
<path class="st6" d="M350.4,415.5l-1.1-3.4l-2.9-2.1h-3.6l-2.9,2.1l-1.1,3.4l1.1,3.4l2.9,2.1h3.6l2.9-2.1L350.4,415.5z"/>
<path class="st6" d="M432.4,371.5l-1.1-3.4l-2.9-2.1h-3.6l-2.9,2.1l-1.1,3.4l1.1,3.4l2.9,2.1h3.6l2.9-2.1L432.4,371.5z"/>
<path class="st6" d="M474.4,338.5l-1.1-3.4l-2.9-2.1h-3.6l-2.9,2.1l-1.1,3.4l1.1,3.4l2.9,2.1h3.6l2.9-2.1L474.4,338.5z"/>
<line class="st5" x1="426.8" y1="371.9" x2="468.8" y2="338.6"/>
<path class="st5" d="M477.2,548.4l19-33.3l-111-33.3l52-33.3l-92.5-33.3"/>
<line class="st7" x1="456.2" y1="548.4" x2="527.5" y2="548.4"/>
<line class="st7" x1="363.5" y1="515.1" x2="663.7" y2="515.1"/>
<line class="st7" x1="340.3" y1="481.8" x2="631.2" y2="481.8"/>
<line class="st7" x1="353.8" y1="448.5" x2="657.2" y2="448.5"/>
<line class="st7" x1="347.8" y1="415.2" x2="685.7" y2="415.2"/>
<line class="st7" x1="296.8" y1="371.9" x2="561" y2="371.9"/>
<line class="st7" x1="464.6" y1="338.6" x2="543.8" y2="338.6"/>
<path class="st8" d="M501.4,548.5l-1.1-3.4l-2.9-2.1h-3.6l-2.9,2.1l-1.1,3.4l1.1,3.4l2.9,2.1h3.6l2.9-2.1L501.4,548.5z"/>
<path class="st8" d="M518.4,515.5l-1.1-3.4l-2.9-2.1h-3.6l-2.9,2.1l-1.1,3.4l1.1,3.4l2.9,2.1h3.6l2.9-2.1L518.4,515.5z"/>
<path class="st8" d="M495.4,481.5l-1.1-3.4l-2.9-2.1h-3.6l-2.9,2.1l-1.1,3.4l1.1,3.4l2.9,2.1h3.6l2.9-2.1L495.4,481.5z"/>
<path class="st8" d="M516.4,448.5l-1.1-3.4l-2.9-2.1h-3.6l-2.9,2.1l-1.1,3.4l1.1,3.4l2.9,2.1h3.6l2.9-2.1L516.4,448.5z"/>
<path class="st8" d="M525.4,415.5l-1.1-3.4l-2.9-2.1h-3.6l-2.9,2.1l-1.1,3.4l1.1,3.4l2.9,2.1h3.6l2.9-2.1L525.4,415.5z"/>
<path class="st8" d="M438.4,371.5l-1.1-3.4l-2.9-2.1h-3.6l-2.9,2.1l-1.1,3.4l1.1,3.4l2.9,2.1h3.6l2.9-2.1L438.4,371.5z"/>
<path class="st8" d="M511.4,338.5l-1.1-3.4l-2.9-2.1h-3.6l-2.9,2.1l-1.1,3.4l1.1,3.4l2.9,2.1h3.6l2.9-2.1L511.4,338.5z"/>
<line class="st7" x1="432.6" y1="371.9" x2="505.4" y2="338.6"/>
<path class="st7" d="M495.1,548.4l17.6-33.3L490,481.8l20.1-33.3l9.9-33.3"/>
<g>
	<line class="st9" x1="429.5" y1="565" x2="429.5" y2="332"/>
</g>
<line class="st0" x1="1398" y1="548.4" x2="871" y2="548.4"/>
<line class="st0" x1="1398" y1="515.1" x2="871" y2="515.1"/>
<line class="st0" x1="1398" y1="481.8" x2="871" y2="481.8"/>
<line class="st0" x1="1398" y1="448.5" x2="871" y2="448.5"/>
<line class="st0" x1="1398" y1="415.2" x2="871" y2="415.2"/>
<line class="st0" x1="1398" y1="371.9" x2="871" y2="371.9"/>
<line class="st0" x1="1398" y1="338.6" x2="871" y2="338.6"/>
<path class="st1" d="M871,565h527H871z"/>
<g transform="translate(921,644.3333)">
	<text transform="matrix(1 0 0 1 -54 -66)" class="st2 st3 st4">0</text>
</g>
<g transform="translate(996.2857,644.3333)">
	<text transform="matrix(1 0 0 1 -63 -66)" class="st2 st3 st4">0.02</text>
</g>
<g transform="translate(1071.5714,644.3333)">
	<text transform="matrix(1 0 0 1 -63 -66)" class="st2 st3 st4">0.04</text>
</g>
<g transform="translate(1146.8572,644.3333)">
	<text transform="matrix(1 0 0 1 -63 -66)" class="st2 st3 st4">0.06</text>
</g>
<g transform="translate(1222.1428,644.3333)">
	<text transform="matrix(1 0 0 1 -63 -66)" class="st2 st3 st4">0.08</text>
</g>
<g transform="translate(1297.4286,644.3333)">
	<text transform="matrix(1 0 0 1 -59.5 -66)" class="st2 st3 st4">0.1</text>
</g>
<g transform="translate(1372.7142,644.3333)">
	<text transform="matrix(1 0 0 1 -63 -66)" class="st2 st3 st4">0.12</text>
</g>
<g transform="translate(1448,644.3333)">
	<text transform="matrix(1 0 0 1 -63 -66)" class="st2 st3 st4">0.14</text>
</g>
<g transform="translate(915.6667,622.3571)">
	<text transform="matrix(1 0 0 1 -153.748 -68.5)" class="st2 st3 st4">Rule@Repetition5+</text>
</g>
<g transform="translate(915.6667,589.0714)">
	<text transform="matrix(1 0 0 1 -146 -68.5)" class="st2 st3 st4">Rule@Repetition4</text>
</g>
<g transform="translate(915.6667,555.7857)">
	<text transform="matrix(1 0 0 1 -146 -68.5)" class="st2 st3 st4">Rule@Repetition3</text>
</g>
<g transform="translate(915.6667,522.5)">
	<text transform="matrix(1 0 0 1 -146 -68.5)" class="st2 st3 st4">Rule@Repetition2</text>
</g>
<g transform="translate(915.6667,489.2143)">
	<text transform="matrix(1 0 0 1 -146 -68.5)" class="st2 st3 st4">Rule@Repetition1</text>
</g>
<g transform="translate(915.6667,455.9286)">
	<text transform="matrix(1 0 0 1 -157.8691 -78.5)" class="st2 st3 st4">Rule@Previous Error</text>
</g>
<g transform="translate(915.6667,422.6429)">
	<text transform="matrix(1 0 0 1 -176.3164 -78.5)" class="st2 st3 st4">Rule@No Previous Error</text>
</g>
<line class="st5" x1="943.8" y1="548.4" x2="973" y2="548.4"/>
<line class="st5" x1="1137.1" y1="515.1" x2="1279.6" y2="515.1"/>
<line class="st5" x1="1099.9" y1="481.8" x2="1243.8" y2="481.8"/>
<line class="st5" x1="1175.7" y1="448.5" x2="1316.3" y2="448.5"/>
<line class="st5" x1="1135.3" y1="415.2" x2="1274.7" y2="415.2"/>
<line class="st5" x1="1097.1" y1="371.9" x2="1201.9" y2="371.9"/>
<line class="st5" x1="941.3" y1="338.6" x2="972.8" y2="338.6"/>
<path class="st6" d="M962.4,548.5l-1.1-3.4l-2.9-2.1h-3.6l-2.9,2.1l-1.1,3.4l1.1,3.4l2.9,2.1h3.6l2.9-2.1L962.4,548.5z"/>
<path class="st6" d="M1205.4,515.5l-1.1-3.4l-2.9-2.1h-3.6l-2.9,2.1l-1.1,3.4l1.1,3.4l2.9,2.1h3.6l2.9-2.1L1205.4,515.5z"/>
<path class="st6" d="M1173.4,481.5l-1.1-3.4l-2.9-2.1h-3.6l-2.9,2.1l-1.1,3.4l1.1,3.4l2.9,2.1h3.6l2.9-2.1L1173.4,481.5z"/>
<path class="st6" d="M1247.4,448.5l-1.1-3.4l-2.9-2.1h-3.6l-2.9,2.1l-1.1,3.4l1.1,3.4l2.9,2.1h3.6l2.9-2.1L1247.4,448.5z"/>
<path class="st6" d="M1205.4,415.5l-1.1-3.4l-2.9-2.1h-3.6l-2.9,2.1l-1.1,3.4l1.1,3.4l2.9,2.1h3.6l2.9-2.1L1205.4,415.5z"/>
<path class="st6" d="M1151.4,371.5l-1.1-3.4l-2.9-2.1h-3.6l-2.9,2.1l-1.1,3.4l1.1,3.4l2.9,2.1h3.6l2.9-2.1L1151.4,371.5z"/>
<path class="st6" d="M961.4,338.5l-1.1-3.4l-2.9-2.1h-3.6l-2.9,2.1l-1.1,3.4l1.1,3.4l2.9,2.1h3.6l2.9-2.1L961.4,338.5z"/>
<line class="st5" x1="1145.7" y1="371.9" x2="955.4" y2="338.6"/>
<path class="st5" d="M956.5,548.4l243.4-33.3l-32.3-33.3l74.4-33.3l-42.7-33.3"/>
<line class="st7" x1="1013" y1="548.4" x2="1056.6" y2="548.4"/>
<line class="st7" x1="1181.2" y1="515.1" x2="1345.7" y2="515.1"/>
<line class="st7" x1="1158.5" y1="481.8" x2="1313.8" y2="481.8"/>
<line class="st7" x1="1191.3" y1="448.5" x2="1350.5" y2="448.5"/>
<line class="st7" x1="1182.5" y1="415.2" x2="1355.4" y2="415.2"/>
<line class="st7" x1="1121.9" y1="371.9" x2="1240.3" y2="371.9"/>
<line class="st7" x1="1010.2" y1="338.6" x2="1059.6" y2="338.6"/>
<path class="st8" d="M1039.4,548.5l-1.1-3.4l-2.9-2.1h-3.6l-2.9,2.1l-1.1,3.4l1.1,3.4l2.9,2.1h3.6l2.9-2.1L1039.4,548.5z"/>
<path class="st8" d="M1261.4,515.5l-1.1-3.4l-2.9-2.1h-3.6l-2.9,2.1l-1.1,3.4l1.1,3.4l2.9,2.1h3.6l2.9-2.1L1261.4,515.5z"/>
<path class="st8" d="M1237.4,481.5l-1.1-3.4l-2.9-2.1h-3.6l-2.9,2.1l-1.1,3.4l1.1,3.4l2.9,2.1h3.6l2.9-2.1L1237.4,481.5z"/>
<path class="st8" d="M1271.4,448.5l-1.1-3.4l-2.9-2.1h-3.6l-2.9,2.1l-1.1,3.4l1.1,3.4l2.9,2.1h3.6l2.9-2.1L1271.4,448.5z"/>
<path class="st8" d="M1269.4,415.5l-1.1-3.4l-2.9-2.1h-3.6l-2.9,2.1l-1.1,3.4l1.1,3.4l2.9,2.1h3.6l2.9-2.1L1269.4,415.5z"/>
<path class="st8" d="M1182.4,371.5l-1.1-3.4l-2.9-2.1h-3.6l-2.9,2.1l-1.1,3.4l1.1,3.4l2.9,2.1h3.6l2.9-2.1L1182.4,371.5z"/>
<path class="st8" d="M1039.4,338.5l-1.1-3.4l-2.9-2.1h-3.6l-2.9,2.1l-1.1,3.4l1.1,3.4l2.9,2.1h3.6l2.9-2.1L1039.4,338.5z"/>
<line class="st7" x1="1176.7" y1="371.9" x2="1033.5" y2="338.6"/>
<path class="st7" d="M1033.7,548.4l222.2-33.3l-24.7-33.3l34.5-33.3l-2.7-33.3"/>
<line class="st0" x1="693" y1="843.3" x2="166" y2="843.3"/>
<line class="st0" x1="693" y1="809.9" x2="166" y2="809.9"/>
<line class="st0" x1="693" y1="776.4" x2="166" y2="776.4"/>
<line class="st0" x1="693" y1="743" x2="166" y2="743"/>
<line class="st0" x1="693" y1="709.6" x2="166" y2="709.6"/>
<line class="st0" x1="693" y1="666.1" x2="166" y2="666.1"/>
<line class="st0" x1="693" y1="632.7" x2="166" y2="632.7"/>
<path class="st1" d="M166,860h527H166z"/>
<g transform="translate(216,969.3333)">
	<text transform="matrix(1 0 0 1 -65 -95)" class="st2 st3 st4">-0.08</text>
</g>
<g transform="translate(274.5556,969.3333)">
	<text transform="matrix(1 0 0 1 -65 -95)" class="st2 st3 st4">-0.06</text>
</g>
<g transform="translate(333.1111,969.3333)">
	<text transform="matrix(1 0 0 1 -65 -95)" class="st2 st3 st4">-0.04</text>
</g>
<g transform="translate(391.6667,969.3333)">
	<text transform="matrix(1 0 0 1 -65 -95)" class="st2 st3 st4">-0.02</text>
</g>
<g transform="translate(450.2222,969.3333)">
	<text transform="matrix(1 0 0 1 -54 -95)" class="st2 st3 st4">0</text>
</g>
<g transform="translate(508.7778,969.3333)">
	<text transform="matrix(1 0 0 1 -63 -95)" class="st2 st3 st4">0.02</text>
</g>
<g transform="translate(567.3333,969.3333)">
	<text transform="matrix(1 0 0 1 -63 -95)" class="st2 st3 st4">0.04</text>
</g>
<g transform="translate(625.8889,969.3333)">
	<text transform="matrix(1 0 0 1 -63 -95)" class="st2 st3 st4">0.06</text>
</g>
<g transform="translate(684.4445,969.3333)">
	<text transform="matrix(1 0 0 1 -63 -95)" class="st2 st3 st4">0.08</text>
</g>
<g transform="translate(743,969.3333)">
	<text transform="matrix(1 0 0 1 -59.5 -95)" class="st2 st3 st4">0.1</text>
</g>
<g transform="translate(210.6667,947.2857)">
	<text transform="matrix(1 0 0 1 -153.7481 -98.5)" class="st2 st3 st4">Rule@Repetition5+</text>
</g>
<g transform="translate(210.6667,913.8571)">
	<text transform="matrix(1 0 0 1 -146 -98.5)" class="st2 st3 st4">Rule@Repetition4</text>
</g>
<g transform="translate(210.6667,880.4286)">
	<text transform="matrix(1 0 0 1 -146 -98.5)" class="st2 st3 st4">Rule@Repetition3</text>
</g>
<g transform="translate(210.6667,847)">
	<text transform="matrix(1 0 0 1 -146 -98.5)" class="st2 st3 st4">Rule@Repetition2</text>
</g>
<g transform="translate(210.6667,813.5714)">
	<text transform="matrix(1 0 0 1 -146 -98.5)" class="st2 st3 st4">Rule@Repetition1</text>
</g>
<g transform="translate(210.6667,780.1429)">
	<text transform="matrix(1 0 0 1 -157.8692 -108.5)" class="st2 st3 st4">Rule@Previous Error</text>
</g>
<g transform="translate(210.6667,746.7143)">
	<text transform="matrix(1 0 0 1 -176.3159 -108.5)" class="st2 st3 st4">Rule@No Previous Error</text>
</g>
<line class="st5" x1="416" y1="843.3" x2="466.8" y2="843.3"/>
<line class="st5" x1="347" y1="809.9" x2="571.3" y2="809.9"/>
<line class="st5" x1="247.4" y1="776.4" x2="481.5" y2="776.4"/>
<line class="st5" x1="288.9" y1="743" x2="551.3" y2="743"/>
<line class="st5" x1="184.9" y1="709.6" x2="467.7" y2="709.6"/>
<line class="st5" x1="266.3" y1="666.1" x2="528" y2="666.1"/>
<line class="st5" x1="403.3" y1="632.7" x2="460.6" y2="632.7"/>
<path class="st6" d="M448.4,843.5l-1.1-3.4l-2.9-2.1h-3.6l-2.9,2.1l-1.1,3.4l1.1,3.4l2.9,2.1h3.6l2.9-2.1L448.4,843.5z"/>
<path class="st6" d="M463.4,809.5l-1.1-3.4l-2.9-2.1h-3.6l-2.9,2.1l-1.1,3.4l1.1,3.4l2.9,2.1h3.6l2.9-2.1L463.4,809.5z"/>
<path class="st6" d="M369.4,776.5l-1.1-3.4l-2.9-2.1h-3.6l-2.9,2.1l-1.1,3.4l1.1,3.4l2.9,2.1h3.6l2.9-2.1L369.4,776.5z"/>
<path class="st6" d="M414.4,743.5l-1.1-3.4l-2.9-2.1h-3.6l-2.9,2.1l-1.1,3.4l1.1,3.4l2.9,2.1h3.6l2.9-2.1L414.4,743.5z"/>
<path class="st6" d="M333.4,709.5l-1.1-3.4l-2.9-2.1h-3.6l-2.9,2.1l-1.1,3.4l1.1,3.4l2.9,2.1h3.6l2.9-2.1L333.4,709.5z"/>
<path class="st6" d="M401.4,666.5l-1.1-3.4l-2.9-2.1h-3.6l-2.9,2.1l-1.1,3.4l1.1,3.4l2.9,2.1h3.6l2.9-2.1L401.4,666.5z"/>
<path class="st6" d="M439.4,632.5l-1.1-3.4l-2.9-2.1h-3.6l-2.9,2.1l-1.1,3.4l1.1,3.4l2.9,2.1h3.6l2.9-2.1L439.4,632.5z"/>
<line class="st5" x1="395.1" y1="666.1" x2="433.1" y2="632.7"/>
<path class="st5" d="M442.4,843.3l15.4-33.4L364,776.4l44.9-33.4l-81.2-33.4"/>
<g>
	<line class="st9" x1="400.2" y1="860" x2="400.2" y2="626"/>
</g>
<line class="st7" x1="423.3" y1="843.3" x2="483.1" y2="843.3"/>
<line class="st7" x1="345.1" y1="809.9" x2="594.7" y2="809.9"/>
<line class="st7" x1="323.3" y1="776.4" x2="575.4" y2="776.4"/>
<line class="st7" x1="335.1" y1="743" x2="610.2" y2="743"/>
<line class="st7" x1="323.7" y1="709.6" x2="635.8" y2="709.6"/>
<line class="st7" x1="279" y1="666.1" x2="520.6" y2="666.1"/>
<line class="st7" x1="429.8" y1="632.7" x2="497.9" y2="632.7"/>
<path class="st8" d="M461.4,843.5l-1.1-3.4l-2.9-2.1h-3.6l-2.9,2.1l-1.1,3.4l1.1,3.4l2.9,2.1h3.6l2.9-2.1L461.4,843.5z"/>
<path class="st8" d="M473.4,809.5l-1.1-3.4l-2.9-2.1h-3.6l-2.9,2.1l-1.1,3.4l1.1,3.4l2.9,2.1h3.6l2.9-2.1L473.4,809.5z"/>
<path class="st8" d="M455.4,776.5l-1.1-3.4l-2.9-2.1h-3.6l-2.9,2.1l-1.1,3.4l1.1,3.4l2.9,2.1h3.6l2.9-2.1L455.4,776.5z"/>
<path class="st8" d="M476.4,743.5l-1.1-3.4l-2.9-2.1h-3.6l-2.9,2.1l-1.1,3.4l1.1,3.4l2.9,2.1h3.6l2.9-2.1L476.4,743.5z"/>
<path class="st8" d="M485.4,709.5l-1.1-3.4l-2.9-2.1h-3.6l-2.9,2.1l-1.1,3.4l1.1,3.4l2.9,2.1h3.6l2.9-2.1L485.4,709.5z"/>
<path class="st8" d="M409.4,666.5l-1.1-3.4l-2.9-2.1h-3.6l-2.9,2.1l-1.1,3.4l1.1,3.4l2.9,2.1h3.6l2.9-2.1L409.4,666.5z"/>
<path class="st8" d="M470.4,632.5l-1.1-3.4l-2.9-2.1h-3.6l-2.9,2.1l-1.1,3.4l1.1,3.4l2.9,2.1h3.6l2.9-2.1L470.4,632.5z"/>
<line class="st7" x1="403" y1="666.1" x2="465" y2="632.7"/>
<path class="st7" d="M455.6,843.3l12-33.4l-17.8-33.4l20.2-33.4l9.7-33.4"/>
<line class="st0" x1="1398" y1="843.3" x2="871" y2="843.3"/>
<line class="st0" x1="1398" y1="809.9" x2="871" y2="809.9"/>
<line class="st0" x1="1398" y1="776.4" x2="871" y2="776.4"/>
<line class="st0" x1="1398" y1="743" x2="871" y2="743"/>
<line class="st0" x1="1398" y1="709.6" x2="871" y2="709.6"/>
<line class="st0" x1="1398" y1="666.1" x2="871" y2="666.1"/>
<line class="st0" x1="1398" y1="632.7" x2="871" y2="632.7"/>
<path class="st1" d="M871,860h527H871z"/>
<g transform="translate(921,969.3333)">
	<text transform="matrix(1 0 0 1 -54 -95)" class="st2 st3 st4">0</text>
</g>
<g transform="translate(1008.8333,969.3333)">
	<text transform="matrix(1 0 0 1 -63 -95)" class="st2 st3 st4">0.05</text>
</g>
<g transform="translate(1096.6666,969.3333)">
	<text transform="matrix(1 0 0 1 -59.5 -95)" class="st2 st3 st4">0.1</text>
</g>
<g transform="translate(1184.5,969.3333)">
	<text transform="matrix(1 0 0 1 -63 -95)" class="st2 st3 st4">0.15</text>
</g>
<g transform="translate(1272.3334,969.3333)">
	<text transform="matrix(1 0 0 1 -59.5 -95)" class="st2 st3 st4">0.2</text>
</g>
<g transform="translate(1360.1666,969.3333)">
	<text transform="matrix(1 0 0 1 -63 -95)" class="st2 st3 st4">0.25</text>
</g>
<g transform="translate(1448,969.3333)">
	<text transform="matrix(1 0 0 1 -59.5 -95)" class="st2 st3 st4">0.3</text>
</g>
<g transform="translate(915.6667,947.2857)">
	<text transform="matrix(1 0 0 1 -153.748 -98.5)" class="st2 st3 st4">Rule@Repetition5+</text>
</g>
<g transform="translate(915.6667,913.8571)">
	<text transform="matrix(1 0 0 1 -146 -98.5)" class="st2 st3 st4">Rule@Repetition4</text>
</g>
<g transform="translate(915.6667,880.4286)">
	<text transform="matrix(1 0 0 1 -146 -98.5)" class="st2 st3 st4">Rule@Repetition3</text>
</g>
<g transform="translate(915.6667,847)">
	<text transform="matrix(1 0 0 1 -146 -98.5)" class="st2 st3 st4">Rule@Repetition2</text>
</g>
<g transform="translate(915.6667,813.5714)">
	<text transform="matrix(1 0 0 1 -146 -98.5)" class="st2 st3 st4">Rule@Repetition1</text>
</g>
<g transform="translate(915.6667,780.1429)">
	<text transform="matrix(1 0 0 1 -157.8691 -108.5)" class="st2 st3 st4">Rule@Previous Error</text>
</g>
<g transform="translate(915.6667,746.7143)">
	<text transform="matrix(1 0 0 1 -176.3164 -108.5)" class="st2 st3 st4">Rule@No Previous Error</text>
</g>
<line class="st5" x1="948.6" y1="843.3" x2="975" y2="843.3"/>
<line class="st5" x1="1113.6" y1="809.9" x2="1236.8" y2="809.9"/>
<line class="st5" x1="1087.2" y1="776.4" x2="1215.6" y2="776.4"/>
<line class="st5" x1="1148.2" y1="743" x2="1272.7" y2="743"/>
<line class="st5" x1="1114.8" y1="709.6" x2="1238.7" y2="709.6"/>
<line class="st5" x1="1128.8" y1="666.1" x2="1230.1" y2="666.1"/>
<line class="st5" x1="974.3" y1="632.7" x2="1003.7" y2="632.7"/>
<path class="st6" d="M966.4,843.5l-1.1-3.4l-2.9-2.1h-3.6l-2.9,2.1l-1.1,3.4l1.1,3.4l2.9,2.1h3.6l2.9-2.1L966.4,843.5z"/>
<path class="st6" d="M1174.4,809.5l-1.1-3.4l-2.9-2.1h-3.6l-2.9,2.1l-1.1,3.4l1.1,3.4l2.9,2.1h3.6l2.9-2.1L1174.4,809.5z"/>
<path class="st6" d="M1151.4,776.5l-1.1-3.4l-2.9-2.1h-3.6l-2.9,2.1l-1.1,3.4l1.1,3.4l2.9,2.1h3.6l2.9-2.1L1151.4,776.5z"/>
<path class="st6" d="M1213.4,743.5l-1.1-3.4l-2.9-2.1h-3.6l-2.9,2.1l-1.1,3.4l1.1,3.4l2.9,2.1h3.6l2.9-2.1L1213.4,743.5z"/>
<path class="st6" d="M1176.4,709.5l-1.1-3.4l-2.9-2.1h-3.6l-2.9,2.1l-1.1,3.4l1.1,3.4l2.9,2.1h3.6l2.9-2.1L1176.4,709.5z"/>
<path class="st6" d="M1180.4,666.5l-1.1-3.4l-2.9-2.1h-3.6l-2.9,2.1l-1.1,3.4l1.1,3.4l2.9,2.1h3.6l2.9-2.1L1180.4,666.5z"/>
<path class="st6" d="M993.4,632.5l-1.1-3.4l-2.9-2.1h-3.6l-2.9,2.1l-1.1,3.4l1.1,3.4l2.9,2.1h3.6l2.9-2.1L993.4,632.5z"/>
<line class="st5" x1="1174.2" y1="666.1" x2="987.9" y2="632.7"/>
<path class="st5" d="M960.7,843.3l207.3-33.4l-22.6-33.4l62.1-33.4l-37.4-33.4"/>
<line class="st7" x1="1010.1" y1="843.3" x2="1046.6" y2="843.3"/>
<line class="st7" x1="1152.4" y1="809.9" x2="1300.3" y2="809.9"/>
<line class="st7" x1="1137.1" y1="776.4" x2="1279.1" y2="776.4"/>
<line class="st7" x1="1170.3" y1="743" x2="1326.3" y2="743"/>
<line class="st7" x1="1173.1" y1="709.6" x2="1340.3" y2="709.6"/>
<line class="st7" x1="1140" y1="666.1" x2="1249.8" y2="666.1"/>
<line class="st7" x1="1029.3" y1="632.7" x2="1070.4" y2="632.7"/>
<path class="st8" d="M1033.4,843.5l-1.1-3.4l-2.9-2.1h-3.6l-2.9,2.1l-1.1,3.4l1.1,3.4l2.9,2.1h3.6l2.9-2.1L1033.4,843.5z"/>
<path class="st8" d="M1226.4,809.5l-1.1-3.4l-2.9-2.1h-3.6l-2.9,2.1l-1.1,3.4l1.1,3.4l2.9,2.1h3.6l2.9-2.1L1226.4,809.5z"/>
<path class="st8" d="M1206.4,776.5l-1.1-3.4l-2.9-2.1h-3.6l-2.9,2.1l-1.1,3.4l1.1,3.4l2.9,2.1h3.6l2.9-2.1L1206.4,776.5z"/>
<path class="st8" d="M1246.4,743.5l-1.1-3.4l-2.9-2.1h-3.6l-2.9,2.1l-1.1,3.4l1.1,3.4l2.9,2.1h3.6l2.9-2.1L1246.4,743.5z"/>
<path class="st8" d="M1253.4,709.5l-1.1-3.4l-2.9-2.1h-3.6l-2.9,2.1l-1.1,3.4l1.1,3.4l2.9,2.1h3.6l2.9-2.1L1253.4,709.5z"/>
<path class="st8" d="M1197.4,666.5l-1.1-3.4l-2.9-2.1h-3.6l-2.9,2.1l-1.1,3.4l1.1,3.4l2.9,2.1h3.6l2.9-2.1L1197.4,666.5z"/>
<path class="st8" d="M1054.4,632.5l-1.1-3.4l-2.9-2.1h-3.6l-2.9,2.1l-1.1,3.4l1.1,3.4l2.9,2.1h3.6l2.9-2.1L1054.4,632.5z"/>
<line class="st7" x1="1191.2" y1="666.1" x2="1048.9" y2="632.7"/>
<path class="st7" d="M1027.5,843.3l192.9-33.4l-19.7-33.4l39.8-33.4l7.3-33.4"/>
<g transform="translate(500.5005,67.25)">
	<text transform="matrix(1 0 0 1 -182.2955 -37.0034)" class="st3 st10">Change in Firing Rate (spikes / s)</text>
</g>
<g transform="translate(500.5005,67.25)">
	<text transform="matrix(1 0 0 1 491.4452 -30.2733)" class="st3 st10">Absolute Change in Firing Rate (spikes / s)</text>
</g>
<text transform="matrix(1 0 0 1 723 926.9966)" class="st3 st11">ACC</text>
<g transform="translate(500.5005,347.25)">
	<text transform="matrix(1 0 0 1 -245.526 -31)" class="st3 st10">Normalized Change in Firing Rate (Difference Index)</text>
</g>
<g transform="translate(500.5005,347.25)">
	<text transform="matrix(1 0 0 1 428.2152 -31)" class="st3 st10">Absolute Normalized Change in Firing Rate (Difference Index)</text>
</g>
<g transform="translate(500.5005,626.25)">
	<text transform="matrix(1 0 0 1 -257.6109 -17.179)" class="st3 st10">Normalized Change in Firing Rate (Average Firing Rate)</text>
</g>
<g transform="translate(500.5005,626.25)">
	<text transform="matrix(1 0 0 1 416.1302 -10.429)" class="st3 st10">Absolute Normalized Change in Firing Rate (Average Firing Rate)</text>
</g>
<text transform="matrix(1 0 0 1 13 30.2466)" class="st3 st11">a</text>
<text transform="matrix(1 0 0 1 721 30.2466)" class="st3 st11">b</text>
<text transform="matrix(1 0 0 1 407.9855 899.0999)" class="st3 st12">Stronger for Orientation Rule</text>
<text transform="matrix(1 0 0 1 244.5754 899.0999)" class="st3 st12">Stronger for Color Rule</text>
<g>
	<line class="st13" x1="334.1" y1="915.1" x2="299" y2="915.1"/>
	<g>
		<line class="st14" x1="334.1" y1="915.1" x2="307.8" y2="915.1"/>
		<g>
			<polygon points="309.8,912.2 299,915.1 309.8,918 			"/>
		</g>
	</g>
</g>
<g>
	<line class="st13" x1="479.9" y1="915.1" x2="515" y2="915.1"/>
	<g>
		<line class="st14" x1="479.9" y1="915.1" x2="506.2" y2="915.1"/>
		<g>
			<polygon points="504.2,918 515,915.1 504.2,912.2 			"/>
		</g>
	</g>
</g>
<g transform="translate(1262.0667,187.7187)">
	<path class="st6" d="M-403.8,712.8h1.5l2.3,6.7l2.3-6.7h1.5v7.9h-1V716c0-0.2,0-0.4,0-0.8c0-0.4,0-0.8,0-1.2l-2.3,6.7h-1l-2.3-6.7
		v0.2c0,0.2,0,0.5,0,0.9s0,0.7,0,0.9v4.7h-1C-403.8,720.7-403.8,712.8-403.8,712.8z M-391.1,719.3c0.2-0.5,0.4-1,0.4-1.6
		c0-0.5-0.1-1-0.3-1.3c-0.3-0.5-0.7-0.8-1.4-0.8c-0.6,0-1,0.2-1.3,0.7s-0.4,1-0.4,1.6s0.1,1.1,0.4,1.5s0.7,0.6,1.3,0.6
		C-391.8,720.1-391.4,719.8-391.1,719.3z M-390.5,715.5c0.5,0.5,0.7,1.2,0.7,2.2c0,0.9-0.2,1.7-0.7,2.3s-1.2,0.9-2.1,0.9
		c-0.8,0-1.4-0.3-1.9-0.8c-0.4-0.5-0.6-1.2-0.6-2.1c0-1,0.2-1.7,0.7-2.3s1.1-0.9,2-0.9C-391.7,714.8-391,715-390.5,715.5z
		 M-388.6,714.9h0.9v0.8c0.3-0.3,0.6-0.6,0.9-0.7c0.3-0.1,0.6-0.2,1-0.2c0.8,0,1.4,0.3,1.7,0.9c0.2,0.3,0.2,0.8,0.2,1.3v3.7h-1v-3.6
		c0-0.4-0.1-0.6-0.2-0.8c-0.1-0.4-0.4-0.6-0.9-0.6c-0.2,0-0.4,0-0.6,0.1c-0.3,0.1-0.5,0.2-0.7,0.5c-0.2,0.2-0.3,0.4-0.3,0.6
		c0,0.1,0,0.4,0,0.8v3h-1V714.9z M-382.5,712.8h0.9v4.6l2.5-2.4h1.2l-2.2,2.2l2.4,3.5h-1.2l-1.8-2.9l-0.9,0.7v2.2h-0.9V712.8z
		 M-373.4,715.1c0.4,0.2,0.7,0.4,0.9,0.7c0.2,0.3,0.3,0.6,0.4,1c0.1,0.3,0.1,0.7,0.1,1.3h-4.2c0,0.6,0.2,1.1,0.4,1.4
		c0.3,0.4,0.7,0.5,1.2,0.5s0.9-0.2,1.2-0.5c0.2-0.2,0.3-0.4,0.4-0.7h1c0,0.2-0.1,0.4-0.2,0.7s-0.3,0.5-0.5,0.6
		c-0.3,0.3-0.7,0.5-1.1,0.6c-0.2,0.1-0.5,0.1-0.8,0.1c-0.7,0-1.3-0.3-1.8-0.8s-0.7-1.3-0.7-2.2s0.3-1.7,0.8-2.3s1.2-0.9,2-0.9
		C-374.2,714.8-373.8,714.9-373.4,715.1z M-373.1,717.4c0-0.4-0.1-0.8-0.3-1c-0.2-0.5-0.6-0.7-1.3-0.7c-0.4,0-0.8,0.2-1.1,0.5
		c-0.3,0.3-0.5,0.7-0.5,1.2H-373.1z M-367.3,714.9h1.1c-0.1,0.4-0.4,1.2-0.9,2.5c-0.4,1-0.6,1.8-0.9,2.4c-0.6,1.5-1,2.4-1.2,2.7
		s-0.6,0.5-1.2,0.5c-0.1,0-0.2,0-0.3,0c-0.1,0-0.2,0-0.3-0.1v-0.8c0.2,0,0.3,0.1,0.4,0.1s0.1,0,0.2,0c0.2,0,0.3,0,0.4-0.1
		s0.2-0.1,0.2-0.2c0,0,0.1-0.2,0.2-0.4c0.1-0.3,0.2-0.5,0.2-0.6l-2.1-5.9h1.1l1.5,4.7L-367.3,714.9z M-356.5,713.4
		c0.6,0.5,0.9,1.1,0.9,1.8h-1c-0.1-0.5-0.4-0.9-0.7-1.2c-0.4-0.3-0.8-0.4-1.5-0.4c-0.8,0-1.4,0.3-1.9,0.8s-0.7,1.4-0.7,2.5
		c0,0.9,0.2,1.7,0.6,2.2s1.1,0.9,1.9,0.9s1.4-0.3,1.8-0.9c0.2-0.4,0.4-0.8,0.5-1.3h1c-0.1,0.8-0.4,1.5-0.9,2.1c-0.6,0.7-1.5,1-2.5,1
		c-0.9,0-1.7-0.3-2.3-0.8c-0.8-0.7-1.2-1.9-1.2-3.4c0-1.2,0.3-2.1,0.9-2.9c0.7-0.8,1.6-1.2,2.8-1.2
		C-357.9,712.6-357.1,712.9-356.5,713.4z M-348.6,713.4c0.6,0.5,0.9,1.1,0.9,1.8h-1c-0.1-0.5-0.4-0.9-0.7-1.2
		c-0.4-0.3-0.8-0.4-1.5-0.4c-0.8,0-1.4,0.3-1.9,0.8s-0.7,1.4-0.7,2.5c0,0.9,0.2,1.7,0.6,2.2c0.4,0.6,1.1,0.9,1.9,0.9
		s1.4-0.3,1.8-0.9c0.3-0.4,0.4-0.8,0.6-1.3h1c-0.1,0.8-0.4,1.5-0.9,2.1c-0.6,0.7-1.5,1-2.5,1c-0.9,0-1.7-0.3-2.3-0.8
		c-0.9-0.8-1.3-1.9-1.3-3.4c0-1.2,0.3-2.1,0.9-2.9c0.7-0.8,1.6-1.2,2.8-1.2C-349.9,712.6-349.1,712.9-348.6,713.4z"/>
</g>
<g transform="translate(1262.0667,201.0195)">
	<path class="st8" d="M-403.8,712.8h1.5l2.3,6.7l2.3-6.7h1.5v7.9h-1V716c0-0.2,0-0.4,0-0.8c0-0.4,0-0.8,0-1.2l-2.3,6.7h-1l-2.3-6.7
		v0.2c0,0.2,0,0.5,0,0.9s0,0.7,0,0.9v4.7h-1C-403.8,720.7-403.8,712.8-403.8,712.8z M-391.1,719.3c0.2-0.5,0.4-1,0.4-1.6
		c0-0.5-0.1-1-0.3-1.3c-0.3-0.5-0.7-0.8-1.4-0.8c-0.6,0-1,0.2-1.3,0.7s-0.4,1-0.4,1.6s0.1,1.1,0.4,1.5s0.7,0.6,1.3,0.6
		C-391.8,720.1-391.4,719.8-391.1,719.3z M-390.5,715.5c0.5,0.5,0.7,1.2,0.7,2.2c0,0.9-0.2,1.7-0.7,2.3s-1.2,0.9-2.1,0.9
		c-0.8,0-1.4-0.3-1.9-0.8c-0.4-0.5-0.6-1.2-0.6-2.2s0.2-1.7,0.7-2.3s1.1-0.9,2-0.9C-391.7,714.8-391,715-390.5,715.5z M-388.6,714.9
		h0.9v0.8c0.3-0.3,0.6-0.6,0.9-0.7c0.3-0.1,0.6-0.2,1-0.2c0.8,0,1.4,0.3,1.7,0.9c0.2,0.3,0.2,0.8,0.2,1.3v3.7h-1v-3.6
		c0-0.4-0.1-0.6-0.2-0.8c-0.1-0.4-0.4-0.6-0.9-0.6c-0.2,0-0.4,0-0.6,0.1c-0.3,0.1-0.5,0.2-0.7,0.5c-0.2,0.2-0.3,0.4-0.3,0.6
		c0,0.1,0,0.4,0,0.8v3h-1V714.9z M-382.5,712.8h0.9v4.6l2.5-2.4h1.2l-2.2,2.2l2.4,3.5h-1.2l-1.8-2.9l-0.9,0.7v2.2h-0.9V712.8z
		 M-373.4,715.1c0.4,0.2,0.7,0.4,0.9,0.7c0.2,0.3,0.3,0.6,0.4,1c0.1,0.3,0.1,0.7,0.1,1.3h-4.2c0,0.6,0.2,1.1,0.4,1.4
		c0.3,0.4,0.7,0.5,1.2,0.5s0.9-0.2,1.2-0.5c0.2-0.2,0.3-0.4,0.4-0.7h1c0,0.2-0.1,0.4-0.2,0.7s-0.3,0.5-0.5,0.6
		c-0.3,0.3-0.7,0.5-1.1,0.6c-0.2,0.1-0.5,0.1-0.8,0.1c-0.7,0-1.3-0.3-1.8-0.8s-0.7-1.3-0.7-2.2s0.3-1.7,0.8-2.3s1.2-0.9,2-0.9
		C-374.2,714.8-373.8,714.9-373.4,715.1z M-373.1,717.4c0-0.4-0.1-0.8-0.3-1c-0.2-0.5-0.6-0.7-1.3-0.7c-0.4,0-0.8,0.2-1.1,0.5
		c-0.3,0.3-0.5,0.7-0.5,1.2H-373.1z M-367.3,714.9h1.1c-0.1,0.4-0.4,1.2-0.9,2.5c-0.4,1-0.6,1.8-0.9,2.4c-0.6,1.5-1,2.4-1.2,2.7
		s-0.6,0.5-1.2,0.5c-0.1,0-0.2,0-0.3,0c-0.1,0-0.2,0-0.3-0.1v-0.8c0.2,0,0.3,0.1,0.4,0.1s0.1,0,0.2,0c0.2,0,0.3,0,0.4-0.1
		s0.2-0.1,0.2-0.2c0,0,0.1-0.2,0.2-0.4c0.1-0.3,0.2-0.5,0.2-0.6l-2.1-5.9h1.1l1.5,4.7L-367.3,714.9z M-361.9,712.8h1.1v7.9h-1.1
		V712.8z M-358.4,718.2c0,0.4,0.1,0.8,0.3,1.1c0.4,0.5,1,0.8,1.9,0.8c0.4,0,0.8-0.1,1.1-0.2c0.6-0.2,1-0.6,1-1.2
		c0-0.4-0.1-0.7-0.4-0.9s-0.7-0.3-1.3-0.5l-1.1-0.2c-0.7-0.2-1.2-0.4-1.5-0.6c-0.5-0.3-0.8-0.8-0.8-1.5s0.2-1.3,0.7-1.7
		c0.5-0.5,1.2-0.7,2.1-0.7c0.8,0,1.5,0.2,2.1,0.6c0.6,0.4,0.9,1,0.9,1.9h-1c-0.1-0.4-0.2-0.7-0.3-1c-0.4-0.4-0.9-0.6-1.7-0.6
		c-0.6,0-1.1,0.1-1.4,0.4c-0.3,0.3-0.4,0.6-0.4,0.9c0,0.4,0.2,0.7,0.5,0.8c0.2,0.1,0.7,0.3,1.4,0.4l1.1,0.3c0.6,0.2,1,0.4,1.3,0.6
		c0.5,0.4,0.8,0.9,0.8,1.6c0,0.9-0.3,1.5-1,1.9c-0.6,0.4-1.4,0.6-2.2,0.6c-1,0-1.7-0.3-2.3-0.8c-0.6-0.5-0.8-1.2-0.8-2
		C-359.4,718.2-358.4,718.2-358.4,718.2z M-347.7,717.5l-1.2-3.5l-1.3,3.5H-347.7z M-349.5,712.8h1.2l2.9,7.9h-1.2l-0.8-2.4h-3.1
		l-0.9,2.4h-1.1L-349.5,712.8z"/>
</g>
</svg>
