<?xml version="1.0" encoding="utf-8"?>
<!-- Generator: Adobe Illustrator 19.2.1, SVG Export Plug-In . SVG Version: 6.00 Build 0)  -->
<svg version="1.1" id="Layer_1" xmlns="http://www.w3.org/2000/svg" xmlns:xlink="http://www.w3.org/1999/xlink" x="0px" y="0px"
	 viewBox="0 0 1600 1083" style="enable-background:new 0 0 1600 1083;" xml:space="preserve">
<style type="text/css">
	.st0{fill:#262626;}
	.st1{font-family:'ArialMT';}
	.st2{font-size:13px;}
	.st3{fill:none;stroke:#000000;stroke-linecap:square;stroke-miterlimit:10;}
	.st4{opacity:0.7;}
	.st5{fill:#66C2A5;}
	.st6{fill:none;stroke:#66C2A5;stroke-linecap:square;stroke-miterlimit:10;}
	.st7{fill:none;stroke:#000000;stroke-width:1.3333;stroke-linecap:square;stroke-miterlimit:10;}
	.st8{fill:#7570B3;}
	.st9{fill:none;stroke:#7570B3;stroke-linecap:square;stroke-miterlimit:10;}
	.st10{font-size:36px;}
	.st11{fill:none;}
	.st12{fill:none;stroke:#000000;stroke-width:2;stroke-miterlimit:10;}
</style>
<g transform="translate(475.5002,813.6667)">
	<text transform="matrix(1 0 0 1 -38 16)" class="st0 st1 st2">Repetition1</text>
</g>
<line class="st3" x1="208" y1="790" x2="743" y2="790"/>
<g transform="translate(208,795.3334)">
	<text transform="matrix(1 0 0 1 -6 14)" class="st0 st1 st2">-1</text>
</g>
<g transform="translate(261.5,795.3334)">
	<text transform="matrix(1 0 0 1 -11.5 14)" class="st0 st1 st2">-0.8</text>
</g>
<g transform="translate(315,795.3334)">
	<text transform="matrix(1 0 0 1 -11.5 14)" class="st0 st1 st2">-0.6</text>
</g>
<g transform="translate(368.5,795.3334)">
	<text transform="matrix(1 0 0 1 -11.5 14)" class="st0 st1 st2">-0.4</text>
</g>
<g transform="translate(422,795.3334)">
	<text transform="matrix(1 0 0 1 -11.5 14)" class="st0 st1 st2">-0.2</text>
</g>
<g transform="translate(475.5,795.3334)">
	<text transform="matrix(1 0 0 1 -4 14)" class="st0 st1 st2">0</text>
</g>
<g transform="translate(529,795.3334)">
	<text transform="matrix(1 0 0 1 -9.5 14)" class="st0 st1 st2">0.2</text>
</g>
<g transform="translate(582.5,795.3334)">
	<text transform="matrix(1 0 0 1 -9.5 14)" class="st0 st1 st2">0.4</text>
</g>
<g transform="translate(636,795.3334)">
	<text transform="matrix(1 0 0 1 -9.5 14)" class="st0 st1 st2">0.6</text>
</g>
<g transform="translate(689.5,795.3334)">
	<text transform="matrix(1 0 0 1 -9.5 14)" class="st0 st1 st2">0.8</text>
</g>
<g transform="translate(743,795.3334)">
	<text transform="matrix(1 0 0 1 -4 14)" class="st0 st1 st2">1</text>
</g>
<g transform="translate(175.6667,522.4998) rotate(-90)">
	<text transform="matrix(1 0 0 1 -42.5002 -4)" class="st0 st1 st2">Repetition5+</text>
</g>
<line class="st3" x1="208" y1="790" x2="208" y2="255"/>
<g transform="translate(202.6667,790)">
	<text transform="matrix(1 0 0 1 -12 5.5)" class="st0 st1 st2">-1</text>
</g>
<g transform="translate(202.6667,736.5)">
	<text transform="matrix(1 0 0 1 -23 5.5)" class="st0 st1 st2">-0.8</text>
</g>
<g transform="translate(202.6667,683)">
	<text transform="matrix(1 0 0 1 -23 5.5)" class="st0 st1 st2">-0.6</text>
</g>
<g transform="translate(202.6667,629.5)">
	<text transform="matrix(1 0 0 1 -23 5.5)" class="st0 st1 st2">-0.4</text>
</g>
<g transform="translate(202.6667,576)">
	<text transform="matrix(1 0 0 1 -23 5.5)" class="st0 st1 st2">-0.2</text>
</g>
<g transform="translate(202.6667,522.5)">
	<text transform="matrix(1 0 0 1 -8 5.5)" class="st0 st1 st2">0</text>
</g>
<g transform="translate(202.6667,469)">
	<text transform="matrix(1 0 0 1 -19 5.5)" class="st0 st1 st2">0.2</text>
</g>
<g transform="translate(202.6667,415.5)">
	<text transform="matrix(1 0 0 1 -19 5.5)" class="st0 st1 st2">0.4</text>
</g>
<g transform="translate(202.6667,362)">
	<text transform="matrix(1 0 0 1 -19 5.5)" class="st0 st1 st2">0.6</text>
</g>
<g transform="translate(202.6667,308.5)">
	<text transform="matrix(1 0 0 1 -19 5.5)" class="st0 st1 st2">0.8</text>
</g>
<g transform="translate(202.6667,255)">
	<text transform="matrix(1 0 0 1 -8 5.5)" class="st0 st1 st2">1</text>
</g>
<g class="st4">
	<path class="st5" d="M489.2,554.5l-1.1-2.6l-2.6-1.1l-2.6,1.1l-1.1,2.6l1.1,2.6l2.6,1.1l2.6-1.1L489.2,554.5z"/>
	<path class="st5" d="M299,522.5l-1-2.5l-2.5-1l-2.5,1l-1,2.5l1,2.5l2.5,1l2.5-1L299,522.5z"/>
	<path class="st5" d="M475.8,509.5l-1-3.1l-2.7-1.9h-3.3l-2.7,1.9l-1,3.1l1,3.1l2.7,1.9h3.3l2.7-1.9L475.8,509.5z"/>
	<path class="st5" d="M499.1,503.5l-1.1-3.3l-2.8-2h-3.4l-2.8,2l-1.1,3.3l1.1,3.3l2.8,2h3.4l2.8-2L499.1,503.5z"/>
	<path class="st5" d="M510.2,508.5l-1.1-3.3l-2.8-2.1h-3.5l-2.8,2.1l-1.1,3.3l1.1,3.3l2.8,2.1h3.5l2.8-2.1L510.2,508.5z"/>
	<path class="st5" d="M499.3,531.5l-0.9-2.8L496,527H493l-2.4,1.7l-0.9,2.8l0.9,2.8l2.4,1.7h2.9l2.4-1.7L499.3,531.5z"/>
	<path class="st5" d="M450.1,539.5l-0.9-2.7l-2.3-1.7h-2.8l-2.3,1.7l-0.9,2.7l0.9,2.7l2.3,1.7h2.8l2.3-1.7L450.1,539.5z"/>
	<path class="st5" d="M506.6,505.5l-1.2-2.9l-2.9-1.2l-2.9,1.2l-1.2,2.9l1.2,2.9l2.9,1.2l2.9-1.2L506.6,505.5z"/>
	<path class="st5" d="M473.7,523.5l-1-3.1l-2.6-1.9h-3.2l-2.6,1.9l-1,3.1l1,3.1l2.6,1.9h3.2l2.6-1.9L473.7,523.5z"/>
	<path class="st5" d="M466.3,507.5l-0.9-2.8l-2.4-1.8h-3l-2.4,1.8l-0.9,2.8l0.9,2.8l2.4,1.8h3l2.4-1.8L466.3,507.5z"/>
	<path class="st5" d="M474.8,525.5l-0.9-3.2l-2.3-2.3l-3.2-0.9l-3.2,0.9l-2.3,2.3l-0.9,3.2l0.9,3.2l2.3,2.3l3.2,0.9l3.2-0.9l2.3-2.3
		L474.8,525.5z"/>
	<path class="st5" d="M504.5,521.5l-1.2-2.8l-2.8-1.2l-2.8,1.2l-1.2,2.8l1.2,2.8l2.8,1.2l2.8-1.2L504.5,521.5z"/>
	<path class="st5" d="M508.5,519.5l-1.1-3.5l-3-2.2h-3.7l-3,2.2l-1.1,3.5l1.1,3.5l3,2.2h3.7l3-2.2L508.5,519.5z"/>
	<path class="st5" d="M491.4,515.5l-0.9-3.5l-2.5-2.5l-3.5-0.9l-3.5,0.9l-2.5,2.5l-0.9,3.5l0.9,3.5l2.5,2.5l3.5,0.9l3.5-0.9l2.5-2.5
		L491.4,515.5z"/>
	<path class="st5" d="M518.7,519.5l-0.8-3.1l-2.3-2.3l-3.1-0.8l-3.1,0.8l-2.3,2.3l-0.8,3.1l0.8,3.1l2.3,2.3l3.1,0.8l3.1-0.8l2.3-2.3
		L518.7,519.5z"/>
	<path class="st5" d="M462.1,521.5l-0.9-3.3l-2.4-2.4l-3.3-0.9l-3.3,0.9l-2.4,2.4l-0.9,3.3l0.9,3.3l2.4,2.4l3.3,0.9l3.3-0.9l2.4-2.4
		L462.1,521.5z"/>
	<path class="st5" d="M514.2,525.5l-1.1-2.6l-2.6-1.1l-2.6,1.1l-1.1,2.6l1.1,2.6l2.6,1.1l2.6-1.1L514.2,525.5z"/>
	<path class="st5" d="M449.2,513.5l-1.1-3.3l-2.8-2.1h-3.5l-2.8,2.1l-1.1,3.3l1.1,3.3l2.8,2.1h3.5l2.8-2.1L449.2,513.5z"/>
	<path class="st5" d="M394.1,515.5l-1.1-2.6l-2.6-1.1l-2.6,1.1l-1.1,2.6l1.1,2.6l2.6,1.1l2.6-1.1L394.1,515.5z"/>
	<path class="st5" d="M456,514.5l-0.9-2.6l-2.2-1.6h-2.8l-2.2,1.6l-0.9,2.6l0.9,2.6l2.2,1.6h2.8l2.2-1.6L456,514.5z"/>
	<path class="st5" d="M420.8,528.5L420,526l-2.2-1.6h-2.7L413,526l-0.8,2.5l0.8,2.5l2.2,1.6h2.7l2.2-1.6L420.8,528.5z"/>
	<path class="st5" d="M445.1,518.5l-0.9-2.7l-2.3-1.7h-2.8l-2.3,1.7l-0.9,2.7l0.9,2.7l2.3,1.7h2.8l2.3-1.7L445.1,518.5z"/>
	<path class="st5" d="M445.9,516.5l-1-3.2l-2.7-2h-3.4l-2.7,2l-1,3.2l1,3.2l2.7,2h3.4l2.7-2L445.9,516.5z"/>
	<path class="st5" d="M468.4,515.5l-1.1-3.5l-2.9-2.1h-3.6l-2.9,2.1l-1.1,3.5l1.1,3.5l2.9,2.1h3.6l2.9-2.1L468.4,515.5z"/>
	<path class="st5" d="M475.2,524.5l-0.9-2.8L472,520H469l-2.3,1.7l-0.9,2.8l0.9,2.8l2.3,1.7h2.9l2.3-1.7L475.2,524.5z"/>
	<path class="st5" d="M525.3,514.5l-1.1-2.7l-2.7-1.1l-2.7,1.1l-1.1,2.7l1.1,2.7l2.7,1.1l2.7-1.1L525.3,514.5z"/>
	<path class="st5" d="M470.2,507.5l-1.1-3.3l-2.8-2.1h-3.5l-2.8,2.1l-1.1,3.3l1.1,3.3l2.8,2.1h3.5l2.8-2.1L470.2,507.5z"/>
	<path class="st5" d="M531.1,532.5l-1-2.5l-2.5-1l-2.5,1l-1,2.5l1,2.5l2.5,1l2.5-1L531.1,532.5z"/>
	<path class="st5" d="M380.1,540.5l-1-2.5l-2.5-1l-2.5,1l-1,2.5l1,2.5l2.5,1l2.5-1L380.1,540.5z"/>
	<path class="st5" d="M511.8,531.5l-0.8-2.5l-2.1-1.5h-2.6l-2.1,1.5l-0.8,2.5l0.8,2.5l2.1,1.5h2.6l2.1-1.5L511.8,531.5z"/>
	<path class="st5" d="M673.8,522.5l-1-2.3l-2.3-1l-2.3,1l-1,2.3l1,2.3l2.3,1l2.3-1L673.8,522.5z"/>
	<path class="st5" d="M351.1,520.5l-1-2.5l-2.5-1l-2.5,1l-1,2.5l1,2.5l2.5,1l2.5-1L351.1,520.5z"/>
	<path class="st5" d="M608.4,538.5l-1.1-2.8l-2.8-1.1l-2.8,1.1l-1.1,2.8l1.1,2.8l2.8,1.1l2.8-1.1L608.4,538.5z"/>
	<path class="st5" d="M468.4,527.5l-0.9-2.9l-2.4-1.8h-3l-2.4,1.8l-0.9,2.9l0.9,2.9l2.4,1.8h3l2.4-1.8L468.4,527.5z"/>
	<path class="st5" d="M468.2,522.5l-1.1-2.6l-2.6-1.1l-2.6,1.1l-1.1,2.6l1.1,2.6l2.6,1.1l2.6-1.1L468.2,522.5z"/>
	<path class="st5" d="M482.8,531.5L482,529l-2.1-1.6h-2.6L475,529l-0.8,2.5l0.8,2.5l2.1,1.6h2.6l2.1-1.6L482.8,531.5z"/>
	<path class="st5" d="M501.4,529.5l-0.9-2.9l-2.4-1.8h-3l-2.4,1.8l-0.9,2.9l0.9,2.9l2.4,1.8h3l2.4-1.8L501.4,529.5z"/>
	<path class="st5" d="M480.8,522.5l-0.8-3.1l-2.3-2.3l-3.1-0.8l-3.1,0.8l-2.3,2.3l-0.8,3.1l0.8,3.1l2.3,2.3l3.1,0.8l3.1-0.8l2.3-2.3
		L480.8,522.5z"/>
	<path class="st5" d="M490.8,506.5l-1-3.1l-2.7-1.9h-3.3l-2.7,1.9l-1,3.1l1,3.1l2.7,1.9h3.3l2.7-1.9L490.8,506.5z"/>
	<path class="st5" d="M447.1,526.5l-0.9-2.7l-2.3-1.7h-2.8l-2.3,1.7l-0.9,2.7l0.9,2.7l2.3,1.7h2.8l2.3-1.7L447.1,526.5z"/>
	<path class="st5" d="M423.4,518.5l-1.1-2.8l-2.8-1.1l-2.8,1.1l-1.1,2.8l1.1,2.8l2.8,1.1l2.8-1.1L423.4,518.5z"/>
	<path class="st5" d="M500.3,507.5l-1.1-2.7l-2.7-1.1l-2.7,1.1l-1.1,2.7l1.1,2.7l2.7,1.1l2.7-1.1L500.3,507.5z"/>
	<path class="st5" d="M459.9,515.5l-0.8-2.6l-2.2-1.6h-2.7l-2.2,1.6l-0.8,2.6l0.8,2.6l2.2,1.6h2.7l2.2-1.6L459.9,515.5z"/>
	<path class="st5" d="M468.3,522.5l-1.1-3.4l-2.9-2.1h-3.6l-2.9,2.1l-1.1,3.4l1.1,3.4l2.9,2.1h3.6l2.9-2.1L468.3,522.5z"/>
	<path class="st5" d="M465.7,523.5l-1.2-3.6l-3.1-2.2h-3.8l-3.1,2.2l-1.2,3.6l1.2,3.6l3.1,2.2h3.8l3.1-2.2L465.7,523.5z"/>
	<path class="st5" d="M457.5,547.5l-0.9-2.1l-2.1-0.9l-2.1,0.9l-0.9,2.1l0.9,2.1l2.1,0.9l2.1-0.9L457.5,547.5z"/>
	<path class="st5" d="M493.6,534.5l-1.2-2.9l-2.9-1.2l-2.9,1.2l-1.2,2.9l1.2,2.9l2.9,1.2l2.9-1.2L493.6,534.5z"/>
	<path class="st5" d="M488.2,516.5l-0.9-3.3l-2.4-2.4l-3.3-0.9l-3.3,0.9l-2.4,2.4l-0.9,3.3l0.9,3.3l2.4,2.4l3.3,0.9l3.3-0.9l2.4-2.4
		L488.2,516.5z"/>
	<path class="st5" d="M494.4,508.5l-0.9-2.9l-2.5-1.8h-3l-2.5,1.8l-0.9,2.9l0.9,2.9l2.5,1.8h3l2.5-1.8L494.4,508.5z"/>
	<path class="st5" d="M502.6,518.5l-1.2-3.6l-3-2.2h-3.8l-3,2.2l-1.2,3.6l1.2,3.6l3,2.2h3.8l3-2.2L502.6,518.5z"/>
	<path class="st5" d="M448.1,520.5l-1.1-3.3l-2.8-2h-3.4l-2.8,2l-1.1,3.3l1.1,3.3l2.8,2h3.4l2.8-2L448.1,520.5z"/>
	<path class="st5" d="M476.1,535.5l-0.9-2.7l-2.3-1.7h-2.8l-2.3,1.7l-0.9,2.7l0.9,2.7l2.3,1.7h2.8l2.3-1.7L476.1,535.5z"/>
	<path class="st5" d="M483.8,522.5L483,520l-2.1-1.6h-2.6L476,520l-0.8,2.5l0.8,2.5l2.1,1.6h2.6l2.1-1.6L483.8,522.5z"/>
	<path class="st5" d="M480.1,527.5l-1.1-3.3l-2.8-2h-3.4l-2.8,2l-1.1,3.3l1.1,3.3l2.8,2h3.4l2.8-2L480.1,527.5z"/>
	<path class="st5" d="M499.5,516.5l-1-3l-2.5-1.8h-3.1l-2.5,1.8l-1,3l1,3l2.5,1.8h3.1l2.5-1.8L499.5,516.5z"/>
	<path class="st5" d="M400.8,517.5l-0.8-2.6l-2.2-1.6h-2.7l-2.2,1.6l-0.8,2.6l0.8,2.6l2.2,1.6h2.7l2.2-1.6L400.8,517.5z"/>
	<path class="st5" d="M484.8,526.5l-0.8-2.5l-2.1-1.5h-2.6l-2.1,1.5l-0.8,2.5l0.8,2.5l2.1,1.5h2.6l2.1-1.5L484.8,526.5z"/>
	<path class="st5" d="M492.8,518.5l-0.8-3.1l-2.3-2.3l-3.1-0.8l-3.1,0.8l-2.3,2.3l-0.8,3.1l0.8,3.1l2.3,2.3l3.1,0.8l3.1-0.8l2.3-2.3
		L492.8,518.5z"/>
	<path class="st5" d="M467.5,516.5l-1.1-3.5l-3-2.2h-3.7l-3,2.2l-1.1,3.5l1.1,3.5l3,2.2h3.7l3-2.2L467.5,516.5z"/>
	<path class="st5" d="M481.3,513.5l-0.9-2.8l-2.4-1.7h-3l-2.4,1.7l-0.9,2.8l0.9,2.8l2.4,1.7h3l2.4-1.7L481.3,513.5z"/>
	<path class="st5" d="M451,517.5l-0.9-3.3l-2.4-2.4l-3.3-0.9l-3.3,0.9l-2.4,2.4l-0.9,3.3l0.9,3.3l2.4,2.4l3.3,0.9l3.3-0.9l2.4-2.4
		L451,517.5z"/>
	<path class="st5" d="M532.6,515.5l-1.2-3.6l-3.1-2.2h-3.8l-3.1,2.2l-1.2,3.6l1.2,3.6l3.1,2.2h3.8l3.1-2.2L532.6,515.5z"/>
	<path class="st5" d="M439.2,525.5l-1.1-3.4l-2.9-2.1h-3.5l-2.9,2.1l-1.1,3.4l1.1,3.4l2.9,2.1h3.5l2.9-2.1L439.2,525.5z"/>
	<path class="st5" d="M463.4,518.5l-1.1-3.5l-3-2.2h-3.7l-3,2.2l-1.1,3.5l1.1,3.5l3,2.2h3.7l3-2.2L463.4,518.5z"/>
	<path class="st5" d="M503.2,516.5l-1.1-3.4l-2.9-2.1h-3.5l-2.9,2.1l-1.1,3.4l1.1,3.4l2.9,2.1h3.5l2.9-2.1L503.2,516.5z"/>
	<path class="st5" d="M443.4,522.5l-1.1-3.5l-3-2.2h-3.7l-3,2.2l-1.1,3.5l1.1,3.5l3,2.2h3.7l3-2.2L443.4,522.5z"/>
	<path class="st5" d="M484.8,526.5l-0.8-3.1l-2.3-2.3l-3.1-0.8l-3.1,0.8l-2.3,2.3l-0.8,3.1l0.8,3.1l2.3,2.3l3.1,0.8l3.1-0.8l2.3-2.3
		L484.8,526.5z"/>
	<path class="st5" d="M493.8,521.5l-1-3.1l-2.6-1.9h-3.3l-2.6,1.9l-1,3.1l1,3.1l2.6,1.9h3.3l2.6-1.9L493.8,521.5z"/>
	<path class="st5" d="M447.4,520.5l-0.9-2.9l-2.4-1.8h-3l-2.4,1.8l-0.9,2.9l0.9,2.9l2.4,1.8h3l2.4-1.8L447.4,520.5z"/>
	<path class="st5" d="M423.2,522.5l-1.1-2.6l-2.6-1.1l-2.6,1.1l-1.1,2.6l1.1,2.6l2.6,1.1l2.6-1.1L423.2,522.5z"/>
	<path class="st5" d="M476.1,516.5l-0.9-2.7l-2.3-1.7h-2.8l-2.3,1.7l-0.9,2.7l0.9,2.7l2.3,1.7h2.8l2.3-1.7L476.1,516.5z"/>
	<path class="st5" d="M445,523.5l-1.1-3.2l-2.8-2h-3.4l-2.8,2l-1.1,3.2l1.1,3.2l2.8,2h3.4l2.8-2L445,523.5z"/>
	<path class="st5" d="M500.3,539.5l-1.1-3.4l-2.9-2.1h-3.6l-2.9,2.1l-1.1,3.4l1.1,3.4l2.9,2.1h3.6l2.9-2.1L500.3,539.5z"/>
	<path class="st5" d="M506.6,520.5l-1.2-3.6l-3.1-2.2h-3.8l-3.1,2.2l-1.2,3.6l1.2,3.6l3.1,2.2h3.8l3.1-2.2L506.6,520.5z"/>
	<path class="st5" d="M468.1,521.5l-0.9-3.3l-2.4-2.4l-3.3-0.9l-3.3,0.9l-2.4,2.4l-0.9,3.3l0.9,3.3l2.4,2.4l3.3,0.9l3.3-0.9l2.4-2.4
		L468.1,521.5z"/>
	<path class="st5" d="M510.4,528.5l-1.1-2.7l-2.7-1.1l-2.7,1.1l-1.1,2.7l1.1,2.7l2.7,1.1l2.7-1.1L510.4,528.5z"/>
	<path class="st5" d="M485.5,524.5l-1.2-3.5l-3-2.2h-3.7l-3,2.2l-1.2,3.5l1.2,3.5l3,2.2h3.7l3-2.2L485.5,524.5z"/>
	<path class="st5" d="M479.8,530.5l-1-2.4l-2.4-1l-2.4,1l-1,2.4l1,2.4l2.4,1l2.4-1L479.8,530.5z"/>
	<path class="st5" d="M453.7,516.5l-1-3.1l-2.6-1.9h-3.2l-2.6,1.9l-1,3.1l1,3.1l2.6,1.9h3.2l2.6-1.9L453.7,516.5z"/>
	<path class="st5" d="M448.1,526.5l-0.9-2.7l-2.3-1.7h-2.9l-2.3,1.7l-0.9,2.7l0.9,2.7l2.3,1.7h2.9l2.3-1.7L448.1,526.5z"/>
	<path class="st5" d="M540.4,508.5l-0.9-2.9l-2.4-1.8h-3l-2.4,1.8l-0.9,2.9l0.9,2.9l2.4,1.8h3l2.4-1.8L540.4,508.5z"/>
	<path class="st5" d="M500.5,522.5l-0.9-2.9l-2.5-1.8H494l-2.5,1.8l-0.9,2.9l0.9,2.9l2.5,1.8h3.1l2.5-1.8L500.5,522.5z"/>
	<path class="st5" d="M489.9,482.5l-1-3.2l-2.7-2h-3.3l-2.7,2l-1,3.2l1,3.2l2.7,2h3.3l2.7-2L489.9,482.5z"/>
	<path class="st5" d="M462.7,507.5l-1-3.1l-2.6-1.9h-3.2l-2.6,1.9l-1,3.1l1,3.1l2.6,1.9h3.2l2.6-1.9L462.7,507.5z"/>
	<path class="st5" d="M470.5,515.5l-0.9-2.1l-2.1-0.9l-2.1,0.9l-0.9,2.1l0.9,2.1l2.1,0.9l2.1-0.9L470.5,515.5z"/>
	<path class="st5" d="M496.7,514.5l-0.8-3.1l-2.3-2.3l-3.1-0.8l-3.1,0.8l-2.3,2.3l-0.8,3.1l0.8,3.1l2.3,2.3l3.1,0.8l3.1-0.8l2.3-2.3
		L496.7,514.5z"/>
	<path class="st5" d="M468,514.5l-0.9-2.7l-2.3-1.6h-2.8l-2.3,1.6l-0.9,2.7l0.9,2.7l2.3,1.6h2.8l2.3-1.6L468,514.5z"/>
	<path class="st5" d="M486.8,518.5l-1-3.1l-2.7-1.9h-3.3l-2.7,1.9l-1,3.1l1,3.1l2.7,1.9h3.3l2.7-1.9L486.8,518.5z"/>
	<path class="st5" d="M460.3,501.5l-0.9-2.8l-2.4-1.8h-3l-2.4,1.8l-0.9,2.8l0.9,2.8l2.4,1.8h3l2.4-1.8L460.3,501.5z"/>
	<path class="st5" d="M490.3,524.5l-0.9-2.8l-2.4-1.7h-3l-2.4,1.7l-0.9,2.8l0.9,2.8l2.4,1.7h3l2.4-1.7L490.3,524.5z"/>
	<path class="st5" d="M457.5,521.5l-1.1-3.5l-3-2.2h-3.7l-3,2.2l-1.1,3.5l1.1,3.5l3,2.2h3.7l3-2.2L457.5,521.5z"/>
	<path class="st5" d="M500.8,518.5l-0.8-3.2l-2.3-2.3l-3.2-0.8l-3.2,0.8l-2.3,2.3l-0.8,3.2l0.8,3.2l2.3,2.3l3.2,0.8l3.2-0.8l2.3-2.3
		L500.8,518.5z"/>
	<path class="st5" d="M452.8,515.5l-1-3.1l-2.6-1.9h-3.3l-2.6,1.9l-1,3.1l1,3.1l2.6,1.9h3.3l2.6-1.9L452.8,515.5z"/>
	<path class="st5" d="M475.7,524.5l-1-3l-2.6-1.9h-3.2l-2.6,1.9l-1,3l1,3l2.6,1.9h3.2l2.6-1.9L475.7,524.5z"/>
	<path class="st5" d="M484.3,532.5l-0.9-2.8l-2.4-1.7h-3l-2.4,1.7l-0.9,2.8l0.9,2.8l2.4,1.7h3l2.4-1.7L484.3,532.5z"/>
	<path class="st5" d="M421.5,507.5l-1.2-2.9l-2.9-1.2l-2.9,1.2l-1.2,2.9l1.2,2.9l2.9,1.2l2.9-1.2L421.5,507.5z"/>
	<path class="st5" d="M483.1,530.5l-1.1-2.6l-2.6-1.1l-2.6,1.1l-1.1,2.6l1.1,2.6l2.6,1.1l2.6-1.1L483.1,530.5z"/>
	<path class="st5" d="M457.1,521.5l-1.1-3.3l-2.8-2h-3.5l-2.8,2l-1.1,3.3l1.1,3.3l2.8,2h3.5l2.8-2L457.1,521.5z"/>
	<path class="st5" d="M493,530.5l-1.1-3.2l-2.8-2h-3.4l-2.8,2l-1.1,3.2l1.1,3.2l2.8,2h3.4l2.8-2L493,530.5z"/>
	<path class="st5" d="M485.4,520.5l-0.9-3.5l-2.5-2.5l-3.5-0.9l-3.5,0.9l-2.5,2.5l-0.9,3.5l0.9,3.5l2.5,2.5l3.5,0.9l3.5-0.9l2.5-2.5
		L485.4,520.5z"/>
	<path class="st5" d="M479.2,525.5l-0.9-3.4l-2.5-2.5l-3.4-0.9l-3.4,0.9l-2.5,2.5l-0.9,3.4l0.9,3.4l2.5,2.5l3.4,0.9l3.4-0.9l2.5-2.5
		L479.2,525.5z"/>
	<path class="st5" d="M481.8,520.5l-1-3.1l-2.6-1.9h-3.3l-2.6,1.9l-1,3.1l1,3.1l2.6,1.9h3.3l2.6-1.9L481.8,520.5z"/>
	<path class="st5" d="M487.4,514.5l-1.1-3.5l-2.9-2.1h-3.6l-2.9,2.1l-1.1,3.5l1.1,3.5l2.9,2.1h3.6l2.9-2.1L487.4,514.5z"/>
	<path class="st5" d="M510.6,520.5l-1-3l-2.5-1.8h-3.1l-2.5,1.8l-1,3l1,3l2.5,1.8h3.1l2.5-1.8L510.6,520.5z"/>
	<path class="st5" d="M490.6,518.5l-1.2-3.6l-3.1-2.2h-3.8l-3.1,2.2l-1.2,3.6l1.2,3.6l3.1,2.2h3.8l3.1-2.2L490.6,518.5z"/>
	<path class="st5" d="M477.3,517.5l-1.1-3.4l-2.9-2.1h-3.6l-2.9,2.1l-1.1,3.4l1.1,3.4l2.9,2.1h3.6l2.9-2.1L477.3,517.5z"/>
	<path class="st5" d="M461,525.5l-1-3.2l-2.7-2h-3.4l-2.7,2l-1,3.2l1,3.2l2.7,2h3.4l2.7-2L461,525.5z"/>
	<path class="st5" d="M477.8,521.5l-1-3.1l-2.6-1.9h-3.2l-2.6,1.9l-1,3.1l1,3.1l2.6,1.9h3.2l2.6-1.9L477.8,521.5z"/>
	<path class="st5" d="M456.5,499.5l-0.9-2.1l-2.1-0.9l-2.1,0.9l-0.9,2.1l0.9,2.1l2.1,0.9l2.1-0.9L456.5,499.5z"/>
	<path class="st5" d="M469.8,528.5l-1-3.1l-2.7-1.9h-3.3l-2.7,1.9l-1,3.1l1,3.1l2.7,1.9h3.3l2.7-1.9L469.8,528.5z"/>
	<path class="st5" d="M464.4,527.5l-1.2-2.8l-2.8-1.2l-2.8,1.2l-1.2,2.8l1.2,2.8l2.8,1.2l2.8-1.2L464.4,527.5z"/>
</g>
<line class="st6" x1="208" y1="569.1" x2="743" y2="467.4"/>
<line class="st7" x1="475.5" y1="790" x2="475.5" y2="255"/>
<line class="st7" x1="208" y1="522.5" x2="743" y2="522.5"/>
<g transform="translate(743,467.4497)">
	<text transform="matrix(1 0 0 1 0 5.5)" class="st5 st1 st2">CC: 0.41</text>
</g>
<g class="st4">
	<path class="st8" d="M471.9,518.5l-0.9-3.2l-2.3-2.3l-3.2-0.9l-3.2,0.9l-2.3,2.3l-0.9,3.2l0.9,3.2l2.3,2.3l3.2,0.9l3.2-0.9l2.3-2.3
		L471.9,518.5z"/>
	<path class="st8" d="M473.1,524.5l-1-2.5l-2.5-1l-2.5,1l-1,2.5l1,2.5l2.5,1l2.5-1L473.1,524.5z"/>
	<path class="st8" d="M457.9,523.5l-0.8-2.6l-2.2-1.6h-2.7l-2.2,1.6l-0.8,2.6l0.8,2.6l2.2,1.6h2.7l2.2-1.6L457.9,523.5z"/>
	<path class="st8" d="M501.2,528.5l-0.9-2.8l-2.3-1.7h-2.9l-2.3,1.7l-0.9,2.8l0.9,2.8l2.3,1.7h2.9l2.3-1.7L501.2,528.5z"/>
	<path class="st8" d="M496,504.5l-0.9-3.3l-2.4-2.4l-3.3-0.9l-3.3,0.9l-2.4,2.4l-0.9,3.3l0.9,3.3l2.4,2.4l3.3,0.9l3.3-0.9l2.4-2.4
		L496,504.5z"/>
	<path class="st8" d="M457.8,517.5l-0.8-3.2l-2.3-2.3l-3.2-0.8l-3.2,0.8l-2.3,2.3l-0.8,3.2l0.8,3.2l2.3,2.3l3.2,0.8l3.2-0.8l2.3-2.3
		L457.8,517.5z"/>
	<path class="st8" d="M432.7,461.5l-0.8-2.5l-2.1-1.5h-2.6l-2.1,1.5l-0.8,2.5l0.8,2.5l2.1,1.5h2.6l2.1-1.5L432.7,461.5z"/>
	<path class="st8" d="M435.8,495.5l-1-2.4l-2.4-1l-2.4,1l-1,2.4l1,2.4l2.4,1l2.4-1L435.8,495.5z"/>
	<path class="st8" d="M435.6,480.5l-0.9-2.2l-2.2-0.9l-2.2,0.9l-0.9,2.2l0.9,2.2l2.2,0.9l2.2-0.9L435.6,480.5z"/>
	<path class="st8" d="M486.7,510.5l-0.8-2.5l-2.1-1.5h-2.6l-2.1,1.5l-0.8,2.5l0.8,2.5l2.1,1.5h2.6l2.1-1.5L486.7,510.5z"/>
	<path class="st8" d="M610.8,483.5L610,481l-2.2-1.6h-2.7L603,481l-0.8,2.5l0.8,2.5l2.2,1.6h2.7l2.2-1.6L610.8,483.5z"/>
	<path class="st8" d="M533.9,506.5l-1-2.4l-2.4-1l-2.4,1l-1,2.4l1,2.4l2.4,1l2.4-1L533.9,506.5z"/>
	<path class="st8" d="M463.1,501.5l-0.9-2.7l-2.3-1.7h-2.9l-2.3,1.7l-0.9,2.7l0.9,2.7l2.3,1.7h2.9l2.3-1.7L463.1,501.5z"/>
	<path class="st8" d="M413.8,555.5l-1-2.3l-2.3-1l-2.3,1l-1,2.3l1,2.3l2.3,1l2.3-1L413.8,555.5z"/>
	<path class="st8" d="M498.6,512.5l-1-3l-2.6-1.9h-3.2l-2.6,1.9l-1,3l1,3l2.6,1.9h3.2l2.6-1.9L498.6,512.5z"/>
	<path class="st8" d="M461.4,495.5l-0.9-2.9l-2.5-1.8h-3l-2.5,1.8l-0.9,2.9l0.9,2.9l2.5,1.8h3l2.5-1.8L461.4,495.5z"/>
	<path class="st8" d="M516.9,526.5l-1-2.4l-2.4-1l-2.4,1l-1,2.4l1,2.4l2.4,1l2.4-1L516.9,526.5z"/>
	<path class="st8" d="M475.7,487.5l-0.9-2.3l-2.3-0.9l-2.3,0.9l-0.9,2.3l0.9,2.3l2.3,0.9l2.3-0.9L475.7,487.5z"/>
	<path class="st8" d="M490.5,519.5l-1.2-2.8l-2.8-1.2l-2.8,1.2l-1.2,2.8l1.2,2.8l2.8,1.2l2.8-1.2L490.5,519.5z"/>
	<path class="st8" d="M478.3,518.5l-1.1-2.7l-2.7-1.1l-2.7,1.1l-1.1,2.7l1.1,2.7l2.7,1.1l2.7-1.1L478.3,518.5z"/>
	<path class="st8" d="M428.2,518.5l-0.9-2.8L425,514H422l-2.4,1.7l-0.9,2.8l0.9,2.8l2.4,1.7h2.9l2.4-1.7L428.2,518.5z"/>
	<path class="st8" d="M469.2,506.5l-1.1-2.6l-2.6-1.1l-2.6,1.1l-1.1,2.6l1.1,2.6l2.6,1.1l2.6-1.1L469.2,506.5z"/>
	<path class="st8" d="M501.4,532.5l-0.8-2l-2-0.8l-2,0.8l-0.8,2l0.8,2l2,0.8l2-0.8L501.4,532.5z"/>
	<path class="st8" d="M454.8,488.5l-1-2.3l-2.3-1l-2.3,1l-1,2.3l1,2.3l2.3,1l2.3-1L454.8,488.5z"/>
	<path class="st8" d="M441,515.5l-0.9-2.6l-2.3-1.6h-2.8l-2.3,1.6l-0.9,2.6l0.9,2.6l2.3,1.6h2.8l2.3-1.6L441,515.5z"/>
	<path class="st8" d="M504.2,521.5l-0.9-2.8l-2.3-1.7h-2.9l-2.3,1.7l-0.9,2.8l0.9,2.8l2.3,1.7h2.9l2.3-1.7L504.2,521.5z"/>
	<path class="st8" d="M534.1,522.5l-0.8-1.9l-1.9-0.8l-1.9,0.8l-0.8,1.9l0.8,1.9l1.9,0.8l1.9-0.8L534.1,522.5z"/>
	<path class="st8" d="M482.3,519.5l-0.8-2l-2-0.8l-2,0.8l-0.8,2l0.8,2l2,0.8l2-0.8L482.3,519.5z"/>
	<path class="st8" d="M437.7,541.5l-0.9-2.2l-2.2-0.9l-2.2,0.9l-0.9,2.2l0.9,2.2l2.2,0.9l2.2-0.9L437.7,541.5z"/>
	<path class="st8" d="M492.4,529.5l-0.9-2.1l-2.1-0.9l-2.1,0.9l-0.9,2.1l0.9,2.1l2.1,0.9l2.1-0.9L492.4,529.5z"/>
	<path class="st8" d="M550.7,525.5l-0.9-2.2l-2.2-0.9l-2.2,0.9l-0.9,2.2l0.9,2.2l2.2,0.9l2.2-0.9L550.7,525.5z"/>
	<path class="st8" d="M461.8,507.5l-1-3.1l-2.7-1.9h-3.3l-2.7,1.9l-1,3.1l1,3.1l2.7,1.9h3.3l2.7-1.9L461.8,507.5z"/>
	<path class="st8" d="M520.9,533.5l-0.8-2.6l-2.2-1.6h-2.7l-2.2,1.6l-0.8,2.6l0.8,2.6l2.2,1.6h2.7l2.2-1.6L520.9,533.5z"/>
	<path class="st8" d="M473,514.5l-1-2.4l-2.4-1l-2.4,1l-1,2.4l1,2.4l2.4,1l2.4-1L473,514.5z"/>
	<path class="st8" d="M452.5,544.5l-0.9-2.1l-2.1-0.9l-2.1,0.9l-0.9,2.1l0.9,2.1l2.1,0.9l2.1-0.9L452.5,544.5z"/>
	<path class="st8" d="M493.3,517.5l-1.1-3.4l-2.9-2.1h-3.6l-2.9,2.1l-1.1,3.4l1.1,3.4l2.9,2.1h3.6l2.9-2.1L493.3,517.5z"/>
	<path class="st8" d="M493.6,526.5l-1-3l-2.5-1.9h-3.1l-2.5,1.9l-1,3l1,3l2.5,1.9h3.1l2.5-1.9L493.6,526.5z"/>
	<path class="st8" d="M318.6,482.5l-0.9-2.2l-2.2-0.9l-2.2,0.9l-0.9,2.2l0.9,2.2l2.2,0.9l2.2-0.9L318.6,482.5z"/>
	<path class="st8" d="M387.8,509.5l-1-2.4l-2.4-1l-2.4,1l-1,2.4l1,2.4l2.4,1l2.4-1L387.8,509.5z"/>
	<path class="st8" d="M431.5,566.5l-0.9-2.1l-2.1-0.9l-2.1,0.9l-0.9,2.1l0.9,2.1l2.1,0.9l2.1-0.9L431.5,566.5z"/>
	<path class="st8" d="M424.3,514.5l-0.8-2l-2-0.8l-2,0.8l-0.8,2l0.8,2l2,0.8l2-0.8L424.3,514.5z"/>
	<path class="st8" d="M489.1,529.5l-1-2.5l-2.5-1l-2.5,1l-1,2.5l1,2.5l2.5,1l2.5-1L489.1,529.5z"/>
	<path class="st8" d="M473.2,532.5l-1.1-2.6l-2.6-1.1l-2.6,1.1l-1.1,2.6l1.1,2.6l2.6,1.1l2.6-1.1L473.2,532.5z"/>
	<path class="st8" d="M516.3,515.5l-0.9-2.8l-2.4-1.7h-3l-2.4,1.7l-0.9,2.8l0.9,2.8l2.4,1.7h3l2.4-1.7L516.3,515.5z"/>
	<path class="st8" d="M470.9,528.5l-0.8-2.6l-2.2-1.6h-2.7l-2.2,1.6l-0.8,2.6l0.8,2.6l2.2,1.6h2.7l2.2-1.6L470.9,528.5z"/>
	<path class="st8" d="M537.4,508.5l-1.1-2.7l-2.7-1.1l-2.7,1.1l-1.1,2.7l1.1,2.7l2.7,1.1l2.7-1.1L537.4,508.5z"/>
	<path class="st8" d="M441.1,520.5l-0.9-2.7l-2.3-1.7h-2.8l-2.3,1.7l-0.9,2.7l0.9,2.7l2.3,1.7h2.8l2.3-1.7L441.1,520.5z"/>
	<path class="st8" d="M500.4,517.5l-0.9-2.9l-2.5-1.8h-3l-2.5,1.8l-0.9,2.9l0.9,2.9l2.5,1.8h3l2.5-1.8L500.4,517.5z"/>
	<path class="st8" d="M510.9,505.5l-1-2.4l-2.4-1l-2.4,1l-1,2.4l1,2.4l2.4,1l2.4-1L510.9,505.5z"/>
	<path class="st8" d="M535.2,544.5l-0.8-1.9l-1.9-0.8l-1.9,0.8l-0.8,1.9l0.8,1.9l1.9,0.8l1.9-0.8L535.2,544.5z"/>
	<path class="st8" d="M429.7,544.5l-0.9-2.2l-2.2-0.9l-2.2,0.9l-0.9,2.2l0.9,2.2l2.2,0.9l2.2-0.9L429.7,544.5z"/>
	<path class="st8" d="M476.1,523.5l-0.9-2.7l-2.3-1.7h-2.8l-2.3,1.7l-0.9,2.7l0.9,2.7l2.3,1.7h2.8l2.3-1.7L476.1,523.5z"/>
	<path class="st8" d="M482.5,517.5l-1.2-2.8l-2.8-1.2l-2.8,1.2l-1.2,2.8l1.2,2.8l2.8,1.2l2.8-1.2L482.5,517.5z"/>
	<path class="st8" d="M499.9,519.5l-1-3.2l-2.7-2h-3.4l-2.7,2l-1,3.2l1,3.2l2.7,2h3.4l2.7-2L499.9,519.5z"/>
	<path class="st8" d="M496.3,516.5l-1.1-3.4l-2.9-2.1h-3.6l-2.9,2.1l-1.1,3.4l1.1,3.4l2.9,2.1h3.6l2.9-2.1L496.3,516.5z"/>
	<path class="st8" d="M489.6,512.5l-1.2-2.9l-2.9-1.2l-2.9,1.2l-1.2,2.9l1.2,2.9l2.9,1.2l2.9-1.2L489.6,512.5z"/>
	<path class="st8" d="M460.2,536.5l-0.9-2.7l-2.3-1.7h-2.9l-2.3,1.7l-0.9,2.7l0.9,2.7l2.3,1.7h2.9l2.3-1.7L460.2,536.5z"/>
	<path class="st8" d="M485.6,525.5l-1-3.6l-2.6-2.6l-3.6-1l-3.6,1l-2.6,2.6l-1,3.6l1,3.6l2.6,2.6l3.6,1l3.6-1l2.6-2.6L485.6,525.5z"
		/>
	<path class="st8" d="M514.3,523.5l-0.8-2l-2-0.8l-2,0.8l-0.8,2l0.8,2l2,0.8l2-0.8L514.3,523.5z"/>
	<path class="st8" d="M427.4,490.5l-0.9-2.1l-2.1-0.9l-2.1,0.9l-0.9,2.1l0.9,2.1l2.1,0.9l2.1-0.9L427.4,490.5z"/>
	<path class="st8" d="M452.2,498.5l-0.9-2.8L449,494H446l-2.4,1.7l-0.9,2.8l0.9,2.8l2.4,1.7h2.9l2.4-1.7L452.2,498.5z"/>
	<path class="st8" d="M441,519.5l-0.9-2.7l-2.3-1.6h-2.8l-2.3,1.6l-0.9,2.7l0.9,2.7l2.3,1.6h2.8l2.3-1.6L441,519.5z"/>
	<path class="st8" d="M488.2,528.5l-0.9-2.7l-2.3-1.7h-2.9l-2.3,1.7l-0.9,2.7l0.9,2.7l2.3,1.7h2.9l2.3-1.7L488.2,528.5z"/>
	<path class="st8" d="M488.4,515.5l-0.8-2.1l-2.1-0.8l-2.1,0.8l-0.8,2.1l0.8,2.1l2.1,0.8l2.1-0.8L488.4,515.5z"/>
	<path class="st8" d="M421.3,552.5l-0.8-2l-2-0.8l-2,0.8l-0.8,2l0.8,2l2,0.8l2-0.8L421.3,552.5z"/>
	<path class="st8" d="M505.5,466.5l-0.9-2.9l-2.5-1.8H499l-2.5,1.8l-0.9,2.9l0.9,2.9l2.5,1.8h3.1l2.5-1.8L505.5,466.5z"/>
	<path class="st8" d="M468.3,512.5l-1.1-2.7l-2.7-1.1l-2.7,1.1l-1.1,2.7l1.1,2.7l2.7,1.1l2.7-1.1L468.3,512.5z"/>
	<path class="st8" d="M443.5,466.5l-0.9-2.2l-2.2-0.9l-2.2,0.9l-0.9,2.2l0.9,2.2l2.2,0.9l2.2-0.9L443.5,466.5z"/>
	<path class="st8" d="M471.4,533.5l-0.9-2.9l-2.4-1.8h-3l-2.4,1.8l-0.9,2.9l0.9,2.9l2.4,1.8h3l2.4-1.8L471.4,533.5z"/>
	<path class="st8" d="M515.7,528.5l-1-2.3l-2.3-1l-2.3,1l-1,2.3l1,2.3l2.3,1l2.3-1L515.7,528.5z"/>
	<path class="st8" d="M493.1,534.5l-1-2.5l-2.5-1l-2.5,1l-1,2.5l1,2.5l2.5,1l2.5-1L493.1,534.5z"/>
	<path class="st8" d="M517.6,515.5l-0.9-2.2l-2.2-0.9l-2.2,0.9l-0.9,2.2l0.9,2.2l2.2,0.9l2.2-0.9L517.6,515.5z"/>
	<path class="st8" d="M476.5,492.5l-1-2.9l-2.5-1.8H470l-2.5,1.8l-1,2.9l1,2.9l2.5,1.8h3.1l2.5-1.8L476.5,492.5z"/>
	<path class="st8" d="M537.7,510.5l-1-3.1l-2.6-1.9h-3.2l-2.6,1.9l-1,3.1l1,3.1l2.6,1.9h3.2l2.6-1.9L537.7,510.5z"/>
	<path class="st8" d="M535.9,525.5l-1-2.4l-2.4-1l-2.4,1l-1,2.4l1,2.4l2.4,1l2.4-1L535.9,525.5z"/>
	<path class="st8" d="M513,521.5l-1-3.2l-2.7-2h-3.4l-2.7,2l-1,3.2l1,3.2l2.7,2h3.4l2.7-2L513,521.5z"/>
	<path class="st8" d="M460.1,507.5l-0.9-2.7l-2.3-1.7h-2.8l-2.3,1.7l-0.9,2.7l0.9,2.7l2.3,1.7h2.8l2.3-1.7L460.1,507.5z"/>
	<path class="st8" d="M481.2,532.5l-0.9-2.8L478,528H475l-2.4,1.7l-0.9,2.8l0.9,2.8l2.4,1.7h2.9l2.4-1.7L481.2,532.5z"/>
	<path class="st8" d="M455.6,530.5l-1-3l-2.6-1.9h-3.2l-2.6,1.9l-1,3l1,3l2.6,1.9h3.2l2.6-1.9L455.6,530.5z"/>
	<path class="st8" d="M425.3,592.5l-1.1-2.7l-2.7-1.1l-2.7,1.1l-1.1,2.7l1.1,2.7l2.7,1.1l2.7-1.1L425.3,592.5z"/>
	<path class="st8" d="M471.8,511.5l-1-3.1l-2.7-1.9h-3.3l-2.7,1.9l-1,3.1l1,3.1l2.7,1.9h3.3l2.7-1.9L471.8,511.5z"/>
	<path class="st8" d="M460.5,523.5l-1-3l-2.5-1.8h-3.1l-2.5,1.8l-1,3l1,3l2.5,1.8h3.1l2.5-1.8L460.5,523.5z"/>
	<path class="st8" d="M546,506.5l-1.1-3.3l-2.8-2h-3.4l-2.8,2l-1.1,3.3l1.1,3.3l2.8,2h3.4l2.8-2L546,506.5z"/>
	<path class="st8" d="M464.6,550.5l-1.2-2.9l-2.9-1.2l-2.9,1.2l-1.2,2.9l1.2,2.9l2.9,1.2l2.9-1.2L464.6,550.5z"/>
	<path class="st8" d="M505.5,522.5l-1-3l-2.5-1.8h-3.1l-2.5,1.8l-1,3l1,3l2.5,1.8h3.1l2.5-1.8L505.5,522.5z"/>
	<path class="st8" d="M494,499.5l-0.9-2.7l-2.3-1.6h-2.8l-2.3,1.6l-0.9,2.7l0.9,2.7l2.3,1.6h2.8l2.3-1.6L494,499.5z"/>
	<path class="st8" d="M499,496.5l-0.9-2.6l-2.2-1.6h-2.8l-2.2,1.6l-0.9,2.6l0.9,2.6l2.2,1.6h2.8l2.2-1.6L499,496.5z"/>
	<path class="st8" d="M458,526.5l-0.9-2.6l-2.2-1.6h-2.8l-2.2,1.6l-0.9,2.6l0.9,2.6l2.2,1.6h2.8l2.2-1.6L458,526.5z"/>
	<path class="st8" d="M508.8,524.5l-0.8-2.6l-2.2-1.6h-2.7l-2.2,1.6l-0.8,2.6l0.8,2.6l2.2,1.6h2.7l2.2-1.6L508.8,524.5z"/>
	<path class="st8" d="M494.1,527.5l-1-2.5l-2.5-1l-2.5,1l-1,2.5l1,2.5l2.5,1l2.5-1L494.1,527.5z"/>
	<path class="st8" d="M497.2,531.5l-0.9-2.7l-2.3-1.7h-2.9l-2.3,1.7l-0.9,2.7l0.9,2.7l2.3,1.7h2.9l2.3-1.7L497.2,531.5z"/>
	<path class="st8" d="M473.5,511.5l-1-2.9l-2.5-1.8H467l-2.5,1.8l-1,2.9l1,2.9l2.5,1.8h3.1l2.5-1.8L473.5,511.5z"/>
	<path class="st8" d="M498.2,512.5l-1.1-3.4l-2.9-2.1h-3.5l-2.9,2.1l-1.1,3.4l1.1,3.4l2.9,2.1h3.5l2.9-2.1L498.2,512.5z"/>
	<path class="st8" d="M464.3,574.5l-0.9-2.8l-2.4-1.8h-3l-2.4,1.8l-0.9,2.8l0.9,2.8l2.4,1.8h3l2.4-1.8L464.3,574.5z"/>
	<path class="st8" d="M474.4,523.5l-1.1-2.8l-2.8-1.1l-2.8,1.1l-1.1,2.8l1.1,2.8l2.8,1.1l2.8-1.1L474.4,523.5z"/>
	<path class="st8" d="M475.7,526.5l-1-3l-2.6-1.9h-3.2l-2.6,1.9l-1,3l1,3l2.6,1.9h3.2l2.6-1.9L475.7,526.5z"/>
	<path class="st8" d="M465.3,522.5l-1.1-3.4l-2.9-2.1h-3.6l-2.9,2.1l-1.1,3.4l1.1,3.4l2.9,2.1h3.6l2.9-2.1L465.3,522.5z"/>
	<path class="st8" d="M507.5,529.5l-1-2.9l-2.5-1.8H501l-2.5,1.8l-1,2.9l1,2.9l2.5,1.8h3.1l2.5-1.8L507.5,529.5z"/>
	<path class="st8" d="M523.9,515.5l-1-2.4l-2.4-1l-2.4,1l-1,2.4l1,2.4l2.4,1l2.4-1L523.9,515.5z"/>
	<path class="st8" d="M512.3,531.5l-1.1-2.7l-2.7-1.1l-2.7,1.1l-1.1,2.7l1.1,2.7l2.7,1.1l2.7-1.1L512.3,531.5z"/>
	<path class="st8" d="M514.5,517.5l-1.2-2.8l-2.8-1.2l-2.8,1.2l-1.2,2.8l1.2,2.8l2.8,1.2l2.8-1.2L514.5,517.5z"/>
	<path class="st8" d="M479.6,519.5l-1-3l-2.6-1.9h-3.2l-2.6,1.9l-1,3l1,3l2.6,1.9h3.2l2.6-1.9L479.6,519.5z"/>
	<path class="st8" d="M464.4,522.5l-1.1-2.7l-2.7-1.1l-2.7,1.1l-1.1,2.7l1.1,2.7l2.7,1.1l2.7-1.1L464.4,522.5z"/>
	<path class="st8" d="M490.7,537.5l-0.8-2.5l-2.1-1.5h-2.6l-2.1,1.5l-0.8,2.5l0.8,2.5l2.1,1.5h2.6l2.1-1.5L490.7,537.5z"/>
	<path class="st8" d="M478.9,518.5l-1-3.2l-2.7-2h-3.3l-2.7,2l-1,3.2l1,3.2l2.7,2h3.3l2.7-2L478.9,518.5z"/>
	<path class="st8" d="M464,509.5l-1.1-3.3l-2.8-2h-3.4l-2.8,2l-1.1,3.3l1.1,3.3l2.8,2h3.4l2.8-2L464,509.5z"/>
	<path class="st8" d="M453.8,529.5l-1-3.1l-2.6-1.9h-3.3l-2.6,1.9l-1,3.1l1,3.1l2.6,1.9h3.3l2.6-1.9L453.8,529.5z"/>
	<path class="st8" d="M463.8,511.5l-1-3.1l-2.6-1.9h-3.2l-2.6,1.9l-1,3.1l1,3.1l2.6,1.9h3.2l2.6-1.9L463.8,511.5z"/>
	<path class="st8" d="M496.1,500.5l-0.9-2.7l-2.3-1.7h-2.8l-2.3,1.7l-0.9,2.7l0.9,2.7l2.3,1.7h2.8l2.3-1.7L496.1,500.5z"/>
	<path class="st8" d="M440.1,529.5l-0.9-2.7l-2.3-1.7h-2.8l-2.3,1.7l-0.9,2.7l0.9,2.7l2.3,1.7h2.8l2.3-1.7L440.1,529.5z"/>
	<path class="st8" d="M526.9,538.5l-0.8-2.6l-2.2-1.6h-2.7l-2.2,1.6l-0.8,2.6l0.8,2.6l2.2,1.6h2.7l2.2-1.6L526.9,538.5z"/>
	<path class="st8" d="M511.5,537.5l-1.2-2.8l-2.8-1.2l-2.8,1.2l-1.2,2.8l1.2,2.8l2.8,1.2l2.8-1.2L511.5,537.5z"/>
	<path class="st8" d="M502.6,496.5l-1.2-2.9l-2.9-1.2l-2.9,1.2l-1.2,2.9l1.2,2.9l2.9,1.2l2.9-1.2L502.6,496.5z"/>
	<path class="st8" d="M517.2,455.5l-0.8-1.9l-1.9-0.8l-1.9,0.8l-0.8,1.9l0.8,1.9l1.9,0.8l1.9-0.8L517.2,455.5z"/>
	<path class="st8" d="M436.6,540.5l-0.9-2.2l-2.2-0.9l-2.2,0.9l-0.9,2.2l0.9,2.2l2.2,0.9l2.2-0.9L436.6,540.5z"/>
	<path class="st8" d="M479.7,522.5l-0.8-2.5l-2.1-1.5h-2.6l-2.1,1.5l-0.8,2.5l0.8,2.5l2.1,1.5h2.6l2.1-1.5L479.7,522.5z"/>
	<path class="st8" d="M524,527.5l-1-2.5l-2.5-1l-2.5,1l-1,2.5l1,2.5l2.5,1l2.5-1L524,527.5z"/>
	<path class="st8" d="M558.5,504.5l-1.2-2.9l-2.9-1.2l-2.9,1.2l-1.2,2.9l1.2,2.9l2.9,1.2l2.9-1.2L558.5,504.5z"/>
	<path class="st8" d="M453.5,534.5l-1.2-2.8l-2.8-1.2l-2.8,1.2l-1.2,2.8l1.2,2.8l2.8,1.2l2.8-1.2L453.5,534.5z"/>
	<path class="st8" d="M553.6,512.5l-1.2-2.9l-2.9-1.2l-2.9,1.2l-1.2,2.9l1.2,2.9l2.9,1.2l2.9-1.2L553.6,512.5z"/>
	<path class="st8" d="M474.5,517.5l-1.2-2.8l-2.8-1.2l-2.8,1.2l-1.2,2.8l1.2,2.8l2.8,1.2l2.8-1.2L474.5,517.5z"/>
	<path class="st8" d="M453.1,542.5l-1.1-2.6l-2.6-1.1l-2.6,1.1l-1.1,2.6l1.1,2.6l2.6,1.1l2.6-1.1L453.1,542.5z"/>
	<path class="st8" d="M495.4,526.5l-0.9-2.9l-2.5-1.8h-3l-2.5,1.8l-0.9,2.9l0.9,2.9l2.5,1.8h3l2.5-1.8L495.4,526.5z"/>
	<path class="st8" d="M433.3,575.5l-0.8-2l-2-0.8l-2,0.8l-0.8,2l0.8,2l2,0.8l2-0.8L433.3,575.5z"/>
	<path class="st8" d="M508.3,525.5l-1.1-2.7l-2.7-1.1l-2.7,1.1l-1.1,2.7l1.1,2.7l2.7,1.1l2.7-1.1L508.3,525.5z"/>
	<path class="st8" d="M563.6,546.5l-0.9-2.2l-2.2-0.9l-2.2,0.9l-0.9,2.2l0.9,2.2l2.2,0.9l2.2-0.9L563.6,546.5z"/>
	<path class="st8" d="M559.2,548.5l-0.8-1.9l-1.9-0.8l-1.9,0.8l-0.8,1.9l0.8,1.9l1.9,0.8l1.9-0.8L559.2,548.5z"/>
	<path class="st8" d="M536.3,529.5l-1.1-2.7l-2.7-1.1l-2.7,1.1l-1.1,2.7l1.1,2.7l2.7,1.1l2.7-1.1L536.3,529.5z"/>
	<path class="st8" d="M513.8,471.5l-1-2.3l-2.3-1l-2.3,1l-1,2.3l1,2.3l2.3,1l2.3-1L513.8,471.5z"/>
	<path class="st8" d="M465.4,505.5l-0.9-2.9l-2.4-1.8h-3l-2.4,1.8l-0.9,2.9l0.9,2.9l2.4,1.8h3l2.4-1.8L465.4,505.5z"/>
	<path class="st8" d="M499.9,516.5l-0.8-2.6l-2.2-1.6h-2.7l-2.2,1.6l-0.8,2.6l0.8,2.6l2.2,1.6h2.7l2.2-1.6L499.9,516.5z"/>
	<path class="st8" d="M508.9,520.5l-1-2.4l-2.4-1l-2.4,1l-1,2.4l1,2.4l2.4,1l2.4-1L508.9,520.5z"/>
	<path class="st8" d="M477.3,548.5l-1.1-2.7l-2.7-1.1l-2.7,1.1l-1.1,2.7l1.1,2.7l2.7,1.1l2.7-1.1L477.3,548.5z"/>
	<path class="st8" d="M469.8,489.5L469,487l-2.1-1.6h-2.7L462,487l-0.8,2.5l0.8,2.5l2.1,1.6h2.7l2.1-1.6L469.8,489.5z"/>
</g>
<line class="st9" x1="208" y1="504.1" x2="743" y2="535.8"/>
<line class="st7" x1="475.5" y1="790" x2="475.5" y2="255"/>
<line class="st7" x1="208" y1="522.5" x2="743" y2="522.5"/>
<g transform="translate(743,535.8118)">
	<text transform="matrix(1 0 0 1 0 5.5)" class="st8 st1 st2">ISA: -0.10</text>
</g>
<g transform="translate(475.5005,252.25)">
	<text transform="matrix(1 0 0 1 -37.9771 -4)" class="st1 st10">ACC</text>
</g>
<g transform="translate(1180.5002,813.6667)">
	<text transform="matrix(1 0 0 1 -138 16)" class="st0 st1 st2">Repetition1</text>
</g>
<line class="st3" x1="813" y1="790" x2="1348" y2="790"/>
<g transform="translate(913,795.3334)">
	<text transform="matrix(1 0 0 1 -106 14)" class="st0 st1 st2">-1</text>
</g>
<g transform="translate(966.5,795.3334)">
	<text transform="matrix(1 0 0 1 -111.5 14)" class="st0 st1 st2">-0.8</text>
</g>
<g transform="translate(1020,795.3334)">
	<text transform="matrix(1 0 0 1 -111.5 14)" class="st0 st1 st2">-0.6</text>
</g>
<g transform="translate(1073.5,795.3334)">
	<text transform="matrix(1 0 0 1 -111.5 14)" class="st0 st1 st2">-0.4</text>
</g>
<g transform="translate(1127,795.3334)">
	<text transform="matrix(1 0 0 1 -111.5 14)" class="st0 st1 st2">-0.2</text>
</g>
<g transform="translate(1180.5,795.3334)">
	<text transform="matrix(1 0 0 1 -104 14)" class="st0 st1 st2">0</text>
</g>
<g transform="translate(1234,795.3334)">
	<text transform="matrix(1 0 0 1 -109.5 14)" class="st0 st1 st2">0.2</text>
</g>
<g transform="translate(1287.5,795.3334)">
	<text transform="matrix(1 0 0 1 -109.5 14)" class="st0 st1 st2">0.4</text>
</g>
<g transform="translate(1341,795.3334)">
	<text transform="matrix(1 0 0 1 -109.5 14)" class="st0 st1 st2">0.6</text>
</g>
<g transform="translate(1394.5,795.3334)">
	<text transform="matrix(1 0 0 1 -109.5 14)" class="st0 st1 st2">0.8</text>
</g>
<g transform="translate(1448,795.3334)">
	<text transform="matrix(1 0 0 1 -104 14)" class="st0 st1 st2">1</text>
</g>
<line class="st3" x1="813" y1="790" x2="813" y2="255"/>
<g class="st4">
	<path class="st5" d="M1079.6,509.5l-1.2-3.6l-3.1-2.2h-3.8l-3.1,2.2l-1.2,3.6l1.2,3.6l3.1,2.2h3.8l3.1-2.2L1079.6,509.5z"/>
	<path class="st5" d="M1060.1,518.5l-1.1-3.3l-2.8-2h-3.5l-2.8,2l-1.1,3.3l1.1,3.3l2.8,2h3.5l2.8-2L1060.1,518.5z"/>
	<path class="st5" d="M1096,502.5l-0.9-2.6l-2.2-1.6h-2.8l-2.2,1.6l-0.9,2.6l0.9,2.6l2.2,1.6h2.8l2.2-1.6L1096,502.5z"/>
	<path class="st5" d="M1091.1,524.5l-0.9-3.3l-2.4-2.4l-3.3-0.9l-3.3,0.9l-2.4,2.4l-0.9,3.3l0.9,3.3l2.4,2.4l3.3,0.9l3.3-0.9
		l2.4-2.4L1091.1,524.5z"/>
	<path class="st5" d="M1111.1,524.5l-1.1-3.3l-2.8-2h-3.5l-2.8,2l-1.1,3.3l1.1,3.3l2.8,2h3.5l2.8-2L1111.1,524.5z"/>
	<path class="st5" d="M1016,526.5l-1-3.2l-2.7-2h-3.4l-2.7,2l-1,3.2l1,3.2l2.7,2h3.4l2.7-2L1016,526.5z"/>
	<path class="st5" d="M1061.4,524.5l-1.1-2.8l-2.8-1.1l-2.8,1.1l-1.1,2.8l1.1,2.8l2.8,1.1l2.8-1.1L1061.4,524.5z"/>
	<path class="st5" d="M972,512.5l-1-2.5l-2.5-1l-2.5,1l-1,2.5l1,2.5l2.5,1l2.5-1L972,512.5z"/>
	<path class="st5" d="M1075.4,510.5l-1.1-3.5l-2.9-2.1h-3.6l-2.9,2.1l-1.1,3.5l1.1,3.5l2.9,2.1h3.6l2.9-2.1L1075.4,510.5z"/>
	<path class="st5" d="M1056.6,499.5l-1-3l-2.6-1.9h-3.2l-2.6,1.9l-1,3l1,3l2.6,1.9h3.2l2.6-1.9L1056.6,499.5z"/>
	<path class="st5" d="M1093.2,516.5l-0.9-3.4l-2.5-2.5l-3.4-0.9l-3.4,0.9l-2.5,2.5l-0.9,3.4l0.9,3.4l2.5,2.5l3.4,0.9l3.4-0.9
		l2.5-2.5L1093.2,516.5z"/>
	<path class="st5" d="M1061.3,521.5l-0.9-2.8l-2.4-1.7h-3l-2.4,1.7l-0.9,2.8l0.9,2.8l2.4,1.7h3l2.4-1.7L1061.3,521.5z"/>
	<path class="st5" d="M1089.4,510.5l-0.9-2.9l-2.4-1.8h-3l-2.4,1.8l-0.9,2.9l0.9,2.9l2.4,1.8h3l2.4-1.8L1089.4,510.5z"/>
	<path class="st5" d="M1080,523.5l-1-3.2l-2.7-2h-3.4l-2.7,2l-1,3.2l1,3.2l2.7,2h3.4l2.7-2L1080,523.5z"/>
	<path class="st5" d="M1107.6,552.5l-1.2-3.6l-3-2.2h-3.8l-3,2.2l-1.2,3.6l1.2,3.6l3,2.2h3.8l3-2.2L1107.6,552.5z"/>
	<path class="st5" d="M1109.8,524.5l-1-3.7l-2.7-2.7l-3.7-1l-3.7,1l-2.7,2.7l-1,3.7l1,3.7l2.7,2.7l3.7,1l3.7-1l2.7-2.7L1109.8,524.5
		z"/>
	<path class="st5" d="M1095.3,489.5l-1.1-3.4l-2.9-2.1h-3.6l-2.9,2.1l-1.1,3.4l1.1,3.4l2.9,2.1h3.6l2.9-2.1L1095.3,489.5z"/>
	<path class="st5" d="M1074.5,496.5l-1-2.9l-2.5-1.8h-3.1l-2.5,1.8l-1,2.9l1,2.9l2.5,1.8h3.1l2.5-1.8L1074.5,496.5z"/>
	<path class="st5" d="M1085.2,523.5l-1.1-3.3l-2.8-2.1h-3.5l-2.8,2.1l-1.1,3.3l1.1,3.3l2.8,2.1h3.5l2.8-2.1L1085.2,523.5z"/>
	<path class="st5" d="M1115.8,520.5l-0.8-3.2l-2.3-2.3l-3.2-0.8l-3.2,0.8l-2.3,2.3l-0.8,3.2l0.8,3.2l2.3,2.3l3.2,0.8l3.2-0.8
		l2.3-2.3L1115.8,520.5z"/>
	<path class="st5" d="M1180,550.5l-1-2.5l-2.5-1l-2.5,1l-1,2.5l1,2.5l2.5,1l2.5-1L1180,550.5z"/>
	<path class="st5" d="M1129.5,523.5l-1-3l-2.5-1.8h-3.1l-2.5,1.8l-1,3l1,3l2.5,1.8h3.1l2.5-1.8L1129.5,523.5z"/>
	<path class="st5" d="M1094,502.5l-0.9-2.6l-2.2-1.6h-2.8l-2.2,1.6l-0.9,2.6l0.9,2.6l2.2,1.6h2.8l2.2-1.6L1094,502.5z"/>
	<path class="st5" d="M1070.6,508.5l-1.2-3.6l-3.1-2.2h-3.8l-3.1,2.2l-1.2,3.6l1.2,3.6l3.1,2.2h3.8l3.1-2.2L1070.6,508.5z"/>
	<path class="st5" d="M1040.9,530.5l-0.9-3.2l-2.3-2.3l-3.2-0.9l-3.2,0.9l-2.3,2.3l-0.9,3.2l0.9,3.2l2.3,2.3l3.2,0.9l3.2-0.9
		l2.3-2.3L1040.9,530.5z"/>
	<path class="st5" d="M1062.3,510.5l-1.1-3.4l-2.9-2.1h-3.6l-2.9,2.1l-1.1,3.4l1.1,3.4l2.9,2.1h3.6l2.9-2.1L1062.3,510.5z"/>
	<path class="st5" d="M1083.8,517.5l-1-2.4l-2.4-1l-2.4,1l-1,2.4l1,2.4l2.4,1l2.4-1L1083.8,517.5z"/>
	<path class="st5" d="M1039.5,516.5l-0.9-2.2l-2.2-0.9l-2.2,0.9l-0.9,2.2l0.9,2.2l2.2,0.9l2.2-0.9L1039.5,516.5z"/>
	<path class="st5" d="M1125.9,506.5l-1-2.4l-2.4-1l-2.4,1l-1,2.4l1,2.4l2.4,1l2.4-1L1125.9,506.5z"/>
	<path class="st5" d="M1172.2,514.5l-1.1-2.6l-2.6-1.1l-2.6,1.1l-1.1,2.6l1.1,2.6l2.6,1.1l2.6-1.1L1172.2,514.5z"/>
	<path class="st5" d="M1083.5,527.5l-1-2.9l-2.5-1.8h-3.1l-2.5,1.8l-1,2.9l1,2.9l2.5,1.8h3.1l2.5-1.8L1083.5,527.5z"/>
	<path class="st5" d="M1146.8,495.5l-1-3.1l-2.7-1.9h-3.3l-2.7,1.9l-1,3.1l1,3.1l2.7,1.9h3.3l2.7-1.9L1146.8,495.5z"/>
	<path class="st5" d="M1017.3,572.5l-0.9-3.4l-2.5-2.5l-3.4-0.9l-3.4,0.9l-2.5,2.5l-0.9,3.4l0.9,3.4l2.5,2.5l3.4,0.9l3.4-0.9
		l2.5-2.5L1017.3,572.5z"/>
	<path class="st5" d="M1026.6,570.5l-1.2-2.9l-2.9-1.2l-2.9,1.2l-1.2,2.9l1.2,2.9l2.9,1.2l2.9-1.2L1026.6,570.5z"/>
	<path class="st5" d="M1076.5,531.5l-1.2-2.9l-2.9-1.2l-2.9,1.2l-1.2,2.9l1.2,2.9l2.9,1.2l2.9-1.2L1076.5,531.5z"/>
	<path class="st5" d="M1106,534.5l-1-3.2l-2.7-2h-3.4l-2.7,2l-1,3.2l1,3.2l2.7,2h3.4l2.7-2L1106,534.5z"/>
	<path class="st5" d="M1086.7,528.5l-0.8-2.5l-2.1-1.5h-2.6l-2.1,1.5l-0.8,2.5l0.8,2.5l2.1,1.5h2.6l2.1-1.5L1086.7,528.5z"/>
	<path class="st5" d="M1057.1,506.5l-0.8-1.8l-1.8-0.8l-1.8,0.8l-0.8,1.8l0.8,1.8l1.8,0.8l1.8-0.8L1057.1,506.5z"/>
	<path class="st5" d="M1088.1,506.5l-1.1-3.3l-2.8-2h-3.4l-2.8,2l-1.1,3.3l1.1,3.3l2.8,2h3.4l2.8-2L1088.1,506.5z"/>
	<path class="st5" d="M1080.8,524.5l-1-3.1l-2.6-1.9h-3.3l-2.6,1.9l-1,3.1l1,3.1l2.6,1.9h3.3l2.6-1.9L1080.8,524.5z"/>
	<path class="st5" d="M1141.2,493.5l-1.1-2.6l-2.6-1.1l-2.6,1.1l-1.1,2.6l1.1,2.6l2.6,1.1l2.6-1.1L1141.2,493.5z"/>
	<path class="st5" d="M1049.7,522.5l-0.8-2.4l-2.1-1.5h-2.6l-2.1,1.5l-0.8,2.4l0.8,2.4l2.1,1.5h2.6l2.1-1.5L1049.7,522.5z"/>
	<path class="st5" d="M1095.4,548.5l-0.9-2.9l-2.4-1.8h-3l-2.4,1.8l-0.9,2.9l0.9,2.9l2.4,1.8h3l2.4-1.8L1095.4,548.5z"/>
	<path class="st5" d="M1146.6,496.5l-1.2-2.9l-2.9-1.2l-2.9,1.2l-1.2,2.9l1.2,2.9l2.9,1.2l2.9-1.2L1146.6,496.5z"/>
	<path class="st5" d="M1129.7,494.5l-1-3l-2.6-1.9h-3.2l-2.6,1.9l-1,3l1,3l2.6,1.9h3.2l2.6-1.9L1129.7,494.5z"/>
	<path class="st5" d="M1061.9,514.5l-0.8-2.6l-2.2-1.6h-2.7l-2.2,1.6l-0.8,2.6l0.8,2.6l2.2,1.6h2.7l2.2-1.6L1061.9,514.5z"/>
	<path class="st5" d="M1082,529.5l-0.9-3.2l-2.4-2.4l-3.2-0.9l-3.2,0.9l-2.4,2.4l-0.9,3.2l0.9,3.2l2.4,2.4l3.2,0.9l3.2-0.9l2.4-2.4
		L1082,529.5z"/>
	<path class="st5" d="M1067.6,508.5l-1.2-2.9l-2.9-1.2l-2.9,1.2l-1.2,2.9l1.2,2.9l2.9,1.2l2.9-1.2L1067.6,508.5z"/>
	<path class="st5" d="M1070.9,525.5l-1-3.2l-2.7-2h-3.3l-2.7,2l-1,3.2l1,3.2l2.7,2h3.3l2.7-2L1070.9,525.5z"/>
	<path class="st5" d="M990.7,530.5l-0.8-2.5l-2.1-1.5h-2.6l-2.1,1.5l-0.8,2.5l0.8,2.5l2.1,1.5h2.6l2.1-1.5L990.7,530.5z"/>
	<path class="st5" d="M1078.1,509.5l-0.9-2.7l-2.3-1.7h-2.9l-2.3,1.7l-0.9,2.7l0.9,2.7l2.3,1.7h2.9l2.3-1.7L1078.1,509.5z"/>
	<path class="st5" d="M1039.2,531.5l-1.1-3.4l-2.9-2.1h-3.5l-2.9,2.1l-1.1,3.4l1.1,3.4l2.9,2.1h3.5l2.9-2.1L1039.2,531.5z"/>
	<path class="st5" d="M1111.2,528.5l-1.1-3.4l-2.9-2.1h-3.5l-2.9,2.1l-1.1,3.4l1.1,3.4l2.9,2.1h3.5l2.9-2.1L1111.2,528.5z"/>
	<path class="st5" d="M1108.1,532.5l-1.1-2.6l-2.6-1.1l-2.6,1.1l-1.1,2.6l1.1,2.6l2.6,1.1l2.6-1.1L1108.1,532.5z"/>
	<path class="st5" d="M1132.1,539.5l-1.1-3.3l-2.8-2h-3.5l-2.8,2l-1.1,3.3l1.1,3.3l2.8,2h3.5l2.8-2L1132.1,539.5z"/>
	<path class="st5" d="M1088.5,518.5l-0.9-3.5l-2.6-2.6l-3.5-0.9l-3.5,0.9l-2.6,2.6l-0.9,3.5l0.9,3.5l2.6,2.6l3.5,0.9l3.5-0.9
		l2.6-2.6L1088.5,518.5z"/>
	<path class="st5" d="M1074.5,531.5l-1.1-4l-2.9-2.9l-4-1.1l-4,1.1l-2.9,2.9l-1.1,4l1.1,4l2.9,2.9l4,1.1l4-1.1l2.9-2.9L1074.5,531.5
		z"/>
	<path class="st5" d="M1129.7,490.5l-0.9-2.2l-2.2-0.9l-2.2,0.9l-0.9,2.2l0.9,2.2l2.2,0.9l2.2-0.9L1129.7,490.5z"/>
	<path class="st5" d="M1098,523.5l-1-2.5l-2.5-1l-2.5,1l-1,2.5l1,2.5l2.5,1l2.5-1L1098,523.5z"/>
	<path class="st5" d="M1129.8,530.5l-1-3.1l-2.7-1.9h-3.3l-2.7,1.9l-1,3.1l1,3.1l2.7,1.9h3.3l2.7-1.9L1129.8,530.5z"/>
	<path class="st5" d="M1093.7,517.5l-1-3.6l-2.6-2.6l-3.6-1l-3.6,1l-2.6,2.6l-1,3.6l1,3.6l2.6,2.6l3.6,1l3.6-1l2.6-2.6L1093.7,517.5
		z"/>
	<path class="st5" d="M1069.8,531.5l-0.8-2.6l-2.2-1.6h-2.7l-2.2,1.6l-0.8,2.6l0.8,2.6l2.2,1.6h2.7l2.2-1.6L1069.8,531.5z"/>
	<path class="st5" d="M1126.4,525.5l-1.1-3.5l-2.9-2.1h-3.6l-2.9,2.1l-1.1,3.5l1.1,3.5l2.9,2.1h3.6l2.9-2.1L1126.4,525.5z"/>
	<path class="st5" d="M1094.8,530.5l-1-3.1l-2.6-1.9h-3.3l-2.6,1.9l-1,3.1l1,3.1l2.6,1.9h3.3l2.6-1.9L1094.8,530.5z"/>
	<path class="st5" d="M1113.5,509.5l-0.9-2.9l-2.5-1.8h-3.1l-2.5,1.8l-0.9,2.9l0.9,2.9l2.5,1.8h3.1l2.5-1.8L1113.5,509.5z"/>
	<path class="st5" d="M1039.5,516.5l-1.2-2.8l-2.8-1.2l-2.8,1.2l-1.2,2.8l1.2,2.8l2.8,1.2l2.8-1.2L1039.5,516.5z"/>
	<path class="st5" d="M1093.3,491.5l-1.1-3.4l-2.9-2.1h-3.6l-2.9,2.1l-1.1,3.4l1.1,3.4l2.9,2.1h3.6l2.9-2.1L1093.3,491.5z"/>
	<path class="st5" d="M1079.5,486.5l-1-3l-2.5-1.8h-3.1l-2.5,1.8l-1,3l1,3l2.5,1.8h3.1l2.5-1.8L1079.5,486.5z"/>
	<path class="st5" d="M1071.8,532.5l-0.9-4l-2.6-3.2l-3.7-1.8h-4.1l-3.7,1.8l-2.6,3.2l-0.9,4l0.9,4l2.6,3.2l3.7,1.8h4.1l3.7-1.8
		l2.6-3.2L1071.8,532.5z"/>
	<path class="st5" d="M1122.4,526.5l-0.8-2l-2-0.8l-2,0.8l-0.8,2l0.8,2l2,0.8l2-0.8L1122.4,526.5z"/>
	<path class="st5" d="M1144.2,557.5l-0.8-1.9l-1.9-0.8l-1.9,0.8l-0.8,1.9l0.8,1.9l1.9,0.8l1.9-0.8L1144.2,557.5z"/>
	<path class="st5" d="M1075.7,537.5l-0.9-2.3l-2.3-0.9l-2.3,0.9l-0.9,2.3l0.9,2.3l2.3,0.9l2.3-0.9L1075.7,537.5z"/>
	<path class="st5" d="M1034,548.5l-0.9-2.6l-2.2-1.6h-2.8l-2.2,1.6l-0.9,2.6l0.9,2.6l2.2,1.6h2.8l2.2-1.6L1034,548.5z"/>
	<path class="st5" d="M1058.5,516.5l-1-3l-2.5-1.8h-3.1l-2.5,1.8l-1,3l1,3l2.5,1.8h3.1l2.5-1.8L1058.5,516.5z"/>
	<path class="st5" d="M1053.8,528.5l-1-3.1l-2.7-1.9h-3.3l-2.7,1.9l-1,3.1l1,3.1l2.7,1.9h3.3l2.7-1.9L1053.8,528.5z"/>
	<path class="st5" d="M1097.1,553.5l-0.9-2.7l-2.3-1.7h-2.9l-2.3,1.7l-0.9,2.7l0.9,2.7l2.3,1.7h2.9l2.3-1.7L1097.1,553.5z"/>
	<path class="st5" d="M1119.5,534.5l-1.2-3.6l-3-2.2h-3.7l-3,2.2l-1.2,3.6l1.2,3.6l3,2.2h3.7l3-2.2L1119.5,534.5z"/>
	<path class="st5" d="M1079.6,521.5l-1.2-3.6l-3.1-2.2h-3.8l-3.1,2.2l-1.2,3.6l1.2,3.6l3.1,2.2h3.8l3.1-2.2L1079.6,521.5z"/>
	<path class="st5" d="M1117.2,523.5l-0.9-2.7l-2.3-1.7h-2.9l-2.3,1.7l-0.9,2.7l0.9,2.7l2.3,1.7h2.9l2.3-1.7L1117.2,523.5z"/>
	<path class="st5" d="M1277.4,394.5l-1.1-2.7l-2.7-1.1l-2.7,1.1l-1.1,2.7l1.1,2.7l2.7,1.1l2.7-1.1L1277.4,394.5z"/>
	<path class="st5" d="M1146.4,526.5l-0.9-2.9l-2.4-1.8h-3l-2.4,1.8l-0.9,2.9l0.9,2.9l2.4,1.8h3l2.4-1.8L1146.4,526.5z"/>
	<path class="st5" d="M1063.9,522.5l-1-3.1l-2.7-1.9h-3.3l-2.7,1.9l-1,3.1l1,3.1l2.7,1.9h3.3l2.7-1.9L1063.9,522.5z"/>
	<path class="st5" d="M1121.5,533.5l-1-2.9l-2.5-1.8h-3.1l-2.5,1.8l-1,2.9l1,2.9l2.5,1.8h3.1l2.5-1.8L1121.5,533.5z"/>
	<path class="st5" d="M1017.5,504.5l-1.2-2.9l-2.9-1.2l-2.9,1.2l-1.2,2.9l1.2,2.9l2.9,1.2l2.9-1.2L1017.5,504.5z"/>
	<path class="st5" d="M1071.5,516.5l-1.2-3.6l-3-2.2h-3.7l-3,2.2l-1.2,3.6l1.2,3.6l3,2.2h3.7l3-2.2L1071.5,516.5z"/>
	<path class="st5" d="M1113.2,518.5l-1.1-2.6l-2.6-1.1l-2.6,1.1l-1.1,2.6l1.1,2.6l2.6,1.1l2.6-1.1L1113.2,518.5z"/>
	<path class="st5" d="M1045.7,520.5l-1-3.1l-2.6-1.9h-3.2l-2.6,1.9l-1,3.1l1,3.1l2.6,1.9h3.2l2.6-1.9L1045.7,520.5z"/>
	<path class="st5" d="M1155.4,523.5l-1.1-2.7l-2.7-1.1l-2.7,1.1l-1.1,2.7l1.1,2.7l2.7,1.1l2.7-1.1L1155.4,523.5z"/>
	<path class="st5" d="M1113.6,520.5l-1-3l-2.6-1.9h-3.2l-2.6,1.9l-1,3l1,3l2.6,1.9h3.2l2.6-1.9L1113.6,520.5z"/>
	<path class="st5" d="M1044.7,515.5l-1-3.1l-2.6-1.9h-3.2l-2.6,1.9l-1,3.1l1,3.1l2.6,1.9h3.2l2.6-1.9L1044.7,515.5z"/>
	<path class="st5" d="M1064.7,518.5l-1-3.6l-2.6-2.6l-3.6-1l-3.6,1l-2.6,2.6l-1,3.6l1,3.6l2.6,2.6l3.6,1l3.6-1l2.6-2.6L1064.7,518.5
		z"/>
	<path class="st5" d="M1083.7,521.5l-0.8-3.1l-2.3-2.3l-3.1-0.8l-3.1,0.8l-2.3,2.3l-0.8,3.1l0.8,3.1l2.3,2.3l3.1,0.8l3.1-0.8
		l2.3-2.3L1083.7,521.5z"/>
	<path class="st5" d="M1084.4,521.5l-1.1-3.5l-3-2.2h-3.7l-3,2.2l-1.1,3.5l1.1,3.5l3,2.2h3.7l3-2.2L1084.4,521.5z"/>
	<path class="st5" d="M1061.5,516.5l-0.9-2.9l-2.5-1.8h-3.1l-2.5,1.8l-0.9,2.9l0.9,2.9l2.5,1.8h3.1l2.5-1.8L1061.5,516.5z"/>
	<path class="st5" d="M1041.6,511.5l-0.9-2.2l-2.2-0.9l-2.2,0.9l-0.9,2.2l0.9,2.2l2.2,0.9l2.2-0.9L1041.6,511.5z"/>
</g>
<g>
	<line class="st6" x1="813" y1="568.6" x2="1348" y2="470.8"/>
	<line class="st7" x1="1080.5" y1="790" x2="1080.5" y2="255"/>
	<line class="st7" x1="813" y1="522.5" x2="1348" y2="522.5"/>
</g>
<g transform="translate(1448,470.8158)">
	<text transform="matrix(1 0 0 1 -100 5.5)" class="st5 st1 st2">CC: 0.44</text>
</g>
<g class="st4">
	<path class="st8" d="M1128.7,514.5l-1-3.1l-2.6-1.9h-3.2l-2.6,1.9l-1,3.1l1,3.1l2.6,1.9h3.2l2.6-1.9L1128.7,514.5z"/>
	<path class="st8" d="M1030.8,533.5l-1-2.4l-2.4-1l-2.4,1l-1,2.4l1,2.4l2.4,1l2.4-1L1030.8,533.5z"/>
	<path class="st8" d="M1068.3,560.5l-0.9-2.8l-2.4-1.7h-2.9l-2.4,1.7l-0.9,2.8l0.9,2.8l2.4,1.7h2.9l2.4-1.7L1068.3,560.5z"/>
	<path class="st8" d="M1024.5,522.5l-1.2-2.9l-2.9-1.2l-2.9,1.2l-1.2,2.9l1.2,2.9l2.9,1.2l2.9-1.2L1024.5,522.5z"/>
	<path class="st8" d="M1062.6,544.5l-0.9-2.2l-2.2-0.9l-2.2,0.9l-0.9,2.2l0.9,2.2l2.2,0.9l2.2-0.9L1062.6,544.5z"/>
	<path class="st8" d="M1097.6,537.5l-1-3l-2.6-1.9h-3.2l-2.6,1.9l-1,3l1,3l2.6,1.9h3.2l2.6-1.9L1097.6,537.5z"/>
	<path class="st8" d="M1087.6,548.5l-1-3l-2.5-1.9h-3.2l-2.5,1.9l-1,3l1,3l2.5,1.9h3.2l2.5-1.9L1087.6,548.5z"/>
	<path class="st8" d="M1062.1,529.5l-0.9-3.3l-2.4-2.4l-3.3-0.9l-3.3,0.9l-2.4,2.4l-0.9,3.3l0.9,3.3l2.4,2.4l3.3,0.9l3.3-0.9
		l2.4-2.4L1062.1,529.5z"/>
	<path class="st8" d="M1097.8,524.5l-0.8-2.5l-2.2-1.6h-2.7l-2.2,1.6l-0.8,2.5l0.8,2.5l2.2,1.6h2.7l2.2-1.6L1097.8,524.5z"/>
	<path class="st8" d="M1070.4,527.5l-0.9-3.5l-2.5-2.5l-3.5-0.9l-3.5,0.9l-2.5,2.5l-0.9,3.5l0.9,3.5l2.5,2.5l3.5,0.9l3.5-0.9
		l2.5-2.5L1070.4,527.5z"/>
	<path class="st8" d="M1111.7,537.5l-0.9-2.3l-2.3-0.9l-2.3,0.9l-0.9,2.3l0.9,2.3l2.3,0.9l2.3-0.9L1111.7,537.5z"/>
	<path class="st8" d="M1114.1,516.5l-1.1-2.6l-2.6-1.1l-2.6,1.1l-1.1,2.6l1.1,2.6l2.6,1.1l2.6-1.1L1114.1,516.5z"/>
	<path class="st8" d="M1055.5,470.5l-1.2-2.9l-2.9-1.2l-2.9,1.2l-1.2,2.9l1.2,2.9l2.9,1.2l2.9-1.2L1055.5,470.5z"/>
	<path class="st8" d="M1093,519.5l-1-3.2l-2.7-2h-3.4l-2.7,2l-1,3.2l1,3.2l2.7,2h3.4l2.7-2L1093,519.5z"/>
	<path class="st8" d="M1121.6,570.5l-0.9-2.2l-2.2-0.9l-2.2,0.9l-0.9,2.2l0.9,2.2l2.2,0.9l2.2-0.9L1121.6,570.5z"/>
	<path class="st8" d="M1163.2,544.5l-1.1-2.6l-2.6-1.1l-2.6,1.1l-1.1,2.6l1.1,2.6l2.6,1.1l2.6-1.1L1163.2,544.5z"/>
	<path class="st8" d="M986.4,484.5l-0.8-2l-2-0.8l-2,0.8l-0.8,2l0.8,2l2,0.8l2-0.8L986.4,484.5z"/>
	<path class="st8" d="M1114.4,515.5l-1.1-3.5l-3-2.1h-3.6l-3,2.1l-1.1,3.5l1.1,3.5l3,2.1h3.6l3-2.1L1114.4,515.5z"/>
	<path class="st8" d="M1100.8,507.5l-0.8-3.2l-2.3-2.3l-3.2-0.8l-3.2,0.8l-2.3,2.3l-0.8,3.2l0.8,3.2l2.3,2.3l3.2,0.8l3.2-0.8
		l2.3-2.3L1100.8,507.5z"/>
	<path class="st8" d="M1171.1,518.5l-1.1-2.5l-2.5-1.1l-2.5,1.1l-1.1,2.5l1.1,2.5l2.5,1.1l2.5-1.1L1171.1,518.5z"/>
	<path class="st8" d="M1164,514.5l-1-2.5l-2.5-1l-2.5,1l-1,2.5l1,2.5l2.5,1l2.5-1L1164,514.5z"/>
	<path class="st8" d="M1052,529.5l-1-3.2l-2.7-2h-3.4l-2.7,2l-1,3.2l1,3.2l2.7,2h3.4l2.7-2L1052,529.5z"/>
	<path class="st8" d="M981.5,571.5l-1-2.9l-2.5-1.8H975l-2.5,1.8l-1,2.9l1,2.9l2.5,1.8h3.1l2.5-1.8L981.5,571.5z"/>
	<path class="st8" d="M975.5,509.5l-1-3l-2.5-1.8h-3.1l-2.5,1.8l-1,3l1,3l2.5,1.8h3.1l2.5-1.8L975.5,509.5z"/>
	<path class="st8" d="M1002.6,520.5l-1.2-2.9l-2.9-1.2l-2.9,1.2l-1.2,2.9l1.2,2.9l2.9,1.2l2.9-1.2L1002.6,520.5z"/>
	<path class="st8" d="M1101.2,531.5l-1.1-3.4l-2.9-2.1h-3.5l-2.9,2.1l-1.1,3.4l1.1,3.4l2.9,2.1h3.5l2.9-2.1L1101.2,531.5z"/>
	<path class="st8" d="M1096.7,526.5l-0.8-3.1l-2.3-2.3l-3.1-0.8l-3.1,0.8l-2.3,2.3l-0.8,3.1l0.8,3.1l2.3,2.3l3.1,0.8l3.1-0.8
		l2.3-2.3L1096.7,526.5z"/>
	<path class="st8" d="M1058.8,518.5l-1-3.1l-2.6-1.9h-3.3l-2.6,1.9l-1,3.1l1,3.1l2.6,1.9h3.3l2.6-1.9L1058.8,518.5z"/>
	<path class="st8" d="M1050,532.5l-0.9-2.6l-2.2-1.6h-2.8l-2.2,1.6l-0.9,2.6l0.9,2.6l2.2,1.6h2.8l2.2-1.6L1050,532.5z"/>
	<path class="st8" d="M1049.8,541.5l-1-3.1l-2.6-1.9h-3.3l-2.6,1.9l-1,3.1l1,3.1l2.6,1.9h3.3l2.6-1.9L1049.8,541.5z"/>
	<path class="st8" d="M1087.5,520.5l-1.1-3.5l-3-2.2h-3.7l-3,2.2l-1.1,3.5l1.1,3.5l3,2.2h3.7l3-2.2L1087.5,520.5z"/>
	<path class="st8" d="M1198.2,467.5l-1.1-2.6l-2.6-1.1l-2.6,1.1l-1.1,2.6l1.1,2.6l2.6,1.1l2.6-1.1L1198.2,467.5z"/>
	<path class="st8" d="M1128.1,486.5l-0.9-2.7l-2.3-1.7h-2.9l-2.3,1.7l-0.9,2.7l0.9,2.7l2.3,1.7h2.9l2.3-1.7L1128.1,486.5z"/>
	<path class="st8" d="M1164.2,490.5l-0.9-3.3l-2.4-2.4l-3.3-0.9l-3.3,0.9l-2.4,2.4l-0.9,3.3l0.9,3.3l2.4,2.4l3.3,0.9l3.3-0.9
		l2.4-2.4L1164.2,490.5z"/>
	<path class="st8" d="M1067,505.5l-0.9-2.7l-2.3-1.6h-2.8l-2.3,1.6l-0.9,2.7l0.9,2.7l2.3,1.6h2.8l2.3-1.6L1067,505.5z"/>
	<path class="st8" d="M1098.6,519.5l-0.9-3.5l-2.6-2.6l-3.5-0.9l-3.5,0.9l-2.6,2.6l-0.9,3.5l0.9,3.5l2.6,2.6l3.5,0.9l3.5-0.9
		l2.6-2.6L1098.6,519.5z"/>
	<path class="st8" d="M1098.3,487.5l-1.1-3.4l-2.9-2.1h-3.6l-2.9,2.1l-1.1,3.4l1.1,3.4l2.9,2.1h3.6l2.9-2.1L1098.3,487.5z"/>
	<path class="st8" d="M1094.6,491.5l-1.2-2.9l-2.9-1.2l-2.9,1.2l-1.2,2.9l1.2,2.9l2.9,1.2l2.9-1.2L1094.6,491.5z"/>
	<path class="st8" d="M1094.7,523.5l-0.8-2.5l-2.1-1.5h-2.6l-2.1,1.5l-0.8,2.5l0.8,2.5l2.1,1.5h2.6l2.1-1.5L1094.7,523.5z"/>
	<path class="st8" d="M1069.3,540.5l-1.1-2.7l-2.7-1.1l-2.7,1.1l-1.1,2.7l1.1,2.7l2.7,1.1l2.7-1.1L1069.3,540.5z"/>
	<path class="st8" d="M1103.1,553.5l-1.1-2.5l-2.5-1.1l-2.5,1.1l-1.1,2.5l1.1,2.5l2.5,1.1l2.5-1.1L1103.1,553.5z"/>
	<path class="st8" d="M1055.1,502.5l-0.9-3.3l-2.4-2.4l-3.3-0.9l-3.3,0.9l-2.4,2.4l-0.9,3.3l0.9,3.3l2.4,2.4l3.3,0.9l3.3-0.9
		l2.4-2.4L1055.1,502.5z"/>
	<path class="st8" d="M1184.5,513.5l-1.1-3.5l-3-2.2h-3.7l-3,2.2l-1.1,3.5l1.1,3.5l3,2.2h3.7l3-2.2L1184.5,513.5z"/>
	<path class="st8" d="M1091.5,520.5l-1.1-3.5l-3-2.2h-3.7l-3,2.2l-1.1,3.5l1.1,3.5l3,2.2h3.7l3-2.2L1091.5,520.5z"/>
	<path class="st8" d="M1090.6,534.5l-1.2-3.6l-3.1-2.2h-3.8l-3.1,2.2l-1.2,3.6l1.2,3.6l3.1,2.2h3.8l3.1-2.2L1090.6,534.5z"/>
	<path class="st8" d="M1072.6,519.5l-1-3l-2.5-1.8h-3.1l-2.5,1.8l-1,3l1,3l2.5,1.8h3.1l2.5-1.8L1072.6,519.5z"/>
	<path class="st8" d="M1068,481.5l-0.9-2.7l-2.3-1.7h-2.8l-2.3,1.7l-0.9,2.7l0.9,2.7l2.3,1.7h2.8l2.3-1.7L1068,481.5z"/>
	<path class="st8" d="M1071.1,509.5l-1.1-2.5l-2.5-1.1l-2.5,1.1l-1.1,2.5l1.1,2.5l2.5,1.1l2.5-1.1L1071.1,509.5z"/>
	<path class="st8" d="M1066.5,512.5l-1.2-2.8l-2.8-1.2l-2.8,1.2l-1.2,2.8l1.2,2.8l2.8,1.2l2.8-1.2L1066.5,512.5z"/>
	<path class="st8" d="M1068,527.5l-1.1-3.3l-2.8-2h-3.4l-2.8,2l-1.1,3.3l1.1,3.3l2.8,2h3.4l2.8-2L1068,527.5z"/>
	<path class="st8" d="M1071.5,508.5l-1.2-2.9l-2.9-1.2l-2.9,1.2l-1.2,2.9l1.2,2.9l2.9,1.2l2.9-1.2L1071.5,508.5z"/>
	<path class="st8" d="M1104.3,522.5l-1.1-3.4l-2.9-2.1h-3.6l-2.9,2.1l-1.1,3.4l1.1,3.4l2.9,2.1h3.6l2.9-2.1L1104.3,522.5z"/>
	<path class="st8" d="M1113.9,517.5l-1-3.2l-2.7-2h-3.3l-2.7,2l-1,3.2l1,3.2l2.7,2h3.3l2.7-2L1113.9,517.5z"/>
	<path class="st8" d="M1096.8,525.5l-1-3.1l-2.7-1.9h-3.3l-2.7,1.9l-1,3.1l1,3.1l2.7,1.9h3.3l2.7-1.9L1096.8,525.5z"/>
	<path class="st8" d="M1062,520.5l-1-3.2l-2.7-2h-3.4l-2.7,2l-1,3.2l1,3.2l2.7,2h3.4l2.7-2L1062,520.5z"/>
	<path class="st8" d="M994.2,523.5l-1.1-2.6l-2.6-1.1l-2.6,1.1l-1.1,2.6l1.1,2.6l2.6,1.1l2.6-1.1L994.2,523.5z"/>
	<path class="st8" d="M1090.4,512.5l-0.9-2.9l-2.4-1.8h-3l-2.4,1.8l-0.9,2.9l0.9,2.9l2.4,1.8h3l2.4-1.8L1090.4,512.5z"/>
	<path class="st8" d="M1094.9,524.5l-0.9-3.2l-2.4-2.4l-3.2-0.9l-3.2,0.9l-2.4,2.4l-0.9,3.2l0.9,3.2l2.4,2.4l3.2,0.9l3.2-0.9
		l2.4-2.4L1094.9,524.5z"/>
	<path class="st8" d="M1032.6,487.5l-1-3l-2.6-1.9h-3.2l-2.6,1.9l-1,3l1,3l2.6,1.9h3.2l2.6-1.9L1032.6,487.5z"/>
	<path class="st8" d="M974.4,514.5l-1.1-2.7l-2.7-1.1l-2.7,1.1l-1.1,2.7l1.1,2.7l2.7,1.1l2.7-1.1L974.4,514.5z"/>
	<path class="st8" d="M1066.7,530.5l-0.8-2.5l-2.1-1.5h-2.6l-2.1,1.5l-0.8,2.5l0.8,2.5l2.1,1.5h2.6l2.1-1.5L1066.7,530.5z"/>
	<path class="st8" d="M1155.8,525.5l-0.8-2.5l-2.2-1.6h-2.7l-2.2,1.6l-0.8,2.5l0.8,2.5l2.2,1.6h2.7l2.2-1.6L1155.8,525.5z"/>
	<path class="st8" d="M1162.9,481.5l-0.8-2.6l-2.2-1.6h-2.7l-2.2,1.6l-0.8,2.6l0.8,2.6l2.2,1.6h2.7l2.2-1.6L1162.9,481.5z"/>
	<path class="st8" d="M1041.4,531.5l-1.2-2.8l-2.8-1.2l-2.8,1.2l-1.2,2.8l1.2,2.8l2.8,1.2l2.8-1.2L1041.4,531.5z"/>
	<path class="st8" d="M1100,514.5l-0.9-3.2l-2.4-2.4l-3.2-0.9l-3.2,0.9l-2.4,2.4l-0.9,3.2l0.9,3.2l2.4,2.4l3.2,0.9l3.2-0.9l2.4-2.4
		L1100,514.5z"/>
	<path class="st8" d="M1146.3,540.5l-1.1-2.7l-2.7-1.1l-2.7,1.1l-1.1,2.7l1.1,2.7l2.7,1.1l2.7-1.1L1146.3,540.5z"/>
	<path class="st8" d="M1043,531.5l-0.9-2.6l-2.2-1.6h-2.8l-2.2,1.6l-0.9,2.6l0.9,2.6l2.2,1.6h2.8l2.2-1.6L1043,531.5z"/>
	<path class="st8" d="M1039.6,528.5l-1-3l-2.5-1.9h-3.1l-2.5,1.9l-1,3l1,3l2.5,1.9h3.1l2.5-1.9L1039.6,528.5z"/>
	<path class="st8" d="M1040.2,524.5l-0.9-3.3l-2.4-2.4l-3.3-0.9l-3.3,0.9l-2.4,2.4l-0.9,3.3l0.9,3.3l2.4,2.4l3.3,0.9l3.3-0.9
		l2.4-2.4L1040.2,524.5z"/>
	<path class="st8" d="M1058,525.5l-0.9-2.7l-2.3-1.6h-2.8l-2.3,1.6l-0.9,2.7l0.9,2.7l2.3,1.6h2.8l2.3-1.6L1058,525.5z"/>
	<path class="st8" d="M1063.1,521.5l-1.1-3.3l-2.8-2h-3.5l-2.8,2l-1.1,3.3l1.1,3.3l2.8,2h3.5l2.8-2L1063.1,521.5z"/>
	<path class="st8" d="M1143.4,500.5l-1.2-2.8l-2.8-1.2l-2.8,1.2l-1.2,2.8l1.2,2.8l2.8,1.2l2.8-1.2L1143.4,500.5z"/>
	<path class="st8" d="M1157.2,497.5l-0.9-2.8l-2.4-1.7h-2.9l-2.4,1.7l-0.9,2.8l0.9,2.8l2.4,1.7h2.9l2.4-1.7L1157.2,497.5z"/>
	<path class="st8" d="M1104.5,523.5l-1.2-2.8l-2.8-1.2l-2.8,1.2l-1.2,2.8l1.2,2.8l2.8,1.2l2.8-1.2L1104.5,523.5z"/>
	<path class="st8" d="M1102.5,524.5l-1-2.9l-2.5-1.8h-3.1l-2.5,1.8l-1,2.9l1,2.9l2.5,1.8h3.1l2.5-1.8L1102.5,524.5z"/>
	<path class="st8" d="M1194.5,499.5l-1.2-2.9l-2.9-1.2l-2.9,1.2l-1.2,2.9l1.2,2.9l2.9,1.2l2.9-1.2L1194.5,499.5z"/>
	<path class="st8" d="M1066.3,522.5l-1.1-3.4l-2.9-2.1h-3.6l-2.9,2.1l-1.1,3.4l1.1,3.4l2.9,2.1h3.6l2.9-2.1L1066.3,522.5z"/>
	<path class="st8" d="M1031.1,516.5l-0.9-2.7l-2.3-1.7h-2.9l-2.3,1.7l-0.9,2.7l0.9,2.7l2.3,1.7h2.9l2.3-1.7L1031.1,516.5z"/>
	<path class="st8" d="M1082.9,520.5l-0.9-3.2l-2.3-2.3l-3.2-0.9l-3.2,0.9l-2.3,2.3l-0.9,3.2l0.9,3.2l2.3,2.3l3.2,0.9l3.2-0.9
		l2.3-2.3L1082.9,520.5z"/>
	<path class="st8" d="M1075.2,528.5l-1.1-2.6l-2.6-1.1l-2.6,1.1l-1.1,2.6l1.1,2.6l2.6,1.1l2.6-1.1L1075.2,528.5z"/>
	<path class="st8" d="M1064.6,518.5l-1.2-2.9l-2.9-1.2l-2.9,1.2l-1.2,2.9l1.2,2.9l2.9,1.2l2.9-1.2L1064.6,518.5z"/>
	<path class="st8" d="M1100.5,542.5l-1.2-2.9l-2.9-1.2l-2.9,1.2l-1.2,2.9l1.2,2.9l2.9,1.2l2.9-1.2L1100.5,542.5z"/>
	<path class="st8" d="M1042.9,529.5l-0.8-2.6l-2.2-1.6h-2.7l-2.2,1.6l-0.8,2.6l0.8,2.6l2.2,1.6h2.7l2.2-1.6L1042.9,529.5z"/>
	<path class="st8" d="M1077.4,524.5l-0.9-2.9l-2.4-1.8h-3l-2.4,1.8l-0.9,2.9l0.9,2.9l2.4,1.8h3l2.4-1.8L1077.4,524.5z"/>
	<path class="st8" d="M1066.3,507.5l-1.1-2.7l-2.7-1.1l-2.7,1.1l-1.1,2.7l1.1,2.7l2.7,1.1l2.7-1.1L1066.3,507.5z"/>
	<path class="st8" d="M1039.3,506.5l-1.1-2.7l-2.7-1.1l-2.7,1.1l-1.1,2.7l1.1,2.7l2.7,1.1l2.7-1.1L1039.3,506.5z"/>
	<path class="st8" d="M1110.3,504.5l-1.1-2.7l-2.7-1.1l-2.7,1.1l-1.1,2.7l1.1,2.7l2.7,1.1l2.7-1.1L1110.3,504.5z"/>
	<path class="st8" d="M1147.8,535.5l-1-2.4l-2.4-1l-2.4,1l-1,2.4l1,2.4l2.4,1l2.4-1L1147.8,535.5z"/>
	<path class="st8" d="M1101.7,477.5l-0.8-2.5l-2.1-1.5h-2.6l-2.1,1.5l-0.8,2.5l0.8,2.5l2.1,1.5h2.6l2.1-1.5L1101.7,477.5z"/>
	<path class="st8" d="M1100.3,521.5l-0.8-2l-2-0.8l-2,0.8l-0.8,2l0.8,2l2,0.8l2-0.8L1100.3,521.5z"/>
	<path class="st8" d="M964,546.5l-1-2.4l-2.4-1l-2.4,1l-1,2.4l1,2.4l2.4,1l2.4-1L964,546.5z"/>
	<path class="st8" d="M1009.6,513.5l-0.9-2.2l-2.2-0.9l-2.2,0.9l-0.9,2.2l0.9,2.2l2.2,0.9l2.2-0.9L1009.6,513.5z"/>
	<path class="st8" d="M1074.1,517.5l-0.9-2.7l-2.3-1.7h-2.8l-2.3,1.7l-0.9,2.7l0.9,2.7l2.3,1.7h2.8l2.3-1.7L1074.1,517.5z"/>
	<path class="st8" d="M1090.3,550.5l-1.1-2.7l-2.7-1.1l-2.7,1.1l-1.1,2.7l1.1,2.7l2.7,1.1l2.7-1.1L1090.3,550.5z"/>
	<path class="st8" d="M1027.8,513.5l-0.8-2.5l-2.2-1.6h-2.7l-2.2,1.6l-0.8,2.5l0.8,2.5l2.2,1.6h2.7l2.2-1.6L1027.8,513.5z"/>
	<path class="st8" d="M983.2,512.5l-1.1-3.3l-2.8-2.1h-3.5l-2.8,2.1l-1.1,3.3l1.1,3.3l2.8,2.1h3.5l2.8-2.1L983.2,512.5z"/>
	<path class="st8" d="M1081,536.5l-0.9-2.7l-2.3-1.6h-2.8l-2.3,1.6l-0.9,2.7l0.9,2.7l2.3,1.6h2.8l2.3-1.6L1081,536.5z"/>
	<path class="st8" d="M1109,513.5l-0.9-3.3l-2.4-2.4l-3.3-0.9l-3.3,0.9l-2.4,2.4l-0.9,3.3l0.9,3.3l2.4,2.4l3.3,0.9l3.3-0.9l2.4-2.4
		L1109,513.5z"/>
	<path class="st8" d="M1051.2,524.5l-1.1-3.4l-2.9-2.1h-3.5l-2.9,2.1l-1.1,3.4l1.1,3.4l2.9,2.1h3.5l2.9-2.1L1051.2,524.5z"/>
	<path class="st8" d="M1123.4,513.5l-0.9-2.9l-2.5-1.8h-3.1l-2.5,1.8l-0.9,2.9l0.9,2.9l2.5,1.8h3.1l2.5-1.8L1123.4,513.5z"/>
	<path class="st8" d="M1018.3,547.5l-1.1-2.7l-2.7-1.1l-2.7,1.1l-1.1,2.7l1.1,2.7l2.7,1.1l2.7-1.1L1018.3,547.5z"/>
	<path class="st8" d="M1093.7,531.5l-1-3.1l-2.6-1.9h-3.2l-2.6,1.9l-1,3.1l1,3.1l2.6,1.9h3.2l2.6-1.9L1093.7,531.5z"/>
	<path class="st8" d="M1072.5,512.5l-1.1-3.5l-3-2.2h-3.7l-3,2.2l-1.1,3.5l1.1,3.5l3,2.2h3.7l3-2.2L1072.5,512.5z"/>
	<path class="st8" d="M1104.2,510.5l-1.1-3.3l-2.8-2.1h-3.5l-2.8,2.1l-1.1,3.3l1.1,3.3l2.8,2.1h3.5l2.8-2.1L1104.2,510.5z"/>
	<path class="st8" d="M1116.5,505.5l-1-2.9l-2.5-1.8h-3.1l-2.5,1.8l-1,2.9l1,2.9l2.5,1.8h3.1l2.5-1.8L1116.5,505.5z"/>
	<path class="st8" d="M1060.7,506.5l-1-3.6l-2.7-2.7l-3.6-1l-3.6,1l-2.7,2.7l-1,3.6l1,3.6l2.7,2.7l3.6,1l3.6-1l2.7-2.7L1060.7,506.5
		z"/>
	<path class="st8" d="M1105.5,530.5l-1-2.9l-2.5-1.8h-3.1l-2.5,1.8l-1,2.9l1,2.9l2.5,1.8h3.1l2.5-1.8L1105.5,530.5z"/>
	<path class="st8" d="M1102.4,524.5l-0.9-2.9l-2.4-1.8h-3l-2.4,1.8l-0.9,2.9l0.9,2.9l2.4,1.8h3l2.4-1.8L1102.4,524.5z"/>
	<path class="st8" d="M1022.4,509.5l-1.1-2.8l-2.8-1.1l-2.8,1.1l-1.1,2.8l1.1,2.8l2.8,1.1l2.8-1.1L1022.4,509.5z"/>
	<path class="st8" d="M1076.5,509.5l-1.2-2.8l-2.8-1.2l-2.8,1.2l-1.2,2.8l1.2,2.8l2.8,1.2l2.8-1.2L1076.5,509.5z"/>
	<path class="st8" d="M1113.9,520.5l-1-3.2l-2.7-2h-3.4l-2.7,2l-1,3.2l1,3.2l2.7,2h3.4l2.7-2L1113.9,520.5z"/>
	<path class="st8" d="M1023.9,533.5l-1-2.4l-2.4-1l-2.4,1l-1,2.4l1,2.4l2.4,1l2.4-1L1023.9,533.5z"/>
	<path class="st8" d="M1081.6,523.5l-1.2-3.6l-3-2.2h-3.8l-3,2.2l-1.2,3.6l1.2,3.6l3,2.2h3.8l3-2.2L1081.6,523.5z"/>
	<path class="st8" d="M1082,510.5l-1-3.2l-2.7-2h-3.4l-2.7,2l-1,3.2l1,3.2l2.7,2h3.4l2.7-2L1082,510.5z"/>
	<path class="st8" d="M1095.1,502.5l-0.9-2.7l-2.3-1.7h-2.9l-2.3,1.7l-0.9,2.7l0.9,2.7l2.3,1.7h2.9l2.3-1.7L1095.1,502.5z"/>
	<path class="st8" d="M1068.6,534.5l-1.2-3.6l-3.1-2.2h-3.8l-3.1,2.2l-1.2,3.6l1.2,3.6l3.1,2.2h3.8l3.1-2.2L1068.6,534.5z"/>
	<path class="st8" d="M1120.3,506.5l-1.1-2.7l-2.7-1.1l-2.7,1.1l-1.1,2.7l1.1,2.7l2.7,1.1l2.7-1.1L1120.3,506.5z"/>
	<path class="st8" d="M1071,546.5l-1-2.5l-2.5-1l-2.5,1l-1,2.5l1,2.5l2.5,1l2.5-1L1071,546.5z"/>
	<path class="st8" d="M1118.9,526.5l-0.8-2.6l-2.2-1.6h-2.7l-2.2,1.6l-0.8,2.6l0.8,2.6l2.2,1.6h2.7l2.2-1.6L1118.9,526.5z"/>
	<path class="st8" d="M1121.7,512.5l-1-3l-2.6-1.9h-3.2l-2.6,1.9l-1,3l1,3l2.6,1.9h3.2l2.6-1.9L1121.7,512.5z"/>
	<path class="st8" d="M1122.9,516.5l-1-3.2l-2.7-2h-3.3l-2.7,2l-1,3.2l1,3.2l2.7,2h3.3l2.7-2L1122.9,516.5z"/>
	<path class="st8" d="M1077.1,510.5l-1.1-2.6l-2.6-1.1l-2.6,1.1l-1.1,2.6l1.1,2.6l2.6,1.1l2.6-1.1L1077.1,510.5z"/>
	<path class="st8" d="M1074.7,520.5l-1-3l-2.6-1.9h-3.2l-2.6,1.9l-1,3l1,3l2.6,1.9h3.2l2.6-1.9L1074.7,520.5z"/>
	<path class="st8" d="M1088.4,518.5l-1.1-3.4l-2.9-2.1h-3.6l-2.9,2.1l-1.1,3.4l1.1,3.4l2.9,2.1h3.6l2.9-2.1L1088.4,518.5z"/>
	<path class="st8" d="M1078.4,519.5l-1.2-2.8l-2.8-1.2l-2.8,1.2l-1.2,2.8l1.2,2.8l2.8,1.2l2.8-1.2L1078.4,519.5z"/>
	<path class="st8" d="M1080.8,516.5l-1-2.3l-2.3-1l-2.3,1l-1,2.3l1,2.3l2.3,1l2.3-1L1080.8,516.5z"/>
	<path class="st8" d="M1099.5,521.5l-0.9-3.5l-2.6-2.6l-3.5-0.9l-3.5,0.9l-2.6,2.6l-0.9,3.5l0.9,3.5l2.6,2.6l3.5,0.9l3.5-0.9
		l2.6-2.6L1099.5,521.5z"/>
	<path class="st8" d="M1103.9,509.5l-1-3.2l-2.7-2h-3.3l-2.7,2l-1,3.2l1,3.2l2.7,2h3.3l2.7-2L1103.9,509.5z"/>
	<path class="st8" d="M1040.7,534.5l-0.8-2.5l-2.1-1.5h-2.6l-2.1,1.5l-0.8,2.5l0.8,2.5l2.1,1.5h2.6l2.1-1.5L1040.7,534.5z"/>
	<path class="st8" d="M1079.4,512.5l-1.1-2.7l-2.7-1.1l-2.7,1.1l-1.1,2.7l1.1,2.7l2.7,1.1l2.7-1.1L1079.4,512.5z"/>
	<path class="st8" d="M1049.2,547.5l-1.1-2.6l-2.6-1.1l-2.6,1.1l-1.1,2.6l1.1,2.6l2.6,1.1l2.6-1.1L1049.2,547.5z"/>
	<path class="st8" d="M1118.2,526.5l-1.1-2.6l-2.6-1.1l-2.6,1.1l-1.1,2.6l1.1,2.6l2.6,1.1l2.6-1.1L1118.2,526.5z"/>
	<path class="st8" d="M1098.2,516.5l-1.1-2.6l-2.6-1.1l-2.6,1.1l-1.1,2.6l1.1,2.6l2.6,1.1l2.6-1.1L1098.2,516.5z"/>
	<path class="st8" d="M1088.7,522.5l-1-3l-2.6-1.9h-3.2l-2.6,1.9l-1,3l1,3l2.6,1.9h3.2l2.6-1.9L1088.7,522.5z"/>
	<path class="st8" d="M1093.9,513.5l-0.8-2.6l-2.2-1.6h-2.7l-2.2,1.6l-0.8,2.6l0.8,2.6l2.2,1.6h2.7l2.2-1.6L1093.9,513.5z"/>
	<path class="st8" d="M988.4,488.5l-0.8-2l-2-0.8l-2,0.8l-0.8,2l0.8,2l2,0.8l2-0.8L988.4,488.5z"/>
	<path class="st8" d="M1129.7,502.5l-0.8-2.4l-2.1-1.5h-2.6l-2.1,1.5l-0.8,2.4l0.8,2.4l2.1,1.5h2.6l2.1-1.5L1129.7,502.5z"/>
	<path class="st8" d="M1090.6,500.5l-1-3l-2.6-1.9h-3.2l-2.6,1.9l-1,3l1,3l2.6,1.9h3.2l2.6-1.9L1090.6,500.5z"/>
	<path class="st8" d="M1098.4,529.5l-1.1-3.5l-2.9-2.1h-3.6l-2.9,2.1l-1.1,3.5l1.1,3.5l2.9,2.1h3.6l2.9-2.1L1098.4,529.5z"/>
	<path class="st8" d="M1101,528.5l-0.9-2.6l-2.3-1.6h-2.8l-2.3,1.6l-0.9,2.6l0.9,2.6l2.3,1.6h2.8l2.3-1.6L1101,528.5z"/>
	<path class="st8" d="M1078.3,506.5l-1.1-2.7l-2.7-1.1l-2.7,1.1l-1.1,2.7l1.1,2.7l2.7,1.1l2.7-1.1L1078.3,506.5z"/>
	<path class="st8" d="M1052.9,523.5l-1-2.4l-2.4-1l-2.4,1l-1,2.4l1,2.4l2.4,1l2.4-1L1052.9,523.5z"/>
	<path class="st8" d="M1036.3,550.5l-0.9-2.8l-2.4-1.7h-3l-2.4,1.7l-0.9,2.8l0.9,2.8l2.4,1.7h3l2.4-1.7L1036.3,550.5z"/>
	<path class="st8" d="M1023,510.5l-0.9-2.7l-2.3-1.6h-2.8l-2.3,1.6l-0.9,2.7l0.9,2.7l2.3,1.6h2.8l2.3-1.6L1023,510.5z"/>
	<path class="st8" d="M1044.4,511.5l-1.2-2.8l-2.8-1.2l-2.8,1.2l-1.2,2.8l1.2,2.8l2.8,1.2l2.8-1.2L1044.4,511.5z"/>
	<path class="st8" d="M1063.5,527.5l-1.2-2.9l-2.9-1.2l-2.9,1.2l-1.2,2.9l1.2,2.9l2.9,1.2l2.9-1.2L1063.5,527.5z"/>
	<path class="st8" d="M1084.7,537.5l-1-3l-2.6-1.9h-3.2l-2.6,1.9l-1,3l1,3l2.6,1.9h3.2l2.6-1.9L1084.7,537.5z"/>
	<path class="st8" d="M1108.9,519.5l-1-3.2l-2.7-2h-3.3l-2.7,2l-1,3.2l1,3.2l2.7,2h3.3l2.7-2L1108.9,519.5z"/>
	<path class="st8" d="M1227.4,534.5l-0.9-2.1l-2.1-0.9l-2.1,0.9l-0.9,2.1l0.9,2.1l2.1,0.9l2.1-0.9L1227.4,534.5z"/>
	<path class="st8" d="M1081.2,532.5l-0.8-1.9l-1.9-0.8l-1.9,0.8l-0.8,1.9l0.8,1.9l1.9,0.8l1.9-0.8L1081.2,532.5z"/>
	<path class="st8" d="M1024.4,545.5l-0.9-2.1l-2.1-0.9l-2.1,0.9l-0.9,2.1l0.9,2.1l2.1,0.9l2.1-0.9L1024.4,545.5z"/>
	<path class="st8" d="M1076.1,521.5l-0.9-2.7l-2.3-1.7h-2.9l-2.3,1.7l-0.9,2.7l0.9,2.7l2.3,1.7h2.9l2.3-1.7L1076.1,521.5z"/>
	<path class="st8" d="M1062.5,526.5l-0.9-2.1l-2.1-0.9l-2.1,0.9l-0.9,2.1l0.9,2.1l2.1,0.9l2.1-0.9L1062.5,526.5z"/>
	<path class="st8" d="M1066.2,528.5l-1.1-2.6l-2.6-1.1l-2.6,1.1l-1.1,2.6l1.1,2.6l2.6,1.1l2.6-1.1L1066.2,528.5z"/>
	<path class="st8" d="M1085.7,543.5l-0.9-2.3l-2.3-0.9l-2.3,0.9l-0.9,2.3l0.9,2.3l2.3,0.9l2.3-0.9L1085.7,543.5z"/>
	<path class="st8" d="M1053.1,539.5l-0.8-1.8l-1.8-0.8l-1.8,0.8l-0.8,1.8l0.8,1.8l1.8,0.8l1.8-0.8L1053.1,539.5z"/>
	<path class="st8" d="M1153.4,511.5l-0.9-2.1l-2.1-0.9l-2.1,0.9l-0.9,2.1l0.9,2.1l2.1,0.9l2.1-0.9L1153.4,511.5z"/>
	<path class="st8" d="M1078.1,548.5l-1-2.5l-2.5-1l-2.5,1l-1,2.5l1,2.5l2.5,1l2.5-1L1078.1,548.5z"/>
	<path class="st8" d="M1052.7,546.5l-0.9-2.3l-2.3-0.9l-2.3,0.9l-0.9,2.3l0.9,2.3l2.3,0.9l2.3-0.9L1052.7,546.5z"/>
	<path class="st8" d="M1104.1,522.5l-1.1-2.5l-2.5-1.1l-2.5,1.1l-1.1,2.5l1.1,2.5l2.5,1.1l2.5-1.1L1104.1,522.5z"/>
	<path class="st8" d="M1052.3,529.5l-0.8-2l-2-0.8l-2,0.8l-0.8,2l0.8,2l2,0.8l2-0.8L1052.3,529.5z"/>
	<path class="st8" d="M996.2,518.5l-0.8-1.9l-1.9-0.8l-1.9,0.8l-0.8,1.9l0.8,1.9l1.9,0.8l1.9-0.8L996.2,518.5z"/>
	<path class="st8" d="M1035.8,523.5l-1-2.4l-2.4-1l-2.4,1l-1,2.4l1,2.4l2.4,1l2.4-1L1035.8,523.5z"/>
	<path class="st8" d="M1086,561.5l-1-2.5l-2.5-1l-2.5,1l-1,2.5l1,2.5l2.5,1l2.5-1L1086,561.5z"/>
	<path class="st8" d="M1082.7,526.5l-0.9-2.3l-2.3-0.9l-2.3,0.9l-0.9,2.3l0.9,2.3l2.3,0.9l2.3-0.9L1082.7,526.5z"/>
	<path class="st8" d="M1115.6,520.5l-0.9-2.2l-2.2-0.9l-2.2,0.9l-0.9,2.2l0.9,2.2l2.2,0.9l2.2-0.9L1115.6,520.5z"/>
	<path class="st8" d="M1063.3,521.5l-1.1-2.7l-2.7-1.1l-2.7,1.1l-1.1,2.7l1.1,2.7l2.7,1.1l2.7-1.1L1063.3,521.5z"/>
	<path class="st8" d="M1082,523.5l-1-2.5l-2.5-1l-2.5,1l-1,2.5l1,2.5l2.5,1l2.5-1L1082,523.5z"/>
	<path class="st8" d="M1114.2,525.5l-0.8-1.9l-1.9-0.8l-1.9,0.8l-0.8,1.9l0.8,1.9l1.9,0.8l1.9-0.8L1114.2,525.5z"/>
	<path class="st8" d="M1080.2,515.5l-1.1-2.6l-2.6-1.1l-2.6,1.1l-1.1,2.6l1.1,2.6l2.6,1.1l2.6-1.1L1080.2,515.5z"/>
	<path class="st8" d="M1154.7,551.5l-0.9-2.3l-2.3-0.9l-2.3,0.9l-0.9,2.3l0.9,2.3l2.3,0.9l2.3-0.9L1154.7,551.5z"/>
	<path class="st8" d="M1012.1,507.5l-0.8-1.8l-1.8-0.8l-1.8,0.8l-0.8,1.8l0.8,1.8l1.8,0.8l1.8-0.8L1012.1,507.5z"/>
	<path class="st8" d="M1017.7,505.5l-0.9-2.3l-2.3-0.9l-2.3,0.9l-0.9,2.3l0.9,2.3l2.3,0.9l2.3-0.9L1017.7,505.5z"/>
	<path class="st8" d="M999,531.5l-1.3-2.2h-2.5l-1.3,2.2l1.3,2.2h2.5L999,531.5z"/>
	<path class="st8" d="M1105.7,521.5l-0.9-2.3l-2.3-0.9l-2.3,0.9l-0.9,2.3l0.9,2.3l2.3,0.9l2.3-0.9L1105.7,521.5z"/>
	<path class="st8" d="M992.6,497.5l-0.9-2.2l-2.2-0.9l-2.2,0.9l-0.9,2.2l0.9,2.2l2.2,0.9l2.2-0.9L992.6,497.5z"/>
	<path class="st8" d="M1006.8,518.5l-0.8-2.5l-2.1-1.6h-2.6L999,516l-0.8,2.5l0.8,2.5l2.1,1.6h2.6l2.1-1.6L1006.8,518.5z"/>
	<path class="st8" d="M1079.5,534.5l-1.2-2.8l-2.8-1.2l-2.8,1.2l-1.2,2.8l1.2,2.8l2.8,1.2l2.8-1.2L1079.5,534.5z"/>
	<path class="st8" d="M1097.8,535.5l-1-3.1l-2.7-1.9h-3.3l-2.7,1.9l-1,3.1l1,3.1l2.7,1.9h3.3l2.7-1.9L1097.8,535.5z"/>
	<path class="st8" d="M1088,511.5l-1-2.4l-2.4-1l-2.4,1l-1,2.4l1,2.4l2.4,1l2.4-1L1088,511.5z"/>
	<path class="st8" d="M1024.7,521.5l-0.8-2.5l-2.1-1.5h-2.6l-2.1,1.5l-0.8,2.5l0.8,2.5l2.1,1.5h2.6l2.1-1.5L1024.7,521.5z"/>
	<path class="st8" d="M1093.2,525.5l-1.1-2.6l-2.6-1.1l-2.6,1.1l-1.1,2.6l1.1,2.6l2.6,1.1l2.6-1.1L1093.2,525.5z"/>
	<path class="st8" d="M988.1,511.5l-0.8-1.8l-1.8-0.8l-1.8,0.8l-0.8,1.8l0.8,1.8l1.8,0.8l1.8-0.8L988.1,511.5z"/>
	<path class="st8" d="M961.4,552.5l-0.9-2.1l-2.1-0.9l-2.1,0.9l-0.9,2.1l0.9,2.1l2.1,0.9l2.1-0.9L961.4,552.5z"/>
	<path class="st8" d="M1156.6,518.5l-1.2-2.9l-2.9-1.2l-2.9,1.2l-1.2,2.9l1.2,2.9l2.9,1.2l2.9-1.2L1156.6,518.5z"/>
	<path class="st8" d="M1108.5,547.5l-1.2-2.9l-2.9-1.2l-2.9,1.2l-1.2,2.9l1.2,2.9l2.9,1.2l2.9-1.2L1108.5,547.5z"/>
	<path class="st8" d="M1169.4,595.5l-1.1-2.8l-2.8-1.1l-2.8,1.1l-1.1,2.8l1.1,2.8l2.8,1.1l2.8-1.1L1169.4,595.5z"/>
	<path class="st8" d="M1129.2,540.5l-1.1-2.6l-2.6-1.1l-2.6,1.1l-1.1,2.6l1.1,2.6l2.6,1.1l2.6-1.1L1129.2,540.5z"/>
	<path class="st8" d="M1070.5,499.5l-0.9-2.2l-2.2-0.9l-2.2,0.9l-0.9,2.2l0.9,2.2l2.2,0.9l2.2-0.9L1070.5,499.5z"/>
	<path class="st8" d="M1063.9,512.5l-0.9-3.2l-2.3-2.3l-3.2-0.9l-3.2,0.9l-2.3,2.3l-0.9,3.2l0.9,3.2l2.3,2.3l3.2,0.9l3.2-0.9
		l2.3-2.3L1063.9,512.5z"/>
</g>
<line class="st9" x1="813" y1="524.8" x2="1348" y2="519.9"/>
<line class="st7" x1="1080.5" y1="790" x2="1080.5" y2="255"/>
<line class="st7" x1="813" y1="522.5" x2="1348" y2="522.5"/>
<g transform="translate(1448,519.9006)">
	<text transform="matrix(1 0 0 1 -100 5.5)" class="st8 st1 st2">ISA: 0.02</text>
</g>
<g transform="translate(1180.5011,252.25)">
	<text transform="matrix(1 0 0 1 -150.0107 -4)" class="st1 st10">dlPFC</text>
</g>
<g>
	<text transform="matrix(1 0 0 1 487.5855 855.0101)" class="st1 st2">Stronger for Orientation Rule</text>
	<text transform="matrix(1 0 0 1 324.1754 855.0101)" class="st1 st2">Stronger for Color Rule</text>
	<g>
		<line class="st11" x1="413.7" y1="871" x2="378.6" y2="871"/>
		<g>
			<line class="st12" x1="413.7" y1="871" x2="387.4" y2="871"/>
			<g>
				<polygon points="389.4,868.1 378.6,871 389.4,873.9 				"/>
			</g>
		</g>
	</g>
	<g>
		<line class="st11" x1="559.5" y1="871" x2="594.6" y2="871"/>
		<g>
			<line class="st12" x1="559.5" y1="871" x2="585.8" y2="871"/>
			<g>
				<polygon points="583.8,873.9 594.6,871 583.8,868.1 				"/>
			</g>
		</g>
	</g>
</g>
<g>
	<text transform="matrix(1 0 0 1 1091.4856 855.0103)" class="st1 st2">Stronger for Orientation Rule</text>
	<text transform="matrix(1 0 0 1 928.0755 855.0103)" class="st1 st2">Stronger for Color Rule</text>
	<g>
		<line class="st11" x1="1017.6" y1="871" x2="982.5" y2="871"/>
		<g>
			<line class="st12" x1="1017.6" y1="871" x2="991.3" y2="871"/>
			<g>
				<polygon points="993.3,868.1 982.5,871 993.3,873.9 				"/>
			</g>
		</g>
	</g>
	<g>
		<line class="st11" x1="1163.4" y1="871" x2="1198.5" y2="871"/>
		<g>
			<line class="st12" x1="1163.4" y1="871" x2="1189.7" y2="871"/>
			<g>
				<polygon points="1187.7,873.9 1198.5,871 1187.7,868.1 				"/>
			</g>
		</g>
	</g>
</g>
<text transform="matrix(4.489659e-011 -1 1 4.489659e-011 133.8208 515.4541)" class="st1 st2">Stronger for Orientation Rule</text>
<text transform="matrix(4.489659e-011 -1 1 4.489659e-011 133.8208 678.8643)" class="st1 st2">Stronger for Color Rule</text>
<g>
	<line class="st11" x1="149.8" y1="589.3" x2="149.8" y2="624.4"/>
	<g>
		<line class="st12" x1="149.8" y1="589.3" x2="149.8" y2="615.6"/>
		<g>
			<polygon points="146.9,613.6 149.8,624.4 152.7,613.6 			"/>
		</g>
	</g>
</g>
<g>
	<line class="st11" x1="149.8" y1="443.5" x2="149.8" y2="408.4"/>
	<g>
		<line class="st12" x1="149.8" y1="443.5" x2="149.8" y2="417.2"/>
		<g>
			<polygon points="152.7,419.2 149.8,408.4 146.9,419.2 			"/>
		</g>
	</g>
</g>
</svg>
