<?xml version="1.0" encoding="utf-8"?>
<!-- Generator: Adobe Illustrator 19.2.1, SVG Export Plug-In . SVG Version: 6.00 Build 0)  -->
<svg version="1.1" id="Layer_1" xmlns="http://www.w3.org/2000/svg" xmlns:xlink="http://www.w3.org/1999/xlink" x="0px" y="0px"
	 viewBox="0 0 1600 862" style="enable-background:new 0 0 1600 862;" xml:space="preserve">
<style type="text/css">
	.st0{fill:none;stroke:#000000;stroke-width:1.3333;stroke-linejoin:bevel;stroke-miterlimit:1;stroke-dasharray:1,3;}
	.st1{fill:none;stroke:#262626;stroke-linecap:square;stroke-miterlimit:10;stroke-opacity:0.149;}
	.st2{fill:none;stroke:#262626;stroke-linecap:square;stroke-miterlimit:10;}
	.st3{fill:#262626;}
	.st4{font-family:'MyriadPro-Regular';}
	.st5{font-size:13px;}
	.st6{fill:none;stroke:#66C2A5;stroke-linecap:square;stroke-miterlimit:10;}
	.st7{fill:#66C2A5;}
	.st8{fill:none;stroke:#7570B3;stroke-linecap:square;stroke-miterlimit:10;}
	.st9{fill:#7570B3;}
	.st10{font-size:14px;}
	.st11{fill:none;stroke:#000000;stroke-width:2;stroke-miterlimit:10;}
	.st12{font-size:24px;}
	.st13{font-size:36px;}
</style>
<line class="st0" x1="570.6" y1="780" x2="570.6" y2="45.1"/>
<line class="st1" x1="781" y1="735.7" x2="220" y2="735.7"/>
<line class="st1" x1="781" y1="627.1" x2="220" y2="627.1"/>
<line class="st1" x1="781" y1="518.6" x2="220" y2="518.6"/>
<line class="st1" x1="781" y1="410" x2="220" y2="410"/>
<line class="st1" x1="781" y1="301.4" x2="220" y2="301.4"/>
<line class="st1" x1="781" y1="182.9" x2="220" y2="182.9"/>
<line class="st1" x1="781" y1="74.3" x2="220" y2="74.3"/>
<line class="st2" x1="220" y1="790" x2="781" y2="790"/>
<line class="st2" x1="220" y1="790" x2="220" y2="782.4"/>
<line class="st2" x1="290.1" y1="790" x2="290.1" y2="782.4"/>
<line class="st2" x1="360.3" y1="790" x2="360.3" y2="782.4"/>
<line class="st2" x1="430.4" y1="790" x2="430.4" y2="782.4"/>
<line class="st2" x1="500.5" y1="790" x2="500.5" y2="782.4"/>
<line class="st2" x1="570.6" y1="790" x2="570.6" y2="782.4"/>
<line class="st2" x1="640.8" y1="790" x2="640.8" y2="782.4"/>
<line class="st2" x1="710.9" y1="790" x2="710.9" y2="782.4"/>
<line class="st2" x1="781" y1="790" x2="781" y2="782.4"/>
<text transform="matrix(1 0 0 1 205 803.3333)" class="st3 st4 st5">-0.05</text>
<text transform="matrix(1 0 0 1 275.125 803.3333)" class="st3 st4 st5">-0.04</text>
<text transform="matrix(1 0 0 1 345.25 803.3333)" class="st3 st4 st5">-0.03</text>
<text transform="matrix(1 0 0 1 415.375 803.3333)" class="st3 st4 st5">-0.02</text>
<text transform="matrix(1 0 0 1 485.5 803.3333)" class="st3 st4 st5">-0.01</text>
<text transform="matrix(1 0 0 1 566.625 803.3333)" class="st3 st4 st5">0</text>
<text transform="matrix(1 0 0 1 627.75 803.3333)" class="st3 st4 st5">0.01</text>
<text transform="matrix(1 0 0 1 697.875 803.3333)" class="st3 st4 st5">0.02</text>
<text transform="matrix(1 0 0 1 768 803.3333)" class="st3 st4 st5">0.03</text>
<text transform="matrix(1 0 0 1 110.9186 741.2143)" class="st3 st4 st5">Rule@Repetition5+</text>
<text transform="matrix(1 0 0 1 118.6667 632.6429)" class="st3 st4 st5">Rule@Repetition4</text>
<text transform="matrix(1 0 0 1 118.6667 524.0714)" class="st3 st4 st5">Rule@Repetition3</text>
<text transform="matrix(1 0 0 1 118.6667 415.5)" class="st3 st4 st5">Rule@Repetition2</text>
<text transform="matrix(1 0 0 1 118.6667 306.9286)" class="st3 st4 st5">Rule@Repetition1</text>
<text transform="matrix(1 0 0 1 106.7975 188.3571)" class="st3 st4 st5">Rule@Previous Error</text>
<text transform="matrix(1 0 0 1 88.3508 79.7857)" class="st3 st4 st5">Rule@No Previous Error</text>
<line class="st6" x1="563.5" y1="735.7" x2="659.7" y2="735.7"/>
<line class="st6" x1="378.6" y1="627.1" x2="698.4" y2="627.1"/>
<line class="st6" x1="416.8" y1="518.6" x2="770.5" y2="518.6"/>
<line class="st6" x1="305.9" y1="410" x2="655.9" y2="410"/>
<line class="st6" x1="368.1" y1="301.4" x2="726.5" y2="301.4"/>
<line class="st6" x1="286.9" y1="182.9" x2="624" y2="182.9"/>
<line class="st6" x1="563.3" y1="74.3" x2="649.8" y2="74.3"/>
<path class="st7" d="M612.4,735.5l-1.1-3.4l-2.9-2.1h-3.6l-2.9,2.1l-1.1,3.4l1.1,3.4l2.9,2.1h3.6l2.9-2.1L612.4,735.5z"/>
<path class="st7" d="M542.4,627.5l-1.1-3.4l-2.9-2.1h-3.6l-2.9,2.1l-1.1,3.4l1.1,3.4l2.9,2.1h3.6l2.9-2.1L542.4,627.5z"/>
<path class="st7" d="M606.4,518.5l-1.1-3.4l-2.9-2.1h-3.6l-2.9,2.1l-1.1,3.4l1.1,3.4l2.9,2.1h3.6l2.9-2.1L606.4,518.5z"/>
<path class="st7" d="M489.4,409.5l-1.1-3.4l-2.9-2.1h-3.6l-2.9,2.1l-1.1,3.4l1.1,3.4l2.9,2.1h3.6l2.9-2.1L489.4,409.5z"/>
<path class="st7" d="M556.4,301.5l-1.1-3.4l-2.9-2.1h-3.6l-2.9,2.1l-1.1,3.4l1.1,3.4l2.9,2.1h3.6l2.9-2.1L556.4,301.5z"/>
<path class="st7" d="M467.4,182.5l-1.1-3.4l-2.9-2.1h-3.6l-2.9,2.1l-1.1,3.4l1.1,3.4l2.9,2.1h3.6l2.9-2.1L467.4,182.5z"/>
<path class="st7" d="M611.4,74.5l-1.1-3.4l-2.9-2.1h-3.6l-2.9,2.1l-1.1,3.4l1.1,3.4l2.9,2.1h3.6l2.9-2.1L611.4,74.5z"/>
<line class="st6" x1="461.4" y1="182.9" x2="605.3" y2="74.3"/>
<path class="st6" d="M606.1,735.7l-70-108.6l64.2-108.6L483.6,410l67.1-108.6"/>
<line class="st8" x1="570.4" y1="735.7" x2="638.4" y2="735.7"/>
<line class="st8" x1="360.9" y1="627.1" x2="637.6" y2="627.1"/>
<line class="st8" x1="435.1" y1="518.6" x2="695.1" y2="518.6"/>
<line class="st8" x1="435.6" y1="410" x2="707" y2="410"/>
<line class="st8" x1="277.5" y1="301.4" x2="565.2" y2="301.4"/>
<line class="st8" x1="476.2" y1="182.9" x2="681.8" y2="182.9"/>
<line class="st8" x1="560.3" y1="74.3" x2="630.5" y2="74.3"/>
<path class="st9" d="M608.4,735.5l-1.1-3.4l-2.9-2.1h-3.6l-2.9,2.1l-1.1,3.4l1.1,3.4l2.9,2.1h3.6l2.9-2.1L608.4,735.5z"/>
<path class="st9" d="M503.4,627.5l-1.1-3.4l-2.9-2.1h-3.6l-2.9,2.1l-1.1,3.4l1.1,3.4l2.9,2.1h3.6l2.9-2.1L503.4,627.5z"/>
<path class="st9" d="M568.4,518.5l-1.1-3.4l-2.9-2.1h-3.6l-2.9,2.1l-1.1,3.4l1.1,3.4l2.9,2.1h3.6l2.9-2.1L568.4,518.5z"/>
<path class="st9" d="M582.4,409.5l-1.1-3.4l-2.9-2.1h-3.6l-2.9,2.1l-1.1,3.4l1.1,3.4l2.9,2.1h3.6l2.9-2.1L582.4,409.5z"/>
<path class="st9" d="M428.4,301.5l-1.1-3.4l-2.9-2.1h-3.6l-2.9,2.1l-1.1,3.4l1.1,3.4l2.9,2.1h3.6l2.9-2.1L428.4,301.5z"/>
<path class="st9" d="M587.4,182.5l-1.1-3.4l-2.9-2.1h-3.6l-2.9,2.1l-1.1,3.4l1.1,3.4l2.9,2.1h3.6l2.9-2.1L587.4,182.5z"/>
<path class="st9" d="M600.4,74.5l-1.1-3.4l-2.9-2.1h-3.6l-2.9,2.1l-1.1,3.4l1.1,3.4l2.9,2.1h3.6l2.9-2.1L600.4,74.5z"/>
<line class="st8" x1="581.9" y1="182.9" x2="594.6" y2="74.3"/>
<path class="st8" d="M602.5,735.7L497,627.1l65.7-108.6L576.9,410L422.3,301.4"/>
<line class="st1" x1="1470" y1="735.7" x2="910" y2="735.7"/>
<line class="st1" x1="1470" y1="627.1" x2="910" y2="627.1"/>
<line class="st1" x1="1470" y1="518.6" x2="910" y2="518.6"/>
<line class="st1" x1="1470" y1="410" x2="910" y2="410"/>
<line class="st1" x1="1470" y1="301.4" x2="910" y2="301.4"/>
<line class="st1" x1="1470" y1="182.9" x2="910" y2="182.9"/>
<line class="st1" x1="1470" y1="74.3" x2="910" y2="74.3"/>
<line class="st2" x1="910" y1="790" x2="1470" y2="790"/>
<line class="st2" x1="910" y1="790" x2="910" y2="782.4"/>
<line class="st2" x1="990" y1="790" x2="990" y2="782.4"/>
<line class="st2" x1="1070" y1="790" x2="1070" y2="782.4"/>
<line class="st2" x1="1150" y1="790" x2="1150" y2="782.4"/>
<line class="st2" x1="1230" y1="790" x2="1230" y2="782.4"/>
<line class="st2" x1="1310" y1="790" x2="1310" y2="782.4"/>
<line class="st2" x1="1390" y1="790" x2="1390" y2="782.4"/>
<line class="st2" x1="1470" y1="790" x2="1470" y2="782.4"/>
<text transform="matrix(1 0 0 1 906 803.3333)" class="st3 st4 st5">0</text>
<text transform="matrix(1 0 0 1 977 803.3333)" class="st3 st4 st5">0.02</text>
<text transform="matrix(1 0 0 1 1057 803.3333)" class="st3 st4 st5">0.04</text>
<text transform="matrix(1 0 0 1 1137 803.3333)" class="st3 st4 st5">0.06</text>
<text transform="matrix(1 0 0 1 1217 803.3333)" class="st3 st4 st5">0.08</text>
<text transform="matrix(1 0 0 1 1300.5 803.3333)" class="st3 st4 st5">0.1</text>
<text transform="matrix(1 0 0 1 1377 803.3333)" class="st3 st4 st5">0.12</text>
<text transform="matrix(1 0 0 1 1457 803.3333)" class="st3 st4 st5">0.14</text>
<text transform="matrix(1 0 0 1 800.9186 741.2143)" class="st3 st4 st5">Rule@Repetition5+</text>
<text transform="matrix(1 0 0 1 808.6667 632.6429)" class="st3 st4 st5">Rule@Repetition4</text>
<text transform="matrix(1 0 0 1 808.6667 524.0714)" class="st3 st4 st5">Rule@Repetition3</text>
<text transform="matrix(1 0 0 1 808.6667 415.5)" class="st3 st4 st5">Rule@Repetition2</text>
<text transform="matrix(1 0 0 1 808.6667 306.9286)" class="st3 st4 st5">Rule@Repetition1</text>
<text transform="matrix(1 0 0 1 796.7975 188.3571)" class="st3 st4 st5">Rule@Previous Error</text>
<text transform="matrix(1 0 0 1 778.3503 79.7857)" class="st3 st4 st5">Rule@No Previous Error</text>
<line class="st6" x1="1025.1" y1="735.7" x2="1071.1" y2="735.7"/>
<line class="st6" x1="1202.9" y1="627.1" x2="1367.4" y2="627.1"/>
<line class="st6" x1="1228.5" y1="518.6" x2="1402.2" y2="518.6"/>
<line class="st6" x1="1204.6" y1="410" x2="1363.4" y2="410"/>
<line class="st6" x1="1235.9" y1="301.4" x2="1399" y2="301.4"/>
<line class="st6" x1="1174.6" y1="182.9" x2="1321.1" y2="182.9"/>
<line class="st6" x1="1016.8" y1="74.3" x2="1064.2" y2="74.3"/>
<path class="st7" d="M1053.4,735.5l-1.1-3.4l-2.9-2.1h-3.6l-2.9,2.1l-1.1,3.4l1.1,3.4l2.9,2.1h3.6l2.9-2.1L1053.4,735.5z"/>
<path class="st7" d="M1283.4,627.5l-1.1-3.4l-2.9-2.1h-3.6l-2.9,2.1l-1.1,3.4l1.1,3.4l2.9,2.1h3.6l2.9-2.1L1283.4,627.5z"/>
<path class="st7" d="M1313.4,518.5l-1.1-3.4l-2.9-2.1h-3.6l-2.9,2.1l-1.1,3.4l1.1,3.4l2.9,2.1h3.6l2.9-2.1L1313.4,518.5z"/>
<path class="st7" d="M1285.4,409.5l-1.1-3.4l-2.9-2.1h-3.6l-2.9,2.1l-1.1,3.4l1.1,3.4l2.9,2.1h3.6l2.9-2.1L1285.4,409.5z"/>
<path class="st7" d="M1321.4,301.5l-1.1-3.4l-2.9-2.1h-3.6l-2.9,2.1l-1.1,3.4l1.1,3.4l2.9,2.1h3.6l2.9-2.1L1321.4,301.5z"/>
<path class="st7" d="M1249.4,182.5l-1.1-3.4l-2.9-2.1h-3.6l-2.9,2.1l-1.1,3.4l1.1,3.4l2.9,2.1h3.6l2.9-2.1L1249.4,182.5z"/>
<path class="st7" d="M1043.4,74.5l-1.1-3.4l-2.9-2.1h-3.6l-2.9,2.1l-1.1,3.4l1.1,3.4l2.9,2.1h3.6l2.9-2.1L1043.4,74.5z"/>
<line class="st6" x1="1243.6" y1="182.9" x2="1037.4" y2="74.3"/>
<path class="st6" d="M1047.2,735.7l230.4-108.6l29.5-108.6L1279.7,410l35.4-108.6"/>
<line class="st8" x1="1052.3" y1="735.7" x2="1088.9" y2="735.7"/>
<line class="st8" x1="1276.1" y1="627.1" x2="1416" y2="627.1"/>
<line class="st8" x1="1234" y1="518.6" x2="1364.4" y2="518.6"/>
<line class="st8" x1="1264.3" y1="410" x2="1403.9" y2="410"/>
<line class="st8" x1="1305" y1="301.4" x2="1454.9" y2="301.4"/>
<line class="st8" x1="1177.5" y1="182.9" x2="1281" y2="182.9"/>
<line class="st8" x1="1055.2" y1="74.3" x2="1094.5" y2="74.3"/>
<path class="st9" d="M1075.4,735.5l-1.1-3.4l-2.9-2.1h-3.6l-2.9,2.1l-1.1,3.4l1.1,3.4l2.9,2.1h3.6l2.9-2.1L1075.4,735.5z"/>
<path class="st9" d="M1349.4,627.5l-1.1-3.4l-2.9-2.1h-3.6l-2.9,2.1l-1.1,3.4l1.1,3.4l2.9,2.1h3.6l2.9-2.1L1349.4,627.5z"/>
<path class="st9" d="M1300.4,518.5l-1.1-3.4l-2.9-2.1h-3.6l-2.9,2.1l-1.1,3.4l1.1,3.4l2.9,2.1h3.6l2.9-2.1L1300.4,518.5z"/>
<path class="st9" d="M1335.4,409.5l-1.1-3.4l-2.9-2.1h-3.6l-2.9,2.1l-1.1,3.4l1.1,3.4l2.9,2.1h3.6l2.9-2.1L1335.4,409.5z"/>
<path class="st9" d="M1382.4,301.5l-1.1-3.4l-2.9-2.1h-3.6l-2.9,2.1l-1.1,3.4l1.1,3.4l2.9,2.1h3.6l2.9-2.1L1382.4,301.5z"/>
<path class="st9" d="M1230.4,182.5l-1.1-3.4l-2.9-2.1h-3.6l-2.9,2.1l-1.1,3.4l1.1,3.4l2.9,2.1h3.6l2.9-2.1L1230.4,182.5z"/>
<path class="st9" d="M1079.4,74.5l-1.1-3.4l-2.9-2.1h-3.6l-2.9,2.1l-1.1,3.4l1.1,3.4l2.9,2.1h3.6l2.9-2.1L1079.4,74.5z"/>
<line class="st8" x1="1224.7" y1="182.9" x2="1073.6" y2="74.3"/>
<path class="st8" d="M1069.8,735.7L1343,627.1l-48.1-108.6l34.5-108.6l47.1-108.6"/>
<text transform="matrix(1 0 0 1 573.9028 825.0352)" class="st4 st10">Stronger for Orientation Rule</text>
<text transform="matrix(1 0 0 1 430.4927 825.0352)" class="st4 st10">Stronger for Color Rule</text>
<g>
	<line x1="425.3" y1="821" x2="390.1" y2="821"/>
	<g>
		<line class="st11" x1="425.3" y1="821" x2="399" y2="821"/>
		<g>
			<polygon points="401,818.1 390.1,821 401,823.9 			"/>
		</g>
	</g>
</g>
<g>
	<line x1="745.8" y1="821" x2="781" y2="821"/>
	<g>
		<line class="st11" x1="745.8" y1="821" x2="772.1" y2="821"/>
		<g>
			<polygon points="770.2,823.9 781,821 770.2,818.1 			"/>
		</g>
	</g>
</g>
<g transform="translate(500.5005,347.25)">
	<text transform="matrix(1 0 0 1 -115.8107 -308.25)" class="st4 st12">Change in Firing Rate Between Rules</text>
</g>
<g transform="translate(500.5005,347.25)">
	<text transform="matrix(1 0 0 1 574.2938 -308.25)" class="st4 st12">Absolute Change in Firing Rate</text>
</g>
<text transform="matrix(1 0 0 1 806 853)" class="st4 st13">dLPFC</text>
</svg>
