<?xml version="1.0" encoding="utf-8"?>
<!-- Generator: Adobe Illustrator 19.2.1, SVG Export Plug-In . SVG Version: 6.00 Build 0)  -->
<svg version="1.1" id="Layer_1" xmlns="http://www.w3.org/2000/svg" xmlns:xlink="http://www.w3.org/1999/xlink" x="0px" y="0px"
	 viewBox="0 0 1600 1083" style="enable-background:new 0 0 1600 1083;" xml:space="preserve">
<style type="text/css">
	.st0{font-family:'ArialMT';}
	.st1{font-size:13px;}
	.st2{fill:none;stroke:#000000;stroke-linecap:square;stroke-miterlimit:10;}
	.st3{opacity:0.7;}
	.st4{fill:#66C2A5;}
	.st5{fill:none;stroke:#66C2A5;stroke-linecap:square;stroke-miterlimit:10;}
	.st6{fill:none;stroke:#000000;stroke-width:1.3333;stroke-linecap:square;stroke-miterlimit:10;}
	.st7{fill:#7570B3;}
	.st8{fill:none;stroke:#7570B3;stroke-linecap:square;stroke-miterlimit:10;}
	.st9{font-size:36px;}
	.st10{opacity:0.7;fill:none;stroke:#7570B3;stroke-linecap:square;stroke-miterlimit:10;}
	.st11{fill:none;}
	.st12{fill:none;stroke:#000000;stroke-width:2;stroke-miterlimit:10;}
</style>
<g transform="translate(475.5002,813.6667)">
	<text transform="matrix(1 0 0 1 -48 16)" class="st0 st1">Previous Error</text>
</g>
<line class="st2" x1="208" y1="790" x2="743" y2="790"/>
<g transform="translate(208,795.3334)">
	<text transform="matrix(1 0 0 1 -6 14)" class="st0 st1">-1</text>
</g>
<g transform="translate(261.5,795.3334)">
	<text transform="matrix(1 0 0 1 -11.5 14)" class="st0 st1">-0.8</text>
</g>
<g transform="translate(315,795.3334)">
	<text transform="matrix(1 0 0 1 -11.5 14)" class="st0 st1">-0.6</text>
</g>
<g transform="translate(368.5,795.3334)">
	<text transform="matrix(1 0 0 1 -11.5 14)" class="st0 st1">-0.4</text>
</g>
<g transform="translate(422,795.3334)">
	<text transform="matrix(1 0 0 1 -11.5 14)" class="st0 st1">-0.2</text>
</g>
<g transform="translate(475.5,795.3334)">
	<text transform="matrix(1 0 0 1 -4 14)" class="st0 st1">0</text>
</g>
<g transform="translate(529,795.3334)">
	<text transform="matrix(1 0 0 1 -9.5 14)" class="st0 st1">0.2</text>
</g>
<g transform="translate(582.5,795.3334)">
	<text transform="matrix(1 0 0 1 -9.5 14)" class="st0 st1">0.4</text>
</g>
<g transform="translate(636,795.3334)">
	<text transform="matrix(1 0 0 1 -9.5 14)" class="st0 st1">0.6</text>
</g>
<g transform="translate(689.5,795.3334)">
	<text transform="matrix(1 0 0 1 -9.5 14)" class="st0 st1">0.8</text>
</g>
<g transform="translate(743,795.3334)">
	<text transform="matrix(1 0 0 1 -4 14)" class="st0 st1">1</text>
</g>
<g transform="translate(175.6667,522.4998) rotate(-90)">
	<text transform="matrix(1 0 0 1 -60.0002 -4)" class="st0 st1">No Previous Error</text>
</g>
<line class="st2" x1="208" y1="790" x2="208" y2="255"/>
<g transform="translate(202.6667,790)">
	<text transform="matrix(1 0 0 1 -12 5.5)" class="st0 st1">-1</text>
</g>
<g transform="translate(202.6667,736.5)">
	<text transform="matrix(1 0 0 1 -23 5.5)" class="st0 st1">-0.8</text>
</g>
<g transform="translate(202.6667,683)">
	<text transform="matrix(1 0 0 1 -23 5.5)" class="st0 st1">-0.6</text>
</g>
<g transform="translate(202.6667,629.5)">
	<text transform="matrix(1 0 0 1 -23 5.5)" class="st0 st1">-0.4</text>
</g>
<g transform="translate(202.6667,576)">
	<text transform="matrix(1 0 0 1 -23 5.5)" class="st0 st1">-0.2</text>
</g>
<g transform="translate(202.6667,522.5)">
	<text transform="matrix(1 0 0 1 -8 5.5)" class="st0 st1">0</text>
</g>
<g transform="translate(202.6667,469)">
	<text transform="matrix(1 0 0 1 -19 5.5)" class="st0 st1">0.2</text>
</g>
<g transform="translate(202.6667,415.5)">
	<text transform="matrix(1 0 0 1 -19 5.5)" class="st0 st1">0.4</text>
</g>
<g transform="translate(202.6667,362)">
	<text transform="matrix(1 0 0 1 -19 5.5)" class="st0 st1">0.6</text>
</g>
<g transform="translate(202.6667,308.5)">
	<text transform="matrix(1 0 0 1 -19 5.5)" class="st0 st1">0.8</text>
</g>
<g transform="translate(202.6667,255)">
	<text transform="matrix(1 0 0 1 -8 5.5)" class="st0 st1">1</text>
</g>
<g class="st3">
	<path class="st4" d="M496.2,560.5l-1.1-2.6l-2.6-1.1l-2.6,1.1l-1.1,2.6l1.1,2.6l2.6,1.1l2.6-1.1L496.2,560.5z"/>
	<path class="st4" d="M496,533.5l-1-2.5l-2.5-1l-2.5,1l-1,2.5l1,2.5l2.5,1l2.5-1L496,533.5z"/>
	<path class="st4" d="M484.8,511.5l-1-3.1l-2.7-1.9h-3.3l-2.7,1.9l-1,3.1l1,3.1l2.7,1.9h3.3l2.7-1.9L484.8,511.5z"/>
	<path class="st4" d="M527.1,508.5l-1.1-3.3l-2.8-2h-3.4l-2.8,2l-1.1,3.3l1.1,3.3l2.8,2h3.4l2.8-2L527.1,508.5z"/>
	<path class="st4" d="M508.2,510.5l-1.1-3.3l-2.8-2.1h-3.5l-2.8,2.1l-1.1,3.3l1.1,3.3l2.8,2.1h3.5l2.8-2.1L508.2,510.5z"/>
	<path class="st4" d="M446.3,527.5l-0.9-2.8L443,523H440l-2.4,1.7l-0.9,2.8l0.9,2.8l2.4,1.7h2.9l2.4-1.7L446.3,527.5z"/>
	<path class="st4" d="M458.1,534.5l-0.9-2.7l-2.3-1.7h-2.8l-2.3,1.7l-0.9,2.7l0.9,2.7l2.3,1.7h2.8l2.3-1.7L458.1,534.5z"/>
	<path class="st4" d="M542.6,510.5l-1.2-2.9l-2.9-1.2l-2.9,1.2l-1.2,2.9l1.2,2.9l2.9,1.2l2.9-1.2L542.6,510.5z"/>
	<path class="st4" d="M497.7,522.5l-1-3.1l-2.6-1.9h-3.2l-2.6,1.9l-1,3.1l1,3.1l2.6,1.9h3.2l2.6-1.9L497.7,522.5z"/>
	<path class="st4" d="M521.3,510.5l-0.9-2.8l-2.4-1.8h-3l-2.4,1.8l-0.9,2.8l0.9,2.8l2.4,1.8h3l2.4-1.8L521.3,510.5z"/>
	<path class="st4" d="M478.8,526.5l-0.9-3.2l-2.3-2.3l-3.2-0.9l-3.2,0.9l-2.3,2.3l-0.9,3.2l0.9,3.2l2.3,2.3l3.2,0.9l3.2-0.9l2.3-2.3
		L478.8,526.5z"/>
	<path class="st4" d="M487.5,520.5l-1.2-2.8l-2.8-1.2l-2.8,1.2l-1.2,2.8l1.2,2.8l2.8,1.2l2.8-1.2L487.5,520.5z"/>
	<path class="st4" d="M479.5,518.5l-1.1-3.5l-3-2.2h-3.7l-3,2.2l-1.1,3.5l1.1,3.5l3,2.2h3.7l3-2.2L479.5,518.5z"/>
	<path class="st4" d="M481.4,515.5l-0.9-3.5l-2.5-2.5l-3.5-0.9l-3.5,0.9l-2.5,2.5l-0.9,3.5l0.9,3.5l2.5,2.5l3.5,0.9l3.5-0.9l2.5-2.5
		L481.4,515.5z"/>
	<path class="st4" d="M484.7,520.5l-0.8-3.1l-2.3-2.3l-3.1-0.8l-3.1,0.8l-2.3,2.3l-0.8,3.1l0.8,3.1l2.3,2.3l3.1,0.8l3.1-0.8l2.3-2.3
		L484.7,520.5z"/>
	<path class="st4" d="M495.1,523.5l-0.9-3.3l-2.4-2.4l-3.3-0.9l-3.3,0.9l-2.4,2.4l-0.9,3.3l0.9,3.3l2.4,2.4l3.3,0.9l3.3-0.9l2.4-2.4
		L495.1,523.5z"/>
	<path class="st4" d="M426.2,524.5l-1.1-2.6l-2.6-1.1l-2.6,1.1l-1.1,2.6l1.1,2.6l2.6,1.1l2.6-1.1L426.2,524.5z"/>
	<path class="st4" d="M504.2,516.5l-1.1-3.3l-2.8-2.1h-3.5l-2.8,2.1l-1.1,3.3l1.1,3.3l2.8,2.1h3.5l2.8-2.1L504.2,516.5z"/>
	<path class="st4" d="M463.1,518.5l-1.1-2.6l-2.6-1.1l-2.6,1.1l-1.1,2.6l1.1,2.6l2.6,1.1l2.6-1.1L463.1,518.5z"/>
	<path class="st4" d="M455,515.5l-0.9-2.6l-2.2-1.6h-2.8l-2.2,1.6l-0.9,2.6l0.9,2.6l2.2,1.6h2.8l2.2-1.6L455,515.5z"/>
	<path class="st4" d="M471.8,526.5L471,524l-2.2-1.6h-2.7L464,524l-0.8,2.5l0.8,2.5l2.2,1.6h2.7l2.2-1.6L471.8,526.5z"/>
	<path class="st4" d="M476.1,519.5l-0.9-2.7l-2.3-1.7h-2.8l-2.3,1.7l-0.9,2.7l0.9,2.7l2.3,1.7h2.8l2.3-1.7L476.1,519.5z"/>
	<path class="st4" d="M507.9,518.5l-1-3.2l-2.7-2h-3.4l-2.7,2l-1,3.2l1,3.2l2.7,2h3.4l2.7-2L507.9,518.5z"/>
	<path class="st4" d="M484.4,515.5l-1.1-3.5l-2.9-2.1h-3.6l-2.9,2.1l-1.1,3.5l1.1,3.5l2.9,2.1h3.6l2.9-2.1L484.4,515.5z"/>
	<path class="st4" d="M467.2,523.5l-0.9-2.8L464,519H461l-2.3,1.7l-0.9,2.8l0.9,2.8l2.3,1.7h2.9l2.3-1.7L467.2,523.5z"/>
	<path class="st4" d="M448.3,513.5l-1.1-2.7l-2.7-1.1l-2.7,1.1l-1.1,2.7l1.1,2.7l2.7,1.1l2.7-1.1L448.3,513.5z"/>
	<path class="st4" d="M492.2,508.5l-1.1-3.3l-2.8-2.1h-3.5l-2.8,2.1l-1.1,3.3l1.1,3.3l2.8,2.1h3.5l2.8-2.1L492.2,508.5z"/>
	<path class="st4" d="M509.1,536.5l-1-2.5l-2.5-1l-2.5,1l-1,2.5l1,2.5l2.5,1l2.5-1L509.1,536.5z"/>
	<path class="st4" d="M527.1,552.5l-1-2.5l-2.5-1l-2.5,1l-1,2.5l1,2.5l2.5,1l2.5-1L527.1,552.5z"/>
	<path class="st4" d="M418.8,533.5l-0.8-2.5l-2.1-1.5h-2.6l-2.1,1.5l-0.8,2.5l0.8,2.5l2.1,1.5h2.6l2.1-1.5L418.8,533.5z"/>
	<path class="st4" d="M482.8,513.5l-1-2.3l-2.3-1l-2.3,1l-1,2.3l1,2.3l2.3,1l2.3-1L482.8,513.5z"/>
	<path class="st4" d="M621.1,530.5l-1-2.5l-2.5-1l-2.5,1l-1,2.5l1,2.5l2.5,1l2.5-1L621.1,530.5z"/>
	<path class="st4" d="M456.4,539.5l-1.1-2.8l-2.8-1.1l-2.8,1.1l-1.1,2.8l1.1,2.8l2.8,1.1l2.8-1.1L456.4,539.5z"/>
	<path class="st4" d="M523.4,533.5l-0.9-2.9l-2.4-1.8h-3l-2.4,1.8l-0.9,2.9l0.9,2.9l2.4,1.8h3l2.4-1.8L523.4,533.5z"/>
	<path class="st4" d="M497.2,533.5l-1.1-2.6l-2.6-1.1l-2.6,1.1l-1.1,2.6l1.1,2.6l2.6,1.1l2.6-1.1L497.2,533.5z"/>
	<path class="st4" d="M444.8,529.5L444,527l-2.1-1.6h-2.6L437,527l-0.8,2.5l0.8,2.5l2.1,1.6h2.6l2.1-1.6L444.8,529.5z"/>
	<path class="st4" d="M483.4,528.5l-0.9-2.9l-2.4-1.8h-3l-2.4,1.8l-0.9,2.9l0.9,2.9l2.4,1.8h3l2.4-1.8L483.4,528.5z"/>
	<path class="st4" d="M454.8,518.5l-0.8-3.1l-2.3-2.3l-3.1-0.8l-3.1,0.8l-2.3,2.3l-0.8,3.1l0.8,3.1l2.3,2.3l3.1,0.8l3.1-0.8l2.3-2.3
		L454.8,518.5z"/>
	<path class="st4" d="M517.8,508.5l-1-3.1l-2.7-1.9h-3.3l-2.7,1.9l-1,3.1l1,3.1l2.7,1.9h3.3l2.7-1.9L517.8,508.5z"/>
	<path class="st4" d="M456.1,523.5l-0.9-2.7l-2.3-1.7h-2.8l-2.3,1.7l-0.9,2.7l0.9,2.7l2.3,1.7h2.8l2.3-1.7L456.1,523.5z"/>
	<path class="st4" d="M458.4,519.5l-1.1-2.8l-2.8-1.1l-2.8,1.1l-1.1,2.8l1.1,2.8l2.8,1.1l2.8-1.1L458.4,519.5z"/>
	<path class="st4" d="M518.3,509.5l-1.1-2.7l-2.7-1.1l-2.7,1.1l-1.1,2.7l1.1,2.7l2.7,1.1l2.7-1.1L518.3,509.5z"/>
	<path class="st4" d="M486.9,516.5l-0.8-2.6l-2.2-1.6h-2.7l-2.2,1.6l-0.8,2.6l0.8,2.6l2.2,1.6h2.7l2.2-1.6L486.9,516.5z"/>
	<path class="st4" d="M458.3,522.5l-1.1-3.4l-2.9-2.1h-3.6l-2.9,2.1l-1.1,3.4l1.1,3.4l2.9,2.1h3.6l2.9-2.1L458.3,522.5z"/>
	<path class="st4" d="M488.7,524.5l-1.2-3.6l-3.1-2.2h-3.8l-3.1,2.2l-1.2,3.6l1.2,3.6l3.1,2.2h3.8l3.1-2.2L488.7,524.5z"/>
	<path class="st4" d="M462.5,549.5l-0.9-2.1l-2.1-0.9l-2.1,0.9l-0.9,2.1l0.9,2.1l2.1,0.9l2.1-0.9L462.5,549.5z"/>
	<path class="st4" d="M444.6,532.5l-1.2-2.9l-2.9-1.2l-2.9,1.2l-1.2,2.9l1.2,2.9l2.9,1.2l2.9-1.2L444.6,532.5z"/>
	<path class="st4" d="M494.2,516.5l-0.9-3.3l-2.4-2.4l-3.3-0.9l-3.3,0.9l-2.4,2.4l-0.9,3.3l0.9,3.3l2.4,2.4l3.3,0.9l3.3-0.9l2.4-2.4
		L494.2,516.5z"/>
	<path class="st4" d="M448.4,507.5l-0.9-2.9l-2.5-1.8h-3l-2.5,1.8l-0.9,2.9l0.9,2.9l2.5,1.8h3l2.5-1.8L448.4,507.5z"/>
	<path class="st4" d="M498.6,516.5l-1.2-3.6l-3-2.2h-3.8l-3,2.2l-1.2,3.6l1.2,3.6l3,2.2h3.8l3-2.2L498.6,516.5z"/>
	<path class="st4" d="M490.1,525.5l-1.1-3.3l-2.8-2h-3.4l-2.8,2l-1.1,3.3l1.1,3.3l2.8,2h3.4l2.8-2L490.1,525.5z"/>
	<path class="st4" d="M497.1,537.5l-0.9-2.7l-2.3-1.7h-2.8l-2.3,1.7l-0.9,2.7l0.9,2.7l2.3,1.7h2.8l2.3-1.7L497.1,537.5z"/>
	<path class="st4" d="M460.8,519.5L460,517l-2.1-1.6h-2.6L453,517l-0.8,2.5l0.8,2.5l2.1,1.6h2.6l2.1-1.6L460.8,519.5z"/>
	<path class="st4" d="M482.1,526.5l-1.1-3.3l-2.8-2h-3.4l-2.8,2l-1.1,3.3l1.1,3.3l2.8,2h3.4l2.8-2L482.1,526.5z"/>
	<path class="st4" d="M469.5,516.5l-1-3l-2.5-1.8h-3.1l-2.5,1.8l-1,3l1,3l2.5,1.8h3.1l2.5-1.8L469.5,516.5z"/>
	<path class="st4" d="M486.8,521.5l-0.8-2.6l-2.2-1.6h-2.7l-2.2,1.6l-0.8,2.6l0.8,2.6l2.2,1.6h2.7l2.2-1.6L486.8,521.5z"/>
	<path class="st4" d="M473.8,527.5l-0.8-2.5l-2.1-1.5h-2.6l-2.1,1.5l-0.8,2.5l0.8,2.5l2.1,1.5h2.6l2.1-1.5L473.8,527.5z"/>
	<path class="st4" d="M455.8,512.5l-0.8-3.1l-2.3-2.3l-3.1-0.8l-3.1,0.8l-2.3,2.3l-0.8,3.1l0.8,3.1l2.3,2.3l3.1,0.8l3.1-0.8l2.3-2.3
		L455.8,512.5z"/>
	<path class="st4" d="M464.5,519.5l-1.1-3.5l-3-2.2h-3.7l-3,2.2l-1.1,3.5l1.1,3.5l3,2.2h3.7l3-2.2L464.5,519.5z"/>
	<path class="st4" d="M499.3,514.5l-0.9-2.8l-2.4-1.7h-3l-2.4,1.7l-0.9,2.8l0.9,2.8l2.4,1.7h3l2.4-1.7L499.3,514.5z"/>
	<path class="st4" d="M499,520.5l-0.9-3.3l-2.4-2.4l-3.3-0.9l-3.3,0.9l-2.4,2.4l-0.9,3.3l0.9,3.3l2.4,2.4l3.3,0.9l3.3-0.9l2.4-2.4
		L499,520.5z"/>
	<path class="st4" d="M486.6,514.5l-1.2-3.6l-3.1-2.2h-3.8l-3.1,2.2l-1.2,3.6l1.2,3.6l3.1,2.2h3.8l3.1-2.2L486.6,514.5z"/>
	<path class="st4" d="M486.2,527.5l-1.1-3.4l-2.9-2.1h-3.5l-2.9,2.1l-1.1,3.4l1.1,3.4l2.9,2.1h3.5l2.9-2.1L486.2,527.5z"/>
	<path class="st4" d="M485.4,521.5l-1.1-3.5l-3-2.2h-3.7l-3,2.2l-1.1,3.5l1.1,3.5l3,2.2h3.7l3-2.2L485.4,521.5z"/>
	<path class="st4" d="M476.2,516.5l-1.1-3.4l-2.9-2.1h-3.5l-2.9,2.1l-1.1,3.4l1.1,3.4l2.9,2.1h3.5l2.9-2.1L476.2,516.5z"/>
	<path class="st4" d="M467.4,524.5l-1.1-3.5l-3-2.2h-3.7l-3,2.2l-1.1,3.5l1.1,3.5l3,2.2h3.7l3-2.2L467.4,524.5z"/>
	<path class="st4" d="M461.8,523.5l-0.8-3.1l-2.3-2.3l-3.1-0.8l-3.1,0.8l-2.3,2.3l-0.8,3.1l0.8,3.1l2.3,2.3l3.1,0.8l3.1-0.8l2.3-2.3
		L461.8,523.5z"/>
	<path class="st4" d="M453.8,519.5l-1-3.1l-2.6-1.9h-3.3l-2.6,1.9l-1,3.1l1,3.1l2.6,1.9h3.3l2.6-1.9L453.8,519.5z"/>
	<path class="st4" d="M480.4,524.5l-0.9-2.9l-2.4-1.8h-3l-2.4,1.8l-0.9,2.9l0.9,2.9l2.4,1.8h3l2.4-1.8L480.4,524.5z"/>
	<path class="st4" d="M443.2,524.5l-1.1-2.6l-2.6-1.1l-2.6,1.1l-1.1,2.6l1.1,2.6l2.6,1.1l2.6-1.1L443.2,524.5z"/>
	<path class="st4" d="M483.1,518.5l-0.9-2.7l-2.3-1.7h-2.8l-2.3,1.7l-0.9,2.7l0.9,2.7l2.3,1.7h2.8l2.3-1.7L483.1,518.5z"/>
	<path class="st4" d="M496,524.5l-1.1-3.2l-2.8-2h-3.4l-2.8,2l-1.1,3.2l1.1,3.2l2.8,2h3.4l2.8-2L496,524.5z"/>
	<path class="st4" d="M443.3,532.5l-1.1-3.4l-2.9-2.1h-3.6l-2.9,2.1l-1.1,3.4l1.1,3.4l2.9,2.1h3.6l2.9-2.1L443.3,532.5z"/>
	<path class="st4" d="M489.6,517.5l-1.2-3.6l-3.1-2.2h-3.8l-3.1,2.2l-1.2,3.6l1.2,3.6l3.1,2.2h3.8l3.1-2.2L489.6,517.5z"/>
	<path class="st4" d="M532.1,523.5l-0.9-3.3l-2.4-2.4l-3.3-0.9l-3.3,0.9l-2.4,2.4l-0.9,3.3l0.9,3.3l2.4,2.4l3.3,0.9l3.3-0.9l2.4-2.4
		L532.1,523.5z"/>
	<path class="st4" d="M452.4,522.5l-1.1-2.7l-2.7-1.1l-2.7,1.1l-1.1,2.7l1.1,2.7l2.7,1.1l2.7-1.1L452.4,522.5z"/>
	<path class="st4" d="M476.5,524.5l-1.2-3.5l-3-2.2h-3.7l-3,2.2l-1.2,3.5l1.2,3.5l3,2.2h3.7l3-2.2L476.5,524.5z"/>
	<path class="st4" d="M399.8,526.5l-1-2.4l-2.4-1l-2.4,1l-1,2.4l1,2.4l2.4,1l2.4-1L399.8,526.5z"/>
	<path class="st4" d="M498.7,515.5l-1-3.1l-2.6-1.9h-3.2l-2.6,1.9l-1,3.1l1,3.1l2.6,1.9h3.2l2.6-1.9L498.7,515.5z"/>
	<path class="st4" d="M439.1,523.5l-0.9-2.7l-2.3-1.7h-2.9l-2.3,1.7l-0.9,2.7l0.9,2.7l2.3,1.7h2.9l2.3-1.7L439.1,523.5z"/>
	<path class="st4" d="M472.4,503.5l-0.9-2.9l-2.4-1.8h-3l-2.4,1.8l-0.9,2.9l0.9,2.9l2.4,1.8h3l2.4-1.8L472.4,503.5z"/>
	<path class="st4" d="M451.5,522.5l-0.9-2.9l-2.5-1.8H445l-2.5,1.8l-0.9,2.9l0.9,2.9l2.5,1.8h3.1l2.5-1.8L451.5,522.5z"/>
	<path class="st4" d="M501.9,481.5l-1-3.2l-2.7-2h-3.3l-2.7,2l-1,3.2l1,3.2l2.7,2h3.3l2.7-2L501.9,481.5z"/>
	<path class="st4" d="M483.7,506.5l-1-3.1l-2.6-1.9h-3.2l-2.6,1.9l-1,3.1l1,3.1l2.6,1.9h3.2l2.6-1.9L483.7,506.5z"/>
	<path class="st4" d="M521.5,515.5l-0.9-2.1l-2.1-0.9l-2.1,0.9l-0.9,2.1l0.9,2.1l2.1,0.9l2.1-0.9L521.5,515.5z"/>
	<path class="st4" d="M485.7,514.5l-0.8-3.1l-2.3-2.3l-3.1-0.8l-3.1,0.8l-2.3,2.3l-0.8,3.1l0.8,3.1l2.3,2.3l3.1,0.8l3.1-0.8l2.3-2.3
		L485.7,514.5z"/>
	<path class="st4" d="M496,517.5l-0.9-2.7l-2.3-1.6h-2.8l-2.3,1.6l-0.9,2.7l0.9,2.7l2.3,1.6h2.8l2.3-1.6L496,517.5z"/>
	<path class="st4" d="M501.8,520.5l-1-3.1l-2.7-1.9h-3.3l-2.7,1.9l-1,3.1l1,3.1l2.7,1.9h3.3l2.7-1.9L501.8,520.5z"/>
	<path class="st4" d="M499.3,504.5l-0.9-2.8l-2.4-1.8h-3l-2.4,1.8l-0.9,2.8l0.9,2.8l2.4,1.8h3l2.4-1.8L499.3,504.5z"/>
	<path class="st4" d="M413.3,520.5l-0.9-2.8l-2.4-1.7h-3l-2.4,1.7l-0.9,2.8l0.9,2.8l2.4,1.7h3l2.4-1.7L413.3,520.5z"/>
	<path class="st4" d="M500.5,524.5l-1.1-3.5l-3-2.2h-3.7l-3,2.2l-1.1,3.5l1.1,3.5l3,2.2h3.7l3-2.2L500.5,524.5z"/>
	<path class="st4" d="M458.8,518.5l-0.8-3.2l-2.3-2.3l-3.2-0.8l-3.2,0.8l-2.3,2.3l-0.8,3.2l0.8,3.2l2.3,2.3l3.2,0.8l3.2-0.8l2.3-2.3
		L458.8,518.5z"/>
	<path class="st4" d="M523.8,518.5l-1-3.1l-2.6-1.9h-3.3l-2.6,1.9l-1,3.1l1,3.1l2.6,1.9h3.3l2.6-1.9L523.8,518.5z"/>
	<path class="st4" d="M548.7,526.5l-1-3l-2.6-1.9h-3.2l-2.6,1.9l-1,3l1,3l2.6,1.9h3.2l2.6-1.9L548.7,526.5z"/>
	<path class="st4" d="M481.3,531.5l-0.9-2.8l-2.4-1.7h-3l-2.4,1.7l-0.9,2.8l0.9,2.8l2.4,1.7h3l2.4-1.7L481.3,531.5z"/>
	<path class="st4" d="M486.5,508.5l-1.2-2.9l-2.9-1.2l-2.9,1.2l-1.2,2.9l1.2,2.9l2.9,1.2l2.9-1.2L486.5,508.5z"/>
	<path class="st4" d="M487.1,530.5l-1.1-2.6l-2.6-1.1l-2.6,1.1l-1.1,2.6l1.1,2.6l2.6,1.1l2.6-1.1L487.1,530.5z"/>
	<path class="st4" d="M467.1,521.5l-1.1-3.3l-2.8-2h-3.5l-2.8,2l-1.1,3.3l1.1,3.3l2.8,2h3.5l2.8-2L467.1,521.5z"/>
	<path class="st4" d="M494,528.5l-1.1-3.2l-2.8-2h-3.4l-2.8,2l-1.1,3.2l1.1,3.2l2.8,2h3.4l2.8-2L494,528.5z"/>
	<path class="st4" d="M462.4,519.5l-0.9-3.5l-2.5-2.5l-3.5-0.9l-3.5,0.9l-2.5,2.5l-0.9,3.5l0.9,3.5l2.5,2.5l3.5,0.9l3.5-0.9l2.5-2.5
		L462.4,519.5z"/>
	<path class="st4" d="M480.2,524.5l-0.9-3.4l-2.5-2.5l-3.4-0.9l-3.4,0.9l-2.5,2.5l-0.9,3.4l0.9,3.4l2.5,2.5l3.4,0.9l3.4-0.9l2.5-2.5
		L480.2,524.5z"/>
	<path class="st4" d="M477.8,516.5l-1-3.1l-2.6-1.9h-3.3l-2.6,1.9l-1,3.1l1,3.1l2.6,1.9h3.3l2.6-1.9L477.8,516.5z"/>
	<path class="st4" d="M476.4,513.5l-1.1-3.5l-2.9-2.1h-3.6l-2.9,2.1l-1.1,3.5l1.1,3.5l2.9,2.1h3.6l2.9-2.1L476.4,513.5z"/>
	<path class="st4" d="M488.6,520.5l-1-3l-2.5-1.8h-3.1l-2.5,1.8l-1,3l1,3l2.5,1.8h3.1l2.5-1.8L488.6,520.5z"/>
	<path class="st4" d="M472.6,517.5l-1.2-3.6l-3.1-2.2h-3.8l-3.1,2.2l-1.2,3.6l1.2,3.6l3.1,2.2h3.8l3.1-2.2L472.6,517.5z"/>
	<path class="st4" d="M485.3,520.5l-1.1-3.4l-2.9-2.1h-3.6l-2.9,2.1l-1.1,3.4l1.1,3.4l2.9,2.1h3.6l2.9-2.1L485.3,520.5z"/>
	<path class="st4" d="M469,526.5l-1-3.2l-2.7-2h-3.4l-2.7,2l-1,3.2l1,3.2l2.7,2h3.4l2.7-2L469,526.5z"/>
	<path class="st4" d="M468.8,524.5l-1-3.1l-2.6-1.9h-3.2l-2.6,1.9l-1,3.1l1,3.1l2.6,1.9h3.2l2.6-1.9L468.8,524.5z"/>
	<path class="st4" d="M476.5,506.5l-0.9-2.1l-2.1-0.9l-2.1,0.9l-0.9,2.1l0.9,2.1l2.1,0.9l2.1-0.9L476.5,506.5z"/>
	<path class="st4" d="M481.8,526.5l-1-3.1l-2.7-1.9h-3.3l-2.7,1.9l-1,3.1l1,3.1l2.7,1.9h3.3l2.7-1.9L481.8,526.5z"/>
	<path class="st4" d="M441.4,525.5l-1.2-2.8l-2.8-1.2l-2.8,1.2l-1.2,2.8l1.2,2.8l2.8,1.2l2.8-1.2L441.4,525.5z"/>
</g>
<g>
	<line class="st5" x1="208" y1="585.2" x2="743" y2="453"/>
	<line class="st6" x1="475.5" y1="790" x2="475.5" y2="255"/>
	<line class="st6" x1="208" y1="522.5" x2="743" y2="522.5"/>
</g>
<g transform="translate(743,453.0036)">
	<text transform="matrix(1 0 0 1 0 5.5)" class="st4 st0 st1">CC: 0.44</text>
</g>
<g class="st3">
	<path class="st7" d="M485.9,518.5l-0.9-3.2l-2.3-2.3l-3.2-0.9l-3.2,0.9l-2.3,2.3l-0.9,3.2l0.9,3.2l2.3,2.3l3.2,0.9l3.2-0.9l2.3-2.3
		L485.9,518.5z"/>
	<path class="st7" d="M480.1,524.5l-1-2.5l-2.5-1l-2.5,1l-1,2.5l1,2.5l2.5,1l2.5-1L480.1,524.5z"/>
	<path class="st7" d="M593.9,526.5l-0.8-2.6l-2.2-1.6h-2.7l-2.2,1.6l-0.8,2.6l0.8,2.6l2.2,1.6h2.7l2.2-1.6L593.9,526.5z"/>
	<path class="st7" d="M496.2,528.5l-0.9-2.8l-2.3-1.7h-2.9l-2.3,1.7l-0.9,2.8l0.9,2.8l2.3,1.7h2.9l2.3-1.7L496.2,528.5z"/>
	<path class="st7" d="M451,502.5l-0.9-3.3l-2.4-2.4l-3.3-0.9l-3.3,0.9l-2.4,2.4l-0.9,3.3l0.9,3.3l2.4,2.4l3.3,0.9l3.3-0.9l2.4-2.4
		L451,502.5z"/>
	<path class="st7" d="M474.8,518.5l-0.8-3.2l-2.3-2.3l-3.2-0.8l-3.2,0.8l-2.3,2.3l-0.8,3.2l0.8,3.2l2.3,2.3l3.2,0.8l3.2-0.8l2.3-2.3
		L474.8,518.5z"/>
	<path class="st7" d="M601.7,471.5l-0.8-2.5l-2.1-1.5h-2.6l-2.1,1.5l-0.8,2.5l0.8,2.5l2.1,1.5h2.6l2.1-1.5L601.7,471.5z"/>
	<path class="st7" d="M478.8,495.5l-1-2.4l-2.4-1l-2.4,1l-1,2.4l1,2.4l2.4,1l2.4-1L478.8,495.5z"/>
	<path class="st7" d="M562.6,488.5l-0.9-2.2l-2.2-0.9l-2.2,0.9l-0.9,2.2l0.9,2.2l2.2,0.9l2.2-0.9L562.6,488.5z"/>
	<path class="st7" d="M537.7,514.5l-0.8-2.5l-2.1-1.5h-2.6l-2.1,1.5l-0.8,2.5l0.8,2.5l2.1,1.5h2.6l2.1-1.5L537.7,514.5z"/>
	<path class="st7" d="M530.8,479.5L530,477l-2.2-1.6h-2.7L523,477l-0.8,2.5l0.8,2.5l2.2,1.6h2.7l2.2-1.6L530.8,479.5z"/>
	<path class="st7" d="M427.9,501.5l-1-2.4l-2.4-1l-2.4,1l-1,2.4l1,2.4l2.4,1l2.4-1L427.9,501.5z"/>
	<path class="st7" d="M518.1,504.5l-0.9-2.7l-2.3-1.7h-2.9l-2.3,1.7l-0.9,2.7l0.9,2.7l2.3,1.7h2.9l2.3-1.7L518.1,504.5z"/>
	<path class="st7" d="M474.8,558.5l-1-2.3l-2.3-1l-2.3,1l-1,2.3l1,2.3l2.3,1l2.3-1L474.8,558.5z"/>
	<path class="st7" d="M501.6,511.5l-1-3l-2.6-1.9h-3.2l-2.6,1.9l-1,3l1,3l2.6,1.9h3.2l2.6-1.9L501.6,511.5z"/>
	<path class="st7" d="M527.4,500.5l-0.9-2.9l-2.5-1.8h-3l-2.5,1.8l-0.9,2.9l0.9,2.9l2.5,1.8h3l2.5-1.8L527.4,500.5z"/>
	<path class="st7" d="M492.9,526.5l-1-2.4l-2.4-1l-2.4,1l-1,2.4l1,2.4l2.4,1l2.4-1L492.9,526.5z"/>
	<path class="st7" d="M527.7,486.5l-0.9-2.3l-2.3-0.9l-2.3,0.9l-0.9,2.3l0.9,2.3l2.3,0.9l2.3-0.9L527.7,486.5z"/>
	<path class="st7" d="M473.5,516.5l-1.2-2.8l-2.8-1.2l-2.8,1.2l-1.2,2.8l1.2,2.8l2.8,1.2l2.8-1.2L473.5,516.5z"/>
	<path class="st7" d="M519.3,520.5l-1.1-2.7l-2.7-1.1l-2.7,1.1l-1.1,2.7l1.1,2.7l2.7,1.1l2.7-1.1L519.3,520.5z"/>
	<path class="st7" d="M498.2,520.5l-0.9-2.8L495,516H492l-2.4,1.7l-0.9,2.8l0.9,2.8l2.4,1.7h2.9l2.4-1.7L498.2,520.5z"/>
	<path class="st7" d="M477.2,505.5l-1.1-2.6l-2.6-1.1l-2.6,1.1l-1.1,2.6l1.1,2.6l2.6,1.1l2.6-1.1L477.2,505.5z"/>
	<path class="st7" d="M458.4,531.5l-0.8-2l-2-0.8l-2,0.8l-0.8,2l0.8,2l2,0.8l2-0.8L458.4,531.5z"/>
	<path class="st7" d="M529.8,489.5l-1-2.3l-2.3-1l-2.3,1l-1,2.3l1,2.3l2.3,1l2.3-1L529.8,489.5z"/>
	<path class="st7" d="M466,520.5l-0.9-2.6l-2.3-1.6h-2.8l-2.3,1.6l-0.9,2.6l0.9,2.6l2.3,1.6h2.8l2.3-1.6L466,520.5z"/>
	<path class="st7" d="M442.2,517.5l-0.9-2.8l-2.3-1.7h-2.9l-2.3,1.7l-0.9,2.8l0.9,2.8l2.3,1.7h2.9l2.3-1.7L442.2,517.5z"/>
	<path class="st7" d="M506.1,522.5l-0.8-1.9l-1.9-0.8l-1.9,0.8l-0.8,1.9l0.8,1.9l1.9,0.8l1.9-0.8L506.1,522.5z"/>
	<path class="st7" d="M502.3,522.5l-0.8-2l-2-0.8l-2,0.8l-0.8,2l0.8,2l2,0.8l2-0.8L502.3,522.5z"/>
	<path class="st7" d="M461.7,541.5l-0.9-2.2l-2.2-0.9l-2.2,0.9l-0.9,2.2l0.9,2.2l2.2,0.9l2.2-0.9L461.7,541.5z"/>
	<path class="st7" d="M486.4,532.5l-0.9-2.1l-2.1-0.9l-2.1,0.9l-0.9,2.1l0.9,2.1l2.1,0.9l2.1-0.9L486.4,532.5z"/>
	<path class="st7" d="M493.7,520.5l-0.9-2.2l-2.2-0.9l-2.2,0.9l-0.9,2.2l0.9,2.2l2.2,0.9l2.2-0.9L493.7,520.5z"/>
	<path class="st7" d="M483.8,508.5l-1-3.1l-2.7-1.9h-3.3l-2.7,1.9l-1,3.1l1,3.1l2.7,1.9h3.3l2.7-1.9L483.8,508.5z"/>
	<path class="st7" d="M475.9,529.5l-0.8-2.6l-2.2-1.6h-2.7l-2.2,1.6l-0.8,2.6l0.8,2.6l2.2,1.6h2.7l2.2-1.6L475.9,529.5z"/>
	<path class="st7" d="M456,513.5l-1-2.4l-2.4-1l-2.4,1l-1,2.4l1,2.4l2.4,1l2.4-1L456,513.5z"/>
	<path class="st7" d="M500.5,546.5l-0.9-2.1l-2.1-0.9l-2.1,0.9l-0.9,2.1l0.9,2.1l2.1,0.9l2.1-0.9L500.5,546.5z"/>
	<path class="st7" d="M488.3,517.5l-1.1-3.4l-2.9-2.1h-3.6l-2.9,2.1l-1.1,3.4l1.1,3.4l2.9,2.1h3.6l2.9-2.1L488.3,517.5z"/>
	<path class="st7" d="M475.6,526.5l-1-3l-2.5-1.9h-3.1l-2.5,1.9l-1,3l1,3l2.5,1.9h3.1l2.5-1.9L475.6,526.5z"/>
	<path class="st7" d="M490.6,495.5l-0.9-2.2l-2.2-0.9l-2.2,0.9l-0.9,2.2l0.9,2.2l2.2,0.9l2.2-0.9L490.6,495.5z"/>
	<path class="st7" d="M485.8,512.5l-1-2.4l-2.4-1l-2.4,1l-1,2.4l1,2.4l2.4,1l2.4-1L485.8,512.5z"/>
	<path class="st7" d="M410.5,567.5l-0.9-2.1l-2.1-0.9l-2.1,0.9l-0.9,2.1l0.9,2.1l2.1,0.9l2.1-0.9L410.5,567.5z"/>
	<path class="st7" d="M428.3,511.5l-0.8-2l-2-0.8l-2,0.8l-0.8,2l0.8,2l2,0.8l2-0.8L428.3,511.5z"/>
	<path class="st7" d="M486.1,529.5l-1-2.5l-2.5-1l-2.5,1l-1,2.5l1,2.5l2.5,1l2.5-1L486.1,529.5z"/>
	<path class="st7" d="M471.2,533.5l-1.1-2.6l-2.6-1.1l-2.6,1.1l-1.1,2.6l1.1,2.6l2.6,1.1l2.6-1.1L471.2,533.5z"/>
	<path class="st7" d="M507.3,517.5l-0.9-2.8l-2.4-1.7h-3l-2.4,1.7l-0.9,2.8l0.9,2.8l2.4,1.7h3l2.4-1.7L507.3,517.5z"/>
	<path class="st7" d="M466.9,526.5l-0.8-2.6l-2.2-1.6h-2.7l-2.2,1.6l-0.8,2.6l0.8,2.6l2.2,1.6h2.7l2.2-1.6L466.9,526.5z"/>
	<path class="st7" d="M474.4,507.5l-1.1-2.7l-2.7-1.1l-2.7,1.1l-1.1,2.7l1.1,2.7l2.7,1.1l2.7-1.1L474.4,507.5z"/>
	<path class="st7" d="M497.1,519.5l-0.9-2.7l-2.3-1.7h-2.8l-2.3,1.7l-0.9,2.7l0.9,2.7l2.3,1.7h2.8l2.3-1.7L497.1,519.5z"/>
	<path class="st7" d="M484.4,516.5l-0.9-2.9l-2.5-1.8h-3l-2.5,1.8l-0.9,2.9l0.9,2.9l2.5,1.8h3l2.5-1.8L484.4,516.5z"/>
	<path class="st7" d="M514.9,507.5l-1-2.4l-2.4-1l-2.4,1l-1,2.4l1,2.4l2.4,1l2.4-1L514.9,507.5z"/>
	<path class="st7" d="M437.2,547.5l-0.8-1.9l-1.9-0.8l-1.9,0.8l-0.8,1.9l0.8,1.9l1.9,0.8l1.9-0.8L437.2,547.5z"/>
	<path class="st7" d="M402.7,543.5l-0.9-2.2l-2.2-0.9l-2.2,0.9l-0.9,2.2l0.9,2.2l2.2,0.9l2.2-0.9L402.7,543.5z"/>
	<path class="st7" d="M469.1,522.5l-0.9-2.7l-2.3-1.7h-2.8l-2.3,1.7l-0.9,2.7l0.9,2.7l2.3,1.7h2.8l2.3-1.7L469.1,522.5z"/>
	<path class="st7" d="M473.5,516.5l-1.2-2.8l-2.8-1.2l-2.8,1.2l-1.2,2.8l1.2,2.8l2.8,1.2l2.8-1.2L473.5,516.5z"/>
	<path class="st7" d="M467.9,517.5l-1-3.2l-2.7-2h-3.4l-2.7,2l-1,3.2l1,3.2l2.7,2h3.4l2.7-2L467.9,517.5z"/>
	<path class="st7" d="M494.3,517.5l-1.1-3.4l-2.9-2.1h-3.6l-2.9,2.1l-1.1,3.4l1.1,3.4l2.9,2.1h3.6l2.9-2.1L494.3,517.5z"/>
	<path class="st7" d="M476.6,512.5l-1.2-2.9l-2.9-1.2l-2.9,1.2l-1.2,2.9l1.2,2.9l2.9,1.2l2.9-1.2L476.6,512.5z"/>
	<path class="st7" d="M450.2,535.5l-0.9-2.7l-2.3-1.7h-2.9l-2.3,1.7l-0.9,2.7l0.9,2.7l2.3,1.7h2.9l2.3-1.7L450.2,535.5z"/>
	<path class="st7" d="M485.6,525.5l-1-3.6l-2.6-2.6l-3.6-1l-3.6,1l-2.6,2.6l-1,3.6l1,3.6l2.6,2.6l3.6,1l3.6-1l2.6-2.6L485.6,525.5z"
		/>
	<path class="st7" d="M495.3,523.5l-0.8-2l-2-0.8l-2,0.8l-0.8,2l0.8,2l2,0.8l2-0.8L495.3,523.5z"/>
	<path class="st7" d="M542.4,499.5l-0.9-2.1l-2.1-0.9l-2.1,0.9l-0.9,2.1l0.9,2.1l2.1,0.9l2.1-0.9L542.4,499.5z"/>
	<path class="st7" d="M536.2,502.5l-0.9-2.8L533,498H530l-2.4,1.7l-0.9,2.8l0.9,2.8l2.4,1.7h2.9l2.4-1.7L536.2,502.5z"/>
	<path class="st7" d="M469,521.5l-0.9-2.7l-2.3-1.6h-2.8l-2.3,1.6l-0.9,2.7l0.9,2.7l2.3,1.6h2.8l2.3-1.6L469,521.5z"/>
	<path class="st7" d="M451.2,524.5l-0.9-2.7l-2.3-1.7h-2.9l-2.3,1.7l-0.9,2.7l0.9,2.7l2.3,1.7h2.9l2.3-1.7L451.2,524.5z"/>
	<path class="st7" d="M466.4,516.5l-0.8-2.1l-2.1-0.8l-2.1,0.8l-0.8,2.1l0.8,2.1l2.1,0.8l2.1-0.8L466.4,516.5z"/>
	<path class="st7" d="M497.3,553.5l-0.8-2l-2-0.8l-2,0.8l-0.8,2l0.8,2l2,0.8l2-0.8L497.3,553.5z"/>
	<path class="st7" d="M535.5,467.5l-0.9-2.9l-2.5-1.8H529l-2.5,1.8l-0.9,2.9l0.9,2.9l2.5,1.8h3.1l2.5-1.8L535.5,467.5z"/>
	<path class="st7" d="M477.3,512.5l-1.1-2.7l-2.7-1.1l-2.7,1.1l-1.1,2.7l1.1,2.7l2.7,1.1l2.7-1.1L477.3,512.5z"/>
	<path class="st7" d="M538.5,467.5l-0.9-2.2l-2.2-0.9l-2.2,0.9l-0.9,2.2l0.9,2.2l2.2,0.9l2.2-0.9L538.5,467.5z"/>
	<path class="st7" d="M456.4,532.5l-0.9-2.9l-2.4-1.8h-3l-2.4,1.8l-0.9,2.9l0.9,2.9l2.4,1.8h3l2.4-1.8L456.4,532.5z"/>
	<path class="st7" d="M489.7,529.5l-1-2.3l-2.3-1l-2.3,1l-1,2.3l1,2.3l2.3,1l2.3-1L489.7,529.5z"/>
	<path class="st7" d="M463.1,533.5l-1-2.5l-2.5-1l-2.5,1l-1,2.5l1,2.5l2.5,1l2.5-1L463.1,533.5z"/>
	<path class="st7" d="M469.6,512.5l-0.9-2.2l-2.2-0.9l-2.2,0.9l-0.9,2.2l0.9,2.2l2.2,0.9l2.2-0.9L469.6,512.5z"/>
	<path class="st7" d="M493.5,495.5l-1-2.9l-2.5-1.8H487l-2.5,1.8l-1,2.9l1,2.9l2.5,1.8h3.1l2.5-1.8L493.5,495.5z"/>
	<path class="st7" d="M496.7,508.5l-1-3.1l-2.6-1.9h-3.2l-2.6,1.9l-1,3.1l1,3.1l2.6,1.9h3.2l2.6-1.9L496.7,508.5z"/>
	<path class="st7" d="M491.9,521.5l-1-2.4l-2.4-1l-2.4,1l-1,2.4l1,2.4l2.4,1l2.4-1L491.9,521.5z"/>
	<path class="st7" d="M470,519.5l-1-3.2l-2.7-2h-3.4l-2.7,2l-1,3.2l1,3.2l2.7,2h3.4l2.7-2L470,519.5z"/>
	<path class="st7" d="M450.1,507.5l-0.9-2.7l-2.3-1.7h-2.8l-2.3,1.7l-0.9,2.7l0.9,2.7l2.3,1.7h2.8l2.3-1.7L450.1,507.5z"/>
	<path class="st7" d="M459.2,531.5l-0.9-2.8L456,527H453l-2.4,1.7l-0.9,2.8l0.9,2.8l2.4,1.7h2.9l2.4-1.7L459.2,531.5z"/>
	<path class="st7" d="M484.6,531.5l-1-3l-2.6-1.9h-3.2l-2.6,1.9l-1,3l1,3l2.6,1.9h3.2l2.6-1.9L484.6,531.5z"/>
	<path class="st7" d="M448.3,595.5l-1.1-2.7l-2.7-1.1l-2.7,1.1l-1.1,2.7l1.1,2.7l2.7,1.1l2.7-1.1L448.3,595.5z"/>
	<path class="st7" d="M494.8,513.5l-1-3.1l-2.7-1.9h-3.3l-2.7,1.9l-1,3.1l1,3.1l2.7,1.9h3.3l2.7-1.9L494.8,513.5z"/>
	<path class="st7" d="M499.5,525.5l-1-3l-2.5-1.8h-3.1l-2.5,1.8l-1,3l1,3l2.5,1.8h3.1l2.5-1.8L499.5,525.5z"/>
	<path class="st7" d="M496,502.5l-1.1-3.3l-2.8-2h-3.4l-2.8,2l-1.1,3.3l1.1,3.3l2.8,2h3.4l2.8-2L496,502.5z"/>
	<path class="st7" d="M450.6,549.5l-1.2-2.9l-2.9-1.2l-2.9,1.2l-1.2,2.9l1.2,2.9l2.9,1.2l2.9-1.2L450.6,549.5z"/>
	<path class="st7" d="M478.5,520.5l-1-3l-2.5-1.8h-3.1l-2.5,1.8l-1,3l1,3l2.5,1.8h3.1l2.5-1.8L478.5,520.5z"/>
	<path class="st7" d="M488,500.5l-0.9-2.7l-2.3-1.6h-2.8l-2.3,1.6l-0.9,2.7l0.9,2.7l2.3,1.6h2.8l2.3-1.6L488,500.5z"/>
	<path class="st7" d="M523,499.5l-0.9-2.6l-2.2-1.6h-2.8l-2.2,1.6l-0.9,2.6l0.9,2.6l2.2,1.6h2.8l2.2-1.6L523,499.5z"/>
	<path class="st7" d="M457,527.5l-0.9-2.6l-2.2-1.6h-2.8l-2.2,1.6l-0.9,2.6l0.9,2.6l2.2,1.6h2.8l2.2-1.6L457,527.5z"/>
	<path class="st7" d="M492.8,524.5l-0.8-2.6l-2.2-1.6h-2.7l-2.2,1.6l-0.8,2.6l0.8,2.6l2.2,1.6h2.7l2.2-1.6L492.8,524.5z"/>
	<path class="st7" d="M476.1,525.5l-1-2.5l-2.5-1l-2.5,1l-1,2.5l1,2.5l2.5,1l2.5-1L476.1,525.5z"/>
	<path class="st7" d="M458.2,529.5l-0.9-2.7l-2.3-1.7h-2.9l-2.3,1.7l-0.9,2.7l0.9,2.7l2.3,1.7h2.9l2.3-1.7L458.2,529.5z"/>
	<path class="st7" d="M468.5,511.5l-1-2.9l-2.5-1.8H462l-2.5,1.8l-1,2.9l1,2.9l2.5,1.8h3.1l2.5-1.8L468.5,511.5z"/>
	<path class="st7" d="M492.2,511.5l-1.1-3.4l-2.9-2.1h-3.5l-2.9,2.1l-1.1,3.4l1.1,3.4l2.9,2.1h3.5l2.9-2.1L492.2,511.5z"/>
	<path class="st7" d="M418.3,572.5l-0.9-2.8l-2.4-1.8h-3l-2.4,1.8l-0.9,2.8l0.9,2.8l2.4,1.8h3l2.4-1.8L418.3,572.5z"/>
	<path class="st7" d="M496.4,524.5l-1.1-2.8l-2.8-1.1l-2.8,1.1l-1.1,2.8l1.1,2.8l2.8,1.1l2.8-1.1L496.4,524.5z"/>
	<path class="st7" d="M471.7,526.5l-1-3l-2.6-1.9h-3.2l-2.6,1.9l-1,3l1,3l2.6,1.9h3.2l2.6-1.9L471.7,526.5z"/>
	<path class="st7" d="M466.3,521.5l-1.1-3.4l-2.9-2.1h-3.6l-2.9,2.1l-1.1,3.4l1.1,3.4l2.9,2.1h3.6l2.9-2.1L466.3,521.5z"/>
	<path class="st7" d="M462.5,529.5l-1-2.9l-2.5-1.8H456l-2.5,1.8l-1,2.9l1,2.9l2.5,1.8h3.1l2.5-1.8L462.5,529.5z"/>
	<path class="st7" d="M510.9,515.5l-1-2.4l-2.4-1l-2.4,1l-1,2.4l1,2.4l2.4,1l2.4-1L510.9,515.5z"/>
	<path class="st7" d="M475.3,531.5l-1.1-2.7l-2.7-1.1l-2.7,1.1l-1.1,2.7l1.1,2.7l2.7,1.1l2.7-1.1L475.3,531.5z"/>
	<path class="st7" d="M471.5,516.5l-1.2-2.8l-2.8-1.2l-2.8,1.2l-1.2,2.8l1.2,2.8l2.8,1.2l2.8-1.2L471.5,516.5z"/>
	<path class="st7" d="M487.6,519.5l-1-3l-2.6-1.9h-3.2l-2.6,1.9l-1,3l1,3l2.6,1.9h3.2l2.6-1.9L487.6,519.5z"/>
	<path class="st7" d="M495.4,521.5l-1.1-2.7l-2.7-1.1l-2.7,1.1l-1.1,2.7l1.1,2.7l2.7,1.1l2.7-1.1L495.4,521.5z"/>
	<path class="st7" d="M461.7,532.5l-0.8-2.5l-2.1-1.5h-2.6l-2.1,1.5l-0.8,2.5l0.8,2.5l2.1,1.5h2.6l2.1-1.5L461.7,532.5z"/>
	<path class="st7" d="M471.9,517.5l-1-3.2l-2.7-2h-3.3l-2.7,2l-1,3.2l1,3.2l2.7,2h3.3l2.7-2L471.9,517.5z"/>
	<path class="st7" d="M478,508.5l-1.1-3.3l-2.8-2h-3.4l-2.8,2l-1.1,3.3l1.1,3.3l2.8,2h3.4l2.8-2L478,508.5z"/>
	<path class="st7" d="M477.8,530.5l-1-3.1l-2.6-1.9h-3.3l-2.6,1.9l-1,3.1l1,3.1l2.6,1.9h3.3l2.6-1.9L477.8,530.5z"/>
	<path class="st7" d="M475.8,510.5l-1-3.1l-2.6-1.9h-3.2l-2.6,1.9l-1,3.1l1,3.1l2.6,1.9h3.2l2.6-1.9L475.8,510.5z"/>
	<path class="st7" d="M525.1,501.5l-0.9-2.7l-2.3-1.7h-2.8l-2.3,1.7l-0.9,2.7l0.9,2.7l2.3,1.7h2.8l2.3-1.7L525.1,501.5z"/>
	<path class="st7" d="M467.1,532.5l-0.9-2.7l-2.3-1.7h-2.8l-2.3,1.7l-0.9,2.7l0.9,2.7l2.3,1.7h2.8l2.3-1.7L467.1,532.5z"/>
	<path class="st7" d="M461.9,535.5l-0.8-2.6l-2.2-1.6h-2.7l-2.2,1.6l-0.8,2.6l0.8,2.6l2.2,1.6h2.7l2.2-1.6L461.9,535.5z"/>
	<path class="st7" d="M466.5,534.5l-1.2-2.8l-2.8-1.2l-2.8,1.2l-1.2,2.8l1.2,2.8l2.8,1.2l2.8-1.2L466.5,534.5z"/>
	<path class="st7" d="M497.6,494.5l-1.2-2.9l-2.9-1.2l-2.9,1.2l-1.2,2.9l1.2,2.9l2.9,1.2l2.9-1.2L497.6,494.5z"/>
	<path class="st7" d="M487.2,458.5l-0.8-1.9l-1.9-0.8l-1.9,0.8l-0.8,1.9l0.8,1.9l1.9,0.8l1.9-0.8L487.2,458.5z"/>
	<path class="st7" d="M448.6,540.5l-0.9-2.2l-2.2-0.9l-2.2,0.9l-0.9,2.2l0.9,2.2l2.2,0.9l2.2-0.9L448.6,540.5z"/>
	<path class="st7" d="M442.7,521.5l-0.8-2.5l-2.1-1.5h-2.6l-2.1,1.5l-0.8,2.5l0.8,2.5l2.1,1.5h2.6l2.1-1.5L442.7,521.5z"/>
	<path class="st7" d="M472,528.5l-1-2.5l-2.5-1l-2.5,1l-1,2.5l1,2.5l2.5,1l2.5-1L472,528.5z"/>
	<path class="st7" d="M523.5,501.5l-1.2-2.9l-2.9-1.2l-2.9,1.2l-1.2,2.9l1.2,2.9l2.9,1.2l2.9-1.2L523.5,501.5z"/>
	<path class="st7" d="M476.5,534.5l-1.2-2.8l-2.8-1.2l-2.8,1.2l-1.2,2.8l1.2,2.8l2.8,1.2l2.8-1.2L476.5,534.5z"/>
	<path class="st7" d="M484.6,510.5l-1.2-2.9l-2.9-1.2l-2.9,1.2l-1.2,2.9l1.2,2.9l2.9,1.2l2.9-1.2L484.6,510.5z"/>
	<path class="st7" d="M504.5,518.5l-1.2-2.8l-2.8-1.2l-2.8,1.2l-1.2,2.8l1.2,2.8l2.8,1.2l2.8-1.2L504.5,518.5z"/>
	<path class="st7" d="M457.1,540.5l-1.1-2.6l-2.6-1.1l-2.6,1.1l-1.1,2.6l1.1,2.6l2.6,1.1l2.6-1.1L457.1,540.5z"/>
	<path class="st7" d="M482.4,525.5l-0.9-2.9l-2.5-1.8h-3l-2.5,1.8l-0.9,2.9l0.9,2.9l2.5,1.8h3l2.5-1.8L482.4,525.5z"/>
	<path class="st7" d="M456.3,570.5l-0.8-2l-2-0.8l-2,0.8l-0.8,2l0.8,2l2,0.8l2-0.8L456.3,570.5z"/>
	<path class="st7" d="M459.3,521.5l-1.1-2.7l-2.7-1.1l-2.7,1.1l-1.1,2.7l1.1,2.7l2.7,1.1l2.7-1.1L459.3,521.5z"/>
	<path class="st7" d="M459.6,543.5l-0.9-2.2l-2.2-0.9l-2.2,0.9l-0.9,2.2l0.9,2.2l2.2,0.9l2.2-0.9L459.6,543.5z"/>
	<path class="st7" d="M390.2,541.5l-0.8-1.9l-1.9-0.8l-1.9,0.8l-0.8,1.9l0.8,1.9l1.9,0.8l1.9-0.8L390.2,541.5z"/>
	<path class="st7" d="M467.3,530.5l-1.1-2.7l-2.7-1.1l-2.7,1.1l-1.1,2.7l1.1,2.7l2.7,1.1l2.7-1.1L467.3,530.5z"/>
	<path class="st7" d="M543.8,471.5l-1-2.3l-2.3-1l-2.3,1l-1,2.3l1,2.3l2.3,1l2.3-1L543.8,471.5z"/>
	<path class="st7" d="M501.4,508.5l-0.9-2.9l-2.4-1.8h-3l-2.4,1.8l-0.9,2.9l0.9,2.9l2.4,1.8h3l2.4-1.8L501.4,508.5z"/>
	<path class="st7" d="M453.9,513.5l-0.8-2.6l-2.2-1.6h-2.7l-2.2,1.6l-0.8,2.6l0.8,2.6l2.2,1.6h2.7l2.2-1.6L453.9,513.5z"/>
	<path class="st7" d="M462.9,518.5l-1-2.4l-2.4-1l-2.4,1l-1,2.4l1,2.4l2.4,1l2.4-1L462.9,518.5z"/>
	<path class="st7" d="M462.3,547.5l-1.1-2.7l-2.7-1.1l-2.7,1.1l-1.1,2.7l1.1,2.7l2.7,1.1l2.7-1.1L462.3,547.5z"/>
	<path class="st7" d="M504.8,490.5L504,488l-2.1-1.6h-2.7L497,488l-0.8,2.5l0.8,2.5l2.1,1.6h2.7l2.1-1.6L504.8,490.5z"/>
</g>
<line class="st8" x1="208" y1="618.6" x2="743" y2="421"/>
<g transform="translate(743,421.005)">
	<text transform="matrix(1 0 0 1 0 5.5)" class="st7 st0 st1">ISA: 0.62</text>
</g>
<g transform="translate(475.5005,252.25)">
	<text transform="matrix(1 0 0 1 -37.9771 -4)" class="st0 st9">ACC</text>
</g>
<g transform="translate(1180.5002,813.6667)">
	<text transform="matrix(1 0 0 1 -98 16)" class="st0 st1">Previous Error</text>
</g>
<line class="st2" x1="863" y1="790" x2="1398" y2="790"/>
<g transform="translate(913,795.3334)">
	<text transform="matrix(1 0 0 1 -56 14)" class="st0 st1">-1</text>
</g>
<g transform="translate(966.5,795.3334)">
	<text transform="matrix(1 0 0 1 -61.5 14)" class="st0 st1">-0.8</text>
</g>
<g transform="translate(1020,795.3334)">
	<text transform="matrix(1 0 0 1 -61.5 14)" class="st0 st1">-0.6</text>
</g>
<g transform="translate(1073.5,795.3334)">
	<text transform="matrix(1 0 0 1 -61.5 14)" class="st0 st1">-0.4</text>
</g>
<g transform="translate(1127,795.3334)">
	<text transform="matrix(1 0 0 1 -61.5 14)" class="st0 st1">-0.2</text>
</g>
<g transform="translate(1180.5,795.3334)">
	<text transform="matrix(1 0 0 1 -54 14)" class="st0 st1">0</text>
</g>
<g transform="translate(1234,795.3334)">
	<text transform="matrix(1 0 0 1 -59.5 14)" class="st0 st1">0.2</text>
</g>
<g transform="translate(1287.5,795.3334)">
	<text transform="matrix(1 0 0 1 -59.5 14)" class="st0 st1">0.4</text>
</g>
<g transform="translate(1341,795.3334)">
	<text transform="matrix(1 0 0 1 -59.5 14)" class="st0 st1">0.6</text>
</g>
<g transform="translate(1394.5,795.3334)">
	<text transform="matrix(1 0 0 1 -59.5 14)" class="st0 st1">0.8</text>
</g>
<g transform="translate(1448,795.3334)">
	<text transform="matrix(1 0 0 1 -54 14)" class="st0 st1">1</text>
</g>
<line class="st2" x1="863" y1="790" x2="863" y2="255"/>
<g class="st3">
	<path class="st4" d="M1165.6,510.5l-1.2-3.6l-3.1-2.2h-3.8l-3.1,2.2l-1.2,3.6l1.2,3.6l3.1,2.2h3.8l3.1-2.2L1165.6,510.5z"/>
	<path class="st4" d="M1111.1,518.5l-1.1-3.3l-2.8-2h-3.5l-2.8,2l-1.1,3.3l1.1,3.3l2.8,2h3.5l2.8-2L1111.1,518.5z"/>
	<path class="st4" d="M1147,503.5l-0.9-2.6l-2.2-1.6h-2.8l-2.2,1.6l-0.9,2.6l0.9,2.6l2.2,1.6h2.8l2.2-1.6L1147,503.5z"/>
	<path class="st4" d="M1146.1,522.5l-0.9-3.3l-2.4-2.4l-3.3-0.9l-3.3,0.9l-2.4,2.4l-0.9,3.3l0.9,3.3l2.4,2.4l3.3,0.9l3.3-0.9
		l2.4-2.4L1146.1,522.5z"/>
	<path class="st4" d="M1130.1,521.5l-1.1-3.3l-2.8-2h-3.5l-2.8,2l-1.1,3.3l1.1,3.3l2.8,2h3.5l2.8-2L1130.1,521.5z"/>
	<path class="st4" d="M1115,524.5l-1-3.2l-2.7-2h-3.4l-2.7,2l-1,3.2l1,3.2l2.7,2h3.4l2.7-2L1115,524.5z"/>
	<path class="st4" d="M1129.4,526.5l-1.1-2.8l-2.8-1.1l-2.8,1.1l-1.1,2.8l1.1,2.8l2.8,1.1l2.8-1.1L1129.4,526.5z"/>
	<path class="st4" d="M1175,524.5l-1-2.5l-2.5-1l-2.5,1l-1,2.5l1,2.5l2.5,1l2.5-1L1175,524.5z"/>
	<path class="st4" d="M1159.4,514.5l-1.1-3.5l-2.9-2.1h-3.6l-2.9,2.1l-1.1,3.5l1.1,3.5l2.9,2.1h3.6l2.9-2.1L1159.4,514.5z"/>
	<path class="st4" d="M1192.6,507.5l-1-3l-2.6-1.9h-3.2l-2.6,1.9l-1,3l1,3l2.6,1.9h3.2l2.6-1.9L1192.6,507.5z"/>
	<path class="st4" d="M1152.2,518.5l-0.9-3.4l-2.5-2.5l-3.4-0.9l-3.4,0.9l-2.5,2.5l-0.9,3.4l0.9,3.4l2.5,2.5l3.4,0.9l3.4-0.9
		l2.5-2.5L1152.2,518.5z"/>
	<path class="st4" d="M1147.3,526.5l-0.9-2.8l-2.4-1.7h-3l-2.4,1.7l-0.9,2.8l0.9,2.8l2.4,1.7h3l2.4-1.7L1147.3,526.5z"/>
	<path class="st4" d="M1150.4,513.5l-0.9-2.9l-2.4-1.8h-3l-2.4,1.8l-0.9,2.9l0.9,2.9l2.4,1.8h3l2.4-1.8L1150.4,513.5z"/>
	<path class="st4" d="M1134,523.5l-1-3.2l-2.7-2h-3.4l-2.7,2l-1,3.2l1,3.2l2.7,2h3.4l2.7-2L1134,523.5z"/>
	<path class="st4" d="M1110.6,550.5l-1.2-3.6l-3-2.2h-3.8l-3,2.2l-1.2,3.6l1.2,3.6l3,2.2h3.8l3-2.2L1110.6,550.5z"/>
	<path class="st4" d="M1136.8,523.5l-1-3.7l-2.7-2.7l-3.7-1l-3.7,1l-2.7,2.7l-1,3.7l1,3.7l2.7,2.7l3.7,1l3.7-1l2.7-2.7L1136.8,523.5
		z"/>
	<path class="st4" d="M1164.3,490.5l-1.1-3.4l-2.9-2.1h-3.6l-2.9,2.1l-1.1,3.4l1.1,3.4l2.9,2.1h3.6l2.9-2.1L1164.3,490.5z"/>
	<path class="st4" d="M1130.5,499.5l-1-2.9l-2.5-1.8h-3.1l-2.5,1.8l-1,2.9l1,2.9l2.5,1.8h3.1l2.5-1.8L1130.5,499.5z"/>
	<path class="st4" d="M1103.2,519.5l-1.1-3.3l-2.8-2.1h-3.5l-2.8,2.1l-1.1,3.3l1.1,3.3l2.8,2.1h3.5l2.8-2.1L1103.2,519.5z"/>
	<path class="st4" d="M1116.8,518.5l-0.8-3.2l-2.3-2.3l-3.2-0.8l-3.2,0.8l-2.3,2.3l-0.8,3.2l0.8,3.2l2.3,2.3l3.2,0.8l3.2-0.8
		l2.3-2.3L1116.8,518.5z"/>
	<path class="st4" d="M1141,544.5l-1-2.5l-2.5-1l-2.5,1l-1,2.5l1,2.5l2.5,1l2.5-1L1141,544.5z"/>
	<path class="st4" d="M1131.5,519.5l-1-3l-2.5-1.8h-3.1l-2.5,1.8l-1,3l1,3l2.5,1.8h3.1l2.5-1.8L1131.5,519.5z"/>
	<path class="st4" d="M1092,502.5l-0.9-2.6l-2.2-1.6h-2.8l-2.2,1.6l-0.9,2.6l0.9,2.6l2.2,1.6h2.8l2.2-1.6L1092,502.5z"/>
	<path class="st4" d="M1148.6,509.5l-1.2-3.6l-3.1-2.2h-3.8l-3.1,2.2l-1.2,3.6l1.2,3.6l3.1,2.2h3.8l3.1-2.2L1148.6,509.5z"/>
	<path class="st4" d="M1127.9,532.5l-0.9-3.2l-2.3-2.3l-3.2-0.9l-3.2,0.9l-2.3,2.3l-0.9,3.2l0.9,3.2l2.3,2.3l3.2,0.9l3.2-0.9
		l2.3-2.3L1127.9,532.5z"/>
	<path class="st4" d="M1132.3,505.5l-1.1-3.4l-2.9-2.1h-3.6l-2.9,2.1l-1.1,3.4l1.1,3.4l2.9,2.1h3.6l2.9-2.1L1132.3,505.5z"/>
	<path class="st4" d="M1164.8,518.5l-1-2.4l-2.4-1l-2.4,1l-1,2.4l1,2.4l2.4,1l2.4-1L1164.8,518.5z"/>
	<path class="st4" d="M1165.5,520.5l-0.9-2.2l-2.2-0.9l-2.2,0.9l-0.9,2.2l0.9,2.2l2.2,0.9l2.2-0.9L1165.5,520.5z"/>
	<path class="st4" d="M1099.9,506.5l-1-2.4l-2.4-1l-2.4,1l-1,2.4l1,2.4l2.4,1l2.4-1L1099.9,506.5z"/>
	<path class="st4" d="M1107.2,513.5l-1.1-2.6l-2.6-1.1l-2.6,1.1l-1.1,2.6l1.1,2.6l2.6,1.1l2.6-1.1L1107.2,513.5z"/>
	<path class="st4" d="M1118.5,524.5l-1-2.9l-2.5-1.8h-3.1l-2.5,1.8l-1,2.9l1,2.9l2.5,1.8h3.1l2.5-1.8L1118.5,524.5z"/>
	<path class="st4" d="M1139.8,492.5l-1-3.1l-2.7-1.9h-3.3l-2.7,1.9l-1,3.1l1,3.1l2.7,1.9h3.3l2.7-1.9L1139.8,492.5z"/>
	<path class="st4" d="M1104.3,574.5l-0.9-3.4l-2.5-2.5l-3.4-0.9l-3.4,0.9l-2.5,2.5l-0.9,3.4l0.9,3.4l2.5,2.5l3.4,0.9l3.4-0.9
		l2.5-2.5L1104.3,574.5z"/>
	<path class="st4" d="M1054.6,567.5l-1.2-2.9l-2.9-1.2l-2.9,1.2l-1.2,2.9l1.2,2.9l2.9,1.2l2.9-1.2L1054.6,567.5z"/>
	<path class="st4" d="M1068.5,528.5l-1.2-2.9l-2.9-1.2l-2.9,1.2l-1.2,2.9l1.2,2.9l2.9,1.2l2.9-1.2L1068.5,528.5z"/>
	<path class="st4" d="M1081,529.5l-1-3.2l-2.7-2h-3.4l-2.7,2l-1,3.2l1,3.2l2.7,2h3.4l2.7-2L1081,529.5z"/>
	<path class="st4" d="M1118.7,528.5l-0.8-2.5l-2.1-1.5h-2.6l-2.1,1.5l-0.8,2.5l0.8,2.5l2.1,1.5h2.6l2.1-1.5L1118.7,528.5z"/>
	<path class="st4" d="M1200.1,511.5l-0.8-1.8l-1.8-0.8l-1.8,0.8l-0.8,1.8l0.8,1.8l1.8,0.8l1.8-0.8L1200.1,511.5z"/>
	<path class="st4" d="M1112.1,505.5l-1.1-3.3l-2.8-2h-3.4l-2.8,2l-1.1,3.3l1.1,3.3l2.8,2h3.4l2.8-2L1112.1,505.5z"/>
	<path class="st4" d="M1096.8,520.5l-1-3.1l-2.6-1.9h-3.3l-2.6,1.9l-1,3.1l1,3.1l2.6,1.9h3.3l2.6-1.9L1096.8,520.5z"/>
	<path class="st4" d="M1185.2,501.5l-1.1-2.6l-2.6-1.1l-2.6,1.1l-1.1,2.6l1.1,2.6l2.6,1.1l2.6-1.1L1185.2,501.5z"/>
	<path class="st4" d="M1170.7,529.5l-0.8-2.4l-2.1-1.5h-2.6l-2.1,1.5l-0.8,2.4l0.8,2.4l2.1,1.5h2.6l2.1-1.5L1170.7,529.5z"/>
	<path class="st4" d="M1134.4,549.5l-0.9-2.9l-2.4-1.8h-3l-2.4,1.8l-0.9,2.9l0.9,2.9l2.4,1.8h3l2.4-1.8L1134.4,549.5z"/>
	<path class="st4" d="M1121.6,492.5l-1.2-2.9l-2.9-1.2l-2.9,1.2l-1.2,2.9l1.2,2.9l2.9,1.2l2.9-1.2L1121.6,492.5z"/>
	<path class="st4" d="M1186.7,491.5l-1-3l-2.6-1.9h-3.2l-2.6,1.9l-1,3l1,3l2.6,1.9h3.2l2.6-1.9L1186.7,491.5z"/>
	<path class="st4" d="M1133.9,518.5l-0.8-2.6l-2.2-1.6h-2.7l-2.2,1.6l-0.8,2.6l0.8,2.6l2.2,1.6h2.7l2.2-1.6L1133.9,518.5z"/>
	<path class="st4" d="M1133,529.5l-0.9-3.2l-2.4-2.4l-3.2-0.9l-3.2,0.9l-2.4,2.4l-0.9,3.2l0.9,3.2l2.4,2.4l3.2,0.9l3.2-0.9l2.4-2.4
		L1133,529.5z"/>
	<path class="st4" d="M1111.6,507.5l-1.2-2.9l-2.9-1.2l-2.9,1.2l-1.2,2.9l1.2,2.9l2.9,1.2l2.9-1.2L1111.6,507.5z"/>
	<path class="st4" d="M1109.9,525.5l-1-3.2l-2.7-2h-3.3l-2.7,2l-1,3.2l1,3.2l2.7,2h3.3l2.7-2L1109.9,525.5z"/>
	<path class="st4" d="M1152.7,534.5l-0.8-2.5l-2.1-1.5h-2.6l-2.1,1.5l-0.8,2.5l0.8,2.5l2.1,1.5h2.6l2.1-1.5L1152.7,534.5z"/>
	<path class="st4" d="M1134.1,511.5l-0.9-2.7l-2.3-1.7h-2.9l-2.3,1.7l-0.9,2.7l0.9,2.7l2.3,1.7h2.9l2.3-1.7L1134.1,511.5z"/>
	<path class="st4" d="M1140.2,532.5l-1.1-3.4l-2.9-2.1h-3.5l-2.9,2.1l-1.1,3.4l1.1,3.4l2.9,2.1h3.5l2.9-2.1L1140.2,532.5z"/>
	<path class="st4" d="M1127.2,526.5l-1.1-3.4l-2.9-2.1h-3.5l-2.9,2.1l-1.1,3.4l1.1,3.4l2.9,2.1h3.5l2.9-2.1L1127.2,526.5z"/>
	<path class="st4" d="M1102.1,532.5l-1.1-2.6l-2.6-1.1l-2.6,1.1l-1.1,2.6l1.1,2.6l2.6,1.1l2.6-1.1L1102.1,532.5z"/>
	<path class="st4" d="M1117.1,536.5l-1.1-3.3l-2.8-2h-3.5l-2.8,2l-1.1,3.3l1.1,3.3l2.8,2h3.5l2.8-2L1117.1,536.5z"/>
	<path class="st4" d="M1151.5,518.5l-0.9-3.5l-2.6-2.6l-3.5-0.9l-3.5,0.9l-2.6,2.6l-0.9,3.5l0.9,3.5l2.6,2.6l3.5,0.9l3.5-0.9
		l2.6-2.6L1151.5,518.5z"/>
	<path class="st4" d="M1133.5,530.5l-1.1-4l-2.9-2.9l-4-1.1l-4,1.1l-2.9,2.9l-1.1,4l1.1,4l2.9,2.9l4,1.1l4-1.1l2.9-2.9L1133.5,530.5
		z"/>
	<path class="st4" d="M1091.7,484.5l-0.9-2.2l-2.2-0.9l-2.2,0.9l-0.9,2.2l0.9,2.2l2.2,0.9l2.2-0.9L1091.7,484.5z"/>
	<path class="st4" d="M1153,521.5l-1-2.5l-2.5-1l-2.5,1l-1,2.5l1,2.5l2.5,1l2.5-1L1153,521.5z"/>
	<path class="st4" d="M1124.8,526.5l-1-3.1l-2.7-1.9h-3.3l-2.7,1.9l-1,3.1l1,3.1l2.7,1.9h3.3l2.7-1.9L1124.8,526.5z"/>
	<path class="st4" d="M1130.7,515.5l-1-3.6l-2.6-2.6l-3.6-1l-3.6,1l-2.6,2.6l-1,3.6l1,3.6l2.6,2.6l3.6,1l3.6-1l2.6-2.6L1130.7,515.5
		z"/>
	<path class="st4" d="M1063.8,531.5l-0.8-2.6l-2.2-1.6h-2.7l-2.2,1.6l-0.8,2.6l0.8,2.6l2.2,1.6h2.7l2.2-1.6L1063.8,531.5z"/>
	<path class="st4" d="M1115.4,522.5l-1.1-3.5l-2.9-2.1h-3.6l-2.9,2.1l-1.1,3.5l1.1,3.5l2.9,2.1h3.6l2.9-2.1L1115.4,522.5z"/>
	<path class="st4" d="M1155.8,530.5l-1-3.1l-2.6-1.9h-3.3l-2.6,1.9l-1,3.1l1,3.1l2.6,1.9h3.3l2.6-1.9L1155.8,530.5z"/>
	<path class="st4" d="M1172.5,506.5l-0.9-2.9l-2.5-1.8h-3.1l-2.5,1.8l-0.9,2.9l0.9,2.9l2.5,1.8h3.1l2.5-1.8L1172.5,506.5z"/>
	<path class="st4" d="M1152.5,517.5l-1.2-2.8l-2.8-1.2l-2.8,1.2l-1.2,2.8l1.2,2.8l2.8,1.2l2.8-1.2L1152.5,517.5z"/>
	<path class="st4" d="M1182.3,491.5l-1.1-3.4l-2.9-2.1h-3.6l-2.9,2.1l-1.1,3.4l1.1,3.4l2.9,2.1h3.6l2.9-2.1L1182.3,491.5z"/>
	<path class="st4" d="M1197.5,487.5l-1-3l-2.5-1.8h-3.1l-2.5,1.8l-1,3l1,3l2.5,1.8h3.1l2.5-1.8L1197.5,487.5z"/>
	<path class="st4" d="M1116.8,532.5l-0.9-4l-2.6-3.2l-3.7-1.8h-4.1l-3.7,1.8l-2.6,3.2l-0.9,4l0.9,4l2.6,3.2l3.7,1.8h4.1l3.7-1.8
		l2.6-3.2L1116.8,532.5z"/>
	<path class="st4" d="M1057.4,523.5l-0.8-2l-2-0.8l-2,0.8l-0.8,2l0.8,2l2,0.8l2-0.8L1057.4,523.5z"/>
	<path class="st4" d="M984.2,552.5l-0.8-1.9l-1.9-0.8l-1.9,0.8l-0.8,1.9l0.8,1.9l1.9,0.8l1.9-0.8L984.2,552.5z"/>
	<path class="st4" d="M1084.7,537.5l-0.9-2.3l-2.3-0.9l-2.3,0.9l-0.9,2.3l0.9,2.3l2.3,0.9l2.3-0.9L1084.7,537.5z"/>
	<path class="st4" d="M1042,548.5l-0.9-2.6l-2.2-1.6h-2.8l-2.2,1.6l-0.9,2.6l0.9,2.6l2.2,1.6h2.8l2.2-1.6L1042,548.5z"/>
	<path class="st4" d="M1125.5,518.5l-1-3l-2.5-1.8h-3.1l-2.5,1.8l-1,3l1,3l2.5,1.8h3.1l2.5-1.8L1125.5,518.5z"/>
	<path class="st4" d="M1146.8,529.5l-1-3.1l-2.7-1.9h-3.3l-2.7,1.9l-1,3.1l1,3.1l2.7,1.9h3.3l2.7-1.9L1146.8,529.5z"/>
	<path class="st4" d="M1086.1,547.5l-0.9-2.7l-2.3-1.7h-2.9l-2.3,1.7l-0.9,2.7l0.9,2.7l2.3,1.7h2.9l2.3-1.7L1086.1,547.5z"/>
	<path class="st4" d="M1115.5,530.5l-1.2-3.6l-3-2.2h-3.7l-3,2.2l-1.2,3.6l1.2,3.6l3,2.2h3.7l3-2.2L1115.5,530.5z"/>
	<path class="st4" d="M1149.6,524.5l-1.2-3.6l-3.1-2.2h-3.8l-3.1,2.2l-1.2,3.6l1.2,3.6l3.1,2.2h3.8l3.1-2.2L1149.6,524.5z"/>
	<path class="st4" d="M1139.2,522.5l-0.9-2.7l-2.3-1.7h-2.9l-2.3,1.7l-0.9,2.7l0.9,2.7l2.3,1.7h2.9l2.3-1.7L1139.2,522.5z"/>
	<path class="st4" d="M1262.4,392.5l-1.1-2.7l-2.7-1.1l-2.7,1.1l-1.1,2.7l1.1,2.7l2.7,1.1l2.7-1.1L1262.4,392.5z"/>
	<path class="st4" d="M1126.4,528.5l-0.9-2.9l-2.4-1.8h-3l-2.4,1.8l-0.9,2.9l0.9,2.9l2.4,1.8h3l2.4-1.8L1126.4,528.5z"/>
	<path class="st4" d="M1132.9,522.5l-1-3.1l-2.7-1.9h-3.3l-2.7,1.9l-1,3.1l1,3.1l2.7,1.9h3.3l2.7-1.9L1132.9,522.5z"/>
	<path class="st4" d="M1154.5,533.5l-1-2.9l-2.5-1.8h-3.1l-2.5,1.8l-1,2.9l1,2.9l2.5,1.8h3.1l2.5-1.8L1154.5,533.5z"/>
	<path class="st4" d="M1084.5,506.5l-1.2-2.9l-2.9-1.2l-2.9,1.2l-1.2,2.9l1.2,2.9l2.9,1.2l2.9-1.2L1084.5,506.5z"/>
	<path class="st4" d="M1152.5,519.5l-1.2-3.6l-3-2.2h-3.7l-3,2.2l-1.2,3.6l1.2,3.6l3,2.2h3.7l3-2.2L1152.5,519.5z"/>
	<path class="st4" d="M1055.2,515.5l-1.1-2.6l-2.6-1.1l-2.6,1.1l-1.1,2.6l1.1,2.6l2.6,1.1l2.6-1.1L1055.2,515.5z"/>
	<path class="st4" d="M1137.7,522.5l-1-3.1l-2.6-1.9h-3.2l-2.6,1.9l-1,3.1l1,3.1l2.6,1.9h3.2l2.6-1.9L1137.7,522.5z"/>
	<path class="st4" d="M1106.4,522.5l-1.1-2.7l-2.7-1.1l-2.7,1.1l-1.1,2.7l1.1,2.7l2.7,1.1l2.7-1.1L1106.4,522.5z"/>
	<path class="st4" d="M1094.6,516.5l-1-3l-2.6-1.9h-3.2l-2.6,1.9l-1,3l1,3l2.6,1.9h3.2l2.6-1.9L1094.6,516.5z"/>
	<path class="st4" d="M1148.7,518.5l-1-3.1l-2.6-1.9h-3.2l-2.6,1.9l-1,3.1l1,3.1l2.6,1.9h3.2l2.6-1.9L1148.7,518.5z"/>
	<path class="st4" d="M1148.7,520.5l-1-3.6l-2.6-2.6l-3.6-1l-3.6,1l-2.6,2.6l-1,3.6l1,3.6l2.6,2.6l3.6,1l3.6-1l2.6-2.6L1148.7,520.5
		z"/>
	<path class="st4" d="M1126.7,521.5l-0.8-3.1l-2.3-2.3l-3.1-0.8l-3.1,0.8l-2.3,2.3l-0.8,3.1l0.8,3.1l2.3,2.3l3.1,0.8l3.1-0.8
		l2.3-2.3L1126.7,521.5z"/>
	<path class="st4" d="M1122.4,520.5l-1.1-3.5l-3-2.2h-3.7l-3,2.2l-1.1,3.5l1.1,3.5l3,2.2h3.7l3-2.2L1122.4,520.5z"/>
	<path class="st4" d="M1137.5,518.5l-0.9-2.9l-2.5-1.8h-3.1l-2.5,1.8l-0.9,2.9l0.9,2.9l2.5,1.8h3.1l2.5-1.8L1137.5,518.5z"/>
	<path class="st4" d="M1186.6,524.5l-0.9-2.2l-2.2-0.9l-2.2,0.9l-0.9,2.2l0.9,2.2l2.2,0.9l2.2-0.9L1186.6,524.5z"/>
</g>
<line class="st5" x1="863" y1="586.5" x2="1398" y2="448.5"/>
<line class="st6" x1="1130.5" y1="790" x2="1130.5" y2="255"/>
<line class="st6" x1="863" y1="522.5" x2="1398" y2="522.5"/>
<g transform="translate(1448,448.5248)">
	<text transform="matrix(1 0 0 1 -50 5.5)" class="st4 st0 st1">CC: 0.50</text>
</g>
<g class="st3">
	<path class="st7" d="M1145.7,514.5l-1-3.1l-2.6-1.9h-3.2l-2.6,1.9l-1,3.1l1,3.1l2.6,1.9h3.2l2.6-1.9L1145.7,514.5z"/>
	<path class="st7" d="M1194.8,536.5l-1-2.4l-2.4-1l-2.4,1l-1,2.4l1,2.4l2.4,1l2.4-1L1194.8,536.5z"/>
	<path class="st7" d="M1091.3,561.5l-0.9-2.8l-2.4-1.7h-2.9l-2.4,1.7l-0.9,2.8l0.9,2.8l2.4,1.7h2.9l2.4-1.7L1091.3,561.5z"/>
	<path class="st7" d="M1143.5,524.5l-1.2-2.9l-2.9-1.2l-2.9,1.2l-1.2,2.9l1.2,2.9l2.9,1.2l2.9-1.2L1143.5,524.5z"/>
	<path class="st7" d="M1069.6,541.5l-0.9-2.2l-2.2-0.9l-2.2,0.9l-0.9,2.2l0.9,2.2l2.2,0.9l2.2-0.9L1069.6,541.5z"/>
	<path class="st7" d="M1111.6,534.5l-1-3l-2.6-1.9h-3.2l-2.6,1.9l-1,3l1,3l2.6,1.9h3.2l2.6-1.9L1111.6,534.5z"/>
	<path class="st7" d="M1096.6,547.5l-1-3l-2.5-1.9h-3.2l-2.5,1.9l-1,3l1,3l2.5,1.9h3.2l2.5-1.9L1096.6,547.5z"/>
	<path class="st7" d="M1151.1,531.5l-0.9-3.3l-2.4-2.4l-3.3-0.9l-3.3,0.9l-2.4,2.4l-0.9,3.3l0.9,3.3l2.4,2.4l3.3,0.9l3.3-0.9
		l2.4-2.4L1151.1,531.5z"/>
	<path class="st7" d="M1120.8,522.5l-0.8-2.5l-2.2-1.6h-2.7l-2.2,1.6l-0.8,2.5l0.8,2.5l2.2,1.6h2.7l2.2-1.6L1120.8,522.5z"/>
	<path class="st7" d="M1113.4,527.5l-0.9-3.5l-2.5-2.5l-3.5-0.9l-3.5,0.9l-2.5,2.5l-0.9,3.5l0.9,3.5l2.5,2.5l3.5,0.9l3.5-0.9
		l2.5-2.5L1113.4,527.5z"/>
	<path class="st7" d="M1051.7,534.5l-0.9-2.3l-2.3-0.9l-2.3,0.9l-0.9,2.3l0.9,2.3l2.3,0.9l2.3-0.9L1051.7,534.5z"/>
	<path class="st7" d="M1117.1,516.5l-1.1-2.6l-2.6-1.1l-2.6,1.1l-1.1,2.6l1.1,2.6l2.6,1.1l2.6-1.1L1117.1,516.5z"/>
	<path class="st7" d="M1164.5,473.5l-1.2-2.9l-2.9-1.2l-2.9,1.2l-1.2,2.9l1.2,2.9l2.9,1.2l2.9-1.2L1164.5,473.5z"/>
	<path class="st7" d="M1146,518.5l-1-3.2l-2.7-2h-3.4l-2.7,2l-1,3.2l1,3.2l2.7,2h3.4l2.7-2L1146,518.5z"/>
	<path class="st7" d="M1096.6,566.5l-0.9-2.2l-2.2-0.9l-2.2,0.9l-0.9,2.2l0.9,2.2l2.2,0.9l2.2-0.9L1096.6,566.5z"/>
	<path class="st7" d="M1139.2,539.5l-1.1-2.6l-2.6-1.1l-2.6,1.1l-1.1,2.6l1.1,2.6l2.6,1.1l2.6-1.1L1139.2,539.5z"/>
	<path class="st7" d="M1171.4,492.5l-0.8-2l-2-0.8l-2,0.8l-0.8,2l0.8,2l2,0.8l2-0.8L1171.4,492.5z"/>
	<path class="st7" d="M1152.4,515.5l-1.1-3.5l-3-2.1h-3.6l-3,2.1l-1.1,3.5l1.1,3.5l3,2.1h3.6l3-2.1L1152.4,515.5z"/>
	<path class="st7" d="M1169.8,511.5l-0.8-3.2l-2.3-2.3l-3.2-0.8l-3.2,0.8l-2.3,2.3l-0.8,3.2l0.8,3.2l2.3,2.3l3.2,0.8l3.2-0.8
		l2.3-2.3L1169.8,511.5z"/>
	<path class="st7" d="M1188.1,521.5l-1.1-2.5l-2.5-1.1l-2.5,1.1l-1.1,2.5l1.1,2.5l2.5,1.1l2.5-1.1L1188.1,521.5z"/>
	<path class="st7" d="M1111,514.5l-1-2.5l-2.5-1l-2.5,1l-1,2.5l1,2.5l2.5,1l2.5-1L1111,514.5z"/>
	<path class="st7" d="M1124,530.5l-1-3.2l-2.7-2h-3.4l-2.7,2l-1,3.2l1,3.2l2.7,2h3.4l2.7-2L1124,530.5z"/>
	<path class="st7" d="M1065.5,575.5l-1-2.9l-2.5-1.8h-3.1l-2.5,1.8l-1,2.9l1,2.9l2.5,1.8h3.1l2.5-1.8L1065.5,575.5z"/>
	<path class="st7" d="M1123.5,516.5l-1-3l-2.5-1.8h-3.1l-2.5,1.8l-1,3l1,3l2.5,1.8h3.1l2.5-1.8L1123.5,516.5z"/>
	<path class="st7" d="M1091.6,522.5l-1.2-2.9l-2.9-1.2l-2.9,1.2l-1.2,2.9l1.2,2.9l2.9,1.2l2.9-1.2L1091.6,522.5z"/>
	<path class="st7" d="M1139.2,530.5l-1.1-3.4l-2.9-2.1h-3.5l-2.9,2.1l-1.1,3.4l1.1,3.4l2.9,2.1h3.5l2.9-2.1L1139.2,530.5z"/>
	<path class="st7" d="M1122.7,524.5l-0.8-3.1l-2.3-2.3l-3.1-0.8l-3.1,0.8l-2.3,2.3l-0.8,3.1l0.8,3.1l2.3,2.3l3.1,0.8l3.1-0.8
		l2.3-2.3L1122.7,524.5z"/>
	<path class="st7" d="M1152.8,521.5l-1-3.1l-2.6-1.9h-3.3l-2.6,1.9l-1,3.1l1,3.1l2.6,1.9h3.3l2.6-1.9L1152.8,521.5z"/>
	<path class="st7" d="M1140,534.5l-0.9-2.6l-2.2-1.6h-2.8l-2.2,1.6l-0.9,2.6l0.9,2.6l2.2,1.6h2.8l2.2-1.6L1140,534.5z"/>
	<path class="st7" d="M1106.8,540.5l-1-3.1l-2.6-1.9h-3.3l-2.6,1.9l-1,3.1l1,3.1l2.6,1.9h3.3l2.6-1.9L1106.8,540.5z"/>
	<path class="st7" d="M1140.5,519.5l-1.1-3.5l-3-2.2h-3.7l-3,2.2l-1.1,3.5l1.1,3.5l3,2.2h3.7l3-2.2L1140.5,519.5z"/>
	<path class="st7" d="M1160.2,458.5l-1.1-2.6l-2.6-1.1l-2.6,1.1l-1.1,2.6l1.1,2.6l2.6,1.1l2.6-1.1L1160.2,458.5z"/>
	<path class="st7" d="M1164.1,486.5l-0.9-2.7l-2.3-1.7h-2.9l-2.3,1.7l-0.9,2.7l0.9,2.7l2.3,1.7h2.9l2.3-1.7L1164.1,486.5z"/>
	<path class="st7" d="M1132.2,485.5l-0.9-3.3l-2.4-2.4l-3.3-0.9l-3.3,0.9l-2.4,2.4l-0.9,3.3l0.9,3.3l2.4,2.4l3.3,0.9l3.3-0.9
		l2.4-2.4L1132.2,485.5z"/>
	<path class="st7" d="M1175,508.5l-0.9-2.7l-2.3-1.6h-2.8l-2.3,1.6l-0.9,2.7l0.9,2.7l2.3,1.6h2.8l2.3-1.6L1175,508.5z"/>
	<path class="st7" d="M1148.6,517.5l-0.9-3.5l-2.6-2.6l-3.5-0.9l-3.5,0.9l-2.6,2.6l-0.9,3.5l0.9,3.5l2.6,2.6l3.5,0.9l3.5-0.9
		l2.6-2.6L1148.6,517.5z"/>
	<path class="st7" d="M1126.3,485.5l-1.1-3.4l-2.9-2.1h-3.6l-2.9,2.1l-1.1,3.4l1.1,3.4l2.9,2.1h3.6l2.9-2.1L1126.3,485.5z"/>
	<path class="st7" d="M1199.6,496.5l-1.2-2.9l-2.9-1.2l-2.9,1.2l-1.2,2.9l1.2,2.9l2.9,1.2l2.9-1.2L1199.6,496.5z"/>
	<path class="st7" d="M1173.7,527.5l-0.8-2.5l-2.1-1.5h-2.6l-2.1,1.5l-0.8,2.5l0.8,2.5l2.1,1.5h2.6l2.1-1.5L1173.7,527.5z"/>
	<path class="st7" d="M1161.3,544.5l-1.1-2.7l-2.7-1.1l-2.7,1.1l-1.1,2.7l1.1,2.7l2.7,1.1l2.7-1.1L1161.3,544.5z"/>
	<path class="st7" d="M1120.1,556.5l-1.1-2.5l-2.5-1.1l-2.5,1.1l-1.1,2.5l1.1,2.5l2.5,1.1l2.5-1.1L1120.1,556.5z"/>
	<path class="st7" d="M1144.1,503.5l-0.9-3.3l-2.4-2.4l-3.3-0.9l-3.3,0.9l-2.4,2.4l-0.9,3.3l0.9,3.3l2.4,2.4l3.3,0.9l3.3-0.9
		l2.4-2.4L1144.1,503.5z"/>
	<path class="st7" d="M1168.5,507.5l-1.1-3.5l-3-2.2h-3.7l-3,2.2l-1.1,3.5l1.1,3.5l3,2.2h3.7l3-2.2L1168.5,507.5z"/>
	<path class="st7" d="M1142.5,518.5l-1.1-3.5l-3-2.2h-3.7l-3,2.2l-1.1,3.5l1.1,3.5l3,2.2h3.7l3-2.2L1142.5,518.5z"/>
	<path class="st7" d="M1133.6,534.5l-1.2-3.6l-3.1-2.2h-3.8l-3.1,2.2l-1.2,3.6l1.2,3.6l3.1,2.2h3.8l3.1-2.2L1133.6,534.5z"/>
	<path class="st7" d="M1155.6,520.5l-1-3l-2.5-1.8h-3.1l-2.5,1.8l-1,3l1,3l2.5,1.8h3.1l2.5-1.8L1155.6,520.5z"/>
	<path class="st7" d="M1168,480.5l-0.9-2.7l-2.3-1.7h-2.8l-2.3,1.7l-0.9,2.7l0.9,2.7l2.3,1.7h2.8l2.3-1.7L1168,480.5z"/>
	<path class="st7" d="M1141.1,507.5l-1.1-2.5l-2.5-1.1l-2.5,1.1l-1.1,2.5l1.1,2.5l2.5,1.1l2.5-1.1L1141.1,507.5z"/>
	<path class="st7" d="M1135.5,510.5l-1.2-2.8l-2.8-1.2l-2.8,1.2l-1.2,2.8l1.2,2.8l2.8,1.2l2.8-1.2L1135.5,510.5z"/>
	<path class="st7" d="M1138,528.5l-1.1-3.3l-2.8-2h-3.4l-2.8,2l-1.1,3.3l1.1,3.3l2.8,2h3.4l2.8-2L1138,528.5z"/>
	<path class="st7" d="M1158.5,511.5l-1.2-2.9l-2.9-1.2l-2.9,1.2l-1.2,2.9l1.2,2.9l2.9,1.2l2.9-1.2L1158.5,511.5z"/>
	<path class="st7" d="M1144.3,522.5l-1.1-3.4l-2.9-2.1h-3.6l-2.9,2.1l-1.1,3.4l1.1,3.4l2.9,2.1h3.6l2.9-2.1L1144.3,522.5z"/>
	<path class="st7" d="M1129.9,514.5l-1-3.2l-2.7-2h-3.3l-2.7,2l-1,3.2l1,3.2l2.7,2h3.3l2.7-2L1129.9,514.5z"/>
	<path class="st7" d="M1128.8,525.5l-1-3.1l-2.7-1.9h-3.3l-2.7,1.9l-1,3.1l1,3.1l2.7,1.9h3.3l2.7-1.9L1128.8,525.5z"/>
	<path class="st7" d="M1133,522.5l-1-3.2l-2.7-2h-3.4l-2.7,2l-1,3.2l1,3.2l2.7,2h3.4l2.7-2L1133,522.5z"/>
	<path class="st7" d="M1158.2,531.5l-1.1-2.6l-2.6-1.1l-2.6,1.1l-1.1,2.6l1.1,2.6l2.6,1.1l2.6-1.1L1158.2,531.5z"/>
	<path class="st7" d="M1157.4,511.5l-0.9-2.9l-2.4-1.8h-3l-2.4,1.8l-0.9,2.9l0.9,2.9l2.4,1.8h3l2.4-1.8L1157.4,511.5z"/>
	<path class="st7" d="M1148.9,525.5l-0.9-3.2l-2.4-2.4l-3.2-0.9l-3.2,0.9l-2.4,2.4l-0.9,3.2l0.9,3.2l2.4,2.4l3.2,0.9l3.2-0.9
		l2.4-2.4L1148.9,525.5z"/>
	<path class="st7" d="M1157.6,491.5l-1-3l-2.6-1.9h-3.2l-2.6,1.9l-1,3l1,3l2.6,1.9h3.2l2.6-1.9L1157.6,491.5z"/>
	<path class="st7" d="M1106.4,517.5l-1.1-2.7l-2.7-1.1l-2.7,1.1l-1.1,2.7l1.1,2.7l2.7,1.1l2.7-1.1L1106.4,517.5z"/>
	<path class="st7" d="M1169.7,534.5l-0.8-2.5l-2.1-1.5h-2.6l-2.1,1.5l-0.8,2.5l0.8,2.5l2.1,1.5h2.6l2.1-1.5L1169.7,534.5z"/>
	<path class="st7" d="M1121.8,524.5l-0.8-2.5l-2.2-1.6h-2.7l-2.2,1.6l-0.8,2.5l0.8,2.5l2.2,1.6h2.7l2.2-1.6L1121.8,524.5z"/>
	<path class="st7" d="M1119.9,477.5l-0.8-2.6l-2.2-1.6h-2.7l-2.2,1.6l-0.8,2.6l0.8,2.6l2.2,1.6h2.7l2.2-1.6L1119.9,477.5z"/>
	<path class="st7" d="M1128.4,532.5l-1.2-2.8l-2.8-1.2l-2.8,1.2l-1.2,2.8l1.2,2.8l2.8,1.2l2.8-1.2L1128.4,532.5z"/>
	<path class="st7" d="M1140,514.5l-0.9-3.2l-2.4-2.4l-3.2-0.9l-3.2,0.9l-2.4,2.4l-0.9,3.2l0.9,3.2l2.4,2.4l3.2,0.9l3.2-0.9l2.4-2.4
		L1140,514.5z"/>
	<path class="st7" d="M1065.3,535.5l-1.1-2.7l-2.7-1.1l-2.7,1.1l-1.1,2.7l1.1,2.7l2.7,1.1l2.7-1.1L1065.3,535.5z"/>
	<path class="st7" d="M1128,531.5l-0.9-2.6l-2.2-1.6h-2.8l-2.2,1.6l-0.9,2.6l0.9,2.6l2.2,1.6h2.8l2.2-1.6L1128,531.5z"/>
	<path class="st7" d="M1128.6,532.5l-1-3l-2.5-1.9h-3.1l-2.5,1.9l-1,3l1,3l2.5,1.9h3.1l2.5-1.9L1128.6,532.5z"/>
	<path class="st7" d="M1139.2,526.5l-0.9-3.3l-2.4-2.4l-3.3-0.9l-3.3,0.9l-2.4,2.4l-0.9,3.3l0.9,3.3l2.4,2.4l3.3,0.9l3.3-0.9
		l2.4-2.4L1139.2,526.5z"/>
	<path class="st7" d="M1141,528.5l-0.9-2.7l-2.3-1.6h-2.8l-2.3,1.6l-0.9,2.7l0.9,2.7l2.3,1.6h2.8l2.3-1.6L1141,528.5z"/>
	<path class="st7" d="M1141.1,524.5l-1.1-3.3l-2.8-2h-3.5l-2.8,2l-1.1,3.3l1.1,3.3l2.8,2h3.5l2.8-2L1141.1,524.5z"/>
	<path class="st7" d="M1168.4,500.5l-1.2-2.8l-2.8-1.2l-2.8,1.2l-1.2,2.8l1.2,2.8l2.8,1.2l2.8-1.2L1168.4,500.5z"/>
	<path class="st7" d="M1177.2,496.5l-0.9-2.8l-2.4-1.7h-2.9l-2.4,1.7l-0.9,2.8l0.9,2.8l2.4,1.7h2.9l2.4-1.7L1177.2,496.5z"/>
	<path class="st7" d="M1146.5,524.5l-1.2-2.8l-2.8-1.2l-2.8,1.2l-1.2,2.8l1.2,2.8l2.8,1.2l2.8-1.2L1146.5,524.5z"/>
	<path class="st7" d="M1157.5,524.5l-1-2.9l-2.5-1.8h-3.1l-2.5,1.8l-1,2.9l1,2.9l2.5,1.8h3.1l2.5-1.8L1157.5,524.5z"/>
	<path class="st7" d="M1171.5,493.5l-1.2-2.9l-2.9-1.2l-2.9,1.2l-1.2,2.9l1.2,2.9l2.9,1.2l2.9-1.2L1171.5,493.5z"/>
	<path class="st7" d="M1127.3,522.5l-1.1-3.4l-2.9-2.1h-3.6l-2.9,2.1l-1.1,3.4l1.1,3.4l2.9,2.1h3.6l2.9-2.1L1127.3,522.5z"/>
	<path class="st7" d="M1128.1,517.5l-0.9-2.7l-2.3-1.7h-2.9l-2.3,1.7l-0.9,2.7l0.9,2.7l2.3,1.7h2.9l2.3-1.7L1128.1,517.5z"/>
	<path class="st7" d="M1146.9,521.5l-0.9-3.2l-2.3-2.3l-3.2-0.9l-3.2,0.9l-2.3,2.3l-0.9,3.2l0.9,3.2l2.3,2.3l3.2,0.9l3.2-0.9
		l2.3-2.3L1146.9,521.5z"/>
	<path class="st7" d="M1165.2,532.5l-1.1-2.6l-2.6-1.1l-2.6,1.1l-1.1,2.6l1.1,2.6l2.6,1.1l2.6-1.1L1165.2,532.5z"/>
	<path class="st7" d="M1163.6,519.5l-1.2-2.9l-2.9-1.2l-2.9,1.2l-1.2,2.9l1.2,2.9l2.9,1.2l2.9-1.2L1163.6,519.5z"/>
	<path class="st7" d="M1134.5,544.5l-1.2-2.9l-2.9-1.2l-2.9,1.2l-1.2,2.9l1.2,2.9l2.9,1.2l2.9-1.2L1134.5,544.5z"/>
	<path class="st7" d="M1113.9,529.5l-0.8-2.6l-2.2-1.6h-2.7l-2.2,1.6l-0.8,2.6l0.8,2.6l2.2,1.6h2.7l2.2-1.6L1113.9,529.5z"/>
	<path class="st7" d="M1126.4,524.5l-0.9-2.9l-2.4-1.8h-3l-2.4,1.8l-0.9,2.9l0.9,2.9l2.4,1.8h3l2.4-1.8L1126.4,524.5z"/>
	<path class="st7" d="M1168.3,510.5l-1.1-2.7l-2.7-1.1l-2.7,1.1l-1.1,2.7l1.1,2.7l2.7,1.1l2.7-1.1L1168.3,510.5z"/>
	<path class="st7" d="M1164.3,514.5l-1.1-2.7l-2.7-1.1l-2.7,1.1l-1.1,2.7l1.1,2.7l2.7,1.1l2.7-1.1L1164.3,514.5z"/>
	<path class="st7" d="M1142.3,502.5l-1.1-2.7l-2.7-1.1l-2.7,1.1l-1.1,2.7l1.1,2.7l2.7,1.1l2.7-1.1L1142.3,502.5z"/>
	<path class="st7" d="M1138.8,535.5l-1-2.4l-2.4-1l-2.4,1l-1,2.4l1,2.4l2.4,1l2.4-1L1138.8,535.5z"/>
	<path class="st7" d="M1161.7,479.5l-0.8-2.5l-2.1-1.5h-2.6l-2.1,1.5l-0.8,2.5l0.8,2.5l2.1,1.5h2.6l2.1-1.5L1161.7,479.5z"/>
	<path class="st7" d="M1115.3,522.5l-0.8-2l-2-0.8l-2,0.8l-0.8,2l0.8,2l2,0.8l2-0.8L1115.3,522.5z"/>
	<path class="st7" d="M1096,547.5l-1-2.4l-2.4-1l-2.4,1l-1,2.4l1,2.4l2.4,1l2.4-1L1096,547.5z"/>
	<path class="st7" d="M1139.6,513.5l-0.9-2.2l-2.2-0.9l-2.2,0.9l-0.9,2.2l0.9,2.2l2.2,0.9l2.2-0.9L1139.6,513.5z"/>
	<path class="st7" d="M1151.1,517.5l-0.9-2.7l-2.3-1.7h-2.8l-2.3,1.7l-0.9,2.7l0.9,2.7l2.3,1.7h2.8l2.3-1.7L1151.1,517.5z"/>
	<path class="st7" d="M1065.3,546.5l-1.1-2.7l-2.7-1.1l-2.7,1.1l-1.1,2.7l1.1,2.7l2.7,1.1l2.7-1.1L1065.3,546.5z"/>
	<path class="st7" d="M1125.8,512.5l-0.8-2.5l-2.2-1.6h-2.7l-2.2,1.6l-0.8,2.5l0.8,2.5l2.2,1.6h2.7l2.2-1.6L1125.8,512.5z"/>
	<path class="st7" d="M1138.2,516.5l-1.1-3.3l-2.8-2.1h-3.5l-2.8,2.1l-1.1,3.3l1.1,3.3l2.8,2.1h3.5l2.8-2.1L1138.2,516.5z"/>
	<path class="st7" d="M1136,534.5l-0.9-2.7l-2.3-1.6h-2.8l-2.3,1.6l-0.9,2.7l0.9,2.7l2.3,1.6h2.8l2.3-1.6L1136,534.5z"/>
	<path class="st7" d="M1143,512.5l-0.9-3.3l-2.4-2.4l-3.3-0.9l-3.3,0.9l-2.4,2.4l-0.9,3.3l0.9,3.3l2.4,2.4l3.3,0.9l3.3-0.9l2.4-2.4
		L1143,512.5z"/>
	<path class="st7" d="M1115.2,524.5l-1.1-3.4l-2.9-2.1h-3.5l-2.9,2.1l-1.1,3.4l1.1,3.4l2.9,2.1h3.5l2.9-2.1L1115.2,524.5z"/>
	<path class="st7" d="M1164.4,513.5l-0.9-2.9l-2.5-1.8h-3.1l-2.5,1.8l-0.9,2.9l0.9,2.9l2.5,1.8h3.1l2.5-1.8L1164.4,513.5z"/>
	<path class="st7" d="M1091.3,550.5l-1.1-2.7l-2.7-1.1l-2.7,1.1l-1.1,2.7l1.1,2.7l2.7,1.1l2.7-1.1L1091.3,550.5z"/>
	<path class="st7" d="M1108.7,528.5l-1-3.1l-2.6-1.9h-3.2l-2.6,1.9l-1,3.1l1,3.1l2.6,1.9h3.2l2.6-1.9L1108.7,528.5z"/>
	<path class="st7" d="M1139.5,512.5l-1.1-3.5l-3-2.2h-3.7l-3,2.2l-1.1,3.5l1.1,3.5l3,2.2h3.7l3-2.2L1139.5,512.5z"/>
	<path class="st7" d="M1146.2,510.5l-1.1-3.3l-2.8-2.1h-3.5l-2.8,2.1l-1.1,3.3l1.1,3.3l2.8,2.1h3.5l2.8-2.1L1146.2,510.5z"/>
	<path class="st7" d="M1151.5,505.5l-1-2.9l-2.5-1.8h-3.1l-2.5,1.8l-1,2.9l1,2.9l2.5,1.8h3.1l2.5-1.8L1151.5,505.5z"/>
	<path class="st7" d="M1140.7,507.5l-1-3.6l-2.7-2.7l-3.6-1l-3.6,1l-2.7,2.7l-1,3.6l1,3.6l2.7,2.7l3.6,1l3.6-1l2.7-2.7L1140.7,507.5
		z"/>
	<path class="st7" d="M1118.5,529.5l-1-2.9l-2.5-1.8h-3.1l-2.5,1.8l-1,2.9l1,2.9l2.5,1.8h3.1l2.5-1.8L1118.5,529.5z"/>
	<path class="st7" d="M1113.4,521.5l-0.9-2.9l-2.4-1.8h-3l-2.4,1.8l-0.9,2.9l0.9,2.9l2.4,1.8h3l2.4-1.8L1113.4,521.5z"/>
	<path class="st7" d="M1141.4,512.5l-1.1-2.8l-2.8-1.1l-2.8,1.1l-1.1,2.8l1.1,2.8l2.8,1.1l2.8-1.1L1141.4,512.5z"/>
	<path class="st7" d="M1129.5,511.5l-1.2-2.8l-2.8-1.2l-2.8,1.2l-1.2,2.8l1.2,2.8l2.8,1.2l2.8-1.2L1129.5,511.5z"/>
	<path class="st7" d="M1185.9,522.5l-1-3.2l-2.7-2h-3.4l-2.7,2l-1,3.2l1,3.2l2.7,2h3.4l2.7-2L1185.9,522.5z"/>
	<path class="st7" d="M1117.9,536.5l-1-2.4l-2.4-1l-2.4,1l-1,2.4l1,2.4l2.4,1l2.4-1L1117.9,536.5z"/>
	<path class="st7" d="M1128.6,521.5l-1.2-3.6l-3-2.2h-3.8l-3,2.2l-1.2,3.6l1.2,3.6l3,2.2h3.8l3-2.2L1128.6,521.5z"/>
	<path class="st7" d="M1162,512.5l-1-3.2l-2.7-2h-3.4l-2.7,2l-1,3.2l1,3.2l2.7,2h3.4l2.7-2L1162,512.5z"/>
	<path class="st7" d="M1146.1,503.5l-0.9-2.7l-2.3-1.7h-2.9l-2.3,1.7l-0.9,2.7l0.9,2.7l2.3,1.7h2.9l2.3-1.7L1146.1,503.5z"/>
	<path class="st7" d="M1121.6,536.5l-1.2-3.6l-3.1-2.2h-3.8l-3.1,2.2l-1.2,3.6l1.2,3.6l3.1,2.2h3.8l3.1-2.2L1121.6,536.5z"/>
	<path class="st7" d="M1132.3,504.5l-1.1-2.7l-2.7-1.1l-2.7,1.1l-1.1,2.7l1.1,2.7l2.7,1.1l2.7-1.1L1132.3,504.5z"/>
	<path class="st7" d="M1104,544.5l-1-2.5l-2.5-1l-2.5,1l-1,2.5l1,2.5l2.5,1l2.5-1L1104,544.5z"/>
	<path class="st7" d="M1154.9,528.5l-0.8-2.6l-2.2-1.6h-2.7l-2.2,1.6l-0.8,2.6l0.8,2.6l2.2,1.6h2.7l2.2-1.6L1154.9,528.5z"/>
	<path class="st7" d="M1146.7,511.5l-1-3l-2.6-1.9h-3.2l-2.6,1.9l-1,3l1,3l2.6,1.9h3.2l2.6-1.9L1146.7,511.5z"/>
	<path class="st7" d="M1149.9,516.5l-1-3.2l-2.7-2h-3.3l-2.7,2l-1,3.2l1,3.2l2.7,2h3.3l2.7-2L1149.9,516.5z"/>
	<path class="st7" d="M1145.1,507.5l-1.1-2.6l-2.6-1.1l-2.6,1.1l-1.1,2.6l1.1,2.6l2.6,1.1l2.6-1.1L1145.1,507.5z"/>
	<path class="st7" d="M1132.7,519.5l-1-3l-2.6-1.9h-3.2l-2.6,1.9l-1,3l1,3l2.6,1.9h3.2l2.6-1.9L1132.7,519.5z"/>
	<path class="st7" d="M1145.4,520.5l-1.1-3.4l-2.9-2.1h-3.6l-2.9,2.1l-1.1,3.4l1.1,3.4l2.9,2.1h3.6l2.9-2.1L1145.4,520.5z"/>
	<path class="st7" d="M1145.4,519.5l-1.2-2.8l-2.8-1.2l-2.8,1.2l-1.2,2.8l1.2,2.8l2.8,1.2l2.8-1.2L1145.4,519.5z"/>
	<path class="st7" d="M1188.8,520.5l-1-2.3l-2.3-1l-2.3,1l-1,2.3l1,2.3l2.3,1l2.3-1L1188.8,520.5z"/>
	<path class="st7" d="M1143.5,520.5l-0.9-3.5l-2.6-2.6l-3.5-0.9l-3.5,0.9l-2.6,2.6l-0.9,3.5l0.9,3.5l2.6,2.6l3.5,0.9l3.5-0.9
		l2.6-2.6L1143.5,520.5z"/>
	<path class="st7" d="M1161.9,509.5l-1-3.2l-2.7-2h-3.3l-2.7,2l-1,3.2l1,3.2l2.7,2h3.3l2.7-2L1161.9,509.5z"/>
	<path class="st7" d="M1109.7,536.5l-0.8-2.5l-2.1-1.5h-2.6l-2.1,1.5l-0.8,2.5l0.8,2.5l2.1,1.5h2.6l2.1-1.5L1109.7,536.5z"/>
	<path class="st7" d="M1145.4,513.5l-1.1-2.7l-2.7-1.1l-2.7,1.1l-1.1,2.7l1.1,2.7l2.7,1.1l2.7-1.1L1145.4,513.5z"/>
	<path class="st7" d="M1090.2,550.5l-1.1-2.6l-2.6-1.1l-2.6,1.1l-1.1,2.6l1.1,2.6l2.6,1.1l2.6-1.1L1090.2,550.5z"/>
	<path class="st7" d="M1096.2,524.5l-1.1-2.6l-2.6-1.1l-2.6,1.1l-1.1,2.6l1.1,2.6l2.6,1.1l2.6-1.1L1096.2,524.5z"/>
	<path class="st7" d="M1104.2,514.5l-1.1-2.6l-2.6-1.1l-2.6,1.1l-1.1,2.6l1.1,2.6l2.6,1.1l2.6-1.1L1104.2,514.5z"/>
	<path class="st7" d="M1127.7,521.5l-1-3l-2.6-1.9h-3.2l-2.6,1.9l-1,3l1,3l2.6,1.9h3.2l2.6-1.9L1127.7,521.5z"/>
	<path class="st7" d="M1119.9,513.5l-0.8-2.6l-2.2-1.6h-2.7l-2.2,1.6l-0.8,2.6l0.8,2.6l2.2,1.6h2.7l2.2-1.6L1119.9,513.5z"/>
	<path class="st7" d="M1088.4,489.5l-0.8-2l-2-0.8l-2,0.8l-0.8,2l0.8,2l2,0.8l2-0.8L1088.4,489.5z"/>
	<path class="st7" d="M1135.7,501.5l-0.8-2.4l-2.1-1.5h-2.6l-2.1,1.5l-0.8,2.4l0.8,2.4l2.1,1.5h2.6l2.1-1.5L1135.7,501.5z"/>
	<path class="st7" d="M1147.6,500.5l-1-3l-2.6-1.9h-3.2l-2.6,1.9l-1,3l1,3l2.6,1.9h3.2l2.6-1.9L1147.6,500.5z"/>
	<path class="st7" d="M1119.4,527.5l-1.1-3.5l-2.9-2.1h-3.6l-2.9,2.1l-1.1,3.5l1.1,3.5l2.9,2.1h3.6l2.9-2.1L1119.4,527.5z"/>
	<path class="st7" d="M1146,527.5l-0.9-2.6l-2.3-1.6h-2.8l-2.3,1.6l-0.9,2.6l0.9,2.6l2.3,1.6h2.8l2.3-1.6L1146,527.5z"/>
	<path class="st7" d="M1128.3,506.5l-1.1-2.7l-2.7-1.1l-2.7,1.1l-1.1,2.7l1.1,2.7l2.7,1.1l2.7-1.1L1128.3,506.5z"/>
	<path class="st7" d="M1164.9,526.5l-1-2.4l-2.4-1l-2.4,1l-1,2.4l1,2.4l2.4,1l2.4-1L1164.9,526.5z"/>
	<path class="st7" d="M1105.3,552.5l-0.9-2.8l-2.4-1.7h-3l-2.4,1.7l-0.9,2.8l0.9,2.8l2.4,1.7h3l2.4-1.7L1105.3,552.5z"/>
	<path class="st7" d="M1098,512.5l-0.9-2.7l-2.3-1.6h-2.8l-2.3,1.6l-0.9,2.7l0.9,2.7l2.3,1.6h2.8l2.3-1.6L1098,512.5z"/>
	<path class="st7" d="M1146.4,513.5l-1.2-2.8l-2.8-1.2l-2.8,1.2l-1.2,2.8l1.2,2.8l2.8,1.2l2.8-1.2L1146.4,513.5z"/>
	<path class="st7" d="M1148.5,529.5l-1.2-2.9l-2.9-1.2l-2.9,1.2l-1.2,2.9l1.2,2.9l2.9,1.2l2.9-1.2L1148.5,529.5z"/>
	<path class="st7" d="M1117.7,539.5l-1-3l-2.6-1.9h-3.2l-2.6,1.9l-1,3l1,3l2.6,1.9h3.2l2.6-1.9L1117.7,539.5z"/>
	<path class="st7" d="M1162.9,521.5l-1-3.2l-2.7-2h-3.3l-2.7,2l-1,3.2l1,3.2l2.7,2h3.3l2.7-2L1162.9,521.5z"/>
	<path class="st7" d="M1129.4,527.5l-0.9-2.1l-2.1-0.9l-2.1,0.9l-0.9,2.1l0.9,2.1l2.1,0.9l2.1-0.9L1129.4,527.5z"/>
	<path class="st7" d="M1169.2,530.5l-0.8-1.9l-1.9-0.8l-1.9,0.8l-0.8,1.9l0.8,1.9l1.9,0.8l1.9-0.8L1169.2,530.5z"/>
	<path class="st7" d="M1048.4,545.5l-0.9-2.1l-2.1-0.9l-2.1,0.9l-0.9,2.1l0.9,2.1l2.1,0.9l2.1-0.9L1048.4,545.5z"/>
	<path class="st7" d="M1135.1,522.5l-0.9-2.7l-2.3-1.7h-2.9l-2.3,1.7l-0.9,2.7l0.9,2.7l2.3,1.7h2.9l2.3-1.7L1135.1,522.5z"/>
	<path class="st7" d="M1135.5,526.5l-0.9-2.1l-2.1-0.9l-2.1,0.9l-0.9,2.1l0.9,2.1l2.1,0.9l2.1-0.9L1135.5,526.5z"/>
	<path class="st7" d="M1124.2,530.5l-1.1-2.6l-2.6-1.1l-2.6,1.1l-1.1,2.6l1.1,2.6l2.6,1.1l2.6-1.1L1124.2,530.5z"/>
	<path class="st7" d="M1089.7,539.5l-0.9-2.3l-2.3-0.9l-2.3,0.9l-0.9,2.3l0.9,2.3l2.3,0.9l2.3-0.9L1089.7,539.5z"/>
	<path class="st7" d="M1145.1,544.5l-0.8-1.8l-1.8-0.8l-1.8,0.8l-0.8,1.8l0.8,1.8l1.8,0.8l1.8-0.8L1145.1,544.5z"/>
	<path class="st7" d="M1172.4,512.5l-0.9-2.1l-2.1-0.9l-2.1,0.9l-0.9,2.1l0.9,2.1l2.1,0.9l2.1-0.9L1172.4,512.5z"/>
	<path class="st7" d="M1118.1,545.5l-1-2.5l-2.5-1l-2.5,1l-1,2.5l1,2.5l2.5,1l2.5-1L1118.1,545.5z"/>
	<path class="st7" d="M1130.7,547.5l-0.9-2.3l-2.3-0.9l-2.3,0.9l-0.9,2.3l0.9,2.3l2.3,0.9l2.3-0.9L1130.7,547.5z"/>
	<path class="st7" d="M1160.1,520.5l-1.1-2.5l-2.5-1.1l-2.5,1.1l-1.1,2.5l1.1,2.5l2.5,1.1l2.5-1.1L1160.1,520.5z"/>
	<path class="st7" d="M1157.3,529.5l-0.8-2l-2-0.8l-2,0.8l-0.8,2l0.8,2l2,0.8l2-0.8L1157.3,529.5z"/>
	<path class="st7" d="M1142.2,519.5l-0.8-1.9l-1.9-0.8l-1.9,0.8l-0.8,1.9l0.8,1.9l1.9,0.8l1.9-0.8L1142.2,519.5z"/>
	<path class="st7" d="M1125.8,524.5l-1-2.4l-2.4-1l-2.4,1l-1,2.4l1,2.4l2.4,1l2.4-1L1125.8,524.5z"/>
	<path class="st7" d="M1109,558.5l-1-2.5l-2.5-1l-2.5,1l-1,2.5l1,2.5l2.5,1l2.5-1L1109,558.5z"/>
	<path class="st7" d="M1115.7,526.5l-0.9-2.3l-2.3-0.9l-2.3,0.9l-0.9,2.3l0.9,2.3l2.3,0.9l2.3-0.9L1115.7,526.5z"/>
	<path class="st7" d="M1144.6,518.5l-0.9-2.2l-2.2-0.9l-2.2,0.9l-0.9,2.2l0.9,2.2l2.2,0.9l2.2-0.9L1144.6,518.5z"/>
	<path class="st7" d="M1124.3,522.5l-1.1-2.7l-2.7-1.1l-2.7,1.1l-1.1,2.7l1.1,2.7l2.7,1.1l2.7-1.1L1124.3,522.5z"/>
	<path class="st7" d="M1119,522.5l-1-2.5l-2.5-1l-2.5,1l-1,2.5l1,2.5l2.5,1l2.5-1L1119,522.5z"/>
	<path class="st7" d="M1096.2,522.5l-0.8-1.9l-1.9-0.8l-1.9,0.8l-0.8,1.9l0.8,1.9l1.9,0.8l1.9-0.8L1096.2,522.5z"/>
	<path class="st7" d="M1141.2,514.5l-1.1-2.6l-2.6-1.1l-2.6,1.1l-1.1,2.6l1.1,2.6l2.6,1.1l2.6-1.1L1141.2,514.5z"/>
	<path class="st7" d="M1161.7,549.5l-0.9-2.3l-2.3-0.9l-2.3,0.9l-0.9,2.3l0.9,2.3l2.3,0.9l2.3-0.9L1161.7,549.5z"/>
	<path class="st7" d="M1054.1,502.5l-0.8-1.8l-1.8-0.8l-1.8,0.8l-0.8,1.8l0.8,1.8l1.8,0.8l1.8-0.8L1054.1,502.5z"/>
	<path class="st7" d="M1140.7,508.5l-0.9-2.3l-2.3-0.9l-2.3,0.9l-0.9,2.3l0.9,2.3l2.3,0.9l2.3-0.9L1140.7,508.5z"/>
	<path class="st7" d="M1142,529.5l-1.3-2.2h-2.5l-1.3,2.2l1.3,2.2h2.5L1142,529.5z"/>
	<path class="st7" d="M1118.7,520.5l-0.9-2.3l-2.3-0.9l-2.3,0.9l-0.9,2.3l0.9,2.3l2.3,0.9l2.3-0.9L1118.7,520.5z"/>
	<path class="st7" d="M1112.6,498.5l-0.9-2.2l-2.2-0.9l-2.2,0.9l-0.9,2.2l0.9,2.2l2.2,0.9l2.2-0.9L1112.6,498.5z"/>
	<path class="st7" d="M1113.8,516.5l-0.8-2.5l-2.1-1.6h-2.6l-2.1,1.6l-0.8,2.5l0.8,2.5l2.1,1.6h2.6l2.1-1.6L1113.8,516.5z"/>
	<path class="st7" d="M1124.5,531.5l-1.2-2.8l-2.8-1.2l-2.8,1.2l-1.2,2.8l1.2,2.8l2.8,1.2l2.8-1.2L1124.5,531.5z"/>
	<path class="st7" d="M1097.8,533.5l-1-3.1l-2.7-1.9h-3.3l-2.7,1.9l-1,3.1l1,3.1l2.7,1.9h3.3l2.7-1.9L1097.8,533.5z"/>
	<path class="st7" d="M1162,513.5l-1-2.4l-2.4-1l-2.4,1l-1,2.4l1,2.4l2.4,1l2.4-1L1162,513.5z"/>
	<path class="st7" d="M1077.7,524.5l-0.8-2.5l-2.1-1.5h-2.6l-2.1,1.5l-0.8,2.5l0.8,2.5l2.1,1.5h2.6l2.1-1.5L1077.7,524.5z"/>
	<path class="st7" d="M1137.2,526.5l-1.1-2.6l-2.6-1.1l-2.6,1.1l-1.1,2.6l1.1,2.6l2.6,1.1l2.6-1.1L1137.2,526.5z"/>
	<path class="st7" d="M1049.1,508.5l-0.8-1.8l-1.8-0.8l-1.8,0.8l-0.8,1.8l0.8,1.8l1.8,0.8l1.8-0.8L1049.1,508.5z"/>
	<path class="st7" d="M1207.4,562.5l-0.9-2.1l-2.1-0.9l-2.1,0.9l-0.9,2.1l0.9,2.1l2.1,0.9l2.1-0.9L1207.4,562.5z"/>
	<path class="st7" d="M1137.6,514.5l-1.2-2.9l-2.9-1.2l-2.9,1.2l-1.2,2.9l1.2,2.9l2.9,1.2l2.9-1.2L1137.6,514.5z"/>
	<path class="st7" d="M1111.5,546.5l-1.2-2.9l-2.9-1.2l-2.9,1.2l-1.2,2.9l1.2,2.9l2.9,1.2l2.9-1.2L1111.5,546.5z"/>
	<path class="st7" d="M1113.4,589.5l-1.1-2.8l-2.8-1.1l-2.8,1.1l-1.1,2.8l1.1,2.8l2.8,1.1l2.8-1.1L1113.4,589.5z"/>
	<path class="st7" d="M1116.2,536.5l-1.1-2.6l-2.6-1.1l-2.6,1.1l-1.1,2.6l1.1,2.6l2.6,1.1l2.6-1.1L1116.2,536.5z"/>
	<path class="st7" d="M1128.5,500.5l-0.9-2.2l-2.2-0.9l-2.2,0.9l-0.9,2.2l0.9,2.2l2.2,0.9l2.2-0.9L1128.5,500.5z"/>
	<path class="st7" d="M1141.9,513.5l-0.9-3.2l-2.3-2.3l-3.2-0.9l-3.2,0.9l-2.3,2.3l-0.9,3.2l0.9,3.2l2.3,2.3l3.2,0.9l3.2-0.9
		l2.3-2.3L1141.9,513.5z"/>
</g>
<line class="st10" x1="863" y1="581.8" x2="1398" y2="462.3"/>
<g transform="translate(1448,462.3379)">
	<text transform="matrix(1 0 0 1 -50 5.5)" class="st7 st0 st1">ISA: 0.40</text>
</g>
<g transform="translate(1180.5011,252.25)">
	<text transform="matrix(1 0 0 1 -100.0107 -4)" class="st0 st9">dlPFC</text>
</g>
<text transform="matrix(1 0 0 1 488.7978 854.7473)" class="st0 st1">Stronger for Orientation Rule</text>
<text transform="matrix(1 0 0 1 325.3877 854.7473)" class="st0 st1">Stronger for Color Rule</text>
<g>
	<line class="st11" x1="414.9" y1="870.8" x2="379.8" y2="870.8"/>
	<g>
		<line class="st12" x1="414.9" y1="870.8" x2="388.6" y2="870.8"/>
		<g>
			<polygon points="390.6,867.9 379.8,870.8 390.6,873.7 			"/>
		</g>
	</g>
</g>
<g>
	<line class="st11" x1="560.7" y1="870.8" x2="595.8" y2="870.8"/>
	<g>
		<line class="st12" x1="560.7" y1="870.8" x2="587" y2="870.8"/>
		<g>
			<polygon points="585,873.7 595.8,870.8 585,867.9 			"/>
		</g>
	</g>
</g>
<text transform="matrix(4.489659e-011 -1 1 4.489659e-011 132.7611 514.3994)" class="st0 st1">Stronger for Orientation Rule</text>
<text transform="matrix(4.489659e-011 -1 1 4.489659e-011 132.7611 677.8096)" class="st0 st1">Stronger for Color Rule</text>
<g>
	<line class="st11" x1="148.8" y1="588.3" x2="148.8" y2="623.4"/>
	<g>
		<line class="st12" x1="148.8" y1="588.3" x2="148.8" y2="614.6"/>
		<g>
			<polygon points="145.9,612.6 148.8,623.4 151.7,612.6 			"/>
		</g>
	</g>
</g>
<g>
	<line class="st11" x1="148.8" y1="442.5" x2="148.8" y2="407.4"/>
	<g>
		<line class="st12" x1="148.8" y1="442.5" x2="148.8" y2="416.2"/>
		<g>
			<polygon points="151.7,418.2 148.8,407.4 145.9,418.2 			"/>
		</g>
	</g>
</g>
<text transform="matrix(1 0 0 1 1147.6979 854.7474)" class="st0 st1">Stronger for Orientation Rule</text>
<text transform="matrix(1 0 0 1 984.2877 854.7474)" class="st0 st1">Stronger for Color Rule</text>
<g>
	<line class="st11" x1="1073.8" y1="870.8" x2="1038.7" y2="870.8"/>
	<g>
		<line class="st12" x1="1073.8" y1="870.8" x2="1047.5" y2="870.8"/>
		<g>
			<polygon points="1049.5,867.9 1038.7,870.8 1049.5,873.7 			"/>
		</g>
	</g>
</g>
<g>
	<line class="st11" x1="1219.6" y1="870.8" x2="1254.7" y2="870.8"/>
	<g>
		<line class="st12" x1="1219.6" y1="870.8" x2="1245.9" y2="870.8"/>
		<g>
			<polygon points="1243.9,873.7 1254.7,870.8 1243.9,867.9 			"/>
		</g>
	</g>
</g>
</svg>
